<?xml version="1.0" encoding="UTF-8"?>
<svg id="Elements" xmlns="http://www.w3.org/2000/svg" viewBox="0 0 1500 1000">
  <defs>
    <style>
      .cls-1 {
        fill: #231f20;
      }
    </style>
  </defs>
  <path class="cls-1" d="M777.68,788.6c0,9.49-6.06,18.99-16.92,21.1-1.07.2-2.2.34-3.37.4,1.72,3.35,2.5,6.72,2.5,9.93,0,10.44-8.16,19.23-18.03,20.96-5.29.93-11.06-.19-16.32-4.17-2.51,11.06-11.65,16.58-20.79,16.58s-18.26-5.52-20.77-16.58c-4.11,3.12-8.55,4.48-12.81,4.48-1.18,0-2.36-.11-3.51-.31-12.89-2.25-22.86-16.6-15.51-30.88-12.95-.64-20.31-11.06-20.31-21.5,0-7.83,4.13-15.67,13.08-19.44-4.86-4.5-6.95-9.99-6.95-15.37,0-13.06,12.38-25.38,27.74-20.62-.12-1.02-.19-2.02-.19-2.98,0-20.45,27.52-29.44,39.25-11.23,12.29-19.08,41.9-8.3,39.04,14.21,2.31-.71,4.54-1.04,6.69-1.04,17.96,0,28.98,23.27,14.1,37.03,8.03,3.38,12.19,10.05,12.94,17.05.09.79.14,1.6.14,2.39Z"/>
  <path class="cls-1" d="M689.91,657.06c4.18,11.42,1.43,23.86-7.18,32.47-5.94,5.94-13.72,9.09-21.73,9.09-3.58,0-7.21-.62-10.74-1.91-14.89-5.45-31.27-5.45-46.15,0-11.44,4.18-23.88,1.43-32.49-7.18-8.61-8.61-11.36-21.05-7.16-32.47,5.45-14.89,5.45-31.27,0-46.15-4.2-11.44-1.45-23.88,7.16-32.49,8.61-8.61,21.05-11.36,32.49-7.16,7.44,2.71,15.25,4.08,23.06,4.08s15.64-1.37,23.08-4.08c11.42-4.2,23.86-1.45,32.47,7.16s11.36,21.05,7.18,32.49c-5.45,14.87-5.45,31.26,0,46.15Z"/>
  <path class="cls-1" d="M687.12,461.66l-38.99,67.53c-7.84,13.58,1.96,30.56,17.65,30.56h77.97c15.69,0,25.49-16.98,17.65-30.56l-38.99-67.53c-7.84-13.58-27.45-13.58-35.29,0Z"/>
  <path class="cls-1" d="M641.19,357.11h0c4.35,11.76,13.63,21.04,25.39,25.39h0c13,4.81,13,23.2,0,28.02h0c-11.76,4.35-21.04,13.63-25.39,25.39h0c-4.81,13-23.2,13-28.02,0h0c-4.35-11.76-13.63-21.04-25.39-25.39h0c-13-4.81-13-23.2,0-28.02h0c11.76-4.35,21.04-13.63,25.39-25.39h0c4.81-13,23.2-13,28.02,0Z"/>
  <path class="cls-1" d="M742.22,311.28c0,4.88-3.12,9.75-8.69,10.84-.55.1-1.13.18-1.73.21.88,1.72,1.28,3.45,1.28,5.1,0,5.36-4.19,9.88-9.26,10.76-2.72.48-5.68-.1-8.38-2.14-1.29,5.68-5.98,8.52-10.68,8.52s-9.38-2.84-10.67-8.52c-2.11,1.6-4.39,2.3-6.58,2.3-.61,0-1.21-.06-1.8-.16-6.62-1.16-11.74-8.53-7.97-15.86-6.65-.33-10.43-5.68-10.43-11.04,0-4.02,2.12-8.05,6.72-9.98-2.49-2.31-3.57-5.13-3.57-7.9,0-6.71,6.36-13.04,14.25-10.59-.06-.53-.1-1.04-.1-1.53,0-10.5,14.14-15.12,20.16-5.77,6.31-9.8,21.52-4.26,20.06,7.3,1.19-.37,2.33-.53,3.43-.53,9.23,0,14.88,11.95,7.24,19.02,4.13,1.74,6.26,5.16,6.65,8.76.05.41.07.82.07,1.23Z"/>
  <path class="cls-1" d="M654.74,246.02c1.84,5.02.63,10.48-3.15,14.27-2.61,2.61-6.03,3.99-9.55,3.99-1.57,0-3.17-.27-4.72-.84-6.54-2.39-13.74-2.39-20.27,0-5.03,1.84-10.49.63-14.27-3.15-3.78-3.78-4.99-9.25-3.15-14.27,2.39-6.54,2.39-13.74,0-20.27-1.84-5.03-.64-10.49,3.15-14.27,3.78-3.78,9.25-4.99,14.27-3.15,3.27,1.19,6.7,1.79,10.13,1.79s6.87-.6,10.14-1.79c5.02-1.84,10.48-.64,14.27,3.15,3.78,3.78,4.99,9.25,3.15,14.27-2.39,6.53-2.39,13.73,0,20.27Z"/>
  <path class="cls-1" d="M698.4,168.24l-14.07,24.38c-2.83,4.9.71,11.03,6.37,11.03h28.15c5.66,0,9.2-6.13,6.37-11.03l-14.07-24.38c-2.83-4.9-9.91-4.9-12.74,0Z"/>
  <path class="cls-1" d="M630.46,141.95h0c1.02,2.75,3.19,4.92,5.94,5.94h0c3.04,1.13,3.04,5.43,0,6.55h0c-2.75,1.02-4.92,3.19-5.94,5.94h0c-1.13,3.04-5.43,3.04-6.55,0h0c-1.02-2.75-3.19-4.92-5.94-5.94h0c-3.04-1.13-3.04-5.43,0-6.55h0c2.75-1.02,4.92-3.19,5.94-5.94h0c1.13-3.04,5.43-3.04,6.55,0Z"/>
  <path class="cls-1" d="M1104.91,807.71c4.79,13.1,1.64,27.36-8.23,37.23-6.82,6.82-15.73,10.42-24.91,10.42-4.1,0-8.27-.71-12.31-2.2-17.07-6.24-35.85-6.24-52.9,0-13.12,4.79-27.38,1.64-37.25-8.23-9.87-9.87-13.02-24.13-8.21-37.23,6.24-17.07,6.24-35.85,0-52.9-4.81-13.12-1.66-27.38,8.21-37.25,9.87-9.87,24.13-13.02,37.25-8.21,8.53,3.11,17.49,4.68,26.44,4.68s17.93-1.57,26.46-4.68c13.1-4.81,27.36-1.66,37.23,8.21,9.87,9.87,13.02,24.13,8.23,37.25-6.24,17.05-6.24,35.83,0,52.9Z"/>
  <path class="cls-1" d="M1019.01,640.38c0,8.28-5.29,16.56-14.76,18.4-.93.18-1.92.3-2.94.35,1.5,2.92,2.18,5.86,2.18,8.66,0,9.11-7.12,16.78-15.72,18.28-4.61.81-9.65-.16-14.23-3.64-2.19,9.65-10.16,14.46-18.13,14.46s-15.93-4.82-18.12-14.46c-3.59,2.72-7.46,3.91-11.18,3.91-1.03,0-2.06-.1-3.06-.27-11.24-1.96-19.94-14.48-13.53-26.94-11.3-.55-17.71-9.65-17.71-18.75,0-6.83,3.6-13.67,11.41-16.95-4.24-3.92-6.06-8.71-6.06-13.41,0-11.39,10.8-22.14,24.19-17.98-.11-.89-.16-1.76-.16-2.6,0-17.83,24-25.68,34.23-9.8,10.72-16.64,36.55-7.24,34.06,12.39,2.02-.62,3.96-.91,5.83-.91,15.67,0,25.28,20.3,12.3,32.3,7.01,2.95,10.64,8.77,11.28,14.87.08.69.12,1.39.12,2.08Z"/>
  <path class="cls-1" d="M1049.92,458h0c5.26,14.22,16.47,25.42,30.68,30.68h0c15.71,5.81,15.71,28.04,0,33.85h0c-14.21,5.26-25.42,16.47-30.68,30.68h0c-5.81,15.71-28.04,15.71-33.85,0h0c-5.26-14.22-16.47-25.42-30.68-30.68h0c-15.71-5.81-15.71-28.04,0-33.85h0c14.21-5.26,25.42-16.47,30.68-30.68h0c5.81-15.71,28.04-15.71,33.85,0Z"/>
  <path class="cls-1" d="M940.8,360.14l-32.27,55.89c-6.49,11.24,1.62,25.29,14.6,25.29h64.53c12.98,0,21.09-14.05,14.6-25.29l-32.27-55.89c-6.49-11.24-22.72-11.24-29.21,0Z"/>
  <path class="cls-1" d="M1069.93,321.1c2.46,6.73.84,14.05-4.23,19.12-3.5,3.5-8.08,5.35-12.8,5.35-2.11,0-4.25-.36-6.33-1.13-8.77-3.21-18.42-3.21-27.17,0-6.74,2.46-14.06.84-19.13-4.23-5.07-5.07-6.69-12.4-4.22-19.12,3.21-8.77,3.21-18.42,0-27.17-2.47-6.74-.85-14.06,4.22-19.13,5.07-5.07,12.4-6.69,19.13-4.22,4.38,1.6,8.98,2.4,13.58,2.4s9.21-.8,13.59-2.4c6.73-2.47,14.05-.85,19.12,4.22,5.07,5.07,6.69,12.4,4.23,19.13-3.21,8.76-3.21,18.41,0,27.17Z"/>
  <path class="cls-1" d="M983.35,238.7c0,3.64-2.32,7.28-6.49,8.09-.41.08-.84.13-1.29.15.66,1.28.96,2.57.96,3.8,0,4-3.13,7.37-6.91,8.03-2.03.36-4.24-.07-6.25-1.6-.96,4.24-4.46,6.36-7.97,6.36s-7-2.12-7.96-6.36c-1.58,1.19-3.28,1.72-4.91,1.72-.45,0-.9-.04-1.34-.12-4.94-.86-8.76-6.36-5.94-11.84-4.96-.24-7.78-4.24-7.78-8.24,0-3,1.58-6,5.01-7.45-1.86-1.72-2.66-3.83-2.66-5.89,0-5.01,4.74-9.73,10.63-7.9-.05-.39-.07-.77-.07-1.14,0-7.84,10.55-11.28,15.04-4.3,4.71-7.31,16.06-3.18,14.96,5.45.89-.27,1.74-.4,2.56-.4,6.88,0,11.1,8.92,5.4,14.19,3.08,1.3,4.67,3.85,4.96,6.53.04.3.05.61.05.92Z"/>
  <path class="cls-1" d="M1039.1,166.92h0c1.9,5.13,5.94,9.18,11.08,11.08h0c5.67,2.1,5.67,10.12,0,12.22h0c-5.13,1.9-9.18,5.94-11.08,11.08h0c-2.1,5.67-10.12,5.67-12.22,0h0c-1.9-5.13-5.94-9.18-11.08-11.08h0c-5.67-2.1-5.67-10.12,0-12.22h0c5.13-1.9,9.18-5.94,11.08-11.08h0c2.1-5.67,10.12-5.67,12.22,0Z"/>
  <path class="cls-1" d="M951.99,142.66l-7.55,13.07c-1.52,2.63.38,5.92,3.42,5.92h15.09c3.04,0,4.93-3.29,3.42-5.92l-7.55-13.07c-1.52-2.63-5.31-2.63-6.83,0Z"/>
  <path class="cls-1" d="M891.41,717.87h0c7,18.92,21.92,33.85,40.85,40.85h0c20.92,7.74,20.92,37.33,0,45.07h0c-18.92,7-33.85,21.92-40.85,40.85h0c-7.74,20.92-37.33,20.92-45.07,0h0c-7-18.92-21.92-33.85-40.85-40.85h0c-20.92-7.74-20.92-37.33,0-45.07h0c18.92-7,33.85-21.92,40.85-40.85h0c7.74-20.92,37.33-20.92,45.07,0Z"/>
  <path class="cls-1" d="M770.8,582.94l-45.28,78.42c-9.11,15.77,2.28,35.49,20.49,35.49h90.55c18.22,0,29.6-19.72,20.49-35.49l-45.28-78.42c-9.11-15.77-31.88-15.77-40.98,0Z"/>
  <path class="cls-1" d="M923.65,511.13c0,7.13-4.56,14.26-12.71,15.85-.8.15-1.65.26-2.53.3,1.29,2.52,1.88,5.04,1.88,7.46,0,7.84-6.13,14.45-13.54,15.74-3.97.7-8.31-.14-12.26-3.13-1.89,8.31-8.75,12.46-15.61,12.46s-13.71-4.15-15.6-12.46c-3.09,2.34-6.42,3.37-9.62,3.37-.89,0-1.77-.08-2.63-.23-9.68-1.69-17.17-12.47-11.65-23.2-9.73-.48-15.25-8.31-15.25-16.15,0-5.88,3.1-11.77,9.82-14.6-3.65-3.38-5.22-7.5-5.22-11.55,0-9.81,9.3-19.06,20.83-15.49-.09-.77-.14-1.51-.14-2.24,0-15.36,20.67-22.11,29.48-8.44,9.23-14.33,31.47-6.23,29.33,10.67,1.74-.54,3.41-.78,5.02-.78,13.49,0,21.76,17.48,10.59,27.81,6.04,2.54,9.16,7.55,9.72,12.8.07.59.1,1.2.1,1.79Z"/>
  <path class="cls-1" d="M836,412.96c2.98,8.14,1.02,17.01-5.12,23.14-4.24,4.24-9.78,6.48-15.49,6.48-2.55,0-5.14-.44-7.66-1.36-10.61-3.88-22.29-3.88-32.89,0-8.15,2.98-17.02,1.02-23.15-5.12-6.14-6.14-8.09-15-5.1-23.14,3.88-10.61,3.88-22.29,0-32.89-2.99-8.15-1.03-17.02,5.1-23.15,6.14-6.14,15-8.09,23.15-5.1,5.31,1.93,10.87,2.91,16.44,2.91s11.14-.97,16.45-2.91c8.14-2.99,17.01-1.03,23.14,5.1,6.14,6.14,8.09,15,5.12,23.15-3.88,10.6-3.88,22.28,0,32.89Z"/>
  <path class="cls-1" d="M880.45,274.95h0c3.6,9.72,11.26,17.39,20.98,20.98h0c10.75,3.98,10.75,19.17,0,23.15h0c-9.72,3.6-17.39,11.26-20.98,20.98h0c-3.98,10.75-19.17,10.75-23.15,0h0c-3.6-9.72-11.26-17.39-20.98-20.98h0c-10.75-3.98-10.75-19.17,0-23.15h0c9.72-3.6,17.39-11.26,20.98-20.98h0c3.98-10.75,19.17-10.75,23.15,0Z"/>
  <path class="cls-1" d="M782.29,213.46l-19.89,34.45c-4,6.93,1,15.59,9,15.59h39.78c8,0,13-8.66,9-15.59l-19.89-34.45c-4-6.93-14.01-6.93-18.01,0Z"/>
  <path class="cls-1" d="M888.65,186.09c0,2.57-1.64,5.15-4.59,5.72-.29.05-.6.09-.91.11.47.91.68,1.82.68,2.69,0,2.83-2.21,5.22-4.89,5.68-1.43.25-3-.05-4.42-1.13-.68,3-3.16,4.5-5.64,4.5s-4.95-1.5-5.63-4.5c-1.11.85-2.32,1.22-3.47,1.22-.32,0-.64-.03-.95-.08-3.5-.61-6.2-4.5-4.21-8.37-3.51-.17-5.51-3-5.51-5.83,0-2.12,1.12-4.25,3.55-5.27-1.32-1.22-1.88-2.71-1.88-4.17,0-3.54,3.36-6.88,7.52-5.59-.03-.28-.05-.55-.05-.81,0-5.54,7.46-7.98,10.64-3.05,3.33-5.17,11.36-2.25,10.59,3.85.63-.19,1.23-.28,1.81-.28,4.87,0,7.86,6.31,3.82,10.04,2.18.92,3.31,2.73,3.51,4.62.03.21.04.43.04.65Z"/>
  <path class="cls-1" d="M801.75,155.01c.7,1.9.24,3.98-1.2,5.41-.99.99-2.29,1.52-3.62,1.52-.6,0-1.2-.1-1.79-.32-2.48-.91-5.21-.91-7.69,0-1.91.7-3.98.24-5.42-1.2-1.43-1.43-1.89-3.51-1.19-5.41.91-2.48.91-5.21,0-7.69-.7-1.91-.24-3.98,1.19-5.42,1.44-1.43,3.51-1.89,5.42-1.19,1.24.45,2.54.68,3.84.68s2.61-.23,3.85-.68c1.9-.7,3.98-.24,5.41,1.19s1.89,3.51,1.2,5.42c-.91,2.48-.91,5.21,0,7.69Z"/>
  <path class="cls-1" d="M1173.61,722.74l-51.9,89.9c-10.44,18.08,2.61,40.69,23.49,40.69h103.81c20.88,0,33.93-22.61,23.49-40.69l-51.9-89.9c-10.44-18.08-36.54-18.08-46.98,0Z"/>
  <path class="cls-1" d="M1139.17,578.69h0c6.11,16.51,19.12,29.52,35.63,35.63h0c18.25,6.75,18.25,32.56,0,39.31h0c-16.51,6.11-29.52,19.12-35.63,35.63h0c-6.75,18.25-32.56,18.25-39.31,0h0c-6.11-16.51-19.12-29.52-35.63-35.63h0c-18.25-6.75-18.25-32.56,0-39.31h0c16.51-6.11,29.52-19.12,35.63-35.63h0c6.75-18.25,32.56-18.25,39.31,0Z"/>
  <path class="cls-1" d="M1251.12,525.48c3.6,9.84,1.23,20.55-6.18,27.96-5.12,5.12-11.82,7.83-18.71,7.83-3.08,0-6.21-.53-9.25-1.65-12.82-4.69-26.93-4.69-39.74,0-9.85,3.6-20.56,1.23-27.98-6.18-7.41-7.41-9.78-18.13-6.17-27.96,4.69-12.82,4.69-26.93,0-39.74-3.61-9.85-1.25-20.56,6.17-27.98,7.41-7.41,18.13-9.78,27.98-6.17,6.41,2.34,13.14,3.51,19.86,3.51s13.46-1.18,19.88-3.51c9.84-3.61,20.55-1.25,27.96,6.17,7.41,7.41,9.78,18.13,6.18,27.98-4.69,12.81-4.69,26.92,0,39.74Z"/>
  <path class="cls-1" d="M1164.84,401.08c0,5.9-3.77,11.8-10.52,13.11-.67.13-1.37.21-2.09.25,1.07,2.08,1.55,4.18,1.55,6.17,0,6.49-5.07,11.96-11.21,13.03-3.29.58-6.88-.12-10.14-2.59-1.56,6.88-7.24,10.31-12.92,10.31s-11.35-3.43-12.91-10.31c-2.56,1.94-5.31,2.79-7.96,2.79-.73,0-1.47-.07-2.18-.19-8.01-1.4-14.21-10.32-9.64-19.2-8.05-.4-12.62-6.88-12.62-13.37,0-4.87,2.57-9.74,8.13-12.08-3.02-2.8-4.32-6.21-4.32-9.56,0-8.12,7.7-15.78,17.24-12.82-.08-.64-.12-1.25-.12-1.85,0-12.71,17.11-18.3,24.4-6.98,7.64-11.86,26.05-5.16,24.27,8.83,1.44-.44,2.83-.65,4.16-.65,11.17,0,18.01,14.46,8.77,23.02,4.99,2.1,7.58,6.25,8.04,10.6.06.49.09.99.09,1.49Z"/>
  <path class="cls-1" d="M1185.04,277.45l-26.66,46.18c-5.36,9.29,1.34,20.9,12.07,20.9h53.32c10.73,0,17.43-11.61,12.07-20.9l-26.66-46.18c-5.36-9.29-18.77-9.29-24.14,0Z"/>
  <path class="cls-1" d="M1128.15,211.59h0c2.68,7.25,8.4,12.97,15.65,15.65h0c8.02,2.97,8.02,14.31,0,17.27h0c-7.25,2.68-12.97,8.4-15.65,15.65h0c-2.97,8.02-14.31,8.02-17.27,0h0c-2.68-7.25-8.4-12.97-15.65-15.65h0c-8.02-2.97-8.02-14.31,0-17.27h0c7.25-2.68,12.97-8.4,15.65-15.65h0c2.97-8.02,14.31-8.02,17.27,0Z"/>
  <path class="cls-1" d="M1216.6,191.28c1.3,3.55.45,7.42-2.23,10.09-1.85,1.85-4.27,2.83-6.76,2.83-1.11,0-2.24-.19-3.34-.6-4.63-1.69-9.72-1.69-14.34,0-3.56,1.3-7.42.45-10.1-2.23-2.68-2.68-3.53-6.54-2.23-10.09,1.69-4.63,1.69-9.72,0-14.34-1.3-3.56-.45-7.42,2.23-10.1,2.68-2.68,6.54-3.53,10.1-2.23,2.31.84,4.74,1.27,7.17,1.27s4.86-.42,7.17-1.27c3.55-1.3,7.42-.45,10.09,2.23s3.53,6.54,2.23,10.1c-1.69,4.62-1.69,9.72,0,14.34Z"/>
  <path class="cls-1" d="M1130.12,152.23c0,1.38-.88,2.76-2.46,3.07-.16.03-.32.05-.49.06.25.49.36.98.36,1.44,0,1.52-1.19,2.8-2.62,3.05-.77.14-1.61-.03-2.37-.61-.37,1.61-1.69,2.41-3.02,2.41s-2.65-.8-3.02-2.41c-.6.45-1.24.65-1.86.65-.17,0-.34-.02-.51-.05-1.87-.33-3.32-2.41-2.26-4.49-1.88-.09-2.95-1.61-2.95-3.13,0-1.14.6-2.28,1.9-2.83-.71-.65-1.01-1.45-1.01-2.23,0-1.9,1.8-3.69,4.03-3-.02-.15-.03-.29-.03-.43,0-2.97,4-4.28,5.71-1.63,1.79-2.77,6.09-1.21,5.68,2.07.34-.1.66-.15.97-.15,2.61,0,4.21,3.38,2.05,5.38,1.17.49,1.77,1.46,1.88,2.48.01.12.02.23.02.35Z"/>
  <path class="cls-1" d="M1434.13,788.6c0,9.49-6.06,18.99-16.92,21.1-1.07.2-2.2.34-3.37.4,1.72,3.35,2.5,6.72,2.5,9.93,0,10.44-8.16,19.23-18.03,20.96-5.29.93-11.06-.19-16.32-4.17-2.51,11.06-11.65,16.58-20.79,16.58s-18.26-5.52-20.77-16.58c-4.11,3.12-8.55,4.48-12.81,4.48-1.18,0-2.36-.11-3.51-.31-12.89-2.25-22.86-16.6-15.51-30.88-12.95-.64-20.31-11.06-20.31-21.5,0-7.83,4.13-15.67,13.08-19.44-4.86-4.5-6.95-9.99-6.95-15.37,0-13.06,12.38-25.38,27.74-20.62-.12-1.02-.19-2.02-.19-2.98,0-20.45,27.52-29.44,39.25-11.23,12.29-19.08,41.9-8.3,39.04,14.21,2.31-.71,4.54-1.04,6.69-1.04,17.96,0,28.98,23.27,14.1,37.03,8.03,3.38,12.19,10.05,12.94,17.05.09.79.14,1.6.14,2.39Z"/>
  <path class="cls-1" d="M1346.36,657.06c4.18,11.42,1.43,23.86-7.18,32.47-5.94,5.94-13.72,9.09-21.73,9.09-3.58,0-7.21-.62-10.74-1.91-14.89-5.45-31.27-5.45-46.15,0-11.44,4.18-23.88,1.43-32.49-7.18-8.61-8.61-11.36-21.05-7.16-32.47,5.45-14.89,5.45-31.27,0-46.15-4.2-11.44-1.45-23.88,7.16-32.49,8.61-8.61,21.05-11.36,32.49-7.16,7.44,2.71,15.25,4.08,23.06,4.08s15.64-1.37,23.08-4.08c11.42-4.2,23.86-1.45,32.47,7.16,8.61,8.61,11.36,21.05,7.18,32.49-5.45,14.87-5.45,31.26,0,46.15Z"/>
  <path class="cls-1" d="M1343.57,461.66l-38.99,67.53c-7.84,13.58,1.96,30.56,17.65,30.56h77.97c15.69,0,25.49-16.98,17.65-30.56l-38.99-67.53c-7.84-13.58-27.45-13.58-35.29,0Z"/>
  <path class="cls-1" d="M1297.63,357.11h0c4.35,11.76,13.63,21.04,25.39,25.39h0c13,4.81,13,23.2,0,28.02h0c-11.76,4.35-21.04,13.63-25.39,25.39h0c-4.81,13-23.2,13-28.02,0h0c-4.35-11.76-13.63-21.04-25.39-25.39h0c-13-4.81-13-23.2,0-28.02h0c11.76-4.35,21.04-13.63,25.39-25.39h0c4.81-13,23.2-13,28.02,0Z"/>
  <path class="cls-1" d="M1398.67,311.28c0,4.88-3.12,9.75-8.69,10.84-.55.1-1.13.18-1.73.21.88,1.72,1.28,3.45,1.28,5.1,0,5.36-4.19,9.88-9.26,10.76-2.72.48-5.68-.1-8.38-2.14-1.29,5.68-5.98,8.52-10.68,8.52s-9.38-2.84-10.67-8.52c-2.11,1.6-4.39,2.3-6.58,2.3-.61,0-1.21-.06-1.8-.16-6.62-1.16-11.74-8.53-7.97-15.86-6.65-.33-10.43-5.68-10.43-11.04,0-4.02,2.12-8.05,6.72-9.98-2.49-2.31-3.57-5.13-3.57-7.9,0-6.71,6.36-13.04,14.25-10.59-.06-.53-.1-1.04-.1-1.53,0-10.5,14.14-15.12,20.16-5.77,6.31-9.8,21.52-4.26,20.06,7.3,1.19-.37,2.33-.53,3.43-.53,9.23,0,14.88,11.95,7.24,19.02,4.13,1.74,6.26,5.16,6.65,8.76.05.41.07.82.07,1.23Z"/>
  <path class="cls-1" d="M1311.19,246.02c1.84,5.02.63,10.48-3.15,14.27-2.61,2.61-6.03,3.99-9.55,3.99-1.57,0-3.17-.27-4.72-.84-6.54-2.39-13.74-2.39-20.27,0-5.03,1.84-10.49.63-14.27-3.15-3.78-3.78-4.99-9.25-3.15-14.27,2.39-6.54,2.39-13.74,0-20.27-1.84-5.03-.64-10.49,3.15-14.27,3.78-3.78,9.25-4.99,14.27-3.15,3.27,1.19,6.7,1.79,10.13,1.79s6.87-.6,10.14-1.79c5.02-1.84,10.48-.64,14.27,3.15,3.78,3.78,4.99,9.25,3.15,14.27-2.39,6.53-2.39,13.73,0,20.27Z"/>
  <path class="cls-1" d="M1354.84,168.24l-14.07,24.38c-2.83,4.9.71,11.03,6.37,11.03h28.15c5.66,0,9.2-6.13,6.37-11.03l-14.07-24.38c-2.83-4.9-9.91-4.9-12.74,0Z"/>
  <path class="cls-1" d="M1286.9,141.95h0c1.02,2.75,3.19,4.92,5.94,5.94h0c3.04,1.13,3.04,5.43,0,6.55h0c-2.75,1.02-4.92,3.19-5.94,5.94h0c-1.13,3.04-5.43,3.04-6.55,0h0c-1.02-2.75-3.19-4.92-5.94-5.94h0c-3.04-1.13-3.04-5.43,0-6.55h0c2.75-1.02,4.92-3.19,5.94-5.94h0c1.13-3.04,5.43-3.04,6.55,0Z"/>
  <path class="cls-1" d="M448.46,807.71c4.79,13.1,1.64,27.36-8.23,37.23-6.82,6.82-15.73,10.42-24.91,10.42-4.1,0-8.27-.71-12.31-2.2-17.07-6.24-35.85-6.24-52.9,0-13.12,4.79-27.38,1.64-37.25-8.23-9.87-9.87-13.02-24.13-8.21-37.23,6.24-17.07,6.24-35.85,0-52.9-4.81-13.12-1.66-27.38,8.21-37.25,9.87-9.87,24.13-13.02,37.25-8.21,8.53,3.11,17.49,4.68,26.44,4.68s17.93-1.57,26.46-4.68c13.1-4.81,27.36-1.66,37.23,8.21,9.87,9.87,13.02,24.13,8.23,37.25-6.24,17.05-6.24,35.83,0,52.9Z"/>
  <path class="cls-1" d="M362.56,640.38c0,8.28-5.29,16.56-14.76,18.4-.93.18-1.92.3-2.94.35,1.5,2.92,2.18,5.86,2.18,8.66,0,9.11-7.12,16.78-15.72,18.28-4.61.81-9.65-.16-14.23-3.64-2.19,9.65-10.16,14.46-18.13,14.46s-15.93-4.82-18.12-14.46c-3.59,2.72-7.46,3.91-11.18,3.91-1.03,0-2.06-.1-3.06-.27-11.24-1.96-19.94-14.48-13.53-26.94-11.3-.55-17.71-9.65-17.71-18.75,0-6.83,3.6-13.67,11.41-16.95-4.24-3.92-6.06-8.71-6.06-13.41,0-11.39,10.8-22.14,24.19-17.98-.11-.89-.16-1.76-.16-2.6,0-17.83,24-25.68,34.23-9.8,10.72-16.64,36.55-7.24,34.06,12.39,2.02-.62,3.96-.91,5.83-.91,15.67,0,25.28,20.3,12.3,32.3,7.01,2.95,10.64,8.77,11.28,14.87.08.69.12,1.39.12,2.08Z"/>
  <path class="cls-1" d="M393.47,458h0c5.26,14.22,16.47,25.42,30.68,30.68h0c15.71,5.81,15.71,28.04,0,33.85h0c-14.21,5.26-25.42,16.47-30.68,30.68h0c-5.81,15.71-28.04,15.71-33.85,0h0c-5.26-14.22-16.47-25.42-30.68-30.68h0c-15.71-5.81-15.71-28.04,0-33.85h0c14.21-5.26,25.42-16.47,30.68-30.68h0c5.81-15.71,28.04-15.71,33.85,0Z"/>
  <path class="cls-1" d="M284.35,360.14l-32.27,55.89c-6.49,11.24,1.62,25.29,14.6,25.29h64.53c12.98,0,21.09-14.05,14.6-25.29l-32.27-55.89c-6.49-11.24-22.72-11.24-29.21,0Z"/>
  <path class="cls-1" d="M413.49,321.1c2.46,6.73.84,14.05-4.23,19.12-3.5,3.5-8.08,5.35-12.8,5.35-2.11,0-4.25-.36-6.33-1.13-8.77-3.21-18.42-3.21-27.17,0-6.74,2.46-14.06.84-19.13-4.23-5.07-5.07-6.69-12.4-4.22-19.12,3.21-8.77,3.21-18.42,0-27.17-2.47-6.74-.85-14.06,4.22-19.13,5.07-5.07,12.4-6.69,19.13-4.22,4.38,1.6,8.98,2.4,13.58,2.4s9.21-.8,13.59-2.4c6.73-2.47,14.05-.85,19.12,4.22s6.69,12.4,4.23,19.13c-3.21,8.76-3.21,18.41,0,27.17Z"/>
  <path class="cls-1" d="M326.9,238.7c0,3.64-2.32,7.28-6.49,8.09-.41.08-.84.13-1.29.15.66,1.28.96,2.57.96,3.8,0,4-3.13,7.37-6.91,8.03-2.03.36-4.24-.07-6.25-1.6-.96,4.24-4.46,6.36-7.97,6.36s-7-2.12-7.96-6.36c-1.58,1.19-3.28,1.72-4.91,1.72-.45,0-.9-.04-1.34-.12-4.94-.86-8.76-6.36-5.94-11.84-4.96-.24-7.78-4.24-7.78-8.24,0-3,1.58-6,5.01-7.45-1.86-1.72-2.66-3.83-2.66-5.89,0-5.01,4.74-9.73,10.63-7.9-.05-.39-.07-.77-.07-1.14,0-7.84,10.55-11.28,15.04-4.3,4.71-7.31,16.06-3.18,14.96,5.45.89-.27,1.74-.4,2.56-.4,6.88,0,11.1,8.92,5.4,14.19,3.08,1.3,4.67,3.85,4.96,6.53.04.3.05.61.05.92Z"/>
  <path class="cls-1" d="M382.65,166.92h0c1.9,5.13,5.94,9.18,11.08,11.08h0c5.67,2.1,5.67,10.12,0,12.22h0c-5.13,1.9-9.18,5.94-11.08,11.08h0c-2.1,5.67-10.12,5.67-12.22,0h0c-1.9-5.13-5.94-9.18-11.08-11.08h0c-5.67-2.1-5.67-10.12,0-12.22h0c5.13-1.9,9.18-5.94,11.08-11.08h0c2.1-5.67,10.12-5.67,12.22,0Z"/>
  <path class="cls-1" d="M295.54,142.66l-7.55,13.07c-1.52,2.63.38,5.92,3.42,5.92h15.09c3.04,0,4.93-3.29,3.42-5.92l-7.55-13.07c-1.52-2.63-5.31-2.63-6.83,0Z"/>
  <path class="cls-1" d="M234.97,717.87h0c7,18.92,21.92,33.85,40.85,40.85h0c20.92,7.74,20.92,37.33,0,45.07h0c-18.92,7-33.85,21.92-40.85,40.85h0c-7.74,20.92-37.33,20.92-45.07,0h0c-7-18.92-21.92-33.85-40.85-40.85h0c-20.92-7.74-20.92-37.33,0-45.07h0c18.92-7,33.85-21.92,40.85-40.85h0c7.74-20.92,37.33-20.92,45.07,0Z"/>
  <path class="cls-1" d="M114.35,582.94l-45.28,78.42c-9.11,15.77,2.28,35.49,20.49,35.49h90.55c18.22,0,29.6-19.72,20.49-35.49l-45.28-78.42c-9.11-15.77-31.88-15.77-40.98,0Z"/>
  <path class="cls-1" d="M267.2,511.13c0,7.13-4.56,14.26-12.71,15.85-.8.15-1.65.26-2.53.3,1.29,2.52,1.88,5.04,1.88,7.46,0,7.84-6.13,14.45-13.54,15.74-3.97.7-8.31-.14-12.26-3.13-1.89,8.31-8.75,12.46-15.61,12.46s-13.71-4.15-15.6-12.46c-3.09,2.34-6.42,3.37-9.62,3.37-.89,0-1.77-.08-2.63-.23-9.68-1.69-17.17-12.47-11.65-23.2-9.73-.48-15.25-8.31-15.25-16.15,0-5.88,3.1-11.77,9.82-14.6-3.65-3.38-5.22-7.5-5.22-11.55,0-9.81,9.3-19.06,20.83-15.49-.09-.77-.14-1.51-.14-2.24,0-15.36,20.67-22.11,29.48-8.44,9.23-14.33,31.47-6.23,29.33,10.67,1.74-.54,3.41-.78,5.02-.78,13.49,0,21.76,17.48,10.59,27.81,6.04,2.54,9.16,7.55,9.72,12.8.07.59.1,1.2.1,1.79Z"/>
  <path class="cls-1" d="M179.55,412.96c2.98,8.14,1.02,17.01-5.12,23.14-4.24,4.24-9.78,6.48-15.49,6.48-2.55,0-5.14-.44-7.66-1.36-10.61-3.88-22.29-3.88-32.89,0-8.15,2.98-17.02,1.02-23.15-5.12-6.14-6.14-8.09-15-5.1-23.14,3.88-10.61,3.88-22.29,0-32.89-2.99-8.15-1.03-17.02,5.1-23.15,6.14-6.14,15-8.09,23.15-5.1,5.31,1.93,10.87,2.91,16.44,2.91s11.14-.97,16.45-2.91c8.14-2.99,17.01-1.03,23.14,5.1,6.14,6.14,8.09,15,5.12,23.15-3.88,10.6-3.88,22.28,0,32.89Z"/>
  <path class="cls-1" d="M224.01,274.95h0c3.6,9.72,11.26,17.39,20.98,20.98h0c10.75,3.98,10.75,19.17,0,23.15h0c-9.72,3.6-17.39,11.26-20.98,20.98h0c-3.98,10.75-19.17,10.75-23.15,0h0c-3.6-9.72-11.26-17.39-20.98-20.98h0c-10.75-3.98-10.75-19.17,0-23.15h0c9.72-3.6,17.39-11.26,20.98-20.98h0c3.98-10.75,19.17-10.75,23.15,0Z"/>
  <path class="cls-1" d="M125.84,213.46l-19.89,34.45c-4,6.93,1,15.59,9,15.59h39.78c8,0,13-8.66,9-15.59l-19.89-34.45c-4-6.93-14.01-6.93-18.01,0Z"/>
  <path class="cls-1" d="M232.2,186.09c0,2.57-1.64,5.15-4.59,5.72-.29.05-.6.09-.91.11.47.91.68,1.82.68,2.69,0,2.83-2.21,5.22-4.89,5.68-1.43.25-3-.05-4.42-1.13-.68,3-3.16,4.5-5.64,4.5s-4.95-1.5-5.63-4.5c-1.11.85-2.32,1.22-3.47,1.22-.32,0-.64-.03-.95-.08-3.5-.61-6.2-4.5-4.21-8.37-3.51-.17-5.51-3-5.51-5.83,0-2.12,1.12-4.25,3.55-5.27-1.32-1.22-1.88-2.71-1.88-4.17,0-3.54,3.36-6.88,7.52-5.59-.03-.28-.05-.55-.05-.81,0-5.54,7.46-7.98,10.64-3.05,3.33-5.17,11.36-2.25,10.59,3.85.63-.19,1.23-.28,1.81-.28,4.87,0,7.86,6.31,3.82,10.04,2.18.92,3.31,2.73,3.51,4.62.03.21.04.43.04.65Z"/>
  <path class="cls-1" d="M145.3,155.01c.7,1.9.24,3.98-1.2,5.41-.99.99-2.29,1.52-3.62,1.52-.6,0-1.2-.1-1.79-.32-2.48-.91-5.21-.91-7.69,0-1.91.7-3.98.24-5.42-1.2-1.43-1.43-1.89-3.51-1.19-5.41.91-2.48.91-5.21,0-7.69-.7-1.91-.24-3.98,1.19-5.42,1.44-1.43,3.51-1.89,5.42-1.19,1.24.45,2.54.68,3.84.68s2.61-.23,3.85-.68c1.9-.7,3.98-.24,5.41,1.19s1.89,3.51,1.2,5.42c-.91,2.48-.91,5.21,0,7.69Z"/>
  <path class="cls-1" d="M517.16,722.74l-51.9,89.9c-10.44,18.08,2.61,40.69,23.49,40.69h103.81c20.88,0,33.93-22.61,23.49-40.69l-51.9-89.9c-10.44-18.08-36.54-18.08-46.98,0Z"/>
  <path class="cls-1" d="M482.72,578.69h0c6.11,16.51,19.12,29.52,35.63,35.63h0c18.25,6.75,18.25,32.56,0,39.31h0c-16.51,6.11-29.52,19.12-35.63,35.63h0c-6.75,18.25-32.56,18.25-39.31,0h0c-6.11-16.51-19.12-29.52-35.63-35.63h0c-18.25-6.75-18.25-32.56,0-39.31h0c16.51-6.11,29.52-19.12,35.63-35.63h0c6.75-18.25,32.56-18.25,39.31,0Z"/>
  <path class="cls-1" d="M594.67,525.48c3.6,9.84,1.23,20.55-6.18,27.96-5.12,5.12-11.82,7.83-18.71,7.83-3.08,0-6.21-.53-9.25-1.65-12.82-4.69-26.93-4.69-39.74,0-9.85,3.6-20.56,1.23-27.98-6.18-7.41-7.41-9.78-18.13-6.17-27.96,4.69-12.82,4.69-26.93,0-39.74-3.61-9.85-1.25-20.56,6.17-27.98,7.41-7.41,18.13-9.78,27.98-6.17,6.41,2.34,13.14,3.51,19.86,3.51s13.46-1.18,19.88-3.51c9.84-3.61,20.55-1.25,27.96,6.17s9.78,18.13,6.18,27.98c-4.69,12.81-4.69,26.92,0,39.74Z"/>
  <path class="cls-1" d="M508.39,401.08c0,5.9-3.77,11.8-10.52,13.11-.67.13-1.37.21-2.09.25,1.07,2.08,1.55,4.18,1.55,6.17,0,6.49-5.07,11.96-11.21,13.03-3.29.58-6.88-.12-10.14-2.59-1.56,6.88-7.24,10.31-12.92,10.31s-11.35-3.43-12.91-10.31c-2.56,1.94-5.31,2.79-7.96,2.79-.73,0-1.47-.07-2.18-.19-8.01-1.4-14.21-10.32-9.64-19.2-8.05-.4-12.62-6.88-12.62-13.37,0-4.87,2.57-9.74,8.13-12.08-3.02-2.8-4.32-6.21-4.32-9.56,0-8.12,7.7-15.78,17.24-12.82-.08-.64-.12-1.25-.12-1.85,0-12.71,17.11-18.3,24.4-6.98,7.64-11.86,26.05-5.16,24.27,8.83,1.44-.44,2.83-.65,4.16-.65,11.17,0,18.01,14.46,8.77,23.02,4.99,2.1,7.58,6.25,8.04,10.6.06.49.09.99.09,1.49Z"/>
  <path class="cls-1" d="M528.59,277.45l-26.66,46.18c-5.36,9.29,1.34,20.9,12.07,20.9h53.32c10.73,0,17.43-11.61,12.07-20.9l-26.66-46.18c-5.36-9.29-18.77-9.29-24.14,0Z"/>
  <path class="cls-1" d="M471.7,211.59h0c2.68,7.25,8.4,12.97,15.65,15.65h0c8.02,2.97,8.02,14.31,0,17.27h0c-7.25,2.68-12.97,8.4-15.65,15.65h0c-2.97,8.02-14.31,8.02-17.27,0h0c-2.68-7.25-8.4-12.97-15.65-15.65h0c-8.02-2.97-8.02-14.31,0-17.27h0c7.25-2.68,12.97-8.4,15.65-15.65h0c2.97-8.02,14.31-8.02,17.27,0Z"/>
  <path class="cls-1" d="M560.16,191.28c1.3,3.55.45,7.42-2.23,10.09-1.85,1.85-4.27,2.83-6.76,2.83-1.11,0-2.24-.19-3.34-.6-4.63-1.69-9.72-1.69-14.34,0-3.56,1.3-7.42.45-10.1-2.23-2.68-2.68-3.53-6.54-2.23-10.09,1.69-4.63,1.69-9.72,0-14.34-1.3-3.56-.45-7.42,2.23-10.1,2.68-2.68,6.54-3.53,10.1-2.23,2.31.84,4.74,1.27,7.17,1.27s4.86-.42,7.17-1.27c3.55-1.3,7.42-.45,10.09,2.23s3.53,6.54,2.23,10.1c-1.69,4.62-1.69,9.72,0,14.34Z"/>
  <path class="cls-1" d="M473.67,152.23c0,1.38-.88,2.76-2.46,3.07-.16.03-.32.05-.49.06.25.49.36.98.36,1.44,0,1.52-1.19,2.8-2.62,3.05-.77.14-1.61-.03-2.37-.61-.37,1.61-1.69,2.41-3.02,2.41s-2.65-.8-3.02-2.41c-.6.45-1.24.65-1.86.65-.17,0-.34-.02-.51-.05-1.87-.33-3.32-2.41-2.26-4.49-1.88-.09-2.95-1.61-2.95-3.13,0-1.14.6-2.28,1.9-2.83-.71-.65-1.01-1.45-1.01-2.23,0-1.9,1.8-3.69,4.03-3-.02-.15-.03-.29-.03-.43,0-2.97,4-4.28,5.71-1.63,1.79-2.77,6.09-1.21,5.68,2.07.34-.1.66-.15.97-.15,2.61,0,4.21,3.38,2.05,5.38,1.17.49,1.77,1.46,1.88,2.48.01.12.02.23.02.35Z"/>
</svg>