<?xml version="1.0" encoding="UTF-8"?>
<svg xmlns="http://www.w3.org/2000/svg" viewBox="0 0 1000 1000">
  <defs>
    <style>
      .cls-1, .cls-2 {
        fill: #fd0;
      }

      .cls-3 {
        fill: #4bb8e9;
      }

      .cls-4 {
        fill: #fdfdfd;
      }

      .cls-5 {
        fill: #fbf7c3;
      }

      .cls-6 {
        fill: #00abe6;
      }

      .cls-2 {
        stroke: #4bb8e9;
        stroke-miterlimit: 10;
        stroke-width: 3px;
      }

      .cls-7 {
        fill: #fff78f;
      }
    </style>
  </defs>
  <g id="BG">
    <g>
      <rect class="cls-4" x="499.74" y="0" width="500" height="500"/>
      <rect class="cls-3" y="0" width="500" height="500"/>
      <rect class="cls-5" x="499.74" y="500" width="500" height="500"/>
      <rect class="cls-1" y="500" width="500" height="500"/>
    </g>
  </g>
  <g id="LOGOS">
    <g>
      <path class="cls-6" d="M775.14,425.01c-9.08,0-17.81-2.58-25.41-7.48-7.59,4.9-16.32,7.48-25.41,7.48h0c-15.38,0-29.96-7.69-38.69-20.24-2.79.51-5.61.76-8.42.76-22,0-41.28-15.76-45.93-37.08-11.86-2.58-22.37-9.7-29.14-19.83-6.77-10.13-9.33-22.57-7.17-34.51-9.97-6.92-16.95-17.52-19.33-29.48-2.38-11.96.02-24.43,6.58-34.63-6.56-10.21-8.96-22.68-6.58-34.63,2.38-11.95,9.36-22.56,19.33-29.48-2.16-11.94.4-24.38,7.17-34.51,6.77-10.13,17.29-17.26,29.14-19.84,4.65-21.32,23.93-37.08,45.93-37.08,2.81,0,5.64.26,8.42.76,8.73-12.55,23.31-20.24,38.7-20.24,9.09,0,17.82,2.58,25.41,7.48,7.59-4.9,16.32-7.48,25.41-7.48,15.38,0,29.97,7.69,38.7,20.24,2.79-.51,5.61-.76,8.42-.76,22,0,41.28,15.76,45.93,37.08,11.86,2.58,22.37,9.7,29.14,19.84,6.77,10.13,9.33,22.57,7.17,34.51,9.97,6.92,16.95,17.52,19.33,29.48,2.38,11.95-.02,24.42-6.58,34.63,6.56,10.21,8.96,22.68,6.58,34.63-2.38,11.95-9.36,22.56-19.33,29.48,2.16,11.94-.4,24.38-7.17,34.51-6.77,10.13-17.29,17.26-29.14,19.83-4.65,21.32-23.93,37.08-45.93,37.08-2.81,0-5.64-.26-8.42-.76-8.73,12.55-23.31,20.24-38.7,20.24Z"/>
      <path class="cls-3" d="M775.14,421.21c-9.19,0-17.97-2.86-25.41-8.29-7.44,5.43-16.21,8.29-25.41,8.29-15.03,0-29.12-7.91-36.94-20.69-3.35.81-6.77,1.22-10.18,1.22-21.16,0-39.39-15.66-42.68-36.54-11.9-1.87-22.53-8.66-29.24-18.69s-8.91-22.45-6.08-34.16c-10.28-6.29-17.5-16.62-19.86-28.46-2.35-11.84.36-24.15,7.45-33.89-7.09-9.74-9.81-22.05-7.45-33.89,2.35-11.84,9.58-22.17,19.86-28.46-2.82-11.71-.62-24.13,6.08-34.16,6.7-10.03,17.33-16.82,29.24-18.69,3.29-20.87,21.52-36.54,42.68-36.54,3.41,0,6.83.41,10.18,1.22,7.82-12.78,21.91-20.69,36.94-20.69,9.19,0,17.97,2.86,25.41,8.29,7.44-5.43,16.22-8.29,25.41-8.29,15.03,0,29.12,7.91,36.94,20.69,3.35-.81,6.77-1.22,10.18-1.22,21.16,0,39.39,15.66,42.68,36.54,11.9,1.87,22.53,8.66,29.24,18.69,6.7,10.03,8.91,22.45,6.08,34.16,10.28,6.29,17.5,16.62,19.86,28.46,2.35,11.84-.36,24.15-7.45,33.89,7.09,9.74,9.81,22.05,7.45,33.89-2.35,11.84-9.58,22.17-19.86,28.46,2.83,11.71.62,24.13-6.08,34.16-6.7,10.03-17.33,16.82-29.24,18.69-3.29,20.87-21.52,36.53-42.67,36.54-3.41,0-6.83-.41-10.18-1.22-7.82,12.78-21.91,20.69-36.94,20.69Z"/>
      <path class="cls-2" d="M753.78,93.53h0c16.99-12.76,41.29-7.93,52.1,10.36h0c1.52,2.58,4.57,3.84,7.47,3.09h0c20.58-5.29,41.18,8.48,44.17,29.51h0c.42,2.96,2.75,5.29,5.72,5.72h0c21.03,2.99,34.8,23.59,29.51,44.17h0c-.75,2.9.52,5.94,3.09,7.47h0c18.29,10.81,23.13,35.12,10.36,52.1h0c-1.8,2.39-1.8,5.69,0,8.08h0c12.76,16.99,7.93,41.29-10.36,52.1h0c-2.58,1.52-3.84,4.57-3.09,7.47h0c5.29,20.58-8.48,41.18-29.51,44.17h0c-2.96.42-5.29,2.75-5.72,5.72h0c-2.99,21.03-23.59,34.8-44.17,29.51h0c-2.9-.75-5.94.52-7.47,3.09h0c-10.81,18.29-35.12,23.13-52.1,10.36h0c-2.39-1.8-5.69-1.8-8.08,0h0c-16.99,12.76-41.29,7.93-52.1-10.36h0c-1.52-2.58-4.57-3.84-7.47-3.09h0c-20.58,5.29-41.18-8.48-44.17-29.51h0c-.42-2.96-2.75-5.29-5.72-5.72h0c-21.03-2.99-34.8-23.59-29.51-44.17h0c.75-2.9-.52-5.94-3.09-7.47h0c-18.29-10.81-23.13-35.12-10.36-52.1h0c1.8-2.39,1.8-5.69,0-8.08h0c-12.76-16.99-7.93-41.29,10.36-52.1h0c2.58-1.52,3.84-4.57,3.09-7.47h0c-5.29-20.58,8.48-41.18,29.51-44.17h0c2.96-.42,5.29-2.75,5.72-5.72h0c2.99-21.03,23.59-34.8,44.17-29.51h0c2.9.75,5.94-.52,7.47-3.09h0c10.81-18.29,35.12-23.13,52.1-10.36h0c2.39,1.8,5.69,1.8,8.08,0Z"/>
      <g>
        <path class="cls-6" d="M849.33,340.13c-15.08,0-26.77-7.8-33.9-16.47-6.82,10.8-16.58,16.47-28.52,16.47-15.82,0-26.86-6.93-33.68-21.16-.99-.19-1.97-.42-2.93-.71-6.85,14.71-18.04,21.87-34.1,21.87-12.62,0-21.8-4.58-27.88-13.96-7.64,9.16-18.04,13.96-30.39,13.96-17.62,0-29.36-8.65-35.9-26.44-5.27-14.35-7.52-34.92-7.52-68.79,0-24.19,2.61-42.44,7.99-55.81,7.08-17.61,19-26.53,35.43-26.53,13.07,0,23.06,5.07,29.78,15.08,7.59-9.77,17.53-15.08,28.5-15.08,16.17,0,28.01,8.61,35.18,25.6.13.31.26.62.39.93.14-.34.29-.68.43-1.01,7.46-16.94,19.91-25.53,37-25.53,11.28,0,22.25,5.46,28.52,13.78,8.04-9.04,18-13.78,29.06-13.78,14.69,0,26.43,6.8,32.19,18.65,2.71,5.56,4.08,12.11,4.08,19.47,0,3.03-.21,6.2-.63,9.42-1.77,13.6-7.17,27.82-15.27,40.34,3.51,4.45,6.52,8.96,8.98,13.43,8.13,14.76,9.22,27.1,9.22,37.22-.06,5.57-.97,10.79-2.72,15.55-5.35,14.49-18.11,23.49-33.31,23.49Z"/>
        <g>
          <path class="cls-3" d="M751.24,222.91c-.39-5.76-1.02-11.35-1.92-16.65-1.28-7.49-3.11-14.4-5.64-20.41-5.97-14.12-15.85-23.28-31.69-23.28-12.21,0-22.11,7.37-28.8,18.43-5.53-11.52-14.97-18.43-29.48-18.43-32.25,0-39.62,38.23-39.62,78.54,0,58.04,6.23,91.43,39.62,91.43,12.66,0,23.49-5.53,30.86-17.27,3.92,8.75,11.06,17.27,27.41,17.27,18.83,0,29.09-10.62,34.47-30.28,4.15-15.21,5.37-35.84,5.37-61.15,0-6.16-.17-12.28-.59-18.2ZM711.99,323.79c-15.66,0-19.35-8.75-21.89-19.12,4.38-11.74,5.99-22.57,3.92-42.38-.23-2.07-2.07-3.92-4.37-3.92-2.54,0-4.61,2.3-4.38,4.61,4.15,43.53-10.13,60.8-31.55,60.8-25.8,0-30.87-26.02-30.87-82.68,0-39.16,6.23-69.79,30.87-69.79,13.59,0,20.27,6.45,24.18,19.81-5.06,12.67-7.14,25.11-5.75,39.39.23,2.3,2.07,4.15,4.37,4.15,2.54,0,4.61-2.3,4.38-4.84-2.07-29.94,9.67-58.5,31.1-58.5,24.87,0,31.09,30.63,31.09,69.79,0,56.66-5.29,82.68-31.09,82.68Z"/>
          <path class="cls-2" d="M743.08,241.1c0,56.66-5.29,82.68-31.09,82.68-15.66,0-19.35-8.75-21.89-19.12,4.38-11.74,5.99-22.57,3.92-42.38-.23-2.07-2.07-3.92-4.37-3.92-2.54,0-4.61,2.3-4.38,4.61,4.15,43.53-10.13,60.8-31.55,60.8-25.8,0-30.87-26.02-30.87-82.68,0-39.16,6.23-69.79,30.87-69.79,13.59,0,20.27,6.45,24.18,19.81-5.06,12.67-7.14,25.11-5.75,39.39.23,2.3,2.07,4.15,4.37,4.15,2.54,0,4.61-2.3,4.38-4.84-2.07-29.94,9.67-58.5,31.1-58.5,24.87,0,31.09,30.63,31.09,69.79Z"/>
          <path class="cls-7" d="M692.62,199.44s4.96-21.82,21.88-20.53,22.8,53.81,15.37,38.54c-10.33-21.24-23.07-23.49-37.25-18.02Z"/>
          <path class="cls-7" d="M631.07,210.05s5.93-29.73,18.53-31.06c11.65-1.23,18.76,6.82,21.14,11.59,2.39,4.77-21.07-22.49-39.68,19.47Z"/>
        </g>
        <g>
          <path class="cls-3" d="M868.61,261.91c-2.61-4.74-5.99-9.76-10.36-15.05,8.68-12.64,14.42-27.29,16.22-41.04.39-3.04.6-6.02.6-8.94,0-7.01-1.33-12.94-3.7-17.81-5.34-10.99-16.01-16.51-28.78-16.51s-22.34,6.68-29.49,16.58c-4.84-10.36-17.04-16.58-28.1-16.58-16.92,0-27.32,9.17-33.53,23.27-2.71,6.15-4.62,13.25-5.93,20.92-.85,4.99-1.44,10.23-1.84,15.62-.44,6.1-.62,12.39-.62,18.73,0,25.58,1.21,46.39,5.43,61.64,5.34,19.35,15.52,29.79,34.19,29.79,12.66,0,22.11-7.14,28.1-19.81,5.99,9.91,18.2,19.81,34.32,19.81,13.57,0,24.92-7.9,29.75-21,1.56-4.24,2.44-9.01,2.49-14.24,0-9.02-.78-20.92-8.75-35.39ZM845.12,323.79c-16.59,0-27.64-12.21-29.94-21.88,2.76-9.67,4.15-21.42,4.15-32.48,0-2.53-1.84-4.37-4.38-4.37-2.3,0-4.37,1.84-4.37,4.37,0,34.32-9.91,54.36-27.87,54.36-25.8,0-30.87-26.02-30.87-82.68,0-39.16,6.22-69.79,33.17-69.79,11.05,0,21.65,6.45,22.11,17.73-6.68,14.05-9.44,31.32-8.3,43.3.24,2.3,2.07,4.15,4.38,4.15,2.54,0,4.61-2.07,4.37-4.61-2.53-26.49,10.83-60.57,35.01-60.57,14.51,0,23.72,7.6,23.72,25.57,0,19.81-9.91,42.84-26.49,58.04-1.62,1.38-1.84,3.68-.69,5.53,1.61,2.31,4.84,2.54,6.91.46,2.3-2.07,4.61-4.38,6.68-6.91,14.74,18.19,15.89,32.01,15.89,43.3-.23,17.28-9.44,26.49-23.49,26.49Z"/>
          <path class="cls-2" d="M868.61,297.3c-.23,17.28-9.44,26.49-23.49,26.49-16.59,0-27.64-12.21-29.94-21.88,2.76-9.67,4.15-21.42,4.15-32.48,0-2.53-1.84-4.37-4.38-4.37-2.3,0-4.37,1.84-4.37,4.37,0,34.32-9.91,54.36-27.87,54.36-25.8,0-30.87-26.02-30.87-82.68,0-39.16,6.22-69.79,33.17-69.79,11.05,0,21.65,6.45,22.11,17.73-6.68,14.05-9.44,31.32-8.3,43.3.24,2.3,2.07,4.15,4.38,4.15,2.54,0,4.61-2.07,4.37-4.61-2.53-26.49,10.83-60.57,35.01-60.57,14.51,0,23.72,7.6,23.72,25.57,0,19.81-9.91,42.84-26.49,58.04-1.62,1.38-1.84,3.68-.69,5.53,1.61,2.31,4.84,2.54,6.91.46,2.3-2.07,4.61-4.38,6.68-6.91,14.74,18.19,15.89,32.01,15.89,43.3Z"/>
          <path class="cls-7" d="M821.14,194.45s4.94-16.53,21.88-15.54c25.94,1.52,7.55,55.33,5.9,38.43-3.26-33.29-13.61-28.37-27.79-22.89Z"/>
          <path class="cls-7" d="M759.6,210.05s5.93-29.73,18.53-31.06c11.65-1.23,18.76,6.82,21.14,11.59s-21.07-22.49-39.68,19.47Z"/>
        </g>
        <g>
          <path class="cls-3" d="M781.09,278.96c0-9.98-2.32-18.01-6.91-23.86-4.71-6-11.65-9.3-19.57-9.3-15.81,0-26.02,13.02-26.02,33.16s10.21,32.93,26.02,32.93c12.8,0,26.48-8.65,26.48-32.93ZM736.18,278.96c0-15.2,6.45-25.57,18.43-25.57,11.06,0,18.89,8.53,18.89,25.57s-7.83,25.33-18.89,25.33c-11.97,0-18.43-10.13-18.43-25.33Z"/>
          <path class="cls-2" d="M754.61,304.29c-11.97,0-18.43-10.13-18.43-25.33s6.45-25.57,18.43-25.57c11.06,0,18.89,8.53,18.89,25.57s-7.83,25.33-18.89,25.33Z"/>
          <path class="cls-7" d="M745.72,280.77c.02,2.69-4.05,3.04-4.72.44-.96-3.71-1.15-8.43.79-13.97,4.97-14.17,17.81-8.41,17.81-8.41,0,0-14.01.54-13.88,21.94Z"/>
        </g>
      </g>
    </g>
    <g>
      <path class="cls-6" d="M277.49,425.01c-9.08,0-17.81-2.58-25.41-7.48-7.59,4.9-16.32,7.48-25.41,7.48h0c-15.38,0-29.96-7.69-38.69-20.24-2.79.51-5.61.76-8.42.76-22,0-41.28-15.76-45.93-37.08-11.86-2.58-22.37-9.7-29.14-19.83-6.77-10.13-9.33-22.57-7.17-34.51-9.97-6.92-16.95-17.52-19.33-29.48-2.38-11.96.02-24.43,6.58-34.63-6.56-10.21-8.96-22.68-6.58-34.63,2.38-11.95,9.36-22.56,19.33-29.48-2.16-11.94.4-24.38,7.17-34.51,6.77-10.13,17.29-17.26,29.14-19.84,4.65-21.32,23.93-37.08,45.93-37.08,2.81,0,5.64.26,8.42.76,8.73-12.55,23.31-20.24,38.7-20.24,9.09,0,17.82,2.58,25.41,7.48,7.59-4.9,16.32-7.48,25.41-7.48,15.38,0,29.97,7.69,38.7,20.24,2.79-.51,5.61-.76,8.42-.76,22,0,41.28,15.76,45.93,37.08,11.86,2.58,22.37,9.7,29.14,19.84,6.77,10.13,9.33,22.57,7.17,34.51,9.97,6.92,16.95,17.52,19.33,29.48,2.38,11.95-.02,24.42-6.58,34.63,6.56,10.21,8.96,22.68,6.58,34.63-2.38,11.95-9.36,22.56-19.33,29.48,2.16,11.94-.4,24.38-7.17,34.51-6.77,10.13-17.29,17.26-29.14,19.83-4.65,21.32-23.93,37.08-45.93,37.08-2.81,0-5.64-.26-8.42-.76-8.73,12.55-23.31,20.24-38.7,20.24Z"/>
      <path class="cls-3" d="M277.49,421.21c-9.19,0-17.97-2.86-25.41-8.29-7.44,5.43-16.21,8.29-25.41,8.29-15.03,0-29.12-7.91-36.94-20.69-3.35.81-6.77,1.22-10.18,1.22-21.16,0-39.39-15.66-42.68-36.54-11.9-1.87-22.53-8.66-29.24-18.69s-8.91-22.45-6.08-34.16c-10.28-6.29-17.5-16.62-19.86-28.46-2.35-11.84.36-24.15,7.45-33.89-7.09-9.74-9.81-22.05-7.45-33.89,2.35-11.84,9.58-22.17,19.86-28.46-2.82-11.71-.62-24.13,6.08-34.16,6.7-10.03,17.33-16.82,29.24-18.69,3.29-20.87,21.52-36.54,42.68-36.54,3.41,0,6.83.41,10.18,1.22,7.82-12.78,21.91-20.69,36.94-20.69,9.19,0,17.97,2.86,25.41,8.29,7.44-5.43,16.22-8.29,25.41-8.29,15.03,0,29.12,7.91,36.94,20.69,3.35-.81,6.77-1.22,10.18-1.22,21.16,0,39.39,15.66,42.68,36.54,11.9,1.87,22.53,8.66,29.24,18.69,6.7,10.03,8.91,22.45,6.08,34.16,10.28,6.29,17.5,16.62,19.86,28.46,2.35,11.84-.36,24.15-7.45,33.89,7.09,9.74,9.81,22.05,7.45,33.89-2.35,11.84-9.58,22.17-19.86,28.46,2.83,11.71.62,24.13-6.08,34.16-6.7,10.03-17.33,16.82-29.24,18.69-3.29,20.87-21.52,36.53-42.67,36.54-3.41,0-6.83-.41-10.18-1.22-7.82,12.78-21.91,20.69-36.94,20.69Z"/>
      <path class="cls-2" d="M256.12,93.53h0c16.99-12.76,41.29-7.93,52.1,10.36h0c1.52,2.58,4.57,3.84,7.47,3.09h0c20.58-5.29,41.18,8.48,44.17,29.51h0c.42,2.96,2.75,5.29,5.72,5.72h0c21.03,2.99,34.8,23.59,29.51,44.17h0c-.75,2.9.52,5.94,3.09,7.47h0c18.29,10.81,23.13,35.12,10.36,52.1h0c-1.8,2.39-1.8,5.69,0,8.08h0c12.76,16.99,7.93,41.29-10.36,52.1h0c-2.58,1.52-3.84,4.57-3.09,7.47h0c5.29,20.58-8.48,41.18-29.51,44.17h0c-2.96.42-5.29,2.75-5.72,5.72h0c-2.99,21.03-23.59,34.8-44.17,29.51h0c-2.9-.75-5.94.52-7.47,3.09h0c-10.81,18.29-35.12,23.13-52.1,10.36h0c-2.39-1.8-5.69-1.8-8.08,0h0c-16.99,12.76-41.29,7.93-52.1-10.36h0c-1.52-2.58-4.57-3.84-7.47-3.09h0c-20.58,5.29-41.18-8.48-44.17-29.51h0c-.42-2.96-2.75-5.29-5.72-5.72h0c-21.03-2.99-34.8-23.59-29.51-44.17h0c.75-2.9-.52-5.94-3.09-7.47h0c-18.29-10.81-23.13-35.12-10.36-52.1h0c1.8-2.39,1.8-5.69,0-8.08h0c-12.76-16.99-7.93-41.29,10.36-52.1h0c2.58-1.52,3.84-4.57,3.09-7.47h0c-5.29-20.58,8.48-41.18,29.51-44.17h0c2.96-.42,5.29-2.75,5.72-5.72h0c2.99-21.03,23.59-34.8,44.17-29.51h0c2.9.75,5.94-.52,7.47-3.09h0c10.81-18.29,35.12-23.13,52.1-10.36h0c2.39,1.8,5.69,1.8,8.08,0Z"/>
      <g>
        <path class="cls-6" d="M351.68,340.13c-15.08,0-26.77-7.8-33.9-16.47-6.82,10.8-16.58,16.47-28.52,16.47-15.82,0-26.86-6.93-33.68-21.16-.99-.19-1.97-.42-2.93-.71-6.85,14.71-18.04,21.87-34.1,21.87-12.62,0-21.8-4.58-27.88-13.96-7.64,9.16-18.04,13.96-30.39,13.96-17.62,0-29.36-8.65-35.9-26.44-5.27-14.35-7.52-34.92-7.52-68.79,0-24.19,2.61-42.44,7.99-55.81,7.08-17.61,19-26.53,35.43-26.53,13.07,0,23.06,5.07,29.78,15.08,7.59-9.77,17.53-15.08,28.5-15.08,16.17,0,28.01,8.61,35.18,25.6.13.31.26.62.39.93.14-.34.29-.68.43-1.01,7.46-16.94,19.91-25.53,37-25.53,11.28,0,22.25,5.46,28.52,13.78,8.04-9.04,18-13.78,29.06-13.78,14.69,0,26.43,6.8,32.19,18.65,2.71,5.56,4.08,12.11,4.08,19.47,0,3.03-.21,6.2-.63,9.42-1.77,13.6-7.17,27.82-15.27,40.34,3.51,4.45,6.52,8.96,8.98,13.43,8.13,14.76,9.22,27.1,9.22,37.22-.06,5.57-.97,10.79-2.72,15.55-5.35,14.49-18.11,23.49-33.31,23.49Z"/>
        <g>
          <path class="cls-3" d="M253.59,222.91c-.39-5.76-1.02-11.35-1.92-16.65-1.28-7.49-3.11-14.4-5.64-20.41-5.97-14.12-15.85-23.28-31.69-23.28-12.21,0-22.11,7.37-28.8,18.43-5.53-11.52-14.97-18.43-29.48-18.43-32.25,0-39.62,38.23-39.62,78.54,0,58.04,6.23,91.43,39.62,91.43,12.66,0,23.49-5.53,30.86-17.27,3.92,8.75,11.06,17.27,27.41,17.27,18.83,0,29.09-10.62,34.47-30.28,4.15-15.21,5.37-35.84,5.37-61.15,0-6.16-.17-12.28-.59-18.2ZM214.34,323.79c-15.66,0-19.35-8.75-21.89-19.12,4.38-11.74,5.99-22.57,3.92-42.38-.23-2.07-2.07-3.92-4.37-3.92-2.54,0-4.61,2.3-4.38,4.61,4.15,43.53-10.13,60.8-31.55,60.8-25.8,0-30.87-26.02-30.87-82.68,0-39.16,6.23-69.79,30.87-69.79,13.59,0,20.27,6.45,24.18,19.81-5.06,12.67-7.14,25.11-5.75,39.39.23,2.3,2.07,4.15,4.37,4.15,2.54,0,4.61-2.3,4.38-4.84-2.07-29.94,9.67-58.5,31.1-58.5,24.87,0,31.09,30.63,31.09,69.79,0,56.66-5.29,82.68-31.09,82.68Z"/>
          <path class="cls-2" d="M245.43,241.1c0,56.66-5.29,82.68-31.09,82.68-15.66,0-19.35-8.75-21.89-19.12,4.38-11.74,5.99-22.57,3.92-42.38-.23-2.07-2.07-3.92-4.37-3.92-2.54,0-4.61,2.3-4.38,4.61,4.15,43.53-10.13,60.8-31.55,60.8-25.8,0-30.87-26.02-30.87-82.68,0-39.16,6.23-69.79,30.87-69.79,13.59,0,20.27,6.45,24.18,19.81-5.06,12.67-7.14,25.11-5.75,39.39.23,2.3,2.07,4.15,4.37,4.15,2.54,0,4.61-2.3,4.38-4.84-2.07-29.94,9.67-58.5,31.1-58.5,24.87,0,31.09,30.63,31.09,69.79Z"/>
          <path class="cls-7" d="M194.97,199.44s4.96-21.82,21.88-20.53,22.8,53.81,15.37,38.54c-10.33-21.24-23.07-23.49-37.25-18.02Z"/>
          <path class="cls-7" d="M133.42,210.05s5.93-29.73,18.53-31.06c11.65-1.23,18.76,6.82,21.14,11.59,2.39,4.77-21.07-22.49-39.68,19.47Z"/>
        </g>
        <g>
          <path class="cls-3" d="M370.96,261.91c-2.61-4.74-5.99-9.76-10.36-15.05,8.68-12.64,14.42-27.29,16.22-41.04.39-3.04.6-6.02.6-8.94,0-7.01-1.33-12.94-3.7-17.81-5.34-10.99-16.01-16.51-28.78-16.51s-22.34,6.68-29.49,16.58c-4.84-10.36-17.04-16.58-28.1-16.58-16.92,0-27.32,9.17-33.53,23.27-2.71,6.15-4.62,13.25-5.93,20.92-.85,4.99-1.44,10.23-1.84,15.62-.44,6.1-.62,12.39-.62,18.73,0,25.58,1.21,46.39,5.43,61.64,5.34,19.35,15.52,29.79,34.19,29.79,12.66,0,22.11-7.14,28.1-19.81,5.99,9.91,18.2,19.81,34.32,19.81,13.57,0,24.92-7.9,29.75-21,1.56-4.24,2.44-9.01,2.49-14.24,0-9.02-.78-20.92-8.75-35.39ZM347.47,323.79c-16.59,0-27.64-12.21-29.94-21.88,2.76-9.67,4.15-21.42,4.15-32.48,0-2.53-1.84-4.37-4.38-4.37-2.3,0-4.37,1.84-4.37,4.37,0,34.32-9.91,54.36-27.87,54.36-25.8,0-30.87-26.02-30.87-82.68,0-39.16,6.22-69.79,33.17-69.79,11.05,0,21.65,6.45,22.11,17.73-6.68,14.05-9.44,31.32-8.3,43.3.24,2.3,2.07,4.15,4.38,4.15,2.54,0,4.61-2.07,4.37-4.61-2.53-26.49,10.83-60.57,35.01-60.57,14.51,0,23.72,7.6,23.72,25.57,0,19.81-9.91,42.84-26.49,58.04-1.62,1.38-1.84,3.68-.69,5.53,1.61,2.31,4.84,2.54,6.91.46,2.3-2.07,4.61-4.38,6.68-6.91,14.74,18.19,15.89,32.01,15.89,43.3-.23,17.28-9.44,26.49-23.49,26.49Z"/>
          <path class="cls-2" d="M370.96,297.3c-.23,17.28-9.44,26.49-23.49,26.49-16.59,0-27.64-12.21-29.94-21.88,2.76-9.67,4.15-21.42,4.15-32.48,0-2.53-1.84-4.37-4.38-4.37-2.3,0-4.37,1.84-4.37,4.37,0,34.32-9.91,54.36-27.87,54.36-25.8,0-30.87-26.02-30.87-82.68,0-39.16,6.22-69.79,33.17-69.79,11.05,0,21.65,6.45,22.11,17.73-6.68,14.05-9.44,31.32-8.3,43.3.24,2.3,2.07,4.15,4.38,4.15,2.54,0,4.61-2.07,4.37-4.61-2.53-26.49,10.83-60.57,35.01-60.57,14.51,0,23.72,7.6,23.72,25.57,0,19.81-9.91,42.84-26.49,58.04-1.62,1.38-1.84,3.68-.69,5.53,1.61,2.31,4.84,2.54,6.91.46,2.3-2.07,4.61-4.38,6.68-6.91,14.74,18.19,15.89,32.01,15.89,43.3Z"/>
          <path class="cls-7" d="M323.49,194.45s4.94-16.53,21.88-15.54c25.94,1.52,7.55,55.33,5.9,38.43-3.26-33.29-13.61-28.37-27.79-22.89Z"/>
          <path class="cls-7" d="M261.94,210.05s5.93-29.73,18.53-31.06c11.65-1.23,18.76,6.82,21.14,11.59s-21.07-22.49-39.68,19.47Z"/>
        </g>
        <g>
          <path class="cls-3" d="M283.43,278.96c0-9.98-2.32-18.01-6.91-23.86-4.71-6-11.65-9.3-19.57-9.3-15.81,0-26.02,13.02-26.02,33.16s10.21,32.93,26.02,32.93c12.8,0,26.48-8.65,26.48-32.93ZM238.53,278.96c0-15.2,6.45-25.57,18.43-25.57,11.06,0,18.89,8.53,18.89,25.57s-7.83,25.33-18.89,25.33c-11.97,0-18.43-10.13-18.43-25.33Z"/>
          <path class="cls-2" d="M256.95,304.29c-11.97,0-18.43-10.13-18.43-25.33s6.45-25.57,18.43-25.57c11.06,0,18.89,8.53,18.89,25.57s-7.83,25.33-18.89,25.33Z"/>
          <path class="cls-7" d="M248.06,280.77c.02,2.69-4.05,3.04-4.72.44-.96-3.71-1.15-8.43.79-13.97,4.97-14.17,17.81-8.41,17.81-8.41,0,0-14.01.54-13.88,21.94Z"/>
        </g>
      </g>
    </g>
    <g>
      <path class="cls-6" d="M775.14,922.74c-9.08,0-17.81-2.58-25.41-7.48-7.59,4.9-16.32,7.48-25.41,7.48h0c-15.38,0-29.96-7.69-38.69-20.24-2.79.51-5.61.76-8.42.76-22,0-41.28-15.76-45.93-37.08-11.86-2.58-22.37-9.7-29.14-19.83-6.77-10.13-9.33-22.57-7.17-34.51-9.97-6.92-16.95-17.52-19.33-29.48-2.38-11.96.02-24.43,6.58-34.63-6.56-10.21-8.96-22.68-6.58-34.63,2.38-11.95,9.36-22.56,19.33-29.48-2.16-11.94.4-24.38,7.17-34.51,6.77-10.13,17.29-17.26,29.14-19.84,4.65-21.32,23.93-37.08,45.93-37.08,2.81,0,5.64.26,8.42.76,8.73-12.55,23.31-20.24,38.7-20.24,9.09,0,17.82,2.58,25.41,7.48,7.59-4.9,16.32-7.48,25.41-7.48,15.38,0,29.97,7.69,38.7,20.24,2.79-.51,5.61-.76,8.42-.76,22,0,41.28,15.76,45.93,37.08,11.86,2.58,22.37,9.7,29.14,19.84,6.77,10.13,9.33,22.57,7.17,34.51,9.97,6.92,16.95,17.52,19.33,29.48,2.38,11.95-.02,24.42-6.58,34.63,6.56,10.21,8.96,22.68,6.58,34.63-2.38,11.95-9.36,22.56-19.33,29.48,2.16,11.94-.4,24.38-7.17,34.51-6.77,10.13-17.29,17.26-29.14,19.83-4.65,21.32-23.93,37.08-45.93,37.08-2.81,0-5.64-.26-8.42-.76-8.73,12.55-23.31,20.24-38.7,20.24Z"/>
      <path class="cls-3" d="M775.14,918.94c-9.19,0-17.97-2.86-25.41-8.29-7.44,5.43-16.21,8.29-25.41,8.29-15.03,0-29.12-7.91-36.94-20.69-3.35.81-6.77,1.22-10.18,1.22-21.16,0-39.39-15.66-42.68-36.54-11.9-1.87-22.53-8.66-29.24-18.69s-8.91-22.45-6.08-34.16c-10.28-6.29-17.5-16.62-19.86-28.46-2.35-11.84.36-24.15,7.45-33.89-7.09-9.74-9.81-22.05-7.45-33.89,2.35-11.84,9.58-22.17,19.86-28.46-2.82-11.71-.62-24.13,6.08-34.16,6.7-10.03,17.33-16.82,29.24-18.69,3.29-20.87,21.52-36.54,42.68-36.54,3.41,0,6.83.41,10.18,1.22,7.82-12.78,21.91-20.69,36.94-20.69,9.19,0,17.97,2.86,25.41,8.29,7.44-5.43,16.22-8.29,25.41-8.29,15.03,0,29.12,7.91,36.94,20.69,3.35-.81,6.77-1.22,10.18-1.22,21.16,0,39.39,15.66,42.68,36.54,11.9,1.87,22.53,8.66,29.24,18.69,6.7,10.03,8.91,22.45,6.08,34.16,10.28,6.29,17.5,16.62,19.86,28.46,2.35,11.84-.36,24.15-7.45,33.89,7.09,9.74,9.81,22.05,7.45,33.89-2.35,11.84-9.58,22.17-19.86,28.46,2.83,11.71.62,24.13-6.08,34.16-6.7,10.03-17.33,16.82-29.24,18.69-3.29,20.87-21.52,36.53-42.67,36.54-3.41,0-6.83-.41-10.18-1.22-7.82,12.78-21.91,20.69-36.94,20.69Z"/>
      <path class="cls-2" d="M753.78,591.25h0c16.99-12.76,41.29-7.93,52.1,10.36h0c1.52,2.58,4.57,3.84,7.47,3.09h0c20.58-5.29,41.18,8.48,44.17,29.51h0c.42,2.96,2.75,5.29,5.72,5.72h0c21.03,2.99,34.8,23.59,29.51,44.17h0c-.75,2.9.52,5.94,3.09,7.47h0c18.29,10.81,23.13,35.12,10.36,52.1h0c-1.8,2.39-1.8,5.69,0,8.08h0c12.76,16.99,7.93,41.29-10.36,52.1h0c-2.58,1.52-3.84,4.57-3.09,7.47h0c5.29,20.58-8.48,41.18-29.51,44.17h0c-2.96.42-5.29,2.75-5.72,5.72h0c-2.99,21.03-23.59,34.8-44.17,29.51h0c-2.9-.75-5.94.52-7.47,3.09h0c-10.81,18.29-35.12,23.13-52.1,10.36h0c-2.39-1.8-5.69-1.8-8.08,0h0c-16.99,12.76-41.29,7.93-52.1-10.36h0c-1.52-2.58-4.57-3.84-7.47-3.09h0c-20.58,5.29-41.18-8.48-44.17-29.51h0c-.42-2.96-2.75-5.29-5.72-5.72h0c-21.03-2.99-34.8-23.59-29.51-44.17h0c.75-2.9-.52-5.94-3.09-7.47h0c-18.29-10.81-23.13-35.12-10.36-52.1h0c1.8-2.39,1.8-5.69,0-8.08h0c-12.76-16.99-7.93-41.29,10.36-52.1h0c2.58-1.52,3.84-4.57,3.09-7.47h0c-5.29-20.58,8.48-41.18,29.51-44.17h0c2.96-.42,5.29-2.75,5.72-5.72h0c2.99-21.03,23.59-34.8,44.17-29.51h0c2.9.75,5.94-.52,7.47-3.09h0c10.81-18.29,35.12-23.13,52.1-10.36h0c2.39,1.8,5.69,1.8,8.08,0Z"/>
      <g>
        <path class="cls-6" d="M849.33,837.86c-15.08,0-26.77-7.8-33.9-16.47-6.82,10.8-16.58,16.47-28.52,16.47-15.82,0-26.86-6.93-33.68-21.16-.99-.19-1.97-.42-2.93-.71-6.85,14.71-18.04,21.87-34.1,21.87-12.62,0-21.8-4.58-27.88-13.96-7.64,9.16-18.04,13.96-30.39,13.96-17.62,0-29.36-8.65-35.9-26.44-5.27-14.35-7.52-34.92-7.52-68.79,0-24.19,2.61-42.44,7.99-55.81,7.08-17.61,19-26.53,35.43-26.53,13.07,0,23.06,5.07,29.78,15.08,7.59-9.77,17.53-15.08,28.5-15.08,16.17,0,28.01,8.61,35.18,25.6.13.31.26.62.39.93.14-.34.29-.68.43-1.01,7.46-16.94,19.91-25.53,37-25.53,11.28,0,22.25,5.46,28.52,13.78,8.04-9.04,18-13.78,29.06-13.78,14.69,0,26.43,6.8,32.19,18.65,2.71,5.56,4.08,12.11,4.08,19.47,0,3.03-.21,6.2-.63,9.42-1.77,13.6-7.17,27.82-15.27,40.34,3.51,4.45,6.52,8.96,8.98,13.43,8.13,14.76,9.22,27.1,9.22,37.22-.06,5.57-.97,10.79-2.72,15.55-5.35,14.49-18.11,23.49-33.31,23.49Z"/>
        <g>
          <path class="cls-3" d="M751.24,720.63c-.39-5.76-1.02-11.35-1.92-16.65-1.28-7.49-3.11-14.4-5.64-20.41-5.97-14.12-15.85-23.28-31.69-23.28-12.21,0-22.11,7.37-28.8,18.43-5.53-11.52-14.97-18.43-29.48-18.43-32.25,0-39.62,38.23-39.62,78.54,0,58.04,6.23,91.43,39.62,91.43,12.66,0,23.49-5.53,30.86-17.27,3.92,8.75,11.06,17.27,27.41,17.27,18.83,0,29.09-10.62,34.47-30.28,4.15-15.21,5.37-35.84,5.37-61.15,0-6.16-.17-12.28-.59-18.2ZM711.99,821.51c-15.66,0-19.35-8.75-21.89-19.12,4.38-11.74,5.99-22.57,3.92-42.38-.23-2.07-2.07-3.92-4.37-3.92-2.54,0-4.61,2.3-4.38,4.61,4.15,43.53-10.13,60.8-31.55,60.8-25.8,0-30.87-26.02-30.87-82.68,0-39.16,6.23-69.79,30.87-69.79,13.59,0,20.27,6.45,24.18,19.81-5.06,12.67-7.14,25.11-5.75,39.39.23,2.3,2.07,4.15,4.37,4.15,2.54,0,4.61-2.3,4.38-4.84-2.07-29.94,9.67-58.5,31.1-58.5,24.87,0,31.09,30.63,31.09,69.79,0,56.66-5.29,82.68-31.09,82.68Z"/>
          <path class="cls-2" d="M743.08,738.83c0,56.66-5.29,82.68-31.09,82.68-15.66,0-19.35-8.75-21.89-19.12,4.38-11.74,5.99-22.57,3.92-42.38-.23-2.07-2.07-3.92-4.37-3.92-2.54,0-4.61,2.3-4.38,4.61,4.15,43.53-10.13,60.8-31.55,60.8-25.8,0-30.87-26.02-30.87-82.68,0-39.16,6.23-69.79,30.87-69.79,13.59,0,20.27,6.45,24.18,19.81-5.06,12.67-7.14,25.11-5.75,39.39.23,2.3,2.07,4.15,4.37,4.15,2.54,0,4.61-2.3,4.38-4.84-2.07-29.94,9.67-58.5,31.1-58.5,24.87,0,31.09,30.63,31.09,69.79Z"/>
          <path class="cls-7" d="M692.62,697.17s4.96-21.82,21.88-20.53c16.92,1.3,22.8,53.81,15.37,38.54-10.33-21.24-23.07-23.49-37.25-18.02Z"/>
          <path class="cls-7" d="M631.07,707.77s5.93-29.73,18.53-31.06c11.65-1.23,18.76,6.82,21.14,11.59,2.39,4.77-21.07-22.49-39.68,19.47Z"/>
        </g>
        <g>
          <path class="cls-3" d="M868.61,759.63c-2.61-4.74-5.99-9.76-10.36-15.05,8.68-12.64,14.42-27.29,16.22-41.04.39-3.04.6-6.02.6-8.94,0-7.01-1.33-12.94-3.7-17.81-5.34-10.99-16.01-16.51-28.78-16.51s-22.34,6.68-29.49,16.58c-4.84-10.36-17.04-16.58-28.1-16.58-16.92,0-27.32,9.17-33.53,23.27-2.71,6.15-4.62,13.25-5.93,20.92-.85,4.99-1.44,10.23-1.84,15.62-.44,6.1-.62,12.39-.62,18.73,0,25.58,1.21,46.39,5.43,61.64,5.34,19.35,15.52,29.79,34.19,29.79,12.66,0,22.11-7.14,28.1-19.81,5.99,9.91,18.2,19.81,34.32,19.81,13.57,0,24.92-7.9,29.75-21,1.56-4.24,2.44-9.01,2.49-14.24,0-9.02-.78-20.92-8.75-35.39ZM845.12,821.51c-16.59,0-27.64-12.21-29.94-21.88,2.76-9.67,4.15-21.42,4.15-32.48,0-2.53-1.84-4.37-4.38-4.37-2.3,0-4.37,1.84-4.37,4.37,0,34.32-9.91,54.36-27.87,54.36-25.8,0-30.87-26.02-30.87-82.68,0-39.16,6.22-69.79,33.17-69.79,11.05,0,21.65,6.45,22.11,17.73-6.68,14.05-9.44,31.32-8.3,43.3.24,2.3,2.07,4.15,4.38,4.15,2.54,0,4.61-2.07,4.37-4.61-2.53-26.49,10.83-60.57,35.01-60.57,14.51,0,23.72,7.6,23.72,25.57,0,19.81-9.91,42.84-26.49,58.04-1.62,1.38-1.84,3.68-.69,5.53,1.61,2.31,4.84,2.54,6.91.46,2.3-2.07,4.61-4.38,6.68-6.91,14.74,18.19,15.89,32.01,15.89,43.3-.23,17.28-9.44,26.49-23.49,26.49Z"/>
          <path class="cls-2" d="M868.61,795.02c-.23,17.28-9.44,26.49-23.49,26.49-16.59,0-27.64-12.21-29.94-21.88,2.76-9.67,4.15-21.42,4.15-32.48,0-2.53-1.84-4.37-4.38-4.37-2.3,0-4.37,1.84-4.37,4.37,0,34.32-9.91,54.36-27.87,54.36-25.8,0-30.87-26.02-30.87-82.68,0-39.16,6.22-69.79,33.17-69.79,11.05,0,21.65,6.45,22.11,17.73-6.68,14.05-9.44,31.32-8.3,43.3.24,2.3,2.07,4.15,4.38,4.15,2.54,0,4.61-2.07,4.37-4.61-2.53-26.49,10.83-60.57,35.01-60.57,14.51,0,23.72,7.6,23.72,25.57,0,19.81-9.91,42.84-26.49,58.04-1.62,1.38-1.84,3.68-.69,5.53,1.61,2.31,4.84,2.54,6.91.46,2.3-2.07,4.61-4.38,6.68-6.91,14.74,18.19,15.89,32.01,15.89,43.3Z"/>
          <path class="cls-7" d="M821.14,692.18s4.94-16.53,21.88-15.54c25.94,1.52,7.55,55.33,5.9,38.43-3.26-33.29-13.61-28.37-27.79-22.89Z"/>
          <path class="cls-7" d="M759.6,707.77s5.93-29.73,18.53-31.06c11.65-1.23,18.76,6.82,21.14,11.59s-21.07-22.49-39.68,19.47Z"/>
        </g>
        <g>
          <path class="cls-3" d="M781.09,776.69c0-9.98-2.32-18.01-6.91-23.86-4.71-6-11.65-9.3-19.57-9.3-15.81,0-26.02,13.02-26.02,33.16s10.21,32.93,26.02,32.93c12.8,0,26.48-8.65,26.48-32.93ZM736.18,776.69c0-15.2,6.45-25.57,18.43-25.57,11.06,0,18.89,8.53,18.89,25.57s-7.83,25.33-18.89,25.33c-11.97,0-18.43-10.13-18.43-25.33Z"/>
          <path class="cls-2" d="M754.61,802.02c-11.97,0-18.43-10.13-18.43-25.33s6.45-25.57,18.43-25.57c11.06,0,18.89,8.53,18.89,25.57s-7.83,25.33-18.89,25.33Z"/>
          <path class="cls-7" d="M745.72,778.49c.02,2.69-4.05,3.04-4.72.44-.96-3.71-1.15-8.43.79-13.97,4.97-14.17,17.81-8.41,17.81-8.41,0,0-14.01.54-13.88,21.94Z"/>
        </g>
      </g>
    </g>
    <g>
      <path class="cls-6" d="M277.49,922.74c-9.08,0-17.81-2.58-25.41-7.48-7.59,4.9-16.32,7.48-25.41,7.48h0c-15.38,0-29.96-7.69-38.69-20.24-2.79.51-5.61.76-8.42.76-22,0-41.28-15.76-45.93-37.08-11.86-2.58-22.37-9.7-29.14-19.83-6.77-10.13-9.33-22.57-7.17-34.51-9.97-6.92-16.95-17.52-19.33-29.48-2.38-11.96.02-24.43,6.58-34.63-6.56-10.21-8.96-22.68-6.58-34.63,2.38-11.95,9.36-22.56,19.33-29.48-2.16-11.94.4-24.38,7.17-34.51,6.77-10.13,17.29-17.26,29.14-19.84,4.65-21.32,23.93-37.08,45.93-37.08,2.81,0,5.64.26,8.42.76,8.73-12.55,23.31-20.24,38.7-20.24,9.09,0,17.82,2.58,25.41,7.48,7.59-4.9,16.32-7.48,25.41-7.48,15.38,0,29.97,7.69,38.7,20.24,2.79-.51,5.61-.76,8.42-.76,22,0,41.28,15.76,45.93,37.08,11.86,2.58,22.37,9.7,29.14,19.84,6.77,10.13,9.33,22.57,7.17,34.51,9.97,6.92,16.95,17.52,19.33,29.48,2.38,11.95-.02,24.42-6.58,34.63,6.56,10.21,8.96,22.68,6.58,34.63-2.38,11.95-9.36,22.56-19.33,29.48,2.16,11.94-.4,24.38-7.17,34.51-6.77,10.13-17.29,17.26-29.14,19.83-4.65,21.32-23.93,37.08-45.93,37.08-2.81,0-5.64-.26-8.42-.76-8.73,12.55-23.31,20.24-38.7,20.24Z"/>
      <path class="cls-3" d="M277.49,918.94c-9.19,0-17.97-2.86-25.41-8.29-7.44,5.43-16.21,8.29-25.41,8.29-15.03,0-29.12-7.91-36.94-20.69-3.35.81-6.77,1.22-10.18,1.22-21.16,0-39.39-15.66-42.68-36.54-11.9-1.87-22.53-8.66-29.24-18.69s-8.91-22.45-6.08-34.16c-10.28-6.29-17.5-16.62-19.86-28.46-2.35-11.84.36-24.15,7.45-33.89-7.09-9.74-9.81-22.05-7.45-33.89,2.35-11.84,9.58-22.17,19.86-28.46-2.82-11.71-.62-24.13,6.08-34.16,6.7-10.03,17.33-16.82,29.24-18.69,3.29-20.87,21.52-36.54,42.68-36.54,3.41,0,6.83.41,10.18,1.22,7.82-12.78,21.91-20.69,36.94-20.69,9.19,0,17.97,2.86,25.41,8.29,7.44-5.43,16.22-8.29,25.41-8.29,15.03,0,29.12,7.91,36.94,20.69,3.35-.81,6.77-1.22,10.18-1.22,21.16,0,39.39,15.66,42.68,36.54,11.9,1.87,22.53,8.66,29.24,18.69,6.7,10.03,8.91,22.45,6.08,34.16,10.28,6.29,17.5,16.62,19.86,28.46,2.35,11.84-.36,24.15-7.45,33.89,7.09,9.74,9.81,22.05,7.45,33.89-2.35,11.84-9.58,22.17-19.86,28.46,2.83,11.71.62,24.13-6.08,34.16-6.7,10.03-17.33,16.82-29.24,18.69-3.29,20.87-21.52,36.53-42.67,36.54-3.41,0-6.83-.41-10.18-1.22-7.82,12.78-21.91,20.69-36.94,20.69Z"/>
      <path class="cls-2" d="M256.12,591.25h0c16.99-12.76,41.29-7.93,52.1,10.36h0c1.52,2.58,4.57,3.84,7.47,3.09h0c20.58-5.29,41.18,8.48,44.17,29.51h0c.42,2.96,2.75,5.29,5.72,5.72h0c21.03,2.99,34.8,23.59,29.51,44.17h0c-.75,2.9.52,5.94,3.09,7.47h0c18.29,10.81,23.13,35.12,10.36,52.1h0c-1.8,2.39-1.8,5.69,0,8.08h0c12.76,16.99,7.93,41.29-10.36,52.1h0c-2.58,1.52-3.84,4.57-3.09,7.47h0c5.29,20.58-8.48,41.18-29.51,44.17h0c-2.96.42-5.29,2.75-5.72,5.72h0c-2.99,21.03-23.59,34.8-44.17,29.51h0c-2.9-.75-5.94.52-7.47,3.09h0c-10.81,18.29-35.12,23.13-52.1,10.36h0c-2.39-1.8-5.69-1.8-8.08,0h0c-16.99,12.76-41.29,7.93-52.1-10.36h0c-1.52-2.58-4.57-3.84-7.47-3.09h0c-20.58,5.29-41.18-8.48-44.17-29.51h0c-.42-2.96-2.75-5.29-5.72-5.72h0c-21.03-2.99-34.8-23.59-29.51-44.17h0c.75-2.9-.52-5.94-3.09-7.47h0c-18.29-10.81-23.13-35.12-10.36-52.1h0c1.8-2.39,1.8-5.69,0-8.08h0c-12.76-16.99-7.93-41.29,10.36-52.1h0c2.58-1.52,3.84-4.57,3.09-7.47h0c-5.29-20.58,8.48-41.18,29.51-44.17h0c2.96-.42,5.29-2.75,5.72-5.72h0c2.99-21.03,23.59-34.8,44.17-29.51h0c2.9.75,5.94-.52,7.47-3.09h0c10.81-18.29,35.12-23.13,52.1-10.36h0c2.39,1.8,5.69,1.8,8.08,0Z"/>
      <g>
        <path class="cls-6" d="M351.68,837.86c-15.08,0-26.77-7.8-33.9-16.47-6.82,10.8-16.58,16.47-28.52,16.47-15.82,0-26.86-6.93-33.68-21.16-.99-.19-1.97-.42-2.93-.71-6.85,14.71-18.04,21.87-34.1,21.87-12.62,0-21.8-4.58-27.88-13.96-7.64,9.16-18.04,13.96-30.39,13.96-17.62,0-29.36-8.65-35.9-26.44-5.27-14.35-7.52-34.92-7.52-68.79,0-24.19,2.61-42.44,7.99-55.81,7.08-17.61,19-26.53,35.43-26.53,13.07,0,23.06,5.07,29.78,15.08,7.59-9.77,17.53-15.08,28.5-15.08,16.17,0,28.01,8.61,35.18,25.6.13.31.26.62.39.93.14-.34.29-.68.43-1.01,7.46-16.94,19.91-25.53,37-25.53,11.28,0,22.25,5.46,28.52,13.78,8.04-9.04,18-13.78,29.06-13.78,14.69,0,26.43,6.8,32.19,18.65,2.71,5.56,4.08,12.11,4.08,19.47,0,3.03-.21,6.2-.63,9.42-1.77,13.6-7.17,27.82-15.27,40.34,3.51,4.45,6.52,8.96,8.98,13.43,8.13,14.76,9.22,27.1,9.22,37.22-.06,5.57-.97,10.79-2.72,15.55-5.35,14.49-18.11,23.49-33.31,23.49Z"/>
        <g>
          <path class="cls-3" d="M253.59,720.63c-.39-5.76-1.02-11.35-1.92-16.65-1.28-7.49-3.11-14.4-5.64-20.41-5.97-14.12-15.85-23.28-31.69-23.28-12.21,0-22.11,7.37-28.8,18.43-5.53-11.52-14.97-18.43-29.48-18.43-32.25,0-39.62,38.23-39.62,78.54,0,58.04,6.23,91.43,39.62,91.43,12.66,0,23.49-5.53,30.86-17.27,3.92,8.75,11.06,17.27,27.41,17.27,18.83,0,29.09-10.62,34.47-30.28,4.15-15.21,5.37-35.84,5.37-61.15,0-6.16-.17-12.28-.59-18.2ZM214.34,821.51c-15.66,0-19.35-8.75-21.89-19.12,4.38-11.74,5.99-22.57,3.92-42.38-.23-2.07-2.07-3.92-4.37-3.92-2.54,0-4.61,2.3-4.38,4.61,4.15,43.53-10.13,60.8-31.55,60.8-25.8,0-30.87-26.02-30.87-82.68,0-39.16,6.23-69.79,30.87-69.79,13.59,0,20.27,6.45,24.18,19.81-5.06,12.67-7.14,25.11-5.75,39.39.23,2.3,2.07,4.15,4.37,4.15,2.54,0,4.61-2.3,4.38-4.84-2.07-29.94,9.67-58.5,31.1-58.5,24.87,0,31.09,30.63,31.09,69.79,0,56.66-5.29,82.68-31.09,82.68Z"/>
          <path class="cls-2" d="M245.43,738.83c0,56.66-5.29,82.68-31.09,82.68-15.66,0-19.35-8.75-21.89-19.12,4.38-11.74,5.99-22.57,3.92-42.38-.23-2.07-2.07-3.92-4.37-3.92-2.54,0-4.61,2.3-4.38,4.61,4.15,43.53-10.13,60.8-31.55,60.8-25.8,0-30.87-26.02-30.87-82.68,0-39.16,6.23-69.79,30.87-69.79,13.59,0,20.27,6.45,24.18,19.81-5.06,12.67-7.14,25.11-5.75,39.39.23,2.3,2.07,4.15,4.37,4.15,2.54,0,4.61-2.3,4.38-4.84-2.07-29.94,9.67-58.5,31.1-58.5,24.87,0,31.09,30.63,31.09,69.79Z"/>
          <path class="cls-7" d="M194.97,697.17s4.96-21.82,21.88-20.53c16.92,1.3,22.8,53.81,15.37,38.54-10.33-21.24-23.07-23.49-37.25-18.02Z"/>
          <path class="cls-7" d="M133.42,707.77s5.93-29.73,18.53-31.06c11.65-1.23,18.76,6.82,21.14,11.59,2.39,4.77-21.07-22.49-39.68,19.47Z"/>
        </g>
        <g>
          <path class="cls-3" d="M370.96,759.63c-2.61-4.74-5.99-9.76-10.36-15.05,8.68-12.64,14.42-27.29,16.22-41.04.39-3.04.6-6.02.6-8.94,0-7.01-1.33-12.94-3.7-17.81-5.34-10.99-16.01-16.51-28.78-16.51s-22.34,6.68-29.49,16.58c-4.84-10.36-17.04-16.58-28.1-16.58-16.92,0-27.32,9.17-33.53,23.27-2.71,6.15-4.62,13.25-5.93,20.92-.85,4.99-1.44,10.23-1.84,15.62-.44,6.1-.62,12.39-.62,18.73,0,25.58,1.21,46.39,5.43,61.64,5.34,19.35,15.52,29.79,34.19,29.79,12.66,0,22.11-7.14,28.1-19.81,5.99,9.91,18.2,19.81,34.32,19.81,13.57,0,24.92-7.9,29.75-21,1.56-4.24,2.44-9.01,2.49-14.24,0-9.02-.78-20.92-8.75-35.39ZM347.47,821.51c-16.59,0-27.64-12.21-29.94-21.88,2.76-9.67,4.15-21.42,4.15-32.48,0-2.53-1.84-4.37-4.38-4.37-2.3,0-4.37,1.84-4.37,4.37,0,34.32-9.91,54.36-27.87,54.36-25.8,0-30.87-26.02-30.87-82.68,0-39.16,6.22-69.79,33.17-69.79,11.05,0,21.65,6.45,22.11,17.73-6.68,14.05-9.44,31.32-8.3,43.3.24,2.3,2.07,4.15,4.38,4.15,2.54,0,4.61-2.07,4.37-4.61-2.53-26.49,10.83-60.57,35.01-60.57,14.51,0,23.72,7.6,23.72,25.57,0,19.81-9.91,42.84-26.49,58.04-1.62,1.38-1.84,3.68-.69,5.53,1.61,2.31,4.84,2.54,6.91.46,2.3-2.07,4.61-4.38,6.68-6.91,14.74,18.19,15.89,32.01,15.89,43.3-.23,17.28-9.44,26.49-23.49,26.49Z"/>
          <path class="cls-2" d="M370.96,795.02c-.23,17.28-9.44,26.49-23.49,26.49-16.59,0-27.64-12.21-29.94-21.88,2.76-9.67,4.15-21.42,4.15-32.48,0-2.53-1.84-4.37-4.38-4.37-2.3,0-4.37,1.84-4.37,4.37,0,34.32-9.91,54.36-27.87,54.36-25.8,0-30.87-26.02-30.87-82.68,0-39.16,6.22-69.79,33.17-69.79,11.05,0,21.65,6.45,22.11,17.73-6.68,14.05-9.44,31.32-8.3,43.3.24,2.3,2.07,4.15,4.38,4.15,2.54,0,4.61-2.07,4.37-4.61-2.53-26.49,10.83-60.57,35.01-60.57,14.51,0,23.72,7.6,23.72,25.57,0,19.81-9.91,42.84-26.49,58.04-1.62,1.38-1.84,3.68-.69,5.53,1.61,2.31,4.84,2.54,6.91.46,2.3-2.07,4.61-4.38,6.68-6.91,14.74,18.19,15.89,32.01,15.89,43.3Z"/>
          <path class="cls-7" d="M323.49,692.18s4.94-16.53,21.88-15.54c25.94,1.52,7.55,55.33,5.9,38.43-3.26-33.29-13.61-28.37-27.79-22.89Z"/>
          <path class="cls-7" d="M261.94,707.77s5.93-29.73,18.53-31.06c11.65-1.23,18.76,6.82,21.14,11.59s-21.07-22.49-39.68,19.47Z"/>
        </g>
        <g>
          <path class="cls-3" d="M283.43,776.69c0-9.98-2.32-18.01-6.91-23.86-4.71-6-11.65-9.3-19.57-9.3-15.81,0-26.02,13.02-26.02,33.16s10.21,32.93,26.02,32.93c12.8,0,26.48-8.65,26.48-32.93ZM238.53,776.69c0-15.2,6.45-25.57,18.43-25.57,11.06,0,18.89,8.53,18.89,25.57s-7.83,25.33-18.89,25.33c-11.97,0-18.43-10.13-18.43-25.33Z"/>
          <path class="cls-2" d="M256.95,802.02c-11.97,0-18.43-10.13-18.43-25.33s6.45-25.57,18.43-25.57c11.06,0,18.89,8.53,18.89,25.57s-7.83,25.33-18.89,25.33Z"/>
          <path class="cls-7" d="M248.06,778.49c.02,2.69-4.05,3.04-4.72.44-.96-3.71-1.15-8.43.79-13.97,4.97-14.17,17.81-8.41,17.81-8.41,0,0-14.01.54-13.88,21.94Z"/>
        </g>
      </g>
    </g>
  </g>
</svg>