<?xml version="1.0" encoding="UTF-8"?>
<svg id="LOGOS" xmlns="http://www.w3.org/2000/svg" viewBox="0 0 1000 1000">
  <defs>
    <style>
      .cls-1 {
        fill: #231f20;
      }
    </style>
  </defs>
  <path class="cls-1" d="M698.29,459.29s-.01.06-.01.09c0,.31.06.59.22.77,1.63,1.76,4.34,4.3,6.01,5.83.74.69,1.93.5,2.44-.38l3.5-6.14c.75-1.31.58-2.96-.42-4.1-1.44-1.63-3.55-3.76-4.98-5.03-.55-.48-1.39-.34-1.76.29-1.38,2.3-3.93,5.73-4.79,7.62-.11.26-.21.67-.21,1.05Z"/>
  <path class="cls-1" d="M708.93,469.63c2,1.48,4.12,2.88,6.46,4.26,4.54-5.47,4.78-10.98-1.22-14.12-.79-.42-1.77-.05-2.15.76l-3.46,7.63c-.24.52-.09,1.13.37,1.47Z"/>
  <path class="cls-1" d="M685.54,446.87c.12.3.5.84,1.05,1.5l.15.18c.27.33.57.67.9,1.04.11.12.22.24.33.37,2.37,2.63,5.7,5.98,6.47,6.75.51.5,1.06,1.39,1.87.81.19-.12,1.09-1.49,2.13-3.19,1.7-2.77,3.78-6.41,3.79-6.99,0-.83-1.8-2.83-3.87-4.84-1.5-1.45-3.14-2.9-4.36-3.93-.89-.75-2.22-.63-2.97.26-2.13,2.52-6.41,5.73-5.49,8.04Z"/>
  <path class="cls-1" d="M601.2,461.06c-.32.38-.63.77-.94,1.15-.93,1.14-1.83,2.26-2.7,3.36-1.17,1.45-2.29,2.87-3.38,4.25-.28.35-.56.69-.82,1.03-.55.68-1.08,1.35-1.6,2-.27.33-.53.66-.79.99-.53.65-1.05,1.29-1.56,1.92-2.85,3.49-5.63,6.71-8.6,9.75-.61.61-1.22,1.23-1.85,1.83-.31.3-.63.6-.95.9s-.64.6-.97.89c-.43.39-.87.78-1.32,1.17-.3.26-.6.51-.9.77-.61.51-1.22,1.02-1.86,1.52-1.58,1.25-3.25,2.47-5.03,3.68-.71.48-1.44.95-2.19,1.43-1.55.97-3.17,1.93-4.89,2.88-.52.29-1.04.58-1.58.86-.71.37-1.45.75-2.2,1.13-1.36.68-2.78,1.36-4.26,2.04-2.96,1.35-6.17,2.7-9.67,4.04-5.2,1.99-14.6,4.82-24.84,8.21-.89.29-1.79.59-2.69.9-.9.3-1.81.61-2.71.92-.46.15-.91.31-1.37.47-3.17,1.1-6.37,2.25-9.47,3.44-.01,0-.01.01-.01.01-.76.28-1.52.58-2.26.88-.69.27-1.38.54-2.05.81-1.17.48-2.31.95-3.43,1.44-2.07.9-4.06,1.81-5.92,2.73-.74.37-1.47.74-2.17,1.11-2.12,1.13-4.05,2.27-5.73,3.42-.55.38-1.08.76-1.58,1.15h-.01c-.5.39-.96.77-1.4,1.16-.22.2-.44.4-.64.6-.21.19-.4.39-.58.58-.75.78-1.35,1.57-1.8,2.35-.22.39-.4.82-.55,1.28-.04.11-.07.22-.11.33-.02.09-.05.18-.07.27-.33,1.19-.52,2.54-.8,3.84-.05.26-.11.52-.18.77-.12.52-.26,1.01-.44,1.48-1.21,3.16-3.26,7.56-3.87,10.07-.75,3.05-1.35,6.38-1.85,9.6-.15.05-.3.1-.45.15-.07.03-.14.05-.21.08,4.46-1.58,9.25-2.44,14.37-2.44.92,0,1.83.02,2.73.07h.04c.88-.05,1.77-.07,2.66-.07,18.14,0,28.96,7.06,34.85,12.98.67.68,1.32,1.38,1.95,2.11,7.62-9.18,20.64-15.09,37.57-15.09.86,0,1.71.02,2.55.05h.01c.94-.03,1.89-.05,2.86-.05,37.16,0,50.36,22.56,50.36,41.88,0,13.19-5.83,24.54-16.41,31.97-.18.12-.35.24-.51.34,3.5,3.66,6.48,8.04,8.86,13.09,7.34-11.05,16.89-18.57,27.15-22.71-.29.11-.59.23-.88.35-.42-7.07-.95-12.38-1.57-13.11-.66-.77-4.64-.83-6-1-.58-.07-.63-.9-.06-1.03.81-.17,4.04-.31,4.42-1.19.01-.01.02-.03.02-.04.01-.01.02-.03.02-.04.03-.14,0-.35-.08-.61-.02-.06-.04-.13-.06-.2-.06-.18-.13-.38-.22-.59-.08-.22-.17-.44-.26-.67-.1-.24-.2-.5-.3-.75-.13-.37-.27-.76-.38-1.13-.03-.13-.07-.26-.1-.38-.09-.37-.14-.74-.14-1.07v-.33c0-.11,0-.23.01-.35,0-.35.04-.71.07-1.08.01-.19.03-.37.05-.56.03-.29.06-.58.1-.88h0c.09-.67.18-1.35.27-2.03.07-.47.13-.94.19-1.41.06-.46.12-.92.16-1.38.1-.95.16-1.9.16-2.82,0-.37-.01-.73-.04-1.09-.02-.37-.06-.74-.11-1.1-.05-.4-.46-.63-.84-.5-.92.32-3.71,3.04-5.49,4.58-2.84,2.45-2.27-.88-1.99-1.55.83-1.97,3.55-4.87,6.84-7.92.12-.12.25-.24.38-.36.89-.82,1.82-1.65,2.75-2.49h0c.94-.83,1.9-1.66,2.83-2.47.64-.53,1.26-1.07,1.87-1.59.33-.28.65-.55.96-.82.47-.4.93-.79,1.37-1.16,1.23-1.06,2.34-2.01,3.23-2.82.19-.17.35-.32.52-.48.16-.15.3-.29.44-.42.32-.3.64-.61.97-.93.4-.38.8-.77,1.22-1.17.27-.27.55-.54.83-.82.36-.34.72-.69,1.09-1.05,0,0,0-.01.01-.01.73-.71,1.49-1.45,2.27-2.21t.01,0c.58-.58,1.18-1.16,1.79-1.76.61-.6,1.23-1.2,1.85-1.83,1.68-1.68,3.44-3.44,5.24-5.27.9-.91,1.81-1.84,2.74-2.78,2.31-2.38,4.69-4.86,7.11-7.43,1.45-1.54,2.9-3.1,4.37-4.69.51-.56,1.02-1.12,1.54-1.68.94-1.04,1.89-2.1,2.85-3.16,3.9-4.37,7.78-8.88,11.48-13.43,1.62-1.99,3.21-3.99,4.74-5.98.78-1,1.53-1.99,2.27-2.99.74-.99,1.48-1.99,2.19-2.98.41-.57.82-1.14,1.22-1.71.4-.57.8-1.14,1.18-1.7.79-1.13,1.54-2.25,2.27-3.36.37-.56.73-1.11,1.08-1.67,0,0,.01,0,.01-.01.4-.63.79-1.25,1.17-1.87.37-.6.73-1.19,1.08-1.78.06-.09.11-.19.17-.28.33-.55.64-1.09.95-1.64.3-.52.59-1.05.87-1.56.05-.09.09-.17.14-.26.34-.61.66-1.21.96-1.8.31-.59.61-1.18.89-1.76.01-.01.01-.02.01-.03.3-.59.58-1.17.84-1.75.27-.58.53-1.16.77-1.74.39-.86.73-1.72,1.04-2.56.11-.28.21-.56.31-.84.11-.28.21-.56.29-.83.2-.55.38-1.1.53-1.64.08-.27.16-.54.24-.81.08-.27.15-.54.21-.8.08-.27.15-.53.2-.79.13-.53.24-1.05.34-1.56s.19-1.02.26-1.52c.04-.25.08-.51.1-.75.04-.25.06-.5.08-.74.01-.15.03-.3.03-.45.03-.29.05-.56.06-.81.01-.12.01-.24.02-.35.07-1.33-.02-1.97-.32-2.36-.02-.03-.05-.06-.08-.08-.05-.06-.11-.11-.17-.15-.06-.05-.13-.09-.21-.12-.04-.02-.08-.04-.12-.06-.08-.04-.17-.07-.26-.11-.66-.25-1.63-.52-2.99-1.4-.42-.27-.83-.54-1.25-.82-.83-.56-1.65-1.13-2.47-1.71-1.64-1.18-3.27-2.4-4.87-3.68-1.47-1.17-2.91-2.38-4.34-3.63-2.09-1.82-4.13-3.72-6.11-5.68-.74-.73-1.48-1.47-2.2-2.22-1.45-1.49-2.87-3.02-4.26-4.56-3.45-3.87-6.68-7.86-9.61-11.87-.05-.07-.11-.15-.17-.24-.09-.13-.19-.28-.3-.45-.11-.17-.23-.35-.36-.55-.42-.67-.95-1.52-1.52-2.46-.34-.56-.7-1.15-1.07-1.76-1.59-2.64-3.35-5.58-4.52-7.38-.19-.31-.38-.58-.54-.82-.06-.08-.11-.15-.16-.22-.05-.1-.12-.18-.18-.26-.16-.23-.28-.37-.35-.41-.3-.17-.68-.26-1.09-.29-.42-.04-.87-.02-1.32.04-.2.03-.41.06-.61.11-.05,0-.11.01-.16.03-.48.1-.94.23-1.31.37-.25.09-.54.24-.86.44-.32.18-.68.43-1.06.72-.48.35-1.01.77-1.57,1.26-.18.16-.38.33-.57.5-.63.55-1.29,1.17-1.99,1.84-.52.5-1.06,1.03-1.62,1.59-.19.18-.37.37-.56.56-.57.58-1.15,1.17-1.74,1.79-.39.41-.79.83-1.19,1.25-.3.32-.6.64-.91.97-.91.99-1.83,2-2.76,3.03-.61.68-1.23,1.38-1.85,2.07,0,0-.01,0-.01,0-.56.64-1.12,1.28-1.68,1.92-1.1,1.27-2.19,2.54-3.25,3.78-.52.62-1.03,1.24-1.54,1.84,0,.01-.01.01-.01.01-.73.87-1.43,1.72-2.09,2.53,0,.01-.01.01-.01.01-.83,1.02-1.6,1.98-2.31,2.87,0,.01-.01.01-.01.01-.7.89-1.33,1.7-1.87,2.42t0,.01c-.32.43-.62.83-.88,1.19-.12.17-.24.34-.36.5-.11.16-.21.31-.3.45-.38.57-.76,1.16-1.13,1.75-.55.9-1.07,1.82-1.59,2.76-.24.43-.47.87-.7,1.3-.45.88-.9,1.76-1.34,2.65-.27.56-.54,1.11-.81,1.67-.8,1.66-1.58,3.31-2.36,4.91-1.99,3.49-1.97,1.66-1.34-1.26.01-.07.03-.13.04-.2.02-.11.05-.23.08-.34,0-.04.01-.07.02-.1.57-2.44,1.46-5.38,1.97-6.66-1.72,1.47-3.3,3.06-4.77,4.73-.57.65-1.13,1.31-1.67,1.99-.85,1.06-1.66,2.16-2.44,3.28-.84,1.19-1.64,2.42-2.41,3.66-.42.66-.83,1.32-1.23,1.99-.57.96-1.13,1.94-1.68,2.91-1.21,2.14-2.38,4.31-3.54,6.47-.44.82-.89,1.64-1.33,2.46-1.28,2.36-2.58,4.7-3.96,6.99-2.08,3.48-4.33,6.83-6.92,9.89-1.96,2.31-4.05,4.45-6.27,6.43-.74.65-1.49,1.29-2.25,1.92-.38.31-.77.62-1.16.93-.77.6-1.56,1.19-2.36,1.77-8.4,6.04-18.05,10.31-28.05,13.46-1.9.6-3.79,1.14-5.69,1.64-1.26.33-2.52.64-3.79.94-.63.15-1.26.29-1.9.43-1.26.28-2.52.54-3.79.79-1.26.25-2.52.49-3.78.71-8.2,1.47-16.38,2.51-24.52,3.91-1.25.22-2.5.44-3.74.68-1.25.24-2.49.48-3.74.74-.78.17-1.56.34-2.34.51-.58.13-1.17.27-1.75.41-.58.14-1.16.28-1.74.43-.58.14-1.16.29-1.74.45-.58.16-1.16.32-1.74.48-.07.02-.19.07-.37.13-.11.05-.24.11-.39.17h0c-.11.05-.23.1-.36.16-.13.05-.27.11-.41.17-.07.03-.15.06-.22.09-.21.09-.43.18-.67.28h-.01c-.15.06-.31.12-.47.19-.24.09-.49.18-.73.27-.16.06-.32.11-.48.17-.08.02-.16.05-.24.07-.16.05-.31.1-.46.14-.67.19-1.25.29-1.62.22-.08-.02-.15-.05-.2-.08-.03-.02-.05-.04-.08-.06-.14-.15-.14-.4.06-.8.04-.08.08-.15.13-.22.05-.08.11-.16.18-.23.52-.6,1.49-1.19,2.78-1.77.32-.14.67-.29,1.03-.43.37-.15.75-.29,1.15-.43.8-.28,1.67-.56,2.6-.84.46-.14.94-.28,1.43-.41.98-.27,2.01-.54,3.07-.8,1.06-.27,2.16-.52,3.28-.77.88-.2,1.77-.39,2.67-.57.19-.05.39-.09.58-.12.92-.2,1.85-.39,2.77-.57.29-.06.58-.12.87-.17.57-.11,1.15-.22,1.72-.33.58-.11,1.15-.22,1.71-.32,1.98-.37,3.9-.71,5.7-1.02.73-.13,1.44-.26,2.12-.37.07-.02.14-.03.21-.04.44-.08.87-.15,1.28-.22.45-.08.89-.16,1.3-.23.42-.07.82-.14,1.2-.21.2-.04.38-.07.56-.1.51-.09.99-.18,1.42-.25.18-.04.36-.08.52-.11.25-.05.49-.09.7-.13.15-.03.28-.06.41-.09,1.19-.26,2.39-.52,3.6-.8,11.54-2.6,23.92-5.92,34.95-11.07,4.77-2.23,9.29-4.81,13.39-7.82.92-.68,1.81-1.37,2.67-2.09,0,0,0-.01.01-.01,1.14-.96,2.23-1.95,3.28-2.97,2.88-2.82,5.42-5.89,7.74-9.1.39-.53.77-1.06,1.13-1.6.33-.47.65-.95.96-1.43,8.57-12.75,14.61-27.34,26.28-38.77,3.63-3.56,5.97-6.07,8.42-8.89.26-.3.52-.6.78-.91.26-.3.53-.61.8-.93s.54-.64.82-.97c.18-.21.35-.42.53-.63.36-.43.73-.87,1.11-1.32.19-.23.39-.46.59-.7.32-.38.66-.78,1-1.19.49-.59.99-1.19,1.49-1.8.39-.48.78-.96,1.18-1.45,1.13-1.4,2.29-2.85,3.48-4.3.68-.82,1.37-1.65,2.07-2.47.4-.47.81-.94,1.22-1.41.57-.63,1.14-1.26,1.72-1.88,1.46-1.55,2.97-3.02,4.54-4.37.47-.41.95-.8,1.43-1.18.49-.38.98-.75,1.48-1.1.67-.47,1.34-.91,2.03-1.32.69-.41,1.39-.8,2.1-1.14,1.07-.53,2.17-.97,3.31-1.33.28-.09.57-.17.85-.25.87-.24,1.75-.42,2.65-.55h.01c-.04-.17-.07-.34-.13-.5-.1-.47-.23-.92-.4-1.36-.06-.2-.13-.39-.21-.58-.13-.35-.28-.69-.44-1.01-.1-.22-.21-.43-.32-.64-.09-.17-.19-.34-.29-.51-.1-.17-.21-.35-.33-.51-.09-.16-.2-.31-.31-.46-.44-.63-.94-1.22-1.47-1.76-.13-.15-.26-.28-.4-.4-.17-.17-.35-.33-.53-.48-.25-.22-.5-.43-.77-.63-.3-.24-.6-.46-.92-.67-.32-.22-.65-.42-.98-.62-.33-.2-.67-.39-1.01-.56-.34-.19-.69-.36-1.04-.52h-.01c-.36-.16-.72-.32-1.08-.46-.36-.15-.73-.29-1.11-.42-.37-.14-.75-.26-1.13-.38-.8-.26-1.61-.47-2.43-.66-.54-.13-1.09-.25-1.64-.35-.28-.06-.55-.11-.83-.15-.82-.15-1.65-.27-2.47-.37v10.9l4.12-3.03c.74-.51,1.69.27,1.32,1.09-1.14,2.57-5.77,6.88-6.92,7.85-10.05,8.49-20.03,13.04-29.62,21.64t-.01,0c-.63.57-1.27,1.17-1.9,1.78-.36.35-.73.71-1.09,1.07-1.09,1.1-2.17,2.25-3.24,3.48-1.5,1.72-2.91,3.38-4.26,5-1.02,1.21-2,2.4-2.94,3.56Z"/>
  <path class="cls-1" d="M678.69,425.35c.68-.8.64-1.97-.04-2.78-1.22-1.44-2.46-3.74-2.66-3.85-1.68-.97-6.5,3.04-6.8,5.14-.1.79,2.77,6.2,3.03,6.42,1.05.89,4.51-2.61,6.47-4.93Z"/>
  <path class="cls-1" d="M677.79,428.81c-1,1.16-3.56,2.56-3.16,4.04.42,1.58,4.81,6.25,7.33,9.36.78.96,2.22,1,3.06.09,2.34-2.56,6.43-6,5.78-7.57-1.02-2.48-7.4-8.02-8.07-8.19-1.88-.48-3.85,1-4.94,2.27Z"/>
  <path class="cls-1" d="M463.4,567.69c.27-.11.53-.22.8-.33-.12.05-.23.09-.35.14-.15.06-.3.13-.45.19Z"/>
  <path class="cls-1" d="M448.84,568.44c.36,1.27,9,1.51,9.33,1.17.11-.11.07-2.91-.05-3.06-.37-.39-10.55-2.51-9.28,1.89Z"/>
  <path class="cls-1" d="M467.5,550.93s4.9-11.28,2.23-13.58c-2.35-2.01-14.08-1.74-17.08.06-3.94,2.34-2.66,11.19-2.66,11.19l2.39-6.12c.68-1.75,2.49-2.8,4.35-2.51l6.8.61c1.51.14,2.73,1.3,2.93,2.8l1.04,7.55Z"/>
  <path class="cls-1" d="M443.52,570.68c.36,1.85,4.88,2.93,9.42,3.29.87-.69,1.75-1.34,2.66-1.96-3.22.01-7.52-.63-8.79-1.57-2.02-1.48-.46-6.2,2.58-6.88,1.59-.35,9.34.24,10.38.95.89.6,1.11,2.77.7,4.57.61-.31,1.22-.62,1.85-.9l1.29-20.35-5.26,6.91c-.93,1.22-2.85.96-3.41-.48l-2.2-5.66s-9.89,18.5-9.22,22.08Z"/>
  <path class="cls-1" d="M456.61,542.5c-1.09-.13-1.99.82-1.81,1.9l1.53,6.7c.25,1.07,1.67,1.3,2.24.36l4.3-7.08c.35-.57-.01-1.3-.67-1.38l-5.59-.5Z"/>
  <path class="cls-1" d="M309.39,426.67c.18.35.58.55.96.44,1.83-.51,5.96-3.58,7.72-3.06-2.47-6.13-8.31-3.35-10.23-2.22-.36.22-.49.67-.31,1.05l1.86,3.79Z"/>
  <path class="cls-1" d="M297.42,434.81c.27.31.7.41,1.07.26,1.65-.67,6.68-4.55,8.72-6.06.44-.32.6-.91.37-1.41l-1.9-3.67c-.19-.43-.69-.63-1.12-.43-.45.2-2.79,1.87-3.46,2.26-.99.57-3.96,2.8-5.34,3.94-.33.26-.57.47-.68.58-.99,1.04-.47,1.91.38,2.73.63.61,1.45,1.2,1.96,1.8Z"/>
  <path class="cls-1" d="M285.78,448.21c1.05-.94,7.2-7,9.28-9.47.34-.41.57-.71.65-.89.39-.86.14-1.73-.43-2.46-1.09-1.42-3.33-2.35-4.15-1.78-1.23.84-8.75,8.59-9.26,9.96-1.05,2.76,3.16,5.32,3.91,4.64Z"/>
  <path class="cls-1" d="M277.82,459.66c.79-1.01,4.07-5.58,5.37-7.78.38-.64.37-1.42-.01-2.05-.87-1.43-2.73-3.63-2.75-3.64-.51-.42-.83-.37-1.35.16-.57.62-5.04,7.45-5.24,7.87-1.06,2.36,3.21,6.41,3.98,5.44Z"/>
  <path class="cls-1" d="M275.9,463.24c.07-.49-1.54-3.67-2.57-5.38-.09-.15-.22-.26-.36-.32-.36-.17-.83-.04-1.05.35-2.65,4.82-6.28,12.01-1.34,15.98,0-2.04,2.19-5.16,3.77-7.63.79-1.23,1.42-2.31,1.55-3Z"/>
  <path class="cls-1" d="M320.37,558.47c.37.37.73.73,1.09,1.08.54.53,1.08,1.06,1.62,1.57.54.52,1.06,1.02,1.59,1.52.14.13.33.3.55.49.22.2.48.43.78.69.09.08.17.15.27.23.13.12.28.25.43.38,11.27.7,20.08,3.64,26.8,7.94.86-1.17,1.76-2.38,2.62-3.56.32-.44.64-.87.94-1.3t.01-.01c.45-.64.88-1.24,1.27-1.8,0-.01.01-.01.01-.01.26-.37.5-.73.73-1.05.22-.33.42-.63.6-.9,0-.01.01-.01.01-.01.17-.27.32-.5.44-.7,0-.01.01-.01.01-.01.12-.2.21-.36.27-.48.04-.08.08-.16.12-.25,1.2-2.83,1.92-11.3,2.55-14.61.22-1.14,1.91-.97,1.91.19l-.22,12.23v.56c-.01,1.78-4.06,7.46-8.31,13.79,3.92,3.01,6.99,6.54,9.31,10.34,8.41-12.72,20.78-20.53,38.71-20.53.78,0,1.56.02,2.35.08,1.04-.06,2.06-.08,3.06-.08,14.85,0,27.82,5.85,36.19,15.24.39-1.29.79-2.51,1.2-3.66-1.49-.2-2.67-.56-3.59-1.03-.37-.19-.7-.41-.99-.63-.14-.12-.27-.24-.4-.36-3.35-3.3,0-9.72,2.79-15.18.51-1,1.01-1.98,1.44-2.89.08-.19.17-.37.25-.55.56-1.25.98-2.37,1.13-3.3.42-2.43-1.11-6.76-.73-10.24.01-.07.02-.14.03-.21,0-.04.01-.07.01-.1.1-.67.24-1.19.38-1.62.47-1.57.76-1.92-2.15-4.37-11.71-9.88-47.52-15.35-62.84-20.37-10.46-3.42-18.47-8.85-24.48-14.41-5.41-5.01-9.21-10.11-11.71-13.96-12.84-20.11-2.24-42.22-3.37-47.5,0,0,0-.01-.01-.02-.01-.08-.03-.16-.06-.24h-.01s-.05-.06-.07-.07c-.25-.2-.61-.04-1.03.34l-.18.18c-1.06,1.08-2.41,3.36-3.32,5-.16.29-.31.57-.44.81-.25.48-.44.84-.53,1-.92,1.71-1.74,3.44-2.48,5.17-.49,1.15-.94,2.31-1.35,3.47-.2.58-.4,1.16-.59,1.74-4.63,14.49-3.19,29.23,2.87,41.98h0c.34.71.69,1.41,1.06,2.1.3.59.61,1.17.94,1.74.24.42.48.84.73,1.25h0c.4.67.81,1.33,1.23,1.97h0c.43.66.86,1.3,1.31,1.93.9,1.27,1.85,2.51,2.84,3.72.5.6,1.01,1.19,1.53,1.77.78.88,1.59,1.74,2.43,2.58.56.55,1.12,1.1,1.7,1.65h0c.58.54,1.17,1.07,1.77,1.59,1.36,1.17,2.77,2.29,4.24,3.36.49.35.98.7,1.48,1.05.67.46,1.34.9,2.03,1.34,1.38.87,2.79,1.7,4.25,2.48.72.38,1.46.76,2.21,1.13.74.36,1.5.71,2.26,1.05,1.53.68,3.1,1.31,4.7,1.88,11.96,4.28,25.58,5.13,38.41,7.32,1.04.18,2.08.36,3.11.56.88.17,1.76.34,2.63.54.96.2,1.91.42,2.86.65.31.07.61.15.92.23.84.21,1.66.44,2.48.68.82.24,1.64.49,2.44.76,2.35.77,4.63,1.68,6.82,2.74h.01c.13.07.28.14.44.21.01,0,.01.01.01.01.25.11.52.23.79.36h.01c.19.1.37.19.55.29.18.1.36.2.52.31.17.11.32.22.45.34.07.06.14.12.19.18.43.46.54.98.01,1.56-.63-.25-1.25-.49-1.88-.72h-.01c-1.89-.71-3.78-1.33-5.69-1.89h-.01c-1.27-.38-2.54-.73-3.82-1.05-1.28-.33-2.56-.63-3.85-.91-.46-.1-.93-.2-1.4-.3-1.87-.39-3.75-.74-5.63-1.06-3.28-.57-6.58-1.05-9.87-1.51l-2.82-.39c-.94-.13-1.87-.26-2.81-.39-1.4-.2-2.81-.4-4.21-.6-.46-.07-.93-.14-1.39-.21-7.45-1.13-14.8-2.53-21.89-4.96-1.32-.45-2.64-.94-3.95-1.46,0,0,0-.01-.01-.01-.87-.36-1.73-.73-2.59-1.11h-.01c-1.29-.6-2.58-1.23-3.85-1.9t-.01-.01c-1.27-.68-2.52-1.41-3.77-2.18-1.25-.79-2.49-1.63-3.72-2.53-.81-.59-1.61-1.22-2.41-1.86-.41-.33-.81-.67-1.21-1.01-1.27-1.08-2.5-2.25-3.69-3.48-.3-.31-.59-.62-.89-.94-4.05-4.38-7.6-9.59-10.47-15.24-.2-.4-.4-.81-.6-1.22-.05-.1-.09-.19-.14-.29-.17-.35-.33-.71-.49-1.06-9.3-20.19-9.97-45.29,5.53-60.05.83-.79-.21-3.2-2.34-5.8-1.16-1.41-2.63-2.88-4.31-4.18-.02-.02-.05-.04-.08-.07-3.54-2.72-7.95-4.64-12.03-3.59-.26.07-.52.15-.77.24-2.23.79-4.67,2.09-7.23,3.78-.44.28-.88.58-1.32.89-.55.39-1.11.79-1.67,1.21-.28.21-.56.42-.84.64-.57.43-1.13.88-1.7,1.35-.57.46-1.14.93-1.71,1.43h-.01c-.57.49-1.15.99-1.72,1.51-.29.25-.58.51-.86.78-.58.52-1.16,1.06-1.73,1.61-.57.54-1.15,1.1-1.72,1.67l-.85.85c-.28.28-.57.58-.86.87-.35.36-.71.73-1.05,1.1-3.32,3.48-6.53,7.21-9.43,10.94-.5.63-.98,1.27-1.46,1.9s-.94,1.27-1.4,1.9h0c-.69.95-1.35,1.9-1.98,2.83h0c-.72,1.06-1.4,2.1-2.04,3.13-.22.34-.43.68-.63,1.02-.28.45-.54.9-.8,1.34h0c-.35.6-.68,1.18-.99,1.76h0c-.35.64-.67,1.26-.97,1.86-.4.79-.76,1.56-1.09,2.31t0,.01c-.47,1.05-.86,2.07-1.18,3.03-.47,1.42-.8,2.82-1.01,4.19-.9,5.65.17,10.91,2.16,15.98.3.76.62,1.52.97,2.28.22.51.46,1.01.7,1.51,1.45,3.01,3.15,5.96,4.87,8.9,3.22,5.52,7.28,11.49,11.79,17.51,1.35,1.81,2.74,3.62,4.17,5.43,2.37,3.01,4.83,6.01,7.32,8.94,1,1.17,2,2.34,3.01,3.49,1.01,1.15,2.02,2.28,3.03,3.4h0c1.01,1.13,2.02,2.23,3.03,3.32,1,1.08,2,2.15,3.01,3.19.99,1.04,1.98,2.07,2.97,3.07.49.5.98.99,1.46,1.47Z"/>
  <path class="cls-1" d="M365.35,500.58c17.04,11.97,58.42,18.06,76.37,27.5.26.14.6.34.97.59,1.9,1.27,4.99,3.71,6.8,4.88.04.03.09.06.13.09.65.41,1.11.64,1.27.57,13.56-6.17,20.52.56,21.77.54.76-.02,9.24-6.7,12.28-8.7.2-.14.38-.25.53-.34,20.26-12.11,44.51-15.59,66.07-25.13,5.37-2.37,10.58-5.12,15.52-8.48,16.87-11.47,25.88-26.99,39.03-41.91,1.78-3.07.65-16.75-.4-20.7-.69-2.65-2.43-4.59-2.77-7.35-.94-7.71.68-17.44,0-25.7-1.74-21.22-11.4-44.37-26.78-59.21-26.02-25.13-68.03-26.04-90.13,4.54-16.35,22.64-17.56,51.17-15.3,78.01.25,3.27.23,2.83.65,4.85.49,2.47.22,6.18,1.94,8.04.79.85,9.31,5.3,10.69,5.66,7.71,1.99,17.77-1.37,16.9,10.93-.47,6.88-6.3,22.99-9.37,29.57-3.45,7.43-8.96,16.06-15.51,21.75-8.06,6.99-17.67,9.55-26.96,0-.86-.88-1.71-1.87-2.56-2.96-7.55-9.75-10.46-27.9-17.48-35.45-3.42-3.7-11.52-5.08-6.64-12.02,3.46-4.94,20.19-16.82,21-21.04.91-26.78-4.59-83.22-37.31-90.3-31.55-6.84-50.69,31.57-52.96,57.65-1.17,13.44,2.61,28.5,1.54,40.44-.37,4.29-2.63,7.97-3.52,12.04-3.24,14.69-.29,36.04,9.75,47.69,1.19,1.39,2.7,2.7,4.48,3.95ZM500.68,407.25c0-1.84.16-3.62.43-5.36.87-14.39,9.03-28.88,24.97-33.29,24.26-6.7,46,14.06,43.18,38.51-.16,1.4-2.93,14.53-6.01,11.51-.44-.43,1.62-10.06,1.62-12.06-.08-22.77-22.85-42.66-44.68-29.83-1.7,1.01-3.95,2.77-5.36,4.49.73-.43,1.48-.83,2.25-1.19,3.85-2.08,8.24-3.24,12.87-3.24,15.76,0,28.53,13.46,28.53,30.09s-12.77,30.09-28.53,30.09c-1.46,0-2.91-.12-4.31-.36-13.94-.91-24.97-13.7-24.97-29.36ZM387.81,383.68c14.1-1.68,24.12,7.1,29.16,18.57,4.37,9.96,5.01,21.92,1.27,30.82,0,.02-.02.04-.02.06-3.54,8.34-10.89,13.97-22.62,12.65-.31-.04-.63-.08-.93-.14-4.19-.65-7.59-2.63-10.59-4.94-6.59-5.12-11.49-12.83-11.49-22.12,0-14.51,11.15-26.26,24.89-26.26,2.22,0,4.37.3,6.41.89-5.54-4.62-11.37-5.57-16.65-4.09-6.33,1.8-11.9,7.1-15.28,13.72-1.6,3.12-2.71,6.54-3.18,10.04-1.29,9.37,1.42,15.54,3,24.42-1.15,1.3-4.45-4.23-4.82-4.92-9.18-17.44-.73-46.11,20.85-48.7Z"/>
  <path class="cls-1" d="M478.91,492.99c.39-.47.78-.96,1.16-1.46.38-.49.75-1,1.13-1.52.36-.52.73-1.05,1.09-1.58.18-.27.36-.54.53-.81.35-.54.7-1.09,1.04-1.65.17-.28.34-.56.51-.85.33-.56.66-1.13.99-1.71.64-1.16,1.26-2.34,1.86-3.55.12-.22.22-.44.33-.66,1.22-2.49,2.33-5.07,3.34-7.66.25-.62.49-1.25.71-1.88.23-.61.45-1.23.67-1.85,0-.02.01-.05.02-.07.22-.62.43-1.23.62-1.85.21-.63.41-1.26.6-1.88.67-2.16,1.25-4.29,1.76-6.37.12-.46.22-.91.32-1.36.12-.49.22-.98.33-1.47.09-.42.18-.84.26-1.25.11-.53.21-1.06.3-1.58.1-.56.2-1.12.29-1.67.11-.72.22-1.42.31-2.11h0c-.18.08-.35.18-.52.29-.17.09-.33.2-.48.31-.16.1-.31.21-.45.33-.14.09-.27.2-.39.32-.14.12-.28.25-.41.38-.19.19-.36.37-.52.57-.16.19-.31.38-.46.59-.09.14-.18.27-.27.41-.09.14-.18.28-.25.43-.32.57-.58,1.18-.8,1.81-.06.16-.11.31-.16.48-.07.2-.13.42-.19.64-.1.35-.19.7-.27,1.07-.1.41-.19.84-.27,1.27-.32,1.54-.59,3.13-1.02,4.69-.1.34-.2.69-.32,1.03-1.69,5.01-5.07,12.09-9.44,18.64-1.25,1.87-2.57,3.7-3.96,5.43-.34.43-.69.85-1.05,1.27-.58.68-1.17,1.33-1.76,1.97-.32.34-.65.67-.97,1-.37.38-.74.75-1.12,1.1-.38.36-.77.71-1.15,1.03-.29.24-.57.48-.86.72s-.58.46-.87.69c-.39.3-.78.58-1.18.84-.4.27-.79.52-1.19.76-.4.23-.79.46-1.19.67-.26.14-.52.27-.79.39-1.35.61-2.71,1.05-4.07,1.27-.59.1-1.18.11-1.76.06-.21-.03-.42-.06-.63-.09-.03-.01-.06-.01-.09-.02-.4-.08-.79-.2-1.18-.34-.45-.16-.9-.37-1.33-.61-.36-.2-.71-.41-1.05-.65-.3-.21-.6-.43-.89-.67-.21-.17-.42-.34-.62-.53-.83-.73-1.61-1.55-2.34-2.43-.28-.33-.55-.66-.81-1.01-.02-.02-.04-.04-.05-.06-.24-.32-.48-.64-.72-.97-.03-.04-.07-.09-.1-.14-.21-.3-.42-.6-.62-.91-.18-.25-.34-.51-.51-.76-.95-1.49-1.77-2.94-2.42-4.17-.15-.29-.35-.71-.59-1.24-.17-.39-.37-.85-.58-1.35-.14-.33-.29-.69-.45-1.07-.12-.31-.26-.64-.4-.98-.11-.28-.24-.58-.36-.88-.16-.4-.33-.83-.51-1.26-.66-1.64-1.38-3.43-2.1-5.22-.14-.34-.28-.69-.42-1.03-.02-.06-.05-.12-.07-.18-.18-.45-.37-.9-.55-1.35-1.73-4.21-3.34-7.92-4.13-8.94-.04-.04-.07-.08-.1-.11s-.06-.05-.08-.08c-.06-.04-.1-.07-.14-.07-.07-.01-.14-.02-.21-.02-.08,0-.16.01-.25.03-.68.16-1.43.79-2.15.66,2.54,3.85,5.16,10.63,8.26,17.61.1.23.2.46.31.7.02.06.05.12.08.18.26.58.52,1.16.79,1.74.54,1.16,1.09,2.32,1.66,3.47.28.57.57,1.14.86,1.7.29.55.59,1.11.89,1.66.45.82.91,1.63,1.39,2.41,1.35,2.24,2.79,4.3,4.35,6.06.2.23.4.45.61.66.24.26.48.51.73.75.05.04.1.09.15.15.25.23.49.46.75.67.23.22.48.42.73.61.04.03.07.06.11.09.3.23.59.45.89.65.31.21.61.4.92.58.83.48,1.69.87,2.58,1.15.28.09.56.17.84.24.29.07.57.12.86.17,3.08.49,6.5-.28,10.32-2.78.05-.03.1-.07.15-.1.87-.57,1.73-1.21,2.56-1.89,1.11-.9,2.18-1.9,3.21-2.98.82-.86,1.63-1.77,2.42-2.72Z"/>
  <path class="cls-1" d="M453.3,491.2c.11.32.25.62.42.91.06.11.12.22.2.32.06.1.13.2.21.29.12.16.25.3.39.44.32.31.69.59,1.12.83.12.07.24.13.37.19.12.06.25.12.39.17.77.3,1.68.5,2.75.58.31.03.63.04.96.04s.65-.02.98-.07h.02c.46-.05.93-.16,1.4-.31.2-.05.4-.12.59-.19.16-.05.32-.11.47-.18.17-.07.34-.14.51-.22.17-.07.34-.15.51-.24.17-.08.34-.17.51-.27.35-.19.69-.39,1.03-.61.17-.1.33-.21.5-.32.53-.36,1.05-.75,1.58-1.17.69-.54,1.38-1.14,2.07-1.79s1.37-1.33,2.05-2.06c.68-.72,1.35-1.48,1.99-2.26.34-.39.66-.79.98-1.19.16-.2.32-.41.48-.62.32-.41.64-.82.94-1.24,1.86-2.52,3.56-5.18,5-7.75.24-.43.48-.86.7-1.28.11-.21.23-.42.33-.63.11-.21.22-.42.32-.63.11-.21.21-.41.31-.62.18-.36.35-.72.51-1.07.49-1.05.92-2.07,1.27-3.02.12-.32.23-.63.33-.94.08-.22.15-.43.21-.64.21-.67.37-1.3.49-1.88-1.21-.15-2.42-.22-3.62-.22-.34,0-.68.01-1.02.02-.32,0-.65.03-.97.05-2.63.18-5.2.71-7.65,1.56-.22.08-.45.16-.67.25-1.16.43-2.3.94-3.41,1.51-.26.13-.52.27-.78.42-.28.15-.56.31-.83.47-.17.11-.34.21-.51.32-.25.15-.49.31-.74.47-.6.4-1.19.82-1.77,1.25-.26.2-.51.4-.76.6-.56.45-1.11.93-1.64,1.42-.43.41-.86.82-1.27,1.25-.21.21-.42.43-.62.65-.4.44-.79.89-1.18,1.35-.19.23-.37.46-.56.7-2.75,3.53-5.82,9.79-5.17,14.19.03.2.07.4.12.6.04.19.1.38.16.57Z"/>
  <path class="cls-1" d="M443.05,435.4c-.3.3-.57.59-.83.89-.46.52-.91,1.05-1.44,1.58-.24.24-.49.47-.77.71h-.01c-.72.61-1.96,1.62-3.44,2.84-.17.15-.35.3-.53.44-2.37,1.98-5.25,4.42-7.57,6.63-.29.27-.57.54-.84.82-.18.17-.36.35-.53.53-.06.06-.12.11-.17.17-.51.52-.97,1.02-1.35,1.48-.48.57-.86,1.09-1.1,1.53-.11.22-.2.42-.24.59-.04.15-.03.3.02.46.02.08.06.17.11.26h.01c.06.13.15.25.25.37,0,.01,0,.01,0,.01.05.06.11.13.17.19.13.13.26.25.41.38h.01c.23.19.49.38.77.57h.01c.19.13.39.25.59.37h.01l.63.36h.01c.22.11.44.23.66.34t.01,0c.67.33,1.36.62,1.99.86t.01,0c.21.08.41.15.6.22.03.01.05.02.08.02.11.03.22.06.32.1.51.15.93.24,1.21.25.06,0,.13.01.19.01.38,0,.75-.04,1.1-.12.03,0,.07-.01.1-.03.02.01.03.01.04-.01.13-.03.25-.06.38-.1.17-.04.33-.1.5-.18.24-.1.47-.21.71-.34.23-.12.46-.25.68-.39.6-.38,1.19-.82,1.79-1.25.15-.1.3-.21.45-.31.32-.23.64-.44.98-.64.14-.08.29-.16.44-.24.16-.09.33-.17.5-.25,10.93-4.95,23.64,2.11,37.43.22.3-.04.6-.09.9-.14.14-.02.29-.05.44-.07.41-.08.82-.16,1.23-.25.28-.06.57-.13.86-.21.34-.08.69-.17,1.03-.27.23-.07.46-.14.7-.21.4-.13.81-.27,1.21-.42h.01c.33-.12.65-.24.98-.38.16-.05.32-.12.49-.2.33-.13.67-.28,1-.44.41-.2.83-.4,1.24-.61.62-.32,1.25-.67,1.88-1.05.83-.51,1.66-1.06,2.5-1.67.07-.05.15-.11.24-.17.2-.13.43-.31.68-.51.24-.19.5-.4.77-.62.29-.25.59-.51.88-.8.99-.96,1.81-2.02,1.67-2.82-.02-.06-.03-.12-.05-.18s-.05-.12-.09-.17c-.03-.05-.07-.1-.11-.15-.19-.2-.47-.37-.88-.5h-.01c-.23-.08-.46-.15-.7-.2-.72-.19-1.48-.32-2.27-.42-1.05-.14-2.15-.22-3.26-.31-.56-.05-1.12-.09-1.68-.14-.85-.07-1.69-.17-2.51-.31-.28-.05-.56-.1-.83-.15-.27-.06-.54-.12-.81-.18-.27-.06-.53-.13-.79-.21-.89-.27-1.76-.58-2.62-.93-.28-.11-.57-.23-.85-.35-1.32-.55-2.6-1.17-3.87-1.82-.37-.19-.73-.38-1.09-.57-.5-.26-.98-.52-1.47-.78-1.38-.74-2.75-1.48-4.12-2.19-.54-.27-1.07-.53-1.6-.78-.43-.2-.87-.4-1.3-.59-.22-.1-.44-.19-.66-.28-.24-.1-.48-.2-.71-.29-.42-.17-.85-.33-1.27-.47-.67-.23-1.34-.43-2.01-.6-.23-.06-.46-.11-.69-.16-.68-.15-1.37-.27-2.08-.35-.47-.05-.94-.09-1.42-.11-.32-.01-.65-.02-.98-.01-.98.01-1.99.1-3.02.29-.19.03-.38.07-.56.11-.94.2-1.91.48-2.9.84-.4.14-.8.31-1.21.48-.41.18-.82.36-1.23.57-1.38.68-2.31,1.36-3.06,2.06-.13.12-.25.24-.36.35Z"/>
  <path class="cls-1" d="M899,694.33c2.99-6.7,4.5-14.5,4.5-23.27,0-13.16-5.6-56.12-77.65-56.12-.97,0-1.94.01-2.9.03-.83-.02-1.68-.03-2.52-.03-16.09,0-30.07,2.46-41.76,7.32-1.45-8.63-3.37-16.34-5.82-23.32-14.16-40.33-44.03-44.68-56.22-44.68-.88,0-1.78.02-2.73.07-.84-.05-1.72-.07-2.7-.07-16.5,0-45,7.46-50.61,57.36-.15,1.09-.29,2.2-.42,3.32-1.03,0-1.97.02-2.87.06-.82-.04-1.65-.06-2.53-.06-3.08,0-6.15.23-9.19.68-.64-4.39-1.29-6.14-1.99-7.49-.34-1.34-.36-5.02-.38-7.26-.01-2.03-.02-4.02-.14-5.94,19.92-17.02,42.01-37.47,59.82-61.73,6.67-9.08,22.43-31.84,24.69-47.04.3-2.08.25-3.98.22-5.5-.01-.43-.02-.95-.02-1.36.03-.05.06-.09.1-.14,1.09-1.68,2.93-4.48,3.55-8.28.65-3.8.05-6.84-.31-8.65-.02-.15-.06-.32-.09-.48.4-1.35,1.47-4.08,2.14-5.79,1.08-2.75,2.1-5.35,2.7-7.53,3.56-13.13,13.86-57.3-3.06-74.56-2.12-2.16-4.55-3.77-7.2-4.78-12.36-50.01-41.4-95.28-81.88-127.62-42.16-33.67-93.03-51.47-147.1-51.47s-106.8,18.72-148.64,52.72c-41.03,33.33-69.95,79.9-81.48,131.19-2.94,1.48-6.02,3.91-8.9,7.84-11.52,15.68-9.11,47.98-6.22,62.91.53,2.64,1.47,5.42,2.39,8.12.62,1.83,1.64,4.8,1.83,6.09-.1.33-.31.87-.47,1.29-1.26,3.25-3.6,9.31-.21,17.6.6,1.46,1.38,2.65,2.1,3.6-.02.12-.04.23-.05.34-.35,2.52-.79,5.66-.47,8.87,1.87,19.57,25.2,48.61,40.81,66.05-9.09,2.45-16.99,6.73-23.11,12.55-13.05-12.07-28.1-14.91-39.36-14.91-.86,0-1.74.02-2.66.07-.85-.05-1.76-.07-2.76-.07-12.25,0-23.53,4.4-33.11,12.84-9.95-8.53-22.76-12.84-38.24-12.84-.96,0-1.86.02-2.75.06-.85-.04-1.72-.06-2.66-.06-16.24,0-38.27,6.47-50.99,37.32-7.38,17.91-11.04,42.16-11.19,74.13-.04,2.43-.06,4.93-.06,7.48,0,45.36,2.59,71.7,8.95,90.92,9.73,29.43,30.03,44.99,58.7,44.99,15.15,0,28.69-4.33,39.72-12.63,9.47,8.3,22.08,12.63,37.05,12.63,18.63,0,33.91-6.69,44.96-19.52,13.51,16.65,31.03,19.52,41.5,19.52s27.64-2.82,41-19.13c10.98,12.58,26.13,19.13,44.56,19.13,9.02,0,24.76-2.25,38.42-15.65,12.24,10.05,27.68,15.65,43.79,15.65s29.27-5.14,39.41-14.72c12.94,12.56,28.15,14.72,37.05,14.72,10.86,0,29.14-3.09,42.65-21.22,13.84,14.09,32.7,21.22,56.25,21.22,10.59,0,20.18-2.38,28.62-7.07,7.94,4.49,17.45,7.07,26.59,7.07,16.32,0,30.33-6.23,40.52-17.8,2.4,1.91,5,3.66,7.78,5.26,14.68,8.44,34.91,12.54,61.84,12.54,48.46,0,79.78-29.29,79.78-74.63,0-15.49-3.55-28.96-10.57-40.14ZM496.63,200c106.55,0,195.85,73.76,219.65,173.01-7.54,1.07-14.71,7.05-20.14,12.17-1.94,1.83-3.95,3.87-6.21,6.32-25.04-83.03-102.1-143.5-193.3-143.5s-171.21,62.81-194.68,148.3c-.77-1.02-1.36-1.74-1.78-2.22l-.83-.95c-5.87-6.71-13.85-15.82-23.24-16.29,22.39-101.18,112.63-176.84,220.53-176.84ZM680.44,394.66c-.93,1.08-1.85,2.15-2.76,3.21-2.32,2.71-4.54,5.29-6.75,7.74-5.21-5.26-12.43-7.76-17.61-9.11-4.82-31.45-18.83-61.8-39.87-86.13-21.17-24.47-48.16-40.87-77.03-47.04-.03-.38-.08-.75-.15-1.11,67.27,14.42,123.76,64.76,144.09,132.17l.08.27ZM476.22,259.1c-.05.28-.09.55-.12.81-30.02,3.19-58.96,13.84-82.73,30.61-29.81,21.02-49.86,50.06-57.99,83.98-3.26,13.65-4.07,27.05-4.02,40.19-1.84-.8-3.76-1.33-5.73-1.57-.03,0-.05-.01-.07-.01-.21-.14-.62-.45-.94-.68-.96-.73-2.28-1.73-4.05-2.69-1.22-.67-2.38-1.07-3.36-1.34-1.63-2.1-4.25-5.65-6.01-8.05l.39-1.4c20.97-76.37,87.08-131.54,164.63-139.85ZM829.79,799.1c-25.15,0-43.74-3.67-56.86-11.21-5.74-3.3-10.45-7.31-14.11-11.98-10.44,18.76-26.44,23.19-39.17,23.19-7.65,0-18.23-2.47-26.51-9.01-7.94,5.91-17.64,9.01-28.7,9.01-24.75,0-43.49-8.79-55.69-26.14-.64-.92-1.27-1.85-1.87-2.81-10.84,24.88-30,28.95-41.34,28.95-9.92,0-25.79-3.1-37-20.38-8.24,12.9-22.03,20.38-39.46,20.38-18.97,0-34.47-8.7-44.5-20.25-12.21,17.42-28.47,20.25-37.71,20.25-20.62,0-35.68-9.25-44.87-27.52-10.94,23.61-29.57,27.52-40.69,27.52s-30.12-3.97-41.23-28.07c-9.22,18.64-24.4,28.07-45.23,28.07-19.1,0-29.97-7.78-36.35-16.65-10.23,10.9-24.19,16.65-40.42,16.65-24.28,0-40.84-12.83-49.21-38.13-6-18.15-8.44-43.58-8.44-87.78,0-2.52.02-4.98.06-7.38.23-52.39,10.21-101.55,52.18-101.55.89,0,1.77.02,2.64.07.94-.05,1.86-.07,2.77-.07,16.8,0,29.43,5.72,38.2,17.38,8.48-10.65,19.77-17.38,33.15-17.38.92,0,1.83.02,2.72.08.89-.05,1.79-.08,2.7-.08,12.34,0,28.02,3.98,39.8,20.53,6.61-12.22,21.18-20.53,41.23-20.53.8,0,1.6.01,2.39.04-17.57-17.14-49.97-55.46-51.81-74.68-.37-3.72,1.01-8.44.77-10.87-.13-1.46-2.33-3.03-3.04-4.77-3.04-7.43,1.7-10.36,1.44-15.38-.21-4.17-3.5-11.21-4.43-15.89-2.76-14.26-4.4-42.96,4.47-55.04,3.02-4.11,6.2-5.78,9.39-5.86,7.94-.22,15.92,9.39,21.35,15.57.78.88,2.24,2.8,3.95,5.11,4.29,5.79,10.22,14.06,11.28,14.72,1.06.67,2.76.55,4.13,1.3,3.33,1.82,4.44,4,8.6,4.53,2.26.28,4.37,1.29,6.11,2.76l11.46,9.73c-.79-19.85-1.48-39.26,3.17-58.71,15.89-66.31,79.67-106.09,145.5-107.86.95-.83-5-5.6-4.55-8.05.38-1.96,3.12-2.83,4.92-2.91,8.17-.37,13.47,8.66,15.58,8.66.99,0,5.93-4.9,9.1-5.73,5.06-1.33,13.16-.61,10.16,6.29-.67,1.54-2.73,2.21-2.53,4.09,65.89,7.43,114.03,69.8,120.99,133.14.83,1.25,21.29,2.02,23.09,15.56,2.65-2.82,5.53-4.27,8.91-5.45,5.12-5.46,10.11-11.63,15.27-17.4,2.62-2.93,5.28-5.76,8.02-8.34,4.28-4.04,11.26-10.2,17.82-10.92,2.93-.33,5.79.43,8.28,2.97,11.88,12.12,4.7,49.64.55,64.94-1.07,3.9-4.94,12.14-5.22,15.09-.26,2.53,1.17,4.78.57,8.3-.51,3.16-3.04,5.16-3.53,7.35-.56,2.51.03,5.44-.36,8.21-1.8,12.1-15.46,32.46-22.85,42.52-17.54,23.9-39.94,44.6-62.5,63.66,1.84,5.17-.24,17.08,2.33,21.71.8,1.44,1.55,7.6,2.17,15.47-.31.11-.61.22-.92.34,6.15-2.36,12.55-3.52,18.86-3.52.78,0,1.62.02,2.51.08.97-.06,1.94-.08,2.91-.08,2.93,0,6.06.27,9.19.78.19-4.55.57-8.83,1.13-12.86,3.33-29.89,15.97-48.6,40.69-48.6.9,0,1.78.02,2.65.08.92-.05,1.84-.08,2.78-.08,12.49,0,35.18,4.94,46.79,37.99,3.44,9.84,5.84,21.55,7.23,35.78,11.32-8.1,27.62-13.09,49.78-13.09.84,0,1.68.01,2.51.03.96-.02,1.93-.03,2.91-.03,61.05,0,67.65,32.25,67.65,46.12,0,11.14-2.81,18.78-6.23,23.95,8.17,10.37,12.3,23.59,12.3,39.46,0,39.87-26.75,64.63-69.78,64.63Z"/>
  <g>
    <path class="cls-1" d="M281.13,643.75c-.52-7.59-1.34-14.95-2.53-21.93-1.68-9.87-4.09-18.97-7.43-26.89-7.86-18.6-20.88-30.67-41.74-30.67-16.08,0-29.13,9.71-37.93,24.27-7.28-15.17-19.72-24.27-38.83-24.27-42.48,0-52.19,50.36-52.19,103.46,0,76.45,8.2,120.44,52.19,120.44,16.68,0,30.94-7.28,40.65-22.75,5.16,11.53,14.57,22.75,36.11,22.75,24.8,0,38.32-13.99,45.4-39.89,5.47-20.04,7.08-47.21,7.08-80.55,0-8.12-.23-16.17-.78-23.97ZM229.43,776.63c-20.63,0-25.49-11.52-28.83-25.18,5.77-15.47,7.89-29.73,5.16-55.82-.3-2.73-2.73-5.16-5.76-5.16-3.34,0-6.07,3.03-5.77,6.07,5.46,57.34-13.35,80.09-41.56,80.09-33.98,0-40.66-34.28-40.66-108.91,0-51.58,8.2-91.93,40.66-91.93,17.9,0,26.7,8.49,31.85,26.09-6.67,16.69-9.4,33.07-7.58,51.88.3,3.03,2.73,5.46,5.76,5.46,3.34,0,6.07-3.03,5.77-6.37-2.73-39.44,12.74-77.06,40.96-77.06,32.76,0,40.95,40.35,40.95,91.93,0,74.63-6.97,108.91-40.95,108.91Z"/>
    <path class="cls-1" d="M339.56,631.61c5.08-2.29,9.48-5.36,12.94-9.14,5.22-5.71,8.29-13.04,8.29-21.8,0-1.96-.16-3.89-.48-5.76-2.95-17.52-19.47-30.65-44.42-30.65s-41.77,13.13-44.72,30.66h0c-.32,1.88-.48,3.79-.48,5.75,0,8.43,2.95,15.54,7.91,21.15,3.59,4.08,8.26,7.36,13.63,9.79-4.56,3.22-8.2,7.37-11.1,12.14-8.85,14.57-10.75,34.88-10.75,51.57,0,14.88.19,35.14,4.45,52.95,5.2,21.79,16.52,39.89,41.06,39.89s35.38-17.69,40.52-39.24c4.26-17.85,4.38-38.34,4.38-53.6,0-16.9-1.77-37.7-10.71-52.27-2.76-4.51-6.22-8.43-10.52-11.44ZM282.2,600.67c0-14.57,11.23-24.88,33.68-24.88s33.37,10.31,33.37,24.88c0,15.77-13.35,24.27-33.37,24.27s-33.68-8.5-33.68-24.27ZM315.88,776.63c-33.07,0-33.98-48.54-33.98-81.31,0-28.21,4.86-58.85,33.98-58.85s33.37,30.64,33.37,58.85c0,33.38-.6,81.31-33.37,81.31Z"/>
    <path class="cls-1" d="M514.61,695.12c-3.44-6.25-7.89-12.86-13.65-19.82,11.44-16.65,19-35.95,21.36-54.06.52-4,.79-7.93.79-11.77,0-9.23-1.75-17.05-4.87-23.46-7.04-14.47-21.09-21.75-37.91-21.75s-29.43,8.8-38.84,21.84c-6.37-13.65-22.45-21.84-37.01-21.84-22.29,0-35.99,12.08-44.17,30.65-3.57,8.1-6.09,17.45-7.81,27.56-1.12,6.57-1.9,13.48-2.42,20.58-.58,8.03-.82,16.32-.82,24.67,0,33.7,1.59,61.11,7.15,81.2,7.04,25.49,20.44,39.24,45.04,39.24,16.68,0,29.12-9.4,37.01-26.09,7.89,13.05,23.97,26.09,45.21,26.09,17.88,0,32.82-10.4,39.19-27.66,2.05-5.58,3.21-11.87,3.28-18.76,0-11.88-1.03-27.55-11.53-46.62ZM483.67,776.63c-21.85,0-36.41-16.08-39.44-28.82,3.64-12.74,5.46-28.21,5.46-42.78,0-3.33-2.43-5.76-5.77-5.76-3.03,0-5.76,2.43-5.76,5.76,0,45.21-13.05,71.6-36.71,71.6-33.98,0-40.66-34.28-40.66-108.91,0-51.58,8.19-91.93,43.69-91.93,14.56,0,28.52,8.49,29.13,23.36-8.8,18.51-12.44,41.26-10.93,57.04.31,3.03,2.73,5.46,5.77,5.46,3.34,0,6.07-2.73,5.76-6.07-3.33-34.89,14.26-79.79,46.12-79.79,19.11,0,31.25,10.01,31.25,33.68,0,26.09-13.05,56.43-34.89,76.45-2.13,1.82-2.43,4.85-.91,7.28,2.12,3.04,6.37,3.34,9.1.61,3.03-2.73,6.07-5.77,8.8-9.1,19.42,23.96,20.93,42.17,20.93,57.03-.3,22.76-12.44,34.89-30.94,34.89Z"/>
    <path class="cls-1" d="M601.85,662.49c-2.9-12.57-8.3-24.04-18.07-30.88,12.75-5.76,21.24-16.38,21.24-30.94,0-20.33-17.29-36.41-44.9-36.41-20.72,0-35.6,8.86-41.88,21.75-2.18,4.47-3.33,9.42-3.33,14.66,0,8.14,2.75,15.05,7.41,20.57,3.67,4.35,8.52,7.83,14.14,10.37-18.45,13.01-21.83,41.4-21.85,63.51v.2c0,18.42.28,45.13,8.25,65.18h0c6.33,15.94,17.51,27.66,37.26,27.66,23.98,0,35.15-17.34,40.36-38.59,4.41-18,4.54-38.8,4.54-54.25,0-10.26-.65-21.95-3.17-32.82h0ZM526.44,600.67c0-14.57,11.23-24.88,33.68-24.88s33.37,10.31,33.37,24.88c0,15.77-13.35,24.27-33.37,24.27s-33.68-8.5-33.68-24.27ZM560.12,776.63c-33.07,0-33.98-48.54-33.98-81.31,0-28.21,4.85-58.85,33.98-58.85s33.37,30.64,33.37,58.85c0,33.38-.6,81.31-33.37,81.31Z"/>
    <path class="cls-1" d="M676.62,680.16c-.91-1.52-3.03-2.73-5.16-2.73-4.55,0-6.98,4.85-4.85,8.49,4.55,8.49,4.85,25.48,0,36.71-1.82,3.64.91,8.19,5.16,8.19,2.42,0,4.55-1.52,5.15-3.64,6.38-13.95,6.07-35.5-.3-47.02ZM676.62,680.16c-.91-1.52-3.03-2.73-5.16-2.73-4.55,0-6.98,4.85-4.85,8.49,4.55,8.49,4.85,25.48,0,36.71-1.82,3.64.91,8.19,5.16,8.19,2.42,0,4.55-1.52,5.15-3.64,6.38-13.95,6.07-35.5-.3-47.02ZM760.75,647.35c-2.44-44.92-14.15-83.09-49.54-83.09-28.52,0-40.96,24.88-41.57,63.1-5.46-1.82-10.92-2.42-14.86-2.42-20.37,0-41.58,12.09-52.93,37.55h0c-5.23,11.72-8.36,26.26-8.36,43.76,0,16.19,2.19,30.93,6.99,43.32,9.13,23.59,27.71,38.59,58.54,38.59,10.32,0,20.33-3.34,28.83-11.22,6.97,7.58,18.81,11.22,26.39,11.22,20.05,0,31.74-10.61,38.44-30.37,3.85-11.31,6.06-25.6,7.27-42.62.02-.3.04-.6.06-.9.95-13.8,1.26-29.36,1.26-46.55,0-6.87-.16-13.7-.52-20.37ZM714.24,776.63c-6.07,0-14.56-2.73-18.81-8.19,2.43-3.64,4.25-7.58,6.07-13.04.91-2.43-.3-5.46-3.03-6.68-3.04-1.52-6.68.31-8.2,3.34-6.37,18.51-17.9,24.57-31.25,24.57-39.44,0-54-27-54-70.38,0-49.15,24.88-69.78,49.76-69.78,4.24,0,10.01.91,14.86,2.73.31,4.55.61,8.8,1.22,13.35.3,2.73,2.73,4.85,6.37,4.55,3.03-.61,5.16-3.34,4.85-6.68-4.85-47.93,3.95-74.63,29.13-74.63,30.64,0,38.53,40.35,38.53,91.93,0,74.63-5.16,108.91-35.5,108.91ZM671.45,677.43c-4.55,0-6.98,4.85-4.85,8.49,4.55,8.49,4.85,25.48,0,36.71-1.82,3.64.91,8.19,5.16,8.19,2.42,0,4.55-1.52,5.15-3.64,6.38-13.95,6.07-35.5-.3-47.02-.91-1.52-3.03-2.73-5.16-2.73Z"/>
    <path class="cls-1" d="M874.43,690.17c4.25-4.86,8.19-12.74,8.19-24.58,0-27.91-27.61-40.65-62.19-40.65-29.73,0-48.91,8.98-59.68,22.41-7.59,9.46-11.01,21.13-11.01,33.41,0,13.12,3.52,24.49,10.27,33.51.11.16.23.31.35.47-.14.14-.28.29-.41.43-5.87,6.05-10.21,14.74-10.21,27.18,0,5.59.98,10.76,2.94,15.44h0c7.97,19.2,32.19,30.37,71.69,30.37,42.78,0,64.32-26.39,64.32-59.16,0-15.77-4.85-28.82-14.26-38.83ZM824.37,776.63c-44.9,0-63.1-12.43-63.1-34.28,0-9.4,2.73-15.17,6.97-19.42,11.84,10.32,29.74,15.78,52.19,15.78,3.33,0,5.76-2.73,5.76-5.76,0-3.34-2.43-5.77-5.76-5.77-39.44,0-59.16-16.69-59.16-46.42,0-25.18,15.16-44.29,59.16-44.29,30.94,0,50.66,9.1,50.66,29.12,0,9.41-2.73,14.57-5.46,16.99-12.74-8.49-30.94-13.35-54.91-13.35-3.04,0-5.77,2.43-5.77,5.77,0,3.03,2.73,5.76,5.77,5.76,47.02,0,66.44,17.3,66.44,48.24,0,27.91-16.38,47.63-52.79,47.63Z"/>
  </g>
  <g>
    <path class="cls-1" d="M203.91,612.85s6.53-28.75,28.82-27.04c22.29,1.71,30.03,70.88,20.25,50.77-13.6-27.98-30.39-30.94-49.07-23.73Z"/>
    <path class="cls-1" d="M122.83,626.81s7.81-39.17,24.41-40.91c15.35-1.62,24.71,8.98,27.85,15.27,3.14,6.29-27.75-29.62-52.26,25.64Z"/>
    <path class="cls-1" d="M452.08,606.27s6.51-21.78,28.82-20.47c34.17,2.01,9.95,72.88,7.77,50.62-4.29-43.85-17.92-37.37-36.6-30.16Z"/>
    <path class="cls-1" d="M371.01,626.81s7.81-39.17,24.41-40.91c15.35-1.62,24.71,8.98,27.85,15.27,3.14,6.29-27.75-29.62-52.26,25.64Z"/>
    <path class="cls-1" d="M803.1,650.49c-3.54-.11-5.83-4.13-.58-6.22,4.69-1.87,22.99-5.84,45.9,1.62,18.81,6.13,18,20.26,18,20.26,0,0-3.72-13.82-63.32-15.66Z"/>
    <path class="cls-1" d="M321.1,587.99c3.54.02,4-5.33.58-6.22-4.88-1.26-11.11-1.52-18.4,1.04-18.67,6.55-11.08,23.46-11.08,23.46,0,0,.71-18.46,28.9-18.28Z"/>
    <path class="cls-1" d="M565.88,587.99c3.54.02,4-5.33.58-6.22-4.88-1.26-11.11-1.52-18.4,1.04-18.67,6.55-11.08,23.46-11.08,23.46,0,0,.71-18.46,28.9-18.28Z"/>
    <path class="cls-1" d="M321.92,654.53c3.54.02,4.79-5.94.56-8.25-4.43-2.42-9.14-2.86-14.62-1.08-18.81,6.13-14.84,27.61-14.84,27.61,0,0,.71-18.46,28.9-18.28Z"/>
    <path class="cls-1" d="M692.2,612.59s-3.53-23.59,14.16-27.65c26.01-5.97,39.43,38.4,25.69,26.53-19.78-17.09-35.1-15.97-39.85,1.12Z"/>
    <path class="cls-1" d="M565.13,654.53c3.54.02,4.79-5.94.56-8.25-4.43-2.42-9.14-2.86-14.62-1.08-18.81,6.13-14.84,27.61-14.84,27.61,0,0,.71-18.46,28.9-18.28Z"/>
    <path class="cls-1" d="M822.91,703.38c-3.49.61-4.79-8.65-.56-12.01,4.43-3.52,8.83-3.36,14.62-1.57,37.27,11.52,29.11,44.36,29.11,44.36,0,0-5.65-37.3-43.17-30.78Z"/>
    <path class="cls-1" d="M655.87,658.53c3.54.09,3.47-9.26-1.21-11.97s-9.47-2.49-14.7.59c-32.42,19.1-25.48,47.48-25.48,47.48,0,0,3.31-37.07,41.38-36.11Z"/>
  </g>
</svg>