<?xml version="1.0" encoding="UTF-8"?>
<svg id="LOGOS" xmlns="http://www.w3.org/2000/svg" viewBox="0 0 1000 1000">
  <defs>
    <style>
      .cls-1 {
        fill: #231f20;
      }
    </style>
  </defs>
  <path class="cls-1" d="M377.2,412c1.09,0,2.16.06,3.19.18-2.59-1.14-5.64-1.89-9.17-1.89-.38,0-.76.01-1.15.03h-.07c-.45.03-.9.06-1.35.1,0,.01-.02.01-.02.01h-.11c-3.72.4-7.2,3.87-10.25,8.79,2.91-2.4,5.94-4.2,9.1-5.41,3.15-1.21,6.43-1.81,9.83-1.81Z"/>
  <path class="cls-1" d="M440.62,426.06c9.49,0,17.75,3.75,24.95,11.37h0s.01.01.01.02t0,.01c2.68,2.84,5.21,6.21,7.61,10.13-2.43-14.97-10.08-36.48-19.92-37.23-.53-.04-1.06-.06-1.58-.06-11.14,0-17.45,9.84-20.56,16.92,3.3-.78,6.44-1.16,9.47-1.16h.01Z"/>
  <path class="cls-1" d="M373.53,608.72c-13,0-22.89-3.85-30.34-11.24,8.27,11.7,19.96,17.24,35.88,17.24s27.58-5.7,36.97-16.95l2.88-3.45c-1.92-2.65-3.46-5.49-4.74-8.35-9.71,15.47-23.97,22.75-40.65,22.75Z"/>
  <path class="cls-1" d="M412.36,409.09c.64-1.06,1.3-2.09,1.98-3.09-.23-.33-.47-.66-.72-1-3.55-4.76-7.81-8.48-12.75-11.14,4.74,3.94,8.54,9.09,11.49,15.23Z"/>
  <path class="cls-1" d="M373.53,597.19c28.21,0,47.02-22.75,41.56-80.09-.3-3.04,2.43-6.07,5.77-6.07,3.03,0,5.46,2.43,5.76,5.16,2.73,26.09.61,40.35-5.16,55.82,3.34,13.66,8.2,25.18,28.83,25.18.92,0,1.81-.02,2.69-.08,1.12-.06,2.21-.16,3.26-.31.48-.06.94-.14,1.4-.22.66-.11,1.32-.25,1.95-.41.31-.06.61-.14.91-.22.81-.22,1.6-.46,2.37-.74.38-.13.75-.27,1.12-.42.04-.02.08-.03.12-.05.34-.14.68-.29,1.02-.44.27-.12.53-.24.79-.38.23-.11.46-.22.69-.35.32-.16.63-.34.94-.52.3-.17.6-.35.89-.54.09-.05.19-.11.28-.18.23-.14.45-.29.67-.45.3-.2.59-.41.88-.63.21-.15.41-.31.61-.47.29-.23.57-.46.85-.7.22-.19.42-.37.63-.57.18-.15.36-.32.53-.49.27-.26.54-.53.82-.81.24-.25.48-.51.72-.78.05-.05.09-.1.13-.15.18-.2.36-.4.53-.61.21-.25.42-.5.62-.76.01,0,.02-.01.02-.02.26-.33.52-.66.77-1,.05-.07.11-.15.16-.23.21-.28.41-.57.61-.86.24-.34.47-.69.69-1.05.18-.28.36-.57.53-.86.07-.1.13-.2.19-.31.17-.28.33-.56.49-.85.09-.16.19-.33.28-.51.16-.29.31-.58.46-.87.09-.16.18-.33.26-.5.16-.32.32-.64.47-.97.04-.07.08-.15.11-.23.21-.44.42-.88.61-1.34.2-.45.4-.91.58-1.37.03-.06.06-.13.09-.2.19-.48.38-.96.56-1.45.2-.52.39-1.05.58-1.59-7.02-7.57-11.02-19.17-11.02-33.55,0-19.31,7.13-33.66,19.04-40.02.02-1.32.03-2.66.03-4.01.02-1.92.02-3.87.02-5.84,0-51.58-8.19-91.93-40.95-91.93-28.22,0-43.69,37.62-40.96,77.06.3,3.34-2.43,6.37-5.77,6.37-3.03,0-5.46-2.43-5.76-5.46-1.82-18.81.91-35.19,7.58-51.88-5.15-17.6-13.95-26.09-31.85-26.09-32.46,0-40.66,40.35-40.66,91.93,0,74.63,6.68,108.91,40.66,108.91ZM451.7,406.3c.61,0,1.25.02,1.89.07,15.92,1.22,24.41,36.84,24.41,49.78,0,2.89-.42,4.65-1.28,4.65-.3,0-.65-.21-1.05-.66-.52-.59-1.13-1.57-1.83-3-3.62-7.42-7.45-13.1-11.49-17.28-6.72-6.96-14.01-9.8-21.74-9.8-5.1,0-10.39,1.24-15.84,3.34,0,0,6.16-27.1,26.93-27.1ZM368.1,406.46c1.07-.11,2.11-.17,3.12-.17,13.51,0,21.81,9.59,24.73,15.44.15.3.22.5.22.63,0,.1-.04.14-.14.14-1.12,0-8.71-6.5-18.83-6.5s-22.39,6.31-33.5,31.34c.24-1.18,8.06-39.16,24.4-40.88Z"/>
  <path class="cls-1" d="M538.83,415.19c8.43-2.68,15.9-.35,20.95,2.07-4.02-4.55-10.5-8.96-19.3-8.96-.93,0-1.89.05-2.87.15-7.62.8-13.71,11.43-17.79,22.39,5.73-8.2,12.09-13.44,19.01-15.65Z"/>
  <path class="cls-1" d="M492.03,415.49c2,4.73,3.66,9.88,5.03,15.37.73-2.84,1.55-5.6,2.46-8.25l-.54-1.33c-.16-.4-.32-.79-.48-1.17-.2-.46-.38-.88-.57-1.3-4.45-10.05-10.26-17.64-17.29-22.6-1.18-.84-2.41-1.61-3.68-2.29,6.39,5.3,11.32,12.69,15.07,21.57Z"/>
  <path class="cls-1" d="M619.89,421.65c6.86,4.22,10.8,15.06,12.76,35.14.08.83.19,1.43.29,1.85,3.03-4.12,8.3-22.55,5.05-36.26-2.09-8.83-7.21-13.55-15.22-14.01-14.64-.85-21.98,9.04-25.01,14.89,8.49-3.23,15.9-5.45,22.13-1.61Z"/>
  <path class="cls-1" d="M506.42,494.47c10.43,0,19.58,4.35,25.78,12.25,6.04,7.71,9.1,18.29,9.1,31.43,0,26.82-12.68,39.16-26.72,42.44,6.17,11.19,15.36,16.6,28.85,16.6,23.66,0,36.71-26.39,36.71-71.6,0-3.33,2.73-5.76,5.76-5.76,3.34,0,5.77,2.43,5.77,5.76,0,14.57-1.82,30.04-5.46,42.78,3.03,12.74,17.59,28.82,39.44,28.82,18.5,0,30.64-12.13,30.94-34.89,0-14.86-1.51-33.07-20.93-57.03-2.73,3.33-5.77,6.37-8.8,9.1-2.73,2.73-6.98,2.43-9.1-.61-1.52-2.43-1.22-5.46.91-7.28,21.84-20.02,34.89-50.36,34.89-76.45,0-23.67-12.14-33.68-31.25-33.68-31.86,0-49.45,44.9-46.12,79.79.31,3.34-2.42,6.07-5.76,6.07-3.04,0-5.46-2.43-5.77-5.46-1.51-15.78,2.13-38.53,10.93-57.04-.61-14.87-14.57-23.36-29.13-23.36-35.5,0-43.69,40.35-43.69,91.93,0,2.16.01,4.28.02,6.37,1.18-.12,2.39-.18,3.63-.18ZM592.15,426.26c.07-.23,7.09-23.3,30.86-21.89,13.01.77,20.11,10.73,20,28.07-.08,12.01-4.73,30.61-10.32,30.87h-.16c-3.26,0-3.71-4.6-3.86-6.12h0c-1.78-18.22-5.34-28.73-10.87-32.13-5.27-3.24-12.83-.31-21.59,3.08l-5.19,2,1.13-3.88ZM511.04,446.94c.85-4.15,8.77-40.64,26.15-42.47,16.26-1.7,26.41,9.48,29.85,16.37.81,1.61.31,2.57-.24,3.09-1.27,1.18-2.61.38-4.47-.72-3.71-2.2-12.39-7.36-22.28-4.2-9.5,3.02-17.98,12.83-25.22,29.14l-7.46,16.8,3.67-18.01Z"/>
  <path class="cls-1" d="M583.47,406.66c.62-.86,1.26-1.7,1.92-2.52-.13-.17-.28-.34-.42-.51-3.03-3.54-6.78-6.56-10.97-8.93,3.99,3.28,7.3,7.3,9.47,11.96Z"/>
  <path class="cls-1" d="M492.49,578.55c-7.69,19.66-20.71,30.17-42.2,30.17-12.73,0-21.22-3.92-27.1-9.5,7.21,10.43,17.91,15.5,32.64,15.5,9.9,0,18.03-2.13,24.86-6.5,6.85-4.39,12.22-10.92,16.44-19.99l1.46-3.12,3.3.97c1.2.35,2.3.62,3.35.82-.98-1.76-1.89-3.62-2.74-5.59-3.6-.39-6.95-1.33-10.01-2.76Z"/>
  <path class="cls-1" d="M651.54,503.06l-1.77-2.25,1.55-2.4c10.34-15.97,17.27-34.25,19.51-51.48.53-4.08.8-8.08.8-11.9,0-9.1-1.67-17.13-4.97-23.89-3.52-7.25-8.94-12.92-15.76-16.72,3.79,3.23,6.96,7.29,9.32,12.15,3.12,6.41,4.87,14.23,4.87,23.46,0,3.84-.27,7.77-.79,11.77-2.36,18.11-9.92,37.41-21.36,54.06,5.76,6.96,10.21,13.57,13.65,19.82,10.5,19.07,11.53,34.74,11.53,46.62-.07,6.89-1.23,13.18-3.28,18.76-6.37,17.26-21.31,27.66-39.19,27.66-16.34,0-29.62-7.71-38.47-17.21l2.45,2.98c5,6.08,19.08,20.23,41.56,20.23,18.31,0,33.69-10.85,40.14-28.31,2.14-5.86,3.26-12.31,3.33-19.15,0-12.78-1.38-28.41-11.64-47.06-3.16-5.71-7.02-11.48-11.48-17.14Z"/>
  <path class="cls-1" d="M715.53,466.53c0-15.98-8.12-31.66-23.07-40.49-2.75-1.62-4.36-4.55-4.36-7.63,0-.73.09-1.47.28-2.2,6.97-27.11-11.17-54.25-38.87-58.19h0c-1.95-.28-3.69-1.18-5.02-2.5-1.32-1.33-2.22-3.07-2.5-5.02-3.37-23.68-23.68-40.38-46.44-40.38-3.87,0-7.81.49-11.75,1.5-.73.19-1.47.28-2.2.28-3.08,0-6.01-1.61-7.63-4.36-14.24-24.09-46.26-30.46-68.64-13.65-1.58,1.19-3.45,1.78-5.32,1.78s-3.74-.59-5.32-1.78c-8.49-6.38-18.38-9.42-28.15-9.42-15.98,0-31.66,8.12-40.49,23.07-1.62,2.75-4.55,4.36-7.63,4.36-.73,0-1.47-.09-2.2-.28-3.94-1.01-7.88-1.5-11.75-1.5-22.76,0-43.07,16.7-46.44,40.38-.28,1.95-1.18,3.69-2.5,5.02-1.33,1.32-3.07,2.22-5.02,2.5-23.68,3.37-40.38,23.68-40.38,46.44,0,3.87.49,7.81,1.5,11.75.19.73.28,1.47.28,2.2,0,3.08-1.61,6.01-4.36,7.63-14.95,8.83-23.07,24.51-23.07,40.49,0,9.77,3.04,19.66,9.42,28.15,1.19,1.58,1.78,3.45,1.78,5.32s-.59,3.74-1.78,5.32c-6.38,8.49-9.42,18.38-9.42,28.15,0,15.98,8.12,31.66,23.07,40.49,2.75,1.62,4.36,4.55,4.36,7.63,0,.73-.09,1.47-.28,2.2-1.01,3.94-1.5,7.88-1.5,11.75,0,22.76,16.7,43.07,40.38,46.44,3.9.55,6.97,3.62,7.52,7.52h0c3.37,23.68,23.68,40.38,46.44,40.38,3.87,0,7.81-.49,11.75-1.5.73-.19,1.47-.28,2.2-.28,3.08,0,6.01,1.61,7.63,4.36,8.83,14.95,24.51,23.07,40.49,23.07,9.77,0,19.66-3.04,28.15-9.42,1.58-1.19,3.45-1.78,5.32-1.78s3.74.59,5.32,1.78c8.49,6.38,18.38,9.42,28.15,9.42,15.98,0,31.66-8.12,40.49-23.07,1.62-2.75,4.55-4.36,7.63-4.36.73,0,1.47.09,2.2.28,27.11,6.97,54.25-11.17,58.19-38.87h0c.55-3.91,3.62-6.98,7.52-7.53h0c23.67-3.37,40.37-23.68,40.37-46.44,0-3.87-.49-7.81-1.5-11.75-.19-.73-.28-1.47-.28-2.2,0-3.08,1.61-6.01,4.36-7.63,14.95-8.83,23.07-24.51,23.07-40.49,0-9.77-3.04-19.66-9.42-28.15-1.19-1.58-1.78-3.45-1.78-5.32s.59-3.74,1.78-5.32c6.38-8.49,9.42-18.38,9.42-28.15ZM675.08,587.79c-7.04,19.08-23.86,30.93-43.89,30.93s-35.26-10.28-44.65-21.69c-8.98,14.23-21.84,21.69-37.56,21.69-20.84,0-35.38-9.12-44.37-27.87-1.31-.24-2.59-.56-3.85-.93-9.02,19.37-23.76,28.8-44.93,28.8-16.62,0-28.71-6.03-36.72-18.39-10.07,12.07-23.76,18.39-40.04,18.39-23.21,0-38.67-11.39-47.28-34.83-3.8-10.34-6.4-23.12-7.99-39.89,0-.07,0-.15-.02-.23-1.82-15.88-2.44-34.46-2.44-55.49,0-53.1,9.71-103.46,52.19-103.46.93,0,1.84.02,2.73.07.93-.05,1.86-.07,2.81-.07,16.29,0,28.94,5.97,37.75,17.78,8.52-10.88,19.92-17.78,33.47-17.78.94,0,1.87.02,2.78.09.91-.06,1.83-.09,2.76-.09,20.85,0,36.23,10.88,45.74,32.33.23-.56.47-1.13.72-1.68,8.18-18.57,21.88-30.65,44.17-30.65.8,0,1.6.02,2.41.08,1.03-.06,2.07-.08,3.13-.08,13.97,0,27.58,6.36,36.01,16.21,8.91-9.88,20.41-16.21,34.3-16.21.93,0,1.85.02,2.76.07.92-.04,1.85-.07,2.78-.07,19.36,0,34.82,8.96,42.41,24.57,3.57,7.32,5.37,15.95,5.37,25.64,0,3.99-.28,8.17-.83,12.42-2.33,17.91-9.44,36.64-20.12,53.13,4.62,5.86,8.59,11.8,11.84,17.69,10.7,19.45,12.14,35.7,12.14,49.03-.07,7.34-1.28,14.21-3.58,20.49Z"/>
  <path class="cls-1" d="M739.14,452.43c-3.19-16.06-12.03-30.81-24.59-41.3,1.47-16.29-2.71-32.97-11.81-46.6-9.1-13.62-22.91-23.86-38.53-28.74-9.27-29.71-37.21-50.68-68.66-50.68-2.22,0-4.46.11-6.69.32-13.62-16.36-33.9-25.97-55.38-25.97-11.73,0-23.18,2.85-33.47,8.28-10.29-5.43-21.74-8.28-33.47-8.28-21.48,0-41.75,9.6-55.38,25.97-2.23-.21-4.47-.32-6.69-.32-31.46,0-59.4,20.97-68.66,50.68-15.62,4.88-29.43,15.12-38.53,28.74-9.1,13.62-13.28,30.3-11.81,46.6-12.56,10.49-21.4,25.24-24.59,41.3-3.19,16.08-.67,33.08,6.91,47.57-7.58,14.49-10.11,31.49-6.91,47.57,3.19,16.06,12.03,30.81,24.59,41.3-1.47,16.29,2.71,32.97,11.81,46.6,9.1,13.62,22.91,23.86,38.53,28.74,9.27,29.71,37.2,50.68,68.66,50.68,2.22,0,4.46-.11,6.69-.32,6.03,7.22,13.53,13.27,21.95,17.69,10.32,5.41,21.88,8.27,33.42,8.27s23.18-2.85,33.47-8.28c10.29,5.43,21.74,8.28,33.47,8.28,21.49,0,41.76-9.6,55.38-25.97,2.23.21,4.46.32,6.69.32,31.46,0,59.4-20.97,68.66-50.68,15.62-4.88,29.43-15.12,38.53-28.74,9.1-13.62,13.28-30.3,11.81-46.6,12.56-10.49,21.4-25.24,24.59-41.3,3.19-16.08.67-33.08-6.91-47.57,7.58-14.49,10.11-31.49,6.91-47.57ZM729.33,545.62c-3.13,15.74-12.33,29.71-25.46,38.83,2.84,15.72-.53,32.11-9.45,45.46-8.92,13.35-22.77,22.73-38.39,26.12-6.12,28.09-31.52,48.85-60.49,48.85-3.71,0-7.43-.34-11.1-1.01-11.49,16.53-30.71,26.66-50.97,26.66-11.97,0-23.47-3.4-33.47-9.86-10,6.46-21.5,9.86-33.47,9.86-10.13,0-20.01-2.53-28.78-7.13-8.77-4.6-16.45-11.26-22.19-19.53-3.67.67-7.39,1.01-11.1,1.01-28.97,0-54.37-20.76-60.49-48.85-15.62-3.39-29.47-12.77-38.39-26.12-8.92-13.35-12.29-29.74-9.45-45.46-13.13-9.12-22.33-23.09-25.46-38.83-3.13-15.75.02-32.18,8.66-45.62-8.64-13.44-11.79-29.87-8.66-45.62,3.13-15.74,12.33-29.71,25.46-38.83-2.84-15.72.53-32.11,9.45-45.46,8.92-13.35,22.77-22.73,38.39-26.12,6.12-28.09,31.52-48.85,60.49-48.85,3.71,0,7.43.34,11.1,1.01,11.5-16.53,30.71-26.66,50.97-26.66,11.97,0,23.47,3.4,33.47,9.86,10-6.46,21.5-9.86,33.47-9.86,20.26,0,39.48,10.13,50.97,26.66,3.67-.67,7.39-1.01,11.1-1.01,28.97,0,54.37,20.76,60.49,48.85,15.62,3.39,29.47,12.77,38.39,26.12,8.92,13.35,12.29,29.74,9.45,45.46,13.13,9.12,22.33,23.09,25.46,38.83,3.13,15.75-.02,32.18-8.66,45.62,8.64,13.44,11.79,29.87,8.66,45.62Z"/>
  <path class="cls-1" d="M543.43,608.72c-13.02,0-22.91-3.85-30.37-11.27,8.27,11.74,19.88,17.27,35.92,17.27,14.38,0,25.88-6.67,34.18-19.82l2.91-4.62c-2.19-2.48-4.07-5.07-5.63-7.65-7.89,16.69-20.33,26.09-37.01,26.09Z"/>
  <path class="cls-1" d="M515.07,570.03c.23-.08.46-.18.69-.28.16-.05.31-.12.46-.19.15-.06.31-.13.46-.22.26-.11.52-.24.77-.38.07-.02.14-.05.19-.09.27-.14.52-.28.78-.45.13-.07.26-.14.39-.23.19-.11.38-.23.56-.36.28-.17.55-.36.81-.57.22-.16.43-.32.64-.49.6-.46,1.16-.97,1.71-1.52.16-.15.31-.31.45-.47.16-.16.32-.33.47-.5.37-.41.72-.83,1.05-1.27.2-.24.38-.49.56-.75.06-.06.1-.13.14-.2.23-.32.45-.64.65-.98.03-.03.05-.05.05-.08.21-.32.41-.65.6-.99.06-.1.12-.21.17-.31.18-.32.36-.65.52-.98.04-.07.08-.15.11-.22.17-.33.33-.67.48-1.02.44-.97.84-2,1.19-3.07.15-.45.3-.91.43-1.38.1-.32.19-.65.27-.99.11-.4.21-.8.3-1.21.09-.35.17-.7.24-1.06.1-.46.19-.93.26-1.41.07-.38.14-.77.19-1.16.03-.17.06-.33.07-.49.07-.41.12-.83.16-1.25.03-.18.05-.37.06-.55.04-.33.08-.67.1-1.01.04-.32.06-.65.08-.98.03-.32.05-.64.06-.97.04-.57.06-1.14.08-1.73.02-.68.03-1.37.03-2.07,0-22.45-10.31-33.68-24.88-33.68-.54,0-1.07.02-1.59.05-.36.02-.72.05-1.07.09-.02,0-.04,0-.05.01-.27.02-.54.06-.8.1h-.01c-.09,0-.18.02-.27.04h0c-.27.04-.54.09-.81.14-.07,0-.14.02-.2.04-.26.05-.51.1-.75.16-.02,0-.03,0-.05.01-.3.07-.6.15-.9.24-.15.04-.3.08-.45.13-.05.01-.1.03-.15.05-.3.09-.59.19-.88.3-.49.18-.97.37-1.43.58-.74.34-1.45.72-2.13,1.14-.36.22-.72.45-1.06.7-.3.21-.6.43-.89.66-.3.23-.58.47-.86.72-.18.16-.36.32-.54.49t-.01.01c-.15.13-.29.27-.43.42-.03.03-.07.06-.1.09h0c-.12.13-.24.25-.35.38-.45.46-.87.95-1.27,1.45-.14.18-.28.36-.41.54-.23.3-.45.6-.66.91-.22.33-.45.67-.66,1.02l-.06.09c-.21.35-.43.72-.63,1.09,0,.01-.02.03-.03.05-.22.4-.43.8-.63,1.22-.15.3-.29.61-.43.92-.08.15-.15.31-.21.47-.19.43-.37.86-.53,1.29-.12.31-.24.63-.35.96-.03.08-.06.15-.08.23-.07.2-.14.41-.21.62-.06.16-.11.31-.15.47-.13.4-.25.81-.36,1.23-.06.19-.11.38-.15.57-.13.45-.24.9-.33,1.36-.03.09-.06.18-.07.28-.14.6-.26,1.2-.37,1.82-.02.1-.04.21-.05.31-.1.56-.19,1.12-.27,1.7-.01.03-.01.06-.01.09-.08.57-.16,1.15-.21,1.74-.03.16-.04.32-.05.48-.05.49-.1.99-.13,1.49-.02.22-.03.44-.04.67-.05.61-.07,1.22-.09,1.85-.03.73-.04,1.46-.04,2.21,0,.52.01,1.04.02,1.56.01.38.02.77.04,1.15.02.66.06,1.32.11,1.96.02.43.06.85.1,1.27s.08.83.13,1.24c.06.57.14,1.13.22,1.69.14.97.31,1.92.51,2.84.06.3.13.6.2.89.04.22.09.43.15.63.07.32.15.64.24.96,0,.03,0,.05.02.06.1.38.21.77.32,1.14.38,1.25.81,2.44,1.3,3.57.14.33.28.66.43.97.03.08.06.16.11.23.16.33.32.65.48.96.27.53.56,1.04.85,1.53,0,.02.01.04.03.05.12.19.23.38.35.56.18.31.38.6.59.89.16.23.33.47.5.69.17.23.35.46.52.67.18.22.36.44.55.65.16.19.33.37.49.55.03.04.06.08.11.11.18.19.36.38.54.56,1.03,1.02,2.15,1.92,3.35,2.67.17.12.35.23.54.34.23.15.47.28.71.4.21.12.42.23.63.33.55.29,1.12.54,1.71.76.2.08.4.15.61.22.6.22,1.23.41,1.87.56.22.06.44.11.67.16.34.08.68.14,1.03.2.38.07.76.12,1.14.17.02,0,.05,0,.08.01.16.02.33.04.49.05.29.03.59.05.89.07.1.01.2.01.3.01.44.03.89.04,1.34.04.38,0,.77-.01,1.14-.03.22,0,.43-.01.65-.03.33-.02.65-.04.97-.08.37-.03.73-.08,1.09-.13.09-.01.18-.03.26-.04.09-.01.18-.03.27-.05.68-.11,1.35-.25,2-.42.27-.07.54-.14.81-.23.5-.13.99-.3,1.46-.48ZM503.17,516.02c-.3.27-.61.56-.91.86-1.25,1.24-2.45,2.79-3.52,4.69-.22.38-.42.77-.62,1.18-.2.41-.4.83-.59,1.28-.19.44-.37.89-.54,1.37-.17.47-.34.96-.5,1.46-.16.51-.3,1.03-.44,1.57-.14.54-.27,1.09-.39,1.67-.23,1.07-.42,2.2-.56,3.4-.02.16-.04.33-.06.5-.02.16-.04.33-.05.5-.04.31-.07.62-.09.94-.03.37-.06.75-.08,1.13-.03.38-.05.76-.06,1.15-.04.91-.06,1.84-.05,2.81.01,1.05-.46,1.83-1.14,2.3-1.3.94-3.39.81-4.48-.53-.27-.33-.48-.73-.6-1.2-1.26-4.88-1.52-11.11,1.04-18.39.35-1,.73-1.93,1.14-2.78h0c.35-.74.72-1.42,1.1-2.05h0c3.01-4.97,7.01-6.96,10.72-7.56.17-.03.35-.06.52-.08.35-.04.7-.08,1.05-.1.21-.02.42-.03.63-.03.19-.01.37-.01.55-.01.3,0,.59.01.88.03.1,0,.19,0,.28.01.14,0,.28,0,.42.03.35.02.69.06,1.02.11.27.03.53.07.78.12.51.08.99.18,1.43.29.22.05.43.1.63.16.1.03.2.05.29.08.09.03.18.05.27.08.31.09.59.18.83.27.59.2.92.35.92.35,0,0-5.03.19-9.82,4.39Z"/>
</svg>