<?xml version="1.0" encoding="UTF-8"?>
<svg xmlns="http://www.w3.org/2000/svg" viewBox="0 0 1000 1000">
  <defs>
    <style>
      .cls-1, .cls-2 {
        fill: #fd0;
      }

      .cls-3 {
        fill: #fff;
      }

      .cls-4 {
        fill: #4bb8e9;
      }

      .cls-5 {
        fill: #fdfdfd;
      }

      .cls-6 {
        fill: #fbf7c3;
      }

      .cls-7 {
        fill: #00abe6;
      }

      .cls-2 {
        stroke: #4bb8e9;
        stroke-miterlimit: 10;
        stroke-width: 3px;
      }

      .cls-8 {
        fill: #fff78f;
      }
    </style>
  </defs>
  <g id="BG">
    <g>
      <rect class="cls-5" x="499.74" y="0" width="500" height="500"/>
      <rect class="cls-4" y="0" width="500" height="500"/>
      <rect class="cls-6" x="499.74" y="500" width="500" height="500"/>
      <rect class="cls-1" y="500" width="500" height="500"/>
    </g>
  </g>
  <g id="LOGOS">
    <g>
      <path class="cls-3" d="M774.09,418.44c-8.54,0-16.87-2.07-24.36-6.03-7.48,3.95-15.82,6.02-24.35,6.03-15.63,0-30.39-6.99-40.3-18.9-1.62.15-3.24.23-4.86.23-22.89,0-43.22-15.26-49.97-36.87-11.36-3.55-21.41-11-28.03-20.91-6.62-9.91-9.66-22.05-8.6-33.91-9.14-7.63-15.57-18.36-17.9-30.05-2.33-11.69-.49-24.07,5.03-34.61-5.52-10.55-7.36-22.92-5.03-34.61,2.33-11.69,8.76-22.42,17.9-30.05-1.07-11.86,1.97-23.99,8.6-33.91,6.62-9.91,16.67-17.36,28.04-20.92,6.75-21.61,27.08-36.87,49.97-36.87,1.62,0,3.24.08,4.86.23,9.92-11.91,24.67-18.89,40.3-18.89,8.54,0,16.87,2.07,24.36,6.03,7.49-3.95,15.82-6.03,24.36-6.03,15.63,0,30.38,6.99,40.3,18.89,1.62-.15,3.25-.23,4.86-.23,22.89,0,43.22,15.26,49.97,36.87,11.36,3.55,21.41,11,28.04,20.92,6.62,9.91,9.66,22.05,8.6,33.91,9.14,7.63,15.57,18.36,17.9,30.05,2.33,11.69.49,24.07-5.03,34.61,5.52,10.55,7.36,22.92,5.03,34.61-2.33,11.69-8.76,22.42-17.9,30.05,1.07,11.86-1.97,23.99-8.6,33.91-6.62,9.91-16.67,17.36-28.03,20.91-6.75,21.61-27.08,36.87-49.97,36.87-1.62,0-3.24-.08-4.86-.23-9.92,11.91-24.67,18.89-40.3,18.9,0,0,0,0,0,0Z"/>
      <g>
        <path class="cls-7" d="M774.09,411.17c-8.71,0-17.07-2.47-24.36-7.17-7.28,4.7-15.64,7.17-24.35,7.17h0c-14.74,0-28.72-7.37-37.09-19.4-2.67.49-5.38.73-8.07.73-21.08,0-39.56-15.1-44.02-35.54-11.36-2.47-21.44-9.3-27.93-19.01-6.49-9.71-8.94-21.64-6.88-33.08-9.55-6.63-16.25-16.8-18.53-28.25-2.28-11.46.02-23.41,6.31-33.19-6.29-9.78-8.59-21.74-6.31-33.19,2.28-11.46,8.98-21.62,18.53-28.25-2.07-11.44.39-23.37,6.88-33.08,6.49-9.71,16.57-16.54,27.93-19.01,4.46-20.43,22.94-35.54,44.02-35.54,2.7,0,5.4.25,8.07.73,8.37-12.03,22.35-19.4,37.09-19.4,8.71,0,17.08,2.47,24.36,7.17,7.28-4.7,15.65-7.17,24.36-7.17,14.75,0,28.72,7.37,37.09,19.4,2.67-.49,5.38-.73,8.08-.73,21.08,0,39.56,15.11,44.02,35.54,11.36,2.47,21.44,9.3,27.93,19.01,6.49,9.71,8.94,21.64,6.88,33.08,9.55,6.63,16.25,16.8,18.53,28.25s-.02,23.41-6.31,33.19c6.29,9.78,8.59,21.74,6.31,33.19-2.28,11.46-8.98,21.62-18.53,28.25,2.07,11.44-.39,23.37-6.88,33.08-6.49,9.71-16.57,16.54-27.93,19.01-4.46,20.43-22.94,35.54-44.02,35.54-2.7,0-5.4-.25-8.08-.73-8.37,12.03-22.34,19.4-37.09,19.4Z"/>
        <path class="cls-4" d="M774.09,407.53c-8.81,0-17.22-2.75-24.36-7.95-7.13,5.2-15.54,7.95-24.35,7.95-14.4,0-27.91-7.58-35.41-19.83-3.21.77-6.49,1.17-9.76,1.17-20.28,0-37.76-15.01-40.9-35.02-11.41-1.8-21.6-8.3-28.02-17.92-6.43-9.62-8.54-21.52-5.83-32.75-9.85-6.02-16.78-15.93-19.03-27.28-2.26-11.34.35-23.15,7.15-32.48-6.8-9.34-9.4-21.14-7.15-32.48,2.26-11.34,9.18-21.25,19.03-27.28-2.71-11.23-.6-23.13,5.83-32.75,6.43-9.62,16.61-16.12,28.02-17.92,3.15-20.01,20.62-35.02,40.9-35.02,3.27,0,6.55.39,9.76,1.17,7.49-12.25,21-19.83,35.41-19.83,8.81,0,17.22,2.75,24.36,7.95,7.14-5.2,15.54-7.95,24.36-7.95,14.4,0,27.91,7.58,35.41,19.83,3.21-.77,6.49-1.17,9.76-1.17,20.28,0,37.76,15.01,40.9,35.02,11.41,1.8,21.6,8.3,28.02,17.92,6.43,9.62,8.54,21.52,5.83,32.75,9.85,6.02,16.78,15.93,19.03,27.28,2.26,11.34-.35,23.15-7.15,32.48,6.8,9.34,9.4,21.14,7.15,32.48s-9.18,21.25-19.03,27.28c2.71,11.23.6,23.13-5.83,32.75-6.43,9.62-16.61,16.12-28.02,17.92-3.15,20.01-20.62,35.02-40.9,35.02-3.27,0-6.55-.39-9.76-1.17-7.49,12.25-21,19.83-35.41,19.83Z"/>
        <path class="cls-2" d="M753.61,93.44h0c16.28-12.23,39.58-7.6,49.94,9.93h0c1.46,2.47,4.38,3.68,7.16,2.96h0c19.72-5.07,39.47,8.13,42.34,28.29h0c.4,2.84,2.64,5.07,5.48,5.48h0c20.16,2.86,33.36,22.62,28.29,42.34h0c-.71,2.78.49,5.7,2.96,7.16h0c17.53,10.36,22.17,33.66,9.93,49.94h0c-1.72,2.29-1.72,5.45,0,7.75h0c12.23,16.28,7.6,39.58-9.93,49.94h0c-2.47,1.46-3.68,4.38-2.96,7.16h0c5.07,19.72-8.13,39.47-28.29,42.34h0c-2.84.4-5.07,2.64-5.48,5.48h0c-2.86,20.16-22.62,33.36-42.34,28.29h0c-2.78-.71-5.7.49-7.16,2.96h0c-10.36,17.53-33.66,22.17-49.94,9.93h0c-2.29-1.72-5.45-1.72-7.75,0h0c-16.28,12.23-39.58,7.6-49.94-9.93h0c-1.46-2.47-4.38-3.68-7.16-2.96h0c-19.72,5.07-39.47-8.13-42.34-28.29h0c-.4-2.84-2.64-5.07-5.48-5.48h0c-20.16-2.86-33.36-22.62-28.29-42.34h0c.71-2.78-.49-5.7-2.96-7.16h0c-17.53-10.36-22.17-33.66-9.93-49.94h0c1.72-2.29,1.72-5.45,0-7.75h0c-12.23-16.28-7.6-39.58,9.93-49.94h0c2.47-1.46,3.68-4.38,2.96-7.16h0c-5.07-19.72,8.13-39.47,28.29-42.34h0c2.84-.4,5.07-2.64,5.48-5.48h0c2.86-20.16,22.62-33.36,42.34-28.29h0c2.78.71,5.7-.49,7.16-2.96h0c10.36-17.53,33.66-22.17,49.94-9.93h0c2.29,1.72,5.45,1.72,7.75,0Z"/>
        <g>
          <path class="cls-7" d="M845.2,329.81c-14.46,0-25.66-7.48-32.49-15.79-6.54,10.36-15.89,15.79-27.33,15.79-15.16,0-25.74-6.64-32.28-20.28-.95-.18-1.89-.4-2.81-.68-6.56,14.1-17.29,20.96-32.69,20.96-12.1,0-20.89-4.39-26.72-13.38-7.33,8.78-17.29,13.38-29.13,13.38-16.89,0-28.14-8.29-34.41-25.34-5.05-13.76-7.21-33.47-7.21-65.94,0-23.19,2.51-40.68,7.66-53.49,6.79-16.88,18.22-25.43,33.96-25.43,12.53,0,22.1,4.86,28.54,14.45,7.27-9.37,16.8-14.45,27.31-14.45,15.5,0,26.84,8.26,33.72,24.54.13.3.25.59.37.9.14-.33.28-.65.42-.96,7.15-16.24,19.09-24.47,35.47-24.47,10.81,0,21.33,5.24,27.34,13.21,7.71-8.66,17.25-13.21,27.86-13.21,14.08,0,25.33,6.51,30.86,17.87,2.59,5.33,3.91,11.61,3.91,18.66,0,2.9-.2,5.94-.6,9.03-1.7,13.04-6.87,26.67-14.64,38.66,3.36,4.27,6.25,8.59,8.61,12.87,7.79,14.15,8.84,25.98,8.84,35.68-.05,5.34-.93,10.34-2.61,14.91-5.12,13.89-17.36,22.51-31.93,22.51Z"/>
          <g>
            <path class="cls-4" d="M751.18,217.45c-.38-5.52-.98-10.88-1.84-15.96-1.22-7.18-2.98-13.8-5.41-19.57-5.72-13.53-15.19-22.32-30.37-22.32-11.7,0-21.2,7.07-27.6,17.66-5.3-11.04-14.35-17.66-28.26-17.66-30.91,0-37.98,36.65-37.98,75.28,0,55.63,5.97,87.64,37.98,87.64,12.14,0,22.51-5.3,29.58-16.55,3.75,8.39,10.6,16.55,26.28,16.55,18.05,0,27.88-10.18,33.04-29.03,3.98-14.58,5.15-34.35,5.15-58.61,0-5.91-.17-11.77-.57-17.44ZM713.56,314.14c-15.01,0-18.55-8.38-20.98-18.32,4.2-11.26,5.74-21.63,3.75-40.62-.22-1.99-1.99-3.75-4.19-3.75-2.43,0-4.42,2.2-4.2,4.42,3.97,41.72-9.71,58.28-30.24,58.28-24.73,0-29.59-24.94-29.59-79.25,0-37.53,5.97-66.89,29.59-66.89,13.03,0,19.43,6.18,23.18,18.98-4.85,12.14-6.84,24.06-5.52,37.75.22,2.2,1.99,3.97,4.19,3.97,2.43,0,4.42-2.2,4.2-4.64-1.99-28.7,9.27-56.07,29.81-56.07,23.84,0,29.8,29.36,29.8,66.89,0,54.31-5.07,79.25-29.8,79.25Z"/>
            <path class="cls-2" d="M743.36,234.89c0,54.31-5.07,79.25-29.8,79.25-15.01,0-18.55-8.38-20.98-18.32,4.2-11.26,5.74-21.63,3.75-40.62-.22-1.99-1.99-3.75-4.19-3.75-2.43,0-4.42,2.2-4.2,4.42,3.97,41.72-9.71,58.28-30.24,58.28-24.73,0-29.59-24.94-29.59-79.25,0-37.53,5.97-66.89,29.59-66.89,13.03,0,19.43,6.18,23.18,18.98-4.85,12.14-6.84,24.06-5.52,37.75.22,2.2,1.99,3.97,4.19,3.97,2.43,0,4.42-2.2,4.2-4.64-1.99-28.7,9.27-56.07,29.81-56.07,23.84,0,29.8,29.36,29.8,66.89Z"/>
            <path class="cls-8" d="M694.99,194.96s4.75-20.92,20.97-19.67c16.22,1.24,21.85,51.58,14.73,36.94-9.9-20.36-22.12-22.51-35.71-17.27Z"/>
            <path class="cls-8" d="M635.99,205.12s5.68-28.5,17.76-29.77c11.17-1.18,17.98,6.54,20.27,11.11,2.29,4.58-20.19-21.56-38.03,18.66Z"/>
          </g>
          <g>
            <path class="cls-4" d="M863.68,254.83c-2.5-4.55-5.74-9.36-9.93-14.42,8.32-12.12,13.83-26.16,15.54-39.34.38-2.91.57-5.77.57-8.56,0-6.72-1.27-12.41-3.54-17.07-5.12-10.53-15.35-15.83-27.59-15.83s-21.42,6.4-28.26,15.89c-4.64-9.93-16.34-15.89-26.93-15.89-16.22,0-26.19,8.79-32.14,22.3-2.6,5.89-4.43,12.7-5.68,20.05-.81,4.78-1.38,9.81-1.76,14.98-.42,5.84-.6,11.88-.6,17.95,0,24.52,1.16,44.47,5.2,59.09,5.12,18.55,14.87,28.55,32.77,28.55,12.14,0,21.19-6.84,26.93-18.98,5.74,9.5,17.44,18.98,32.9,18.98,13.01,0,23.88-7.57,28.52-20.13,1.49-4.06,2.34-8.64,2.39-13.65,0-8.64-.75-20.05-8.39-33.92ZM841.16,314.14c-15.9,0-26.49-11.7-28.7-20.97,2.65-9.27,3.97-20.53,3.97-31.13,0-2.42-1.77-4.19-4.2-4.19-2.2,0-4.19,1.77-4.19,4.19,0,32.9-9.5,52.1-26.71,52.1-24.73,0-29.59-24.94-29.59-79.25,0-37.53,5.96-66.89,31.79-66.89,10.59,0,20.75,6.18,21.2,17-6.4,13.47-9.05,30.02-7.95,41.51.23,2.2,1.99,3.97,4.2,3.97,2.43,0,4.42-1.99,4.19-4.42-2.42-25.39,10.38-58.06,33.56-58.06,13.91,0,22.74,7.28,22.74,24.51,0,18.98-9.5,41.06-25.39,55.63-1.55,1.32-1.77,3.53-.66,5.3,1.54,2.21,4.64,2.43,6.62.44,2.2-1.99,4.42-4.2,6.4-6.62,14.13,17.43,15.23,30.69,15.23,41.5-.22,16.56-9.05,25.39-22.51,25.39Z"/>
            <path class="cls-2" d="M863.68,288.75c-.22,16.56-9.05,25.39-22.51,25.39-15.9,0-26.49-11.7-28.7-20.97,2.65-9.27,3.97-20.53,3.97-31.13,0-2.42-1.77-4.19-4.2-4.19-2.2,0-4.19,1.77-4.19,4.19,0,32.9-9.5,52.1-26.71,52.1-24.73,0-29.59-24.94-29.59-79.25,0-37.53,5.96-66.89,31.79-66.89,10.59,0,20.75,6.18,21.2,17-6.4,13.47-9.05,30.02-7.95,41.51.23,2.2,1.99,3.97,4.2,3.97,2.43,0,4.42-1.99,4.19-4.42-2.42-25.39,10.38-58.06,33.56-58.06,13.91,0,22.74,7.28,22.74,24.51,0,18.98-9.5,41.06-25.39,55.63-1.55,1.32-1.77,3.53-.66,5.3,1.54,2.21,4.64,2.43,6.62.44,2.2-1.99,4.42-4.2,6.4-6.62,14.13,17.43,15.23,30.69,15.23,41.5Z"/>
            <path class="cls-8" d="M818.18,190.18s4.73-15.85,20.97-14.89c24.86,1.46,7.24,53.03,5.66,36.84-3.12-31.91-13.04-27.19-26.63-21.94Z"/>
            <path class="cls-8" d="M759.19,205.12s5.68-28.5,17.76-29.77c11.17-1.18,17.98,6.54,20.27,11.11s-20.19-21.56-38.03,18.66Z"/>
          </g>
          <g>
            <path class="cls-4" d="M779.79,271.18c0-9.56-2.23-17.26-6.62-22.87-4.51-5.75-11.17-8.91-18.76-8.91-15.15,0-24.94,12.48-24.94,31.78s9.79,31.56,24.94,31.56c12.27,0,25.38-8.29,25.38-31.56ZM736.74,271.18c0-14.57,6.19-24.51,17.66-24.51,10.6,0,18.1,8.17,18.1,24.51s-7.5,24.28-18.1,24.28c-11.48,0-17.66-9.71-17.66-24.28Z"/>
            <path class="cls-2" d="M754.4,295.46c-11.48,0-17.66-9.71-17.66-24.28s6.19-24.51,17.66-24.51c10.6,0,18.1,8.17,18.1,24.51s-7.5,24.28-18.1,24.28Z"/>
            <path class="cls-8" d="M745.88,272.91c.02,2.57-3.88,2.91-4.52.42-.92-3.55-1.11-8.08.75-13.39,4.76-13.59,17.07-8.06,17.07-8.06,0,0-13.43.52-13.3,21.03Z"/>
          </g>
        </g>
      </g>
    </g>
    <g>
      <path class="cls-3" d="M272.44,418.44c-8.54,0-16.87-2.07-24.36-6.03-7.48,3.95-15.82,6.02-24.35,6.03-15.63,0-30.39-6.99-40.3-18.9-1.62.15-3.24.23-4.86.23-22.89,0-43.22-15.26-49.97-36.87-11.36-3.55-21.41-11-28.03-20.91-6.62-9.91-9.66-22.05-8.6-33.91-9.14-7.63-15.57-18.36-17.9-30.05-2.33-11.69-.49-24.07,5.03-34.61-5.52-10.55-7.36-22.92-5.03-34.61,2.33-11.69,8.76-22.42,17.9-30.05-1.07-11.86,1.97-23.99,8.6-33.91,6.62-9.91,16.67-17.36,28.04-20.92,6.75-21.61,27.08-36.87,49.97-36.87,1.62,0,3.24.08,4.86.23,9.92-11.91,24.67-18.89,40.3-18.89,8.54,0,16.87,2.07,24.36,6.03,7.49-3.95,15.82-6.03,24.36-6.03,15.63,0,30.38,6.99,40.3,18.89,1.62-.15,3.25-.23,4.86-.23,22.89,0,43.22,15.26,49.97,36.87,11.36,3.55,21.41,11,28.04,20.92,6.62,9.91,9.66,22.05,8.6,33.91,9.14,7.63,15.57,18.36,17.9,30.05,2.33,11.69.49,24.07-5.03,34.61,5.52,10.55,7.36,22.92,5.03,34.61-2.33,11.69-8.76,22.42-17.9,30.05,1.07,11.86-1.97,23.99-8.6,33.91-6.62,9.91-16.67,17.36-28.03,20.91-6.75,21.61-27.08,36.87-49.97,36.87-1.62,0-3.24-.08-4.86-.23-9.92,11.91-24.67,18.89-40.3,18.9,0,0,0,0,0,0Z"/>
      <g>
        <path class="cls-7" d="M272.44,411.17c-8.71,0-17.07-2.47-24.36-7.17-7.28,4.7-15.64,7.17-24.35,7.17h0c-14.74,0-28.72-7.37-37.09-19.4-2.67.49-5.38.73-8.07.73-21.08,0-39.56-15.1-44.02-35.54-11.36-2.47-21.44-9.3-27.93-19.01-6.49-9.71-8.94-21.64-6.88-33.08-9.55-6.63-16.25-16.8-18.53-28.25-2.28-11.46.02-23.41,6.31-33.19-6.29-9.78-8.59-21.74-6.31-33.19,2.28-11.46,8.98-21.62,18.53-28.25-2.07-11.44.39-23.37,6.88-33.08,6.49-9.71,16.57-16.54,27.93-19.01,4.46-20.43,22.94-35.54,44.02-35.54,2.7,0,5.4.25,8.07.73,8.37-12.03,22.35-19.4,37.09-19.4,8.71,0,17.08,2.47,24.36,7.17,7.28-4.7,15.65-7.17,24.36-7.17,14.75,0,28.72,7.37,37.09,19.4,2.67-.49,5.38-.73,8.08-.73,21.08,0,39.56,15.11,44.02,35.54,11.36,2.47,21.44,9.3,27.93,19.01,6.49,9.71,8.94,21.64,6.88,33.08,9.55,6.63,16.25,16.8,18.53,28.25s-.02,23.41-6.31,33.19c6.29,9.78,8.59,21.74,6.31,33.19-2.28,11.46-8.98,21.62-18.53,28.25,2.07,11.44-.39,23.37-6.88,33.08-6.49,9.71-16.57,16.54-27.93,19.01-4.46,20.43-22.94,35.54-44.02,35.54-2.7,0-5.4-.25-8.08-.73-8.37,12.03-22.34,19.4-37.09,19.4Z"/>
        <path class="cls-4" d="M272.44,407.53c-8.81,0-17.22-2.75-24.36-7.95-7.13,5.2-15.54,7.95-24.35,7.95-14.4,0-27.91-7.58-35.41-19.83-3.21.77-6.49,1.17-9.76,1.17-20.28,0-37.76-15.01-40.9-35.02-11.41-1.8-21.6-8.3-28.02-17.92-6.43-9.62-8.54-21.52-5.83-32.75-9.85-6.02-16.78-15.93-19.03-27.28-2.26-11.34.35-23.15,7.15-32.48-6.8-9.34-9.4-21.14-7.15-32.48,2.26-11.34,9.18-21.25,19.03-27.28-2.71-11.23-.6-23.13,5.83-32.75,6.43-9.62,16.61-16.12,28.02-17.92,3.15-20.01,20.62-35.02,40.9-35.02,3.27,0,6.55.39,9.76,1.17,7.49-12.25,21-19.83,35.41-19.83,8.81,0,17.22,2.75,24.36,7.95,7.14-5.2,15.54-7.95,24.36-7.95,14.4,0,27.91,7.58,35.41,19.83,3.21-.77,6.49-1.17,9.76-1.17,20.28,0,37.76,15.01,40.9,35.02,11.41,1.8,21.6,8.3,28.02,17.92,6.43,9.62,8.54,21.52,5.83,32.75,9.85,6.02,16.78,15.93,19.03,27.28,2.26,11.34-.35,23.15-7.15,32.48,6.8,9.34,9.4,21.14,7.15,32.48s-9.18,21.25-19.03,27.28c2.71,11.23.6,23.13-5.83,32.75-6.43,9.62-16.61,16.12-28.02,17.92-3.15,20.01-20.62,35.02-40.9,35.02-3.27,0-6.55-.39-9.76-1.17-7.49,12.25-21,19.83-35.41,19.83Z"/>
        <path class="cls-2" d="M251.96,93.44h0c16.28-12.23,39.58-7.6,49.94,9.93h0c1.46,2.47,4.38,3.68,7.16,2.96h0c19.72-5.07,39.47,8.13,42.34,28.29h0c.4,2.84,2.64,5.07,5.48,5.48h0c20.16,2.86,33.36,22.62,28.29,42.34h0c-.71,2.78.49,5.7,2.96,7.16h0c17.53,10.36,22.17,33.66,9.93,49.94h0c-1.72,2.29-1.72,5.45,0,7.75h0c12.23,16.28,7.6,39.58-9.93,49.94h0c-2.47,1.46-3.68,4.38-2.96,7.16h0c5.07,19.72-8.13,39.47-28.29,42.34h0c-2.84.4-5.07,2.64-5.48,5.48h0c-2.86,20.16-22.62,33.36-42.34,28.29h0c-2.78-.71-5.7.49-7.16,2.96h0c-10.36,17.53-33.66,22.17-49.94,9.93h0c-2.29-1.72-5.45-1.72-7.75,0h0c-16.28,12.23-39.58,7.6-49.94-9.93h0c-1.46-2.47-4.38-3.68-7.16-2.96h0c-19.72,5.07-39.47-8.13-42.34-28.29h0c-.4-2.84-2.64-5.07-5.48-5.48h0c-20.16-2.86-33.36-22.62-28.29-42.34h0c.71-2.78-.49-5.7-2.96-7.16h0c-17.53-10.36-22.17-33.66-9.93-49.94h0c1.72-2.29,1.72-5.45,0-7.75h0c-12.23-16.28-7.6-39.58,9.93-49.94h0c2.47-1.46,3.68-4.38,2.96-7.16h0c-5.07-19.72,8.13-39.47,28.29-42.34h0c2.84-.4,5.07-2.64,5.48-5.48h0c2.86-20.16,22.62-33.36,42.34-28.29h0c2.78.71,5.7-.49,7.16-2.96h0c10.36-17.53,33.66-22.17,49.94-9.93h0c2.29,1.72,5.45,1.72,7.75,0Z"/>
        <g>
          <path class="cls-7" d="M343.55,329.81c-14.46,0-25.66-7.48-32.49-15.79-6.54,10.36-15.89,15.79-27.33,15.79-15.16,0-25.74-6.64-32.28-20.28-.95-.18-1.89-.4-2.81-.68-6.56,14.1-17.29,20.96-32.69,20.96-12.1,0-20.89-4.39-26.72-13.38-7.33,8.78-17.29,13.38-29.13,13.38-16.89,0-28.14-8.29-34.41-25.34-5.05-13.76-7.21-33.47-7.21-65.94,0-23.19,2.51-40.68,7.66-53.49,6.79-16.88,18.22-25.43,33.96-25.43,12.53,0,22.1,4.86,28.54,14.45,7.27-9.37,16.8-14.45,27.31-14.45,15.5,0,26.84,8.26,33.72,24.54.13.3.25.59.37.9.14-.33.28-.65.42-.96,7.15-16.24,19.09-24.47,35.47-24.47,10.81,0,21.33,5.24,27.34,13.21,7.71-8.66,17.25-13.21,27.86-13.21,14.08,0,25.33,6.51,30.86,17.87,2.59,5.33,3.91,11.61,3.91,18.66,0,2.9-.2,5.94-.6,9.03-1.7,13.04-6.87,26.67-14.64,38.66,3.36,4.27,6.25,8.59,8.61,12.87,7.79,14.15,8.84,25.98,8.84,35.68-.05,5.34-.93,10.34-2.61,14.91-5.12,13.89-17.36,22.51-31.93,22.51Z"/>
          <g>
            <path class="cls-4" d="M249.53,217.45c-.38-5.52-.98-10.88-1.84-15.96-1.22-7.18-2.98-13.8-5.41-19.57-5.72-13.53-15.19-22.32-30.37-22.32-11.7,0-21.2,7.07-27.6,17.66-5.3-11.04-14.35-17.66-28.26-17.66-30.91,0-37.98,36.65-37.98,75.28,0,55.63,5.97,87.64,37.98,87.64,12.14,0,22.51-5.3,29.58-16.55,3.75,8.39,10.6,16.55,26.28,16.55,18.05,0,27.88-10.18,33.04-29.03,3.98-14.58,5.15-34.35,5.15-58.61,0-5.91-.17-11.77-.57-17.44ZM211.91,314.14c-15.01,0-18.55-8.38-20.98-18.32,4.2-11.26,5.74-21.63,3.75-40.62-.22-1.99-1.99-3.75-4.19-3.75-2.43,0-4.42,2.2-4.2,4.42,3.97,41.72-9.71,58.28-30.24,58.28-24.73,0-29.59-24.94-29.59-79.25,0-37.53,5.97-66.89,29.59-66.89,13.03,0,19.43,6.18,23.18,18.98-4.85,12.14-6.84,24.06-5.52,37.75.22,2.2,1.99,3.97,4.19,3.97,2.43,0,4.42-2.2,4.2-4.64-1.99-28.7,9.27-56.07,29.81-56.07,23.84,0,29.8,29.36,29.8,66.89,0,54.31-5.07,79.25-29.8,79.25Z"/>
            <path class="cls-2" d="M241.71,234.89c0,54.31-5.07,79.25-29.8,79.25-15.01,0-18.55-8.38-20.98-18.32,4.2-11.26,5.74-21.63,3.75-40.62-.22-1.99-1.99-3.75-4.19-3.75-2.43,0-4.42,2.2-4.2,4.42,3.97,41.72-9.71,58.28-30.24,58.28-24.73,0-29.59-24.94-29.59-79.25,0-37.53,5.97-66.89,29.59-66.89,13.03,0,19.43,6.18,23.18,18.98-4.85,12.14-6.84,24.06-5.52,37.75.22,2.2,1.99,3.97,4.19,3.97,2.43,0,4.42-2.2,4.2-4.64-1.99-28.7,9.27-56.07,29.81-56.07,23.84,0,29.8,29.36,29.8,66.89Z"/>
            <path class="cls-8" d="M193.34,194.96s4.75-20.92,20.97-19.67c16.22,1.24,21.85,51.58,14.73,36.94-9.9-20.36-22.12-22.51-35.71-17.27Z"/>
            <path class="cls-8" d="M134.34,205.12s5.68-28.5,17.76-29.77c11.17-1.18,17.98,6.54,20.27,11.11,2.29,4.58-20.19-21.56-38.03,18.66Z"/>
          </g>
          <g>
            <path class="cls-4" d="M362.03,254.83c-2.5-4.55-5.74-9.36-9.93-14.42,8.32-12.12,13.83-26.16,15.54-39.34.38-2.91.57-5.77.57-8.56,0-6.72-1.27-12.41-3.54-17.07-5.12-10.53-15.35-15.83-27.59-15.83s-21.42,6.4-28.26,15.89c-4.64-9.93-16.34-15.89-26.93-15.89-16.22,0-26.19,8.79-32.14,22.3-2.6,5.89-4.43,12.7-5.68,20.05-.81,4.78-1.38,9.81-1.76,14.98-.42,5.84-.6,11.88-.6,17.95,0,24.52,1.16,44.47,5.2,59.09,5.12,18.55,14.87,28.55,32.77,28.55,12.14,0,21.19-6.84,26.93-18.98,5.74,9.5,17.44,18.98,32.9,18.98,13.01,0,23.88-7.57,28.52-20.13,1.49-4.06,2.34-8.64,2.39-13.65,0-8.64-.75-20.05-8.39-33.92ZM339.51,314.14c-15.9,0-26.49-11.7-28.7-20.97,2.65-9.27,3.97-20.53,3.97-31.13,0-2.42-1.77-4.19-4.2-4.19-2.2,0-4.19,1.77-4.19,4.19,0,32.9-9.5,52.1-26.71,52.1-24.73,0-29.59-24.94-29.59-79.25,0-37.53,5.96-66.89,31.79-66.89,10.59,0,20.75,6.18,21.2,17-6.4,13.47-9.05,30.02-7.95,41.51.23,2.2,1.99,3.97,4.2,3.97,2.43,0,4.42-1.99,4.19-4.42-2.42-25.39,10.38-58.06,33.56-58.06,13.91,0,22.74,7.28,22.74,24.51,0,18.98-9.5,41.06-25.39,55.63-1.55,1.32-1.77,3.53-.66,5.3,1.54,2.21,4.64,2.43,6.62.44,2.2-1.99,4.42-4.2,6.4-6.62,14.13,17.43,15.23,30.69,15.23,41.5-.22,16.56-9.05,25.39-22.51,25.39Z"/>
            <path class="cls-2" d="M362.03,288.75c-.22,16.56-9.05,25.39-22.51,25.39-15.9,0-26.49-11.7-28.7-20.97,2.65-9.27,3.97-20.53,3.97-31.13,0-2.42-1.77-4.19-4.2-4.19-2.2,0-4.19,1.77-4.19,4.19,0,32.9-9.5,52.1-26.71,52.1-24.73,0-29.59-24.94-29.59-79.25,0-37.53,5.96-66.89,31.79-66.89,10.59,0,20.75,6.18,21.2,17-6.4,13.47-9.05,30.02-7.95,41.51.23,2.2,1.99,3.97,4.2,3.97,2.43,0,4.42-1.99,4.19-4.42-2.42-25.39,10.38-58.06,33.56-58.06,13.91,0,22.74,7.28,22.74,24.51,0,18.98-9.5,41.06-25.39,55.63-1.55,1.32-1.77,3.53-.66,5.3,1.54,2.21,4.64,2.43,6.62.44,2.2-1.99,4.42-4.2,6.4-6.62,14.13,17.43,15.23,30.69,15.23,41.5Z"/>
            <path class="cls-8" d="M316.53,190.18s4.73-15.85,20.97-14.89c24.86,1.46,7.24,53.03,5.66,36.84-3.12-31.91-13.04-27.19-26.63-21.94Z"/>
            <path class="cls-8" d="M257.54,205.12s5.68-28.5,17.76-29.77c11.17-1.18,17.98,6.54,20.27,11.11s-20.19-21.56-38.03,18.66Z"/>
          </g>
          <g>
            <path class="cls-4" d="M278.13,271.18c0-9.56-2.23-17.26-6.62-22.87-4.51-5.75-11.17-8.91-18.76-8.91-15.15,0-24.94,12.48-24.94,31.78s9.79,31.56,24.94,31.56c12.27,0,25.38-8.29,25.38-31.56ZM235.09,271.18c0-14.57,6.19-24.51,17.66-24.51,10.6,0,18.1,8.17,18.1,24.51s-7.5,24.28-18.1,24.28c-11.48,0-17.66-9.71-17.66-24.28Z"/>
            <path class="cls-2" d="M252.75,295.46c-11.48,0-17.66-9.71-17.66-24.28s6.19-24.51,17.66-24.51c10.6,0,18.1,8.17,18.1,24.51s-7.5,24.28-18.1,24.28Z"/>
            <path class="cls-8" d="M244.23,272.91c.02,2.57-3.88,2.91-4.52.42-.92-3.55-1.11-8.08.75-13.39,4.76-13.59,17.07-8.06,17.07-8.06,0,0-13.43.52-13.3,21.03Z"/>
          </g>
        </g>
      </g>
    </g>
    <g>
      <path class="cls-3" d="M774.09,922.75c-8.54,0-16.87-2.07-24.36-6.03-7.48,3.95-15.82,6.02-24.35,6.03-15.63,0-30.39-6.99-40.3-18.9-1.62.15-3.24.23-4.86.23-22.89,0-43.22-15.26-49.97-36.87-11.36-3.55-21.41-11-28.03-20.91-6.62-9.91-9.66-22.05-8.6-33.91-9.14-7.63-15.57-18.36-17.9-30.05-2.33-11.69-.49-24.07,5.03-34.61-5.52-10.55-7.36-22.92-5.03-34.61,2.33-11.69,8.76-22.42,17.9-30.05-1.07-11.86,1.97-23.99,8.6-33.91,6.62-9.91,16.67-17.36,28.04-20.92,6.75-21.61,27.08-36.87,49.97-36.87,1.62,0,3.24.08,4.86.23,9.92-11.91,24.67-18.89,40.3-18.89,8.54,0,16.87,2.07,24.36,6.03,7.49-3.95,15.82-6.03,24.36-6.03,15.63,0,30.38,6.99,40.3,18.89,1.62-.15,3.25-.23,4.86-.23,22.89,0,43.22,15.26,49.97,36.87,11.36,3.55,21.41,11,28.04,20.92,6.62,9.91,9.66,22.05,8.6,33.91,9.14,7.63,15.57,18.36,17.9,30.05,2.33,11.69.49,24.07-5.03,34.61,5.52,10.55,7.36,22.92,5.03,34.61-2.33,11.69-8.76,22.42-17.9,30.05,1.07,11.86-1.97,23.99-8.6,33.91-6.62,9.91-16.67,17.36-28.03,20.91-6.75,21.61-27.08,36.87-49.97,36.87-1.62,0-3.24-.08-4.86-.23-9.92,11.91-24.67,18.89-40.3,18.9,0,0,0,0,0,0Z"/>
      <g>
        <path class="cls-7" d="M774.09,915.47c-8.71,0-17.07-2.47-24.36-7.17-7.28,4.7-15.64,7.17-24.35,7.17h0c-14.74,0-28.72-7.37-37.09-19.4-2.67.49-5.38.73-8.07.73-21.08,0-39.56-15.1-44.02-35.54-11.36-2.47-21.44-9.3-27.93-19.01-6.49-9.71-8.94-21.64-6.88-33.08-9.55-6.63-16.25-16.8-18.53-28.25-2.28-11.46.02-23.41,6.31-33.19-6.29-9.78-8.59-21.74-6.31-33.19,2.28-11.46,8.98-21.62,18.53-28.25-2.07-11.44.39-23.37,6.88-33.08,6.49-9.71,16.57-16.54,27.93-19.01,4.46-20.43,22.94-35.54,44.02-35.54,2.7,0,5.4.25,8.07.73,8.37-12.03,22.35-19.4,37.09-19.4,8.71,0,17.08,2.47,24.36,7.17,7.28-4.7,15.65-7.17,24.36-7.17,14.75,0,28.72,7.37,37.09,19.4,2.67-.49,5.38-.73,8.08-.73,21.08,0,39.56,15.11,44.02,35.54,11.36,2.47,21.44,9.3,27.93,19.01,6.49,9.71,8.94,21.64,6.88,33.08,9.55,6.63,16.25,16.8,18.53,28.25s-.02,23.41-6.31,33.19c6.29,9.78,8.59,21.74,6.31,33.19-2.28,11.46-8.98,21.62-18.53,28.25,2.07,11.44-.39,23.37-6.88,33.08-6.49,9.71-16.57,16.54-27.93,19.01-4.46,20.43-22.94,35.54-44.02,35.54-2.7,0-5.4-.25-8.08-.73-8.37,12.03-22.34,19.4-37.09,19.4Z"/>
        <path class="cls-4" d="M774.09,911.84c-8.81,0-17.22-2.75-24.36-7.95-7.13,5.2-15.54,7.95-24.35,7.95-14.4,0-27.91-7.58-35.41-19.83-3.21.77-6.49,1.17-9.76,1.17-20.28,0-37.76-15.01-40.9-35.02-11.41-1.8-21.6-8.3-28.02-17.92-6.43-9.62-8.54-21.52-5.83-32.75-9.85-6.02-16.78-15.93-19.03-27.28-2.26-11.34.35-23.15,7.15-32.48-6.8-9.34-9.4-21.14-7.15-32.48,2.26-11.34,9.18-21.25,19.03-27.28-2.71-11.23-.6-23.13,5.83-32.75,6.43-9.62,16.61-16.12,28.02-17.92,3.15-20.01,20.62-35.02,40.9-35.02,3.27,0,6.55.39,9.76,1.17,7.49-12.25,21-19.83,35.41-19.83,8.81,0,17.22,2.75,24.36,7.95,7.14-5.2,15.54-7.95,24.36-7.95,14.4,0,27.91,7.58,35.41,19.83,3.21-.77,6.49-1.17,9.76-1.17,20.28,0,37.76,15.01,40.9,35.02,11.41,1.8,21.6,8.3,28.02,17.92,6.43,9.62,8.54,21.52,5.83,32.75,9.85,6.02,16.78,15.93,19.03,27.28,2.26,11.34-.35,23.15-7.15,32.48,6.8,9.34,9.4,21.14,7.15,32.48s-9.18,21.25-19.03,27.28c2.71,11.23.6,23.13-5.83,32.75-6.43,9.62-16.61,16.12-28.02,17.92-3.15,20.01-20.62,35.02-40.9,35.02-3.27,0-6.55-.39-9.76-1.17-7.49,12.25-21,19.83-35.41,19.83Z"/>
        <path class="cls-2" d="M753.61,597.75h0c16.28-12.23,39.58-7.6,49.94,9.93h0c1.46,2.47,4.38,3.68,7.16,2.96h0c19.72-5.07,39.47,8.13,42.34,28.29h0c.4,2.84,2.64,5.07,5.48,5.48h0c20.16,2.86,33.36,22.62,28.29,42.34h0c-.71,2.78.49,5.7,2.96,7.16h0c17.53,10.36,22.17,33.66,9.93,49.94h0c-1.72,2.29-1.72,5.45,0,7.75h0c12.23,16.28,7.6,39.58-9.93,49.94h0c-2.47,1.46-3.68,4.38-2.96,7.16h0c5.07,19.72-8.13,39.47-28.29,42.34h0c-2.84.4-5.07,2.64-5.48,5.48h0c-2.86,20.16-22.62,33.36-42.34,28.29h0c-2.78-.71-5.7.49-7.16,2.96h0c-10.36,17.53-33.66,22.17-49.94,9.93h0c-2.29-1.72-5.45-1.72-7.75,0h0c-16.28,12.23-39.58,7.6-49.94-9.93h0c-1.46-2.47-4.38-3.68-7.16-2.96h0c-19.72,5.07-39.47-8.13-42.34-28.29h0c-.4-2.84-2.64-5.07-5.48-5.48h0c-20.16-2.86-33.36-22.62-28.29-42.34h0c.71-2.78-.49-5.7-2.96-7.16h0c-17.53-10.36-22.17-33.66-9.93-49.94h0c1.72-2.29,1.72-5.45,0-7.75h0c-12.23-16.28-7.6-39.58,9.93-49.94h0c2.47-1.46,3.68-4.38,2.96-7.16h0c-5.07-19.72,8.13-39.47,28.29-42.34h0c2.84-.4,5.07-2.64,5.48-5.48h0c2.86-20.16,22.62-33.36,42.34-28.29h0c2.78.71,5.7-.49,7.16-2.96h0c10.36-17.53,33.66-22.17,49.94-9.93h0c2.29,1.72,5.45,1.72,7.75,0Z"/>
        <g>
          <path class="cls-7" d="M845.2,834.12c-14.46,0-25.66-7.48-32.49-15.79-6.54,10.36-15.89,15.79-27.33,15.79-15.16,0-25.74-6.64-32.28-20.28-.95-.18-1.89-.4-2.81-.68-6.56,14.1-17.29,20.96-32.69,20.96-12.1,0-20.89-4.39-26.72-13.38-7.33,8.78-17.29,13.38-29.13,13.38-16.89,0-28.14-8.29-34.41-25.34-5.05-13.76-7.21-33.47-7.21-65.94,0-23.19,2.51-40.68,7.66-53.49,6.79-16.88,18.22-25.43,33.96-25.43,12.53,0,22.1,4.86,28.54,14.45,7.27-9.37,16.8-14.45,27.31-14.45,15.5,0,26.84,8.26,33.72,24.54.13.3.25.59.37.9.14-.33.28-.65.42-.96,7.15-16.24,19.09-24.47,35.47-24.47,10.81,0,21.33,5.24,27.34,13.21,7.71-8.66,17.25-13.21,27.86-13.21,14.08,0,25.33,6.51,30.86,17.87,2.59,5.33,3.91,11.61,3.91,18.66,0,2.9-.2,5.94-.6,9.03-1.7,13.04-6.87,26.67-14.64,38.66,3.36,4.27,6.25,8.59,8.61,12.87,7.79,14.15,8.84,25.98,8.84,35.68-.05,5.34-.93,10.34-2.61,14.91-5.12,13.89-17.36,22.51-31.93,22.51Z"/>
          <g>
            <path class="cls-4" d="M751.18,721.76c-.38-5.52-.98-10.88-1.84-15.96-1.22-7.18-2.98-13.8-5.41-19.57-5.72-13.53-15.19-22.32-30.37-22.32-11.7,0-21.2,7.07-27.6,17.66-5.3-11.04-14.35-17.66-28.26-17.66-30.91,0-37.98,36.65-37.98,75.28,0,55.63,5.97,87.64,37.98,87.64,12.14,0,22.51-5.3,29.58-16.55,3.75,8.39,10.6,16.55,26.28,16.55,18.05,0,27.88-10.18,33.04-29.03,3.98-14.58,5.15-34.35,5.15-58.61,0-5.91-.17-11.77-.57-17.44ZM713.56,818.45c-15.01,0-18.55-8.38-20.98-18.32,4.2-11.26,5.74-21.63,3.75-40.62-.22-1.99-1.99-3.75-4.19-3.75-2.43,0-4.42,2.2-4.2,4.42,3.97,41.72-9.71,58.28-30.24,58.28-24.73,0-29.59-24.94-29.59-79.25,0-37.53,5.97-66.89,29.59-66.89,13.03,0,19.43,6.18,23.18,18.98-4.85,12.14-6.84,24.06-5.52,37.75.22,2.2,1.99,3.97,4.19,3.97,2.43,0,4.42-2.2,4.2-4.64-1.99-28.7,9.27-56.07,29.81-56.07,23.84,0,29.8,29.36,29.8,66.89,0,54.31-5.07,79.25-29.8,79.25Z"/>
            <path class="cls-2" d="M743.36,739.2c0,54.31-5.07,79.25-29.8,79.25-15.01,0-18.55-8.38-20.98-18.32,4.2-11.26,5.74-21.63,3.75-40.62-.22-1.99-1.99-3.75-4.19-3.75-2.43,0-4.42,2.2-4.2,4.42,3.97,41.72-9.71,58.28-30.24,58.28-24.73,0-29.59-24.94-29.59-79.25,0-37.53,5.97-66.89,29.59-66.89,13.03,0,19.43,6.18,23.18,18.98-4.85,12.14-6.84,24.06-5.52,37.75.22,2.2,1.99,3.97,4.19,3.97,2.43,0,4.42-2.2,4.2-4.64-1.99-28.7,9.27-56.07,29.81-56.07,23.84,0,29.8,29.36,29.8,66.89Z"/>
            <path class="cls-8" d="M694.99,699.27s4.75-20.92,20.97-19.67c16.22,1.24,21.85,51.58,14.73,36.94-9.9-20.36-22.12-22.51-35.71-17.27Z"/>
            <path class="cls-8" d="M635.99,709.43s5.68-28.5,17.76-29.77c11.17-1.18,17.98,6.54,20.27,11.11,2.29,4.58-20.19-21.56-38.03,18.66Z"/>
          </g>
          <g>
            <path class="cls-4" d="M863.68,759.14c-2.5-4.55-5.74-9.36-9.93-14.42,8.32-12.12,13.83-26.16,15.54-39.34.38-2.91.57-5.77.57-8.56,0-6.72-1.27-12.41-3.54-17.07-5.12-10.53-15.35-15.83-27.59-15.83s-21.42,6.4-28.26,15.89c-4.64-9.93-16.34-15.89-26.93-15.89-16.22,0-26.19,8.79-32.14,22.3-2.6,5.89-4.43,12.7-5.68,20.05-.81,4.78-1.38,9.81-1.76,14.98-.42,5.84-.6,11.88-.6,17.95,0,24.52,1.16,44.47,5.2,59.09,5.12,18.55,14.87,28.55,32.77,28.55,12.14,0,21.19-6.84,26.93-18.98,5.74,9.5,17.44,18.98,32.9,18.98,13.01,0,23.88-7.57,28.52-20.13,1.49-4.06,2.34-8.64,2.39-13.65,0-8.64-.75-20.05-8.39-33.92ZM841.16,818.45c-15.9,0-26.49-11.7-28.7-20.97,2.65-9.27,3.97-20.53,3.97-31.13,0-2.42-1.77-4.19-4.2-4.19-2.2,0-4.19,1.77-4.19,4.19,0,32.9-9.5,52.1-26.71,52.1-24.73,0-29.59-24.94-29.59-79.25,0-37.53,5.96-66.89,31.79-66.89,10.59,0,20.75,6.18,21.2,17-6.4,13.47-9.05,30.02-7.95,41.51.23,2.2,1.99,3.97,4.2,3.97,2.43,0,4.42-1.99,4.19-4.42-2.42-25.39,10.38-58.06,33.56-58.06,13.91,0,22.74,7.28,22.74,24.51,0,18.98-9.5,41.06-25.39,55.63-1.55,1.32-1.77,3.53-.66,5.3,1.54,2.21,4.64,2.43,6.62.44,2.2-1.99,4.42-4.2,6.4-6.62,14.13,17.43,15.23,30.69,15.23,41.5-.22,16.56-9.05,25.39-22.51,25.39Z"/>
            <path class="cls-2" d="M863.68,793.06c-.22,16.56-9.05,25.39-22.51,25.39-15.9,0-26.49-11.7-28.7-20.97,2.65-9.27,3.97-20.53,3.97-31.13,0-2.42-1.77-4.19-4.2-4.19-2.2,0-4.19,1.77-4.19,4.19,0,32.9-9.5,52.1-26.71,52.1-24.73,0-29.59-24.94-29.59-79.25,0-37.53,5.96-66.89,31.79-66.89,10.59,0,20.75,6.18,21.2,17-6.4,13.47-9.05,30.02-7.95,41.51.23,2.2,1.99,3.97,4.2,3.97,2.43,0,4.42-1.99,4.19-4.42-2.42-25.39,10.38-58.06,33.56-58.06,13.91,0,22.74,7.28,22.74,24.51,0,18.98-9.5,41.06-25.39,55.63-1.55,1.32-1.77,3.53-.66,5.3,1.54,2.21,4.64,2.43,6.62.44,2.2-1.99,4.42-4.2,6.4-6.62,14.13,17.43,15.23,30.69,15.23,41.5Z"/>
            <path class="cls-8" d="M818.18,694.48s4.73-15.85,20.97-14.89c24.86,1.46,7.24,53.03,5.66,36.84-3.12-31.91-13.04-27.19-26.63-21.94Z"/>
            <path class="cls-8" d="M759.19,709.43s5.68-28.5,17.76-29.77c11.17-1.18,17.98,6.54,20.27,11.11s-20.19-21.56-38.03,18.66Z"/>
          </g>
          <g>
            <path class="cls-4" d="M779.79,775.48c0-9.56-2.23-17.26-6.62-22.87-4.51-5.75-11.17-8.91-18.76-8.91-15.15,0-24.94,12.48-24.94,31.78s9.79,31.56,24.94,31.56c12.27,0,25.38-8.29,25.38-31.56ZM736.74,775.48c0-14.57,6.19-24.51,17.66-24.51,10.6,0,18.1,8.17,18.1,24.51s-7.5,24.28-18.1,24.28c-11.48,0-17.66-9.71-17.66-24.28Z"/>
            <path class="cls-2" d="M754.4,799.77c-11.48,0-17.66-9.71-17.66-24.28s6.19-24.51,17.66-24.51c10.6,0,18.1,8.17,18.1,24.51s-7.5,24.28-18.1,24.28Z"/>
            <path class="cls-8" d="M745.88,777.22c.02,2.57-3.88,2.91-4.52.42-.92-3.55-1.11-8.08.75-13.39,4.76-13.59,17.07-8.06,17.07-8.06,0,0-13.43.52-13.3,21.03Z"/>
          </g>
        </g>
      </g>
    </g>
    <g>
      <path class="cls-3" d="M272.44,922.75c-8.54,0-16.87-2.07-24.36-6.03-7.48,3.95-15.82,6.02-24.35,6.03-15.63,0-30.39-6.99-40.3-18.9-1.62.15-3.24.23-4.86.23-22.89,0-43.22-15.26-49.97-36.87-11.36-3.55-21.41-11-28.03-20.91-6.62-9.91-9.66-22.05-8.6-33.91-9.14-7.63-15.57-18.36-17.9-30.05-2.33-11.69-.49-24.07,5.03-34.61-5.52-10.55-7.36-22.92-5.03-34.61,2.33-11.69,8.76-22.42,17.9-30.05-1.07-11.86,1.97-23.99,8.6-33.91,6.62-9.91,16.67-17.36,28.04-20.92,6.75-21.61,27.08-36.87,49.97-36.87,1.62,0,3.24.08,4.86.23,9.92-11.91,24.67-18.89,40.3-18.89,8.54,0,16.87,2.07,24.36,6.03,7.49-3.95,15.82-6.03,24.36-6.03,15.63,0,30.38,6.99,40.3,18.89,1.62-.15,3.25-.23,4.86-.23,22.89,0,43.22,15.26,49.97,36.87,11.36,3.55,21.41,11,28.04,20.92,6.62,9.91,9.66,22.05,8.6,33.91,9.14,7.63,15.57,18.36,17.9,30.05,2.33,11.69.49,24.07-5.03,34.61,5.52,10.55,7.36,22.92,5.03,34.61-2.33,11.69-8.76,22.42-17.9,30.05,1.07,11.86-1.97,23.99-8.6,33.91-6.62,9.91-16.67,17.36-28.03,20.91-6.75,21.61-27.08,36.87-49.97,36.87-1.62,0-3.24-.08-4.86-.23-9.92,11.91-24.67,18.89-40.3,18.9,0,0,0,0,0,0Z"/>
      <g>
        <path class="cls-7" d="M272.44,915.47c-8.71,0-17.07-2.47-24.36-7.17-7.28,4.7-15.64,7.17-24.35,7.17h0c-14.74,0-28.72-7.37-37.09-19.4-2.67.49-5.38.73-8.07.73-21.08,0-39.56-15.1-44.02-35.54-11.36-2.47-21.44-9.3-27.93-19.01-6.49-9.71-8.94-21.64-6.88-33.08-9.55-6.63-16.25-16.8-18.53-28.25-2.28-11.46.02-23.41,6.31-33.19-6.29-9.78-8.59-21.74-6.31-33.19,2.28-11.46,8.98-21.62,18.53-28.25-2.07-11.44.39-23.37,6.88-33.08,6.49-9.71,16.57-16.54,27.93-19.01,4.46-20.43,22.94-35.54,44.02-35.54,2.7,0,5.4.25,8.07.73,8.37-12.03,22.35-19.4,37.09-19.4,8.71,0,17.08,2.47,24.36,7.17,7.28-4.7,15.65-7.17,24.36-7.17,14.75,0,28.72,7.37,37.09,19.4,2.67-.49,5.38-.73,8.08-.73,21.08,0,39.56,15.11,44.02,35.54,11.36,2.47,21.44,9.3,27.93,19.01,6.49,9.71,8.94,21.64,6.88,33.08,9.55,6.63,16.25,16.8,18.53,28.25s-.02,23.41-6.31,33.19c6.29,9.78,8.59,21.74,6.31,33.19-2.28,11.46-8.98,21.62-18.53,28.25,2.07,11.44-.39,23.37-6.88,33.08-6.49,9.71-16.57,16.54-27.93,19.01-4.46,20.43-22.94,35.54-44.02,35.54-2.7,0-5.4-.25-8.08-.73-8.37,12.03-22.34,19.4-37.09,19.4Z"/>
        <path class="cls-4" d="M272.44,911.84c-8.81,0-17.22-2.75-24.36-7.95-7.13,5.2-15.54,7.95-24.35,7.95-14.4,0-27.91-7.58-35.41-19.83-3.21.77-6.49,1.17-9.76,1.17-20.28,0-37.76-15.01-40.9-35.02-11.41-1.8-21.6-8.3-28.02-17.92-6.43-9.62-8.54-21.52-5.83-32.75-9.85-6.02-16.78-15.93-19.03-27.28-2.26-11.34.35-23.15,7.15-32.48-6.8-9.34-9.4-21.14-7.15-32.48,2.26-11.34,9.18-21.25,19.03-27.28-2.71-11.23-.6-23.13,5.83-32.75,6.43-9.62,16.61-16.12,28.02-17.92,3.15-20.01,20.62-35.02,40.9-35.02,3.27,0,6.55.39,9.76,1.17,7.49-12.25,21-19.83,35.41-19.83,8.81,0,17.22,2.75,24.36,7.95,7.14-5.2,15.54-7.95,24.36-7.95,14.4,0,27.91,7.58,35.41,19.83,3.21-.77,6.49-1.17,9.76-1.17,20.28,0,37.76,15.01,40.9,35.02,11.41,1.8,21.6,8.3,28.02,17.92,6.43,9.62,8.54,21.52,5.83,32.75,9.85,6.02,16.78,15.93,19.03,27.28,2.26,11.34-.35,23.15-7.15,32.48,6.8,9.34,9.4,21.14,7.15,32.48s-9.18,21.25-19.03,27.28c2.71,11.23.6,23.13-5.83,32.75-6.43,9.62-16.61,16.12-28.02,17.92-3.15,20.01-20.62,35.02-40.9,35.02-3.27,0-6.55-.39-9.76-1.17-7.49,12.25-21,19.83-35.41,19.83Z"/>
        <path class="cls-2" d="M251.96,597.75h0c16.28-12.23,39.58-7.6,49.94,9.93h0c1.46,2.47,4.38,3.68,7.16,2.96h0c19.72-5.07,39.47,8.13,42.34,28.29h0c.4,2.84,2.64,5.07,5.48,5.48h0c20.16,2.86,33.36,22.62,28.29,42.34h0c-.71,2.78.49,5.7,2.96,7.16h0c17.53,10.36,22.17,33.66,9.93,49.94h0c-1.72,2.29-1.72,5.45,0,7.75h0c12.23,16.28,7.6,39.58-9.93,49.94h0c-2.47,1.46-3.68,4.38-2.96,7.16h0c5.07,19.72-8.13,39.47-28.29,42.34h0c-2.84.4-5.07,2.64-5.48,5.48h0c-2.86,20.16-22.62,33.36-42.34,28.29h0c-2.78-.71-5.7.49-7.16,2.96h0c-10.36,17.53-33.66,22.17-49.94,9.93h0c-2.29-1.72-5.45-1.72-7.75,0h0c-16.28,12.23-39.58,7.6-49.94-9.93h0c-1.46-2.47-4.38-3.68-7.16-2.96h0c-19.72,5.07-39.47-8.13-42.34-28.29h0c-.4-2.84-2.64-5.07-5.48-5.48h0c-20.16-2.86-33.36-22.62-28.29-42.34h0c.71-2.78-.49-5.7-2.96-7.16h0c-17.53-10.36-22.17-33.66-9.93-49.94h0c1.72-2.29,1.72-5.45,0-7.75h0c-12.23-16.28-7.6-39.58,9.93-49.94h0c2.47-1.46,3.68-4.38,2.96-7.16h0c-5.07-19.72,8.13-39.47,28.29-42.34h0c2.84-.4,5.07-2.64,5.48-5.48h0c2.86-20.16,22.62-33.36,42.34-28.29h0c2.78.71,5.7-.49,7.16-2.96h0c10.36-17.53,33.66-22.17,49.94-9.93h0c2.29,1.72,5.45,1.72,7.75,0Z"/>
        <g>
          <path class="cls-7" d="M343.55,834.12c-14.46,0-25.66-7.48-32.49-15.79-6.54,10.36-15.89,15.79-27.33,15.79-15.16,0-25.74-6.64-32.28-20.28-.95-.18-1.89-.4-2.81-.68-6.56,14.1-17.29,20.96-32.69,20.96-12.1,0-20.89-4.39-26.72-13.38-7.33,8.78-17.29,13.38-29.13,13.38-16.89,0-28.14-8.29-34.41-25.34-5.05-13.76-7.21-33.47-7.21-65.94,0-23.19,2.51-40.68,7.66-53.49,6.79-16.88,18.22-25.43,33.96-25.43,12.53,0,22.1,4.86,28.54,14.45,7.27-9.37,16.8-14.45,27.31-14.45,15.5,0,26.84,8.26,33.72,24.54.13.3.25.59.37.9.14-.33.28-.65.42-.96,7.15-16.24,19.09-24.47,35.47-24.47,10.81,0,21.33,5.24,27.34,13.21,7.71-8.66,17.25-13.21,27.86-13.21,14.08,0,25.33,6.51,30.86,17.87,2.59,5.33,3.91,11.61,3.91,18.66,0,2.9-.2,5.94-.6,9.03-1.7,13.04-6.87,26.67-14.64,38.66,3.36,4.27,6.25,8.59,8.61,12.87,7.79,14.15,8.84,25.98,8.84,35.68-.05,5.34-.93,10.34-2.61,14.91-5.12,13.89-17.36,22.51-31.93,22.51Z"/>
          <g>
            <path class="cls-4" d="M249.53,721.76c-.38-5.52-.98-10.88-1.84-15.96-1.22-7.18-2.98-13.8-5.41-19.57-5.72-13.53-15.19-22.32-30.37-22.32-11.7,0-21.2,7.07-27.6,17.66-5.3-11.04-14.35-17.66-28.26-17.66-30.91,0-37.98,36.65-37.98,75.28,0,55.63,5.97,87.64,37.98,87.64,12.14,0,22.51-5.3,29.58-16.55,3.75,8.39,10.6,16.55,26.28,16.55,18.05,0,27.88-10.18,33.04-29.03,3.98-14.58,5.15-34.35,5.15-58.61,0-5.91-.17-11.77-.57-17.44ZM211.91,818.45c-15.01,0-18.55-8.38-20.98-18.32,4.2-11.26,5.74-21.63,3.75-40.62-.22-1.99-1.99-3.75-4.19-3.75-2.43,0-4.42,2.2-4.2,4.42,3.97,41.72-9.71,58.28-30.24,58.28-24.73,0-29.59-24.94-29.59-79.25,0-37.53,5.97-66.89,29.59-66.89,13.03,0,19.43,6.18,23.18,18.98-4.85,12.14-6.84,24.06-5.52,37.75.22,2.2,1.99,3.97,4.19,3.97,2.43,0,4.42-2.2,4.2-4.64-1.99-28.7,9.27-56.07,29.81-56.07,23.84,0,29.8,29.36,29.8,66.89,0,54.31-5.07,79.25-29.8,79.25Z"/>
            <path class="cls-2" d="M241.71,739.2c0,54.31-5.07,79.25-29.8,79.25-15.01,0-18.55-8.38-20.98-18.32,4.2-11.26,5.74-21.63,3.75-40.62-.22-1.99-1.99-3.75-4.19-3.75-2.43,0-4.42,2.2-4.2,4.42,3.97,41.72-9.71,58.28-30.24,58.28-24.73,0-29.59-24.94-29.59-79.25,0-37.53,5.97-66.89,29.59-66.89,13.03,0,19.43,6.18,23.18,18.98-4.85,12.14-6.84,24.06-5.52,37.75.22,2.2,1.99,3.97,4.19,3.97,2.43,0,4.42-2.2,4.2-4.64-1.99-28.7,9.27-56.07,29.81-56.07,23.84,0,29.8,29.36,29.8,66.89Z"/>
            <path class="cls-8" d="M193.34,699.27s4.75-20.92,20.97-19.67c16.22,1.24,21.85,51.58,14.73,36.94-9.9-20.36-22.12-22.51-35.71-17.27Z"/>
            <path class="cls-8" d="M134.34,709.43s5.68-28.5,17.76-29.77c11.17-1.18,17.98,6.54,20.27,11.11,2.29,4.58-20.19-21.56-38.03,18.66Z"/>
          </g>
          <g>
            <path class="cls-4" d="M362.03,759.14c-2.5-4.55-5.74-9.36-9.93-14.42,8.32-12.12,13.83-26.16,15.54-39.34.38-2.91.57-5.77.57-8.56,0-6.72-1.27-12.41-3.54-17.07-5.12-10.53-15.35-15.83-27.59-15.83s-21.42,6.4-28.26,15.89c-4.64-9.93-16.34-15.89-26.93-15.89-16.22,0-26.19,8.79-32.14,22.3-2.6,5.89-4.43,12.7-5.68,20.05-.81,4.78-1.38,9.81-1.76,14.98-.42,5.84-.6,11.88-.6,17.95,0,24.52,1.16,44.47,5.2,59.09,5.12,18.55,14.87,28.55,32.77,28.55,12.14,0,21.19-6.84,26.93-18.98,5.74,9.5,17.44,18.98,32.9,18.98,13.01,0,23.88-7.57,28.52-20.13,1.49-4.06,2.34-8.64,2.39-13.65,0-8.64-.75-20.05-8.39-33.92ZM339.51,818.45c-15.9,0-26.49-11.7-28.7-20.97,2.65-9.27,3.97-20.53,3.97-31.13,0-2.42-1.77-4.19-4.2-4.19-2.2,0-4.19,1.77-4.19,4.19,0,32.9-9.5,52.1-26.71,52.1-24.73,0-29.59-24.94-29.59-79.25,0-37.53,5.96-66.89,31.79-66.89,10.59,0,20.75,6.18,21.2,17-6.4,13.47-9.05,30.02-7.95,41.51.23,2.2,1.99,3.97,4.2,3.97,2.43,0,4.42-1.99,4.19-4.42-2.42-25.39,10.38-58.06,33.56-58.06,13.91,0,22.74,7.28,22.74,24.51,0,18.98-9.5,41.06-25.39,55.63-1.55,1.32-1.77,3.53-.66,5.3,1.54,2.21,4.64,2.43,6.62.44,2.2-1.99,4.42-4.2,6.4-6.62,14.13,17.43,15.23,30.69,15.23,41.5-.22,16.56-9.05,25.39-22.51,25.39Z"/>
            <path class="cls-2" d="M362.03,793.06c-.22,16.56-9.05,25.39-22.51,25.39-15.9,0-26.49-11.7-28.7-20.97,2.65-9.27,3.97-20.53,3.97-31.13,0-2.42-1.77-4.19-4.2-4.19-2.2,0-4.19,1.77-4.19,4.19,0,32.9-9.5,52.1-26.71,52.1-24.73,0-29.59-24.94-29.59-79.25,0-37.53,5.96-66.89,31.79-66.89,10.59,0,20.75,6.18,21.2,17-6.4,13.47-9.05,30.02-7.95,41.51.23,2.2,1.99,3.97,4.2,3.97,2.43,0,4.42-1.99,4.19-4.42-2.42-25.39,10.38-58.06,33.56-58.06,13.91,0,22.74,7.28,22.74,24.51,0,18.98-9.5,41.06-25.39,55.63-1.55,1.32-1.77,3.53-.66,5.3,1.54,2.21,4.64,2.43,6.62.44,2.2-1.99,4.42-4.2,6.4-6.62,14.13,17.43,15.23,30.69,15.23,41.5Z"/>
            <path class="cls-8" d="M316.53,694.48s4.73-15.85,20.97-14.89c24.86,1.46,7.24,53.03,5.66,36.84-3.12-31.91-13.04-27.19-26.63-21.94Z"/>
            <path class="cls-8" d="M257.54,709.43s5.68-28.5,17.76-29.77c11.17-1.18,17.98,6.54,20.27,11.11s-20.19-21.56-38.03,18.66Z"/>
          </g>
          <g>
            <path class="cls-4" d="M278.13,775.48c0-9.56-2.23-17.26-6.62-22.87-4.51-5.75-11.17-8.91-18.76-8.91-15.15,0-24.94,12.48-24.94,31.78s9.79,31.56,24.94,31.56c12.27,0,25.38-8.29,25.38-31.56ZM235.09,775.48c0-14.57,6.19-24.51,17.66-24.51,10.6,0,18.1,8.17,18.1,24.51s-7.5,24.28-18.1,24.28c-11.48,0-17.66-9.71-17.66-24.28Z"/>
            <path class="cls-2" d="M252.75,799.77c-11.48,0-17.66-9.71-17.66-24.28s6.19-24.51,17.66-24.51c10.6,0,18.1,8.17,18.1,24.51s-7.5,24.28-18.1,24.28Z"/>
            <path class="cls-8" d="M244.23,777.22c.02,2.57-3.88,2.91-4.52.42-.92-3.55-1.11-8.08.75-13.39,4.76-13.59,17.07-8.06,17.07-8.06,0,0-13.43.52-13.3,21.03Z"/>
          </g>
        </g>
      </g>
    </g>
  </g>
</svg>