<?xml version="1.0" encoding="UTF-8"?>
<svg xmlns="http://www.w3.org/2000/svg" xmlns:xlink="http://www.w3.org/1999/xlink" viewBox="0 0 1000 1000">
  <defs>
    <style>
      .cls-1 {
        fill: #fdfefe;
      }

      .cls-2 {
        fill: #231f20;
      }

      .cls-3 {
        fill: none;
      }

      .cls-4 {
        clip-path: url(#clippath-1);
      }

      .cls-5 {
        fill: #00abe6;
      }

      .cls-6 {
        clip-path: url(#clippath);
      }
    </style>
    <clipPath id="clippath">
      <path class="cls-3" d="M2532.33,713.13v286.88h-1500v-288.75c5.63-1.88,10.6-6.17,15.92-8.93,60.22-31.25,140.42-15.29,184.43,36.02,1.37.35,10.32-6.21,12.78-7.56,46.08-25.39,100.34-24.04,143.42,6.9,2.97,2.13,16.82,14.85,17.98,14.86,2.23,0,10.31-11.37,12.62-13.66,48.24-48.01,125.82-52.17,178.6-8.84,2.94,2.41,16.58,16.8,17.81,16.83s19.25-8.4,23.2-9.62c16.66-5.14,35.46-6.74,52.8-5.4,5.22.41,10.64,1.75,15.79,2.63,22.19-23.96,51.66-42.24,84.6-46.53,53.14-6.92,105.04,10.33,140.64,50.36,34.57-23.27,75.13-31.63,115.85-20.22,22.56,6.32,41.27,18.93,58.4,34.48,1.8-.02,5.85-6.75,7.47-8.51,58.12-62.78,155.22-58,206.41,10.25,33.58-12.17,70.88-10.71,103.15,4.62,1.71.16,10.67-10.04,12.98-12.02,27.02-23.05,59.39-34.5,95.13-33.78Z"/>
    </clipPath>
    <clipPath id="clippath-1">
      <path class="cls-3" d="M2532.33-306.88V-20h-1500v-288.75c5.63-1.88,10.6-6.17,15.92-8.93,60.22-31.25,140.42-15.29,184.43,36.02,1.37.35,10.32-6.21,12.78-7.56,46.08-25.39,100.34-24.04,143.42,6.9,2.97,2.13,16.82,14.85,17.98,14.86,2.23,0,10.31-11.37,12.62-13.66,48.24-48.01,125.82-52.17,178.6-8.84,2.94,2.41,16.58,16.8,17.81,16.83s19.25-8.4,23.2-9.62c16.66-5.14,35.46-6.74,52.8-5.4,5.22.41,10.64,1.75,15.79,2.63,22.19-23.96,51.66-42.24,84.6-46.53,53.14-6.92,105.04,10.33,140.64,50.36,34.57-23.27,75.13-31.63,115.85-20.22,22.56,6.32,41.27,18.93,58.4,34.48,1.8-.02,5.85-6.75,7.47-8.51,58.12-62.78,155.22-58,206.41,10.25,33.58-12.17,70.88-10.71,103.15,4.62,1.71.16,10.67-10.04,12.98-12.02,27.02-23.05,59.39-34.5,95.13-33.78Z"/>
    </clipPath>
  </defs>
  <g id="BG">
    <g class="cls-6">
      <g>
        <path class="cls-5" d="M1017.61,1004.25c0,3.52-2.25,7.05-6.28,7.83-.4.07-.82.13-1.25.15.64,1.24.93,2.49.93,3.68,0,3.87-3.03,7.14-6.69,7.78-1.96.35-4.1-.07-6.06-1.55-.93,4.1-4.32,6.15-7.71,6.15s-6.78-2.05-7.71-6.15c-1.53,1.16-3.17,1.66-4.76,1.66-.44,0-.88-.04-1.3-.12-4.78-.83-8.49-6.16-5.76-11.46-4.81-.24-7.54-4.11-7.54-7.98,0-2.91,1.53-5.82,4.85-7.21-1.8-1.67-2.58-3.71-2.58-5.71,0-4.85,4.59-9.42,10.29-7.65-.05-.38-.07-.75-.07-1.11,0-7.59,10.21-10.93,14.57-4.17,4.56-7.08,15.55-3.08,14.49,5.27.86-.26,1.69-.39,2.48-.39,6.67,0,10.75,8.64,5.23,13.74,2.98,1.25,4.53,3.73,4.8,6.33.03.29.05.59.05.89Z"/>
        <path class="cls-5" d="M1030.76,926.65h0c2.24,6.05,7.01,10.82,13.06,13.06h0c6.69,2.47,6.69,11.93,0,14.4h0c-6.05,2.24-10.82,7.01-13.06,13.06h0c-2.47,6.69-11.93,6.69-14.4,0h0c-2.24-6.05-7.01-10.82-13.06-13.06h0c-6.69-2.47-6.69-11.93,0-14.4h0c6.05-2.24,10.82-7.01,13.06-13.06h0c2.47-6.69,11.93-6.69,14.4,0Z"/>
        <path class="cls-5" d="M984.45,885.03l-13.84,23.97c-2.78,4.82.7,10.85,6.26,10.85h27.68c5.57,0,9.05-6.03,6.26-10.85l-13.84-23.97c-2.78-4.82-9.74-4.82-12.53,0Z"/>
        <path class="cls-5" d="M1002.44,833.33c0,1.55-.99,3.1-2.76,3.44-.17.03-.36.06-.55.07.28.55.41,1.1.41,1.62,0,1.7-1.33,3.14-2.94,3.42-.86.15-1.8-.03-2.66-.68-.41,1.8-1.9,2.7-3.39,2.7s-2.98-.9-3.39-2.7c-.67.51-1.39.73-2.09.73-.19,0-.38-.02-.57-.05-2.1-.37-3.73-2.71-2.53-5.04-2.11-.1-3.31-1.8-3.31-3.51,0-1.28.67-2.55,2.13-3.17-.79-.73-1.13-1.63-1.13-2.51,0-2.13,2.02-4.14,4.52-3.36-.02-.17-.03-.33-.03-.49,0-3.33,4.49-4.8,6.4-1.83,2-3.11,6.83-1.35,6.37,2.32.38-.12.74-.17,1.09-.17,2.93,0,4.73,3.79,2.3,6.04,1.31.55,1.99,1.64,2.11,2.78.02.13.02.26.02.39Z"/>
        <path class="cls-5" d="M989.21,792.5l-3.32,5.75c-.67,1.16.17,2.6,1.5,2.6h6.64c1.34,0,2.17-1.45,1.5-2.6l-3.32-5.75c-.67-1.16-2.34-1.16-3.01,0Z"/>
        <path class="cls-5" d="M911.84,979.77l-19.11,33.11c-3.84,6.66.96,14.98,8.65,14.98h38.23c7.69,0,12.5-8.32,8.65-14.98l-19.11-33.11c-3.84-6.66-13.46-6.66-17.3,0Z"/>
        <path class="cls-5" d="M977.04,949.25c0,3.03-1.94,6.07-5.41,6.74-.34.06-.7.11-1.08.13.55,1.07.8,2.15.8,3.17,0,3.34-2.61,6.15-5.76,6.7-1.69.3-3.53-.06-5.22-1.33-.8,3.53-3.72,5.3-6.64,5.3s-5.84-1.76-6.64-5.3c-1.31,1-2.73,1.43-4.09,1.43-.38,0-.75-.03-1.12-.1-4.12-.72-7.31-5.3-4.96-9.87-4.14-.2-6.49-3.54-6.49-6.87,0-2.5,1.32-5.01,4.18-6.21-1.55-1.44-2.22-3.19-2.22-4.91,0-4.17,3.96-8.11,8.86-6.59-.04-.33-.06-.64-.06-.95,0-6.53,8.8-9.41,12.54-3.59,3.93-6.1,13.39-2.65,12.48,4.54.74-.23,1.45-.33,2.14-.33,5.74,0,9.26,7.44,4.51,11.83,2.57,1.08,3.9,3.21,4.13,5.45.03.25.04.51.04.76Z"/>
        <path class="cls-5" d="M939.74,907.48c1.27,3.46.43,7.24-2.18,9.85-1.8,1.8-4.16,2.76-6.59,2.76-1.09,0-2.19-.19-3.26-.58-4.51-1.65-9.48-1.65-13.99,0-3.47,1.27-7.24.43-9.85-2.18-2.61-2.61-3.44-6.38-2.17-9.85,1.65-4.51,1.65-9.48,0-13.99-1.27-3.47-.44-7.24,2.17-9.85,2.61-2.61,6.38-3.44,9.85-2.17,2.26.82,4.63,1.24,6.99,1.24s4.74-.41,7-1.24c3.46-1.27,7.24-.44,9.85,2.17,2.61,2.61,3.44,6.38,2.18,9.85-1.65,4.51-1.65,9.48,0,13.99Z"/>
        <path class="cls-5" d="M958.66,848.76h0c1.53,4.14,4.79,7.4,8.93,8.93h0c4.57,1.69,4.57,8.16,0,9.85h0c-4.14,1.53-7.4,4.79-8.93,8.93h0c-1.69,4.57-8.16,4.57-9.85,0h0c-1.53-4.14-4.79-7.4-8.93-8.93h0c-4.57-1.69-4.57-8.16,0-9.85h0c4.14-1.53,7.4-4.79,8.93-8.93h0c1.69-4.57,8.16-4.57,9.85,0Z"/>
        <path class="cls-5" d="M916.87,822.59l-8.45,14.64c-1.7,2.94.43,6.63,3.83,6.63h16.9c3.4,0,5.53-3.68,3.83-6.63l-8.45-14.64c-1.7-2.94-5.95-2.94-7.65,0Z"/>
        <path class="cls-5" d="M962.14,810.95c0,1.1-.7,2.19-1.95,2.43-.12.02-.25.04-.39.05.2.39.29.77.29,1.15,0,1.2-.94,2.22-2.08,2.42-.61.11-1.28-.02-1.88-.48-.29,1.28-1.34,1.91-2.4,1.91s-2.11-.64-2.4-1.91c-.47.36-.99.52-1.48.52-.14,0-.27-.01-.4-.04-1.49-.26-2.64-1.91-1.79-3.56-1.49-.07-2.34-1.28-2.34-2.48,0-.9.48-1.81,1.51-2.24-.56-.52-.8-1.15-.8-1.77,0-1.51,1.43-2.93,3.2-2.38-.01-.12-.02-.23-.02-.34,0-2.36,3.18-3.4,4.53-1.3,1.42-2.2,4.83-.96,4.5,1.64.27-.08.52-.12.77-.12,2.07,0,3.34,2.68,1.63,4.27.93.39,1.41,1.16,1.49,1.97.01.09.02.18.02.28Z"/>
        <path class="cls-5" d="M925.17,797.72c.3.81.1,1.69-.51,2.3-.42.42-.97.64-1.54.64-.25,0-.51-.04-.76-.14-1.06-.39-2.22-.39-3.27,0-.81.3-1.69.1-2.3-.51-.61-.61-.81-1.49-.51-2.3.39-1.06.39-2.22,0-3.27-.3-.81-.1-1.69.51-2.3.61-.61,1.49-.81,2.3-.51.53.19,1.08.29,1.64.29s1.11-.1,1.64-.29c.81-.3,1.69-.1,2.3.51s.81,1.49.51,2.3c-.39,1.05-.39,2.22,0,3.27Z"/>
      </g>
    </g>
    <g class="cls-4">
      <g>
        <path class="cls-5" d="M1054.16,55.45c2.04,5.57.7,11.64-3.5,15.84-2.9,2.9-6.69,4.44-10.6,4.44-1.75,0-3.52-.3-5.24-.93-7.26-2.66-15.26-2.66-22.51,0-5.58,2.04-11.65.7-15.85-3.5-4.2-4.2-5.54-10.27-3.49-15.84,2.66-7.26,2.66-15.26,0-22.51-2.05-5.58-.71-11.65,3.49-15.85,4.2-4.2,10.27-5.54,15.85-3.49,3.63,1.32,7.44,1.99,11.25,1.99s7.63-.67,11.26-1.99c5.57-2.05,11.64-.71,15.84,3.49s5.54,10.27,3.5,15.85c-2.66,7.25-2.66,15.25,0,22.51Z"/>
        <path class="cls-5" d="M1017.61-15.75c0,3.52-2.25,7.05-6.28,7.83-.4.07-.82.13-1.25.15.64,1.24.93,2.49.93,3.68,0,3.87-3.03,7.14-6.69,7.78-1.96.35-4.1-.07-6.06-1.55-.93,4.1-4.32,6.15-7.71,6.15s-6.78-2.05-7.71-6.15c-1.53,1.16-3.17,1.66-4.76,1.66-.44,0-.88-.04-1.3-.12-4.78-.83-8.49-6.16-5.76-11.46-4.81-.24-7.54-4.11-7.54-7.98,0-2.91,1.53-5.82,4.85-7.21-1.8-1.67-2.58-3.71-2.58-5.71,0-4.85,4.59-9.42,10.29-7.65-.05-.38-.07-.75-.07-1.11,0-7.59,10.21-10.93,14.57-4.17,4.56-7.08,15.55-3.08,14.49,5.27.86-.26,1.69-.39,2.48-.39,6.67,0,10.75,8.64,5.23,13.74,2.98,1.25,4.53,3.73,4.8,6.33.03.29.05.59.05.89Z"/>
        <path class="cls-5" d="M963.32,17.22h0c2.98,8.05,9.33,14.4,17.38,17.38h0c8.9,3.29,8.9,15.88,0,19.18h0c-8.05,2.98-14.4,9.33-17.38,17.38h0c-3.29,8.9-15.88,8.9-19.18,0h0c-2.98-8.05-9.33-14.4-17.38-17.38h0c-8.9-3.29-8.9-15.88,0-19.18h0c8.05-2.98,14.4-9.33,17.38-17.38h0c3.29-8.9,15.88-8.9,19.18,0Z"/>
        <path class="cls-5" d="M911.84-40.23l-19.11,33.11c-3.84,6.66.96,14.98,8.65,14.98h38.23c7.69,0,12.5-8.32,8.65-14.98l-19.11-33.11c-3.84-6.66-13.46-6.66-17.3,0Z"/>
      </g>
    </g>
  </g>
  <g id="LOGOS">
    <g>
      <g>
        <path class="cls-1" d="M448.45,577.94c-.58.57-1.15,1.16-1.71,1.76.61-2.1,1.23-3.97,1.84-5.51.01-.02.02-.05.03-.07l2.1.36,1.32.23c-.78.64-1.54,1.3-2.28,1.99-.44.41-.87.82-1.3,1.24Z"/>
        <path class="cls-2" d="M363.08,547.68c-.63,3.31-1.35,11.78-2.55,14.61-.04.09-.08.17-.12.25-.06.12-.15.28-.27.48,0,0-.01,0-.01.01-.12.2-.27.43-.44.7,0,0-.01,0-.01.01-.18.27-.38.57-.6.9-.23.32-.47.68-.73,1.05,0,0-.01,0-.01.01-.39.56-.82,1.16-1.27,1.8t-.01.01c-.3.43-.62.86-.94,1.3-.86,1.18-1.76,2.39-2.62,3.56.78.5,1.53,1.01,2.25,1.54.12.09.24.18.36.27.12.08.23.17.35.27,4.25-6.33,8.3-12.01,8.3-13.79v-.56s.23-12.23.23-12.23c0-1.16-1.69-1.33-1.91-.19ZM726.22,445.81c4.15-15.3,11.33-52.82-.55-64.94-2.49-2.54-5.35-3.3-8.28-2.97-6.56.72-13.54,6.88-17.82,10.92-2.74,2.58-5.4,5.41-8.02,8.34-5.16,5.77-10.15,11.94-15.27,17.4-3.38,1.18-6.26,2.63-8.91,5.45-1.8-13.54-22.26-14.31-23.09-15.56-6.96-63.34-55.1-125.71-120.99-133.14-.2-1.88,1.86-2.55,2.53-4.09,3-6.9-5.1-7.62-10.16-6.29-3.17.83-8.11,5.73-9.1,5.73-2.11,0-7.41-9.03-15.58-8.66-1.8.08-4.54.95-4.92,2.91-.45,2.45,5.5,7.22,4.55,8.05-65.83,1.77-129.61,41.55-145.5,107.86-4.65,19.45-3.96,38.86-3.17,58.71l-11.46-9.73c-1.74-1.47-3.85-2.48-6.11-2.76-4.16-.53-5.27-2.71-8.6-4.53-1.37-.75-3.07-.63-4.13-1.3-1.06-.66-6.99-8.93-11.28-14.72-1.71-2.31-3.17-4.23-3.95-5.11-5.43-6.18-13.41-15.79-21.35-15.57-3.19.08-6.37,1.75-9.39,5.86-8.87,12.08-7.23,40.78-4.47,55.04.93,4.68,4.22,11.72,4.43,15.89.26,5.02-4.48,7.95-1.44,15.38.71,1.74,2.91,3.31,3.04,4.77.24,2.43-1.14,7.15-.77,10.87,1.84,19.22,34.24,57.54,51.81,74.68h.01s.16.01.16.01c.04-.01.07-.01.11,0,.23-.01.47-.02.71-.02.67-.02,1.36-.03,2.05-.03,1.51,0,2.97.04,4.4.11.31.01.61.03.92.06h.01s.04-.01.06,0c-.15-.13-.3-.26-.43-.38-.1-.08-.18-.15-.27-.23-.3-.26-.56-.49-.78-.69-.22-.19-.41-.36-.55-.49-.53-.5-1.05-1-1.59-1.52-.54-.51-1.08-1.04-1.62-1.57-.36-.35-.72-.71-1.09-1.08-.48-.48-.97-.97-1.46-1.47-.99-1-1.98-2.03-2.97-3.07-1.01-1.04-2.01-2.11-3.01-3.19-1.01-1.09-2.02-2.19-3.03-3.31h0c-1.01-1.13-2.02-2.26-3.03-3.41-1.01-1.15-2.01-2.32-3.01-3.49-2.49-2.93-4.95-5.93-7.32-8.94-1.43-1.81-2.82-3.62-4.17-5.43-4.51-6.02-8.57-11.99-11.79-17.51-1.72-2.94-3.42-5.89-4.87-8.9-.24-.5-.48-1-.7-1.51-.35-.76-.67-1.52-.97-2.28-1.99-5.07-3.06-10.33-2.16-15.98.21-1.37.54-2.77,1.01-4.19.32-.96.71-1.98,1.18-3.03t0-.01c.33-.75.69-1.52,1.09-2.31.3-.6.62-1.22.97-1.85h0c.31-.59.64-1.17.99-1.76h0c.26-.45.52-.9.8-1.35.2-.34.41-.68.63-1.02.64-1.03,1.32-2.07,2.04-3.12h0c.63-.94,1.29-1.89,1.98-2.83h0c.46-.64.92-1.28,1.4-1.91s.96-1.27,1.46-1.9c2.9-3.73,6.11-7.46,9.43-10.94.34-.37.7-.74,1.05-1.1.29-.29.58-.59.86-.87l.85-.85c.57-.57,1.15-1.13,1.72-1.67.57-.55,1.15-1.09,1.73-1.61.28-.27.57-.53.86-.78.57-.52,1.15-1.02,1.72-1.51h.01c.57-.5,1.14-.97,1.71-1.43.57-.47,1.13-.92,1.7-1.35.28-.22.56-.43.84-.64.56-.42,1.12-.82,1.67-1.21.44-.31.88-.61,1.32-.89,2.56-1.69,5-2.99,7.23-3.78.25-.09.51-.17.77-.24,4.08-1.05,8.49.87,12.03,3.59.03.03.06.05.08.07,1.68,1.3,3.15,2.77,4.31,4.18,2.13,2.6,3.17,5.01,2.34,5.8-15.5,14.76-14.83,39.86-5.53,60.05.16.35.32.71.49,1.06.05.1.09.19.14.29.2.41.4.82.6,1.22,2.87,5.65,6.42,10.86,10.47,15.24.3.32.59.63.89.94,1.19,1.23,2.42,2.4,3.69,3.48.4.34.8.68,1.21,1.01.8.64,1.6,1.27,2.41,1.86,1.23.9,2.47,1.74,3.72,2.53,1.25.77,2.5,1.5,3.77,2.18t.01.01c1.27.67,2.56,1.3,3.85,1.89h.01c.86.39,1.72.76,2.59,1.12.01,0,.01.01.01.01,1.31.52,2.63,1.01,3.95,1.46,7.09,2.43,14.44,3.83,21.89,4.96.46.07.93.14,1.39.21,1.4.2,2.81.4,4.21.6.94.13,1.87.26,2.81.39l2.82.39c3.29.46,6.59.94,9.87,1.51,1.88.32,3.76.67,5.63,1.06.47.1.94.2,1.4.3,1.29.28,2.57.58,3.85.91,1.28.32,2.55.67,3.82,1.05h.01c1.91.56,3.8,1.18,5.69,1.89h.01c.63.23,1.25.47,1.88.72.53-.58.42-1.1-.01-1.56-.05-.06-.12-.12-.19-.18-.13-.12-.28-.23-.45-.34-.16-.11-.34-.21-.52-.31s-.36-.19-.55-.28h-.01c-.27-.14-.54-.26-.79-.37,0,0,0,0-.01,0-.16-.07-.31-.14-.44-.2h-.01c-2.19-1.07-4.47-1.98-6.82-2.75-.8-.27-1.62-.52-2.44-.76-.82-.24-1.64-.47-2.48-.68-.31-.08-.61-.16-.92-.23-.95-.23-1.9-.45-2.86-.65-.87-.2-1.75-.37-2.63-.54-1.03-.2-2.07-.38-3.11-.56-12.83-2.19-26.45-3.04-38.41-7.32-1.6-.57-3.17-1.2-4.7-1.88-.76-.34-1.52-.69-2.26-1.05-.75-.37-1.49-.75-2.21-1.13-1.46-.78-2.87-1.61-4.25-2.48-.69-.44-1.36-.88-2.03-1.34-.5-.35-.99-.7-1.48-1.05-1.47-1.07-2.88-2.19-4.24-3.36-.6-.52-1.19-1.05-1.77-1.59h0c-.58-.55-1.14-1.1-1.7-1.65-.84-.84-1.65-1.7-2.43-2.58-.52-.58-1.03-1.17-1.53-1.77-.99-1.21-1.94-2.45-2.84-3.72-.45-.63-.88-1.27-1.31-1.92h0c-.42-.65-.83-1.31-1.23-1.97h0c-.25-.42-.49-.84-.73-1.26-.33-.57-.64-1.15-.94-1.74-.37-.69-.72-1.39-1.06-2.09h0c-6.06-12.76-7.5-27.5-2.87-41.99.19-.58.39-1.16.59-1.74.41-1.16.86-2.32,1.35-3.47.74-1.73,1.56-3.46,2.48-5.17.09-.16.28-.52.53-1,.13-.24.28-.52.44-.81.91-1.64,2.26-3.92,3.32-5l.18-.18c.42-.38.78-.54,1.03-.34.02.01.05.03.07.07h.01c.03.08.05.16.06.24.01.01.01.02.01.02,1.13,5.28-9.47,27.39,3.37,47.5,2.5,3.85,6.3,8.95,11.71,13.96,6.01,5.56,14.02,10.99,24.48,14.41,15.32,5.02,51.13,10.49,62.84,20.37,2.91,2.45,2.62,2.8,2.15,4.37-.14.43-.28.95-.38,1.62,0,.03-.01.06-.01.1-.01.07-.02.14-.03.21-.38,3.48,1.15,7.81.73,10.24-.15.93-.57,2.05-1.13,3.3-.08.18-.17.36-.25.55-.43.91-.93,1.89-1.44,2.89-2.79,5.46-6.14,11.88-2.79,15.18.13.12.26.24.4.36.29.22.62.44.99.63.92.47,2.1.83,3.59,1.03-.41,1.15-.81,2.37-1.2,3.66.14.16.27.31.41.47.08-.1.16-.19.25-.28.03-.03.05-.06.08-.08.26-.27.52-.54.77-.8.13-.15.28-.3.43-.44.14-.15.28-.29.43-.43.12-.45.24-.89.37-1.33l.93.09c.37-.34.75-.68,1.13-1.01.38-.35.76-.67,1.14-.98h.01s.03-.03.05-.05c.28-.23.57-.46.86-.69-4.54-.36-9.06-1.44-9.42-3.29-.67-3.58,9.22-22.08,9.22-22.08l2.2,5.66c.56,1.44,2.48,1.7,3.41.48l5.26-6.91-1.29,20.35c.36-.17.72-.33,1.08-.49.15-.06.3-.13.45-.19.12-.05.23-.09.35-.14.04-.02.09-.03.13-.05.22-.09.44-.18.67-.26.31-.12.63-.24.95-.35.07-.03.14-.05.21-.08.15-.05.3-.1.45-.15.5-3.22,1.1-6.55,1.85-9.6.61-2.51,2.66-6.91,3.87-10.07.18-.47.32-.96.44-1.48.07-.25.13-.51.18-.77.28-1.3.47-2.65.8-3.84.02-.09.05-.18.07-.27.04-.11.07-.22.11-.33.15-.46.33-.89.55-1.28.45-.78,1.05-1.57,1.8-2.35.18-.19.37-.39.58-.58.2-.2.42-.4.64-.6.44-.39.9-.77,1.4-1.15h.01c.5-.4,1.03-.78,1.58-1.16,1.68-1.15,3.61-2.29,5.73-3.42.7-.37,1.43-.74,2.17-1.11,1.86-.92,3.85-1.83,5.92-2.73,1.12-.49,2.26-.96,3.43-1.44.67-.27,1.36-.54,2.05-.81.74-.3,1.5-.6,2.26-.88,0,0,0-.01.01-.01,3.1-1.19,6.3-2.34,9.47-3.44.46-.16.91-.32,1.37-.47.9-.31,1.81-.62,2.71-.92.9-.31,1.8-.61,2.69-.9,10.24-3.39,19.64-6.22,24.84-8.21,3.5-1.34,6.71-2.69,9.67-4.04,1.48-.68,2.9-1.36,4.26-2.04.75-.38,1.49-.76,2.2-1.13.54-.28,1.06-.57,1.58-.86,1.72-.95,3.34-1.91,4.89-2.88.75-.48,1.48-.95,2.19-1.43,1.78-1.21,3.45-2.43,5.03-3.68.64-.5,1.25-1.01,1.86-1.52.3-.26.6-.51.9-.77.45-.39.89-.78,1.32-1.17.33-.29.65-.59.97-.89s.64-.6.95-.9c.63-.6,1.24-1.22,1.85-1.83,2.97-3.04,5.75-6.26,8.6-9.75.51-.63,1.03-1.27,1.56-1.92.26-.33.52-.66.79-.99.52-.65,1.05-1.32,1.6-2,.26-.34.54-.68.82-1.03,1.09-1.38,2.21-2.8,3.38-4.25.87-1.1,1.77-2.22,2.7-3.36.31-.38.62-.77.94-1.15.94-1.16,1.92-2.35,2.94-3.56,1.35-1.62,2.76-3.28,4.26-5,1.07-1.23,2.15-2.38,3.24-3.48.36-.36.73-.72,1.09-1.07.63-.61,1.27-1.21,1.9-1.78t.01,0c9.59-8.6,19.57-13.15,29.62-21.64,1.15-.97,5.78-5.28,6.92-7.85.37-.82-.58-1.6-1.32-1.09l-4.12,3.03v-10.9c.82.1,1.65.22,2.47.37.28.04.55.09.83.15.55.1,1.1.22,1.64.35.82.19,1.63.4,2.43.66.38.12.76.24,1.13.38.38.13.75.27,1.11.42.36.14.72.3,1.08.46h.01c.35.16.7.33,1.04.52.34.17.68.36,1.01.56.33.2.66.4.98.62.32.21.62.43.92.67.27.2.52.41.77.63.18.15.36.31.53.48.14.12.27.25.4.4.53.54,1.03,1.13,1.47,1.76.11.15.22.3.31.46.12.16.23.34.33.51.1.17.2.34.29.51.11.21.22.42.32.64.16.32.31.66.44,1.01.08.19.15.38.21.58.17.44.3.89.4,1.36.06.16.09.33.13.5h-.01c-.9.13-1.78.31-2.65.55-.28.08-.57.16-.85.25-1.14.36-2.24.8-3.31,1.33-.71.34-1.41.73-2.1,1.14-.69.41-1.36.85-2.03,1.32-.5.35-.99.72-1.48,1.1-.48.38-.96.77-1.43,1.18-1.57,1.35-3.08,2.82-4.54,4.37-.58.62-1.15,1.25-1.72,1.88-.41.47-.82.94-1.22,1.41-.7.82-1.39,1.65-2.07,2.47-1.19,1.45-2.35,2.9-3.48,4.3-.4.49-.79.97-1.18,1.45-.5.61-1,1.21-1.49,1.8-.34.41-.68.81-1,1.19-.2.24-.4.47-.59.7-.38.45-.75.89-1.11,1.32-.18.21-.35.42-.53.63-.28.33-.55.65-.82.97-.27.32-.54.63-.8.93-.26.31-.52.61-.78.91-2.45,2.82-4.79,5.33-8.42,8.89-11.67,11.43-17.71,26.02-26.28,38.77-.31.48-.63.96-.96,1.43-.36.54-.74,1.07-1.13,1.6-2.32,3.21-4.86,6.28-7.74,9.1-1.05,1.02-2.14,2.01-3.28,2.97-.01,0-.01.01-.01.01-.86.72-1.75,1.41-2.67,2.09-4.1,3.01-8.62,5.59-13.39,7.82-11.03,5.15-23.41,8.47-34.95,11.07-1.21.28-2.41.54-3.6.8-.13.03-.26.06-.41.09-.21.04-.45.08-.7.13-.16.03-.34.07-.52.11-.43.07-.91.16-1.42.25-.18.03-.36.06-.56.1-.38.07-.78.14-1.2.21-.41.07-.85.15-1.3.23-.41.07-.84.14-1.28.22-.07.01-.14.02-.21.04-.68.11-1.39.24-2.12.37-1.8.31-3.72.65-5.7,1.02-.56.1-1.13.21-1.71.32-.57.11-1.15.22-1.72.33-.29.05-.58.11-.87.17-.92.18-1.85.37-2.77.57-.19.03-.39.07-.58.12-.9.18-1.79.37-2.67.57-1.12.25-2.22.5-3.28.77-1.06.26-2.09.53-3.07.8-.49.13-.97.27-1.43.41-.93.28-1.8.56-2.6.84-.4.14-.78.28-1.15.43-.36.14-.71.29-1.03.43-1.29.58-2.26,1.17-2.78,1.77-.07.07-.13.15-.18.23-.05.07-.09.14-.13.22-.2.4-.2.65-.06.8.03.02.05.04.08.06.05.03.12.06.2.08.37.07.95-.03,1.62-.22.15-.04.3-.09.46-.14.08-.02.16-.05.24-.07.16-.06.32-.11.48-.17.24-.09.49-.18.73-.27.16-.07.32-.13.47-.19h.01c.24-.1.46-.19.67-.28.07-.03.15-.06.22-.09.14-.06.28-.12.41-.17.13-.06.25-.11.36-.16h0c.15-.06.28-.12.39-.17.18-.06.3-.11.37-.13.58-.16,1.16-.32,1.74-.48.58-.16,1.16-.31,1.74-.45.58-.15,1.16-.29,1.74-.43.58-.14,1.17-.28,1.75-.41.78-.17,1.56-.34,2.34-.51,1.25-.26,2.49-.5,3.74-.74,1.24-.24,2.49-.46,3.74-.68,8.14-1.4,16.32-2.44,24.52-3.91,1.26-.22,2.52-.46,3.78-.71,1.27-.25,2.53-.51,3.79-.79.64-.14,1.27-.28,1.9-.43,1.27-.3,2.53-.61,3.79-.94,1.9-.5,3.79-1.04,5.69-1.64,10-3.15,19.65-7.42,28.05-13.46.8-.58,1.59-1.17,2.36-1.77.39-.31.78-.62,1.16-.93.76-.63,1.51-1.27,2.25-1.92,2.22-1.98,4.31-4.12,6.27-6.43,2.59-3.06,4.84-6.41,6.92-9.89,1.38-2.29,2.68-4.63,3.96-6.99.44-.82.89-1.64,1.33-2.46,1.16-2.16,2.33-4.33,3.54-6.47.55-.97,1.11-1.95,1.68-2.91.4-.67.81-1.33,1.23-1.99.77-1.24,1.57-2.47,2.41-3.66.78-1.12,1.59-2.22,2.44-3.28.54-.68,1.1-1.34,1.67-1.99,1.47-1.67,3.05-3.26,4.77-4.73-.51,1.28-1.4,4.22-1.97,6.66-.01.03-.02.06-.02.1-.03.11-.06.23-.08.34-.01.07-.03.13-.04.2-.63,2.92-.65,4.75,1.34,1.26.78-1.6,1.56-3.25,2.36-4.91.27-.56.54-1.11.81-1.67.44-.89.89-1.77,1.34-2.65.23-.43.46-.87.7-1.3.52-.94,1.04-1.86,1.59-2.76.37-.59.75-1.18,1.13-1.75.09-.14.19-.29.3-.45.12-.16.24-.33.36-.5.26-.36.56-.76.88-1.19t0-.01c.54-.72,1.17-1.53,1.87-2.42,0,0,.01,0,.01-.01.71-.89,1.48-1.85,2.31-2.87,0,0,.01,0,.01-.01.66-.81,1.36-1.66,2.09-2.53,0,0,.01,0,.01-.01.51-.6,1.02-1.22,1.54-1.84,1.06-1.24,2.15-2.51,3.25-3.78.56-.64,1.12-1.28,1.68-1.92,0,0,.01,0,.01,0,.62-.69,1.24-1.39,1.85-2.07.93-1.03,1.85-2.04,2.76-3.03.31-.33.61-.65.91-.97.4-.42.8-.84,1.19-1.25.59-.62,1.17-1.21,1.74-1.79.19-.19.37-.38.56-.56.56-.56,1.1-1.09,1.62-1.59.7-.67,1.36-1.29,1.99-1.84.19-.17.39-.34.57-.5.56-.49,1.09-.91,1.57-1.26.38-.29.74-.54,1.06-.72.32-.2.61-.35.86-.44.37-.14.83-.27,1.31-.37.05-.02.11-.03.16-.03.2-.05.41-.08.61-.11.45-.06.9-.08,1.32-.04.41.03.79.12,1.09.29.07.04.19.18.35.41.06.08.13.16.18.26.05.07.1.14.16.22.16.24.35.51.54.82,1.17,1.8,2.93,4.74,4.52,7.38.37.61.73,1.2,1.07,1.76.57.94,1.1,1.79,1.52,2.46.13.2.25.38.36.55.11.17.21.32.3.45.06.09.12.17.17.24,2.93,4.01,6.16,8,9.61,11.87,1.39,1.54,2.81,3.07,4.26,4.56.72.75,1.46,1.49,2.2,2.22,1.98,1.96,4.02,3.86,6.11,5.68,1.43,1.25,2.87,2.46,4.34,3.63,1.6,1.28,3.23,2.5,4.87,3.68.82.58,1.64,1.15,2.47,1.71.42.28.83.55,1.25.82,1.36.88,2.33,1.15,2.99,1.4.09.04.18.07.26.11.04.02.08.04.12.06.08.03.15.07.21.12.06.04.12.09.17.15.03.02.06.05.08.08.3.39.39,1.03.32,2.36-.01.11-.01.23-.02.35-.01.25-.03.52-.06.81,0,.15-.02.3-.03.45-.02.24-.04.49-.08.74-.02.24-.06.5-.1.75-.07.5-.16,1.01-.26,1.52s-.21,1.03-.34,1.56c-.05.26-.12.52-.2.79-.06.26-.13.53-.21.8-.08.27-.16.54-.24.81-.15.54-.33,1.09-.53,1.64-.08.27-.18.55-.29.83-.1.28-.2.56-.31.84-.31.84-.65,1.7-1.04,2.56-.24.58-.5,1.16-.77,1.74-.26.58-.54,1.16-.84,1.75,0,.01,0,.02-.01.03-.28.58-.58,1.17-.89,1.76-.3.59-.62,1.19-.96,1.8-.05.09-.09.17-.14.26-.28.51-.57,1.04-.87,1.56-.31.55-.62,1.09-.95,1.64-.06.09-.11.19-.17.28-.35.59-.71,1.18-1.08,1.78-.38.62-.77,1.24-1.17,1.87,0,.01-.01.01-.01.01-.35.56-.71,1.11-1.08,1.67-.73,1.11-1.48,2.23-2.27,3.36-.38.56-.78,1.13-1.18,1.7-.4.57-.81,1.14-1.22,1.71-.71.99-1.45,1.99-2.19,2.98-.74,1-1.49,1.99-2.27,2.99-1.53,1.99-3.12,3.99-4.74,5.98-3.7,4.55-7.58,9.06-11.48,13.43-.96,1.06-1.91,2.12-2.85,3.16-.52.56-1.03,1.12-1.54,1.68-1.47,1.59-2.92,3.15-4.37,4.69-2.42,2.57-4.8,5.05-7.11,7.43-.93.94-1.84,1.87-2.74,2.78-1.8,1.83-3.56,3.59-5.24,5.27-.62.63-1.24,1.23-1.85,1.83-.61.6-1.21,1.18-1.79,1.76t-.01,0c-.78.76-1.54,1.5-2.27,2.21-.01,0-.01.01-.01.01-.37.36-.73.71-1.09,1.05-.28.28-.56.55-.83.82-.42.4-.82.79-1.22,1.17-.33.32-.65.63-.97.93-.14.13-.28.27-.44.42-.17.16-.33.31-.52.48-.89.81-2,1.76-3.23,2.82-.44.37-.9.76-1.37,1.16-.31.27-.63.54-.96.82-.61.52-1.23,1.06-1.87,1.59-.93.81-1.89,1.64-2.83,2.47h0c-.93.84-1.86,1.67-2.75,2.49-.13.12-.26.24-.38.36-3.29,3.05-6.01,5.95-6.84,7.92-.28.67-.85,4,1.99,1.55,1.78-1.54,4.57-4.26,5.49-4.58.38-.13.79.1.84.5.05.36.09.73.11,1.1.03.36.04.72.04,1.09,0,.92-.06,1.87-.16,2.82-.04.46-.1.92-.16,1.38-.06.47-.12.94-.19,1.41-.09.68-.18,1.36-.27,2.02h0c-.04.31-.07.6-.1.89-.02.19-.04.37-.05.56-.03.37-.06.73-.07,1.08-.01.12-.01.24-.01.35v.33c0,.33.05.7.14,1.07.03.12.07.25.1.38.11.37.25.76.38,1.13.1.25.2.51.3.75.09.23.18.45.26.67.09.21.16.41.22.59.02.07.04.14.06.2.08.26.11.47.08.61,0,.01-.01.03-.02.04,0,.01,0,.03-.02.04-.38.88-3.61,1.02-4.42,1.19-.57.13-.52.96.06,1.03,1.36.17,5.34.23,6,1,.62.73,1.15,6.04,1.57,13.11.29-.12.59-.24.88-.35.31-.13.62-.25.92-.37.31-.12.61-.23.92-.34-.62-7.87-1.37-14.03-2.17-15.47-2.57-4.63-.49-16.54-2.33-21.71,22.56-19.06,44.96-39.76,62.5-63.66,7.39-10.06,21.05-30.42,22.85-42.52.39-2.77-.2-5.7.36-8.21.49-2.19,3.02-4.19,3.53-7.35.6-3.52-.83-5.77-.57-8.3.28-2.95,4.15-11.19,5.22-15.09ZM274.35,466.24c-1.58,2.47-3.77,5.59-3.77,7.63-4.94-3.97-1.31-11.16,1.34-15.98.22-.39.69-.52,1.05-.35.14.06.27.17.36.32,1.03,1.71,2.64,4.89,2.57,5.38-.13.69-.76,1.77-1.55,3ZM283.19,451.88c-1.3,2.2-4.58,6.77-5.37,7.78-.77.97-5.04-3.08-3.98-5.44.2-.42,4.67-7.25,5.24-7.87.52-.53.84-.58,1.35-.16.02.01,1.88,2.21,2.75,3.64.38.63.39,1.41.01,2.05ZM295.71,437.85c-.08.18-.31.48-.65.89-2.08,2.47-8.23,8.53-9.28,9.47-.75.68-4.96-1.88-3.91-4.64.51-1.37,8.03-9.12,9.26-9.96.82-.57,3.06.36,4.15,1.78.57.73.82,1.6.43,2.46ZM307.21,429.01c-2.04,1.51-7.07,5.39-8.72,6.06-.37.15-.8.05-1.07-.26-.51-.6-1.33-1.19-1.96-1.8-.85-.82-1.37-1.69-.38-2.73.11-.11.35-.32.68-.58,1.38-1.14,4.35-3.37,5.34-3.94.67-.39,3.01-2.06,3.46-2.26.43-.2.93,0,1.12.43l1.9,3.67c.23.5.07,1.09-.37,1.41ZM310.35,427.11c-.38.11-.78-.09-.96-.44l-1.86-3.79c-.18-.38-.05-.83.31-1.05,1.92-1.13,7.76-3.91,10.23,2.22-1.76-.52-5.89,2.55-7.72,3.06ZM447.7,432.42c.41-.17.81-.34,1.21-.48.99-.36,1.96-.64,2.9-.84.18-.04.37-.08.56-.11,1.03-.19,2.04-.28,3.02-.29.33-.01.66,0,.98,0,.48.02.95.06,1.42.11.71.08,1.4.2,2.08.35.23.05.46.1.69.16.67.17,1.34.37,2.01.6.42.14.85.3,1.27.47.23.09.47.19.71.29.22.09.44.18.66.28.43.19.87.39,1.3.59.53.25,1.06.51,1.6.78,1.37.71,2.74,1.45,4.12,2.19.49.26.97.52,1.47.78.36.19.72.38,1.09.57,1.27.65,2.55,1.27,3.87,1.82.28.12.57.24.85.35.86.35,1.73.66,2.62.93.26.08.52.15.79.21l.81.18c.27.05.55.1.83.15.82.14,1.66.24,2.51.31.56.05,1.12.09,1.68.14,1.11.09,2.21.17,3.26.31.79.1,1.55.23,2.27.42.24.05.47.12.7.19h.01c.41.14.69.31.88.51.04.05.08.1.11.15.04.05.07.11.09.17s.03.12.05.18c.14.8-.68,1.86-1.67,2.82-.29.29-.59.55-.88.8-.27.22-.53.43-.77.62-.25.2-.48.38-.68.51-.09.06-.17.12-.24.17-.84.61-1.67,1.16-2.5,1.67-.63.38-1.26.73-1.88,1.05-.41.21-.83.41-1.24.61-.33.16-.67.31-1,.44-.17.08-.33.15-.49.2-.33.14-.65.26-.98.38h-.01c-.4.15-.81.29-1.21.42-.24.07-.47.14-.7.21-.34.1-.69.19-1.03.27-.29.08-.58.15-.86.21-.41.09-.82.17-1.23.25-.15.02-.3.05-.44.07-.3.05-.6.1-.9.14-13.79,1.89-26.5-5.17-37.43-.22-.17.08-.34.16-.5.25-.15.08-.3.16-.44.24-.34.2-.66.41-.98.64-.15.1-.3.21-.45.31-.6.43-1.19.87-1.79,1.25-.22.14-.45.27-.68.39-.24.13-.47.24-.71.34-.17.08-.33.14-.5.18-.13.04-.25.07-.38.1-.01.02-.02.02-.04.01-.03.02-.07.03-.1.03-.35.08-.72.12-1.1.12-.06,0-.13-.01-.19-.01-.28-.01-.7-.1-1.21-.25-.1-.04-.21-.07-.32-.1-.03,0-.05,0-.08-.02-.19-.07-.39-.14-.6-.22t-.01,0c-.63-.24-1.32-.53-1.99-.86t-.01,0c-.22-.11-.44-.23-.66-.34h-.01l-.63-.36h-.01c-.2-.12-.4-.24-.59-.37h-.01c-.28-.19-.54-.38-.77-.57h-.01c-.15-.13-.28-.25-.41-.38-.06-.06-.12-.13-.17-.19,0,0,0,0,0,0-.1-.12-.19-.24-.25-.36h-.01c-.05-.1-.09-.19-.11-.27-.05-.16-.06-.31-.02-.46.04-.17.13-.37.24-.59.24-.44.62-.96,1.1-1.53.38-.46.84-.96,1.35-1.48.05-.06.11-.11.17-.17.17-.18.35-.36.53-.53.27-.28.55-.55.84-.82,2.32-2.21,5.2-4.65,7.57-6.63.18-.14.36-.29.53-.44,1.48-1.22,2.72-2.23,3.44-2.83h.01c.28-.25.53-.48.77-.72.53-.53.98-1.06,1.44-1.58.26-.3.53-.59.83-.89.11-.11.23-.23.36-.35.75-.7,1.68-1.38,3.06-2.06.41-.21.82-.39,1.23-.57ZM470.72,500.58c-.05.03-.1.07-.15.1-3.82,2.5-7.24,3.27-10.32,2.78-.29-.05-.57-.1-.86-.17-.28-.07-.56-.15-.84-.24-.89-.28-1.75-.67-2.58-1.15-.31-.18-.61-.37-.92-.58-.3-.2-.59-.42-.89-.65-.04-.03-.07-.06-.11-.09-.25-.19-.5-.39-.73-.61-.26-.21-.5-.44-.75-.67-.05-.06-.1-.11-.15-.15-.25-.24-.49-.49-.73-.75-.21-.21-.41-.43-.61-.66-1.56-1.76-3-3.82-4.35-6.06-.48-.78-.94-1.59-1.39-2.41-.3-.55-.6-1.11-.89-1.66-.29-.56-.58-1.13-.86-1.7-.57-1.15-1.12-2.31-1.66-3.47-.27-.58-.53-1.16-.79-1.74-.03-.06-.06-.12-.08-.18-.11-.24-.21-.47-.31-.7-3.1-6.98-5.72-13.76-8.26-17.61.72.13,1.47-.5,2.15-.66.09-.02.17-.03.25-.03.07,0,.14.01.21.02.04,0,.08.03.14.07.02.03.05.05.08.08.03.03.06.07.1.11.79,1.02,2.4,4.73,4.13,8.94.18.45.37.9.55,1.35.02.06.05.12.07.18.14.34.28.69.42,1.03.72,1.79,1.44,3.58,2.1,5.22.18.43.35.86.51,1.26.12.3.25.6.36.88.14.34.28.67.4.98.16.38.31.74.45,1.07.21.5.41.96.58,1.35.24.53.44.95.59,1.24.65,1.23,1.47,2.68,2.42,4.17.17.25.33.51.51.76.2.31.41.61.62.91.03.05.07.1.1.14.24.33.48.65.72.97.01.02.03.04.05.06.26.35.53.68.81,1.01.73.88,1.51,1.7,2.34,2.43.2.19.41.36.62.53.29.24.59.46.89.67.34.24.69.45,1.05.65.43.24.88.45,1.33.61.39.14.78.26,1.18.34.03.01.06.01.09.02.21.03.42.06.63.09.58.05,1.17.04,1.76-.06,1.36-.22,2.72-.66,4.07-1.27.27-.12.53-.25.79-.39.4-.21.79-.44,1.19-.67.4-.24.79-.49,1.19-.76.4-.26.79-.54,1.18-.84.29-.23.58-.45.87-.69s.57-.48.86-.72c.38-.32.77-.67,1.15-1.03.38-.35.75-.72,1.12-1.1.32-.33.65-.66.97-1,.59-.64,1.18-1.29,1.76-1.97.36-.42.71-.84,1.05-1.27,1.39-1.73,2.71-3.56,3.96-5.43,4.37-6.55,7.75-13.63,9.44-18.64.12-.34.22-.69.32-1.03.43-1.56.7-3.15,1.02-4.69.08-.43.17-.86.27-1.27.08-.37.17-.72.27-1.07.06-.22.12-.44.19-.64.05-.17.1-.32.16-.48.22-.63.48-1.24.8-1.81.07-.15.16-.29.25-.43.09-.14.18-.27.27-.41.15-.21.3-.4.46-.59.16-.2.33-.38.52-.57.13-.13.27-.26.41-.38.12-.12.25-.23.39-.32.14-.12.29-.23.45-.33.15-.11.31-.22.48-.31.17-.11.34-.21.52-.3h0c-.09.7-.2,1.4-.31,2.12-.09.55-.19,1.11-.29,1.67-.09.52-.19,1.05-.3,1.58-.08.41-.17.83-.26,1.25-.11.49-.21.98-.33,1.47-.1.45-.2.9-.32,1.36-.51,2.08-1.09,4.21-1.76,6.37-.19.62-.39,1.25-.6,1.88-.19.62-.4,1.23-.62,1.85-.01.02-.02.05-.02.07-.22.62-.44,1.24-.67,1.85-.22.63-.46,1.26-.71,1.88-1.01,2.59-2.12,5.17-3.34,7.66-.11.22-.21.44-.33.66-.6,1.21-1.22,2.39-1.86,3.55-.33.58-.66,1.15-.99,1.71-.17.29-.34.57-.51.85-.34.56-.69,1.11-1.04,1.65-.17.27-.35.54-.53.81-.36.53-.73,1.06-1.09,1.58-.38.52-.75,1.03-1.13,1.52-.38.5-.77.99-1.16,1.46-.79.95-1.6,1.86-2.42,2.72-1.03,1.08-2.1,2.08-3.21,2.98-.83.68-1.69,1.32-2.56,1.89ZM458.19,475.84c.19-.24.37-.47.56-.7.39-.46.78-.91,1.18-1.35.2-.22.41-.44.62-.65.41-.43.84-.84,1.27-1.25.53-.49,1.08-.97,1.64-1.42.25-.2.5-.4.76-.6.58-.43,1.17-.85,1.77-1.25.25-.16.49-.32.74-.47.17-.11.34-.21.51-.32.27-.16.55-.32.83-.47.26-.15.52-.29.78-.42,1.11-.57,2.25-1.08,3.41-1.51.22-.09.45-.17.67-.25,2.45-.85,5.02-1.38,7.65-1.56.32-.02.65-.04.97-.05.34-.01.68-.02,1.02-.02,1.2,0,2.41.07,3.62.22-.12.58-.28,1.21-.49,1.88-.06.21-.13.42-.21.64-.1.31-.21.62-.33.94-.35.95-.78,1.97-1.27,3.02-.16.35-.33.71-.51,1.07-.1.21-.2.41-.31.62-.1.21-.21.42-.32.63-.1.21-.22.42-.33.63-.22.42-.46.85-.7,1.28-1.44,2.57-3.14,5.23-5,7.75-.3.42-.62.83-.94,1.24-.16.21-.32.42-.48.62-.32.4-.64.8-.98,1.19-.64.78-1.31,1.54-1.99,2.26-.68.73-1.36,1.41-2.05,2.06-.69.65-1.38,1.25-2.07,1.79-.53.42-1.05.81-1.58,1.17-.17.11-.33.22-.5.32-.34.22-.68.42-1.03.61-.17.1-.34.19-.51.27-.17.09-.34.17-.51.24-.17.08-.34.15-.51.22-.15.07-.31.13-.47.18-.19.07-.39.14-.59.19-.47.15-.94.26-1.4.31h-.02c-.33.05-.66.07-.98.07s-.65-.01-.96-.04c-1.07-.08-1.98-.28-2.75-.58-.14-.05-.27-.11-.39-.17-.13-.06-.25-.12-.37-.19-.43-.24-.8-.52-1.12-.83-.14-.14-.27-.28-.39-.44-.08-.09-.15-.19-.21-.29-.08-.1-.14-.21-.2-.32-.17-.29-.31-.59-.42-.91-.06-.19-.12-.38-.16-.57-.05-.2-.09-.4-.12-.6-.65-4.4,2.42-10.66,5.17-14.19ZM462.87,544.38l-4.3,7.08c-.57.94-1.99.71-2.24-.36l-1.53-6.7c-.18-1.08.72-2.03,1.81-1.9l5.59.5c.66.08,1.02.81.67,1.38ZM467.5,550.93l-1.04-7.55c-.2-1.5-1.42-2.66-2.93-2.8l-6.8-.61c-1.86-.29-3.67.76-4.35,2.51l-2.39,6.12s-1.28-8.85,2.66-11.19c3-1.8,14.73-2.07,17.08-.06,2.67,2.3-2.23,13.58-2.23,13.58ZM606.09,450.19c-13.15,14.92-22.16,30.44-39.03,41.91-4.94,3.36-10.15,6.11-15.52,8.48-21.56,9.54-45.81,13.02-66.07,25.13-.15.09-.33.2-.53.34-3.04,2-11.52,8.68-12.28,8.7-1.25.02-8.21-6.71-21.77-.54-.16.07-.62-.16-1.27-.57-.04-.03-.09-.06-.13-.09-1.81-1.17-4.9-3.61-6.8-4.88-.37-.25-.71-.45-.97-.59-17.95-9.44-59.33-15.53-76.37-27.5-1.78-1.25-3.29-2.56-4.48-3.95-10.04-11.65-12.99-33-9.75-47.69.89-4.07,3.15-7.75,3.52-12.04,1.07-11.94-2.71-27-1.54-40.44,2.27-26.08,21.41-64.49,52.96-57.65,32.72,7.08,38.22,63.52,37.31,90.3-.81,4.22-17.54,16.1-21,21.04-4.88,6.94,3.22,8.32,6.64,12.02,7.02,7.55,9.93,25.7,17.48,35.45.85,1.09,1.7,2.08,2.56,2.96,9.29,9.55,18.9,6.99,26.96,0,6.55-5.69,12.06-14.32,15.51-21.75,3.07-6.58,8.9-22.69,9.37-29.57.87-12.3-9.19-8.94-16.9-10.93-1.38-.36-9.9-4.81-10.69-5.66-1.72-1.86-1.45-5.57-1.94-8.04-.42-2.02-.4-1.58-.65-4.85-2.26-26.84-1.05-55.37,15.3-78.01,22.1-30.58,64.11-29.67,90.13-4.54,15.38,14.84,25.04,37.99,26.78,59.21.68,8.26-.94,17.99,0,25.7.34,2.76,2.08,4.7,2.77,7.35,1.05,3.95,2.18,17.63.4,20.7ZM672.22,430.28c-.26-.22-3.13-5.63-3.03-6.42.3-2.1,5.12-6.11,6.8-5.14.2.11,1.44,2.41,2.66,3.85.68.81.72,1.98.04,2.78-1.96,2.32-5.42,5.82-6.47,4.93ZM685.02,442.3c-.84.91-2.28.87-3.06-.09-2.52-3.11-6.91-7.78-7.33-9.36-.4-1.48,2.16-2.88,3.16-4.04,1.09-1.27,3.06-2.75,4.94-2.27.67.17,7.05,5.71,8.07,8.19.65,1.57-3.44,5.01-5.78,7.57ZM696.31,457.52c-.81.58-1.36-.31-1.87-.81-.77-.77-4.1-4.12-6.47-6.75-.11-.13-.22-.25-.33-.37-.33-.37-.63-.71-.9-1.04l-.15-.18c-.55-.66-.93-1.2-1.05-1.5-.92-2.31,3.36-5.52,5.49-8.04.75-.89,2.08-1.01,2.97-.26,1.22,1.03,2.86,2.48,4.36,3.93,2.07,2.01,3.87,4.01,3.87,4.84-.01.58-2.09,4.22-3.79,6.99-1.04,1.7-1.94,3.07-2.13,3.19ZM706.95,465.6c-.51.88-1.7,1.07-2.44.38-1.67-1.53-4.38-4.07-6.01-5.83-.16-.18-.22-.46-.22-.77,0-.03,0-.06.01-.09,0-.38.1-.79.21-1.05.86-1.89,3.41-5.32,4.79-7.62.37-.63,1.21-.77,1.76-.29,1.43,1.27,3.54,3.4,4.98,5.03,1,1.14,1.17,2.79.42,4.1l-3.5,6.14ZM715.39,473.89c-2.34-1.38-4.46-2.78-6.46-4.26-.46-.34-.61-.95-.37-1.47l3.46-7.63c.38-.81,1.36-1.18,2.15-.76,6,3.14,5.76,8.65,1.22,14.12ZM363.08,547.68c-.63,3.31-1.35,11.78-2.55,14.61-.04.09-.08.17-.12.25-.06.12-.15.28-.27.48,0,0-.01,0-.01.01-.12.2-.27.43-.44.7,0,0-.01,0-.01.01-.18.27-.38.57-.6.9-.23.32-.47.68-.73,1.05,0,0-.01,0-.01.01-.39.56-.82,1.16-1.27,1.8t-.01.01c-.3.43-.62.86-.94,1.3-.86,1.18-1.76,2.39-2.62,3.56.78.5,1.53,1.01,2.25,1.54.12.09.24.18.36.27.12.08.23.17.35.27,4.25-6.33,8.3-12.01,8.3-13.79v-.56s.23-12.23.23-12.23c0-1.16-1.69-1.33-1.91-.19ZM470.72,500.58c-.05.03-.1.07-.15.1-3.82,2.5-7.24,3.27-10.32,2.78-.29-.05-.57-.1-.86-.17-.28-.07-.56-.15-.84-.24-.89-.28-1.75-.67-2.58-1.15-.31-.18-.61-.37-.92-.58-.3-.2-.59-.42-.89-.65-.04-.03-.07-.06-.11-.09h-5c9.29,9.55,18.9,6.99,26.96,0h-5.29ZM363.08,547.68c-.63,3.31-1.35,11.78-2.55,14.61-.04.09-.08.17-.12.25-.06.12-.15.28-.27.48,0,0-.01,0-.01.01-.12.2-.27.43-.44.7,0,0-.01,0-.01.01-.18.27-.38.57-.6.9-.23.32-.47.68-.73,1.05,0,0-.01,0-.01.01-.39.56-.82,1.16-1.27,1.8t-.01.01c-.3.43-.62.86-.94,1.3-.86,1.18-1.76,2.39-2.62,3.56.78.5,1.53,1.01,2.25,1.54.12.09.24.18.36.27.12.08.23.17.35.27,4.25-6.33,8.3-12.01,8.3-13.79v-.56s.23-12.23.23-12.23c0-1.16-1.69-1.33-1.91-.19Z"/>
        <path class="cls-2" d="M418.24,433.07s-.02.04-.02.06c-3.54,8.34-10.89,13.97-22.62,12.65-.31-.04-.63-.08-.93-.14-6.95-3.36-20.63-12.2-17.09-32.98,3.45-20.29,26.31-19.45,26.31-19.45-5.54-4.62-11.37-5.57-16.65-4.09-6.33,1.8-11.9,7.1-15.28,13.72-1.6,3.12-2.71,6.54-3.18,10.04-1.29,9.37,1.42,15.54,3,24.42-1.15,1.3-4.45-4.23-4.82-4.92-9.18-17.44-.73-46.11,20.85-48.7,14.1-1.68,24.12,7.1,29.16,18.57,4.37,9.96,5.01,21.92,1.27,30.82Z"/>
        <path class="cls-2" d="M459.77,564.51c-1.04-.71-8.79-1.3-10.38-.95-3.04.68-4.6,5.4-2.58,6.88,1.27.94,5.58,1.58,8.8,1.57,1.56-1.08,3.18-2.06,4.86-2.92.41-1.8.19-3.98-.7-4.58ZM458.17,569.61c-.33.34-8.97.1-9.33-1.17-1.27-4.4,8.91-2.28,9.28-1.89.12.15.16,2.95.05,3.06Z"/>
        <g>
          <path class="cls-2" d="M536.71,378.67c11.92,3.19,20.77,14.63,20.77,28.2,0,11.74-6.61,21.87-16.1,26.46,8.02-5.32,13.4-15.03,13.4-26.09,0-13.1-7.53-24.3-18.07-28.58M529.96,376.79c-4.63,0-9.02,1.17-12.87,3.24,3.12-1.42,6.54-2.21,10.14-2.21,14.67,0,26.55,13.17,26.55,29.44s-11.88,29.42-26.55,29.42c-.53,0-1.07-.02-1.58-.06,1.4.24,2.85.36,4.31.36,15.76,0,28.53-13.48,28.53-30.09s-12.77-30.09-28.53-30.09h0Z"/>
          <path class="cls-2" d="M569.26,407.11c-.16,1.4-2.93,14.53-6.01,11.51-.44-.43,1.62-10.06,1.62-12.06-.08-22.77-22.85-42.66-44.68-29.83-1.7,1.01-3.95,2.77-5.36,4.49-7.06,4.13-12.24,11.68-13.72,20.68.87-14.39,9.03-28.88,24.97-33.29,24.26-6.7,46,14.06,43.18,38.51Z"/>
          <path class="cls-2" d="M553.78,407.25c0,16.25-11.88,29.42-26.55,29.42-.53,0-1.07-.02-1.58-.06-13.94-.91-24.97-13.7-24.97-29.36,0-1.84.16-3.62.43-5.36,1.48-9,6.66-16.55,13.72-20.68-.1.12-.2.24-.28.36.81-.55,1.66-1.07,2.53-1.54,3.12-1.42,6.54-2.21,10.14-2.21,14.67,0,26.55,13.17,26.55,29.44Z"/>
          <path class="cls-2" d="M517.09,380.03c-.87.47-1.72.99-2.53,1.54.08-.12.18-.24.28-.36.73-.43,1.48-.83,2.25-1.19Z"/>
        </g>
        <path class="cls-2" d="M394.48,393.52c-7.03,1.96-15.82,6.85-17.89,18.97-1.85,10.87.82,20.15,7.6,27.02-4.18-3.39-10.6-10.31-10.6-20.93,0-12.85,9.13-23.5,20.89-25.06M397.48,392.32c-13.74,0-24.89,11.75-24.89,26.26,0,9.29,4.9,17,11.49,22.12,3,2.31,6.4,4.29,10.59,4.94-6.95-3.36-20.63-12.2-17.09-32.98,3.19-18.74,22.93-19.45,25.93-19.45.25,0,.38,0,.38,0-2.04-.59-4.19-.89-6.41-.89h0Z"/>
      </g>
      <g>
        <path class="cls-2" d="M716.62,569.26c5.3,0,13.27,1.02,21.1,5.85,9.21,5.69,16.26,15.37,20.97,28.79,3.5,9.99,5.84,21.94,7.16,36.54l.82,9.07,7.22-5.56c12.08-9.3,29.56-14.02,51.96-14.02,24.99,0,42.85,5.48,53.1,16.3,7.9,8.34,9.56,18.1,9.56,24.82,0,8.63-1.82,15.76-5.4,21.2l-1.99,3.01,2.23,2.83c7.45,9.46,11.23,21.69,11.23,36.37,0,18.13-5.93,33.21-17.15,43.6-11.33,10.49-27.8,16.03-47.64,16.03-24.24,0-42.02-3.45-54.36-10.54-5.16-2.97-9.41-6.58-12.66-10.73l-4.64-5.94-3.67,6.58c-7.62,13.68-19.33,20.62-34.8,20.62-6.47,0-16.01-2.08-23.41-7.93l-3.01-2.38-3.08,2.29c-7.15,5.32-15.81,8.02-25.72,8.02-23.02,0-40.39-8.08-51.59-24-.72-1.04-1.26-1.84-1.73-2.6l-5.03-8.05-3.79,8.7c-9.34,21.45-25.15,25.95-36.76,25.95-9.61,0-23.1-3.14-32.81-18.1l-4.23-6.52-4.18,6.55c-7.44,11.65-19.96,18.07-35.24,18.07s-30.51-6.75-40.72-18.53l-4.19-4.83-3.68,5.24c-11.06,15.77-25.82,18.12-33.63,18.12-18.8,0-32.01-8.1-40.39-24.77l-4.65-9.24-4.35,9.39c-9.44,20.35-24.88,24.62-36.16,24.62s-27.1-4.37-36.68-25.16l-4.38-9.51-4.64,9.38c-8.43,17.02-21.76,25.29-40.76,25.29-14.46,0-25.33-4.9-32.29-14.57l-3.55-4.93-4.15,4.43c-9.24,9.86-21.96,15.07-36.76,15.07-22.2,0-36.75-11.35-44.47-34.7-5.82-17.59-8.19-42.57-8.19-86.21,0-30.97,2.83-53.05,8.9-69.47,4.79-12.97,11.73-22.41,20.63-28.07,6.67-4.24,14.45-6.39,23.13-6.39,15.68,0,27.09,5.34,34.88,16.32l3.73,5.26,4.16-4.92c.57-.68,1.2-1.38,1.87-2.1,8.89-9.53,19.99-14.56,32.11-14.56,15.57,0,27.91,6.66,36.68,19.81l4.55,6.82,3.98-7.17c4.92-8.88,16.08-19.46,41.25-19.46s36.24,10.71,41.1,19.7l3.88,7.17,4.64-6.7c9.25-13.38,22.37-20.16,38.98-20.16,13.86,0,26.18,5.54,33.81,15.19l3.56,4.5,3.97-4.14c9.77-10.17,21.7-15.55,34.51-15.55,16.43,0,26.09,6.26,31.31,11.52.92.92,1.83,1.95,2.71,3.05l3.87,4.87,3.93-4.82c7.79-9.56,20.92-14.62,37.97-14.62,15.61,0,27.57,4.11,35.56,12.21,8.53,8.65,9.81,19.17,9.81,24.67,0,11.51-5.08,21.41-14.31,27.89-.06.04-.12.09-.15.11l-5.45,3.2,4.38,4.56c3.52,3.67,6.44,8.17,8.69,13.37l3.65,8.44,5.1-7.65c11.06-16.6,28.34-26.12,47.39-26.12,2.64,0,5.47.24,8.39.72l5.56.9.24-5.63c.86-20.52,5.47-35.13,14.08-44.67,7.1-7.85,16.83-12,28.16-12M716.62,564.26c-12.78,0-23.8,4.72-31.87,13.65-9.36,10.36-14.46,26.13-15.37,47.81-3.14-.51-6.27-.78-9.19-.78-19.29,0-38.68,9.04-51.55,28.35-2.51-5.8-5.76-10.76-9.67-14.84.17-.1.34-.22.51-.34,10.59-7.43,16.42-18.78,16.42-31.97,0-19.32-13.2-41.88-50.37-41.88-20.78,0-34.11,6.96-41.85,16.46-.96-1.21-1.99-2.38-3.09-3.48-5.88-5.92-16.7-12.98-34.85-12.98-14.24,0-27.38,5.9-38.12,17.09-8.27-10.47-21.93-17.09-37.73-17.09-13.42,0-30.6,4.26-43.09,22.32-6.68-12.36-20.8-22.32-45.5-22.32s-38.84,9.81-45.62,22.03c-11.89-17.81-28.13-22.03-40.84-22.03-13.54,0-25.91,5.58-35.77,16.15-.69.74-1.37,1.5-2.03,2.28-8.78-12.37-21.67-18.43-38.96-18.43-15.75,0-36.93,6.55-48.45,37.73-6.29,17.01-9.21,39.64-9.21,71.2,0,44.2,2.44,69.63,8.44,87.78,8.37,25.3,24.93,38.13,49.22,38.13,16.23,0,30.19-5.75,40.41-16.65,6.39,8.87,17.26,16.65,36.35,16.65,20.83,0,36.01-9.43,45.24-28.07,11.1,24.1,29.98,28.07,41.22,28.07s29.75-3.91,40.7-27.52c9.19,18.27,24.24,27.52,44.86,27.52,9.24,0,25.5-2.83,37.72-20.25,10.02,11.55,25.52,20.25,44.5,20.25,17.43,0,31.21-7.48,39.45-20.38,11.21,17.28,27.08,20.38,37,20.38,11.34,0,30.5-4.07,41.34-28.95.6.96,1.23,1.89,1.87,2.81,12.21,17.35,30.94,26.14,55.69,26.14,11.07,0,20.77-3.1,28.71-9.01,8.27,6.54,18.86,9.01,26.51,9.01,12.73,0,28.72-4.43,39.17-23.19,3.65,4.67,8.37,8.68,14.1,11.98,13.12,7.54,31.72,11.21,56.86,11.21,43.04,0,69.79-24.76,69.79-64.63,0-15.87-4.13-29.09-12.3-39.46,3.41-5.17,6.23-12.81,6.23-23.95,0-13.87-6.6-46.12-67.66-46.12-23.55,0-42.03,5.06-55.01,15.06-1.36-15.12-3.81-27.46-7.42-37.75-11.6-33.05-34.3-37.99-46.79-37.99h0Z"/>
        <path class="cls-2" d="M281.13,643.75c-.52-7.59-1.34-14.95-2.53-21.93-1.68-9.87-4.09-18.97-7.43-26.89-7.86-18.6-20.88-30.67-41.74-30.67-16.08,0-29.13,9.71-37.93,24.27-7.28-15.17-19.72-24.27-38.83-24.27-42.48,0-52.19,50.36-52.19,103.46,0,76.45,8.2,120.44,52.19,120.44,16.68,0,30.94-7.28,40.65-22.75,5.16,11.53,14.57,22.75,36.11,22.75,24.8,0,38.32-13.99,45.4-39.89,5.47-20.04,7.08-47.21,7.08-80.55,0-8.12-.23-16.17-.78-23.97ZM229.43,776.63c-20.63,0-25.49-11.52-28.83-25.18,5.77-15.47,7.89-29.73,5.16-55.82-.3-2.73-2.73-5.16-5.76-5.16-3.34,0-6.07,3.03-5.77,6.07,5.46,57.34-13.35,80.09-41.56,80.09-33.98,0-40.66-34.28-40.66-108.91,0-51.58,8.2-91.93,40.66-91.93,17.9,0,26.7,8.49,31.85,26.09-6.67,16.69-9.4,33.07-7.58,51.88.3,3.03,2.73,5.46,5.76,5.46,3.34,0,6.07-3.03,5.77-6.37-2.73-39.44,12.74-77.06,40.96-77.06,32.76,0,40.95,40.35,40.95,91.93,0,74.63-6.97,108.91-40.95,108.91Z"/>
        <path class="cls-2" d="M339.56,631.61c5.08-2.29,9.48-5.36,12.94-9.14,5.22-5.71,8.29-13.04,8.29-21.8,0-1.96-.16-3.89-.48-5.76-2.95-17.52-19.47-30.65-44.42-30.65s-41.77,13.13-44.72,30.66h0c-.32,1.88-.48,3.79-.48,5.75,0,8.43,2.95,15.54,7.91,21.15,3.59,4.08,8.26,7.36,13.63,9.79-4.56,3.22-8.2,7.37-11.1,12.14-8.85,14.57-10.75,34.88-10.75,51.57,0,14.88.19,35.14,4.45,52.95,5.2,21.79,16.52,39.89,41.06,39.89s35.38-17.69,40.52-39.24c4.26-17.85,4.38-38.34,4.38-53.6,0-16.9-1.77-37.7-10.71-52.27-2.76-4.51-6.22-8.43-10.52-11.44ZM282.2,600.67c0-14.57,11.23-24.88,33.68-24.88s33.37,10.31,33.37,24.88c0,15.77-13.35,24.27-33.37,24.27s-33.68-8.5-33.68-24.27ZM315.88,776.63c-33.07,0-33.98-48.54-33.98-81.31,0-28.21,4.86-58.85,33.98-58.85s33.37,30.64,33.37,58.85c0,33.38-.6,81.31-33.37,81.31Z"/>
        <path class="cls-2" d="M514.61,695.12c-3.44-6.25-7.89-12.86-13.65-19.82,11.44-16.65,19-35.95,21.36-54.06.52-4,.79-7.93.79-11.77,0-9.23-1.75-17.05-4.87-23.46-7.04-14.47-21.09-21.75-37.91-21.75s-29.43,8.8-38.84,21.84c-6.37-13.65-22.45-21.84-37.01-21.84-22.29,0-35.99,12.08-44.17,30.65-3.57,8.1-6.09,17.45-7.81,27.56-1.12,6.57-1.9,13.48-2.42,20.58-.58,8.03-.82,16.32-.82,24.67,0,33.7,1.59,61.11,7.15,81.2,7.04,25.49,20.44,39.24,45.04,39.24,16.68,0,29.12-9.4,37.01-26.09,7.89,13.05,23.97,26.09,45.21,26.09,17.88,0,32.82-10.4,39.19-27.66,2.05-5.58,3.21-11.87,3.28-18.76,0-11.88-1.03-27.55-11.53-46.62ZM483.67,776.63c-21.85,0-36.41-16.08-39.44-28.82,3.64-12.74,5.46-28.21,5.46-42.78,0-3.33-2.43-5.76-5.77-5.76-3.03,0-5.76,2.43-5.76,5.76,0,45.21-13.05,71.6-36.71,71.6-33.98,0-40.66-34.28-40.66-108.91,0-51.58,8.19-91.93,43.69-91.93,14.56,0,28.52,8.49,29.13,23.36-8.8,18.51-12.44,41.26-10.93,57.04.31,3.03,2.73,5.46,5.77,5.46,3.34,0,6.07-2.73,5.76-6.07-3.33-34.89,14.26-79.79,46.12-79.79,19.11,0,31.25,10.01,31.25,33.68,0,26.09-13.05,56.43-34.89,76.45-2.13,1.82-2.43,4.85-.91,7.28,2.12,3.04,6.37,3.34,9.1.61,3.03-2.73,6.07-5.77,8.8-9.1,19.42,23.96,20.93,42.17,20.93,57.03-.3,22.76-12.44,34.89-30.94,34.89Z"/>
        <path class="cls-2" d="M601.85,662.49c-2.9-12.57-8.3-24.04-18.07-30.88,12.75-5.76,21.24-16.38,21.24-30.94,0-20.33-17.29-36.41-44.9-36.41-20.72,0-35.6,8.86-41.88,21.75-2.18,4.47-3.33,9.42-3.33,14.66,0,8.14,2.75,15.05,7.41,20.57,3.67,4.35,8.52,7.83,14.14,10.37-18.45,13.01-21.83,41.4-21.85,63.51v.2c0,18.42.28,45.13,8.25,65.18h0c6.33,15.94,17.51,27.66,37.26,27.66,23.98,0,35.15-17.34,40.36-38.59,4.41-18,4.54-38.8,4.54-54.25,0-10.26-.65-21.95-3.17-32.82h0ZM526.44,600.67c0-14.57,11.23-24.88,33.68-24.88s33.37,10.31,33.37,24.88c0,15.77-13.35,24.27-33.37,24.27s-33.68-8.5-33.68-24.27ZM560.12,776.63c-33.07,0-33.98-48.54-33.98-81.31,0-28.21,4.85-58.85,33.98-58.85s33.37,30.64,33.37,58.85c0,33.38-.6,81.31-33.37,81.31Z"/>
        <path class="cls-2" d="M676.62,680.16c-.91-1.52-3.03-2.73-5.16-2.73-4.55,0-6.98,4.85-4.85,8.49,4.55,8.49,4.85,25.48,0,36.71-1.82,3.64.91,8.19,5.16,8.19,2.42,0,4.55-1.52,5.15-3.64,6.38-13.95,6.07-35.5-.3-47.02ZM676.62,680.16c-.91-1.52-3.03-2.73-5.16-2.73-4.55,0-6.98,4.85-4.85,8.49,4.55,8.49,4.85,25.48,0,36.71-1.82,3.64.91,8.19,5.16,8.19,2.42,0,4.55-1.52,5.15-3.64,6.38-13.95,6.07-35.5-.3-47.02ZM760.75,647.35c-2.44-44.92-14.15-83.09-49.54-83.09-28.52,0-40.96,24.88-41.57,63.1-5.46-1.82-10.92-2.42-14.86-2.42-20.37,0-41.58,12.09-52.93,37.55h0c-5.23,11.72-8.36,26.26-8.36,43.76,0,16.19,2.19,30.93,6.99,43.32,9.13,23.59,27.71,38.59,58.54,38.59,10.32,0,20.33-3.34,28.83-11.22,6.97,7.58,18.81,11.22,26.39,11.22,20.05,0,31.74-10.61,38.44-30.37,3.85-11.31,6.06-25.6,7.27-42.62.02-.3.04-.6.06-.9.95-13.8,1.26-29.36,1.26-46.55,0-6.87-.16-13.7-.52-20.37ZM714.24,776.63c-6.07,0-14.56-2.73-18.81-8.19,2.43-3.64,4.25-7.58,6.07-13.04.91-2.43-.3-5.46-3.03-6.68-3.04-1.52-6.68.31-8.2,3.34-6.37,18.51-17.9,24.57-31.25,24.57-39.44,0-54-27-54-70.38,0-49.15,24.88-69.78,49.76-69.78,4.24,0,10.01.91,14.86,2.73.31,4.55.61,8.8,1.22,13.35.3,2.73,2.73,4.85,6.37,4.55,3.03-.61,5.16-3.34,4.85-6.68-4.85-47.93,3.95-74.63,29.13-74.63,30.64,0,38.53,40.35,38.53,91.93,0,74.63-5.16,108.91-35.5,108.91ZM671.45,677.43c-4.55,0-6.98,4.85-4.85,8.49,4.55,8.49,4.85,25.48,0,36.71-1.82,3.64.91,8.19,5.16,8.19,2.42,0,4.55-1.52,5.15-3.64,6.38-13.95,6.07-35.5-.3-47.02-.91-1.52-3.03-2.73-5.16-2.73Z"/>
        <path class="cls-2" d="M874.43,690.17c4.25-4.86,8.19-12.74,8.19-24.58,0-27.91-27.61-40.65-62.19-40.65-29.73,0-48.91,8.98-59.68,22.41-7.59,9.46-11.01,21.13-11.01,33.41,0,13.12,3.52,24.49,10.27,33.51.11.16.23.31.35.47-.14.14-.28.29-.41.43-5.87,6.05-10.21,14.74-10.21,27.18,0,5.59.98,10.76,2.94,15.44h0c7.97,19.2,32.19,30.37,71.69,30.37,42.78,0,64.32-26.39,64.32-59.16,0-15.77-4.85-28.82-14.26-38.83ZM824.37,776.63c-44.9,0-63.1-12.43-63.1-34.28,0-9.4,2.73-15.17,6.97-19.42,11.84,10.32,29.74,15.78,52.19,15.78,3.33,0,5.76-2.73,5.76-5.76,0-3.34-2.43-5.77-5.76-5.77-39.44,0-59.16-16.69-59.16-46.42,0-25.18,15.16-44.29,59.16-44.29,30.94,0,50.66,9.1,50.66,29.12,0,9.41-2.73,14.57-5.46,16.99-12.74-8.49-30.94-13.35-54.91-13.35-3.04,0-5.77,2.43-5.77,5.77,0,3.03,2.73,5.76,5.77,5.76,47.02,0,66.44,17.3,66.44,48.24,0,27.91-16.38,47.63-52.79,47.63Z"/>
      </g>
      <path class="cls-2" d="M716.28,373.01c-7.54,1.07-14.71,7.05-20.14,12.17-1.94,1.83-3.95,3.87-6.21,6.32-25.04-83.03-102.1-143.5-193.3-143.5s-171.21,62.81-194.68,148.3c-.77-1.02-1.36-1.74-1.78-2.22l-.83-.95c-5.87-6.71-13.85-15.82-23.24-16.29,22.39-101.18,112.63-176.84,220.53-176.84s195.85,73.76,219.65,173.01Z"/>
      <g>
        <path class="cls-2" d="M230.84,588.74c.54,0,1.1.02,1.66.06,4.68.36,8.5,5,10.88,8.83,6.3,10.14,9.73,25.48,10.58,34.27-9.11-17.08-20.33-25.4-34.21-25.4-3.54,0-7.23.53-11.17,1.62,2.86-7.29,9.53-19.39,22.25-19.39M230.84,585.74c-20.77,0-26.93,27.11-26.93,27.11,5.46-2.11,10.75-3.34,15.85-3.34,12.36,0,23.59,7.27,33.22,27.07,1.24,2.55,2.2,3.66,2.88,3.66,4.7,0-3.66-52.94-23.13-54.43-.65-.05-1.27-.07-1.89-.07h0Z"/>
        <path class="cls-2" d="M150.36,588.74c6.07,0,11,2.23,14.71,5.09-2.6-.81-5.54-1.38-8.72-1.38-8.33,0-15.95,3.79-22.79,11.3,3.66-7.73,8.42-14.27,14-14.85.94-.1,1.88-.15,2.8-.15h0M150.35,585.74c-1.01,0-2.04.05-3.11.17-16.6,1.75-24.41,40.91-24.41,40.91,11.12-25.06,23.54-31.37,33.51-31.37,10.12,0,17.71,6.5,18.83,6.5.21,0,.19-.23-.08-.77-2.93-5.85-11.23-15.44-24.74-15.44h0Z"/>
        <path class="cls-2" d="M478.99,588.75c.57,0,1.16.02,1.74.05,7,.41,11.51,4.11,13.77,11.3,3.72,11.82-.03,27.85-2.97,34.71-2.69-25.72-9.04-36.73-21.14-36.73-3.88,0-8.05,1.18-12.44,2.75,3.32-5.33,9.76-12.08,21.04-12.08M478.99,585.75c-20.78,0-26.91,20.52-26.91,20.52,6.85-2.64,13.03-5.19,18.31-5.19,9.12,0,15.58,7.59,18.29,35.35.29,3.02.99,4.32,1.9,4.32,5.77,0,19.86-53.21-9.67-54.94-.65-.04-1.29-.06-1.92-.06h0Z"/>
        <path class="cls-2" d="M398.53,588.74c6.07,0,11,2.23,14.71,5.09-2.6-.81-5.54-1.38-8.72-1.38-8.33,0-15.95,3.78-22.78,11.3,3.66-7.73,8.42-14.27,14-14.85.94-.1,1.88-.15,2.8-.15h0M398.53,585.74c-1.01,0-2.04.05-3.11.17-16.6,1.75-24.41,40.91-24.41,40.91,11.12-25.06,23.54-31.37,33.51-31.37,10.12,0,17.71,6.5,18.83,6.5.21,0,.19-.23-.08-.77-2.93-5.85-11.23-15.44-24.74-15.44h0Z"/>
        <path class="cls-2" d="M821.54,644.53h0c8.64,0,17.38,1.42,25.96,4.22,6.6,2.15,10.47,5.33,12.74,8.37-8.56-4.24-25.1-8.64-57.04-9.63-.13,0-.25-.02-.35-.05.19-.12.45-.25.79-.38,2.36-.94,8.78-2.53,17.9-2.53M821.53,641.53c-9.53,0-16.39,1.7-19.01,2.74-5.25,2.09-2.96,6.11.58,6.22,59.61,1.85,63.32,15.66,63.32,15.66,0,0,.81-14.13-18-20.26-10.12-3.3-19.35-4.36-26.89-4.36h0Z"/>
        <path class="cls-2" d="M314.34,583.85h0c2.23,0,4.45.28,6.59.83.03,0,.04.01.05.01h0c.04.06.05.19.04.3h-.31c-14.82,0-22.53,5.07-26.46,9.61.12-.39.26-.77.42-1.15,1.49-3.46,4.72-6.09,9.61-7.8,3.4-1.19,6.79-1.8,10.07-1.8M314.34,580.85c-3.33,0-7.03.55-11.06,1.97-18.67,6.55-11.08,23.46-11.08,23.46,0,0,.71-18.28,28.5-18.28.13,0,.27,0,.4,0h.02c3.52,0,3.97-5.33.55-6.22-2.19-.56-4.64-.93-7.34-.93h0Z"/>
        <path class="cls-2" d="M559.12,583.85h0c2.23,0,4.45.28,6.59.83.03,0,.04.01.05.01h0c.04.06.05.19.04.3h-.31c-14.82,0-22.53,5.08-26.46,9.61.12-.4.27-.8.44-1.2,1.5-3.44,4.72-6.05,9.59-7.76,3.4-1.19,6.79-1.8,10.07-1.8M559.12,580.85c-3.33,0-7.03.55-11.06,1.97-18.67,6.55-11.08,23.46-11.08,23.46,0,0,.71-18.28,28.5-18.28.13,0,.27,0,.4,0h.02c3.52,0,3.97-5.33.55-6.22-2.19-.56-4.64-.93-7.34-.93h0Z"/>
        <path class="cls-2" d="M314.24,647.11c2.36,0,4.58.59,6.8,1.8.86.47,1.07,1.14,1.11,1.62.04.54-.15.89-.25,1h-.38c-12.54,0-19.99,3.63-24.37,7.5,1.66-4.44,5.02-8.82,11.64-10.98,1.94-.63,3.73-.94,5.45-.94h0M314.24,644.11c-2.02,0-4.14.36-6.38,1.09-18.81,6.13-14.84,27.61-14.84,27.61,0,0,.71-18.28,28.5-18.28.13,0,.27,0,.4,0h.02c3.52,0,4.77-5.95.54-8.25-2.61-1.43-5.33-2.17-8.24-2.17h0Z"/>
        <path class="cls-2" d="M711.17,587.38c8.82,0,15,6.69,17.9,10.68,3.41,4.68,4.92,9.03,5.34,11.46-.12-.1-.26-.21-.4-.33-9.84-8.5-19.12-13-26.84-13-4.53,0-8.42,1.49-11.5,4.33,1.22-5.42,4.24-11.03,11.35-12.67,1.39-.32,2.78-.48,4.13-.48M711.17,584.38c-1.55,0-3.15.18-4.8.56-17.69,4.06-14.16,27.65-14.16,27.65,2.45-8.82,7.72-13.39,14.97-13.39,6.79,0,15.31,4.01,24.88,12.27,1.63,1.41,2.88,2.03,3.77,2.03,6.12,0-4.75-29.11-24.66-29.11h0Z"/>
        <path class="cls-2" d="M557.45,647.11c2.36,0,4.58.59,6.8,1.8.86.47,1.07,1.14,1.11,1.62.04.54-.15.89-.25,1h-.38c-12.52,0-19.97,3.62-24.35,7.48,1.99-5.41,5.88-9.09,11.62-10.96,1.94-.63,3.73-.94,5.45-.94h0M557.45,644.11c-2.02,0-4.14.36-6.38,1.09-18.81,6.13-14.84,27.61-14.84,27.61,0,0,.71-18.28,28.5-18.28.13,0,.27,0,.4,0h.02c3.52,0,4.77-5.95.54-8.25-2.61-1.43-5.33-2.17-8.24-2.17h0Z"/>
        <path class="cls-2" d="M830.13,691.55c1.62,0,3.51.35,5.95,1.11,14.31,4.43,23.21,12.56,26.46,24.19,0,.01,0,.03.01.04-.02-.03-.04-.07-.06-.1-7.04-11.24-17.8-17.18-31.13-17.18-2.63,0-5.41.23-8.25.69-.24-.56-.5-1.66-.4-3.01.12-1.59.68-2.93,1.5-3.58,1.88-1.49,3.71-2.16,5.92-2.16M830.13,688.55c-2.76,0-5.27.81-7.78,2.81-4.1,3.26-3,12.04.24,12.04.11,0,.21,0,.32-.03,3.02-.53,5.83-.77,8.45-.77,29.94,0,34.72,31.54,34.72,31.54,0,0,8.16-32.83-29.11-44.36-2.5-.77-4.74-1.24-6.84-1.24h0Z"/>
        <path class="cls-2" d="M648.01,647.63c1.69,0,3.37.5,5.15,1.53.91.52,1.66,1.77,2.01,3.32.3,1.32.21,2.44.05,3.03-.26,0-.53,0-.79,0-17.43,0-27.72,7.77-33.66,15.6,3.4-7.12,9.6-14.81,20.72-21.37,2.41-1.42,4.54-2.11,6.52-2.11M648.01,644.63c-2.59,0-5.22.86-8.04,2.53-32.42,19.1-25.48,47.48-25.48,47.48,0,0,3.24-36.12,39.94-36.13.48,0,.95,0,1.44.02.02,0,.03,0,.05,0,3.49,0,3.4-9.27-1.26-11.97-2.25-1.3-4.44-1.93-6.65-1.93h0Z"/>
      </g>
    </g>
  </g>
</svg>