<?xml version="1.0" encoding="UTF-8"?>
<svg id="Elements" xmlns="http://www.w3.org/2000/svg" viewBox="0 0 1500 1000">
  <defs>
    <style>
      .cls-1 {
        fill: #231f20;
      }
    </style>
  </defs>
  <path class="cls-1" d="M248.53,665.56h0c5.99,16.18,18.74,28.94,34.93,34.93h0c17.89,6.62,17.89,31.92,0,38.53h0c-16.18,5.99-28.94,18.74-34.93,34.93h0c-6.62,17.89-31.92,17.89-38.53,0h0c-5.99-16.18-18.74-28.94-34.93-34.93h0c-17.89-6.62-17.89-31.92,0-38.53h0c16.18-5.99,28.94-18.74,34.93-34.93h0c6.62-17.89,31.92-17.89,38.53,0Z"/>
  <path class="cls-1" d="M506.59,669.72l-44.38,76.87c-8.93,15.46,2.23,34.79,20.09,34.79h88.76c17.85,0,29.01-19.33,20.09-34.79l-44.38-76.87c-8.93-15.46-31.25-15.46-40.17,0Z"/>
  <path class="cls-1" d="M439.46,742.37c4.1,11.2,1.4,23.39-7.04,31.83-5.83,5.83-13.45,8.91-21.3,8.91-3.51,0-7.07-.6-10.53-1.88-14.59-5.34-30.65-5.34-45.23,0-11.21,4.1-23.41,1.4-31.85-7.04-8.44-8.44-11.13-20.63-7.02-31.83,5.34-14.59,5.34-30.65,0-45.23-4.11-11.21-1.42-23.41,7.02-31.85,8.44-8.44,20.63-11.13,31.85-7.02,7.3,2.66,14.95,4,22.61,4s15.33-1.34,22.62-4c11.2-4.11,23.39-1.42,31.83,7.02,8.44,8.44,11.13,20.63,7.04,31.85-5.34,14.58-5.34,30.64,0,45.23Z"/>
  <path class="cls-1" d="M736.7,726.03c0,8.12-5.19,16.23-14.47,18.04-.92.17-1.88.29-2.88.35,1.47,2.86,2.14,5.74,2.14,8.49,0,8.93-6.98,16.45-15.41,17.92-4.52.8-9.46-.16-13.95-3.57-2.15,9.46-9.96,14.18-17.77,14.18s-15.61-4.72-17.76-14.18c-3.51,2.67-7.31,3.83-10.95,3.83-1.01,0-2.02-.09-3-.27-11.02-1.92-19.55-14.19-13.26-26.41-11.07-.54-17.36-9.46-17.36-18.38,0-6.7,3.53-13.4,11.18-16.62-4.15-3.85-5.94-8.54-5.94-13.14,0-11.17,10.58-21.7,23.71-17.63-.11-.87-.16-1.72-.16-2.55,0-17.48,23.53-25.17,33.55-9.6,10.5-16.31,35.82-7.1,33.38,12.15,1.98-.61,3.89-.89,5.72-.89,15.36,0,24.77,19.89,12.06,31.66,6.87,2.89,10.42,8.59,11.06,14.58.08.68.12,1.37.12,2.04Z"/>
  <path class="cls-1" d="M841.31,665.56h0c5.99,16.18,18.74,28.94,34.93,34.93h0c17.89,6.62,17.89,31.92,0,38.53h0c-16.18,5.99-28.94,18.74-34.93,34.93h0c-6.62,17.89-31.92,17.89-38.53,0h0c-5.99-16.18-18.74-28.94-34.93-34.93h0c-17.89-6.62-17.89-31.92,0-38.53h0c16.18-5.99,28.94-18.74,34.93-34.93h0c6.62-17.89,31.92-17.89,38.53,0Z"/>
  <path class="cls-1" d="M1099.37,669.72l-44.38,76.87c-8.93,15.46,2.23,34.79,20.09,34.79h88.76c17.85,0,29.01-19.33,20.09-34.79l-44.38-76.87c-8.93-15.46-31.25-15.46-40.17,0Z"/>
  <path class="cls-1" d="M1032.24,742.37c4.1,11.2,1.4,23.39-7.04,31.83-5.83,5.83-13.45,8.91-21.3,8.91-3.51,0-7.07-.6-10.53-1.88-14.59-5.34-30.65-5.34-45.23,0-11.21,4.1-23.41,1.4-31.85-7.04-8.44-8.44-11.13-20.63-7.02-31.83,5.34-14.59,5.34-30.65,0-45.23-4.11-11.21-1.42-23.41,7.02-31.85,8.44-8.44,20.63-11.13,31.85-7.02,7.3,2.66,14.95,4,22.61,4s15.33-1.34,22.62-4c11.2-4.11,23.39-1.42,31.83,7.02,8.44,8.44,11.13,20.63,7.04,31.85-5.34,14.58-5.34,30.64,0,45.23Z"/>
  <path class="cls-1" d="M1329.48,726.03c0,8.12-5.19,16.23-14.47,18.04-.92.17-1.88.29-2.88.35,1.47,2.86,2.14,5.74,2.14,8.49,0,8.93-6.98,16.45-15.41,17.92-4.52.8-9.46-.16-13.95-3.57-2.15,9.46-9.96,14.18-17.77,14.18s-15.61-4.72-17.76-14.18c-3.51,2.67-7.31,3.83-10.95,3.83-1.01,0-2.02-.09-3-.27-11.02-1.92-19.55-14.19-13.26-26.41-11.07-.54-17.36-9.46-17.36-18.38,0-6.7,3.53-13.4,11.18-16.62-4.15-3.85-5.94-8.54-5.94-13.14,0-11.17,10.58-21.7,23.71-17.63-.11-.87-.16-1.72-.16-2.55,0-17.48,23.53-25.17,33.55-9.6,10.5-16.31,35.82-7.1,33.38,12.15,1.98-.61,3.89-.89,5.72-.89,15.36,0,24.77,19.89,12.06,31.66,6.87,2.89,10.42,8.59,11.06,14.58.08.68.12,1.37.12,2.04Z"/>
  <path class="cls-1" d="M543.89,525.02h0c5.99,16.18,18.74,28.94,34.93,34.93h0c17.89,6.62,17.89,31.92,0,38.53h0c-16.18,5.99-28.94,18.74-34.93,34.93h0c-6.62,17.89-31.92,17.89-38.53,0h0c-5.99-16.18-18.74-28.94-34.93-34.93h0c-17.89-6.62-17.89-31.92,0-38.53h0c16.18-5.99,28.94-18.74,34.93-34.93h0c6.62-17.89,31.92-17.89,38.53,0Z"/>
  <path class="cls-1" d="M801.95,529.18l-44.38,76.87c-8.93,15.46,2.23,34.79,20.09,34.79h88.76c17.85,0,29.01-19.33,20.09-34.79l-44.38-76.87c-8.93-15.46-31.25-15.46-40.17,0Z"/>
  <path class="cls-1" d="M734.82,601.84c4.1,11.2,1.4,23.39-7.04,31.83-5.83,5.83-13.45,8.91-21.3,8.91-3.51,0-7.07-.6-10.53-1.88-14.59-5.34-30.65-5.34-45.23,0-11.21,4.1-23.41,1.4-31.85-7.04-8.44-8.44-11.13-20.63-7.02-31.83,5.34-14.59,5.34-30.65,0-45.23-4.11-11.21-1.42-23.41,7.02-31.85,8.44-8.44,20.63-11.13,31.85-7.02,7.3,2.66,14.95,4,22.61,4s15.33-1.34,22.62-4c11.2-4.11,23.39-1.42,31.83,7.02,8.44,8.44,11.13,20.63,7.04,31.85-5.34,14.58-5.34,30.64,0,45.23Z"/>
  <path class="cls-1" d="M1032.06,585.49c0,8.12-5.19,16.23-14.47,18.04-.92.17-1.88.29-2.88.35,1.47,2.86,2.14,5.74,2.14,8.49,0,8.93-6.98,16.45-15.41,17.92-4.52.8-9.46-.16-13.95-3.57-2.15,9.46-9.96,14.18-17.77,14.18s-15.61-4.72-17.76-14.18c-3.51,2.67-7.31,3.83-10.95,3.83-1.01,0-2.02-.09-3-.27-11.02-1.92-19.55-14.19-13.26-26.41-11.07-.54-17.36-9.46-17.36-18.38,0-6.7,3.53-13.4,11.18-16.62-4.15-3.85-5.94-8.54-5.94-13.14,0-11.17,10.58-21.7,23.71-17.63-.11-.87-.16-1.72-.16-2.55,0-17.48,23.53-25.17,33.55-9.6,10.5-16.31,35.82-7.1,33.38,12.15,1.98-.61,3.89-.89,5.72-.89,15.36,0,24.77,19.89,12.06,31.66,6.87,2.89,10.42,8.59,11.06,14.58.08.68.12,1.37.12,2.04Z"/>
  <path class="cls-1" d="M1136.67,525.02h0c5.99,16.18,18.74,28.94,34.93,34.93h0c17.89,6.62,17.89,31.92,0,38.53h0c-16.18,5.99-28.94,18.74-34.93,34.93h0c-6.62,17.89-31.92,17.89-38.53,0h0c-5.99-16.18-18.74-28.94-34.93-34.93h0c-17.89-6.62-17.89-31.92,0-38.53h0c16.18-5.99,28.94-18.74,34.93-34.93h0c6.62-17.89,31.92-17.89,38.53,0Z"/>
  <path class="cls-1" d="M209.17,529.18l-44.38,76.87c-8.93,15.46,2.23,34.79,20.09,34.79h88.76c17.85,0,29.01-19.33,20.09-34.79l-44.38-76.87c-8.93-15.46-31.25-15.46-40.17,0Z"/>
  <path class="cls-1" d="M1327.6,601.84c4.1,11.2,1.4,23.39-7.04,31.83-5.83,5.83-13.45,8.91-21.3,8.91-3.51,0-7.07-.6-10.53-1.88-14.59-5.34-30.65-5.34-45.23,0-11.21,4.1-23.41,1.4-31.85-7.04-8.44-8.44-11.13-20.63-7.02-31.83,5.34-14.59,5.34-30.65,0-45.23-4.11-11.21-1.42-23.41,7.02-31.85,8.44-8.44,20.63-11.13,31.85-7.02,7.3,2.66,14.95,4,22.61,4s15.33-1.34,22.62-4c11.2-4.11,23.39-1.42,31.83,7.02,8.44,8.44,11.13,20.63,7.04,31.85-5.34,14.58-5.34,30.64,0,45.23Z"/>
  <path class="cls-1" d="M439.28,585.49c0,8.12-5.19,16.23-14.47,18.04-.92.17-1.88.29-2.88.35,1.47,2.86,2.14,5.74,2.14,8.49,0,8.93-6.98,16.45-15.41,17.92-4.52.8-9.46-.16-13.95-3.57-2.15,9.46-9.96,14.18-17.77,14.18s-15.61-4.72-17.76-14.18c-3.51,2.67-7.31,3.83-10.95,3.83-1.01,0-2.02-.09-3-.27-11.02-1.92-19.55-14.19-13.26-26.41-11.07-.54-17.36-9.46-17.36-18.38,0-6.7,3.53-13.4,11.18-16.62-4.15-3.85-5.94-8.54-5.94-13.14,0-11.17,10.58-21.7,23.71-17.63-.11-.87-.16-1.72-.16-2.55,0-17.48,23.53-25.17,33.55-9.6,10.5-16.31,35.82-7.1,33.38,12.15,1.98-.61,3.89-.89,5.72-.89,15.36,0,24.77,19.89,12.06,31.66,6.87,2.89,10.42,8.59,11.06,14.58.08.68.12,1.37.12,2.04Z"/>
  <path class="cls-1" d="M399.81,378.5h0c5.99,16.18,18.74,28.94,34.93,34.93h0c17.89,6.62,17.89,31.92,0,38.53h0c-16.18,5.99-28.94,18.74-34.93,34.93h0c-6.62,17.89-31.92,17.89-38.53,0h0c-5.99-16.18-18.74-28.94-34.93-34.93h0c-17.89-6.62-17.89-31.92,0-38.53h0c16.18-5.99,28.94-18.74,34.93-34.93h0c6.62-17.89,31.92-17.89,38.53,0Z"/>
  <path class="cls-1" d="M657.87,382.67l-44.38,76.87c-8.93,15.46,2.23,34.79,20.09,34.79h88.76c17.85,0,29.01-19.33,20.09-34.79l-44.38-76.87c-8.93-15.46-31.25-15.46-40.17,0Z"/>
  <path class="cls-1" d="M590.74,455.32c4.1,11.2,1.4,23.39-7.04,31.83-5.83,5.83-13.45,8.91-21.3,8.91-3.51,0-7.07-.6-10.53-1.88-14.59-5.34-30.65-5.34-45.23,0-11.21,4.1-23.41,1.4-31.85-7.04-8.44-8.44-11.13-20.63-7.02-31.83,5.34-14.59,5.34-30.65,0-45.23-4.11-11.21-1.42-23.41,7.02-31.85,8.44-8.44,20.63-11.13,31.85-7.02,7.3,2.66,14.95,4,22.61,4s15.33-1.34,22.62-4c11.2-4.11,23.39-1.42,31.83,7.02,8.44,8.44,11.13,20.63,7.04,31.85-5.34,14.58-5.34,30.64,0,45.23Z"/>
  <path class="cls-1" d="M887.98,438.97c0,8.12-5.19,16.23-14.47,18.04-.92.17-1.88.29-2.88.35,1.47,2.86,2.14,5.74,2.14,8.49,0,8.93-6.98,16.45-15.41,17.92-4.52.8-9.46-.16-13.95-3.57-2.15,9.46-9.96,14.18-17.77,14.18s-15.61-4.72-17.76-14.18c-3.51,2.67-7.31,3.83-10.95,3.83-1.01,0-2.02-.09-3-.27-11.02-1.92-19.55-14.19-13.26-26.41-11.07-.54-17.36-9.46-17.36-18.38,0-6.7,3.53-13.4,11.18-16.62-4.15-3.85-5.94-8.54-5.94-13.14,0-11.17,10.58-21.7,23.71-17.63-.11-.87-.16-1.72-.16-2.55,0-17.48,23.53-25.17,33.55-9.6,10.5-16.31,35.82-7.1,33.38,12.15,1.98-.61,3.89-.89,5.72-.89,15.36,0,24.77,19.89,12.06,31.66,6.87,2.89,10.42,8.59,11.06,14.58.08.68.12,1.37.12,2.04Z"/>
  <path class="cls-1" d="M992.59,378.5h0c5.99,16.18,18.74,28.94,34.93,34.93h0c17.89,6.62,17.89,31.92,0,38.53h0c-16.18,5.99-28.94,18.74-34.93,34.93h0c-6.62,17.89-31.92,17.89-38.53,0h0c-5.99-16.18-18.74-28.94-34.93-34.93h0c-17.89-6.62-17.89-31.92,0-38.53h0c16.18-5.99,28.94-18.74,34.93-34.93h0c6.62-17.89,31.92-17.89,38.53,0Z"/>
  <path class="cls-1" d="M1250.66,382.67l-44.38,76.87c-8.93,15.46,2.23,34.79,20.09,34.79h88.76c17.85,0,29.01-19.33,20.09-34.79l-44.38-76.87c-8.93-15.46-31.25-15.46-40.17,0Z"/>
  <path class="cls-1" d="M1183.52,455.32c4.1,11.2,1.4,23.39-7.04,31.83-5.83,5.83-13.45,8.91-21.3,8.91-3.51,0-7.07-.6-10.53-1.88-14.59-5.34-30.65-5.34-45.23,0-11.21,4.1-23.41,1.4-31.85-7.04-8.44-8.44-11.13-20.63-7.02-31.83,5.34-14.59,5.34-30.65,0-45.23-4.11-11.21-1.42-23.41,7.02-31.85,8.44-8.44,20.63-11.13,31.85-7.02,7.3,2.66,14.95,4,22.61,4s15.33-1.34,22.62-4c11.2-4.11,23.39-1.42,31.83,7.02,8.44,8.44,11.13,20.63,7.04,31.85-5.34,14.58-5.34,30.64,0,45.23Z"/>
  <path class="cls-1" d="M295.2,438.97c0,8.12-5.19,16.23-14.47,18.04-.92.17-1.88.29-2.88.35,1.47,2.86,2.14,5.74,2.14,8.49,0,8.93-6.98,16.45-15.41,17.92-4.52.8-9.46-.16-13.95-3.57-2.15,9.46-9.96,14.18-17.77,14.18s-15.61-4.72-17.76-14.18c-3.51,2.67-7.31,3.83-10.95,3.83-1.01,0-2.02-.09-3-.27-11.02-1.92-19.55-14.19-13.26-26.41-11.07-.54-17.36-9.46-17.36-18.38,0-6.7,3.53-13.4,11.18-16.62-4.15-3.85-5.94-8.54-5.94-13.14,0-11.17,10.58-21.7,23.71-17.63-.11-.87-.16-1.72-.16-2.55,0-17.48,23.53-25.17,33.55-9.6,10.5-16.31,35.82-7.1,33.38,12.15,1.98-.61,3.89-.89,5.72-.89,15.36,0,24.77,19.89,12.06,31.66,6.87,2.89,10.42,8.59,11.06,14.58.08.68.12,1.37.12,2.04Z"/>
  <path class="cls-1" d="M697.23,226.05h0c5.99,16.18,18.74,28.94,34.93,34.93h0c17.89,6.62,17.89,31.92,0,38.53h0c-16.18,5.99-28.94,18.74-34.93,34.93h0c-6.62,17.89-31.92,17.89-38.53,0h0c-5.99-16.18-18.74-28.94-34.93-34.93h0c-17.89-6.62-17.89-31.92,0-38.53h0c16.18-5.99,28.94-18.74,34.93-34.93h0c6.62-17.89,31.92-17.89,38.53,0Z"/>
  <path class="cls-1" d="M955.29,230.22l-44.38,76.87c-8.93,15.46,2.23,34.79,20.09,34.79h88.76c17.85,0,29.01-19.33,20.09-34.79l-44.38-76.87c-8.93-15.46-31.25-15.46-40.17,0Z"/>
  <path class="cls-1" d="M888.16,302.87c4.1,11.2,1.4,23.39-7.04,31.83-5.83,5.83-13.45,8.91-21.3,8.91-3.51,0-7.07-.6-10.53-1.88-14.59-5.34-30.65-5.34-45.23,0-11.21,4.1-23.41,1.4-31.85-7.04-8.44-8.44-11.13-20.63-7.02-31.83,5.34-14.59,5.34-30.65,0-45.23-4.11-11.21-1.42-23.41,7.02-31.85,8.44-8.44,20.63-11.13,31.85-7.02,7.3,2.66,14.95,4,22.61,4s15.33-1.34,22.62-4c11.2-4.11,23.39-1.42,31.83,7.02,8.44,8.44,11.13,20.63,7.04,31.85-5.34,14.58-5.34,30.64,0,45.23Z"/>
  <path class="cls-1" d="M1185.4,286.52c0,8.12-5.19,16.23-14.47,18.04-.92.17-1.88.29-2.88.35,1.47,2.86,2.14,5.74,2.14,8.49,0,8.93-6.98,16.45-15.41,17.92-4.52.8-9.46-.16-13.95-3.57-2.15,9.46-9.96,14.18-17.77,14.18s-15.61-4.72-17.76-14.18c-3.51,2.67-7.31,3.83-10.95,3.83-1.01,0-2.02-.09-3-.27-11.02-1.92-19.55-14.19-13.26-26.41-11.07-.54-17.36-9.46-17.36-18.38,0-6.7,3.53-13.4,11.18-16.62-4.15-3.85-5.94-8.54-5.94-13.14,0-11.17,10.58-21.7,23.71-17.63-.11-.87-.16-1.72-.16-2.55,0-17.48,23.53-25.17,33.55-9.6,10.5-16.31,35.82-7.1,33.38,12.15,1.98-.61,3.89-.89,5.72-.89,15.36,0,24.77,19.89,12.06,31.66,6.87,2.89,10.42,8.59,11.06,14.58.08.68.12,1.37.12,2.04Z"/>
  <path class="cls-1" d="M1290.01,226.05h0c5.99,16.18,18.74,28.94,34.93,34.93h0c17.89,6.62,17.89,31.92,0,38.53h0c-16.18,5.99-28.94,18.74-34.93,34.93h0c-6.62,17.89-31.92,17.89-38.53,0h0c-5.99-16.18-18.74-28.94-34.93-34.93h0c-17.89-6.62-17.89-31.92,0-38.53h0c16.18-5.99,28.94-18.74,34.93-34.93h0c6.62-17.89,31.92-17.89,38.53,0Z"/>
  <path class="cls-1" d="M362.51,230.22l-44.38,76.87c-8.93,15.46,2.23,34.79,20.09,34.79h88.76c17.85,0,29.01-19.33,20.09-34.79l-44.38-76.87c-8.93-15.46-31.25-15.46-40.17,0Z"/>
  <path class="cls-1" d="M295.38,302.87c4.1,11.2,1.4,23.39-7.04,31.83-5.83,5.83-13.45,8.91-21.3,8.91-3.51,0-7.07-.6-10.53-1.88-14.59-5.34-30.65-5.34-45.23,0-11.21,4.1-23.41,1.4-31.85-7.04-8.44-8.44-11.13-20.63-7.02-31.83,5.34-14.59,5.34-30.65,0-45.23-4.11-11.21-1.42-23.41,7.02-31.85,8.44-8.44,20.63-11.13,31.85-7.02,7.3,2.66,14.95,4,22.61,4s15.33-1.34,22.62-4c11.2-4.11,23.39-1.42,31.83,7.02,8.44,8.44,11.13,20.63,7.04,31.85-5.34,14.58-5.34,30.64,0,45.23Z"/>
  <path class="cls-1" d="M592.62,286.52c0,8.12-5.19,16.23-14.47,18.04-.92.17-1.88.29-2.88.35,1.47,2.86,2.14,5.74,2.14,8.49,0,8.93-6.98,16.45-15.41,17.92-4.52.8-9.46-.16-13.95-3.57-2.15,9.46-9.96,14.18-17.77,14.18s-15.61-4.72-17.76-14.18c-3.51,2.67-7.31,3.83-10.95,3.83-1.01,0-2.02-.09-3-.27-11.02-1.92-19.55-14.19-13.26-26.41-11.07-.54-17.36-9.46-17.36-18.38,0-6.7,3.53-13.4,11.18-16.62-4.15-3.85-5.94-8.54-5.94-13.14,0-11.17,10.58-21.7,23.71-17.63-.11-.87-.16-1.72-.16-2.55,0-17.48,23.53-25.17,33.55-9.6,10.5-16.31,35.82-7.1,33.38,12.15,1.98-.61,3.89-.89,5.72-.89,15.36,0,24.77,19.89,12.06,31.66,6.87,2.89,10.42,8.59,11.06,14.58.08.68.12,1.37.12,2.04Z"/>
</svg>