<?xml version="1.0" encoding="UTF-8"?>
<svg xmlns="http://www.w3.org/2000/svg" viewBox="0 0 1000 1000">
  <defs>
    <style>
      .cls-1 {
        fill: #231f20;
      }

      .cls-2 {
        fill: #fff;
        font-family: Fredoka-Bold, Fredoka;
        font-size: 487.21px;
        font-variation-settings: 'wght' 700, 'wdth' 100;
        font-weight: 700;
      }
    </style>
  </defs>
  <g id="TEXT">
    <text class="cls-2" transform="translate(901.73 -616.75)"><tspan x="0" y="0">MAIN LOGO GUIDLINES</tspan></text>
  </g>
  <g id="Elements">
    <g>
      <g>
        <path class="cls-1" d="M251.4,693.61c-2.25,0-4.46-.59-6.42-1.72-2.68,1.55-5.85,2.08-8.91,1.47-3.06-.61-5.79-2.32-7.67-4.77-3.06.41-6.2-.31-8.8-2.05-2.6-1.74-4.46-4.36-5.26-7.34-2.99-.8-5.61-2.66-7.34-5.26-1.73-2.6-2.45-5.73-2.05-8.8-2.45-1.88-4.16-4.61-4.77-7.67-.61-3.06-.07-6.23,1.47-8.91-1.55-2.68-2.08-5.85-1.47-8.91.61-3.06,2.32-5.79,4.77-7.67-.4-3.06.31-6.2,2.05-8.8,1.74-2.6,4.36-4.46,7.34-5.26.8-2.99,2.66-5.61,5.26-7.34,2.6-1.73,5.73-2.45,8.8-2.05,1.88-2.45,4.61-4.16,7.67-4.77,3.06-.61,6.23-.07,8.91,1.47,2.68-1.55,5.85-2.08,8.91-1.47,3.06.61,5.79,2.32,7.67,4.77,3.06-.4,6.2.31,8.8,2.05,2.6,1.74,4.46,4.36,5.26,7.34,2.99.8,5.61,2.66,7.34,5.26,1.73,2.6,2.45,5.73,2.05,8.8,2.45,1.88,4.16,4.61,4.77,7.67.61,3.06.07,6.23-1.47,8.91,1.55,2.68,2.08,5.85,1.47,8.91-.61,3.06-2.32,5.79-4.77,7.67.4,3.06-.31,6.2-2.05,8.8-1.74,2.6-4.36,4.46-7.34,5.26-.8,2.99-2.66,5.61-5.26,7.34-2.6,1.73-5.73,2.45-8.8,2.05-1.88,2.45-4.61,4.16-7.67,4.77-.83.16-1.66.25-2.49.25ZM244.98,683.81c1.17,0,2.34.37,3.32,1.1,1.19.89,2.64,1.22,4.09.93,1.45-.29,2.67-1.15,3.43-2.43,1.24-2.1,3.77-3.15,6.13-2.54,1.44.37,2.91.12,4.14-.7,1.23-.82,2.03-2.09,2.24-3.55.34-2.42,2.27-4.35,4.7-4.7,1.47-.21,2.73-1,3.55-2.24s1.07-2.7.71-4.14c-.61-2.37.44-4.89,2.54-6.14,1.28-.75,2.14-1.97,2.43-3.43.29-1.45-.04-2.91-.93-4.09-1.47-1.95-1.47-4.69,0-6.64.89-1.19,1.22-2.64.93-4.09-.29-1.45-1.15-2.67-2.43-3.43-2.1-1.24-3.15-3.77-2.54-6.13.37-1.44.12-2.91-.7-4.14s-2.09-2.03-3.55-2.24c-2.42-.34-4.35-2.27-4.7-4.7-.21-1.47-1-2.73-2.24-3.55-1.23-.82-2.7-1.07-4.14-.71-2.37.61-4.89-.44-6.14-2.54-.75-1.28-1.97-2.14-3.43-2.43-1.45-.29-2.91.04-4.09.93h0c-1.96,1.47-4.69,1.47-6.64,0-1.18-.89-2.64-1.22-4.09-.93-1.45.29-2.67,1.15-3.43,2.43-1.24,2.1-3.77,3.15-6.13,2.54-1.44-.37-2.91-.12-4.14.7-1.23.82-2.03,2.09-2.24,3.55-.34,2.42-2.27,4.35-4.7,4.7-1.47.21-2.73,1-3.55,2.24-.82,1.23-1.07,2.7-.71,4.14.61,2.37-.44,4.89-2.54,6.14-1.28.75-2.14,1.97-2.43,3.43-.29,1.45.04,2.91.93,4.09,1.47,1.95,1.47,4.69,0,6.64-.89,1.19-1.22,2.64-.93,4.09.29,1.45,1.15,2.67,2.43,3.43,2.1,1.24,3.15,3.77,2.54,6.13-.37,1.44-.12,2.91.71,4.14.82,1.23,2.09,2.03,3.55,2.24,2.42.34,4.35,2.27,4.7,4.7.21,1.47,1,2.73,2.24,3.55,1.23.82,2.7,1.08,4.14.71,2.37-.61,4.89.44,6.14,2.54.75,1.28,1.97,2.14,3.43,2.43,1.46.29,2.91-.04,4.09-.93.98-.73,2.15-1.1,3.32-1.1Z"/>
        <path class="cls-1" d="M155.59,626.9h0c2.39,6.47,7.49,11.57,13.96,13.96h0c7.15,2.65,7.15,12.76,0,15.4h0c-6.47,2.39-11.57,7.49-13.96,13.96h0c-2.65,7.15-12.76,7.15-15.4,0h0c-2.39-6.47-7.49-11.57-13.96-13.96h0c-7.15-2.65-7.15-12.76,0-15.4h0c6.47-2.39,11.57-7.49,13.96-13.96h0c2.65-7.15,12.76-7.15,15.4,0Z"/>
        <path class="cls-1" d="M237.35,726.06l-17.74,30.73c-3.57,6.18.89,13.91,8.03,13.91h35.48c7.14,0,11.6-7.73,8.03-13.91l-17.74-30.73c-3.57-6.18-12.49-6.18-16.06,0Z"/>
        <path class="cls-1" d="M171.46,791.11c-2.5,0-5.03-.44-7.49-1.34-10.37-3.8-21.78-3.8-32.15,0-7.96,2.92-16.64,1-22.63-5s-7.91-14.67-4.99-22.63c3.8-10.37,3.8-21.78,0-32.15-2.92-7.96-1-16.64,4.99-22.63,6-6,14.67-7.91,22.63-5h0c10.37,3.8,21.78,3.8,32.15,0,7.97-2.92,16.64-1,22.63,5,6,6,7.91,14.67,4.99,22.63-3.8,10.37-3.8,21.78,0,32.15,2.92,7.96,1,16.64-4.99,22.63-4.14,4.14-9.56,6.34-15.14,6.34ZM124.28,708.67c-3.56,0-6.98,1.41-9.67,4.1-3.92,3.92-5.12,9.37-3.22,14.57,4.42,12.07,4.42,25.36,0,37.42-1.91,5.21-.7,10.65,3.22,14.57,3.92,3.92,9.37,5.12,14.57,3.22,12.07-4.42,25.36-4.42,37.42,0,5.21,1.91,10.65.7,14.57-3.22,3.92-3.92,5.12-9.37,3.22-14.57-4.42-12.07-4.42-25.36,0-37.42,1.91-5.21.7-10.65-3.22-14.57-3.92-3.92-9.37-5.12-14.57-3.22-12.07,4.42-25.36,4.42-37.42,0h0c-1.63-.6-3.28-.89-4.9-.89Z"/>
      </g>
      <g>
        <path class="cls-1" d="M453.77,693.61c-2.25,0-4.46-.59-6.42-1.72-2.68,1.55-5.85,2.08-8.91,1.47-3.06-.61-5.79-2.32-7.67-4.77-3.06.41-6.2-.31-8.8-2.05-2.6-1.74-4.46-4.36-5.26-7.34-2.99-.8-5.61-2.66-7.34-5.26-1.73-2.6-2.45-5.73-2.05-8.8-2.45-1.88-4.16-4.61-4.77-7.67-.61-3.06-.07-6.23,1.47-8.91-1.55-2.68-2.08-5.85-1.47-8.91.61-3.06,2.32-5.79,4.77-7.67-.4-3.06.31-6.2,2.05-8.8,1.74-2.6,4.36-4.46,7.34-5.26.8-2.99,2.66-5.61,5.26-7.34,2.6-1.73,5.73-2.45,8.8-2.05,1.88-2.45,4.61-4.16,7.67-4.77,3.06-.61,6.23-.07,8.91,1.47,2.68-1.55,5.85-2.08,8.91-1.47,3.06.61,5.79,2.32,7.67,4.77,3.06-.4,6.2.31,8.8,2.05,2.6,1.74,4.46,4.36,5.26,7.34,2.99.8,5.61,2.66,7.34,5.26,1.73,2.6,2.45,5.73,2.05,8.8,2.45,1.88,4.16,4.61,4.77,7.67.61,3.06.07,6.23-1.47,8.91,1.55,2.68,2.08,5.85,1.47,8.91-.61,3.06-2.32,5.79-4.77,7.67.4,3.06-.31,6.2-2.05,8.8-1.74,2.6-4.36,4.46-7.34,5.26-.8,2.99-2.66,5.61-5.26,7.34-2.6,1.73-5.73,2.45-8.8,2.05-1.88,2.45-4.61,4.16-7.67,4.77-.83.16-1.66.25-2.49.25ZM447.36,683.81c1.17,0,2.34.37,3.32,1.1,1.19.89,2.64,1.22,4.09.93,1.45-.29,2.67-1.15,3.43-2.43,1.24-2.1,3.77-3.15,6.13-2.54,1.44.37,2.91.12,4.14-.7,1.23-.82,2.03-2.09,2.24-3.55.34-2.42,2.27-4.35,4.7-4.7,1.47-.21,2.73-1,3.55-2.24.82-1.23,1.07-2.7.71-4.14-.61-2.37.44-4.89,2.54-6.14,1.28-.75,2.14-1.97,2.43-3.43.29-1.45-.04-2.91-.93-4.09-1.47-1.95-1.47-4.69,0-6.64.89-1.19,1.22-2.64.93-4.09-.29-1.45-1.15-2.67-2.43-3.43-2.1-1.24-3.15-3.77-2.54-6.13.37-1.44.12-2.91-.7-4.14-.82-1.23-2.09-2.03-3.55-2.24-2.42-.34-4.35-2.27-4.7-4.7-.21-1.47-1-2.73-2.24-3.55-1.23-.82-2.7-1.07-4.14-.71-2.37.61-4.89-.44-6.14-2.54-.75-1.28-1.97-2.14-3.43-2.43-1.45-.29-2.91.04-4.09.93h0c-1.96,1.47-4.69,1.47-6.64,0-1.18-.89-2.64-1.22-4.09-.93-1.45.29-2.67,1.15-3.43,2.43-1.24,2.1-3.77,3.15-6.13,2.54-1.44-.37-2.91-.12-4.14.7-1.23.82-2.03,2.09-2.24,3.55-.34,2.42-2.27,4.35-4.7,4.7-1.47.21-2.73,1-3.55,2.24-.82,1.23-1.07,2.7-.71,4.14.61,2.37-.44,4.89-2.54,6.14-1.28.75-2.14,1.97-2.43,3.43-.29,1.45.04,2.91.93,4.09,1.47,1.95,1.47,4.69,0,6.64-.89,1.19-1.22,2.64-.93,4.09.29,1.45,1.15,2.67,2.43,3.43,2.1,1.24,3.15,3.77,2.54,6.13-.37,1.44-.12,2.91.71,4.14.82,1.23,2.09,2.03,3.55,2.24,2.42.34,4.35,2.27,4.7,4.7.21,1.47,1,2.73,2.24,3.55,1.23.82,2.7,1.08,4.14.71,2.37-.61,4.89.44,6.14,2.54.75,1.28,1.97,2.14,3.43,2.43,1.46.29,2.91-.04,4.09-.93.98-.73,2.15-1.1,3.32-1.1Z"/>
        <path class="cls-1" d="M357.97,626.9h0c2.39,6.47,7.49,11.57,13.96,13.96h0c7.15,2.65,7.15,12.76,0,15.4h0c-6.47,2.39-11.57,7.49-13.96,13.96h0c-2.65,7.15-12.76,7.15-15.4,0h0c-2.39-6.47-7.49-11.57-13.96-13.96h0c-7.15-2.65-7.15-12.76,0-15.4h0c6.47-2.39,11.57-7.49,13.96-13.96h0c2.65-7.15,12.76-7.15,15.4,0Z"/>
        <path class="cls-1" d="M439.73,726.06l-17.74,30.73c-3.57,6.18.89,13.91,8.03,13.91h35.48c7.14,0,11.6-7.73,8.03-13.91l-17.74-30.73c-3.57-6.18-12.49-6.18-16.06,0Z"/>
        <path class="cls-1" d="M373.83,791.11c-2.5,0-5.03-.44-7.49-1.34-10.37-3.8-21.78-3.8-32.15,0-7.96,2.92-16.64,1-22.63-5-6-6-7.91-14.67-4.99-22.63,3.8-10.37,3.8-21.78,0-32.15-2.92-7.96-1-16.64,4.99-22.63,6-6,14.67-7.91,22.63-5h0c10.37,3.8,21.78,3.8,32.15,0,7.97-2.92,16.64-1,22.63,5,6,6,7.91,14.67,4.99,22.63-3.8,10.37-3.8,21.78,0,32.15,2.92,7.96,1,16.64-4.99,22.63-4.14,4.14-9.56,6.34-15.14,6.34ZM326.65,708.67c-3.56,0-6.98,1.41-9.67,4.1-3.92,3.92-5.12,9.37-3.22,14.57,4.42,12.07,4.42,25.36,0,37.42-1.91,5.21-.7,10.65,3.22,14.57,3.92,3.92,9.37,5.12,14.57,3.22,12.07-4.42,25.36-4.42,37.42,0,5.21,1.91,10.65.7,14.57-3.22,3.92-3.92,5.12-9.37,3.22-14.57-4.42-12.07-4.42-25.36,0-37.42,1.91-5.21.7-10.65-3.22-14.57-3.92-3.92-9.37-5.12-14.57-3.22-12.07,4.42-25.36,4.42-37.42,0h0c-1.63-.6-3.28-.89-4.9-.89Z"/>
      </g>
      <g>
        <path class="cls-1" d="M656.15,693.61c-2.25,0-4.46-.59-6.42-1.72-2.68,1.55-5.85,2.08-8.91,1.47-3.06-.61-5.79-2.32-7.67-4.77-3.06.41-6.2-.31-8.8-2.05-2.6-1.74-4.46-4.36-5.26-7.34-2.99-.8-5.61-2.66-7.34-5.26-1.73-2.6-2.45-5.73-2.05-8.8-2.45-1.88-4.16-4.61-4.77-7.67-.61-3.06-.07-6.23,1.47-8.91-1.55-2.68-2.08-5.85-1.47-8.91.61-3.06,2.32-5.79,4.77-7.67-.4-3.06.31-6.2,2.05-8.8,1.74-2.6,4.36-4.46,7.34-5.26.8-2.99,2.66-5.61,5.26-7.34,2.6-1.73,5.73-2.45,8.8-2.05,1.88-2.45,4.61-4.16,7.67-4.77,3.06-.61,6.23-.07,8.91,1.47,2.68-1.55,5.85-2.08,8.91-1.47,3.06.61,5.79,2.32,7.67,4.77,3.06-.4,6.2.31,8.8,2.05,2.6,1.74,4.46,4.36,5.26,7.34,2.99.8,5.61,2.66,7.34,5.26,1.73,2.6,2.45,5.73,2.05,8.8,2.45,1.88,4.16,4.61,4.77,7.67.61,3.06.07,6.23-1.47,8.91,1.55,2.68,2.08,5.85,1.47,8.91-.61,3.06-2.32,5.79-4.77,7.67.4,3.06-.31,6.2-2.05,8.8-1.74,2.6-4.36,4.46-7.34,5.26-.8,2.99-2.66,5.61-5.26,7.34-2.6,1.73-5.73,2.45-8.8,2.05-1.88,2.45-4.61,4.16-7.67,4.77-.83.16-1.66.25-2.49.25ZM649.73,683.81c1.17,0,2.34.37,3.32,1.1,1.19.89,2.64,1.22,4.09.93,1.45-.29,2.67-1.15,3.43-2.43,1.24-2.1,3.77-3.15,6.13-2.54,1.44.37,2.91.12,4.14-.7,1.23-.82,2.03-2.09,2.24-3.55.34-2.42,2.27-4.35,4.7-4.7,1.47-.21,2.73-1,3.55-2.24s1.07-2.7.71-4.14c-.61-2.37.44-4.89,2.54-6.14,1.28-.75,2.14-1.97,2.43-3.43.29-1.45-.04-2.91-.93-4.09-1.47-1.95-1.47-4.69,0-6.64.89-1.19,1.22-2.64.93-4.09-.29-1.45-1.15-2.67-2.43-3.43-2.1-1.24-3.15-3.77-2.54-6.13.37-1.44.12-2.91-.7-4.14s-2.09-2.03-3.55-2.24c-2.42-.34-4.35-2.27-4.7-4.7-.21-1.47-1-2.73-2.24-3.55-1.23-.82-2.7-1.07-4.14-.71-2.37.61-4.89-.44-6.14-2.54-.75-1.28-1.97-2.14-3.43-2.43-1.45-.29-2.91.04-4.09.93h0c-1.96,1.47-4.69,1.47-6.64,0-1.18-.89-2.64-1.22-4.09-.93-1.45.29-2.67,1.15-3.43,2.43-1.24,2.1-3.77,3.15-6.13,2.54-1.44-.37-2.91-.12-4.14.7-1.23.82-2.03,2.09-2.24,3.55-.34,2.42-2.27,4.35-4.7,4.7-1.47.21-2.73,1-3.55,2.24s-1.07,2.7-.71,4.14c.61,2.37-.44,4.89-2.54,6.14-1.28.75-2.14,1.97-2.43,3.43-.29,1.45.04,2.91.93,4.09,1.47,1.95,1.47,4.69,0,6.64-.89,1.19-1.22,2.64-.93,4.09.29,1.45,1.15,2.67,2.43,3.43,2.1,1.24,3.15,3.77,2.54,6.13-.37,1.44-.12,2.91.71,4.14s2.09,2.03,3.55,2.24c2.42.34,4.35,2.27,4.7,4.7.21,1.47,1,2.73,2.24,3.55,1.23.82,2.7,1.08,4.14.71,2.37-.61,4.89.44,6.14,2.54.75,1.28,1.97,2.14,3.43,2.43,1.46.29,2.91-.04,4.09-.93.98-.73,2.15-1.1,3.32-1.1Z"/>
        <path class="cls-1" d="M560.34,626.9h0c2.39,6.47,7.49,11.57,13.96,13.96h0c7.15,2.65,7.15,12.76,0,15.4h0c-6.47,2.39-11.57,7.49-13.96,13.96h0c-2.65,7.15-12.76,7.15-15.4,0h0c-2.39-6.47-7.49-11.57-13.96-13.96h0c-7.15-2.65-7.15-12.76,0-15.4h0c6.47-2.39,11.57-7.49,13.96-13.96h0c2.65-7.15,12.76-7.15,15.4,0Z"/>
        <path class="cls-1" d="M642.11,726.06l-17.74,30.73c-3.57,6.18.89,13.91,8.03,13.91h35.48c7.14,0,11.6-7.73,8.03-13.91l-17.74-30.73c-3.57-6.18-12.49-6.18-16.06,0Z"/>
        <path class="cls-1" d="M576.21,791.11c-2.5,0-5.03-.44-7.49-1.34-10.37-3.8-21.78-3.8-32.15,0-7.96,2.92-16.64,1-22.63-5-6-6-7.91-14.67-4.99-22.63,3.8-10.37,3.8-21.78,0-32.15-2.92-7.96-1-16.64,4.99-22.63,6-6,14.67-7.91,22.63-5h0c10.37,3.8,21.78,3.8,32.15,0,7.97-2.92,16.64-1,22.63,5,6,6,7.91,14.67,4.99,22.63-3.8,10.37-3.8,21.78,0,32.15,2.92,7.96,1,16.64-4.99,22.63-4.14,4.14-9.56,6.34-15.14,6.34ZM529.03,708.67c-3.56,0-6.98,1.41-9.67,4.1-3.92,3.92-5.12,9.37-3.22,14.57,4.42,12.07,4.42,25.36,0,37.42-1.91,5.21-.7,10.65,3.22,14.57,3.92,3.92,9.37,5.12,14.57,3.22,12.07-4.42,25.36-4.42,37.42,0,5.21,1.91,10.65.7,14.57-3.22,3.92-3.92,5.12-9.37,3.22-14.57-4.42-12.07-4.42-25.36,0-37.42,1.91-5.21.7-10.65-3.22-14.57-3.92-3.92-9.37-5.12-14.57-3.22-12.07,4.42-25.36,4.42-37.42,0h0c-1.63-.6-3.28-.89-4.9-.89Z"/>
      </g>
      <g>
        <path class="cls-1" d="M858.53,693.61c-2.25,0-4.46-.59-6.42-1.72-2.68,1.55-5.85,2.08-8.91,1.47-3.06-.61-5.79-2.32-7.67-4.77-3.06.41-6.2-.31-8.8-2.05-2.6-1.74-4.46-4.36-5.26-7.34-2.99-.8-5.61-2.66-7.34-5.26-1.73-2.6-2.45-5.73-2.05-8.8-2.45-1.88-4.16-4.61-4.77-7.67-.61-3.06-.07-6.23,1.47-8.91-1.55-2.68-2.08-5.85-1.47-8.91.61-3.06,2.32-5.79,4.77-7.67-.4-3.06.31-6.2,2.05-8.8,1.74-2.6,4.36-4.46,7.34-5.26.8-2.99,2.66-5.61,5.26-7.34,2.6-1.73,5.73-2.45,8.8-2.05,1.88-2.45,4.61-4.16,7.67-4.77,3.06-.61,6.23-.07,8.91,1.47,2.68-1.55,5.85-2.08,8.91-1.47,3.06.61,5.79,2.32,7.67,4.77,3.06-.4,6.2.31,8.8,2.05,2.6,1.74,4.46,4.36,5.26,7.34,2.99.8,5.61,2.66,7.34,5.26,1.73,2.6,2.45,5.73,2.05,8.8,2.45,1.88,4.16,4.61,4.77,7.67.61,3.06.07,6.23-1.47,8.91,1.55,2.68,2.08,5.85,1.47,8.91-.61,3.06-2.32,5.79-4.77,7.67.4,3.06-.31,6.2-2.05,8.8-1.74,2.6-4.36,4.46-7.34,5.26-.8,2.99-2.66,5.61-5.26,7.34-2.6,1.73-5.73,2.45-8.8,2.05-1.88,2.45-4.61,4.16-7.67,4.77-.83.16-1.66.25-2.49.25ZM852.11,683.81c1.17,0,2.34.37,3.32,1.1,1.19.89,2.64,1.22,4.09.93,1.45-.29,2.67-1.15,3.43-2.43,1.24-2.1,3.77-3.15,6.13-2.54,1.44.37,2.91.12,4.14-.7,1.23-.82,2.03-2.09,2.24-3.55.34-2.42,2.27-4.35,4.7-4.7,1.47-.21,2.73-1,3.55-2.24.82-1.23,1.07-2.7.71-4.14-.61-2.37.44-4.89,2.54-6.14,1.28-.75,2.14-1.97,2.43-3.43.29-1.45-.04-2.91-.93-4.09-1.47-1.95-1.47-4.69,0-6.64.89-1.19,1.22-2.64.93-4.09-.29-1.45-1.15-2.67-2.43-3.43-2.1-1.24-3.15-3.77-2.54-6.13.37-1.44.12-2.91-.7-4.14-.82-1.23-2.09-2.03-3.55-2.24-2.42-.34-4.35-2.27-4.7-4.7-.21-1.47-1-2.73-2.24-3.55-1.23-.82-2.7-1.07-4.14-.71-2.37.61-4.89-.44-6.14-2.54-.75-1.28-1.97-2.14-3.43-2.43-1.45-.29-2.91.04-4.09.93h0c-1.96,1.47-4.69,1.47-6.64,0-1.18-.89-2.64-1.22-4.09-.93-1.45.29-2.67,1.15-3.43,2.43-1.24,2.1-3.77,3.15-6.13,2.54-1.44-.37-2.91-.12-4.14.7-1.23.82-2.03,2.09-2.24,3.55-.34,2.42-2.27,4.35-4.7,4.7-1.47.21-2.73,1-3.55,2.24s-1.07,2.7-.71,4.14c.61,2.37-.44,4.89-2.54,6.14-1.28.75-2.14,1.97-2.43,3.43-.29,1.45.04,2.91.93,4.09,1.47,1.95,1.47,4.69,0,6.64-.89,1.19-1.22,2.64-.93,4.09.29,1.45,1.15,2.67,2.43,3.43,2.1,1.24,3.15,3.77,2.54,6.13-.37,1.44-.12,2.91.71,4.14s2.09,2.03,3.55,2.24c2.42.34,4.35,2.27,4.7,4.7.21,1.47,1,2.73,2.24,3.55,1.23.82,2.7,1.08,4.14.71,2.37-.61,4.89.44,6.14,2.54.75,1.28,1.97,2.14,3.43,2.43,1.46.29,2.91-.04,4.09-.93.98-.73,2.15-1.1,3.32-1.1Z"/>
        <path class="cls-1" d="M762.72,626.9h0c2.39,6.47,7.49,11.57,13.96,13.96h0c7.15,2.65,7.15,12.76,0,15.4h0c-6.47,2.39-11.57,7.49-13.96,13.96h0c-2.65,7.15-12.76,7.15-15.4,0h0c-2.39-6.47-7.49-11.57-13.96-13.96h0c-7.15-2.65-7.15-12.76,0-15.4h0c6.47-2.39,11.57-7.49,13.96-13.96h0c2.65-7.15,12.76-7.15,15.4,0Z"/>
        <path class="cls-1" d="M844.48,726.06l-17.74,30.73c-3.57,6.18.89,13.91,8.03,13.91h35.48c7.14,0,11.6-7.73,8.03-13.91l-17.74-30.73c-3.57-6.18-12.49-6.18-16.06,0Z"/>
        <path class="cls-1" d="M778.58,791.11c-2.5,0-5.03-.44-7.49-1.34-10.37-3.8-21.78-3.8-32.15,0-7.96,2.92-16.64,1-22.63-5-6-6-7.91-14.67-4.99-22.63,3.8-10.37,3.8-21.78,0-32.15-2.92-7.96-1-16.64,4.99-22.63,6-6,14.67-7.91,22.63-5h0c10.37,3.8,21.78,3.8,32.15,0,7.97-2.92,16.64-1,22.63,5,6,6,7.91,14.67,4.99,22.63-3.8,10.37-3.8,21.78,0,32.15,2.92,7.96,1,16.64-4.99,22.63-4.14,4.14-9.56,6.34-15.14,6.34ZM731.4,708.67c-3.56,0-6.98,1.41-9.67,4.1-3.92,3.92-5.12,9.37-3.22,14.57,4.42,12.07,4.42,25.36,0,37.42-1.91,5.21-.7,10.65,3.22,14.57,3.92,3.92,9.37,5.12,14.57,3.22,12.07-4.42,25.36-4.42,37.42,0,5.21,1.91,10.65.7,14.57-3.22,3.92-3.92,5.12-9.37,3.22-14.57-4.42-12.07-4.42-25.36,0-37.42,1.91-5.21.7-10.65-3.22-14.57-3.92-3.92-9.37-5.12-14.57-3.22-12.07,4.42-25.36,4.42-37.42,0h0c-1.63-.6-3.28-.89-4.9-.89Z"/>
      </g>
      <g>
        <path class="cls-1" d="M251.4,495.46c-2.25,0-4.46-.59-6.42-1.72-2.68,1.55-5.85,2.08-8.91,1.47-3.06-.61-5.79-2.32-7.67-4.77-3.06.41-6.2-.31-8.8-2.05-2.6-1.74-4.46-4.36-5.26-7.34-2.99-.8-5.61-2.66-7.34-5.26-1.73-2.6-2.45-5.73-2.05-8.8-2.45-1.88-4.16-4.61-4.77-7.67-.61-3.06-.07-6.23,1.47-8.91-1.55-2.68-2.08-5.85-1.47-8.91.61-3.06,2.32-5.79,4.77-7.67-.4-3.06.31-6.2,2.05-8.8,1.74-2.6,4.36-4.46,7.34-5.26.8-2.99,2.66-5.61,5.26-7.34,2.6-1.73,5.73-2.45,8.8-2.05,1.88-2.45,4.61-4.16,7.67-4.77,3.06-.61,6.23-.07,8.91,1.47,2.68-1.55,5.85-2.08,8.91-1.47,3.06.61,5.79,2.32,7.67,4.77,3.06-.4,6.2.31,8.8,2.05,2.6,1.74,4.46,4.36,5.26,7.34,2.99.8,5.61,2.66,7.34,5.26,1.73,2.6,2.45,5.73,2.05,8.8,2.45,1.88,4.16,4.61,4.77,7.67.61,3.06.07,6.23-1.47,8.91,1.55,2.68,2.08,5.85,1.47,8.91-.61,3.06-2.32,5.79-4.77,7.67.4,3.06-.31,6.2-2.05,8.8-1.74,2.6-4.36,4.46-7.34,5.26-.8,2.99-2.66,5.61-5.26,7.34-2.6,1.73-5.73,2.45-8.8,2.05-1.88,2.45-4.61,4.16-7.67,4.77-.83.16-1.66.25-2.49.25ZM244.98,485.66c1.17,0,2.34.37,3.32,1.1,1.19.89,2.64,1.22,4.09.93,1.45-.29,2.67-1.15,3.43-2.43,1.24-2.1,3.77-3.15,6.13-2.54,1.44.37,2.91.12,4.14-.7,1.23-.82,2.03-2.09,2.24-3.55.34-2.42,2.27-4.35,4.7-4.7,1.47-.21,2.73-1,3.55-2.24s1.07-2.7.71-4.14c-.61-2.37.44-4.89,2.54-6.14,1.28-.75,2.14-1.97,2.43-3.43.29-1.45-.04-2.91-.93-4.09-1.47-1.95-1.47-4.69,0-6.64.89-1.19,1.22-2.64.93-4.09-.29-1.45-1.15-2.67-2.43-3.43-2.1-1.24-3.15-3.77-2.54-6.13.37-1.44.12-2.91-.7-4.14s-2.09-2.03-3.55-2.24c-2.42-.34-4.35-2.27-4.7-4.7-.21-1.47-1-2.73-2.24-3.55-1.23-.82-2.7-1.07-4.14-.71-2.37.61-4.89-.44-6.14-2.54-.75-1.28-1.97-2.14-3.43-2.43-1.45-.29-2.91.04-4.09.93h0c-1.96,1.47-4.69,1.47-6.64,0-1.18-.89-2.64-1.22-4.09-.93-1.45.29-2.67,1.15-3.43,2.43-1.24,2.1-3.77,3.15-6.13,2.54-1.44-.37-2.91-.12-4.14.7-1.23.82-2.03,2.09-2.24,3.55-.34,2.42-2.27,4.35-4.7,4.7-1.47.21-2.73,1-3.55,2.24-.82,1.23-1.07,2.7-.71,4.14.61,2.37-.44,4.89-2.54,6.14-1.28.75-2.14,1.97-2.43,3.43-.29,1.45.04,2.91.93,4.09,1.47,1.95,1.47,4.69,0,6.64-.89,1.19-1.22,2.64-.93,4.09.29,1.45,1.15,2.67,2.43,3.43,2.1,1.24,3.15,3.77,2.54,6.13-.37,1.44-.12,2.91.71,4.14s2.09,2.03,3.55,2.24c2.42.34,4.35,2.27,4.7,4.7.21,1.47,1,2.73,2.24,3.55,1.23.82,2.7,1.08,4.14.71,2.37-.61,4.89.44,6.14,2.54.75,1.28,1.97,2.14,3.43,2.43,1.46.29,2.91-.04,4.09-.93.98-.73,2.15-1.1,3.32-1.1Z"/>
        <path class="cls-1" d="M155.59,428.75h0c2.39,6.47,7.49,11.57,13.96,13.96h0c7.15,2.65,7.15,12.76,0,15.4h0c-6.47,2.39-11.57,7.49-13.96,13.96h0c-2.65,7.15-12.76,7.15-15.4,0h0c-2.39-6.47-7.49-11.57-13.96-13.96h0c-7.15-2.65-7.15-12.76,0-15.4h0c6.47-2.39,11.57-7.49,13.96-13.96h0c2.65-7.15,12.76-7.15,15.4,0Z"/>
        <path class="cls-1" d="M237.35,527.91l-17.74,30.73c-3.57,6.18.89,13.91,8.03,13.91h35.48c7.14,0,11.6-7.73,8.03-13.91l-17.74-30.73c-3.57-6.18-12.49-6.18-16.06,0Z"/>
        <path class="cls-1" d="M171.46,592.95c-2.5,0-5.03-.44-7.49-1.34-10.37-3.8-21.78-3.8-32.15,0-7.96,2.92-16.64,1-22.63-5-6-6-7.91-14.67-4.99-22.63,3.8-10.37,3.8-21.78,0-32.15-2.92-7.96-1-16.64,4.99-22.63,6-6,14.67-7.91,22.63-5h0c10.37,3.8,21.78,3.8,32.15,0,7.97-2.92,16.64-1,22.63,5,6,6,7.91,14.67,4.99,22.63-3.8,10.37-3.8,21.78,0,32.15,2.92,7.96,1,16.64-4.99,22.63-4.14,4.14-9.56,6.34-15.14,6.34ZM124.28,510.52c-3.56,0-6.98,1.41-9.67,4.1-3.92,3.92-5.12,9.37-3.22,14.57,4.42,12.07,4.42,25.36,0,37.42-1.91,5.21-.7,10.65,3.22,14.57,3.92,3.92,9.37,5.12,14.57,3.22,12.07-4.42,25.36-4.42,37.42,0,5.21,1.91,10.65.7,14.57-3.22,3.92-3.92,5.12-9.37,3.22-14.57-4.42-12.07-4.42-25.36,0-37.42,1.91-5.21.7-10.65-3.22-14.57-3.92-3.92-9.37-5.12-14.57-3.22-12.07,4.42-25.36,4.42-37.42,0h0c-1.63-.6-3.28-.89-4.9-.89Z"/>
      </g>
      <g>
        <path class="cls-1" d="M453.77,495.46c-2.25,0-4.46-.59-6.42-1.72-2.68,1.55-5.85,2.08-8.91,1.47-3.06-.61-5.79-2.32-7.67-4.77-3.06.41-6.2-.31-8.8-2.05-2.6-1.74-4.46-4.36-5.26-7.34-2.99-.8-5.61-2.66-7.34-5.26-1.73-2.6-2.45-5.73-2.05-8.8-2.45-1.88-4.16-4.61-4.77-7.67-.61-3.06-.07-6.23,1.47-8.91-1.55-2.68-2.08-5.85-1.47-8.91.61-3.06,2.32-5.79,4.77-7.67-.4-3.06.31-6.2,2.05-8.8,1.74-2.6,4.36-4.46,7.34-5.26.8-2.99,2.66-5.61,5.26-7.34,2.6-1.73,5.73-2.45,8.8-2.05,1.88-2.45,4.61-4.16,7.67-4.77,3.06-.61,6.23-.07,8.91,1.47,2.68-1.55,5.85-2.08,8.91-1.47,3.06.61,5.79,2.32,7.67,4.77,3.06-.4,6.2.31,8.8,2.05,2.6,1.74,4.46,4.36,5.26,7.34,2.99.8,5.61,2.66,7.34,5.26,1.73,2.6,2.45,5.73,2.05,8.8,2.45,1.88,4.16,4.61,4.77,7.67.61,3.06.07,6.23-1.47,8.91,1.55,2.68,2.08,5.85,1.47,8.91-.61,3.06-2.32,5.79-4.77,7.67.4,3.06-.31,6.2-2.05,8.8-1.74,2.6-4.36,4.46-7.34,5.26-.8,2.99-2.66,5.61-5.26,7.34-2.6,1.73-5.73,2.45-8.8,2.05-1.88,2.45-4.61,4.16-7.67,4.77-.83.16-1.66.25-2.49.25ZM447.36,485.66c1.17,0,2.34.37,3.32,1.1,1.19.89,2.64,1.22,4.09.93,1.45-.29,2.67-1.15,3.43-2.43,1.24-2.1,3.77-3.15,6.13-2.54,1.44.37,2.91.12,4.14-.7,1.23-.82,2.03-2.09,2.24-3.55.34-2.42,2.27-4.35,4.7-4.7,1.47-.21,2.73-1,3.55-2.24.82-1.23,1.07-2.7.71-4.14-.61-2.37.44-4.89,2.54-6.14,1.28-.75,2.14-1.97,2.43-3.43.29-1.45-.04-2.91-.93-4.09-1.47-1.95-1.47-4.69,0-6.64.89-1.19,1.22-2.64.93-4.09-.29-1.45-1.15-2.67-2.43-3.43-2.1-1.24-3.15-3.77-2.54-6.13.37-1.44.12-2.91-.7-4.14-.82-1.23-2.09-2.03-3.55-2.24-2.42-.34-4.35-2.27-4.7-4.7-.21-1.47-1-2.73-2.24-3.55-1.23-.82-2.7-1.07-4.14-.71-2.37.61-4.89-.44-6.14-2.54-.75-1.28-1.97-2.14-3.43-2.43-1.45-.29-2.91.04-4.09.93h0c-1.96,1.47-4.69,1.47-6.64,0-1.18-.89-2.64-1.22-4.09-.93-1.45.29-2.67,1.15-3.43,2.43-1.24,2.1-3.77,3.15-6.13,2.54-1.44-.37-2.91-.12-4.14.7-1.23.82-2.03,2.09-2.24,3.55-.34,2.42-2.27,4.35-4.7,4.7-1.47.21-2.73,1-3.55,2.24-.82,1.23-1.07,2.7-.71,4.14.61,2.37-.44,4.89-2.54,6.14-1.28.75-2.14,1.97-2.43,3.43-.29,1.45.04,2.91.93,4.09,1.47,1.95,1.47,4.69,0,6.64-.89,1.19-1.22,2.64-.93,4.09.29,1.45,1.15,2.67,2.43,3.43,2.1,1.24,3.15,3.77,2.54,6.13-.37,1.44-.12,2.91.71,4.14.82,1.23,2.09,2.03,3.55,2.24,2.42.34,4.35,2.27,4.7,4.7.21,1.47,1,2.73,2.24,3.55,1.23.82,2.7,1.08,4.14.71,2.37-.61,4.89.44,6.14,2.54.75,1.28,1.97,2.14,3.43,2.43,1.46.29,2.91-.04,4.09-.93.98-.73,2.15-1.1,3.32-1.1Z"/>
        <path class="cls-1" d="M357.97,428.75h0c2.39,6.47,7.49,11.57,13.96,13.96h0c7.15,2.65,7.15,12.76,0,15.4h0c-6.47,2.39-11.57,7.49-13.96,13.96h0c-2.65,7.15-12.76,7.15-15.4,0h0c-2.39-6.47-7.49-11.57-13.96-13.96h0c-7.15-2.65-7.15-12.76,0-15.4h0c6.47-2.39,11.57-7.49,13.96-13.96h0c2.65-7.15,12.76-7.15,15.4,0Z"/>
        <path class="cls-1" d="M439.73,527.91l-17.74,30.73c-3.57,6.18.89,13.91,8.03,13.91h35.48c7.14,0,11.6-7.73,8.03-13.91l-17.74-30.73c-3.57-6.18-12.49-6.18-16.06,0Z"/>
        <path class="cls-1" d="M373.83,592.95c-2.5,0-5.03-.44-7.49-1.34-10.37-3.8-21.78-3.8-32.15,0-7.96,2.92-16.64,1-22.63-5-6-6-7.91-14.67-4.99-22.63,3.8-10.37,3.8-21.78,0-32.15-2.92-7.96-1-16.64,4.99-22.63,6-6,14.67-7.91,22.63-5h0c10.37,3.8,21.78,3.8,32.15,0,7.97-2.92,16.64-1,22.63,5,6,6,7.91,14.67,4.99,22.63-3.8,10.37-3.8,21.78,0,32.15,2.92,7.96,1,16.64-4.99,22.63-4.14,4.14-9.56,6.34-15.14,6.34ZM326.65,510.52c-3.56,0-6.98,1.41-9.67,4.1-3.92,3.92-5.12,9.37-3.22,14.57,4.42,12.07,4.42,25.36,0,37.42-1.91,5.21-.7,10.65,3.22,14.57,3.92,3.92,9.37,5.12,14.57,3.22,12.07-4.42,25.36-4.42,37.42,0,5.21,1.91,10.65.7,14.57-3.22,3.92-3.92,5.12-9.37,3.22-14.57-4.42-12.07-4.42-25.36,0-37.42,1.91-5.21.7-10.65-3.22-14.57-3.92-3.92-9.37-5.12-14.57-3.22-12.07,4.42-25.36,4.42-37.42,0h0c-1.63-.6-3.28-.89-4.9-.89Z"/>
      </g>
      <g>
        <path class="cls-1" d="M656.15,495.46c-2.25,0-4.46-.59-6.42-1.72-2.68,1.55-5.85,2.08-8.91,1.47-3.06-.61-5.79-2.32-7.67-4.77-3.06.41-6.2-.31-8.8-2.05-2.6-1.74-4.46-4.36-5.26-7.34-2.99-.8-5.61-2.66-7.34-5.26-1.73-2.6-2.45-5.73-2.05-8.8-2.45-1.88-4.16-4.61-4.77-7.67-.61-3.06-.07-6.23,1.47-8.91-1.55-2.68-2.08-5.85-1.47-8.91.61-3.06,2.32-5.79,4.77-7.67-.4-3.06.31-6.2,2.05-8.8,1.74-2.6,4.36-4.46,7.34-5.26.8-2.99,2.66-5.61,5.26-7.34,2.6-1.73,5.73-2.45,8.8-2.05,1.88-2.45,4.61-4.16,7.67-4.77,3.06-.61,6.23-.07,8.91,1.47,2.68-1.55,5.85-2.08,8.91-1.47,3.06.61,5.79,2.32,7.67,4.77,3.06-.4,6.2.31,8.8,2.05,2.6,1.74,4.46,4.36,5.26,7.34,2.99.8,5.61,2.66,7.34,5.26,1.73,2.6,2.45,5.73,2.05,8.8,2.45,1.88,4.16,4.61,4.77,7.67.61,3.06.07,6.23-1.47,8.91,1.55,2.68,2.08,5.85,1.47,8.91-.61,3.06-2.32,5.79-4.77,7.67.4,3.06-.31,6.2-2.05,8.8-1.74,2.6-4.36,4.46-7.34,5.26-.8,2.99-2.66,5.61-5.26,7.34-2.6,1.73-5.73,2.45-8.8,2.05-1.88,2.45-4.61,4.16-7.67,4.77-.83.16-1.66.25-2.49.25ZM649.73,485.66c1.17,0,2.34.37,3.32,1.1,1.19.89,2.64,1.22,4.09.93,1.45-.29,2.67-1.15,3.43-2.43,1.24-2.1,3.77-3.15,6.13-2.54,1.44.37,2.91.12,4.14-.7,1.23-.82,2.03-2.09,2.24-3.55.34-2.42,2.27-4.35,4.7-4.7,1.47-.21,2.73-1,3.55-2.24.82-1.23,1.07-2.7.71-4.14-.61-2.37.44-4.89,2.54-6.14,1.28-.75,2.14-1.97,2.43-3.43.29-1.45-.04-2.91-.93-4.09-1.47-1.95-1.47-4.69,0-6.64.89-1.19,1.22-2.64.93-4.09-.29-1.45-1.15-2.67-2.43-3.43-2.1-1.24-3.15-3.77-2.54-6.13.37-1.44.12-2.91-.7-4.14s-2.09-2.03-3.55-2.24c-2.42-.34-4.35-2.27-4.7-4.7-.21-1.47-1-2.73-2.24-3.55-1.23-.82-2.7-1.07-4.14-.71-2.37.61-4.89-.44-6.14-2.54-.75-1.28-1.97-2.14-3.43-2.43-1.45-.29-2.91.04-4.09.93h0c-1.96,1.47-4.69,1.47-6.64,0-1.18-.89-2.64-1.22-4.09-.93-1.45.29-2.67,1.15-3.43,2.43-1.24,2.1-3.77,3.15-6.13,2.54-1.44-.37-2.91-.12-4.14.7-1.23.82-2.03,2.09-2.24,3.55-.34,2.42-2.27,4.35-4.7,4.7-1.47.21-2.73,1-3.55,2.24s-1.07,2.7-.71,4.14c.61,2.37-.44,4.89-2.54,6.14-1.28.75-2.14,1.97-2.43,3.43-.29,1.45.04,2.91.93,4.09,1.47,1.95,1.47,4.69,0,6.64-.89,1.19-1.22,2.64-.93,4.09.29,1.45,1.15,2.67,2.43,3.43,2.1,1.24,3.15,3.77,2.54,6.13-.37,1.44-.12,2.91.71,4.14s2.09,2.03,3.55,2.24c2.42.34,4.35,2.27,4.7,4.7.21,1.47,1,2.73,2.24,3.55,1.23.82,2.7,1.08,4.14.71,2.37-.61,4.89.44,6.14,2.54.75,1.28,1.97,2.14,3.43,2.43,1.46.29,2.91-.04,4.09-.93.98-.73,2.15-1.1,3.32-1.1Z"/>
        <path class="cls-1" d="M560.34,428.75h0c2.39,6.47,7.49,11.57,13.96,13.96h0c7.15,2.65,7.15,12.76,0,15.4h0c-6.47,2.39-11.57,7.49-13.96,13.96h0c-2.65,7.15-12.76,7.15-15.4,0h0c-2.39-6.47-7.49-11.57-13.96-13.96h0c-7.15-2.65-7.15-12.76,0-15.4h0c6.47-2.39,11.57-7.49,13.96-13.96h0c2.65-7.15,12.76-7.15,15.4,0Z"/>
        <path class="cls-1" d="M642.11,527.91l-17.74,30.73c-3.57,6.18.89,13.91,8.03,13.91h35.48c7.14,0,11.6-7.73,8.03-13.91l-17.74-30.73c-3.57-6.18-12.49-6.18-16.06,0Z"/>
        <path class="cls-1" d="M576.21,592.95c-2.5,0-5.03-.44-7.49-1.34-10.37-3.8-21.78-3.8-32.15,0-7.96,2.92-16.64,1-22.63-5-6-6-7.91-14.67-4.99-22.63,3.8-10.37,3.8-21.78,0-32.15-2.92-7.96-1-16.64,4.99-22.63,6-6,14.67-7.91,22.63-5h0c10.37,3.8,21.78,3.8,32.15,0,7.97-2.92,16.64-1,22.63,5,6,6,7.91,14.67,4.99,22.63-3.8,10.37-3.8,21.78,0,32.15,2.92,7.96,1,16.64-4.99,22.63-4.14,4.14-9.56,6.34-15.14,6.34ZM529.03,510.52c-3.56,0-6.98,1.41-9.67,4.1-3.92,3.92-5.12,9.37-3.22,14.57,4.42,12.07,4.42,25.36,0,37.42-1.91,5.21-.7,10.65,3.22,14.57,3.92,3.92,9.37,5.12,14.57,3.22,12.07-4.42,25.36-4.42,37.42,0,5.21,1.91,10.65.7,14.57-3.22,3.92-3.92,5.12-9.37,3.22-14.57-4.42-12.07-4.42-25.36,0-37.42,1.91-5.21.7-10.65-3.22-14.57-3.92-3.92-9.37-5.12-14.57-3.22-12.07,4.42-25.36,4.42-37.42,0h0c-1.63-.6-3.28-.89-4.9-.89Z"/>
      </g>
      <g>
        <path class="cls-1" d="M858.53,495.46c-2.25,0-4.46-.59-6.42-1.72-2.68,1.55-5.85,2.08-8.91,1.47-3.06-.61-5.79-2.32-7.67-4.77-3.06.41-6.2-.31-8.8-2.05-2.6-1.74-4.46-4.36-5.26-7.34-2.99-.8-5.61-2.66-7.34-5.26-1.73-2.6-2.45-5.73-2.05-8.8-2.45-1.88-4.16-4.61-4.77-7.67-.61-3.06-.07-6.23,1.47-8.91-1.55-2.68-2.08-5.85-1.47-8.91.61-3.06,2.32-5.79,4.77-7.67-.4-3.06.31-6.2,2.05-8.8,1.74-2.6,4.36-4.46,7.34-5.26.8-2.99,2.66-5.61,5.26-7.34,2.6-1.73,5.73-2.45,8.8-2.05,1.88-2.45,4.61-4.16,7.67-4.77,3.06-.61,6.23-.07,8.91,1.47,2.68-1.55,5.85-2.08,8.91-1.47,3.06.61,5.79,2.32,7.67,4.77,3.06-.4,6.2.31,8.8,2.05,2.6,1.74,4.46,4.36,5.26,7.34,2.99.8,5.61,2.66,7.34,5.26,1.73,2.6,2.45,5.73,2.05,8.8,2.45,1.88,4.16,4.61,4.77,7.67.61,3.06.07,6.23-1.47,8.91,1.55,2.68,2.08,5.85,1.47,8.91-.61,3.06-2.32,5.79-4.77,7.67.4,3.06-.31,6.2-2.05,8.8-1.74,2.6-4.36,4.46-7.34,5.26-.8,2.99-2.66,5.61-5.26,7.34-2.6,1.73-5.73,2.45-8.8,2.05-1.88,2.45-4.61,4.16-7.67,4.77-.83.16-1.66.25-2.49.25ZM852.11,485.66c1.17,0,2.34.37,3.32,1.1,1.19.89,2.64,1.22,4.09.93,1.45-.29,2.67-1.15,3.43-2.43,1.24-2.1,3.77-3.15,6.13-2.54,1.44.37,2.91.12,4.14-.7,1.23-.82,2.03-2.09,2.24-3.55.34-2.42,2.27-4.35,4.7-4.7,1.47-.21,2.73-1,3.55-2.24.82-1.23,1.07-2.7.71-4.14-.61-2.37.44-4.89,2.54-6.14,1.28-.75,2.14-1.97,2.43-3.43.29-1.45-.04-2.91-.93-4.09-1.47-1.95-1.47-4.69,0-6.64.89-1.19,1.22-2.64.93-4.09-.29-1.45-1.15-2.67-2.43-3.43-2.1-1.24-3.15-3.77-2.54-6.13.37-1.44.12-2.91-.7-4.14-.82-1.23-2.09-2.03-3.55-2.24-2.42-.34-4.35-2.27-4.7-4.7-.21-1.47-1-2.73-2.24-3.55-1.23-.82-2.7-1.07-4.14-.71-2.37.61-4.89-.44-6.14-2.54-.75-1.28-1.97-2.14-3.43-2.43-1.45-.29-2.91.04-4.09.93h0c-1.96,1.47-4.69,1.47-6.64,0-1.18-.89-2.64-1.22-4.09-.93-1.45.29-2.67,1.15-3.43,2.43-1.24,2.1-3.77,3.15-6.13,2.54-1.44-.37-2.91-.12-4.14.7-1.23.82-2.03,2.09-2.24,3.55-.34,2.42-2.27,4.35-4.7,4.7-1.47.21-2.73,1-3.55,2.24s-1.07,2.7-.71,4.14c.61,2.37-.44,4.89-2.54,6.14-1.28.75-2.14,1.97-2.43,3.43-.29,1.45.04,2.91.93,4.09,1.47,1.95,1.47,4.69,0,6.64-.89,1.19-1.22,2.64-.93,4.09.29,1.45,1.15,2.67,2.43,3.43,2.1,1.24,3.15,3.77,2.54,6.13-.37,1.44-.12,2.91.71,4.14s2.09,2.03,3.55,2.24c2.42.34,4.35,2.27,4.7,4.7.21,1.47,1,2.73,2.24,3.55,1.23.82,2.7,1.08,4.14.71,2.37-.61,4.89.44,6.14,2.54.75,1.28,1.97,2.14,3.43,2.43,1.46.29,2.91-.04,4.09-.93.98-.73,2.15-1.1,3.32-1.1Z"/>
        <path class="cls-1" d="M762.72,428.75h0c2.39,6.47,7.49,11.57,13.96,13.96h0c7.15,2.65,7.15,12.76,0,15.4h0c-6.47,2.39-11.57,7.49-13.96,13.96h0c-2.65,7.15-12.76,7.15-15.4,0h0c-2.39-6.47-7.49-11.57-13.96-13.96h0c-7.15-2.65-7.15-12.76,0-15.4h0c6.47-2.39,11.57-7.49,13.96-13.96h0c2.65-7.15,12.76-7.15,15.4,0Z"/>
        <path class="cls-1" d="M844.48,527.91l-17.74,30.73c-3.57,6.18.89,13.91,8.03,13.91h35.48c7.14,0,11.6-7.73,8.03-13.91l-17.74-30.73c-3.57-6.18-12.49-6.18-16.06,0Z"/>
        <path class="cls-1" d="M778.58,592.95c-2.5,0-5.03-.44-7.49-1.34-10.37-3.8-21.78-3.8-32.15,0-7.96,2.92-16.64,1-22.63-5-6-6-7.91-14.67-4.99-22.63,3.8-10.37,3.8-21.78,0-32.15-2.92-7.96-1-16.64,4.99-22.63,6-6,14.67-7.91,22.63-5h0c10.37,3.8,21.78,3.8,32.15,0,7.97-2.92,16.64-1,22.63,5,6,6,7.91,14.67,4.99,22.63-3.8,10.37-3.8,21.78,0,32.15,2.92,7.96,1,16.64-4.99,22.63-4.14,4.14-9.56,6.34-15.14,6.34ZM731.4,510.52c-3.56,0-6.98,1.41-9.67,4.1-3.92,3.92-5.12,9.37-3.22,14.57,4.42,12.07,4.42,25.36,0,37.42-1.91,5.21-.7,10.65,3.22,14.57,3.92,3.92,9.37,5.12,14.57,3.22,12.07-4.42,25.36-4.42,37.42,0,5.21,1.91,10.65.7,14.57-3.22,3.92-3.92,5.12-9.37,3.22-14.57-4.42-12.07-4.42-25.36,0-37.42,1.91-5.21.7-10.65-3.22-14.57-3.92-3.92-9.37-5.12-14.57-3.22-12.07,4.42-25.36,4.42-37.42,0h0c-1.63-.6-3.28-.89-4.9-.89Z"/>
      </g>
      <g>
        <path class="cls-1" d="M251.4,298.98c-2.25,0-4.46-.59-6.42-1.72-2.68,1.55-5.85,2.08-8.91,1.47-3.06-.61-5.79-2.32-7.67-4.77-3.06.41-6.2-.31-8.8-2.05-2.6-1.74-4.46-4.36-5.26-7.34-2.99-.8-5.61-2.66-7.34-5.26-1.73-2.6-2.45-5.73-2.05-8.8-2.45-1.88-4.16-4.61-4.77-7.67-.61-3.06-.07-6.23,1.47-8.91-1.55-2.68-2.08-5.85-1.47-8.91.61-3.06,2.32-5.79,4.77-7.67-.4-3.06.31-6.2,2.05-8.8,1.74-2.6,4.36-4.46,7.34-5.26.8-2.99,2.66-5.61,5.26-7.34,2.6-1.73,5.73-2.45,8.8-2.05,1.88-2.45,4.61-4.16,7.67-4.77,3.06-.61,6.23-.07,8.91,1.47,2.68-1.55,5.85-2.08,8.91-1.47,3.06.61,5.79,2.32,7.67,4.77,3.06-.4,6.2.31,8.8,2.05,2.6,1.74,4.46,4.36,5.26,7.34,2.99.8,5.61,2.66,7.34,5.26,1.73,2.6,2.45,5.73,2.05,8.8,2.45,1.88,4.16,4.61,4.77,7.67.61,3.06.07,6.23-1.47,8.91,1.55,2.68,2.08,5.85,1.47,8.91-.61,3.06-2.32,5.79-4.77,7.67.4,3.06-.31,6.2-2.05,8.8-1.74,2.6-4.36,4.46-7.34,5.26-.8,2.99-2.66,5.61-5.26,7.34-2.6,1.73-5.73,2.45-8.8,2.05-1.88,2.45-4.61,4.16-7.67,4.77-.83.16-1.66.25-2.49.25ZM244.98,289.18c1.17,0,2.34.37,3.32,1.1,1.19.89,2.64,1.22,4.09.93,1.45-.29,2.67-1.15,3.43-2.43,1.24-2.1,3.77-3.15,6.13-2.54,1.44.37,2.91.12,4.14-.7,1.23-.82,2.03-2.09,2.24-3.55.34-2.42,2.27-4.35,4.7-4.7,1.47-.21,2.73-1,3.55-2.24s1.07-2.7.71-4.14c-.61-2.37.44-4.89,2.54-6.14,1.28-.75,2.14-1.97,2.43-3.43.29-1.45-.04-2.91-.93-4.09-1.47-1.95-1.47-4.69,0-6.64.89-1.19,1.22-2.64.93-4.09-.29-1.45-1.15-2.67-2.43-3.43-2.1-1.24-3.15-3.77-2.54-6.13.37-1.44.12-2.91-.7-4.14s-2.09-2.03-3.55-2.24c-2.42-.34-4.35-2.27-4.7-4.7-.21-1.47-1-2.73-2.24-3.55-1.23-.82-2.7-1.07-4.14-.71-2.37.61-4.89-.44-6.14-2.54-.75-1.28-1.97-2.14-3.43-2.43-1.45-.29-2.91.04-4.09.93h0c-1.96,1.47-4.69,1.47-6.64,0-1.18-.89-2.64-1.22-4.09-.93-1.45.29-2.67,1.15-3.43,2.43-1.24,2.1-3.77,3.15-6.13,2.54-1.44-.37-2.91-.12-4.14.7-1.23.82-2.03,2.09-2.24,3.55-.34,2.42-2.27,4.35-4.7,4.7-1.47.21-2.73,1-3.55,2.24-.82,1.23-1.07,2.7-.71,4.14.61,2.37-.44,4.89-2.54,6.14-1.28.75-2.14,1.97-2.43,3.43-.29,1.45.04,2.91.93,4.09,1.47,1.95,1.47,4.69,0,6.64-.89,1.19-1.22,2.64-.93,4.09.29,1.45,1.15,2.67,2.43,3.43,2.1,1.24,3.15,3.77,2.54,6.13-.37,1.44-.12,2.91.71,4.14.82,1.23,2.09,2.03,3.55,2.24,2.42.34,4.35,2.27,4.7,4.7.21,1.47,1,2.73,2.24,3.55,1.23.82,2.7,1.08,4.14.71,2.37-.61,4.89.44,6.14,2.54.75,1.28,1.97,2.14,3.43,2.43,1.46.29,2.91-.04,4.09-.93.98-.73,2.15-1.1,3.32-1.1Z"/>
        <path class="cls-1" d="M155.59,232.27h0c2.39,6.47,7.49,11.57,13.96,13.96h0c7.15,2.65,7.15,12.76,0,15.4h0c-6.47,2.39-11.57,7.49-13.96,13.96h0c-2.65,7.15-12.76,7.15-15.4,0h0c-2.39-6.47-7.49-11.57-13.96-13.96h0c-7.15-2.65-7.15-12.76,0-15.4h0c6.47-2.39,11.57-7.49,13.96-13.96h0c2.65-7.15,12.76-7.15,15.4,0Z"/>
        <path class="cls-1" d="M237.35,331.43l-17.74,30.73c-3.57,6.18.89,13.91,8.03,13.91h35.48c7.14,0,11.6-7.73,8.03-13.91l-17.74-30.73c-3.57-6.18-12.49-6.18-16.06,0Z"/>
        <path class="cls-1" d="M171.46,396.48c-2.5,0-5.03-.44-7.49-1.34-10.37-3.8-21.78-3.8-32.15,0-7.96,2.92-16.64,1-22.63-5s-7.91-14.67-4.99-22.63c3.8-10.37,3.8-21.78,0-32.15-2.92-7.96-1-16.64,4.99-22.63,6-6,14.67-7.91,22.63-5h0c10.37,3.8,21.78,3.8,32.15,0,7.97-2.92,16.64-1,22.63,5,6,6,7.91,14.67,4.99,22.63-3.8,10.37-3.8,21.78,0,32.15,2.92,7.96,1,16.64-4.99,22.63-4.14,4.14-9.56,6.34-15.14,6.34ZM124.28,314.04c-3.56,0-6.98,1.41-9.67,4.1-3.92,3.92-5.12,9.37-3.22,14.57,4.42,12.07,4.42,25.36,0,37.42-1.91,5.21-.7,10.65,3.22,14.57,3.92,3.92,9.37,5.12,14.57,3.22,12.07-4.42,25.36-4.42,37.42,0,5.21,1.91,10.65.7,14.57-3.22,3.92-3.92,5.12-9.37,3.22-14.57-4.42-12.07-4.42-25.36,0-37.42,1.91-5.21.7-10.65-3.22-14.57-3.92-3.92-9.37-5.12-14.57-3.22-12.07,4.42-25.36,4.42-37.42,0h0c-1.63-.6-3.28-.89-4.9-.89Z"/>
      </g>
      <g>
        <path class="cls-1" d="M453.77,298.98c-2.25,0-4.46-.59-6.42-1.72-2.68,1.55-5.85,2.08-8.91,1.47-3.06-.61-5.79-2.32-7.67-4.77-3.06.41-6.2-.31-8.8-2.05-2.6-1.74-4.46-4.36-5.26-7.34-2.99-.8-5.61-2.66-7.34-5.26-1.73-2.6-2.45-5.73-2.05-8.8-2.45-1.88-4.16-4.61-4.77-7.67-.61-3.06-.07-6.23,1.47-8.91-1.55-2.68-2.08-5.85-1.47-8.91.61-3.06,2.32-5.79,4.77-7.67-.4-3.06.31-6.2,2.05-8.8,1.74-2.6,4.36-4.46,7.34-5.26.8-2.99,2.66-5.61,5.26-7.34,2.6-1.73,5.73-2.45,8.8-2.05,1.88-2.45,4.61-4.16,7.67-4.77,3.06-.61,6.23-.07,8.91,1.47,2.68-1.55,5.85-2.08,8.91-1.47,3.06.61,5.79,2.32,7.67,4.77,3.06-.4,6.2.31,8.8,2.05,2.6,1.74,4.46,4.36,5.26,7.34,2.99.8,5.61,2.66,7.34,5.26,1.73,2.6,2.45,5.73,2.05,8.8,2.45,1.88,4.16,4.61,4.77,7.67.61,3.06.07,6.23-1.47,8.91,1.55,2.68,2.08,5.85,1.47,8.91-.61,3.06-2.32,5.79-4.77,7.67.4,3.06-.31,6.2-2.05,8.8-1.74,2.6-4.36,4.46-7.34,5.26-.8,2.99-2.66,5.61-5.26,7.34-2.6,1.73-5.73,2.45-8.8,2.05-1.88,2.45-4.61,4.16-7.67,4.77-.83.16-1.66.25-2.49.25ZM447.36,289.18c1.17,0,2.34.37,3.32,1.1,1.19.89,2.64,1.22,4.09.93,1.45-.29,2.67-1.15,3.43-2.43,1.24-2.1,3.77-3.15,6.13-2.54,1.44.37,2.91.12,4.14-.7,1.23-.82,2.03-2.09,2.24-3.55.34-2.42,2.27-4.35,4.7-4.7,1.47-.21,2.73-1,3.55-2.24.82-1.23,1.07-2.7.71-4.14-.61-2.37.44-4.89,2.54-6.14,1.28-.75,2.14-1.97,2.43-3.43.29-1.45-.04-2.91-.93-4.09-1.47-1.95-1.47-4.69,0-6.64.89-1.19,1.22-2.64.93-4.09-.29-1.45-1.15-2.67-2.43-3.43-2.1-1.24-3.15-3.77-2.54-6.13.37-1.44.12-2.91-.7-4.14-.82-1.23-2.09-2.03-3.55-2.24-2.42-.34-4.35-2.27-4.7-4.7-.21-1.47-1-2.73-2.24-3.55-1.23-.82-2.7-1.07-4.14-.71-2.37.61-4.89-.44-6.14-2.54-.75-1.28-1.97-2.14-3.43-2.43-1.45-.29-2.91.04-4.09.93h0c-1.96,1.47-4.69,1.47-6.64,0-1.18-.89-2.64-1.22-4.09-.93-1.45.29-2.67,1.15-3.43,2.43-1.24,2.1-3.77,3.15-6.13,2.54-1.44-.37-2.91-.12-4.14.7-1.23.82-2.03,2.09-2.24,3.55-.34,2.42-2.27,4.35-4.7,4.7-1.47.21-2.73,1-3.55,2.24-.82,1.23-1.07,2.7-.71,4.14.61,2.37-.44,4.89-2.54,6.14-1.28.75-2.14,1.97-2.43,3.43-.29,1.45.04,2.91.93,4.09,1.47,1.95,1.47,4.69,0,6.64-.89,1.19-1.22,2.64-.93,4.09.29,1.45,1.15,2.67,2.43,3.43,2.1,1.24,3.15,3.77,2.54,6.13-.37,1.44-.12,2.91.71,4.14.82,1.23,2.09,2.03,3.55,2.24,2.42.34,4.35,2.27,4.7,4.7.21,1.47,1,2.73,2.24,3.55,1.23.82,2.7,1.08,4.14.71,2.37-.61,4.89.44,6.14,2.54.75,1.28,1.97,2.14,3.43,2.43,1.46.29,2.91-.04,4.09-.93.98-.73,2.15-1.1,3.32-1.1Z"/>
        <path class="cls-1" d="M357.97,232.27h0c2.39,6.47,7.49,11.57,13.96,13.96h0c7.15,2.65,7.15,12.76,0,15.4h0c-6.47,2.39-11.57,7.49-13.96,13.96h0c-2.65,7.15-12.76,7.15-15.4,0h0c-2.39-6.47-7.49-11.57-13.96-13.96h0c-7.15-2.65-7.15-12.76,0-15.4h0c6.47-2.39,11.57-7.49,13.96-13.96h0c2.65-7.15,12.76-7.15,15.4,0Z"/>
        <path class="cls-1" d="M439.73,331.43l-17.74,30.73c-3.57,6.18.89,13.91,8.03,13.91h35.48c7.14,0,11.6-7.73,8.03-13.91l-17.74-30.73c-3.57-6.18-12.49-6.18-16.06,0Z"/>
        <path class="cls-1" d="M373.83,396.48c-2.5,0-5.03-.44-7.49-1.34-10.37-3.8-21.78-3.8-32.15,0-7.96,2.92-16.64,1-22.63-5-6-6-7.91-14.67-4.99-22.63,3.8-10.37,3.8-21.78,0-32.15-2.92-7.96-1-16.64,4.99-22.63,6-6,14.67-7.91,22.63-5h0c10.37,3.8,21.78,3.8,32.15,0,7.97-2.92,16.64-1,22.63,5,6,6,7.91,14.67,4.99,22.63-3.8,10.37-3.8,21.78,0,32.15,2.92,7.96,1,16.64-4.99,22.63-4.14,4.14-9.56,6.34-15.14,6.34ZM326.65,314.04c-3.56,0-6.98,1.41-9.67,4.1-3.92,3.92-5.12,9.37-3.22,14.57,4.42,12.07,4.42,25.36,0,37.42-1.91,5.21-.7,10.65,3.22,14.57,3.92,3.92,9.37,5.12,14.57,3.22,12.07-4.42,25.36-4.42,37.42,0,5.21,1.91,10.65.7,14.57-3.22,3.92-3.92,5.12-9.37,3.22-14.57-4.42-12.07-4.42-25.36,0-37.42,1.91-5.21.7-10.65-3.22-14.57-3.92-3.92-9.37-5.12-14.57-3.22-12.07,4.42-25.36,4.42-37.42,0h0c-1.63-.6-3.28-.89-4.9-.89Z"/>
      </g>
      <g>
        <path class="cls-1" d="M656.15,298.98c-2.25,0-4.46-.59-6.42-1.72-2.68,1.55-5.85,2.08-8.91,1.47-3.06-.61-5.79-2.32-7.67-4.77-3.06.41-6.2-.31-8.8-2.05-2.6-1.74-4.46-4.36-5.26-7.34-2.99-.8-5.61-2.66-7.34-5.26-1.73-2.6-2.45-5.73-2.05-8.8-2.45-1.88-4.16-4.61-4.77-7.67-.61-3.06-.07-6.23,1.47-8.91-1.55-2.68-2.08-5.85-1.47-8.91.61-3.06,2.32-5.79,4.77-7.67-.4-3.06.31-6.2,2.05-8.8,1.74-2.6,4.36-4.46,7.34-5.26.8-2.99,2.66-5.61,5.26-7.34,2.6-1.73,5.73-2.45,8.8-2.05,1.88-2.45,4.61-4.16,7.67-4.77,3.06-.61,6.23-.07,8.91,1.47,2.68-1.55,5.85-2.08,8.91-1.47,3.06.61,5.79,2.32,7.67,4.77,3.06-.4,6.2.31,8.8,2.05,2.6,1.74,4.46,4.36,5.26,7.34,2.99.8,5.61,2.66,7.34,5.26,1.73,2.6,2.45,5.73,2.05,8.8,2.45,1.88,4.16,4.61,4.77,7.67.61,3.06.07,6.23-1.47,8.91,1.55,2.68,2.08,5.85,1.47,8.91-.61,3.06-2.32,5.79-4.77,7.67.4,3.06-.31,6.2-2.05,8.8-1.74,2.6-4.36,4.46-7.34,5.26-.8,2.99-2.66,5.61-5.26,7.34-2.6,1.73-5.73,2.45-8.8,2.05-1.88,2.45-4.61,4.16-7.67,4.77-.83.16-1.66.25-2.49.25ZM649.73,289.18c1.17,0,2.34.37,3.32,1.1,1.19.89,2.64,1.22,4.09.93,1.45-.29,2.67-1.15,3.43-2.43,1.24-2.1,3.77-3.15,6.13-2.54,1.44.37,2.91.12,4.14-.7,1.23-.82,2.03-2.09,2.24-3.55.34-2.42,2.27-4.35,4.7-4.7,1.47-.21,2.73-1,3.55-2.24s1.07-2.7.71-4.14c-.61-2.37.44-4.89,2.54-6.14,1.28-.75,2.14-1.97,2.43-3.43.29-1.45-.04-2.91-.93-4.09-1.47-1.95-1.47-4.69,0-6.64.89-1.19,1.22-2.64.93-4.09-.29-1.45-1.15-2.67-2.43-3.43-2.1-1.24-3.15-3.77-2.54-6.13.37-1.44.12-2.91-.7-4.14s-2.09-2.03-3.55-2.24c-2.42-.34-4.35-2.27-4.7-4.7-.21-1.47-1-2.73-2.24-3.55-1.23-.82-2.7-1.07-4.14-.71-2.37.61-4.89-.44-6.14-2.54-.75-1.28-1.97-2.14-3.43-2.43-1.45-.29-2.91.04-4.09.93h0c-1.96,1.47-4.69,1.47-6.64,0-1.18-.89-2.64-1.22-4.09-.93-1.45.29-2.67,1.15-3.43,2.43-1.24,2.1-3.77,3.15-6.13,2.54-1.44-.37-2.91-.12-4.14.7-1.23.82-2.03,2.09-2.24,3.55-.34,2.42-2.27,4.35-4.7,4.7-1.47.21-2.73,1-3.55,2.24-.82,1.23-1.07,2.7-.71,4.14.61,2.37-.44,4.89-2.54,6.14-1.28.75-2.14,1.97-2.43,3.43-.29,1.45.04,2.91.93,4.09,1.47,1.95,1.47,4.69,0,6.64-.89,1.19-1.22,2.64-.93,4.09.29,1.45,1.15,2.67,2.43,3.43,2.1,1.24,3.15,3.77,2.54,6.13-.37,1.44-.12,2.91.71,4.14s2.09,2.03,3.55,2.24c2.42.34,4.35,2.27,4.7,4.7.21,1.47,1,2.73,2.24,3.55,1.23.82,2.7,1.08,4.14.71,2.37-.61,4.89.44,6.14,2.54.75,1.28,1.97,2.14,3.43,2.43,1.46.29,2.91-.04,4.09-.93.98-.73,2.15-1.1,3.32-1.1Z"/>
        <path class="cls-1" d="M560.34,232.27h0c2.39,6.47,7.49,11.57,13.96,13.96h0c7.15,2.65,7.15,12.76,0,15.4h0c-6.47,2.39-11.57,7.49-13.96,13.96h0c-2.65,7.15-12.76,7.15-15.4,0h0c-2.39-6.47-7.49-11.57-13.96-13.96h0c-7.15-2.65-7.15-12.76,0-15.4h0c6.47-2.39,11.57-7.49,13.96-13.96h0c2.65-7.15,12.76-7.15,15.4,0Z"/>
        <path class="cls-1" d="M642.11,331.43l-17.74,30.73c-3.57,6.18.89,13.91,8.03,13.91h35.48c7.14,0,11.6-7.73,8.03-13.91l-17.74-30.73c-3.57-6.18-12.49-6.18-16.06,0Z"/>
        <path class="cls-1" d="M576.21,396.48c-2.5,0-5.03-.44-7.49-1.34-10.37-3.8-21.78-3.8-32.15,0-7.96,2.92-16.64,1-22.63-5-6-6-7.91-14.67-4.99-22.63,3.8-10.37,3.8-21.78,0-32.15-2.92-7.96-1-16.64,4.99-22.63,6-6,14.67-7.91,22.63-5h0c10.37,3.8,21.78,3.8,32.15,0,7.97-2.92,16.64-1,22.63,5,6,6,7.91,14.67,4.99,22.63-3.8,10.37-3.8,21.78,0,32.15,2.92,7.96,1,16.64-4.99,22.63-4.14,4.14-9.56,6.34-15.14,6.34ZM529.03,314.04c-3.56,0-6.98,1.41-9.67,4.1-3.92,3.92-5.12,9.37-3.22,14.57,4.42,12.07,4.42,25.36,0,37.42-1.91,5.21-.7,10.65,3.22,14.57,3.92,3.92,9.37,5.12,14.57,3.22,12.07-4.42,25.36-4.42,37.42,0,5.21,1.91,10.65.7,14.57-3.22,3.92-3.92,5.12-9.37,3.22-14.57-4.42-12.07-4.42-25.36,0-37.42,1.91-5.21.7-10.65-3.22-14.57-3.92-3.92-9.37-5.12-14.57-3.22-12.07,4.42-25.36,4.42-37.42,0h0c-1.63-.6-3.28-.89-4.9-.89Z"/>
      </g>
      <g>
        <path class="cls-1" d="M858.53,298.98c-2.25,0-4.46-.59-6.42-1.72-2.68,1.55-5.85,2.08-8.91,1.47-3.06-.61-5.79-2.32-7.67-4.77-3.06.41-6.2-.31-8.8-2.05-2.6-1.74-4.46-4.36-5.26-7.34-2.99-.8-5.61-2.66-7.34-5.26-1.73-2.6-2.45-5.73-2.05-8.8-2.45-1.88-4.16-4.61-4.77-7.67-.61-3.06-.07-6.23,1.47-8.91-1.55-2.68-2.08-5.85-1.47-8.91.61-3.06,2.32-5.79,4.77-7.67-.4-3.06.31-6.2,2.05-8.8,1.74-2.6,4.36-4.46,7.34-5.26.8-2.99,2.66-5.61,5.26-7.34,2.6-1.73,5.73-2.45,8.8-2.05,1.88-2.45,4.61-4.16,7.67-4.77,3.06-.61,6.23-.07,8.91,1.47,2.68-1.55,5.85-2.08,8.91-1.47,3.06.61,5.79,2.32,7.67,4.77,3.06-.4,6.2.31,8.8,2.05,2.6,1.74,4.46,4.36,5.26,7.34,2.99.8,5.61,2.66,7.34,5.26,1.73,2.6,2.45,5.73,2.05,8.8,2.45,1.88,4.16,4.61,4.77,7.67.61,3.06.07,6.23-1.47,8.91,1.55,2.68,2.08,5.85,1.47,8.91-.61,3.06-2.32,5.79-4.77,7.67.4,3.06-.31,6.2-2.05,8.8-1.74,2.6-4.36,4.46-7.34,5.26-.8,2.99-2.66,5.61-5.26,7.34-2.6,1.73-5.73,2.45-8.8,2.05-1.88,2.45-4.61,4.16-7.67,4.77-.83.16-1.66.25-2.49.25ZM852.11,289.18c1.17,0,2.34.37,3.32,1.1,1.19.89,2.64,1.22,4.09.93,1.45-.29,2.67-1.15,3.43-2.43,1.24-2.1,3.77-3.15,6.13-2.54,1.44.37,2.91.12,4.14-.7,1.23-.82,2.03-2.09,2.24-3.55.34-2.42,2.27-4.35,4.7-4.7,1.47-.21,2.73-1,3.55-2.24.82-1.23,1.07-2.7.71-4.14-.61-2.37.44-4.89,2.54-6.14,1.28-.75,2.14-1.97,2.43-3.43.29-1.45-.04-2.91-.93-4.09-1.47-1.95-1.47-4.69,0-6.64.89-1.19,1.22-2.64.93-4.09-.29-1.45-1.15-2.67-2.43-3.43-2.1-1.24-3.15-3.77-2.54-6.13.37-1.44.12-2.91-.7-4.14-.82-1.23-2.09-2.03-3.55-2.24-2.42-.34-4.35-2.27-4.7-4.7-.21-1.47-1-2.73-2.24-3.55-1.23-.82-2.7-1.07-4.14-.71-2.37.61-4.89-.44-6.14-2.54-.75-1.28-1.97-2.14-3.43-2.43-1.45-.29-2.91.04-4.09.93h0c-1.96,1.47-4.69,1.47-6.64,0-1.18-.89-2.64-1.22-4.09-.93-1.45.29-2.67,1.15-3.43,2.43-1.24,2.1-3.77,3.15-6.13,2.54-1.44-.37-2.91-.12-4.14.7-1.23.82-2.03,2.09-2.24,3.55-.34,2.42-2.27,4.35-4.7,4.7-1.47.21-2.73,1-3.55,2.24s-1.07,2.7-.71,4.14c.61,2.37-.44,4.89-2.54,6.14-1.28.75-2.14,1.97-2.43,3.43-.29,1.45.04,2.91.93,4.09,1.47,1.95,1.47,4.69,0,6.64-.89,1.19-1.22,2.64-.93,4.09.29,1.45,1.15,2.67,2.43,3.43,2.1,1.24,3.15,3.77,2.54,6.13-.37,1.44-.12,2.91.71,4.14s2.09,2.03,3.55,2.24c2.42.34,4.35,2.27,4.7,4.7.21,1.47,1,2.73,2.24,3.55,1.23.82,2.7,1.08,4.14.71,2.37-.61,4.89.44,6.14,2.54.75,1.28,1.97,2.14,3.43,2.43,1.46.29,2.91-.04,4.09-.93.98-.73,2.15-1.1,3.32-1.1Z"/>
        <path class="cls-1" d="M762.72,232.27h0c2.39,6.47,7.49,11.57,13.96,13.96h0c7.15,2.65,7.15,12.76,0,15.4h0c-6.47,2.39-11.57,7.49-13.96,13.96h0c-2.65,7.15-12.76,7.15-15.4,0h0c-2.39-6.47-7.49-11.57-13.96-13.96h0c-7.15-2.65-7.15-12.76,0-15.4h0c6.47-2.39,11.57-7.49,13.96-13.96h0c2.65-7.15,12.76-7.15,15.4,0Z"/>
        <path class="cls-1" d="M844.48,331.43l-17.74,30.73c-3.57,6.18.89,13.91,8.03,13.91h35.48c7.14,0,11.6-7.73,8.03-13.91l-17.74-30.73c-3.57-6.18-12.49-6.18-16.06,0Z"/>
        <path class="cls-1" d="M778.58,396.48c-2.5,0-5.03-.44-7.49-1.34-10.37-3.8-21.78-3.8-32.15,0-7.96,2.92-16.64,1-22.63-5-6-6-7.91-14.67-4.99-22.63,3.8-10.37,3.8-21.78,0-32.15-2.92-7.96-1-16.64,4.99-22.63,6-6,14.67-7.91,22.63-5h0c10.37,3.8,21.78,3.8,32.15,0,7.97-2.92,16.64-1,22.63,5,6,6,7.91,14.67,4.99,22.63-3.8,10.37-3.8,21.78,0,32.15,2.92,7.96,1,16.64-4.99,22.63-4.14,4.14-9.56,6.34-15.14,6.34ZM731.4,314.04c-3.56,0-6.98,1.41-9.67,4.1-3.92,3.92-5.12,9.37-3.22,14.57,4.42,12.07,4.42,25.36,0,37.42-1.91,5.21-.7,10.65,3.22,14.57,3.92,3.92,9.37,5.12,14.57,3.22,12.07-4.42,25.36-4.42,37.42,0,5.21,1.91,10.65.7,14.57-3.22,3.92-3.92,5.12-9.37,3.22-14.57-4.42-12.07-4.42-25.36,0-37.42,1.91-5.21.7-10.65-3.22-14.57-3.92-3.92-9.37-5.12-14.57-3.22-12.07,4.42-25.36,4.42-37.42,0h0c-1.63-.6-3.28-.89-4.9-.89Z"/>
      </g>
    </g>
  </g>
</svg>