<?xml version="1.0" encoding="UTF-8"?>
<svg id="Elements" xmlns="http://www.w3.org/2000/svg" viewBox="0 0 1000 1000">
  <defs>
    <style>
      .cls-1 {
        fill: #231f20;
      }
    </style>
  </defs>
  <path class="cls-1" d="M705.42,892.63c-21.78,0-43.83-3.83-65.3-11.69-90.36-33.08-189.88-33.09-280.24,0-69.43,25.42-145.01,8.73-197.29-43.54-52.27-52.27-68.95-127.86-43.54-197.28,33.09-90.35,33.09-189.88,0-280.24-25.42-69.42-8.73-145.01,43.54-197.28,52.27-52.27,127.86-68.96,197.29-43.54h0c90.35,33.08,189.88,33.09,280.23,0,69.43-25.42,145.02-8.73,197.29,43.54,52.27,52.27,68.95,127.86,43.54,197.28-33.09,90.35-33.09,189.88,0,280.24,25.42,69.42,8.73,145.01-43.54,197.28-36.11,36.11-83.34,55.23-131.98,55.23ZM294.18,174.09c-31.06,0-60.83,12.3-84.32,35.78-34.17,34.17-44.65,81.66-28.03,127.03,38.51,105.18,38.51,221.03,0,326.2-16.61,45.37-6.14,92.86,28.03,127.03,34.17,34.17,81.66,44.65,127.03,28.04,105.18-38.51,221.02-38.51,326.2,0,45.39,16.62,92.87,6.14,127.04-28.03,34.17-34.17,44.65-81.66,28.03-127.03-38.51-105.18-38.51-221.03,0-326.2,16.62-45.37,6.14-92.86-28.03-127.03-34.17-34.17-81.67-44.65-127.03-28.04-105.18,38.51-221.03,38.51-326.2,0h0c-14.19-5.2-28.59-7.75-42.72-7.75Z"/>
</svg>