<?xml version="1.0" encoding="UTF-8"?>
<svg id="LOGO_VARIATION" data-name="LOGO VARIATION" xmlns="http://www.w3.org/2000/svg" viewBox="0 0 1000 1000">
  <defs>
    <style>
      .cls-1 {
        fill: #bfbab7;
      }

      .cls-2 {
        fill: #fdfcfc;
      }

      .cls-3 {
        fill: #231f20;
      }

      .cls-4 {
        fill: #fee984;
      }

      .cls-5 {
        fill: #4bb8e9;
      }

      .cls-6 {
        fill: #f0b952;
      }

      .cls-7 {
        fill: #e67d79;
      }

      .cls-8 {
        fill: #d9657d;
      }

      .cls-9 {
        fill: #00abe6;
      }

      .cls-10 {
        fill: #00a651;
      }

      .cls-11 {
        fill: #80aada;
      }

      .cls-12 {
        fill: #f3d724;
      }

      .cls-13 {
        fill: #fed800;
      }

      .cls-14 {
        fill: #222223;
      }
    </style>
  </defs>
  <g>
    <path class="cls-9" d="M284.35,510.5l-1.17-3.35c-8.58-24.48-12.93-50.17-12.93-76.36,0-61.67,24.02-119.65,67.62-163.25,43.61-43.6,101.58-67.62,163.25-67.62s119.65,24.01,163.25,67.62,63.43,84.44,65.15,145.63c.74,26.18-21.37,10.62-21.37,10.62l-4.14,86.42-419.66.29Z"/>
    <path class="cls-5" d="M722.5,425.87c0,26.18-4.45,51.32-12.65,74.71h-426.44c-8.2-23.39-12.65-48.53-12.65-74.71,0-124.75,101.13-225.87,225.87-225.87s225.87,101.12,225.87,225.87Z"/>
    <path class="cls-13" d="M698.5,449.87c0,17.51-2.23,34.51-6.43,50.71h-390.88c-4.2-16.2-6.43-33.2-6.43-50.71,0-111.49,90.38-201.87,201.87-201.87s201.87,90.38,201.87,201.87Z"/>
  </g>
  <g>
    <path class="cls-14" d="M691.55,356.56c-9.81,5.92-16.03-5.15-8.64-11.88,2.67-2.43,4.18-1.21,7.1-1.58,4.66-.59.03-3.26-3.25-3.26-9.72,0-7.97,14.6-9.32,16.21-.09.12-3.42-.03-3.78.96.2.41.42.83.65,1.27.51.46,11.98,2.34,13.52,2.23,4.02-.27,9.53-4.21,9.21-8.72-3.18-.28-2.59,3.03-5.49,4.78ZM718.7,313.88c.03.09.13.25.28.48-.1-.26-.21-.43-.28-.48ZM691.55,356.56c-9.81,5.92-16.03-5.15-8.64-11.88,2.67-2.43,4.18-1.21,7.1-1.58,4.66-.59.03-3.26-3.25-3.26-9.72,0-7.97,14.6-9.32,16.21-.09.12-3.42-.03-3.78.96.2.41.42.83.65,1.27.51.46,11.98,2.34,13.52,2.23,4.02-.27,9.53-4.21,9.21-8.72-3.18-.28-2.59,3.03-5.49,4.78ZM656.66,285.89c-3.12.96-2.5,4.61-3.07,5.09-1.03.87-6.25-1.2-8,2.32-1.99,3.98,1.36,6.73,1.42,9.4.05,1.7-4.19,5.09-.3,6.83,2.6,1.16.87-2.95,2.19-3.31,2.7-.73,6.77,1.26,9.71,1.24,3.06,0,6.01-1.66,9.21-1.16-.08-3.24,1.19-6.12.88-8.92-.58-5.24-5.67-13.43-12.03-11.48ZM665.64,304.13c-6.37,1.13-20.93-1.85-17.18-10.69l7.42.94c.4-15.44,13.14,1.66,9.76,9.75Z"/>
    <path class="cls-3" d="M818.84,356.17c7.29-.51,13.96-7.92,3.81-9.83,1.22-2.26,3.98-3.39,3.25-6.48h-4.35c2.19-6.05-2.3-7.72-7.56-5.42-.47-1.79,1.91-.5,2.2-1.77.39-1.65-.26-4.85-1.22-6.27-1.05-1.53-3.25-1.08-3.15-2.77,10.52.31,12.18-9.92,1.08-10.85,10.03-13.41-5.87-7.96-6.49-8.65-.21-.22.09-4.03-1.17-5.88-3.11-4.52-10.23-.18-9.68,4.8-10.33-6.28-3.37-4.49,1.52-9.86,3.81-4.17,6.35-10.87,1.21-15.06-6.32-5.16-12.57.73-13.54,0-1.21-.9-2.49-13.62-11.92-9.19-.56.26-5.41,5.72-5.5,6.43-.35,2.96-.19,8.8.2,11.84.69,5.53,8.24,16.43.96,17.98,1.07-7.47-1.71-5.04-4.33-6.5-.06,3.17.45,7.1-.23,10.07-.84,3.66-6.28,7.44-6.62,8.61-1.03,3.56,1.06,7.1-5.34,9.74-4.31,1.79-9.16.32-6.07-3.38.41-.49,8.8-2.02,10.59-6.41,3.69-9.06-.97-15.73-2.06-24.03,4.03.09,6.63,3.68,9.74,5.4.02-1.18-1.04-2.95-1.09-4.33-8.55,1.02-10.9-11.24-.59-11.94,3.28,3.76.5,9.25.59,11.94,4.01-.47,4.02-10.5,3.09-13.41-.62-1.97-2.72-1.42-3.09-1.75-4.82,1.78-8.73,8.64-12.99,8.67,1.06,3.07,2.3,6.07,3.26,9.19,0,.9-2.52.73-3.26.56,3.27,6.35,1.5,7.53,0,14.08.26-.18,1.28.48,2.23-.69,1.07-1.3,1.95-6.91,2.64-6.91,2.29,5.32-1.91,16.27-7.83,17.18-6.4-1.95-11.74-1.81-17.61-5.25,2.12,3.73,2.24,4.82,7.59,5.42-.16,8.7-9.27,1.45-14.05-.59-.33-1.41-3.14-5.1-4.08-6.5.42,1.01.81,3.2-.97,3.69-2.35.64-5.49-.11-7.97.13-1.23-3.15,8.25-4.63,8.66-4.32-.96-2.75-2.57-18.57,3.24-17.32.62,2.27-1.33,4.99-1.12,6.87.09.69,1.78.73,2.11,1.56.99,2.5,2.04,7.92,3.27,9.54,1.09,1.42,2.52,1.05,3.32,1.52-4.07-7.14-5.51-9.57-1.09-16.24,3.06-4.61,4.17-5.25,10.22-6.55.75.09.77,1.67.61,2.21,6.28-3.01,6.92,1.26,10.83,2.17-4.08-7.91-11.9-7.29-19.18-3.47-1.35.71-7.54,7.47-6.83,2.92,1.28-8.13,8.4-13.58,16.72-12.4,3.29.46,5.25,3.23,9.29,3.21-.53-1.51-3.79-9.26-3.24-9.74,3.16-2.81,3.29,3.26,3.8,4.28.56,1.09,2.96,3.06,3.77,2.21,2.08-2.19-4.65-5.39-4.32-7.57,6.15,0,5.25,7.07,8.66-1.09,2.42-5.78-.57-3.53-1.03-5.12-.4-1.35.28-3.39-.53-4.68-1.62-2.59-5.78.3-6.01.07-.21-.23-.29-4.94-2.73-5.42-1.26-.26-4.87,4.01-4.87,5.39l-4.29-3.24c.26,2.05-2.26,3.22-2.75,4.4-1,2.38.58,3.31.58,4.72,0,.44-5.41,2.08-1.56,7.09.25.32,5.93,3.23.99,4.36-2.27.53-7.07-14.86-12.47-11.42-1.73,1.11-3.98,8.74-4.19,11.01-.33,3.67,1.39,8.4.28,10.95-.68,1.57-2.75,1.81-3.52,3.07-1.14,1.89-.82,4.59-1.75,5.87-.97,1.33-5.41,1.79-6.5,4.33-2.65-5.44,2.94-7.41,5.35-10.89,4.94-7.12,8.73-22.93-2.3-25.54-1.12-.26-2.64.73-3.9.49-1.98-.37-3.19-2.34-4.83-2.79-2.27-.62-16.91,2.57-19.43,3.88-2.72,1.4-4.96,4.34-6.83,6.71-.35.44-1.35.74-2,1.75-9.31,14.71,13.04,26.72,25.83,24.24l-.02,5.41c-1.66-.23-2.51-2.71-3.79-3.24-2.37-.97-1.36,1.82-1.61,2.16,3.07,2.24,8.1,3.99,7.58,8.66l-9.74-6.49c-1.26,2.7.44,5.52-2.72,7.58-.8-3.36-.95-7.08-3.36-9.83-1.91.11-3.99.79-5.26,2.29-1.69,1.98-1.05,7.53-3.26,6.44-4.22-2.05,2.11-13.02-1.58-15.74-4.05-2.99-4.64,3.86-4.41,7.09-2.42-.98-.67-2.69-4.31-3.24.05,2.37,0,3.6,1.22,5.81,1.5,2.75,4.04,2.83,5.27,5-3.5-.7-12.98-2.48-8.7,3.59,1.83,2.6,12.91,3.57,17.37,5.08.79-1.7,1.51-6.95,2.16-9.25.49-1.72-1.18-3.21,2.17-2.67,0,2.34.08,5.01.91,7.2.6,1.59,2.33,1.52,2.4,2.18.77,7.34-4.04,3.77-7.63,2.54-.3.64-9.62,2.46-12.98,4.9-2.18,1.57-1.5,4.78-4.68,3.59-6.46-2.39-1.04-8.75-4.59-13.87-1.92-2.78-4.18-1.74-4.82-2.2,3.59,2.02,5.1,6.19,4.36,10.27-1.17,6.48-13.68,3.59-14.1-2.7h7.57s-2.16-8.66-2.16-8.66c1.72-.28,2.89.27,4.32,1.08-.23-.17-.88-4.2-1.09-4.34-.23-.16-5.16.96-5.35,1.14-.92.84,1.7,6.25-2.21,3.21.44.7,2.47,5.08,2.16,5.41-10.47-3.64-6.77,6.49-.25,9.45,6.53,2.96,15.57-3.57,15.41,7.87-4.87-.37-9.36-1.9-14.38-.83-.66.14-7.01,2.73-7.23,3.06-1.91,2.77,6.06,8.39,8.27,9.5,2.42,1.2,8.47,2.25,8.81,2.55.55.47.37,2.76,1.03,3.8,1.98,3.12,4.96,5.64,5.69,9.52-4.96-.44-18.14,12.42-17.27,16.16.84,3.64,16.94,5.69,20.5,3.9-1,4.41-4.05,8.18-3.24,12.99,7.3.54,14.28-.39,20.57-4.33,0,0-2.53,18.5,4.16,19.43,6.68.93,10.22-1.64,13.36-7.52l11.39,3.04,2.18,19.02s-.56,7.4-4.02,3.94c-3.46-3.47-12.69-13.74-34.7-11.92,0,0-2.78-5.93-13.48-3.25-2.21-4.15-4.4-7.41-8.62-9.77-3.14-1.75-13.83-3.97-14.42-4.54-1.02-1-4.64-23.57-5.96-28.14-14.74-51.05-60.02-101.65-115.55-105.89-1.13-.96,6.25-7.88,1.07-10.27-2.17-1-7.66-.89-10.02-.28-2.71.7-5.59,5.06-7.81,5.14-3.88.12-8.16-8.12-15.29-8.59-10.58-.7-.5,10.93-1.53,11.84-49.61.11-101.46,26.24-128.21,68.32-18.66,29.32-23.04,63.26-19.04,97.34-2.02,1.62-11.39-8.86-14.18-10.17-5.1-2.37-11.44-3.32-16.7-7.13-4.95-3.59-7.63-10.73-11.35-15.16-4.48-5.35-18.1-20.57-24.91-20.58-.87,0-5.43,2.06-6.45,2.76-14.81,10.06-10,52.06-6.03,67.65.64,2.54,2.71,4.48,2.85,7.03.24,4.25-4.22,8.97-2.06,16.01.5,1.62,2.75,2.35,3.07,4.6.43,3.04-1.49,7.6-.84,12.67,2.6,20.11,39.48,63,54.93,77.18,7.6,6.97,16.51,12.47,24.82,18.5-11.65,28.42-20.29,62.11-11.76,92.44,1.54.68,3.39-.99,4.28-1.05-5.74-32.06,2.16-70.69,16.76-99.64,2.1-4.17,8.85-12.93,9.81-16.17.65-2.18.17-11.98,1.05-11.98,15.12,9.69,31.64,17.61,49.02,22.45,4.31,1.2,20.46,3.54,22.21,4.61,1.25.76.85,2.76,1.77,3.89.95,1.15,2.93,1.31,3.23,1.71.58.78-3.73,16.18-4.13,18.89-3.77,25.2-4.51,50.97-1.18,76.24,4.17-.34,3.49-2.26,3.77-2.17,5.3,1.64,5.12,1.96,11.4,2.17-2.73-20.08-3.16-40.97-1.07-61.16.48-4.67,3.9-28.71,5.34-31.28.86-1.54,3.99-.09,5.55-1.14,1.54-1.03.66-4.52,1.04-4.92,1.1-1.14,27.07,1.66,31.35-2.2-.79,10.81-2.9,20.83-2.01,31.81.36,4.33,3.44,21.79,6.46,23.92.86.61,2.9.16,3.22,1.25.76,2.59-1.68,12.37,1.57,13.41,7.73,2.46.73-13.18,1.61-14.06h6.51c.49.48-1.64,14.23,3.77,11.89,4.23-1.83-1.49-9.61-.54-12.98h6.51c-1.12,2.89.77,14.97,5.39,11.9,3.92-2.59-8.82-16.13,4.3-14.04.51,2.69.02,12.86,3.83,12.94,4.35.09-1.16-13.36-.54-14.04.17-.18,4.54-1.03,4.78-.97,2.84.63.88,7.88,2.91,11.14,2.05,3.29,5.02.87,3.95-3.95-1.33-6.03-7.38-9.27,3.51-9.49.85,4.36,0,10.18,3.79,12.98,7.29-3.42-6.13-15.25,3.42-16.08,4.11-.35,1.11,10.97,6.32,12.84,7.88-5.13-7.48-13.94,3.44-16.03,2.6-.5,1.14,4.28,1.68,6.58.76,3.17,3.14,8.78,6.32,4.64,3.25-4.24-3.96-8.98-4.27-12.15-.2-2.12,3.16-2.92,2.96-5.03-.16-1.7-4.62-6.91-5.79-9.41-6.98-14.98-6.53-31.78-7.08-47.94,10.37-6.42,20.76-12.98,29.28-21.85,29.5-30.75,34.16-77.83,67.63-105.63,1.94-1.62,4.98-4.57,7.54-4.35,7.21.61,1.23,8.93.7,12.59-2.84,19.71,10.61,37.3,31.3,32.94-6.05,10.75-17.45,16.05-25.97,24.36,3.59,4.06,9.31,2.45,14.07,2.7,2.42,2.47-7.43,20.53,7.58,8.15,4.79-3.94,9.16-9.18,13.17-13.91.8-.95,2.12-3.51,1.96-.22-2.72,16.34-13.58,28.79-23.82,41.15-12.4,14.96-27.16,29.8-41.1,43.36-2.74,2.67-24.81,20.17-21.67,23.26,2.17,2.13,7.32-5.88,8.66-4.32.66,3.56-1.12,6.93-1.17,10.28-.03,1.92,1.84,7.3,1.15,8.1-.49.57-4.43-1.24-3.23,2.19l6.54,1.81,7.54,61c1.09-.03,2.18.05,3.25,0,1.86-17.59-3.75-33.53-6.38-50.5-.99-6.4-2.48-13.37-3.32-19.4-.79-5.58.6-12-.66-17.8,23.51-19.05,45.28-40.26,62.87-64.98,1.6,2.32-1.39,4.78-1.6,7.1-.75,8.11,7.19,4.37,7.55,4.81.62.75-.55,12.93,7.93,5.13l5.06-18.12c1.4,5.22-5.99,27.94,5.44,22.2,3.1-1.56.89-5.29,3.22-5.96-1.73,5.55,5.23,10.26,8.15,5.42,2.78-4.64-1.25-23.55-1.66-29.8-.13-2.17.26-1.69,2.18-1.62-.07,1.89-.08,3.78.3,5.66.92,4.59,2.97,23.07,10.61,17.7,3.52-2.48-3.04-22.14-3.91-26.56-.69-3.58-4.2-20.1-3.82-22.03.11-.61,8.44-6.23,9.28-8.31,3.19,4.21,5.85,8.2,9.77,11.86,1.37,1.27,20.65,15.73,21.1,11.39l-2.19-12.44c24.42-2.19,9.49-6.13-.33-13.2-4.78-3.43-9.39-7.2-13.74-11.17,16.82-1.05,26.49-23.1,18.84-37.24-6.53-12.06-25.26-10.32-35.64-4.47l3.8-9.73c-5.32,3.18-7.4,10.07-10.61,14.83-.55.8-2.2,3.83-3.45,2.49-1.68-1.82,9.72-17.89,9.75-21.64,3.14-1.07,3.97,4.07,4.31,4.32.48.36,10.33,3.06,11.51,3.16,9.46.79,4.39-6.17,5.82-12.9-12.97,3.35-1.46-9.97,0-13-4.22.61-7.1,1.86-10.81,2.75-4.67,1.14-3.43-4.01-.45-5.89,3.69-2.33,15.05-4.74,11.27,3.14,1.02-.14,2.19.11,3.24,0-.26-2.02-.7-4.47-1.08-6.49-2.77.6-11.85-3.91-12.84-6.12-.64-1.45-.94-3.98,1.46-3.64,1.97.29,8.9,3.98,10.29,5.43-1-2.41-3.32-9.73-1.13-11.45.97-.48,2.25-.7,3.29-.46-.27-1.46-1.26-2.71-.57-4.29,1.78-4.04,6.45-4.15,6.83.68.03.35-1.68,6.61-1.94,6.86-1.96,1.92-2.42-2.82-4.32-3.24.75,3.87,6.49,14.46-1.08,12.99.25.83-.19,2.27,0,3.25,1.86-.41,4.74-4.39,8.38-.81,6.24,6.12-4.03,6.96-7.3,7.3.96,7.45-1.88,6.57-3.24,13,1.1-.28,2.33-2.47,3.77-2.18,2.19.46,1.02,8.48,7.6,7.63,4.19-.55,3.91-5.94,2.72-8.7,2.58-.32,3.78,2.78,6.11,3.02,4.64.45,6.02-4.98,3.63-8.43,4.16,1.5,6.55,3.8,11.36,4.32,7.99.86,19.52,0,12.07-9.9l-7.19-7.42c13.85,1.84,29.42-13.01,6.49-15.18,3.26-7.09-3.01-12.38-3.24-19.47,5.53,1.02,7.01,4.84,13.51,4.39ZM755.51,267.31c1.22,1.14-4.24,6.62-5.4,5.41.09-2.93,1.93-6.18,5.4-5.41ZM748.49,262.99l.53,7.58c-5.57,1.38-2.93-4.53-.53-7.58ZM745.77,277.07c-.41.52-3.83,8.54-5.41,6.48-.56-3.86,1.19-6.92,5.41-6.48ZM742.04,268.35c.85.55,2.28,2.24,2.65,3.29-6.45,1.47-9.18-7.48-2.65-3.29ZM728.31,275.03c.51.29,4.13,7.45,3.47,8.92l-8.74,6.09c-.55-3.02-.3-18.2,5.27-15.01ZM670.75,321.22c-1.53-.39-3.59-1.3-4.03-3l9.73,2.17c.08,2.05-4.64,1.09-5.7.83ZM659.04,351.67c-2.43,1.55-15.05-5.17-12.88-7.46,9.15-1.65,19.23-6.66,12.88,7.46ZM453.04,431.23c9.73-.19,17.79,8.38,26.34,10.98,2.47.75,15.2,1.42,15.16,3.23-4.29,5.01-9.31,8.56-15.8,10.16-12.87,3.17-23.32-2.51-35.64-.98-5.27.65-10.13,6.07-14.59,4.99-3.47-.84-7.89-3.74-5.49-7.73.67-1.12,17.74-15.94,19.63-17.2,2.87-1.91,6.93-3.39,10.39-3.45ZM467.99,495.77c14.71-11.35,15.88-26.93,22.34-41.56.78-1.74,1.81-4.29,4.22-3.89-.51,15.3-15.3,52.63-32.01,55.15-12.59,1.9-18.5-11.93-23.05-21.21-1.17-2.37-9.67-21.21-8.81-22.03.91-.88,2.58-.2,3.54,1.33,7.47,11.98,11.69,49.23,33.78,32.2ZM451.98,484.07c2.84-10.89,20.61-22.92,31.72-18.56-1.81,9.65-14.92,30.86-25.5,31.29-8.48.35-7.91-6.24-6.22-12.73ZM348.65,452.21c.9-4.83,3.54-9.69,4.06-14.35,2.5-22.76-5.61-40.04,3.8-64.41,18.14-47,63.42-48.33,78.42,1.67,4.1,13.64,8.22,39.13,6.58,53.01-1.08,9.22-20.77,18.6-22.61,25.12-1.6,5.7,6.1,7.13,8.23,9.25,5.23,5.22,10.28,26.86,15.62,34.73,18.2,26.83,38.66.76,47.31-18.38,2.81-6.21,9.81-26.05,8.64-32.07-1.49-7.62-9.23-5.4-14.18-6.47-14.81-3.19-16.02-8.41-17.03-23.04-2.54-36.63,6.16-88.19,48.66-97.51,46.31-10.15,81.4,33.21,84.55,75.81.65,8.75-1.26,19.82.03,28.13.98,6.35,4.43,11.43,4.35,19.57-.1,10.59-2.62,9.62-7.63,16.25-5.25,6.95-11.95,17.41-17.88,23.27-3.31,3.28-32.15,19.71-36.02,20.37-3.66.62-6.98-1.94-10.55-1.97-4.29-.04-9.6,3.02-13.08,3.17-8.44.39-12.09-2.54-21.77,2.04-3.62,1.71-8.13,7.27-10.66,7.75-9.34,1.78-35.71.44-46.59.08-18.15-.61-64.9-2.95-79-13.04-12.56-8.98-15.86-34.99-13.24-49ZM338.65,469.24c.37,4.45,4.32,13.46,4.27,15.19-.09,3.1-4.94,6.23-4.33,15.19.37,5.34,2.49,7.8,4.37,12.4-18.92-17.84-18.28-51.52-2.7-71.46,1.36,9.68-2.43,18.81-1.61,28.67ZM306.29,423.92c.74-3.37,7.85-3.41,9.57-.13,0,.95-7.33,4.7-8.61,3.77-.15-.11-1.06-3.23-.96-3.63ZM301.51,425.6c9.34-2.35-2.71,17.26-8.32,6.84,0-.78,6.94-6.49,8.32-6.84ZM280.65,443.84c.27-.6,8.62-9,9.22-9.25.88-.38,2.39.22,2.99.84,3.88,4.07-6.34,11.81-8.92,14.85-2.02-2.04-4.73-3.28-3.29-6.44ZM267.71,474.13c-4.7-3.07.83-15.84,4.86-15.16-.56-5.84,6.44-15.33,8.5-7.88.47,1.7-3.71,9.7-4.2,10.04-1.27.87-3.33-2-4.3-2.16.23,2.39,2.38,4.17,1.73,6.52-.34,1.25-5.05,8.96-6.59,8.64ZM359.25,562.44c-1.12,3.22-8.26,12.73-10.71,16.39-.7,1.05-1.15,3.42-1.31,3.54-2.17,1.56-15.92-10.24-18.37-12.39-16.14-14.23-55.16-58.81-58.18-79.34-1.63-11.12,2.19-18.12,7.94-27.24,6.04-9.6,28.91-35.79,40.07-36.9,5.34-.53,17.42,7.91,17.41,12.44,0,.99-6.84,10.16-8.15,13.15-8.22,18.86-2.99,43.16,8.06,59.85,1.74,2.63,6.92,7.56,7.46,8.77,2.21,4.98.6,10.84,5.07,17.67,2.05,3.12,12.42,11.34,12.58,12.2.23,1.18-1.28,10.11-1.88,11.85ZM439.34,605.16c1.09.4,8.21,3.51,6.48,5.4l-7.57,1.08,1.09-6.48ZM436.09,627.9c1.29.67,7.29,1.9,7.58,2.18,2.15,2.04-6.88,5.06-7.58,4.31v-6.49ZM444.74,634.4v6.49c-9.57-2.25-10.63-4.52,0-6.49ZM444.74,647.39v5.4l-7.57-2.18c.18-1.84,7.07-3.75,7.57-3.23ZM436.09,639.81l7.56,3.26c.74.96-6.86,5.1-7.57,4.31v-7.58ZM436.09,652.81l7.55,3.78-7.55,3.78v-7.57ZM444.74,659.3v6.49s-6.49-2.18-6.49-2.18l6.49-4.31ZM437.17,672.29v-7.58l6.49,2.17c1.76,1.89-5.43,5-6.49,5.41ZM445.82,677.7c-.71.79-8.31-3.35-7.57-4.31l7.57-3.26v7.58ZM445.82,628.98l-7.57-2.18,5.41-4.31-6.49,1.08v-6.49c2.17-.22,4.49.68,6.05,2.16,1.88,1.8.31,3.12.44,3.25.1.1,1.88-.44,2.18.7.43,1.64-.24,3.98-.02,5.79ZM439.33,614.36l7.58-2.7c.95,8.07-2.94,7.25-7.58,2.7ZM447.98,607.32l-6.46-3.78c0-1.2,6.84-3.35,7.56-2.71l-1.1,6.49ZM440.43,600.82l1.08-7.58,6.48,3.26c2.43,2.54-6.7,3.47-7.56,4.31ZM450.15,595.4c-.93,1.03-5.73-2.62-6.49-3.78l6.49-1.62v5.4ZM442.58,588.91v-3.24s8.65,0,8.65,0c.86,3.82-6.35,1.62-8.65,3.24ZM455.05,583.5c-5.38.72-10.43-1.31-15.73-1.09.14-.88-.22-2.99.02-3.24.59-.64,14.56,3.35,17.31,2.17.17,2.55.35,1.89-1.6,2.16ZM487.07,575.83c.02-1.67-1.23-3.9-1.17-5.33l-7.58-1.07c-1.01,4.09,4.35.79,6.02,3.18,3.3,4.72-5.06,4.23-8.18,4.39-1.8.09-3.61-.04-5.42,0-1.44.04-2.89,0-4.33,0-.72,0-1.44,0-2.16,0-3.59,0-7.27.19-10.83,0-3.69-.19-6.38-.73-9.74-1.08-2.95-.31-5.74-.61-8.67-1.09-5.08-.82-9.23-2.08-14.08-3.24-4.59-1.1-8.35-1.77-13-3.25-3.23-1.02-5.63-2.09-8.66-3.24-8.01-3.06-13.14-5.77-20.58-9.74-8.72-4.66-14.28-6.91-21.65-14.08-7.7-7.48-10.33-13.7-9.21-24.9,2.65,1.82,4.88,5.7,7.05,7.58,2.84,2.44,6.13,4.34,9.21,6.47.92-.76-.98-2.56-.55-3.23-.42-.25-.77-.95-1.09-1.09-.32-.13-.84.16-1.08,0-5.28-3.36-18.35-18.9-19.23-24.62-.4-2.63-.52-12.54,2.46-13.27,1.52-.38,8.66,10.85,11.35,12.99,6.44,5.1,15.93,8.75,23.82,10.82,3.44.91,7.9-.02,9.75,3.25,1.71-2.03,14.54.79,18.4,1.08,1.79.13,3.62-.1,5.42,0,9.96.57,20.7,1.85,30.32,2.17,7.19.24,14.46-.14,21.65,0,4.32.09,8.68-.05,13,0,1.44.02,2.89-.03,4.32,0,3.24.07,6.53-.18,9.75,0,1.75.1,3.77-.46,5.41.53,1.57.95,1.65,3.36,2.17,4.89.9,2.66.73,2.91,1.08,5.41,1.02,7.19-.97,16.3-2.17,23.82-.69,4.38-1.08,7.48-2.17,11.91-1.62,6.6-.26,12.01-9.65,10.74ZM559.52,601.91c.42,1.07.71,2.44,1.09,3.24,1.67,3.59,4.22,7.02,6.47,10.29-.9,2.02-3.61,1.22-4.3,1.62-9.73,5.66-17.61,7.16-28.15,9.74-2.11.52-3.62.69-5.42,1.09-4.06.89-6.43,1.49-10.82,2.17-6.22.95-12.39,2.94-18.83,2.23-1.28-.36-1.32-5.15-1.75-6.57-.65-2.15-1.73-3.83-2.17-6.5-.17-1,.13-2.21,0-3.24-.43-3.25-.99-6.44-1.09-9.74-.07-2.51-.09-5.09,0-7.59.12-2.86.84-4.43,1.09-6.49,1.01-8.5,2.61-16.56,4.33-24.91.52-2.53,1.77-5.51,2.17-7.58.18-.96-.13-2.21,0-3.25.09-.7-.09-1.47,0-2.17.07-.49.59-.94,1.08-1.08.06-.35-.05-.73,0-1.08.26-1.72,1.01-4.44,1.09-5.42.34-5.01.41-12.35,0-17.32-.74-8.83-1.63-10.74-9.2-14.09-.87-.38-3.46-.03-1.62-2.14.33-.38,7.92-3.98,9.14-4.41,13.71-4.7,17.97,2.05,28.74,8.72-.04-4.83-4.78-6.25-7.55-9.2,1.84-2.08,4.94-2.51,7.56-2.71,11.64-.88,13.01,3.2,17.33,11.91,5.43,10.96,6.09,18.69,5.41,31.4-.27,5.22-2.09,4.16-2.24,5.92-.34,3.83,1.5,1.63,2.23,3.81-5.71,1.1-5.7-.54-6.49,4.34-.1.67.08,1.47,0,2.17-3.12-2.1-6.01-2.47-9.73-2.17.2,4.34,1.79-1.18,6.5,4.33,4.41,5.17.79,2.1-.62,4.29-.79,1.23.65,2.79.44,3.76-.35,1.69-6.48,1.68-.93,4.95l2.18-3.25.54,4.32,3.8-4.32c0-.27.9-4.65,1.09-5.41.55-2.24.1-4.41,3.24-5.41.15,2.2.9,4.28,1.09,6.49.28,3.16-.33,6.61,0,9.75.29,2.72.65,5.98,1.09,8.66.19,1.2.8,4.32,1.08,5.42.09.33-.08.74,0,1.08.22.79,1.63,2.94,2.17,4.33ZM623.41,467.63c-1.19,2.49-1.58,3.93-3.25,6.5-.26.41-.81.7-1.08,1.09-.28.41-.79.68-1.09,1.08-.3.41-.77.7-1.08,1.09-6.62,8.24-13.65,12.54-19.5,19.49-3.44,4.09-3.16,5.46,2.17,3.24.32-1.83,12.02-13.06,15.15-13.55-3.5,6.4-7.15,12.68-10.81,18.97-6.38,10.96-9.2,14.81-17.32,23.82-.24.26-.22,1.82-1.05,2.7-3.54,3.73-21.05,19.39-24.94,20.05-.67.1-1.47-.06-2.17,0-.1-2.52.11-5.07,0-7.59-.29-6.26-.64-14.59-2.17-20.57-.5-1.98-3.33-9.08-4.33-10.83-.49-.87-5.87-5.81-5.41-6.48,5.6-3.04,11.8-5.55,17.32-8.68,2.5-1.41,5.1-2.89,7.58-4.32,3.59-2.09,7.26-4.35,10.83-6.5,7.13-4.28,14.72-8.69,21.65-13,5.5-3.41,10.49-7.51,16.24-10.82,1.94-1.12,3.78-3.53,6.49-3.24.29,3.06-2.19,5.37-3.24,7.57ZM663.01,422.22c-.42.58-9.68,4.65-12.53,6.96-8.4,6.75-13.42,17.64-20.52,23.87-6.11,5.36-29.26,18.3-37.62,23.03-1.03.59-4.87,3.08-5.73,2.37,8.67-10.17,16.64-22.44,26.5-31.42,11.04-10.06,25.49-15.96,35.21-27.6l-4.31-.52v-9.75c4.88.27,12.31,2.48,15.86,5.8,1.46,1.35,4.57,5.31,3.16,7.27ZM671.05,457.89c-4.8-3.7-5.1-14.19-4.07-19.78,2.51-13.6,18.49-14.5,29.46-11.55,2.21.6,18.14,7.6,15.76,10.75-3.48-.19-7.15,4.35-9.6,4.86-2.37.5-8.84-.85-12.58-.5-8.71.82-19.08,6.48-18.97,16.22ZM691.58,455.68c-1.99,1.38-9.43-5.93-9.68-7.02-.9-3.99,11.64-4.13,14.06-3.76.68.67-3.9,10.44-4.38,10.78ZM680.99,467.99c-9.03-2.6-9.59-9.99-3.97-16.59,1.82,3.75,6.18,7.13,10.25,8.15,2.86.72,8.51.03,9.59.7.44.26,2.5,5.5,2.3,6.74-.87,3.03-15.3,1.84-18.17,1.01ZM686.23,506.62c.92-11.55-.09-10.84-10.84-11.36,9.81-7.43,18.37-15.79,25.97-25.45.51,3.46,5.3,6.66,6.05,9.71,1.54,6.23-15.52,23.74-21.18,27.1ZM697.58,536.92c-2.06-1.42-1.68-2.45-1.39-4.6.62-4.49,4.48-11.73,5.96-16.81,3.11-10.71,6-21.7,7.89-32.7,5.58-.08,1.33,11.45.55,15.16-.96,4.59-10.47,38.84-13.01,38.95ZM706.67,543.31c-.49.41-5.22.91-4.17-1.44l11.85-43.91c.04,5.51-5.91,43.89-7.68,45.35ZM778.25,489.28c-10.18,1.34-11.21,1.38-8.67,11.92-2.53,2.68-23.54-16.89-24.38-21.57-.46-2.58,5.25-9.47,4.91-13.07,8.4,8.87,18.53,15.31,28.13,22.72ZM747.94,442.74c17.21-2.14,23.75,9.69,3.24,10.81.61-4.14-1.37-7.36-3.24-10.81ZM751.64,464.45c-1.64-10.04,3.23-6.54,9.3-9.26,3.2-1.43,4.28-4.48,7.56-4.88,7.02,11.03-7.64,18.04-16.86,14.14ZM773.92,453.56c-2.26-1.76-3.21-4.76-5.38-7.06-10.96-11.61-21.59-3.15-33.57-10.8,17.29-16.49,49.64-11.82,38.96,17.86ZM813.98,331.2c-2.91,1.7-14.63-6.02-11.9-8.66,1.75-1.68,13.71,4.04,11.9,8.66ZM800.86,325.93c3.81,2.13,3.75,18.03-1.03,12.18-2.15-2.64-5.25-15.69,1.03-12.18ZM795.27,315.11c3.99-1.11,8.45,3.1,5.14,7.39-5.29,6.85-12.51-5.35-5.14-7.39ZM814.05,315.43c13.57,3.14-7.89,9.56-10.73,4.79-3.14-5.3,6.86-5.69,10.73-4.79ZM812.9,305.22c3.07,3.19-7.32,10.99-10.82,9.73-1.06-3.35,8.75-11.88,10.82-9.73ZM803.16,298.72c1.03,2.59-1.34,15.89-4.85,15.15-3.61-.77-1.29-17.05,4.85-15.15ZM795.58,313.87c-.37.33-4.72-.67-5.41-1.08.76,1.22,1.54,5.03-.57,5.42-1.28.24-14.17-5.79-11.34-8.66.39-.4,9.53,1.75,10.82,2.16-1.15-1.85-5.44-12.09-.35-9.95,4.78,2.01,6.06,7.5,6.85,12.11ZM777.15,316.01c-.17.23-2.21.26-2.76,1.08-.84,1.25,2.62,9.3-2.62,8.69-.31-5.22-.13-19.01,3.77-22.74,1.86-1.79,6.82-1.41,9.2-3.24l1.09,9.74c-2.56-1.73-6.77-3.39-9.46-.81-3.08,2.96,1.61,6.15.79,7.27ZM769.7,283.95c-1.09-16.04,12.4-18.1,12.89-1.48.58.61,11.37-7.08,14.98-1.43,5.71,8.95-16.28,19.97-21.81,18.61-3.22-.79-5.85-12.56-6.06-15.7ZM767.13,325.52c-1.84-2.76-1.47-7.75-1.87-8.4-.06-.09-2.05.42-2.24-.68-1.26-7.31,8.87-5.06,5.49-1.49-.52.56-4.4-1.31-3.24,2.17,6.06-.4,4.96,5.51,3.25,9.74-.39.95-.11,2.84-1.7,3.19-.36.08-6.74-1.83-6.96-2.12-2-2.52,4.14-4.13,7.28-2.41ZM738.28,322.63c7.85-5.29,7.88,17.08,2.63,20.46-7.12-.46-4.49-19.2-2.63-20.46ZM744.68,345.28c-.07-.55-1-1.26-.82-2.52.44-3.08,7.42-11.01,10.51-12.16,10.68-3.95.2,9.57.07,10.34.54-.22,2.31.5,3.03-.21.64-.63-.49-2.46,1.5-3.4,1.8-.84,4.31-.75,6.29-.72,2.57,7.6-11.92,10.52-10.82,4.32-3.59,1.46-6.26,4.29-9.75,4.33.49,3.7,2.88,6.03-1.11,9.18-7.08,5.61-15.72-6.05-7.52-9.72,3.3-1.48,5.56.58,8.63.54ZM733.86,384.89c.18,1.63-.46,4.32-1.09,5.87,1.11-.61,1.75-1.43,3.24-1.08-1.03,12.63-17.11,16.45-24.89,5.94-3.56-4.81-5.95-13.74,1.07-15.68-.45,8.88,1.64,18.55,12.49,17.39,3.99-.43,3.08-1.74,4.84-3.32-5.52,2.23-12.46,1.6-13.88-5.12-.69-3.29.64-4.38.77-6.33.02-.32-3.5-.49-2.11-5.22.72-2.45,15.12-.34,16.3.43-7.4-6.75-8.66-4.23-16.89-2.26-3.73.9-.24-6.34,3.08-7.76,12-5.11,23.33,6.5,22.48,18.15-.6,8.12-4.49-3.58-5.59-5.29-1.06-1.63-1.96-1.84-3.05-2.81.46.55,3.13,6.38,3.22,7.1ZM678.35,374.25c-4.39-.75-10.82-4.46-10.54-9.48,8.33,2.53,19.42,6.6,27.5,1.18,1.4-.94.33-2.58.65-3.35-9.2,5.34-16.45,5.31-21.66-4.33-.61-.56-.77-.96-.65-1.27-1.81-3.63-2.23-6.2-1.44-11.13,1.84-11.55,25.11-13.65,27.82,1.28,1.38,7.62-1.59,9.39-4.07,15.45,3.09-1.81,2.1-1.42,4.35-3.77,5.36-5.59,2.05,5.1,2.14,9.19,1.47-.89,2.63-1.98,3.79-3.23,5.74,4.35.93,5.12-3.78,6.47-.04-1.08.02-2.17,0-3.24-7.77,4.7-14.56,7.85-24.1,6.23ZM697.04,384.25c-2.09.48-5.06-4.45-5.68-5.7-.77-1.56-1.09-3.65.82-4.03,2.86-.57,4.3,7.93,4.85,9.73ZM669.96,353.94c.46.4,2.88,9.41,5.43,10.81-2.19.29-6.13-1.31-7.05-3.23-.87-1.84-1.31-10.11,1.62-7.59ZM704.63,363.68l4.31-18.4c2.17,6.45,1.86,14.42-4.31,18.4ZM706.27,323.63c3.81-.82,3.29,8.7,1.06,8.63-1.35-.04-4.28-7.95-1.06-8.63ZM708.96,362.61l6.49,1.09c-.05,5.01-6.97,3.07-6.49-1.09ZM712.2,339.87c3.98-.97,7.76-.62,11.62.83,2.32.88,10.38,5.32,6.67,7.71-2.99,1.92-19.84-2.06-18.29-8.54ZM713.3,353.94l-1.08-7.58c1.28,2.25,7.26,2.97,7.57,3.25,2.3,2.11-5.95,3.31-6.49,4.32ZM727.14,350.91c1.28-.13,2.19-.55,3.48.26,8.78,5.57-17.9,15.5-19.5,8.7-.59-2.53,13.28-8.7,16.02-8.97ZM734.36,356.49c7.93-.92,3.45,12.52,2.21,12.59-1.3-1.17-7.9-5.03-8.14-5.97-.3-1.23,4.98-6.51,5.92-6.62ZM738.2,373.95c-.76-2.9,2.68-.51,2.92-.2.91,1.16,4.08,8.85,3.56,9.42-2.22,2.43-5.26-8.76-6.48-9.22ZM722.47,324.75c5.28-.4,13.15,13.13,12.47,18.36-6,3.05-19.86-17.81-12.47-18.36ZM720.86,336.61c-1.68-.31-8.03.51-8.61-.06-.35-.34-1.16-8.2-1.13-9.68,5.9.2,8.28,4.6,9.73,9.73ZM712.75,306.32c4.81-.11-2.26,9.46-4.86,9.73-1.32-2.41,3.24-9.69,4.86-9.73ZM698.92,270.74c4.79-.69,11.25,7.19,4.32,6.11-3.77-.6-13.13-4.83-4.32-6.11ZM701.38,278.16l-5.96,9.71c-2.45-2.85-5.52-3.59-9.2-3.23.37-8.69,8.55-9.74,15.16-6.48ZM691.63,273.82c-1.32,2.45-4.3,2.98-5.93,5.43-2.65,4,.25,6.55-7.07,5.38-.48-7.44,5.91-11.98,13-10.81ZM698.12,303.05c-9.48.79-22.57-5.79-22.74-16.23,4.47.14,16.07-.86,19.25,2.4.49.51,4.01,13.34,3.49,13.83ZM700.4,300.77c-6.53-13.34,1.05-21.77,13.95-24.8,3.27,9.83-2.41,24.72-13.95,24.8ZM704.08,306.32c2.09-.04,1.73,7.01,1.62,8.64-4.7.86-3.78-8.61-1.62-8.64ZM703.54,321.45c.34-1.87-.31-4.35,2.71-4.34,3.41,0,2.17,3.43,2.71,4.34,4.38-.66,6.97-2.16,8.66,4.32-3.9.35-6.68-.96-8.66-4.32-3.43.52-3.43-.04-5.41,0-.67,3.69.46,5.52-4.85,6.5-4.35-2.46,2.42-6.45,4.85-6.5ZM692.72,318.21c1.43-.21,7.59-.28,7.55,1.62-.05,2.85-9.22,4.74-7.55-1.62ZM665.11,360.43c-2.4-2.34-4.89-8.5-2.8-11.26.71-.93,3.02-.95,3.33-.65.43.42.11,10.33-.53,11.91ZM672.19,331.79c7.75-5.04,9.85-1.23,16.1-1.1,1.52.03,2.85-1.57,4.92-1.74,14.8-1.26,15.43,13.24,11.4,23.9l-4.91-12.94c-8.57-10.89-27.94-5.57-30.83,7.53-7.67-2.51-1.48-12.53,3.32-15.65ZM658.89,386.12c-9.12-1.38-6.38-5-.85-10.01,8.4-7.62,8.32-4.62,15.83-.62,2.58,1.37,7.25.61,6.92,4.42-7.65,4.69-12.41,7.65-21.9,6.22ZM668.9,399.42c-.81-8.13,16.76-24.49,22.83-16.89,6.57,8.24-15.94,19.82-22.83,16.89ZM693.39,414.49c-6.53-1.11-5.26-24.02,3.63-24.8,8.08,10.47,10.17,18.29-3.63,24.8ZM721.95,435.16h-2.17v-15.7c0-1.47-2.22-5.52-1.08-8.13h3.24v23.83ZM711.18,406.41c-6.68-4.36-2.62-8.35-3.32-9.13-.16-.17-2.64-.11-4.4-1.55-8.51-6.94-4.79-24.72,7.65-24.45-1.48,8.68-7.66,12.73-5.48,23.21.23,1.13,2.31.23,3.02.84.54.45.74,2.99,2.39,4.72,4.44,4.65,13.73,4.99,19.03,1.57-2.59,9.24-11.74,9.47-18.9,4.8ZM731.69,490.38c-1.28,6.23,10.37,44.9,8.67,46.54-.31.3-2.65.29-3.34-.63-1.47-1.99-4.32-16.13-5.02-19.68-.66-3.33-3.87-22.94-3.41-24.42.44-1.4,1.66-2.12,3.1-1.82ZM729.54,417.82c-1.93-3.16,3.75-13.45,6.48-10.82.47.45-4.99,10.21-6.48,10.82ZM730.62,405.91c1.29-3.91,4.66-6.1,6.88-9.89,1.86-3.18,3.77-6.97,3.95-10.68,6.32.68,4.81,11.28,2.21,14.68-1.19,1.57-11.43,7.28-13.05,5.88ZM754.98,408.09c.74,1.47,2.81,1.59,3.46,2.48,1.88,2.54,2.73,8.57-2.08,8.14-9.57-.86-23.89-14.21-9.77-17.95,8.7-2.31,6.47,3.54,8.39,7.33ZM746.87,381.01l-1.1-8.66c5.39.26,4.95,6.29,1.1,8.66ZM741.49,357.25c.18-.2,4.57-1.95,4.85-1.95,1.43.02,10.89,11.69,10.98,13.26.07,1-1.98,3.92-2.89,4.4-4.68,2.46-14.46-13.99-12.94-15.71ZM751.19,376.15l7.56-2.72v5.41s-7.56-2.69-7.56-2.69ZM759.29,365.84l-8.1-9.2,12.99-.53c.56,3.99-2.28,7.12-4.89,9.73ZM748.06,352.74c-.35-.42-.36-5.84,0-6.26,1.94-2.34,19.3-1.17,20.4,3.77,1.15,5.25-19.05,4.12-20.4,2.5ZM766.9,342.04c-.61-2.1,1.54-5.84,1.62-7.59-1.56.1-9.06,1.14-8.66-1.61,1.61-2.32,6.63-2.37,8.19-.61.5.67.49,1.44.46,2.22.71-.06,1.52.11,2.16,0-1.01-4.93-3.01-5.38,3.25-6.5.84-3.67,6.57-8.04,10.36-8.6,9.03-1.33,5.37,3.19,8.05,5.34.43.35,2.91.2,3.24,1.68.37,1.73-6.21,14.81-9.71,8.62,1.93-2.27,2.65-5.87,4.3-8.14-1.09-2.05-5.51.95-6.49,0-1.62-1.54,4.41-5.61,0-6.49-.41,6.48-4.8,6.69-9.75,7.58-.47,2.04,2.63,5.39-3.25,6.5.89,4.28,1.35,5.51-3.77,7.59ZM796.65,360.44c-2.6-2.89-9.38.36-9.72,0-.39-.4-1.82-9.19-2.18-10.82,6.26-.75,12.66,4.18,11.89,10.82ZM796.65,351.24c.81-1.38,4.45.06,5.17.79,1.85,1.89,2.02,10.57-.27,10.54-1.29,0-3.81-9.61-4.89-11.33ZM795.58,349.6c-2.34.08-3.6-1.69-6.01-2.11-2.33-.4-5.17.45-7.36-.21-1.91-.58-2.37-3.62-1.79-4.16,1.19-1.1,16.41.56,15.16,6.48ZM784.75,333.36l-8.65-2.69c2.93-2.9,11.6-3.02,8.65,2.69ZM787.99,339.87c-1.48,3.48-7.37-.67-5.39-3.25l5.39,3.25ZM781.03,335.49c.29.37-.49,3.17-.62,3.28-1.14,1.01-6.06-3.4-5.4-5.4.47-.46,5.35,1.31,6.02,2.12ZM770.65,353.37c.21-1.85,2.69-9.55,4.89-9.21,3.73.55,9.76,12.98,9.23,16.76-.32,2.34-7.75,10.8-10.58,7.89-2.7-2.79-3.99-11.6-3.55-15.44ZM771.23,385.34c-3.68-.82.32-16,5.94-12.99,1.16,2.67-2.91,13.66-5.94,12.99ZM785.51,379c2.34-.12,3.24,3.02,2.45,4.12-.35.47-9.91,5.18-10.49,5.27-8.77,1.29,1.44-9.02,8.04-9.39ZM773.37,411.33c-4.08.9-7.38-13.24-4.3-14.07,5.18-1.38,7.36,13.39,4.3,14.07ZM784.75,404.83c-2.54,2.44-13.53-7.18-10.82-9.73,2.7-2.54,12.88,7.75,10.82,9.73ZM775.01,392.91c-1.38-1.49.22-1.88,1.36-2.4,10.29-4.67,18.31,2.67,10.87,4.41-.9.21-11.82-1.55-12.23-2.01ZM808.43,398.9c-.36,4.71-16.26,2.17-19.34-.58-1.25-1.77,4.53-4.09,3.17-7.98-.37-1.07-10.36-4.82-1.6-5.03,5.74-.14,18.18,8.26,17.77,13.59ZM817.22,377.22c-5.67,7.39-16.34,10.25-22.69,2.17,0-.65,10.53-5.52,11.61-5.73,4.29-.85,7.94.69,11.09,3.57ZM806.35,365.92c3.43,4.07-9.56,10.13-12.69,10.56-2.4.32-13.33-1.75-14.26-3.11-1.45-2.12,7.49-11.08,9.37-11.64,2.33-.7,16.83,3.32,17.57,4.19ZM803.57,349.53c-5.14,1.5-8.9-7.29-13.39-9.13l4.32-5.95c1.85.43,1.72,3.21,3.2,4.9,5.11,5.84,9.78-1.25,8.7-7.07.52-.61,7.32,2.05,6.49,3.23-5.98-.33-7.53,13.49-9.33,14.02ZM809.7,351.66c-.25-.34.74-2.01.36-3.11-.54-1.55-2.2-3-2.16-4.91.09-3.39,8.04-7.85,11.49-7.02-.57,3.57-1.25,6.99-4.3,9.2,1.99,2.86,11.41,1.35,8.6,5.89-.92,1.49-12.86,1.6-13.99-.05Z"/>
    <path class="cls-14" d="M750.1,311.71c-.84,3.65-1.48,1.54-2.17,2.17.15-.04,1.09-1.44,2.17-2.17Z"/>
    <path class="cls-14" d="M790.17,312.79c-.51-.3-.77-.59-1.08-1.08.69.22.77.58,1.08,1.08Z"/>
    <path class="cls-14" d="M738.19,296.55c.34-1.27.49-.8,1.08-1.08-.4,1.45-1.03,1.03-1.08,1.08Z"/>
    <path class="cls-14" d="M764.18,385.34c-.91-.18-.77-.33-1.08-1.08.31.32.92.53,1.08,1.08Z"/>
    <path class="cls-14" d="M731.69,391.84c.37-.24.66-.86,1.08-1.08-.18.44-.88.74-1.08,1.08Z"/>
    <path class="cls-14" d="M729.53,394c.3-.12.65-.83,1.08-1.08-.32.38-.71.75-1.08,1.08Z"/>
    <path class="cls-14" d="M730.61,392.92c.37-.22.67-.81,1.08-1.08-.24.4-.77.71-1.08,1.08Z"/>
    <path class="cls-14" d="M738.19,296.55c-1.22,4.52,5.83.27,6.49,3.24-10.43-.43-3.13,6.08-4.33,7.59-2.3,2.86-3.76-8.76-7.44-4.18-4,4.97,8.24,12.61,15.03,10.68-.13.12.49,1.86-.71,2.18-9.68,2.61-18.9-7.01-18.78-16.26l3.24,3.24c.31-2.98,4.6-4.39,6.51-6.49Z"/>
    <path class="cls-11" d="M450.16,679.87c-2.73-20.08-3.15-40.97-1.07-61.16.48-4.67,3.9-28.71,5.33-31.28.86-1.55,4-.09,5.56-1.14,1.54-1.04.66-4.52,1.04-4.92,1.09-1.14,27.06,1.67,31.35-2.21-.79,10.82-2.91,20.83-2.02,31.8.35,4.34,3.44,21.79,6.46,23.92.86.61,2.9.16,3.22,1.25.76,2.59-1.68,12.37,1.56,13.4,7.73,2.45.73-13.18,1.61-14.06h6.51c.5.48-1.63,14.23,3.77,11.9,4.23-1.83-1.49-9.62-.53-12.98h6.5c-1.11,2.89.77,14.97,5.4,11.9,3.91-2.59-8.82-16.13,4.3-14.04.51,2.68.02,12.86,3.83,12.94,4.35.1-1.16-13.36-.53-14.04.17-.18,4.54-1.04,4.78-.98,2.84.64.87,7.89,2.91,11.15,2.05,3.29,5.03.87,3.96-3.95-1.34-6.03-7.38-9.28,3.51-9.49.85,4.36,0,10.18,3.79,12.98,7.3-3.42-6.12-15.25,3.43-16.08,4.11-.36,1.1,10.97,6.32,12.83,7.88-5.12-7.48-13.94,3.45-16.03,2.6-.5,1.13,4.28,1.68,6.59.76,3.17,3.14,8.78,6.32,4.64,3.26-4.25-3.97-8.98-4.27-12.15-.2-2.12,3.16-2.92,2.96-5.04-.16-1.7-4.62-6.9-5.79-9.41-6.98-14.98-6.52-31.78-7.08-47.94,10.37-6.42,20.77-12.98,29.28-21.85,29.5-30.75,34.16-77.83,67.62-105.63,1.95-1.62,8.73-8.45,15.15-8.89,7.22-.49-6.38,13.46-6.91,17.13-2.83,19.72,10.62,37.3,31.31,32.94-6.05,10.74-17.45,16.05-25.97,24.35,3.59,4.06,9.31,2.45,14.06,2.7,2.43,2.47-7.42,20.52,7.59,8.14,4.78-3.94,9.15-9.18,13.17-13.9.8-.95,2.12-3.51,1.95-.22-2.72,16.34-13.57,28.79-23.82,41.16-12.39,14.96-27.16,29.8-41.11,43.36-2.74,2.66-24.81,20.16-21.67,23.26,2.16,2.13,7.32-5.88,8.65-4.32.67,3.55-1.12,6.93-1.17,10.28-.03,1.92,1.84,7.31,1.15,8.1-.5.57-4.43-1.24-3.23,2.18l6.54,1.81,7.54,61c-60.68,1.76-127.79,2.01-188.41,0Z"/>
    <path class="cls-11" d="M336.46,679.87c-5.74-32.06,2.16-70.69,16.76-99.64,2.11-4.17,8.85-12.94,9.82-16.17.65-2.17.17-11.99,1.05-11.97,15.12,9.68,31.64,17.6,49.02,22.44,4.31,1.2,20.46,3.54,22.21,4.61,1.25.76.85,2.76,1.77,3.89s2.93,1.32,3.22,1.72c.57.78-3.73,16.18-4.13,18.89-3.78,25.2-4.51,50.97-1.18,76.24-31.63,2.56-66.56-1.92-98.54,0Z"/>
    <path class="cls-2" d="M763.1,279.22c-4.81,1.78-8.73,8.64-12.99,8.66-.53-1.51-3.79-9.26-3.24-9.74,3.16-2.81,3.29,3.26,3.81,4.27.55,1.09,2.96,3.06,3.76,2.21,2.08-2.19-4.65-5.39-4.33-7.56,6.15,0,5.25,7.06,8.66-1.09,2.33-.16,2.93,1.98,4.33,3.25Z"/>
    <path class="cls-2" d="M427.13,462.51c5.23,5.22,10.28,26.86,15.62,34.73,18.2,26.82,38.66.75,47.31-18.38,2.8-6.2,9.81-26.05,8.63-32.07-1.49-7.62-9.24-5.41-14.18-6.47-14.8-3.19-16.01-8.41-17.03-23.04-2.54-36.62,6.15-88.19,48.66-97.5,46.31-10.15,81.41,33.22,84.56,75.82.65,8.75-1.26,19.82.03,28.13.98,6.35,4.43,11.43,4.35,19.57-.1,10.59-2.61,9.62-7.63,16.26-5.25,6.95-11.94,17.4-17.88,23.27-3.31,3.28-32.15,19.71-36.03,20.37-3.66.62-6.98-1.94-10.55-1.97-4.29-.03-9.6,3.02-13.08,3.17-8.45.38-12.1-2.55-21.77,2.04-3.62,1.72-8.12,7.27-10.66,7.75-9.34,1.78-35.71.44-46.59.08-18.16-.62-64.89-2.95-79-13.04-12.56-8.98-15.86-34.99-13.25-49,.9-4.84,3.54-9.69,4.06-14.35,2.51-22.76-5.6-40.04,3.8-64.41,18.14-47,63.42-48.33,78.42,1.67,4.09,13.65,8.22,39.12,6.59,53.02-1.08,9.23-20.78,18.59-22.61,25.12-1.6,5.7,6.1,7.13,8.22,9.25ZM532.45,437.32c22.02-3.95,30.24-29.21,18.62-47.32-5.07-7.9-16.63-15.33-26.2-11.16-1-.1-9.26.76-6.49-2.15,2.63-2.77,14.47-3.47,18.47-2.78,20.32,3.51,28.83,27.8,23.77,46.07,4.51-.51,6.12-8.81,6.48-12.46,2.67-27.63-24.09-48.82-49.84-35.76-28.69,14.55-24.85,72.73,15.2,65.55ZM392.77,447.06c38.77,4.23,31.88-66.65-7.1-62.85-22.31,2.18-32.57,39.58-15.65,54.19.23-6.72-3.42-13.35-3.32-20.02.22-15.81,14.2-35.3,31.49-26.54-6.4,1.67-10.38.88-16.17,4.94-19.37,13.57-11.84,47.82,10.76,50.28Z"/>
    <path class="cls-11" d="M347.24,582.37c-2.17,1.56-15.92-10.23-18.37-12.39-16.14-14.23-55.16-58.81-58.18-79.34-1.63-11.11,2.18-18.11,7.93-27.24,6.04-9.59,28.91-35.78,40.07-36.9,5.34-.54,17.42,7.91,17.41,12.44,0,.99-6.84,10.16-8.14,13.15-8.22,18.86-2.99,43.16,8.06,59.85,1.74,2.64,6.93,7.56,7.47,8.77,2.21,4.98.59,10.84,5.07,17.67,2.05,3.12,12.42,11.34,12.58,12.21.22,1.19-1.28,10.11-1.88,11.85-1.12,3.22-8.26,12.73-10.71,16.4-.7,1.05-1.15,3.42-1.3,3.53Z"/>
    <path class="cls-1" d="M527.04,542.35c-.06.39.12.86,0,1.08-1.42,2.77-8.91,4.2-11.9,2.64-.28-.15-4.75-4.44-2.73-4.8,4.47,5.12,9.19,3.18,14.62,1.08Z"/>
    <path class="cls-1" d="M531.37,505.54c-.1,6.61,6.63,7.8,9.75,11.91l-1.08,1.08c-.42,0-1.6-1.07-2.77-1.05-2,.02-9.6,2.49-6.97,5.38.94,1.04,4.51-2.85,6.2-3.11,3.6-.55,5.92,5.94,5.71.95,1.92,5.14-.61,2.22-1.06,3.97-1.67,6.46,3.75,5.88,3.21,10.58-.18,1.56-4.19,8.13-3.23,9.27,2.44,2.86,1.49-5.52,5.94-4.31,3.89,1.06-1.5,6.54-.53,7.56l7.58,1.1c-.28,5.22-2.09,4.16-2.24,5.92-.34,3.84,1.51,1.63,2.24,3.82-5.72,1.09-5.7-.54-6.49,4.34-3.8-6.4.8-4.74,1.86-5.65.59-.51,1.17-4.05,2.47-5.17-4-1.42-6.74.58-10.27-2.19,1.29,6.92-2.12,5.41-3.51,6.72-.83.79-.49,3.22-1.33,4.5-.5.76-3.93.76-2.2,2.86.13.16,2.22-1,3.24-1.08.2,4.34,1.79-1.18,6.5,4.33-1.06,2.38-3.34,2.3-5.41,3.25.74-3.72-2.12-1.49-4.69-2.16-.89-.23-.77-2.24-1.26-2.17-.33.05-.38,1.03-.55,1.07-10.37,2.56-3.39,11.38,1.1,7.9.26-.2-.21-1.24-.02-1.4.3-.26,1.88.26,2.17,0l2.17,8.66c-2.15,1.04-10.02-1.56-10.74-1.02-.32.24-.51,2.65-1.29,3.63-.72.9-1.83,1.43-2.05,1.73,1.39-2.42,2.02-8.82-.02-10.32-.92-.67-3.06-.34-3.24-.52-.4-.4,2.52-7.74-3.24-9.74.13-.13-.37-1.37.72-2.22,5.96-4.64,16.67,3.36,15.19-7.9-1.12-8.52-12.17.06-15.4.28-.54.04-.95-1.88-1.59-2.07-.5-10.18,9.78-2.13,10.83-10.83.02-.19.76-.52,0-1.08.5-3.32-.22-8.24-4.32-8.68-.5-1.62,5.56-6.03,2.19-8.11-2.44-1.51-15.06-1.49-17.32.04-1.31.88-2.05,2.73-3.29,3.77-.73-8.82-1.62-10.73-9.21-14.08-.87-.38-3.46-.03-1.61-2.14.33-.38,7.92-3.99,9.14-4.4,13.71-4.71,17.97,2.05,28.74,8.72-.04-4.83-4.78-6.25-7.55-9.2,1.84-2.08,4.93-2.51,7.56-2.71ZM531.91,549.93v1.08c.7-.36.7-.72,0-1.08ZM538.94,552.1l-3.24.53c.99,1.15,1.64,1.98,3.24,1.62v-2.15Z"/>
    <path class="cls-1" d="M603.92,474.13c-.6,4.22.58,3.31,4.33,3.25-4.55.65-4.41,2.09-6.59,3.69-1.06.78-2.92.49-3.14.69-.25.23.91,2.85.63,4.37-.39,2.09-2.66,1.52-2.9,3.66-.25,2.28.02,5.04,1.18,7.08-3.44,4.09-3.16,5.46,2.17,3.25-.48,2.8,1,6.65,4.33,5.41-6.38,10.97-9.21,14.81-17.33,23.82h-5.41c.85,1.3.93,5.06-.66,5.47-5.32,1.37-2.97-3.1-4.26-3.37-3.5-.74-7.99.04-7,4.4l3.25,1.08c-9.35-2.34-12.77,7.39-11.91,15.17-.67.11-1.46-.06-2.16,0-.1-2.52.11-5.07,0-7.58,2.23-2.23.34-5.72,1.64-8.65.39-.88,7.75-8.51,8.64-8.69,1.52-.3,3.31.13,4.88,0-.45-1.86-1.88-.5-2.59-3.4-.85-3.5.74-5.29.44-7.87-.43-3.65-6.06-5.65-3.27-10.36l-3.23,1.08c-.99-1.15,6.41-9.95-1.09-8.66,2.5-1.41,5.1-2.89,7.58-4.33v6.49c1.94.72,2.85-1.92,3.79-1.91,1.41.01,3.34,4.83,5.95,4.08,2-2.95-3.44-5.22-2.15-6.49.45-.44,5.96,2.92,7.56-.56,1.31-2.84-4.63-.11-3.25-3.77l3.25-1.08-4.33-3.26c7.13-4.28,14.72-8.69,21.66-12.99Z"/>
    <path class="cls-6" d="M453.04,431.23c9.73-.19,17.78,8.38,26.34,10.98,2.47.75,15.2,1.42,15.16,3.23-4.28,5.02-9.31,8.57-15.8,10.16-12.87,3.17-23.31-2.51-35.64-.99-5.27.65-10.13,6.07-14.59,4.99-3.47-.84-7.89-3.73-5.48-7.72.67-1.12,17.74-15.94,19.63-17.2,2.87-1.91,6.94-3.39,10.39-3.46Z"/>
    <path class="cls-2" d="M544.36,567.26c4.41,5.17.8,2.1-.62,4.29-.8,1.23.65,2.79.45,3.76-.36,1.69-6.48,1.69-.93,4.95l2.18-3.25.54,4.32,3.81-4.32c0,2.65,2.81,5.18,5.41,5.41.29,2.73.65,5.98,1.08,8.66l-5.41.54c2.03,1.79,3.5,4.67,6.49,4.88.09.34-.09.75,0,1.08-2.24,5.08-5.36,3.38-9.75,4.34l2.17,8.65c-1.89,2.34-4.87.9-6.88,2.24-1.32.88-2.16,2.86-3.56,4.1-4.08,3.63-5.93,1.23-4.72,9.9-2.11.52-3.62.69-5.41,1.08l1.08-8.66-6.5-1.62,5.43-.56v-3.24s-5.42-.01-5.42-.01c4.06-9.72-5.91-9.87-3.25-1.08l-5.41-5.41c-1.24-5.64-1.24-3.81-3.25-7.58-.21-.4.14-1.53,0-2.17.37-.02.77.07,1.08,0,.51-.12.92-.58,1.08-1.08,7.01-3.76,5.3-3.6,9.75-9.75.21-.29,1.33-.83,2.05-1.73.78-.97.97-3.38,1.29-3.63.72-.54,8.59,2.06,10.74,1.02l-2.17-8.66c.8-.71-.8-1.41,3.25-3.25,2.08-.95,4.36-.87,5.41-3.25ZM541.94,593.5c-4-4-10.51-1.98-9.56,5.75,1.25,10.13,16.44,1.13,9.56-5.75Z"/>
    <path class="cls-11" d="M659.85,414.96c1.45,1.36,4.56,5.31,3.16,7.26-.42.58-9.68,4.66-12.54,6.96-8.4,6.76-13.42,17.65-20.52,23.88-6.11,5.36-29.25,18.29-37.62,23.02-1.03.58-4.87,3.09-5.73,2.38,8.67-10.17,16.64-22.44,26.5-31.42,11.04-10.05,25.49-15.95,35.21-27.6l-4.31-.53v-9.75c4.87.27,12.31,2.48,15.85,5.8Z"/>
    <path class="cls-8" d="M506.46,557.51c.2.31-.37,1.76.08,2.38,1.12,1.59,3.15,1.29,2.1,5.19,1.47.08,1.66-2.95,2.16-4.33,1.07.07,1.48-.42,2.17-1.08.34-.33.84-.48,1.08-1.08l4.32,1.61c-.64,2.12-7.12,4.78-6.48,6.5,1.09,2.89,4.06.88,5.4-.53,5.76,2,2.84,9.34,3.24,9.74.18.18,2.32-.15,3.24.52,2.04,1.49,1.4,7.9.02,10.32-4.44,6.14-2.73,5.99-9.75,9.75-.43.23-.76.71-1.08,1.08-.31.07-.71-.02-1.08,0-7.47.49-10.52-.87-16.24-5.41,1.01-8.5,2.61-16.56,4.33-24.91l6.48-2.71-4.31-4.87c.18-.96-.13-2.22,0-3.25.82.38,4.21.89,4.33,1.08Z"/>
    <path class="cls-1" d="M407.93,516.36c-.59,4.18,4.43-.19,5.41,5.41.1,1.02-.22,2.43,0,3.25-5.56,2.79-2.57,5.59-1.08,9.73-10.08,2.14-5.21,3.11-4.53,7.26.22,1.33-2.48,3.73-1.98,5.74-2.27-.67-2-5.03-5.4-4.33l-1.62,5.39-4.87-3.22c.81,1.42-.62,8.38-3.25,6.49-1.78-1.28.99-9.53-4.34-7.58l2.14-4.88-6.47.55c.08-.7-.17-1.64,0-2.17.07-.22,2.61-.8,2.21-3.79-.06-.45-2.12-.69-2.23-1.08-1.21-4.2,4.21-2.41,5.44-5.95-10.83-.3-10.14-6.95,1.08-3.26.01-1.98-.05-7.31,1.09-8.66,1.71-2.03,14.54.8,18.41,1.08ZM385.73,532.61v1.08c.7-.36.7-.72,0-1.08ZM397.64,540.19v1.08c.7-.36.7-.72,0-1.08ZM399.81,541.27v1.08c.7-.36.7-.72,0-1.08Z"/>
    <path class="cls-8" d="M712.2,437.3c-3.48-.19-7.16,4.35-9.6,4.87-2.37.5-8.84-.86-12.58-.5-8.71.82-19.08,6.48-18.97,16.23-4.8-3.7-5.1-14.19-4.07-19.78,2.51-13.61,18.49-14.51,29.46-11.56,2.22.6,18.15,7.6,15.76,10.75Z"/>
    <path class="cls-7" d="M483.7,465.51c-1.81,9.65-14.92,30.86-25.51,31.29-8.47.35-7.91-6.24-6.21-12.73,2.84-10.89,20.61-22.93,31.72-18.56Z"/>
    <path class="cls-8" d="M495.64,526.11c1,2.35,2.83,3.54,5.41,3.25,1.02,7.19-.98,16.3-2.17,23.82-3.32,1.59-7.02.6-10.26,1.11-1.79.28-3.09,2.12-3.29,2.12-.69-.03-1.22-2.36-1.97-2.85-1.2-.78-5.7-2.14-6.02-2.7-.8-1.41,1.1-3.54,1.02-4.63-.07-.95-3.17,0-3.4-5.49-.21-5.01,2.15-5.53,2.26-5.97,3.83-1.74,10.68-1.61,14.37.04,1.22.54.19,2.55,1.86,2.12-.54-5.41-7.8-5.57-11.9-5.41-.42-6.53,9.44.33,10.82-1.08.08-1.43-.08-2.89,0-4.33,1.08-.01,2.17.02,3.25,0Z"/>
    <path class="cls-8" d="M695.96,362.6c3.1-1.8,2.11-1.41,4.36-3.77,5.36-5.6,2.05,5.1,2.14,9.18-7.77,4.7-14.56,7.85-24.11,6.23-4.39-.75-10.82-4.45-10.54-9.48,8.33,2.53,19.42,6.6,27.5,1.18,1.4-.94.33-2.58.65-3.35-9.19,5.34-16.44,5.31-21.66-4.33.51.46,11.97,2.34,13.52,2.24,4.02-.27,9.53-4.21,9.22-8.73-3.18-.28-2.59,3.03-5.49,4.78-9.81,5.92-16.02-5.14-8.63-11.88,2.67-2.43,4.18-1.22,7.1-1.58,4.66-.59.02-3.26-3.26-3.26-9.72,0-7.96,14.59-9.31,16.21-.13.16-5.74-.16-3.13,2.23-2.35-4.35-2.97-6.9-2.1-12.39,1.84-11.55,25.11-13.65,27.83,1.27,1.38,7.61-1.59,9.4-4.07,15.45ZM694.87,344.2h-2.15v6.49h2.15v-6.49Z"/>
    <path class="cls-11" d="M342.95,512.03c-18.92-17.84-18.27-51.53-2.69-71.46,1.36,9.68-2.43,18.8-1.61,28.67.37,4.45,4.33,13.46,4.27,15.19-.1,3.1-4.94,6.24-4.33,15.19.36,5.34,2.48,7.79,4.36,12.41Z"/>
    <path class="cls-8" d="M782.59,282.47c.57.6,11.37-7.07,14.98-1.42,5.71,8.95-16.29,19.97-21.81,18.61-3.21-.79-5.84-12.57-6.06-15.71-1.09-16.04,12.4-18.1,12.89-1.47Z"/>
    <path class="cls-8" d="M773.91,453.55c-2.25-1.75-3.2-4.75-5.38-7.06-10.97-11.61-21.59-3.15-33.57-10.8,17.29-16.49,49.63-11.81,38.95,17.86Z"/>
    <path class="cls-8" d="M443.66,518.53c-2.82-3.16-1.56,4.04-1.69,4.37-.22.58-4.89,8.45-5.3,8.76-1.88,1.39-3.58-.33-4.92.35s-1.61,3.01-2.45,3.56c-5.79,3.81-4.83-3.27-7.29,8.95-.04.2-1.22.45,0,1.08v1.08c-2.23-.22-4.49,1.08-4.89,1.04-1.58-.14-.68-2.72-.85-2.98-1.01-1.5-5.51-1.15-.77-6.2,2.55-2.72,7.94-1.88,6.52-5.39-.42-1.03-4.04-.63-5.45-2.14-1.09-1.17-1.04-3.23-1.69-4.79-.31-.75-1.5-1.07-1.53-1.19-.22-.82.1-2.23,0-3.25-.17-1.77.12-3.63,0-5.41,9.96.57,20.7,1.85,30.32,2.17Z"/>
    <path class="cls-6" d="M494.55,450.32c-.51,15.3-15.29,52.63-32.01,55.15-12.59,1.9-18.5-11.93-23.05-21.2-1.17-2.38-9.67-21.22-8.81-22.04.91-.87,2.59-.19,3.54,1.34,7.47,11.98,11.69,49.23,33.78,32.19,14.71-11.34,15.88-26.93,22.34-41.55.77-1.74,1.8-4.29,4.22-3.89Z"/>
    <path class="cls-8" d="M778.25,489.28c-10.19,1.34-11.21,1.38-8.67,11.92-2.53,2.68-23.54-16.89-24.38-21.57-.47-2.58,5.25-9.48,4.91-13.07,8.4,8.87,18.54,15.31,28.14,22.72Z"/>
    <path class="cls-8" d="M527.04,543.44c.12-.23-.06-.69,0-1.08.76.56.02.89,0,1.08Z"/>
    <path class="cls-8" d="M504.3,529.36c1.24-1.04,1.98-2.88,3.29-3.77,2.26-1.53,14.88-1.55,17.32-.04,3.37,2.08-2.69,6.5-2.19,8.11,4.1.45,4.83,5.37,4.32,8.68-5.43,2.1-10.16,4.05-14.62-1.08-2.03.36,2.45,4.66,2.73,4.8,2.99,1.56,10.48.13,11.9-2.64-1.05,8.69-11.33.65-10.83,10.83-.63-.18-1.98.53-2.17,1.08-2.06.77-3.12-.65-4.33-1.08l1.03-.66c-.24-3.13-2.6-7.5-6.44-6.92.35-5.02.41-12.35,0-17.33ZM518.37,528.29c-10-1.97-9.76,3.85-7.56,11.89,2.04-.55.66-4.13,1.63-6.47,1.05-2.5,4.92-3.27,5.93-5.43Z"/>
    <path class="cls-8" d="M686.23,506.62c.92-11.55-.09-10.84-10.83-11.36,9.81-7.42,18.37-15.79,25.97-25.45.51,3.47,5.3,6.66,6.05,9.71,1.54,6.23-15.53,23.74-21.19,27.1Z"/>
    <path class="cls-2" d="M379.77,512.03c3.44.91,7.9-.02,9.75,3.25-1.14,1.35-1.07,6.69-1.09,8.66-11.22-3.7-11.91,2.96-1.08,3.26-1.22,3.54-6.65,1.76-5.44,5.95.11.38,2.17.62,2.23,1.08.4,2.98-2.14,3.57-2.21,3.79-4.38.24-6.19-6.25-10.29-6.11-1.17.04-2.31,1.51-3.41,1.59-1.42.11-2.15-1.73-3.58-1.43s-4.83,3.02-6.53,3.78c-.29-8.85-6.01-3.7-7.58-7.04l4.33-4.87c2.84,2.45,6.14,4.35,9.22,6.47.92-.76-.98-2.57-.55-3.23.1-.15,2.81-.36,3.23-1.63-3.15.83-1.88-1.62-4.3-2.7v3.25c-.33-.14-.85.15-1.09,0,.89-3.97-1.25-4.4-3.25-6.5,3-1.43,13.72,3.25,14.46,3.12,3.4-.6,7.2-7.22,7.2-10.7Z"/>
    <path class="cls-2" d="M563.85,497.96c7.5-1.28.1,7.52,1.09,8.66l3.23-1.08c-2.79,4.71,2.84,6.71,3.27,10.36.3,2.58-1.29,4.37-.44,7.87.71,2.9,2.13,1.55,2.59,3.4-1.57.13-3.36-.3-4.88,0-.88.18-8.25,7.81-8.64,8.69-1.3,2.93.59,6.41-1.64,8.65-.29-6.27-.65-14.59-2.17-20.57,8.65.7,4.88-3.49,8.6-8.13-5.33-5.13-6.19-4.87-12.93-2.69-.5-.86-5.88-5.81-5.41-6.48,5.6-3.04,11.8-5.55,17.32-8.68Z"/>
    <path class="cls-8" d="M358.12,535.86c1.71-.77,5.12-3.49,6.53-3.78s2.16,1.54,3.58,1.43c1.1-.08,2.25-1.55,3.41-1.59,4.1-.14,5.91,6.35,10.29,6.11-.17.53.08,1.47,0,2.17-.66,5.59,1.88,10.8-3.25,15.16-8.72-4.66-14.28-6.91-21.66-14.08.41-1.77,1.14-3.56,1.08-5.41Z"/>
    <path class="cls-1" d="M420.92,571.59c-.28-2.6-.31-7.54,2.72-8.65,3.3-1.21.67,7.61,4.85,6.48.09-5.56-1.31-11.35,3.8-15.13,1.29,0,3.67,6.65,1.65,8.11,6.01-1.11,3.83-12.4,9.2-14.62,3.28-1.36.88,7.6,1.06,8.63,18.6-12.14,19.88,2.05-.52,2.2.24,2.1,4.3.95,5.86,2.06,1.27.91.48,2.13.63,3.34h-16.24c.09,1.9,3.62.98,5.47,1.57.95.3,2.79,1.4,3.19,2.23,1.47,3.08-9.59,1.32-7.57,7.03-5.08-.82-9.23-2.09-14.08-3.25Z"/>
    <path class="cls-8" d="M704.61,352.85l-4.91-12.94c-8.57-10.89-27.94-5.57-30.83,7.53-7.67-2.5-1.48-12.53,3.32-15.65,7.75-5.04,9.85-1.23,16.1-1.1,1.52.03,2.85-1.56,4.92-1.74,14.8-1.26,15.42,13.24,11.39,23.89Z"/>
    <path class="cls-8" d="M355.95,501.2c6.44,5.1,15.93,8.75,23.82,10.83,0,3.49-3.8,10.11-7.2,10.7-.74.13-11.46-4.55-14.46-3.12-1.73-1.82-4.76-3.27-5.72-5.74-1.06-2.73.66-4.35.33-6.63-.37-2.59-5.53-7.61,3.23-6.04ZM371.11,515.29l-9.72-2.73c2.26,2.57,7.2,7.68,9.72,2.73Z"/>
    <path class="cls-8" d="M714.36,275.97c3.27,9.83-2.41,24.71-13.96,24.8-6.52-13.34,1.05-21.77,13.96-24.8Z"/>
    <path class="cls-2" d="M541.12,518.53c-.36-.02-.72,0-1.08,0l1.08-1.08c.17.23-.17.82,0,1.08Z"/>
    <path class="cls-2" d="M554.11,548.85l-7.58-1.1c-.97-1.01,4.42-6.5.53-7.56-4.45-1.21-3.5,7.17-5.94,4.31-.97-1.13,3.05-7.7,3.23-9.27.54-4.7-4.88-4.12-3.21-10.58.45-1.75,2.98,1.17,1.06-3.97-.25-.66-.71-1.57-1.08-2.17,2.28.12,6.18.69,7.58-1.08,5.43,10.96,6.09,18.69,5.41,31.4Z"/>
    <path class="cls-8" d="M711.11,371.27c-1.48,8.68-7.66,12.74-5.48,23.21.23,1.12,2.31.22,3.02.84.53.46.74,2.99,2.39,4.72,4.44,4.65,13.73,5,19.04,1.57-2.6,9.25-11.74,9.47-18.91,4.8-6.68-4.36-2.62-8.35-3.32-9.12-.16-.17-2.64-.12-4.4-1.56-8.52-6.94-4.79-24.72,7.66-24.45Z"/>
    <path class="cls-8" d="M806.34,365.92c3.43,4.06-9.56,10.13-12.68,10.55-2.41.33-13.34-1.75-14.26-3.11-1.45-2.13,7.49-11.08,9.38-11.64,2.33-.7,16.83,3.32,17.57,4.2Z"/>
    <path class="cls-1" d="M468.57,566.17c1.12-3.01-3.68-5.28-3.25-7.02.2-.83,6.09-3.28,4.33-4.89-3.22-2.95-3.5,5.68-6.49,4.32.27-2.77,2.63-3.39,1.08-6.49,1.63,1.36,7.3-.27,7.57,0,.33.32-.32,2.87,0,3.25,1.96,2.28,2.29-4.33,4.32-2.16.46.49-1.55,3.81-1.08,4.31,9.92.95,4.98,1.8,5.66,5.84.39,2.27,5.07,4.34,6.25,1.75l2.17-1.08c.34,1-.23,3.08,0,4.33-.79-.03-3.08-2.68-3.25,2.17l-7.57-1.08c-1.02,4.09,4.35.8,6.01,3.18,3.3,4.72-5.06,4.23-8.18,4.39.36-4.48-3.66-9.97-7.58-10.83Z"/>
    <path class="cls-10" d="M668.89,399.41c-.81-8.12,16.77-24.49,22.83-16.88,6.57,8.24-15.94,19.82-22.83,16.88Z"/>
    <path class="cls-10" d="M680.79,379.91c-7.66,4.7-12.41,7.66-21.9,6.22-9.12-1.38-6.38-5-.86-10.01,8.4-7.62,8.32-4.62,15.83-.62,2.58,1.37,7.25.61,6.93,4.42Z"/>
    <path class="cls-8" d="M562.77,617.07c-9.73,5.65-17.6,7.16-28.15,9.75-1.21-8.67.64-6.27,4.72-9.9,1.4-1.25,2.24-3.23,3.56-4.1,2.02-1.34,4.99.1,6.88-2.24,3.12-.49,11.28,3.56,12.99,6.5Z"/>
    <path class="cls-8" d="M694.63,289.22c.5.51,4.01,13.34,3.49,13.82-9.47.8-22.57-5.78-22.74-16.23,4.47.14,16.07-.86,19.24,2.41Z"/>
    <path class="cls-8" d="M696.87,460.24c.44.27,2.49,5.5,2.3,6.74-.87,3.02-15.3,1.83-18.17,1.01-9.03-2.6-9.59-9.99-3.97-16.59,1.82,3.75,6.18,7.13,10.25,8.15,2.86.72,8.52.03,9.6.69Z"/>
    <path class="cls-8" d="M774.2,368.81c-2.7-2.78-3.99-11.59-3.55-15.44.21-1.85,2.69-9.54,4.9-9.22,3.72.55,9.76,12.98,9.23,16.77-.33,2.34-7.75,10.8-10.58,7.89Z"/>
    <path class="cls-10" d="M697.02,389.68c8.08,10.47,10.17,18.29-3.63,24.8-6.53-1.11-5.26-24.02,3.63-24.8Z"/>
    <path class="cls-1" d="M515.13,607.32l5.41,5.41c-2.65-8.78,7.31-8.64,3.25,1.08h5.42s0,3.25,0,3.25l-5.43.56,6.5,1.62-1.08,8.66c-4.06.89-6.43,1.5-10.83,2.17l-3.25-5.41c4.9-.99,7-7.45-1.08-5.42-1.06-3.28,3.03-4.14,3.19-4.39.18-.28-1.69-4.28-2.12-6.43-.07-.35.08-.74,0-1.08Z"/>
    <path class="cls-8" d="M732.78,390.76c1.11-.6,1.75-1.42,3.24-1.08-1.03,12.63-17.11,16.45-24.89,5.94-3.56-4.8-5.95-13.74,1.07-15.69-.46,8.88,1.64,18.56,12.49,17.39,3.99-.43,3.08-1.74,4.84-3.32.37-.33.77-.7,1.08-1.08s.85-.69,1.08-1.08c.21-.34.9-.65,1.08-1.08Z"/>
    <path class="cls-8" d="M730.61,377.76c-7.4-6.74-8.66-4.23-16.89-2.26-3.72.89-.23-6.34,3.09-7.76,11.99-5.11,23.33,6.5,22.47,18.15-.6,8.12-4.49-3.57-5.59-5.28s-1.98-1.84-3.08-2.85c.33.21,3.16,6.39,3.25,7.13.18,1.62-.46,4.32-1.08,5.86-.42.23-.71.84-1.08,1.08-.41.27-.71.86-1.08,1.08-.43.26-.78.96-1.08,1.08-5.51,2.23-12.46,1.6-13.87-5.11-.69-3.3.64-4.39.76-6.33.02-.32-3.5-.49-2.11-5.23.72-2.44,15.12-.33,16.3.43ZM720.87,385.34c-.59-2.92,2.73-2.89,3.81-4.32,2.08-2.75-5.58-1.31-7.05-1.08-.47,1.79,1.89.48,2.18,1.77.91,3.98-1.74,9.66,4.94,10.08,5.31.33,5.01-1.74,4.77-6.45-1.07.17-3.01-.59-3.25.55-.45,2.15,5.71,2.31-1.59,3.82-4.4-.74.66-1.15.52-1.66-.55-2.07-2.15-3.32-4.34-2.73ZM724.66,383.18v1.08c.7-.36.7-.72,0-1.08Z"/>
    <path class="cls-1" d="M361.37,526.11c-5.28-3.36-18.35-18.9-19.23-24.62-.4-2.62-.53-12.54,2.46-13.27,1.53-.37,8.65,10.85,11.35,12.99-8.75-1.58-3.6,3.45-3.23,6.04.33,2.27-1.39,3.89-.33,6.63.96,2.48,3.99,3.92,5.72,5.74,2,2.1,4.14,2.52,3.25,6.5Z"/>
    <path class="cls-10" d="M758.44,410.57c1.89,2.54,2.73,8.57-2.08,8.14-9.58-.86-23.89-14.21-9.78-17.95,8.7-2.3,6.48,3.54,8.4,7.34.74,1.46,2.8,1.59,3.46,2.47Z"/>
    <path class="cls-2" d="M515.13,608.41c.43,2.15,2.3,6.14,2.12,6.43-.16.25-4.25,1.12-3.19,4.39,8.08-2.03,5.98,4.43,1.08,5.42-.63.13-1.46-.07-2.17,0,.14-6.08-2.45-3.46-5.84-3.35-3.42.11-4.35-3.77-3.9,3.35-1.66.13-3.57,1.23-5.41,1.08-.65-2.15-1.73-3.83-2.17-6.5l6.5-2.18-2.72-2.15c.63-7.34,3.14,1,8.13-1.1.36-1.21-1.02-2.55-1.08-3.24-.04-.44.89-1.54,1.08-2.17.55.97,6.23.49,7.58,0Z"/>
    <path class="cls-8" d="M718.7,313.87c-.96-2.75-2.57-18.57,3.24-17.32.62,2.27-1.33,4.98-1.11,6.87.08.69,1.78.73,2.11,1.56,1,2.5,2.05,7.92,3.28,9.54,1.08,1.42,2.51,1.05,3.32,1.52-4.07-7.14-5.5-9.57-1.08-16.24-.12,9.25,9.1,18.87,18.78,16.26,1.2-.32.59-2.06.71-2.18.68-.63,1.33,1.48,2.17-2.17.26-.18,1.28.48,2.24-.69,1.06-1.3,1.95-6.91,2.63-6.9,2.29,5.31-1.91,16.27-7.83,17.18-6.41-1.95-11.74-1.81-17.62-5.25,2.12,3.73,2.24,4.82,7.58,5.42-.16,8.7-9.27,1.45-14.04-.59-.4-1.65-4.17-6.43-4.37-7Z"/>
    <path class="cls-8" d="M728.45,299.8c3.05-4.61,4.17-5.25,10.22-6.55.75.09.76,1.68.61,2.22-.6.29-.74-.19-1.08,1.08-1.91,2.1-6.19,3.51-6.51,6.49l-3.24-3.24Z"/>
    <path class="cls-8" d="M750.1,287.89c1.07,3.07,2.3,6.07,3.27,9.19.01.9-2.52.73-3.27.56,3.27,6.35,1.51,7.53,0,14.08-1.08.72-2.02,2.12-2.17,2.17-6.79,1.93-19.03-5.72-15.03-10.68,3.68-4.58,5.15,7.04,7.44,4.18,1.21-1.5-6.1-8.01,4.33-7.59-.66-2.96-7.71,1.28-6.49-3.24.05-.06.68.36,1.08-1.08,6.28-3.01,6.92,1.26,10.83,2.17-4.08-7.91-11.89-7.29-19.17-3.47-1.35.71-7.55,7.47-6.83,2.93,1.27-8.13,8.41-13.58,16.71-12.41,3.3.46,5.25,3.23,9.29,3.21ZM742.51,304.12c.78-1.52-.68-2.89-1.06-2.15-.78,1.52.68,2.89,1.06,2.15ZM741.44,310.62c5.61,1.04,8.88-4.3,4.86-8.65-2.18,1.01-1.67,5.87-2.13,6.47-.86,1.14-3.04.49-2.73,2.18Z"/>
    <path class="cls-10" d="M789.09,398.32c-1.25-1.77,4.53-4.08,3.17-7.98-.37-1.07-10.36-4.82-1.6-5.03,5.74-.14,18.18,8.26,17.77,13.6-.36,4.71-16.26,2.17-19.34-.58Z"/>
    <path class="cls-8" d="M586.59,529.36c-.23.26-.22,1.82-1.05,2.7-3.54,3.73-21.05,19.39-24.94,20.04-.87-7.79,2.56-17.51,11.91-15.17l-3.25-1.08c-.99-4.36,3.5-5.13,7-4.4,1.29.27-1.06,4.74,4.26,3.37,1.59-.41,1.52-4.16.66-5.46h5.41Z"/>
    <path class="cls-10" d="M710.04,482.8c5.58-.07,1.33,11.46.55,15.17-.97,4.59-10.47,38.85-13.01,38.95-2.07-1.42-1.69-2.45-1.4-4.6.61-4.49,4.48-11.73,5.96-16.81,3.11-10.71,6-21.71,7.89-32.71Z"/>
    <path class="cls-8" d="M612.58,477.38h4.33c-6.62,8.24-13.65,12.55-19.49,19.49-1.16-2.04-1.43-4.81-1.18-7.08.24-2.13,2.51-1.57,2.9-3.66.28-1.52-.87-4.14-.63-4.37.22-.2,2.08.09,3.14-.69,2.19-1.61,2.04-3.04,6.59-3.69,1.27-.18,2.95,0,4.33,0Z"/>
    <path class="cls-8" d="M768.49,450.31c7.02,11.03-7.64,18.03-16.86,14.14-1.63-10.04,3.22-6.54,9.3-9.27,3.19-1.43,4.27-4.48,7.55-4.88Z"/>
    <path class="cls-10" d="M731.69,490.38c-1.28,6.24,10.36,44.9,8.66,46.55-.31.3-2.65.29-3.34-.64-1.47-1.98-4.32-16.13-5.03-19.68-.66-3.32-3.86-22.94-3.4-24.42.44-1.4,1.65-2.11,3.11-1.81Z"/>
    <path class="cls-10" d="M726.96,499.08c-2.26,5.96,3.08,45.98,1.14,47.34-.36.25-2.66-.14-3.19-1.16-1.14-2.19-1.7-16.61-1.83-20.23-.12-3.39-.16-23.26.53-24.65.65-1.31,1.97-1.82,3.35-1.3Z"/>
    <path class="cls-10" d="M806.13,373.66c4.29-.85,7.94.69,11.09,3.56-5.67,7.39-16.34,10.24-22.7,2.17,0-.65,10.53-5.52,11.61-5.73Z"/>
    <path class="cls-10" d="M706.67,543.31c-.49.4-5.22.91-4.17-1.44l11.86-43.91c.04,5.5-5.91,43.89-7.69,45.35Z"/>
    <path class="cls-10" d="M719.12,545.15c-.41.48-4.99,1.77-4.35-.72l4.49-52.4c.96,5.42,1.37,51.38-.13,53.12Z"/>
    <path class="cls-10" d="M819.4,336.62c-.56,3.56-1.25,6.99-4.31,9.2,1.99,2.85,11.41,1.35,8.6,5.89-.92,1.48-12.86,1.6-13.99-.05-.24-.35.74-2.01.36-3.12-.53-1.55-2.2-3-2.15-4.91.09-3.38,8.04-7.86,11.49-7.02Z"/>
    <path class="cls-2" d="M748.06,352.74c-.35-.42-.35-5.84,0-6.27,1.94-2.33,19.3-1.17,20.39,3.77,1.16,5.24-19.05,4.12-20.4,2.5Z"/>
    <path class="cls-1" d="M478.31,518.53c-.2,3.2.29,6.57,0,9.75-4.21,1.54-6.2,2.21-10.83,1.08l3.24-6.49c-4.86,3.81-8.17,1.55-5.4-4.33,4.32.09,8.67-.05,12.99,0Z"/>
    <path class="cls-1" d="M492.39,518.53c-.1,2.51.15,5.07,0,7.58-.09,1.43.07,2.9,0,4.33-1.38,1.41-11.24-5.45-10.82,1.08,4.1-.15,11.36,0,11.9,5.41-1.67.42-.64-1.58-1.86-2.12-3.7-1.65-10.55-1.78-14.37-.04.47-1.92.91-4.52,1.08-6.5,2.55-.94,4.72-1.17,6.49-3.8-8.08-1.86,1.22-1.79-2.16-5.95,3.23.06,6.53-.18,9.75,0Z"/>
    <path class="cls-2" d="M741.49,357.25c.17-.2,4.59-1.95,4.85-1.95,1.43.02,10.89,11.69,10.99,13.26.06,1-1.98,3.92-2.9,4.4-4.68,2.46-14.46-14-12.94-15.72Z"/>
    <path class="cls-2" d="M727.13,350.91c1.28-.12,2.2-.54,3.48.27,8.78,5.57-17.9,15.49-19.49,8.7-.59-2.52,13.28-8.71,16.01-8.97Z"/>
    <path class="cls-1" d="M511.88,597.58c.14.64-.21,1.77,0,2.17-2.63-.29-6.35-.18-7.45,2.83-1.42,3.89,1.99,1.9,2.93,2.76.74.68-.04,2.65.19,3.06-.2.63-1.12,1.72-1.08,2.17-2.61.86-2.45-2.77-3.71-2.98-5.6-.92-3.5,6.39-7.11,8.4-.43-3.26-.99-6.44-1.08-9.75,4.43.77,6.41-1.83,6.53-5.94.09-3.27-4.77-1.04-6.53-1.64.11-2.86.84-4.43,1.08-6.5,5.72,4.55,8.77,5.9,16.24,5.41Z"/>
    <path class="cls-2" d="M812.9,335.52c-5.98-.33-7.53,13.49-9.33,14.01-5.13,1.51-8.91-7.29-13.39-9.13l4.33-5.95c1.85.42,1.72,3.2,3.2,4.9,5.11,5.83,9.78-1.25,8.7-7.07.52-.6,7.32,2.06,6.49,3.23Z"/>
    <path class="cls-2" d="M738.28,322.63c7.85-5.29,7.88,17.08,2.63,20.46-7.12-.46-4.48-19.2-2.63-20.46Z"/>
    <path class="cls-2" d="M734.94,343.11c-6,3.05-19.85-17.81-12.46-18.36,5.28-.4,13.15,13.14,12.46,18.36Z"/>
    <path class="cls-1" d="M559.52,601.91l-7.58,2.17,1.1,5.41,7.57-4.33c1.68,3.59,4.23,7.02,6.47,10.29-.89,2.02-3.61,1.21-4.3,1.62-1.72-2.94-9.88-6.99-12.99-6.5l-2.17-8.65c4.39-.96,7.51.74,9.75-4.34.21.79,1.63,2.94,2.17,4.33Z"/>
    <path class="cls-8" d="M764.18,298.72c-.05,3.16.46,7.1-.22,10.07-.84,3.65-6.28,7.44-6.62,8.6-1.04,3.56,1.05,7.1-5.34,9.75-4.31,1.79-9.17.32-6.08-3.38.41-.49,8.8-2.01,10.59-6.41,3.68-9.07-.98-15.73-2.06-24.03,4.02.09,6.63,3.68,9.74,5.41Z"/>
    <path class="cls-8" d="M540.03,518.53c.36,0,.72-.02,1.08,0,.38.6.84,1.51,1.08,2.17.21,5-2.1-1.5-5.71-.95-1.69.26-5.25,4.15-6.2,3.11-2.63-2.89,4.97-5.36,6.97-5.38,1.17-.01,2.35,1.05,2.77,1.05Z"/>
    <path class="cls-8" d="M548.7,517.45c-1.4,1.77-5.3,1.2-7.58,1.08-.17-.26.17-.86,0-1.08-3.12-4.12-9.85-5.3-9.75-11.91,11.64-.88,13.01,3.2,17.33,11.91Z"/>
    <path class="cls-8" d="M730.62,405.91c1.28-3.91,4.67-6.1,6.88-9.89,1.86-3.18,3.77-6.97,3.95-10.68,6.31.67,4.8,11.27,2.22,14.68-1.19,1.57-11.43,7.29-13.05,5.89Z"/>
    <path class="cls-8" d="M503.22,624.65c3.2-.25,6.56.31,9.75,0,.71-.07,1.54.13,2.17,0l3.25,5.41c-6.21.95-12.39,2.95-18.83,2.23-1.28-.36-1.31-5.14-1.75-6.56,1.85.15,3.76-.95,5.41-1.08Z"/>
    <path class="cls-2" d="M785.83,309.54c-2.56-1.73-6.77-3.39-9.46-.81-3.09,2.96,1.61,6.15.79,7.27-.17.23-2.22.26-2.77,1.08-.84,1.25,2.62,9.3-2.62,8.7-.31-5.23-.13-19,3.77-22.75,1.86-1.79,6.82-1.41,9.21-3.24l1.08,9.74Z"/>
    <path class="cls-8" d="M582.26,487.13l4.33,3.26-3.25,1.08c-1.38,3.65,4.55.93,3.25,3.77-1.6,3.48-7.11.12-7.56.56-1.29,1.27,4.15,3.54,2.15,6.49-2.61.75-4.54-4.06-5.95-4.08-.94,0-1.85,2.63-3.79,1.91v-6.49c3.59-2.09,7.24-4.35,10.82-6.5Z"/>
    <path class="cls-8" d="M655.9,318.21c3.59,2.02,5.09,6.19,4.35,10.27-1.17,6.48-13.68,3.59-14.09-2.69h7.57s-2.16-8.66-2.16-8.66c1.72-.28,2.89.27,4.33,1.08Z"/>
    <path class="cls-12" d="M744.69,345.28c.49,3.7,2.87,6.02-1.11,9.18-7.08,5.61-15.72-6.05-7.52-9.71,3.31-1.48,5.56.57,8.63.54Z"/>
    <path class="cls-2" d="M744.69,345.28c-.07-.55-1.01-1.26-.83-2.52.45-3.09,7.41-11.01,10.51-12.16,10.68-3.96.19,9.57.06,10.34-3.59,1.46-6.26,4.3-9.75,4.33Z"/>
    <path class="cls-2" d="M537.87,562.93c-1.01.08-3.11,1.24-3.24,1.08-1.73-2.1,1.7-2.1,2.2-2.86.84-1.28.49-3.71,1.33-4.5,1.39-1.31,4.8.2,3.51-6.72,3.54,2.77,6.27.77,10.27,2.19-1.3,1.12-1.87,4.66-2.47,5.17-1.06.91-5.66-.76-1.86,5.65-.11.67.08,1.46-.01,2.16-3.13-2.1-6-2.47-9.73-2.16Z"/>
    <path class="cls-2" d="M730.48,348.41c-2.99,1.92-19.84-2.06-18.28-8.54,3.98-.98,7.75-.62,11.62.84,2.32.88,10.38,5.32,6.67,7.71Z"/>
    <path class="cls-1" d="M354.87,523.94l-4.33,4.87c1.57,3.35,7.28-1.81,7.58,7.04.06,1.85-.67,3.65-1.08,5.41-7.7-7.48-10.33-13.7-9.21-24.9,2.65,1.82,4.88,5.71,7.04,7.57Z"/>
    <path class="cls-1" d="M464.23,566.17l-1.09.56c1.16,4.18,6.96,5.75,7.59,10.27-1.44.03-2.89-.02-4.33,0-.51-7.41-9.31-10.35-12.99-3.25l-3.24,2.16c-1.95-6.49,4.22-2.99,4.31-7.57l-6.49,1.08c.12-.12-.57-1.25.69-2.25,1.78-1.41,10.41-3.41,12.65-3.02,1.54.27,2.65,1.96,2.9,2.01Z"/>
    <path class="cls-1" d="M464.23,577c-3.58-.01-7.26.19-10.83,0,.19-.84-.27-2.86,0-3.25,1.24-1.77,11.05-2.09,10.83,3.25Z"/>
    <path class="cls-11" d="M292.87,435.43c3.88,4.07-6.34,11.81-8.93,14.85-2.02-2.04-4.73-3.28-3.28-6.44.27-.59,8.62-8.99,9.22-9.25.88-.38,2.4.22,2.99.84Z"/>
    <path class="cls-12" d="M407.93,568.34c-3.23-1.03-5.63-2.09-8.66-3.25.24-16.25,19.1-5.99,8.66,3.25Z"/>
    <path class="cls-12" d="M551.94,513.12c6.74-2.18,7.6-2.44,12.93,2.69-3.72,4.65.05,8.83-8.6,8.13-.5-1.97-3.33-9.08-4.33-10.83Z"/>
    <path class="cls-8" d="M701.37,278.15l-5.95,9.71c-2.45-2.86-5.53-3.59-9.21-3.23.37-8.69,8.55-9.74,15.16-6.48Z"/>
    <path class="cls-10" d="M659.04,351.67c-2.43,1.55-15.05-5.17-12.89-7.47,9.15-1.64,19.24-6.66,12.89,7.47Z"/>
    <path class="cls-11" d="M695.96,444.9c.68.66-3.9,10.44-4.38,10.78-1.98,1.37-9.43-5.94-9.68-7.02-.9-3.99,11.63-4.14,14.06-3.76Z"/>
    <path class="cls-8" d="M603.92,505.54c-3.33,1.24-4.82-2.62-4.33-5.41.32-1.83,12.02-13.07,15.14-13.55-3.5,6.39-7.15,12.67-10.81,18.96Z"/>
    <path class="cls-2" d="M792.33,324.7c-.2,1.18-1.79,1.65-2.17,2.17-1.08-2.05-5.5.94-6.49,0-1.61-1.54,4.41-5.6,0-6.49-.41,6.48-4.8,6.7-9.76,7.58.85-3.67,6.57-8.04,10.36-8.6,9.02-1.33,5.37,3.19,8.04,5.35Z"/>
    <path class="cls-8" d="M796.65,360.44c-2.61-2.89-9.38.37-9.72,0-.38-.4-1.81-9.19-2.17-10.83,6.26-.74,12.66,4.18,11.9,10.82Z"/>
    <path class="cls-10" d="M728.31,275.03c.51.29,4.14,7.44,3.47,8.92l-8.74,6.09c-.54-3.02-.3-18.2,5.28-15.01Z"/>
    <path class="cls-2" d="M734.37,356.49c7.93-.91,3.45,12.52,2.21,12.59-1.3-1.17-7.89-5.03-8.13-5.96-.31-1.23,4.97-6.51,5.92-6.62Z"/>
    <path class="cls-2" d="M803.32,320.21c-3.14-5.29,6.85-5.69,10.73-4.79,13.57,3.15-7.89,9.57-10.73,4.79Z"/>
    <path class="cls-11" d="M272.57,458.97c-.55-5.83,6.45-15.33,8.51-7.88.47,1.71-3.71,9.7-4.2,10.04-1.27.87-3.33-1.99-4.31-2.16.23,2.4,2.39,4.18,1.74,6.52-.34,1.24-5.05,8.96-6.59,8.63-4.7-3.06.83-15.84,4.86-15.15Z"/>
    <path class="cls-10" d="M744.69,417.83c-5.32,3.18-7.4,10.07-10.62,14.83-.55.81-2.2,3.84-3.45,2.49-1.69-1.82,9.72-17.89,9.76-21.65,3.14-1.06,3.97,4.07,4.32,4.33Z"/>
    <path class="cls-8" d="M468.57,566.17c3.92.86,7.94,6.35,7.58,10.83-1.79.09-3.61-.04-5.41,0-.63-4.52-6.42-6.09-7.59-10.27l1.09-.56c1.27.26,3.09-.27,4.33,0Z"/>
    <path class="cls-8" d="M496.72,565.09c-1.62,6.6-.27,12.01-9.65,10.73.02-1.67-1.22-3.89-1.17-5.32.17-4.84,2.46-2.19,3.25-2.17,2.98.1,4.32-4.19,7.58-3.25Z"/>
    <path class="cls-10" d="M763.1,294.38c-8.56,1.02-10.9-11.24-.59-11.94,3.28,3.76.5,9.25.59,11.94Z"/>
    <path class="cls-10" d="M764.18,356.11c.56,3.99-2.28,7.12-4.89,9.73l-8.1-9.2,12.99-.53Z"/>
    <path class="cls-2" d="M803.16,298.72c1.03,2.59-1.34,15.9-4.85,15.15-3.61-.77-1.29-17.05,4.85-15.15Z"/>
    <path class="cls-11" d="M301.5,425.6c9.34-2.35-2.71,17.26-8.32,6.84,0-.78,6.95-6.5,8.32-6.84Z"/>
    <path class="cls-2" d="M787.96,383.12c-.34.48-9.91,5.19-10.49,5.28-8.77,1.28,1.44-9.03,8.04-9.39,2.33-.13,3.24,3.01,2.44,4.12Z"/>
    <path class="cls-2" d="M769.07,397.26c5.18-1.38,7.36,13.39,4.3,14.06-4.07.9-7.37-13.24-4.3-14.06Z"/>
    <path class="cls-12" d="M795.27,315.11c3.99-1.11,8.45,3.11,5.14,7.39-5.29,6.84-12.51-5.34-5.14-7.39Z"/>
    <path class="cls-12" d="M764.18,388.59c1.86-.4,4.74-4.39,8.39-.81,6.24,6.12-4.03,6.96-7.31,7.31-.26-2.02-.71-4.47-1.08-6.5Z"/>
    <path class="cls-2" d="M763.1,384.26c.31.75.17.91,1.08,1.08.24.83-.18,2.27,0,3.25-2.77.6-11.85-3.91-12.83-6.12-.64-1.44-.94-3.99,1.46-3.64,1.97.29,8.9,3.98,10.29,5.43Z"/>
    <path class="cls-2" d="M765.26,372.35c.74,3.87,6.49,14.47-1.08,12.99-.16-.55-.77-.76-1.08-1.08-1-2.41-3.33-9.73-1.13-11.44.97-.48,2.25-.7,3.29-.47Z"/>
    <path class="cls-2" d="M789.08,311.71c.31.49.57.78,1.08,1.08.75,1.21,1.55,5.03-.56,5.42-1.28.24-14.17-5.79-11.34-8.66.39-.39,9.53,1.75,10.82,2.16Z"/>
    <path class="cls-2" d="M789.08,311.71c-1.16-1.85-5.44-12.09-.36-9.95,4.78,2.01,6.07,7.51,6.85,12.11-.37.33-4.72-.67-5.41-1.08-.31-.51-.39-.86-1.08-1.08Z"/>
    <path class="cls-2" d="M623.41,467.64c-1.18,2.48-1.58,3.92-3.25,6.5-2.62-4.07-4.8-5.01-9.74-4.33-.55,3.68,1.96,5.46,5.4,5.42l-3.24,2.15c-1.38,0-3.06-.18-4.33,0-3.75.06-4.93.97-4.33-3.25,5.5-3.41,10.49-7.52,16.24-10.83l3.25,4.33Z"/>
    <path class="cls-8" d="M691.63,273.82c-1.32,2.45-4.3,2.98-5.92,5.43-2.66,4,.24,6.55-7.07,5.38-.49-7.44,5.91-11.97,13-10.81Z"/>
    <path class="cls-2" d="M719.98,336.61c-1.68-.32-8.03.51-8.6-.05-.35-.34-1.17-8.21-1.13-9.68,5.91.2,8.28,4.6,9.73,9.74Z"/>
    <path class="cls-2" d="M775.01,392.91c-1.38-1.49.22-1.88,1.36-2.4,10.3-4.67,18.31,2.67,10.87,4.4-.9.21-11.81-1.55-12.23-2Z"/>
    <path class="cls-2" d="M777.17,372.35c1.16,2.67-2.91,13.66-5.93,12.99-3.68-.82.31-15.99,5.93-12.99Z"/>
    <path class="cls-2" d="M800.86,325.93c3.81,2.13,3.74,18.03-1.03,12.18-2.15-2.64-5.25-15.69,1.03-12.18Z"/>
    <path class="cls-1" d="M509.71,554.26c1.21.43,2.27,1.86,4.33,1.08-.28.81.29,2.52,0,3.25-.25.61-.74.75-1.08,1.08l-.55-1.07c-2.61-.51-1.17.92-1.61,2.15-.49,1.37-.69,4.41-2.16,4.33,1.05-3.91-.98-3.6-2.1-5.19-.44-.63.12-2.07-.08-2.38.24.24,1.11-.17,1.08-.54-.08-1.18-1.59.03-1.08.54-.12-.19-3.51-.7-4.33-1.08.09-.7-.1-1.47,0-2.17.49-.15,1.01-.59,1.08-1.08.05-.35-.05-.73,0-1.08,2.13.83,4.34,1.4,6.5,2.17ZM509.17,557.51v1.08c.7-.36.7-.72,0-1.08Z"/>
    <path class="cls-2" d="M813.98,331.19c-2.92,1.71-14.63-6.01-11.9-8.65,1.74-1.69,13.7,4.04,11.9,8.65Z"/>
    <path class="cls-10" d="M721.95,411.33v23.82h-2.17v-15.7c0-1.46-2.22-5.51-1.08-8.13h3.24Z"/>
    <path class="cls-2" d="M784.75,404.83c-2.54,2.44-13.52-7.18-10.82-9.73s12.88,7.75,10.82,9.73Z"/>
    <path class="cls-2" d="M682.09,325.79c.78-1.7,1.51-6.95,2.16-9.25.49-1.72-1.18-3.2,2.17-2.66,0,2.33.07,5.01.9,7.2.6,1.58,2.33,1.52,2.4,2.17.77,7.34-4.04,3.77-7.63,2.55Z"/>
    <path class="cls-8" d="M447.99,569.42l6.49-1.08c-.1,4.58-6.27,1.07-4.31,7.57l3.24-2.16c-.27.39.19,2.41,0,3.25-3.69-.19-6.37-.73-9.75-1.08-.66-3.85,2.47-4.6,4.33-6.5Z"/>
    <path class="cls-8" d="M466.4,577c-.72,0-1.44,0-2.17,0,.23-5.33-9.59-5.02-10.83-3.25,3.68-7.11,12.48-4.16,12.99,3.25Z"/>
    <path class="cls-2" d="M754.43,340.95c.55-.22,2.31.5,3.03-.21.64-.64-.49-2.46,1.51-3.4,1.8-.84,4.31-.74,6.28-.72,2.58,7.59-11.92,10.52-10.82,4.33Z"/>
    <path class="cls-2" d="M812.9,305.22c3.08,3.19-7.32,11-10.82,9.73-1.06-3.35,8.75-11.88,10.82-9.73Z"/>
    <path class="cls-2" d="M790.17,326.87c.38-.52,1.96-.98,2.17-2.17.43.35,2.92.19,3.23,1.68.37,1.74-6.2,14.82-9.7,8.62,1.94-2.27,2.65-5.86,4.3-8.13Z"/>
    <path class="cls-8" d="M795.58,349.6c-2.33.07-3.6-1.7-6-2.11-2.33-.4-5.18.45-7.37-.21-1.91-.58-2.37-3.62-1.78-4.16,1.19-1.09,16.41.56,15.15,6.49Z"/>
    <path class="cls-8" d="M495.64,615.99c3.62-2.01,1.52-9.32,7.11-8.4,1.27.21,1.11,3.85,3.71,2.98.06.69,1.44,2.03,1.08,3.24-4.99,2.1-7.5-6.24-8.13,1.1l2.72,2.15-6.5,2.18c-.17-1,.14-2.22,0-3.25Z"/>
    <path class="cls-8" d="M704.63,363.68l4.31-18.4c2.17,6.45,1.87,14.41-4.31,18.4Z"/>
    <path class="cls-2" d="M499.97,523.94c-1.18,2.45-2,2.13-4.33,2.17-1.08.02-2.17-.01-3.25,0,.15-2.51-.1-5.07,0-7.58,1.75.1,3.78-.46,5.42.53s1.65,3.36,2.16,4.89Z"/>
    <path class="cls-1" d="M620.16,474.13c-.26.41-.81.7-1.08,1.08l-1.08,1.08c-.3.4-.77.69-1.08,1.08h-4.33l3.24-2.15c-3.44.04-5.95-1.75-5.4-5.42,4.94-.69,7.12.26,9.74,4.33Z"/>
    <path class="cls-10" d="M765.26,372.35c-.28-1.45-1.26-2.71-.57-4.29,1.77-4.04,6.45-4.16,6.83.68.03.36-1.69,6.62-1.94,6.86-1.96,1.91-2.42-2.82-4.32-3.25Z"/>
    <path class="cls-8" d="M801.82,352.04c1.85,1.9,2.02,10.57-.28,10.54-1.28-.02-3.81-9.61-4.88-11.34.81-1.38,4.44.06,5.16.8Z"/>
    <path class="cls-8" d="M555.19,572.67c.28,3.16-.33,6.61,0,9.75-2.61-.23-5.41-2.76-5.41-5.41,0-.28.9-4.66,1.08-5.41l4.33,1.08Z"/>
    <path class="cls-1" d="M456.65,581.34c.17,2.56.35,1.9-1.59,2.16-5.38.72-10.43-1.31-15.74-1.08.14-.88-.22-2.99.01-3.24.59-.64,14.56,3.36,17.32,2.17Z"/>
    <path class="cls-8" d="M494.55,598.66c1.76.6,6.62-1.63,6.53,1.64-.12,4.11-2.1,6.71-6.53,5.94-.07-2.5-.1-5.08,0-7.58Z"/>
    <path class="cls-8" d="M698.92,270.74c4.79-.69,11.25,7.19,4.32,6.1-3.77-.59-13.12-4.83-4.32-6.1Z"/>
    <path class="cls-2" d="M465.32,518.53c-2.77,5.88.54,8.14,5.4,4.33l-3.24,6.49c4.63,1.13,6.63.47,10.83-1.08-.18,1.98-.61,4.58-1.08,6.5-.11.45-2.47.96-2.26,5.97.23,5.49,3.33,4.53,3.4,5.49.08,1.09-1.82,3.22-1.02,4.63.32.56,4.82,1.92,6.02,2.7.76.49,1.28,2.83,1.97,2.85.2,0,1.5-1.83,3.29-2.12,3.24-.51,6.94.48,10.26-1.11-.69,4.38-1.08,7.48-2.17,11.91-3.26-.94-4.6,3.35-7.58,3.25-.23-1.25.34-3.33,0-4.33-.44-1.3-.66-1.28-2.16-1.08-.17.66.19,1.73,0,2.16-1.19,2.59-5.87.52-6.25-1.75-.69-4.04,4.25-4.89-5.66-5.84-.47-.5,1.54-3.83,1.08-4.31-2.04-2.17-2.36,4.43-4.32,2.16-.33-.38.32-2.93,0-3.25-.27-.27-5.94,1.37-7.57,0,1.55,3.09-.81,3.72-1.08,6.49,2.99,1.36,3.26-7.27,6.49-4.32,1.76,1.61-4.13,4.06-4.33,4.89-.43,1.74,4.37,4.01,3.25,7.02-1.25-.27-3.06.26-4.33,0-.25-.05-1.37-1.75-2.9-2.01-2.24-.39-10.87,1.6-12.65,3.02-1.26,1-.57,2.13-.69,2.25-1.86,1.9-4.99,2.65-4.33,6.5-2.95-.31-5.74-.61-8.66-1.08-2.02-5.71,9.04-3.95,7.57-7.03-.4-.83-2.24-1.93-3.19-2.23-1.85-.6-5.38.33-5.47-1.57h16.24c-.16-1.22.64-2.43-.63-3.34-1.55-1.11-5.61.04-5.86-2.06,20.4-.15,19.13-14.34.52-2.2-.18-1.03,2.23-9.99-1.06-8.63-5.37,2.22-3.19,13.51-9.2,14.62,2.02-1.46-.36-8.11-1.65-8.11-5.11,3.78-3.7,9.57-3.8,15.13-4.18,1.13-1.55-7.69-4.85-6.48-3.04,1.12-3,6.05-2.72,8.65-4.59-1.1-8.35-1.77-12.99-3.25,10.44-9.24-8.42-19.5-8.66-3.25-8.01-3.06-13.14-5.77-20.57-9.75,5.13-4.36,2.59-9.57,3.25-15.16l6.47-.55-2.14,4.88c5.33-1.96,2.56,6.3,4.34,7.58,2.63,1.88,4.06-5.08,3.25-6.49l4.87,3.22,1.62-5.39c3.4-.7,3.13,3.66,5.4,4.33-.5-2.01,2.2-4.41,1.98-5.74-.68-4.15-5.54-5.12,4.53-7.26-1.49-4.14-4.47-6.95,1.08-9.73.03.12,1.22.43,1.53,1.19.65,1.57.6,3.62,1.69,4.79,1.41,1.52,5.03,1.11,5.45,2.14,1.42,3.51-3.97,2.67-6.52,5.39-4.74,5.05-.24,4.7.77,6.2.17.25-.73,2.83.85,2.98.4.04,2.66-1.26,4.89-1.04.38.04,1.98,1.64,3.25,1.08-.22,5.21,4.97,6.84,4.33,1.08h1.08c1.15,2.28,4.9-.49,5.21-1.33.39-1.06-1.02-2.32-.64-2.83.18-.24,1.95-.07,2.01-.83.06-.72-1.16-1.34-1.17-1.51-.03-2.32.17-8.23,1.12-9.99.6-1.12,2.29-1.33,3-2.64.85-1.58.88-5.02,1.55-5.61s2.74.05,3-.18c.21-.18-.9-5.2-1.08-5.41,7.19.24,14.46-.14,21.66,0ZM459.64,539.93c4.28-4.28-.57-12.32-7.51-9.37-8.55,3.64.71,16.16,7.51,9.37Z"/>
    <path class="cls-2" d="M482.64,518.53c3.38,4.16-5.92,4.09,2.16,5.95-1.77,2.62-3.94,2.86-6.49,3.8.29-3.18-.2-6.54,0-9.75,1.44.02,2.89-.03,4.33,0Z"/>
    <path class="cls-11" d="M307.26,427.55c-.15-.11-1.06-3.23-.97-3.63.75-3.37,7.86-3.41,9.58-.14,0,.95-7.33,4.7-8.6,3.77Z"/>
    <path class="cls-2" d="M509.71,554.26c-2.16-.77-4.37-1.33-6.5-2.17.25-1.72,1.02-4.43,1.08-5.41,3.85-.58,6.21,3.79,6.44,6.92l-1.03.66Z"/>
    <path class="cls-8" d="M669.96,353.94c.46.4,2.88,9.41,5.43,10.82-2.18.29-6.13-1.31-7.04-3.23-.87-1.83-1.32-10.11,1.61-7.58Z"/>
    <path class="cls-8" d="M665.64,348.52c.43.41.12,10.33-.53,11.91-2.4-2.34-4.89-8.5-2.8-11.26.7-.93,3.02-.95,3.33-.66Z"/>
    <polygon class="cls-2" points="436.09 660.38 436.09 652.81 443.64 656.59 436.09 660.38"/>
    <path class="cls-2" d="M694.88,309.54c3.07,2.24,8.09,4,7.57,8.66l-9.74-6.49c.65-1.39,1.8-1.65,2.17-2.17Z"/>
    <path class="cls-1" d="M443.66,622.48c.1.11,1.88-.44,2.18.71.43,1.64-.24,3.98-.02,5.79l-7.57-2.18,5.41-4.32-6.49,1.08v-6.49c2.17-.21,4.5.68,6.05,2.16,1.89,1.8.31,3.12.44,3.25Z"/>
    <path class="cls-2" d="M560.61,605.16l-7.57,4.33-1.1-5.41,7.58-2.17c.41,1.07.71,2.44,1.08,3.25Z"/>
    <path class="cls-2" d="M768.51,326.87c-3.39-1.96-2.76-8.96-3.25-9.75,6.06-.4,4.96,5.51,3.25,9.75Z"/>
    <path class="cls-1" d="M447.99,596.51c2.43,2.53-6.7,3.47-7.57,4.31l1.09-7.58,6.48,3.26Z"/>
    <path class="cls-2" d="M768.51,326.87c-.38.94-.11,2.83-1.7,3.18-.36.08-6.73-1.83-6.96-2.11-2.37-2.99,6.75-4.72,8.66-1.07Z"/>
    <path class="cls-1" d="M443.66,630.07c2.15,2.04-6.87,5.06-7.58,4.32v-6.49c1.28.67,7.29,1.9,7.58,2.17Z"/>
    <path class="cls-1" d="M445.82,610.56l-7.57,1.08,1.09-6.49c1.09.4,8.21,3.52,6.48,5.4Z"/>
    <path class="cls-1" d="M444.74,634.4v6.49c-9.57-2.25-10.63-4.52,0-6.49Z"/>
    <path class="cls-2" d="M443.66,643.07c.73.97-6.86,5.1-7.57,4.31v-7.57s7.57,3.26,7.57,3.26Z"/>
    <path class="cls-1" d="M445.82,677.7c-.71.79-8.31-3.34-7.57-4.31l7.57-3.26v7.57Z"/>
    <path class="cls-2" d="M707.88,316.04c-1.31-2.41,3.25-9.68,4.86-9.72,4.81-.12-2.26,9.47-4.86,9.72Z"/>
    <path class="cls-2" d="M784.75,333.37l-8.65-2.69c2.94-2.9,11.6-3.02,8.65,2.69Z"/>
    <path class="cls-2" d="M708.95,321.45c4.38-.66,6.97-2.16,8.66,4.33-3.9.35-6.68-.97-8.66-4.33Z"/>
    <path class="cls-2" d="M718.7,313.87c.36.27,1.55,3.57-.68,4.19-2.34.65-5.48-.11-7.97.14-1.23-3.15,8.25-4.63,8.66-4.33Z"/>
    <path class="cls-2" d="M697.04,384.25c-2.09.49-5.06-4.45-5.67-5.7-.77-1.57-1.09-3.65.82-4.03,2.86-.57,4.31,7.93,4.85,9.73Z"/>
    <path class="cls-10" d="M736.02,407c.47.46-4.99,10.2-6.48,10.82-1.93-3.15,3.75-13.45,6.48-10.82Z"/>
    <path class="cls-1" d="M443.66,666.89c1.76,1.89-5.43,5-6.49,5.41v-7.58s6.49,2.17,6.49,2.17Z"/>
    <path class="cls-1" d="M446.9,611.66c.95,8.07-2.94,7.26-7.57,2.7l7.57-2.7Z"/>
    <path class="cls-2" d="M706.26,323.63c3.81-.82,3.29,8.7,1.07,8.64-1.35-.04-4.28-7.95-1.07-8.64Z"/>
    <path class="cls-1" d="M449.07,600.83l-1.09,6.49-6.46-3.79c0-1.2,6.84-3.35,7.55-2.7Z"/>
    <path class="cls-1" d="M499.97,567.26c.52-2.53,1.77-5.51,2.17-7.58l4.31,4.87-6.48,2.71Z"/>
    <polygon class="cls-1" points="758.76 378.84 751.2 376.15 758.75 373.43 758.76 378.84"/>
    <path class="cls-2" d="M692.72,318.21c1.43-.21,7.59-.29,7.55,1.62-.05,2.84-9.23,4.74-7.55-1.62Z"/>
    <path class="cls-2" d="M718.91,349.62c2.3,2.11-5.95,3.31-6.49,4.32l-1.08-7.58c1.28,2.25,7.26,2.98,7.57,3.26Z"/>
    <path class="cls-8" d="M741.12,373.75c.91,1.16,4.08,8.85,3.56,9.42-2.22,2.43-5.26-8.76-6.48-9.22-.76-2.91,2.67-.51,2.92-.2Z"/>
    <path class="cls-1" d="M444.74,647.39v5.41l-7.57-2.18c.19-1.85,7.07-3.74,7.57-3.23Z"/>
    <path class="cls-2" d="M702.66,321.45c-.67,3.69.47,5.52-4.85,6.5-4.35-2.46,2.42-6.45,4.85-6.5Z"/>
    <path class="cls-10" d="M746.87,381.01l-1.09-8.65c5.39.26,4.95,6.29,1.09,8.65Z"/>
    <path class="cls-2" d="M768.51,334.45c.71-.05,1.53.12,2.17,0,.88,4.28,1.34,5.51-3.78,7.59-.61-2.1,1.54-5.83,1.61-7.59-1.56.11-9.06,1.15-8.65-1.61,1.6-2.32,6.63-2.36,8.2-.61.49.67.49,1.43.46,2.21Z"/>
    <path class="cls-12" d="M773.92,327.95c-.47,2.05,2.63,5.4-3.25,6.5-1.02-4.93-3.02-5.38,3.25-6.5Z"/>
    <path class="cls-1" d="M620.16,463.31c1.94-1.12,3.78-3.53,6.49-3.24.29,3.05-2.2,5.37-3.24,7.57l-3.25-4.33Z"/>
    <path class="cls-12" d="M708.95,321.45c-3.44.52-3.43-.04-5.41,0,.34-1.88-.31-4.35,2.71-4.35,3.41,0,2.17,3.44,2.71,4.35Z"/>
    <path class="cls-2" d="M701.58,368.02c1.47-.89,2.62-1.98,3.79-3.22,5.74,4.35.93,5.12-3.78,6.46-.03-1.07.02-2.16,0-3.24Z"/>
    <polygon class="cls-1" points="444.74 659.3 444.73 665.79 438.25 663.62 444.74 659.3"/>
    <path class="cls-1" d="M450.15,590v5.41c-.93,1.03-5.74-2.62-6.49-3.79l6.49-1.62Z"/>
    <path class="cls-2" d="M705.7,314.95c-4.7.86-3.78-8.6-1.62-8.64,2.09-.03,1.73,7.01,1.62,8.64Z"/>
    <path class="cls-1" d="M556.27,591.08c.19,1.2.81,4.32,1.08,5.41-2.99-.2-4.46-3.08-6.49-4.88l5.41-.54Z"/>
    <path class="cls-1" d="M451.23,585.67c.86,3.81-6.35,1.61-8.65,3.24v-3.24s8.65,0,8.65,0Z"/>
    <path class="cls-2" d="M765.26,317.12c-.06-.1-2.05.41-2.24-.68-1.26-7.31,8.87-5.06,5.49-1.49-.52.55-4.4-1.32-3.25,2.17Z"/>
    <path class="cls-2" d="M745.77,277.07c-.4.52-3.83,8.54-5.41,6.48-.56-3.86,1.19-6.93,5.41-6.48Z"/>
    <path class="cls-2" d="M780.41,338.77c-1.14,1.01-6.07-3.39-5.4-5.4.48-.46,5.35,1.31,6.02,2.13.3.36-.49,3.17-.61,3.28Z"/>
    <path class="cls-2" d="M749.01,270.57c-5.57,1.39-2.93-4.53-.53-7.58l.53,7.58Z"/>
    <path class="cls-10" d="M675.59,320.39c.07,2.05-4.65,1.09-5.71.83-1.54-.38-3.6-1.29-4.03-3l9.74,2.17Z"/>
    <path class="cls-1" d="M555.19,572.67l-4.33-1.08c.55-2.24.11-4.41,3.24-5.41.15,2.21.9,4.28,1.09,6.5Z"/>
    <path class="cls-1" d="M501.05,529.36c-2.59.29-4.42-.89-5.41-3.25,2.33-.04,3.15.28,4.33-2.17.9,2.66.73,2.91,1.08,5.41Z"/>
    <path class="cls-2" d="M714.58,363.7c-.04,5.02-6.97,3.08-6.49-1.09l6.49,1.09Z"/>
    <path class="cls-2" d="M755.51,267.32c1.22,1.14-4.24,6.62-5.4,5.4.09-2.93,1.93-6.17,5.4-5.4Z"/>
    <path class="cls-2" d="M744.69,271.63c-6.46,1.47-9.18-7.48-2.66-3.29.85.55,2.28,2.24,2.66,3.29Z"/>
    <path class="cls-2" d="M413.34,516.36c.12,1.79-.17,3.64,0,5.41-.98-5.6-6.01-1.23-5.41-5.41,1.79.13,3.62-.1,5.41,0Z"/>
    <path class="cls-2" d="M787.99,339.88c-1.48,3.48-7.37-.67-5.39-3.26l5.39,3.26Z"/>
    <path class="cls-1" d="M362.45,526.11v-3.25c2.43,1.08,1.16,3.53,4.31,2.7-.42,1.28-3.13,1.48-3.23,1.63-.41-.24-.76-.94-1.08-1.08Z"/>
    <path class="cls-8" d="M502.13,554.26c.07-.49.59-.94,1.08-1.08-.07.49-.59.93-1.08,1.08Z"/>
    <path class="cls-2" d="M618,476.3l1.08-1.08c-.28.41-.79.69-1.08,1.08Z"/>
    <path class="cls-3" d="M532.45,437.32c-40.05,7.18-43.89-51-15.2-65.55,25.75-13.06,52.51,8.14,49.84,35.76-.35,3.65-1.97,11.94-6.48,12.46,5.07-18.26-3.45-42.56-23.77-46.07-3.99-.69-15.83,0-18.47,2.78-2.76,2.91,5.49,2.05,6.49,2.15,8.52.86,12.31,1.47,18.44,8.09,14.88,16.09,8.53,41.52-10.86,50.38Z"/>
    <path class="cls-3" d="M392.77,447.06c-5.13-4.7-10.48-7.17-13.86-13.75-9.39-18.31,1.06-38.97,22.52-39.32-.21-2.05-2.25-1.65-3.25-2.15-17.29-8.76-31.27,10.73-31.49,26.54-.09,6.67,3.55,13.31,3.32,20.02-16.92-14.62-6.66-52.02,15.65-54.19,38.98-3.8,45.86,67.08,7.1,62.85Z"/>
    <path class="cls-11" d="M532.45,437.32c19.39-8.86,25.74-34.29,10.86-50.38-6.13-6.63-9.91-7.23-18.44-8.09,9.57-4.17,21.13,3.25,26.2,11.16,11.62,18.1,3.4,43.37-18.62,47.32Z"/>
    <path class="cls-11" d="M398.18,391.84c1,.5,3.04.1,3.25,2.15-21.46.35-31.91,21.01-22.52,39.32,3.38,6.58,8.73,9.06,13.86,13.75-22.6-2.46-30.13-36.72-10.76-50.28,5.79-4.06,9.77-3.27,16.17-4.94Z"/>
    <path class="cls-1" d="M443.66,518.53c.18.21,1.29,5.23,1.08,5.41-.26.23-2.32-.42-3,.18s-.69,4.04-1.55,5.61c-.71,1.3-2.4,1.52-3,2.64-.95,1.76-1.15,7.67-1.12,9.99-2.68-5-5.29-2.29-9.75-2.16-.91,4.19,4.72.57,6.5,3.79.13.23-3.91,1.31-2.16,4.87h-1.08c-.23-2.11-1.09-3.99-2.71-5.41-.87.73-1.58,3.27-1.62,4.33-1.26.56-2.87-1.04-3.25-1.08v-2.17c2.46-12.23,1.5-5.14,7.29-8.95.84-.55,1.05-2.85,2.45-3.56s3.05,1.04,4.92-.35c.41-.3,5.08-8.18,5.3-8.76.13-.33-1.12-7.53,1.69-4.37Z"/>
    <path class="cls-12" d="M459.64,539.93c-6.79,6.78-16.06-5.74-7.51-9.37,6.94-2.95,11.79,5.1,7.51,9.37Z"/>
    <path class="cls-8" d="M436.08,542.35c0,.17,1.23.79,1.17,1.51-.07.76-1.83.59-2.01.83-.38.51,1.04,1.77.64,2.83-.31.84-4.06,3.61-5.21,1.33-1.75-3.56,2.29-4.63,2.16-4.87-1.78-3.22-7.41.4-6.5-3.79,4.46-.13,7.07-2.84,9.75,2.16Z"/>
    <path class="cls-8" d="M429.58,548.85c.63,5.76-4.55,4.13-4.33-1.08.04-1.06.75-3.59,1.62-4.33,1.62,1.42,2.48,3.3,2.71,5.41Z"/>
    <path class="cls-8" d="M489.14,564.01l-2.17,1.08c.2-.43-.17-1.5,0-2.16,1.5-.2,1.73-.22,2.16,1.08Z"/>
    <path class="cls-2" d="M516.21,554.26c.64.19,1.04,2.11,1.59,2.07,3.23-.21,14.28-8.8,15.4-.28,1.48,11.26-9.23,3.25-15.19,7.9-1.09.85-.59,2.09-.72,2.22-1.34,1.41-4.32,3.42-5.4.53-.64-1.71,5.84-4.38,6.48-6.5l-4.32-1.61c.29-.72-.28-2.44,0-3.25.19-.55,1.54-1.27,2.17-1.08Z"/>
    <path class="cls-2" d="M532.45,567.26v2.17c-6.41,1.19-.24,1.98,0,2.17.4.32.67,1.61,1.08,2.17-.19.17.28,1.2.02,1.4-4.49,3.48-11.47-5.34-1.1-7.9Z"/>
    <path class="cls-8" d="M532.45,567.26c.17-.04.23-1.03.55-1.07.49-.07.36,1.93,1.26,2.17,2.57.67,5.43-1.57,4.69,2.16-4.05,1.84-2.45,2.54-3.25,3.25-.29.26-1.87-.26-2.17,0-.42-.55-.68-1.85-1.08-2.17v-4.33Z"/>
    <path class="cls-2" d="M538.94,552.1v2.15c-1.6.35-2.25-.48-3.24-1.62l3.24-.53Z"/>
    <path class="cls-2" d="M531.91,549.93c.7.36.7.72,0,1.08v-1.08Z"/>
    <path class="cls-12" d="M541.94,593.5c6.88,6.88-8.31,15.88-9.56,5.75-.95-7.73,5.55-9.75,9.56-5.75Z"/>
    <path class="cls-8" d="M511.88,599.74c2.01,3.77,2.01,1.94,3.25,7.58.08.34-.07.74,0,1.08-1.35.49-7.03.97-7.58,0-.23-.41.55-2.38-.19-3.06-.93-.86-4.34,1.12-2.93-2.76,1.1-3.02,4.83-3.12,7.45-2.83Z"/>
    <path class="cls-1" d="M512.96,597.58c.32-.37.65-.85,1.08-1.08-.17.5-.57.97-1.08,1.08Z"/>
    <path class="cls-2" d="M512.96,559.68c-.68.67-1.09,1.15-2.17,1.08.44-1.23-.99-2.66,1.61-2.15l.55,1.07Z"/>
    <path class="cls-2" d="M397.64,540.19c.7.36.7.72,0,1.08v-1.08Z"/>
    <path class="cls-2" d="M399.81,541.27c.7.36.7.72,0,1.08v-1.08Z"/>
    <path class="cls-2" d="M385.73,532.61c.7.36.7.72,0,1.08v-1.08Z"/>
    <rect class="cls-14" x="692.72" y="344.2" width="2.15" height="6.49"/>
    <path class="cls-2" d="M422,545.6c-1.22-.63-.04-.88,0-1.08v1.08Z"/>
    <path class="cls-1" d="M518.37,528.29c-1.01,2.15-4.88,2.92-5.93,5.43-.98,2.34.41,5.92-1.63,6.47-2.2-8.04-2.44-13.86,7.56-11.89Z"/>
    <path class="cls-14" d="M371.11,515.29c-2.52,4.95-7.46-.16-9.72-2.73l9.72,2.73Z"/>
    <path class="cls-14" d="M720.87,385.34c2.19-.59,3.79.66,4.34,2.73.13.51-4.92.92-.52,1.66,7.3-1.51,1.14-1.67,1.59-3.82.24-1.15,2.18-.38,3.25-.55.23,4.71.53,6.78-4.77,6.45-6.68-.42-4.04-6.1-4.94-10.08-.29-1.29-2.65.02-2.18-1.77,1.47-.23,9.13-1.68,7.05,1.08-1.08,1.43-4.4,1.4-3.81,4.32Z"/>
    <path class="cls-14" d="M724.66,383.18c.7.36.7.72,0,1.08v-1.08Z"/>
    <path class="cls-1" d="M512.96,624.65c-3.19.31-6.54-.25-9.75,0-.45-7.11.48-3.23,3.9-3.35,3.39-.11,5.98-2.73,5.84,3.35Z"/>
    <path class="cls-14" d="M741.44,310.62c-.31-1.68,1.87-1.03,2.73-2.18.46-.6-.05-5.46,2.13-6.47,4.02,4.34.74,9.68-4.86,8.65Z"/>
    <path class="cls-14" d="M742.51,304.12c-.38.73-1.84-.63-1.06-2.15.38-.73,1.84.63,1.06,2.15Z"/>
    <path class="cls-2" d="M506.46,557.51c-.51-.51,1-1.72,1.08-.54.03.38-.84.78-1.08.54Z"/>
    <path class="cls-2" d="M509.17,557.51c.7.36.7.72,0,1.08v-1.08Z"/>
    <path class="cls-8" d="M665.64,304.13c-6.37,1.13-20.92-1.86-17.18-10.69l7.42.94c.39-15.45,13.13,1.65,9.76,9.75Z"/>
    <path class="cls-1" d="M532.45,569.42v2.17c-.24-.19-6.41-.97,0-2.17Z"/>
  </g>
  <g>
    <path class="cls-9" d="M899.57,734.47c0,39.87-26.75,64.63-69.79,64.63-25.14,0-43.74-3.67-56.86-11.21-5.73-3.3-10.45-7.31-14.1-11.98-10.45,18.76-26.44,23.19-39.17,23.19-7.65,0-18.24-2.47-26.51-9.01-7.94,5.91-17.64,9.01-28.71,9.01-24.75,0-43.48-8.79-55.69-26.14-.64-.92-1.27-1.85-1.87-2.81-10.84,24.88-30,28.95-41.34,28.95-9.92,0-25.79-3.1-37-20.38-8.24,12.9-22.02,20.38-39.45,20.38-18.98,0-34.48-8.7-44.5-20.25-12.22,17.42-28.48,20.25-37.72,20.25-20.62,0-35.67-9.25-44.86-27.52-10.95,23.61-29.58,27.52-40.7,27.52s-30.12-3.97-41.22-28.07c-9.23,18.64-24.41,28.07-45.24,28.07-19.09,0-29.96-7.78-36.35-16.65-10.22,10.9-24.18,16.65-40.41,16.65-24.29,0-40.85-12.83-49.22-38.13-6-18.15-8.44-43.58-8.44-87.78,0-31.56,2.92-54.19,9.21-71.2,11.52-31.18,32.7-37.73,48.45-37.73,17.29,0,30.18,6.06,38.96,18.43.66-.78,1.34-1.54,2.03-2.28,9.86-10.57,22.23-16.15,35.77-16.15,12.71,0,28.95,4.22,40.84,22.03,6.78-12.22,20.96-22.03,45.62-22.03s38.82,9.96,45.5,22.32c12.49-18.06,29.67-22.32,43.09-22.32,15.8,0,29.46,6.62,37.73,17.09,10.74-11.19,23.88-17.09,38.12-17.09,18.15,0,28.97,7.06,34.85,12.98,1.1,1.1,2.13,2.27,3.09,3.48,7.74-9.5,21.07-16.46,41.85-16.46,37.17,0,50.37,22.56,50.37,41.88,0,13.19-5.83,24.54-16.42,31.97-.17.12-.34.24-.51.34,3.91,4.08,7.16,9.04,9.67,14.84,12.87-19.31,32.26-28.35,51.55-28.35,2.92,0,6.05.27,9.19.78.91-21.68,6.01-37.45,15.37-47.81,8.07-8.93,19.09-13.65,31.87-13.65s35.19,4.94,46.79,37.99c3.61,10.29,6.06,22.63,7.42,37.75,12.98-10,31.46-15.06,55.01-15.06,61.06,0,67.66,32.25,67.66,46.12,0,11.14-2.82,18.78-6.23,23.95,8.17,10.37,12.3,23.59,12.3,39.46Z"/>
    <path class="cls-5" d="M281.13,643.75c-.52-7.59-1.34-14.95-2.53-21.93-1.68-9.87-4.09-18.97-7.43-26.89-7.86-18.6-20.88-30.67-41.74-30.67-16.08,0-29.13,9.71-37.93,24.27-7.28-15.17-19.72-24.27-38.83-24.27-42.48,0-52.19,50.36-52.19,103.46,0,76.45,8.2,120.44,52.19,120.44,16.68,0,30.94-7.28,40.65-22.75,5.16,11.53,14.57,22.75,36.11,22.75,24.8,0,38.32-13.99,45.4-39.89,5.47-20.04,7.08-47.21,7.08-80.55,0-8.12-.23-16.17-.78-23.97ZM229.43,776.63c-20.63,0-25.49-11.52-28.83-25.18,5.77-15.47,7.89-29.73,5.16-55.82-.3-2.73-2.73-5.16-5.76-5.16-3.34,0-6.07,3.03-5.77,6.07,5.46,57.34-13.35,80.09-41.56,80.09-33.98,0-40.66-34.28-40.66-108.91,0-51.58,8.2-91.93,40.66-91.93,17.9,0,26.7,8.49,31.85,26.09-6.67,16.69-9.4,33.07-7.58,51.88.3,3.03,2.73,5.46,5.76,5.46,3.34,0,6.07-3.03,5.77-6.37-2.73-39.44,12.74-77.06,40.96-77.06,32.76,0,40.95,40.35,40.95,91.93,0,74.63-6.97,108.91-40.95,108.91Z"/>
    <path class="cls-5" d="M339.56,631.61c5.08-2.29,9.48-5.36,12.94-9.14,5.22-5.71,8.29-13.04,8.29-21.8,0-1.96-.16-3.89-.48-5.76-2.95-17.52-19.47-30.65-44.42-30.65s-41.77,13.13-44.72,30.66h0c-.32,1.88-.48,3.79-.48,5.75,0,8.43,2.95,15.54,7.91,21.15,3.59,4.08,8.26,7.36,13.63,9.79-4.56,3.22-8.2,7.37-11.1,12.14-8.85,14.57-10.75,34.88-10.75,51.57,0,14.88.19,35.14,4.45,52.95,5.2,21.79,16.52,39.89,41.06,39.89s35.38-17.69,40.52-39.24c4.26-17.85,4.38-38.34,4.38-53.6,0-16.9-1.77-37.7-10.71-52.27-2.76-4.51-6.22-8.43-10.52-11.44ZM282.2,600.67c0-14.57,11.23-24.88,33.68-24.88s33.37,10.31,33.37,24.88c0,15.77-13.35,24.27-33.37,24.27s-33.68-8.5-33.68-24.27ZM315.88,776.63c-33.07,0-33.98-48.54-33.98-81.31,0-28.21,4.86-58.85,33.98-58.85s33.37,30.64,33.37,58.85c0,33.38-.6,81.31-33.37,81.31Z"/>
    <path class="cls-5" d="M514.61,695.12c-3.44-6.25-7.89-12.86-13.65-19.82,11.44-16.65,19-35.95,21.36-54.06.52-4,.79-7.93.79-11.77,0-9.23-1.75-17.05-4.87-23.46-7.04-14.47-21.09-21.75-37.91-21.75s-29.43,8.8-38.84,21.84c-6.37-13.65-22.45-21.84-37.01-21.84-22.29,0-35.99,12.08-44.17,30.65-3.57,8.1-6.09,17.45-7.81,27.56-1.12,6.57-1.9,13.48-2.42,20.58-.58,8.03-.82,16.32-.82,24.67,0,33.7,1.59,61.11,7.15,81.2,7.04,25.49,20.44,39.24,45.04,39.24,16.68,0,29.12-9.4,37.01-26.09,7.89,13.05,23.97,26.09,45.21,26.09,17.88,0,32.82-10.4,39.19-27.66,2.05-5.58,3.21-11.87,3.28-18.76,0-11.88-1.03-27.55-11.53-46.62ZM483.67,776.63c-21.85,0-36.41-16.08-39.44-28.82,3.64-12.74,5.46-28.21,5.46-42.78,0-3.33-2.43-5.76-5.77-5.76-3.03,0-5.76,2.43-5.76,5.76,0,45.21-13.05,71.6-36.71,71.6-33.98,0-40.66-34.28-40.66-108.91,0-51.58,8.19-91.93,43.69-91.93,14.56,0,28.52,8.49,29.13,23.36-8.8,18.51-12.44,41.26-10.93,57.04.31,3.03,2.73,5.46,5.77,5.46,3.34,0,6.07-2.73,5.76-6.07-3.33-34.89,14.26-79.79,46.12-79.79,19.11,0,31.25,10.01,31.25,33.68,0,26.09-13.05,56.43-34.89,76.45-2.13,1.82-2.43,4.85-.91,7.28,2.12,3.04,6.37,3.34,9.1.61,3.03-2.73,6.07-5.77,8.8-9.1,19.42,23.96,20.93,42.17,20.93,57.03-.3,22.76-12.44,34.89-30.94,34.89Z"/>
    <path class="cls-5" d="M601.85,662.49c-2.9-12.57-8.3-24.04-18.07-30.88,12.75-5.76,21.24-16.38,21.24-30.94,0-20.33-17.29-36.41-44.9-36.41-20.72,0-35.6,8.86-41.88,21.75-2.18,4.47-3.33,9.42-3.33,14.66,0,8.14,2.75,15.05,7.41,20.57,3.67,4.35,8.52,7.83,14.14,10.37-18.45,13.01-21.83,41.4-21.85,63.51v.2c0,18.42.28,45.13,8.25,65.18h0c6.33,15.94,17.51,27.66,37.26,27.66,23.98,0,35.15-17.34,40.36-38.59,4.41-18,4.54-38.8,4.54-54.25,0-10.26-.65-21.95-3.17-32.82h0ZM526.44,600.67c0-14.57,11.23-24.88,33.68-24.88s33.37,10.31,33.37,24.88c0,15.77-13.35,24.27-33.37,24.27s-33.68-8.5-33.68-24.27ZM560.12,776.63c-33.07,0-33.98-48.54-33.98-81.31,0-28.21,4.85-58.85,33.98-58.85s33.37,30.64,33.37,58.85c0,33.38-.6,81.31-33.37,81.31Z"/>
    <path class="cls-5" d="M676.62,680.16c-.91-1.52-3.03-2.73-5.16-2.73-4.55,0-6.98,4.85-4.85,8.49,4.55,8.49,4.85,25.48,0,36.71-1.82,3.64.91,8.19,5.16,8.19,2.42,0,4.55-1.52,5.15-3.64,6.38-13.95,6.07-35.5-.3-47.02ZM676.62,680.16c-.91-1.52-3.03-2.73-5.16-2.73-4.55,0-6.98,4.85-4.85,8.49,4.55,8.49,4.85,25.48,0,36.71-1.82,3.64.91,8.19,5.16,8.19,2.42,0,4.55-1.52,5.15-3.64,6.38-13.95,6.07-35.5-.3-47.02ZM760.75,647.35c-2.44-44.92-14.15-83.09-49.54-83.09-28.52,0-40.96,24.88-41.57,63.1-5.46-1.82-10.92-2.42-14.86-2.42-20.37,0-41.58,12.09-52.93,37.55h0c-5.23,11.72-8.36,26.26-8.36,43.76,0,16.19,2.19,30.93,6.99,43.32,9.13,23.59,27.71,38.59,58.54,38.59,10.32,0,20.33-3.34,28.83-11.22,6.97,7.58,18.81,11.22,26.39,11.22,20.05,0,31.74-10.61,38.44-30.37,3.85-11.31,6.06-25.6,7.27-42.62.02-.3.04-.6.06-.9.95-13.8,1.26-29.36,1.26-46.55,0-6.87-.16-13.7-.52-20.37ZM714.24,776.63c-6.07,0-14.56-2.73-18.81-8.19,2.43-3.64,4.25-7.58,6.07-13.04.91-2.43-.3-5.46-3.03-6.68-3.04-1.52-6.68.31-8.2,3.34-6.37,18.51-17.9,24.57-31.25,24.57-39.44,0-54-27-54-70.38,0-49.15,24.88-69.78,49.76-69.78,4.24,0,10.01.91,14.86,2.73.31,4.55.61,8.8,1.22,13.35.3,2.73,2.73,4.85,6.37,4.55,3.03-.61,5.16-3.34,4.85-6.68-4.85-47.93,3.95-74.63,29.13-74.63,30.64,0,38.53,40.35,38.53,91.93,0,74.63-5.16,108.91-35.5,108.91ZM671.45,677.43c-4.55,0-6.98,4.85-4.85,8.49,4.55,8.49,4.85,25.48,0,36.71-1.82,3.64.91,8.19,5.16,8.19,2.42,0,4.55-1.52,5.15-3.64,6.38-13.95,6.07-35.5-.3-47.02-.91-1.52-3.03-2.73-5.16-2.73Z"/>
    <path class="cls-5" d="M874.43,690.17c4.25-4.86,8.19-12.74,8.19-24.58,0-27.91-27.61-40.65-62.19-40.65-29.73,0-48.91,8.98-59.68,22.41-7.59,9.46-11.01,21.13-11.01,33.41,0,13.12,3.52,24.49,10.27,33.51.11.16.23.31.35.47-.14.14-.28.29-.41.43-5.87,6.05-10.21,14.74-10.21,27.18,0,5.59.98,10.76,2.94,15.44h0c7.97,19.2,32.19,30.37,71.69,30.37,42.78,0,64.32-26.39,64.32-59.16,0-15.77-4.85-28.82-14.26-38.83ZM824.37,776.63c-44.9,0-63.1-12.43-63.1-34.28,0-9.4,2.73-15.17,6.97-19.42,11.84,10.32,29.74,15.78,52.19,15.78,3.33,0,5.76-2.73,5.76-5.76,0-3.34-2.43-5.77-5.76-5.77-39.44,0-59.16-16.69-59.16-46.42,0-25.18,15.16-44.29,59.16-44.29,30.94,0,50.66,9.1,50.66,29.12,0,9.41-2.73,14.57-5.46,16.99-12.74-8.49-30.94-13.35-54.91-13.35-3.04,0-5.77,2.43-5.77,5.77,0,3.03,2.73,5.76,5.77,5.76,47.02,0,66.44,17.3,66.44,48.24,0,27.91-16.38,47.63-52.79,47.63Z"/>
    <g>
      <path class="cls-13" d="M270.38,667.72c0,74.63-6.97,108.91-40.95,108.91-20.63,0-25.49-11.52-28.83-25.18,5.77-15.47,7.89-29.73,5.16-55.82-.3-2.73-2.73-5.16-5.76-5.16-3.34,0-6.07,3.03-5.77,6.07,5.46,57.34-13.35,80.09-41.56,80.09-33.98,0-40.66-34.28-40.66-108.91,0-51.58,8.2-91.93,40.66-91.93,17.9,0,26.7,8.49,31.85,26.09-6.67,16.69-9.4,33.07-7.58,51.88.3,3.03,2.73,5.46,5.76,5.46,3.34,0,6.07-3.03,5.77-6.37-2.73-39.44,12.74-77.06,40.96-77.06,32.76,0,40.95,40.35,40.95,91.93Z"/>
      <path class="cls-13" d="M349.25,600.67c0,15.77-13.35,24.27-33.37,24.27s-33.68-8.5-33.68-24.27c0-14.57,11.23-24.88,33.68-24.88s33.37,10.31,33.37,24.88Z"/>
      <path class="cls-13" d="M349.25,695.32c0,33.38-.6,81.31-33.37,81.31s-33.98-48.54-33.98-81.31c0-28.21,4.86-58.85,33.98-58.85s33.37,30.64,33.37,58.85Z"/>
      <path class="cls-13" d="M514.61,741.74c-.3,22.76-12.44,34.89-30.94,34.89-21.85,0-36.41-16.08-39.44-28.82,3.64-12.74,5.46-28.21,5.46-42.78,0-3.33-2.43-5.76-5.77-5.76-3.03,0-5.76,2.43-5.76,5.76,0,45.21-13.05,71.6-36.71,71.6-33.98,0-40.66-34.28-40.66-108.91,0-51.58,8.19-91.93,43.69-91.93,14.56,0,28.52,8.49,29.13,23.36-8.8,18.51-12.44,41.26-10.93,57.04.31,3.03,2.73,5.46,5.77,5.46,3.34,0,6.07-2.73,5.76-6.07-3.33-34.89,14.26-79.79,46.12-79.79,19.11,0,31.25,10.01,31.25,33.68,0,26.09-13.05,56.43-34.89,76.45-2.13,1.82-2.43,4.85-.91,7.28,2.12,3.04,6.37,3.34,9.1.61,3.03-2.73,6.07-5.77,8.8-9.1,19.42,23.96,20.93,42.17,20.93,57.03Z"/>
      <path class="cls-13" d="M593.49,600.67c0,15.77-13.35,24.27-33.37,24.27s-33.68-8.5-33.68-24.27c0-14.57,11.23-24.88,33.68-24.88s33.37,10.31,33.37,24.88Z"/>
      <path class="cls-13" d="M593.49,695.32c0,33.38-.6,81.31-33.37,81.31s-33.98-48.54-33.98-81.31c0-28.21,4.85-58.85,33.98-58.85s33.37,30.64,33.37,58.85Z"/>
      <path class="cls-13" d="M711.2,575.79c-25.18,0-33.98,26.7-29.13,74.63.31,3.34-1.82,6.07-4.85,6.68-3.64.3-6.07-1.82-6.37-4.55-.61-4.55-.91-8.8-1.22-13.35-4.85-1.82-10.62-2.73-14.86-2.73-24.88,0-49.76,20.63-49.76,69.78,0,43.38,14.56,70.38,54,70.38,13.35,0,24.88-6.06,31.25-24.57,1.52-3.03,5.16-4.86,8.2-3.34,2.73,1.22,3.94,4.25,3.03,6.68-1.82,5.46-3.64,9.4-6.07,13.04,4.25,5.46,12.74,8.19,18.81,8.19,30.34,0,35.5-34.28,35.5-108.91,0-51.58-7.89-91.93-38.53-91.93ZM676.92,727.18c-.6,2.12-2.73,3.64-5.15,3.64-4.25,0-6.98-4.55-5.16-8.19,4.85-11.23,4.55-28.22,0-36.71-2.13-3.64.3-8.49,4.85-8.49,2.13,0,4.25,1.21,5.16,2.73,6.37,11.52,6.68,33.07.3,47.02Z"/>
      <path class="cls-13" d="M877.15,729c0,27.91-16.38,47.63-52.79,47.63-44.9,0-63.1-12.43-63.1-34.28,0-9.4,2.73-15.17,6.97-19.42,11.84,10.32,29.74,15.78,52.19,15.78,3.33,0,5.76-2.73,5.76-5.76,0-3.34-2.43-5.77-5.76-5.77-39.44,0-59.16-16.69-59.16-46.42,0-25.18,15.16-44.29,59.16-44.29,30.94,0,50.66,9.1,50.66,29.12,0,9.41-2.73,14.57-5.46,16.99-12.74-8.49-30.94-13.35-54.91-13.35-3.04,0-5.77,2.43-5.77,5.77,0,3.03,2.73,5.76,5.77,5.76,47.02,0,66.44,17.3,66.44,48.24Z"/>
    </g>
    <g>
      <path class="cls-4" d="M203.91,612.85s6.53-28.75,28.82-27.04c22.29,1.71,30.03,70.88,20.25,50.77-13.6-27.98-30.39-30.94-49.07-23.73Z"/>
      <path class="cls-4" d="M122.83,626.81s7.81-39.17,24.41-40.91c15.35-1.62,24.71,8.98,27.85,15.27s-27.75-29.62-52.26,25.64Z"/>
      <path class="cls-4" d="M452.08,606.27s6.51-21.78,28.82-20.47c34.17,2.01,9.95,72.88,7.77,50.62-4.29-43.85-17.92-37.37-36.6-30.16Z"/>
      <path class="cls-4" d="M371.01,626.81s7.81-39.17,24.41-40.91c15.35-1.62,24.71,8.98,27.85,15.27,3.14,6.29-27.75-29.62-52.26,25.64Z"/>
      <path class="cls-4" d="M803.1,650.49c-3.54-.11-5.83-4.13-.58-6.22,4.69-1.87,22.99-5.84,45.9,1.62,18.81,6.13,18,20.26,18,20.26,0,0-3.72-13.82-63.32-15.66Z"/>
      <path class="cls-4" d="M321.1,587.99c3.54.02,4-5.33.58-6.22-4.88-1.26-11.11-1.52-18.4,1.04-18.67,6.55-11.08,23.46-11.08,23.46,0,0,.71-18.46,28.9-18.28Z"/>
      <path class="cls-4" d="M565.88,587.99c3.54.02,4-5.33.58-6.22-4.88-1.26-11.11-1.52-18.4,1.04-18.67,6.55-11.08,23.46-11.08,23.46,0,0,.71-18.46,28.9-18.28Z"/>
      <path class="cls-4" d="M321.92,654.53c3.54.02,4.79-5.94.56-8.25-4.43-2.42-9.14-2.86-14.62-1.08-18.81,6.13-14.84,27.61-14.84,27.61,0,0,.71-18.46,28.9-18.28Z"/>
      <path class="cls-4" d="M692.2,612.59s-3.53-23.59,14.16-27.65c26.01-5.97,39.43,38.4,25.69,26.53-19.78-17.09-35.1-15.97-39.85,1.12Z"/>
      <path class="cls-4" d="M565.13,654.53c3.54.02,4.79-5.94.56-8.25-4.43-2.42-9.14-2.86-14.62-1.08-18.81,6.13-14.84,27.61-14.84,27.61,0,0,.71-18.46,28.9-18.28Z"/>
      <path class="cls-4" d="M822.91,703.38c-3.49.61-4.79-8.65-.56-12.01,4.43-3.52,8.83-3.36,14.62-1.57,37.27,11.52,29.11,44.36,29.11,44.36,0,0-5.65-37.3-43.17-30.78Z"/>
      <path class="cls-4" d="M655.87,658.53c3.54.09,3.47-9.26-1.21-11.97-4.9-2.83-9.47-2.49-14.7.59-32.42,19.1-25.48,47.48-25.48,47.48,0,0,3.31-37.07,41.38-36.11Z"/>
    </g>
  </g>
</svg>