<?xml version="1.0" encoding="UTF-8"?>
<svg xmlns="http://www.w3.org/2000/svg" viewBox="0 0 1000 1000">
  <defs>
    <style>
      .cls-1 {
        fill: #55b6dd;
      }

      .cls-2 {
        fill: #fdfcfc;
      }

      .cls-3 {
        fill: #231f20;
      }

      .cls-4 {
        fill: #f4c97b;
      }

      .cls-5 {
        fill: #fee984;
      }

      .cls-6 {
        fill: #4bb8e9;
      }

      .cls-7 {
        fill: #ea6327;
      }

      .cls-8 {
        fill: #78b74a;
      }

      .cls-9 {
        fill: #de3c70;
      }

      .cls-10 {
        fill: #fbf7c3;
      }

      .cls-11 {
        fill: #f6d716;
      }

      .cls-12 {
        fill: #00abe6;
      }

      .cls-13 {
        fill: #aec8df;
      }

      .cls-14 {
        fill: #22a5d9;
      }

      .cls-15 {
        fill: #1d1c19;
      }

      .cls-16 {
        fill: #fed800;
      }

      .cls-17 {
        fill: #5f6060;
      }

      .cls-18 {
        fill: #e6b55c;
      }
    </style>
  </defs>
  <g id="BG">
    <rect class="cls-10" y="0" width="1000" height="1000"/>
  </g>
  <g id="LOGO_VARIATION" data-name="LOGO VARIATION">
    <g>
      <g>
        <path class="cls-12" d="M315.58,510.06l-16.38-6.49c-8.58-24.48-28.96-46.59-28.96-72.79,0-61.67,24.02-119.65,67.62-163.25,43.61-43.6,101.58-67.62,163.25-67.62s119.65,24.01,163.25,67.62c43.6,43.6,63.43,84.44,65.15,145.63.74,26.18-21.37,10.62-21.37,10.62l-25.96,81.19-366.61,5.09Z"/>
        <path class="cls-6" d="M722.5,425.87c0,26.18-9.56.66-17.76,24.05l-409.98,46.04c-8.2-23.39-24-43.91-24-70.09,0-124.75,101.13-225.87,225.87-225.87s225.87,101.12,225.87,225.87Z"/>
        <path class="cls-16" d="M698.5,449.87c0,17.51-2.23,34.51-6.43,50.71h-390.88c-4.2-16.2-6.43-33.2-6.43-50.71,0-111.49,90.38-201.87,201.87-201.87s201.87,90.38,201.87,201.87Z"/>
      </g>
      <g>
        <path class="cls-2" d="M599.9,477.12c-14.33,8.95-28.46,18.61-43.19,26.92-20.23,11.41-44.12,19.79-62.69,33.58-2.66,1.98-7.22,6.49-10.13,9.01-.23.2-.46.4-.68.6-.01.01-.02.02-.03.02-10.96,9.63-20.37,20.77-30.8,30.91l-20.28-32.65c-1.31-.5-6.99-5.62-5.63-6.75,1.51.8,3.92-.06,5.42-.66-25.77-8.08-61.61-15.93-75.73-41.08-7.23-12.87-8.66-27.04-6.25-41.59,2.78.39,4.39,2.42,7.26,3.43,18.05,6.31,44.55,4.56,61.4-4.56-3.95,8.78,4.78,9.7,8.84,15.39,8.63,12.11,12.82,43.63,31.28,45.36,21.15,1.99,41.08-41.62,42.12-59.01.97-16.06-7.82-10.14-19.48-14.38-2.68-.97-9.24-4.05-10.36-6.52-1.26-2.79-2.58-15.87-2.83-19.69-.45-6.89.29-13.93,0-20.82,1.57.01,2.29,3.26,2.76,4.54,2.72,7.48,4.22,15.35,7.87,22.53,15.42,30.32,45.61,32.86,76.09,26.45,38.28-8.05,42.71-27.35,45.57-63.67.94,0,2.76,14.33,2.86,16.29.34,6.95-1.7,15.58-1.11,21.32.38,3.67,3.06,8.14,3.92,11.91,3.43,15.18-.08,29.13-6.2,43.12Z"/>
        <path class="cls-2" d="M483.89,546.63c-.08.21-.31.41-.68.6.22-.2.45-.4.68-.6Z"/>
        <path class="cls-3" d="M753.87,377.43c-2.46-6.99-9.39-13.8-11.01-18.83-1.75-1.49-6.64-5.97-7.88-6.76-33.94-21.32-81.97-3.65-84.45,38.29-.3,5.22.35,10.92,1.44,16.02,2.42,11.29,8.33,14.36-4.81,23.4.9-4.99-2.06-10.46-1.16-15.23.57-3.02,4.41-2.36,4.36-6.68-.02-2.04-3.39-15.6-4.33-17.5-2.54-5.15-14.92-11.96-7.54-19.93,5.86-6.33,14-7.47,18.8-18.36,1.99-4.54,3.09-12.03,2.24-16.88-1.22-7.07-10.29-17.82-15.76-22.52-15.84-13.59-37.66-21.71-57.42-27.59-4.83-10.82-9.34-22.1-15.77-32.09-23.79-36.98-70.75-38.32-110.38-29.88-24.49,5.22-33.58,13.5-46.12,34.39-5.08,8.44-8.89,17.53-14.01,25.96-15.86,4.87-31.9,9.44-46.8,16.83-5.31,2.63-10.39,6.41-15.77,9.01-7.91,8.07-12.17,12.16-19.14,21.39-7.27,16.49,2.73,31.65,16.89,39.98-.02,1.34-16.79,5.83-17.84,7.49-.56.9-.35,10.73-.08,12.67,1.06,7.57,4.71,6.64,8.4,10.74,4.67,5.17,6.54,23,9.49,31.05,3.78,10.23,8.34,10.65,3.38,23.01-1.15,1.04-25.84-39.69-27.01-41.5-11.16-17.25-27.59-41.48-38.1-34.82-30.75,19.47.39,96.06,4.35,102.87,27.88,48.04,76.75,81.96,76.75,81.96,4.47,9.32,2.14,10.22-.19,19.89-2.04,8.45-5.69,16.94-5.64,25.9.01,1.3-.01,2.49,1.13,3.38,3.91-7.06,4.72-11.19,6.76-19.15,2.58-10.1,4.79-18.16,7.88-28.14,1.38-4.46,3.38-8.66,4.51-12.39.55-1.86,1.42-6.67,1.81-8.89.18-1.05,1.06-3.51-1.24-2.36-2.45,1.22-6.18,13.58-7.9,16.93-.47.92-.23,2.99-2.23,2.19-4.76-1.9-21.34-31.94-25.35-38.26-5.51-8.69-8.7-4.58-4.4-17.14,1.52-4.41,4.36-10.3,6.64-15.52.59-1.34,1.92-7.55,2.33-7.82,3.54-2.3,3.44,2.86,4.43,5.58.92,2.52,2.19,6.84,3.37,9.01.74,1.35,3.35,4.98,4.51,6.75,1.45,2.22,3.51,2.07,5.64,6.76,1.81,2.43,11.2,7.74,12.1,9.26.79,1.34,3.39,13.65,4.76,17.22,1.68,4.42,4.47,8.3,5.66,12.92,4.22,2.89,7.97,16.58,13.82,15.63.35-.06,6.17-3.02,6.45-3.25.5-.39.9-2.7,2.34-3.83,1.67-1.3,15.99-11.81,16.78-10.81.28,5.12-5.7,11.8-2.32,16.42,1.1,1.51,13.47,6.44,16.6,8.16,6.48,3.55,12.93,7.31,19.16,11.28,8.71-4.64,18.19-7.57,27.38-11.09,1.71-.65,3.45-.71,4.51-1.13,3.03-1.17,6.71-3.11,10.13-4.5,5.46-2.21,11.45-2.59,14.63-7.89-.66-5.06-2.75-10.7-1.69-15.76,5.25,2.83,10.03,6.39,14.62,10.17,5.49,4.52,10.35,14.56,18.18,10.17,19.08-16.62,39.86-34.6,53.34-56.36,2.31-3.73,5.65-10.44,7.88-14.64.34-.62.09-2.66.88-4.14,5.49-10.35,10.3-24.81,21.64-29.63-.54,5.87.99,11.54,2.57,17.13,1.16,4.09,4.64,14.23,6.45,17.76.71,1.4,4.4,7.04,5.62,9.01,4.71,7.53,14.92,19.34,21.96,24.77,4.08,3.16,10.27,6.24,15.2,7.9l-10.13,10.12c-1.9,3.34-4.83,3.66-5.64,4.5-3.07,3.22-4.08,4.51-7.88,7.89-3.03,2.69-5.88,5.25-9.01,7.88-3.57,2.99-18.04,12.9-5.64,10.13.48,7.79,1.58,16.09,3.38,23.65,2.31,9.67,6.11,21.75,9.01,31.52.48,1.63,5.04,9.57,4.01,11.29-8.6,5.89-17.89,10.91-27.66,14.61-2.29,4.99-14.33,16.48-14.52,17.62-.11.64,5.46,9.76,6.38,11.34,1.49,2.55,1.47,1.41,3.64.32,6.83-9.43,15.35-17.31,25.89-22.52.37-3.47-.85-8.04.59-11.24,1.79-4,10.93-4.61,10.67-10.58-.24-5.22-7.88-23.79-9.81-30.86-2.54-9.22-5.12-18.81-5.95-28.39-1.37-3.99-3.13-6.07-.53-10.11.81-1.25,2.06-1.54,2.78-2.28,6.69-6.73,15.29-13.15,22.5-19.72,1.39-1.27,2.32-2.82,4.52-2.8,1.19-3.91,7.24-7.04,8.57-11.23,1.15-3.61-2.2-6.07-1.34-9.08.68-2.42,8.93-13.38,10.99-17.21,6.9-12.86,12.62-26.49,17-40.43,1.76-5.62,3.17-17.28,5.29-21.48,1.05-2.06,10.32-2.2,12.43-3.03.69-.27,11-6.84,12.39-7.88,4.14-3.09,11.01-11.23,13.5-15.77,7.43-13.51,8.22-29.77,3.13-44.21ZM444.84,233.42c28.11-12.5,91.4-13.83,113.33,10.93,2.14,2.42,16.04,23.98,14.66,25.29-13.28-4.05-26.53-8.53-40.29-10.92-44.14-7.66-71.6-2.33-113.91,7.02-.99.23-2.98,1.35-3.41-.03,8.22-13.23,14.69-25.65,29.63-32.29ZM410.43,274.44c.73-1.05.91-1.58,2.18-2.33,4.77-2.82,21.02-6.45,27.15-7.74,39.28-8.3,86.32-6.67,124.3,6.74,6.13,2.16,15.63,4.51,15.53,12.05-46.75-12.1-97.86-13.22-145.65-6.59-8.08,1.13-16.47,2.81-24.34,4.95-2.98.81.04-5.92.83-7.07ZM333.6,363.08c-41.09-33,25.7-61.51,51.74-69.81,61.1-19.42,134.94-21.44,196.75-4.16,22.21,6.21,49.38,16.09,64.4,34.12,16.44,19.73,5.36,31.65-12.28,44.36-9.11-20.79-12.19-32.06-32.47-44.08-53.49-31.7-155.92-31.59-212.07-6.76-14.94,6.62-24.76,13.38-33.21,27.59-3.4,5.73-6.91,17.28-10.09,21.43-4.01,5.26-8.63.65-12.77-2.68ZM581.85,343.95c-31.17-.23-65.97-1.22-94.63,12.9-2.33,1.15-12.1,8.63-13.46,7.37,14.37-50.56,76.59-61.57,108.08-20.28ZM429.84,365.35c-14.45-3.76-29.51-5.41-44.46-4.49-7.04.43-14.56,2.43-21.47,3.31-1.54.19-2.11.12-1.6-1.61.68-2.33,5.45-8.72,7.28-10.74,20.2-22.12,51.21-14.08,60.25,13.52ZM344.93,442.95c-8.69-13.58-7.38-28.86-13.3-40.75-2.48-4.98-8.91-5.94-9.81-11.57-.3-1.88-.59-9.92.6-10.75,2.86-2.03,20.67-7.12,25.21-8.33,23.38-6.26,60.71-10.71,83.32-1.1,3.05,1.3,10.57,7.2,11.79,7.26,1.98.1,9.07-2.83,12.57-3.19,4.88-.51,12.53.81,16.52-.37,1.62-.48,12.72-11.61,19.18-14.6,33.37-15.45,78.6-13.45,114.23-8.59,6.64,12.6-3.93,15.99-7.07,23.42-6.72,15.88.52,37.25-13.14,54.41-15.17,19.05-66.72,23.29-86.43,10.24-16.3-10.77-19.64-29.48-27.09-46.1-5.68-6.82-20.79-6.2-25.53,1.51-4.26,6.94-3.67,22.56-7.71,30.57-8.44,34.81-74.97,46.68-93.34,17.94ZM453.77,505.24c13.38,5.53,28.95-18.9,33.25-29.22,3.21-7.71,3.26-18.53,10.37-22.83-1.88,16.51-8.94,36.52-20.22,49-27.08,29.97-39.06-16.15-47.31-35.5,8.25,4.49,9.23,17.33,13.3,25.55,1.89,3.83,6.67,11.37,10.62,13.01ZM454.82,484.35c6.16-10.04,19.66-17.14,31.32-14.27-3.17,10.92-17.35,35.37-30.7,32.43-9.14-2.02-3.8-12.98-.62-18.16ZM488.74,456.34c-18.57,10.34-34.76-2.66-50.48,3.57-4.42,1.75-6.11,5.38-11.57,3.81-2.94-.85-6.93-3.67-5.32-7.15.63-1.39,20.53-18.95,22.73-20.11,1.68-.89,3.85-1.86,5.71-2.15,13.85-2.27,21.49,9.29,32.89,11.61,3.92.8,8.81-.24,11.71.68,6.38,2.02-3.66,8.62-5.67,9.74ZM442.81,573.64c-2.76-.8-5.69-4.08-8.19-5.33-3.51-1.75-11.79-4.19-14.19-5.84-1.19-.81-.53-1.58-.72-2.33-1.08-4.26,3.83-10.14,3.38-15.76-5.57-1.93-9.84.63-14.64,3.37-1.58.9-5.43,3.44-6.75,4.51-1.74,1.4-7.29,9.57-9.54,9.01-4.51-4.88-6.69-11.19-9.61-16.88-.38-.74-.76-1.5-1.13-2.25-2.73-5.64-6.21-11.19-7.86-17.47,1-1.63,3.32.24,4.49.57,4.8,1.42,8.95,3.9,13.51,5.64,1.07.41,2.25.72,3.37,1.13,3.25,1.16,6.94.83,9.01,3.37,1.12-.05,2.27-.03,3.38,0,3.93.14,9.74,1.99,13.51,3.38.54.24,2.16,4.5,2.25,5.64,1.5.52,1.93.25,3.39,1.63,3.25,3.07,9.5,14.2,12.36,18.63.56.86,8.88,10.41,3.97,8.99ZM503.02,559.6c-.7.57-3.26,1.18-4.5,1.67-5.48,2.16-12.72,3.56-18.01,5.64-2.46.96-6.22,3.26-9.01,4.5-3.23,1.44-6.42,3.78-10.11,3.96,3.04-4.74,7.26-8.54,11.2-12.48,1.23-1.22,3.13-1.35,3.4-1.61,2.9-2.72,4.9-5.43,9.01-9.01,1.65-1.43,15.62-15.02,16.88-13.5-1.45,4.7,4.36,18.13,1.13,20.84ZM576.22,520.74c-8.9,11.06-16.24,18.83-27.03,28.14-2.28,1.96-10.99,11.62-13.91,11.15-8.79-9.35-19.27-19.73-32.25-22.42l9.35-5.82c8.49-3.88,17.33-7.82,25.54-12.18,8.78-4.67,18.35-9.66,27.03-14.64,12.12-6.94,23.26-16.31,36-21.97-6.39,13.83-15.26,25.94-24.74,37.73ZM599.9,477.12c-14.34,8.95-28.46,18.61-43.2,26.91-20.22,11.42-44.11,19.8-62.68,33.59-2.67,1.98-7.24,6.49-10.13,9.02-11.27,9.76-20.85,21.17-31.51,31.52l-20.29-32.65c-1.3-.51-6.99-5.62-5.62-6.75,2.22,1.18,6.4-1.13,6.75-1.14-25.87-8.28-62.63-14.9-77.06-40.6-7.24-12.88-8.67-27.04-6.26-41.59,2.78.38,4.38,2.42,7.26,3.43,18.04,6.31,44.55,4.55,61.4-4.55-3.94,8.77,4.78,9.69,8.84,15.38,8.63,12.12,12.83,43.63,31.29,45.36,21.14,1.98,41.08-41.63,42.12-59.02.96-16.06-7.82-10.13-19.49-14.37-2.67-.97-9.24-4.05-10.36-6.53-1.26-2.8-2.58-15.86-2.83-19.69-.45-6.89.29-13.93,0-20.82,1.58.01,2.29,3.26,2.76,4.54,2.72,7.47,4.23,15.35,7.87,22.53,15.42,30.32,45.61,32.87,76.1,26.45,38.27-8.06,42.7-27.35,45.56-63.67.95,0,2.77,14.32,2.86,16.29.35,6.95-1.69,15.58-1.1,21.31.38,3.67,3.07,8.15,3.91,11.91,3.44,15.18-.07,29.13-6.19,43.12ZM607.16,375.45c-.72-.68-1.8-1.03-2.78-1.1,1.27-4.5,6.17-6.42,6.18-12.36,11.3,12.39,33.02,23.44,35.21,41.4.38,3.11-.23,8.19-4.31,5.39-1.36-.94-1.57-6.01-3.85-8.53-6.77-7.48-21.89-16.71-30.44-24.78ZM739.48,428.41c-11.62,13-26.7,17.83-43.91,14.63-11.42-2.12-33.61-14.35-34.91-27.02-11.02-18.1-6.21-39.41,7.89-54.04,9.23-9.59,19.97-15.34,33.78-15.77,19.32-.6,36.72,11.34,45.04,28.14,9.56,19.33,6.23,38.26-7.89,54.05Z"/>
        <g>
          <path class="cls-9" d="M638.15,502.72c4.71,7.53,14.93,19.33,21.96,24.77,4.07,3.15,10.27,6.24,15.2,7.9l-10.13,10.12c7.04-12.35-6.23-17.21-11.83-5.63-7.56-13.51-19.7-4.23-10.69,7.88-15.54-2.82-12.58,16.17,1.12,11.28l-1.12,6.75c-3.57,2.99-18.04,12.91-5.64,10.14.49,7.79,1.58,16.09,3.38,23.64-4.9,3.68-2.67-3.95-7.56-5.4-9.49-2.82-5.57,29.73.72,35.63l-24.74,1.89c-3.74-4.95-6.38-37.19-12.33-38.87.44-3.53-.57-6.47-2.44-9.38l-7.68-6.37c22.73-4.33,10.64-30.77-6.75-13.53,1.89-25.64-28.36-17.56-14.65,4.49-5.87-3-17.21-4.25-18.94,4.22-1.96,9.55,8.19,11.58,15.56,10.44.32.29-3.1,7.45-3.37,7.88-4.75.35-10.71.6-14.64,3.38-.36.08-.77-.08-1.13,0-2.89.63-6.41,1.82-7.88,4.5-.29.16-.84-.16-1.13,0-2.07,1.18-2.65,2.88-3.38,3.38-.25.18-.87-.18-1.13,0-6.21,4.28-1.76-.51-6.78-2.8-2.15-.98-4.48-.6-6.73-.58-9.6-6.92-23.53-7.87-34.9-7.88-.75,0-1.5,0-2.25,0-3.18.03-7.91-.92-10.13,1.13-.75-.02-1.5.03-2.25,0-5.26-.21-12.66-2.91-16.89,1.13.25-4.72-4.27-7.89-8.28-5.52-2.95,1.74-2.06,5-5.22,4.39.85-13.45-14.23-14-11.26,1.13-5.26,2.39-11.37-1.78-17.41-2.29-7.34-.62-15.03.12-22,1.17-3.31.5-14.54,3.6-15.77,2.83-.71-.44-.92-2.24-1.91-2.89-4.33-2.83-6.52,1.46-10.47,2.31,2.59-10.11,4.8-18.17,7.88-28.15l5.63,3.36c-15.1,5.14-5.1,22.89,6.74,9.02,2.85,15.92,21.67,8.04,11.27-4.5,8.45,1.03,12.3-2.83,11.26-11.27.5-.4.9-2.71,2.34-3.83,1.67-1.3,15.99-11.82,16.79-10.81.28,5.11-5.7,11.8-2.33,16.42,1.11,1.51,13.47,6.44,16.61,8.16,6.48,3.55,12.92,7.31,19.15,11.28,8.72-4.64,18.2-7.57,27.38-11.09-5.62,6.62.49,18.32,7.85,11.79,2.32-2.06,2.06-5.93,2.3-6.16,1.91-1.82,3.55,4.55,6.42,5.41,10.09,3.02,10.09-8.17,3.7-13.27,3.53-.85,9.37-5.04,9.86-8.66.18-1.31-.78-2.04-.86-2.61-.67-5.06-2.76-10.7-1.7-15.76,5.25,2.83,10.03,6.38,14.61,10.16,5.49,4.52,10.35,14.57,18.19,10.17,19.08-16.63,39.86-34.61,53.34-56.37l9.01,2.26c-.52,2.24-3.39,2.63-4.53,4.2-5.61,7.7-1.48,17.95,9.11,14.42,4.67-1.56,3.14-7.54,7.21-6.3,1.01.31,9.79,15.8,16.42,4.04,3.99-7.07-1.57-11.52-5.68-16.37,5.37.55,11.75-1.12,13.51-6.77Z"/>
          <path class="cls-11" d="M558.2,590.55c.28-.42,3.69-7.59,3.37-7.88-7.37,1.14-17.52-.88-15.56-10.44,1.74-8.47,13.08-7.22,18.94-4.22-13.71-22.06,16.54-30.14,14.65-4.49,17.39-17.24,29.48,9.2,6.75,13.53l7.68,6.37c1.88,2.91,2.88,5.85,2.44,9.38-6.86-1.93-16.69-2.1-23.65-2.25-4.66-.1-10.07-.34-14.64,0ZM571.4,569.35c-7.53,2.17-6.47,16.51,5.14,13.08,7.74-2.28,4.05-15.73-5.14-13.08Z"/>
          <path class="cls-15" d="M465.88,591.67c-2.97,2.29-6.7,2.19-10.19,3.89-3.1,1.51-6.76,3.85-9.51,5.43-.92.53-.45,1.83-.58,1.92-.51.34-2.47-1.29-2.17-2.7.1-.45,5.23-7.09,5.56-7.41,4.23-4.04,11.63-1.33,16.89-1.13Z"/>
          <path class="cls-14" d="M478.26,590.55c-2.15,1.94-7.05,1.23-10.13,1.13,2.23-2.04,6.96-1.1,10.13-1.13Z"/>
          <path class="cls-11" d="M600.99,492.59l6.75,3.37c-6.13-21.69,21.99-21.68,14.07-.02,2.93-2.81,6.95-2.31,10.71-2.23.71,1.4,4.4,7.04,5.63,9.01-1.76,5.65-8.14,7.32-13.51,6.77,4.11,4.85,9.67,9.31,5.68,16.37-6.63,11.75-15.41-3.73-16.42-4.04-4.06-1.24-2.54,4.74-7.21,6.3-10.59,3.53-14.72-6.72-9.11-14.42,1.15-1.57,4.01-1.96,4.53-4.2l-9.01-2.26c2.31-3.73,5.65-10.44,7.88-14.64ZM609.17,511.42c7.75,6.3,15.3-7.74,7.58-11.53-7.57-3.72-13.42,6.78-7.58,11.53Z"/>
          <path class="cls-9" d="M356.66,510.6c1.82,2.44,11.21,7.74,12.11,9.27.79,1.33,3.39,13.65,4.75,17.21,1.69,4.43,4.47,8.3,5.66,12.92-2.87,1.37-3.08,5.16-3.39,7.88l-6.74-4.5c.56-1.86,1.43-6.67,1.82-8.89.19-1.05,1.05-3.51-1.24-2.36-2.44,1.22-6.17,13.59-7.89,16.94-.47.92-.23,2.98-2.23,2.18-4.76-1.91-32.4-24.6-36.41-30.93,1.61-.84,18.8-15.44,20.06-14.09,1.18,16.52,21.54,12.02,13.52-5.64Z"/>
          <path class="cls-9" d="M537.94,519.61l5.62,4.49c-16,3.27-9.16,20.32,4.5,11.27-1.52,5.4-1.12,8.47,1.14,13.51-2.27,1.96-10.98,11.62-13.91,11.14-8.79-9.35-19.27-19.73-32.24-22.41l9.36-5.82c8.48-3.87,17.33-7.82,25.54-12.18Z"/>
          <path class="cls-1" d="M564.96,504.97c1.69,4.62,1.42,8.88,0,13.5,4.45-.56,7.91-1.7,11.26,2.26-8.9,11.06-16.24,18.84-27.02,28.15-2.26-5.04-2.66-8.11-1.14-13.51-13.66,9.05-20.5-8.01-4.5-11.27l-5.62-4.49c8.78-4.66,18.35-9.66,27.02-14.64ZM559.06,530.6c3.93-3.9.35-12.71-6.49-9.32-7.15,3.55-.2,15.96,6.49,9.32Z"/>
          <path class="cls-9" d="M649.41,631.08c.48,1.63,5.03,9.57,4.01,11.29-8.59,5.89-54.34,37.6-64.11,41.29,3.11-6.8,1.49-53.62.95-61.04,5.33.1,47.92,8.05,47.91,2.82,4.56.48,5.57,7.03,11.25,5.63Z"/>
          <path class="cls-11" d="M399.44,562.4c1.04,8.44-2.81,12.3-11.26,11.27,10.39,12.53-8.43,20.42-11.27,4.5-11.84,13.87-21.84-3.89-6.74-9.02l-5.63-3.36c1.38-4.46,3.38-8.65,4.5-12.39l6.74,4.5c.31-2.72.52-6.51,3.39-7.88,4.22,2.89,7.98,16.58,13.82,15.63.36-.06,6.17-3.02,6.45-3.25ZM383.51,563.7c-2.74-4.34-13.62,2.12-7.44,8.56,4.45,4.63,10.43-3.82,7.44-8.56Z"/>
          <path class="cls-11" d="M636.63,607.67c-7.12.65-7.34,12.59,2.02,11.02,7.07-1.19,4.02-11.57-2.02-11.02ZM625.67,608.55h1.22c-6.3-5.9-3.55-17.22,5.95-14.4,4.9,1.45,2.67,9.08,7.56,5.4,2.32,9.67,6.11,21.76,9.01,31.53-5.68,1.4-6.69-5.15-11.25-5.63.02,5.24-3.68,9.11-9.02,9.01-16.61-7-17.8-13.92-14.93-19.26,2.24-4.17,6.73-6.64,11.46-6.64Z"/>
          <path class="cls-11" d="M346.52,497.09c-17.41,1.92-1.52,23.22,4.5,6.76,1.45,2.22,3.5,2.07,5.63,6.76,8.02,17.65-12.34,22.15-13.52,5.64-1.25-1.35-18.45,13.25-20.06,14.09-5.51-8.68-19-4.49,4.4-26.11,3.6-3.32,6.63-8.67,8.91-13.88l4.49,2.25c.01-1.85.23-4,2.26-4.5.92,2.53,2.19,6.84,3.38,9.01Z"/>
          <path class="cls-1" d="M642.65,565.78l1.12-6.75c-13.7,4.9-16.66-14.1-1.12-11.28-9-12.1,3.13-21.39,10.69-7.88,5.6-11.58,18.87-6.72,11.83,5.63-1.9,3.34-4.84,3.67-5.63,4.5-7.62-9.35-18.34,1.67-7.88,7.88-3.03,2.7-5.88,5.26-9.01,7.88Z"/>
          <path class="cls-9" d="M576.22,520.74c-3.34-3.96-6.81-2.82-11.26-2.26,1.41-4.62,1.69-8.89,0-13.5,12.12-6.95,23.27-16.31,36.01-21.97-6.4,13.83-15.26,25.94-24.75,37.73Z"/>
          <path class="cls-11" d="M508.66,559.02c.08.57,1.03,1.3.86,2.61-.49,3.63-6.33,7.82-9.86,8.66,6.39,5.1,6.39,16.29-3.7,13.27-2.87-.86-4.52-7.22-6.42-5.41-.24.23.03,4.1-2.3,6.16-7.36,6.53-13.47-5.17-7.85-11.79,1.71-.65,3.45-.72,4.5-1.13,6.03,3.24,9.82,3.29,10.13-4.5,5.46-2.21,11.45-2.59,14.64-7.88Z"/>
          <path class="cls-1" d="M391.56,530.87c1.08.41,2.26.73,3.38,1.13,2.16,7.3,5.55,3.54,9.01,3.38,1.11-.05,2.26-.04,3.38,0-.88,1.8,1.02,3.76,1.13,4.5.33,2.44-.23,5.35,0,7.88-1.58.9-5.43,3.43-6.76,4.5-3.83-2.13-6.04-5.69-5.64-10.13-4.5.65-8.77,5.32-13.51,2.25-.38-.75-.76-1.5-1.13-2.25-.42-4.02.57-8.29,4.5-10.13,1.55-.73,3.89-.88,5.63-1.13Z"/>
          <path class="cls-1" d="M498.53,561.27c-5.48,2.17-12.73,3.56-18.02,5.63-.34-.41-.78-.73-1.13-1.13-1.56-1.79-3.82-2.31-3.38-4.5,2.89-2.71,4.9-5.44,9.01-9.01l3.37,5.62c1.74-14.27,18.81-10.24,10.15,3.38Z"/>
          <path class="cls-9" d="M420.84,538.75c.54.23,2.16,4.49,2.25,5.63,1.51.52,1.92.25,3.39,1.64,3.25,3.07,9.5,14.21,12.37,18.63-3.1,3.47-5.71-1.37-8.37-2.33-3.29-1.19-7.26-2.05-10.78-2.17-1.08-4.27,3.83-10.14,3.38-15.76-5.57-1.93-9.83.64-14.64,3.38-.23-2.53.33-5.44,0-7.88,1.33-1.57,11.13-1.66,12.39-1.13Z"/>
          <path class="cls-9" d="M382.55,544.38c4.74,3.07,9.01-1.6,13.51-2.25-.4,4.44,1.8,8,5.64,10.13-1.73,1.4-7.29,9.56-9.53,9.01-4.51-4.88-6.69-11.19-9.61-16.89Z"/>
          <path class="cls-9" d="M485.02,552.26c1.64-1.43,15.62-15.03,16.88-13.51-1.46,4.71,4.36,18.14,1.12,20.84-.7.58-3.25,1.18-4.49,1.67,8.66-13.63-8.4-17.66-10.15-3.38l-3.37-5.62Z"/>
          <path class="cls-2" d="M346.52,497.09c.74,1.35,3.34,4.98,4.5,6.76-6.02,16.47-21.91-4.84-4.5-6.76Z"/>
          <path class="cls-2" d="M659.54,550.01c-3.07,3.22-4.08,4.5-7.88,7.88-10.46-6.21.26-17.23,7.88-7.88Z"/>
          <path class="cls-18" d="M438.85,564.65c.56.86,8.88,10.41,3.96,8.99-2.76-.8-5.69-4.08-8.19-5.32-3.5-1.75-11.79-4.2-14.2-5.84-1.19-.82-.52-1.58-.72-2.33,3.52.13,7.49.98,10.78,2.17,2.66.97,5.27,5.8,8.37,2.33Z"/>
          <path class="cls-9" d="M378.05,525.24c1.75,2.98,5.72,4.28,9.01,4.52l-1.13,2.24c-3.93,1.84-4.93,6.11-4.5,10.13-2.73-5.63-6.21-11.19-7.87-17.47,1-1.63,3.33.24,4.49.58Z"/>
          <path class="cls-7" d="M476.01,561.27c-.44,2.2,1.81,2.71,3.38,4.5-3.9-.63-7.31,1.67-7.88,5.63-3.23,1.43-6.42,3.77-10.11,3.95,3.05-4.75,7.26-8.54,11.21-12.48,1.23-1.22,3.13-1.36,3.4-1.61Z"/>
          <path class="cls-9" d="M336.39,490.34c.59-1.34,1.91-7.56,2.33-7.83,3.54-2.3,3.44,2.87,4.43,5.58-2.04.51-2.25,2.65-2.26,4.5l-4.49-2.25Z"/>
          <path class="cls-2" d="M494.02,566.9c-.32,7.8-4.1,7.75-10.13,4.5,3.03-1.18,6.71-3.12,10.13-4.5Z"/>
          <path class="cls-14" d="M420.84,538.75c-1.25-.54-11.06-.45-12.39,1.13-.1-.74-2.01-2.7-1.13-4.5,3.93.13,9.73,1.99,13.51,3.38Z"/>
          <path class="cls-18" d="M479.39,565.78c.35.4.79.72,1.13,1.13-2.45.96-6.22,3.26-9.01,4.5.58-3.96,3.98-6.26,7.88-5.63Z"/>
          <path class="cls-14" d="M391.56,530.87c-1.74.24-4.08.4-5.63,1.13l1.13-2.24c-3.29-.23-7.26-1.54-9.01-4.52,4.81,1.42,8.95,3.89,13.51,5.63Z"/>
          <path class="cls-13" d="M403.95,535.38c-3.46.16-6.85,3.92-9.01-3.38,3.25,1.16,6.94.84,9.01,3.38Z"/>
          <path class="cls-2" d="M571.4,569.35c9.19-2.65,12.88,10.79,5.14,13.08-11.61,3.43-12.67-10.91-5.14-13.08Z"/>
          <path class="cls-2" d="M609.17,511.42c-5.84-4.75.01-15.25,7.58-11.53,7.72,3.79.17,17.83-7.58,11.53Z"/>
          <path class="cls-9" d="M600.99,492.59c.33-.62.09-2.67.87-4.14,5.49-10.35,10.3-24.81,21.64-29.63-.54,5.87.99,11.54,2.57,17.13,1.16,4.1,4.65,14.24,6.44,17.77-3.76-.08-7.78-.58-10.71,2.23,7.92-21.66-20.2-21.68-14.07.02l-6.75-3.37Z"/>
          <path class="cls-2" d="M559.06,530.6c-6.69,6.64-13.64-5.77-6.49-9.32,6.84-3.4,10.42,5.42,6.49,9.32Z"/>
          <path class="cls-2" d="M383.51,563.7c3,4.73-2.99,13.18-7.44,8.56-6.18-6.43,4.69-12.9,7.44-8.56Z"/>
          <path class="cls-2" d="M636.63,607.67c6.05-.55,9.09,9.83,2.02,11.02-9.36,1.57-9.14-10.37-2.02-11.02Z"/>
        </g>
        <path class="cls-4" d="M646.5,323.23c16.44,19.73,5.37,31.65-12.29,44.36-9.1-20.8-12.18-32.07-32.46-44.08-53.5-31.7-155.92-31.59-212.07-6.76-14.95,6.61-24.76,13.38-33.21,27.59-3.41,5.73-6.91,17.28-10.09,21.43-4.02,5.26-8.63.64-12.78-2.68-41.09-33.01,25.69-61.52,51.75-69.81,61.09-19.43,134.94-21.44,196.75-4.16,22.22,6.21,49.38,16.09,64.41,34.12ZM630.26,311.31c-2.52-.88-5.35,2.43-7.15,2.08-1.09-.21-6.81-6.48-9.14-7.75-1.61-.87-5.52-2.72-5.09.58,2.81,3.04,6.39,5.54,7.87,9.57-6.34,1.39-4.98-1.45-7.8-3.98-1.73-1.56-7.18-4.69-7.96-1.05-.55,2.6,5.28,5.16,6.45,6.56.57.67.09,2.53.4,2.83,2.08,1.98,11.09-2.53,13.75-1.91,3.65.86,6.9,10.33,11.47,11.09,2.92-4.61-6.87-9.89-7.3-11.85-.74-3.34,6.46-1.39,4.49-6.17ZM354.4,319.2c-4.43-.27-5.95,9.24-8.61,10.02-2.28.67-8.06-3.3-9.39-2.14-2.48,2.16,6.73,4.52,7.4,5.61,1.04,1.69-3.5,11.46-.08,11.25,3.28-.2,2.44-9.73,2.81-10.12,1.52-1.58,12.25,3.53,13.51,2.25,2.01-5.83-7.85-2.75-8.95-6.3l3.32-10.57Z"/>
        <path class="cls-4" d="M572.84,269.64c-13.28-4.05-26.54-8.54-40.3-10.92-44.13-7.66-71.6-2.33-113.92,7.03-.99.22-2.97,1.35-3.41-.03,8.22-13.23,14.69-25.65,29.63-32.3,28.11-12.5,91.4-13.83,113.32,10.93,2.15,2.42,16.04,23.99,14.67,25.29ZM442.22,241.51c-3.83-3.55-8.35,11.81-13.5,10.14-.71,3.39,4.25,2.01,3.39,6.74,2.57-.58,3.15-4.72,5.24-5.45,4.59-1.61,7.54,2.33,8.79,2.08,2.25-.44,1.41-5.37,1.95-7.09.43-1.36,4.83-4.78,3.14-6.42-3.43-3.33-5.84,7.7-10.68,7.89-5.05.2,3.38-6.31,1.68-7.89ZM545.81,249.38c-5.08,1-6.36-6.95-8.47-7.85-4.38-1.87-2.76,3.49-.54,5.59-14.68,3.35.76,3.93,2.34,5.01,1.29.88.81,3.74,1.05,4.02,1.43,1.65,2.69-2.47,4.4-2.92,5.97-1.57,3.24,3.2,6.31,6.29,4.88-.08.89-5.98,1.67-6.75.6-.59,4.54,1.39,3.38-2.25-6.94,1.14-6.51-5.6-10.72-9-4.11-1.7,1.42,7.02.57,7.87Z"/>
        <path class="cls-2" d="M581.85,343.95c-31.18-.23-65.97-1.22-94.63,12.91-2.33,1.15-12.1,8.63-13.46,7.36,14.37-50.55,76.6-61.57,108.09-20.27Z"/>
        <path class="cls-9" d="M579.59,283.15c-46.75-12.11-97.86-13.22-145.64-6.59-8.08,1.12-16.47,2.81-24.35,4.95-2.97.81.04-5.92.84-7.07.73-1.06.91-1.59,2.17-2.33,4.77-2.83,21.02-6.45,27.16-7.75,39.27-8.3,86.32-6.67,124.3,6.74,6.13,2.16,15.63,4.51,15.53,12.05Z"/>
        <path class="cls-18" d="M449.82,434.31c13.85-2.26,21.49,9.29,32.88,11.61,3.93.8,8.82-.23,11.71.68,6.38,2.01-3.66,8.62-5.67,9.74-18.57,10.34-34.75-2.66-50.48,3.57-4.42,1.75-6.11,5.38-11.57,3.82-2.95-.84-6.94-3.67-5.33-7.14.64-1.39,20.54-18.95,22.74-20.11,1.68-.89,3.86-1.86,5.72-2.16Z"/>
        <path class="cls-2" d="M429.84,365.35c-14.45-3.76-29.5-5.41-44.46-4.49-7.05.43-14.57,2.43-21.47,3.32-1.54.2-2.11.13-1.6-1.61.68-2.32,5.45-8.72,7.29-10.73,20.19-22.13,51.21-14.08,60.24,13.52Z"/>
        <path class="cls-9" d="M486.14,470.08c-3.17,10.92-17.35,35.37-30.71,32.42-9.14-2.02-3.79-12.98-.62-18.15,6.17-10.04,19.65-17.14,31.32-14.26Z"/>
        <path class="cls-18" d="M429.86,466.69c8.25,4.48,9.23,17.33,13.29,25.54,1.9,3.84,6.67,11.37,10.63,13.01,13.38,5.53,28.94-18.9,33.25-29.23,3.2-7.7,3.26-18.53,10.37-22.83-1.89,16.52-8.95,36.53-20.23,49.01-27.08,29.96-39.06-16.15-47.31-35.5Z"/>
        <g>
          <path class="cls-2" d="M747.36,374.36c-8.86-5.82-19.02-8.68-29.71-7.95-.44.12-2.95,7.72-2.92,8.59.03.99,9.6,10.23,11.22,12.33,9.29,12.05,12.99,25.94,13.53,41.07-11.62,12.99-26.71,17.83-43.91,14.64,2.27-8.31,4.39-16.91,5.49-25.48,1.14-8.94,2.11-20.12,2.44-29.08.34-9.35,1.53-9.42-5.97-14.15-.73-.46-.84-1.97-1.01-2.04-1.37-.6-7.22,2.88-8.73,3.86-10.13,6.51-28.41,27.19-27.12,39.87-11.02-18.1-6.21-39.41,7.88-54.05,4.11-.32,7.59-1.31,11.85-1.18,3.94.12,12.59,3.17,14.6,3,1.65-.14,6.2-4.83,9.44-4.19,1.05-4.72-.94-8.98-2.12-13.39,19.33-.6,36.72,11.33,45.04,28.15Z"/>
          <path class="cls-7" d="M660.67,416.02c-1.29-12.68,16.99-33.37,27.12-39.87,1.52-.97,7.36-4.46,8.73-3.86.16.07.27,1.58,1.01,2.04,7.5,4.74,6.32,4.8,5.97,14.15-.33,8.96-1.3,20.15-2.44,29.08-1.09,8.57-3.22,17.17-5.49,25.48-11.42-2.12-33.61-14.35-34.9-27.02Z"/>
          <path class="cls-7" d="M747.36,374.36c9.56,19.33,6.24,38.26-7.88,54.05-.54-15.14-4.24-29.03-13.53-41.07-1.62-2.1-11.19-11.35-11.22-12.33-.03-.87,2.49-8.47,2.92-8.59,10.69-.73,20.86,2.13,29.71,7.95Z"/>
          <path class="cls-8" d="M702.33,346.21c1.17,4.41,3.16,8.66,2.12,13.39-3.24-.64-7.78,4.05-9.44,4.19-2.01.17-10.67-2.87-14.6-3-4.26-.13-7.75.86-11.85,1.18,9.24-9.59,19.98-15.34,33.78-15.76Z"/>
        </g>
        <path class="cls-18" d="M630.26,311.31c1.97,4.78-5.23,2.83-4.49,6.17.43,1.96,10.22,7.24,7.3,11.85-4.57-.76-7.82-10.23-11.47-11.09-2.66-.63-11.67,3.88-13.75,1.91-.31-.3.16-2.16-.4-2.83-1.17-1.39-7-3.95-6.45-6.56.77-3.64,6.22-.5,7.96,1.05,2.82,2.53,1.46,5.38,7.8,3.98-1.48-4.03-5.06-6.54-7.87-9.57-.44-3.3,3.48-1.44,5.09-.58,2.33,1.26,8.05,7.54,9.14,7.75,1.8.34,4.63-2.96,7.15-2.08Z"/>
        <path class="cls-18" d="M354.4,319.2l-3.32,10.57c1.1,3.55,10.96.48,8.95,6.3-1.25,1.28-11.98-3.83-13.51-2.25-.38.39.47,9.92-2.81,10.12-3.41.21,1.12-9.56.08-11.25-.67-1.09-9.88-3.45-7.4-5.61,1.33-1.16,7.12,2.81,9.39,2.14,2.66-.78,4.18-10.29,8.61-10.02Z"/>
        <path class="cls-18" d="M545.81,249.38c.85-.85-4.69-9.56-.57-7.87,4.21,3.4,3.78,10.14,10.72,9,1.16,3.64-2.78,1.66-3.38,2.25-.78.77,3.21,6.67-1.67,6.75-3.06-3.08-.33-7.85-6.31-6.29-1.7.45-2.96,4.57-4.4,2.92-.24-.28.24-3.14-1.05-4.02-1.59-1.08-17.03-1.66-2.34-5.01-2.22-2.1-3.84-7.46.54-5.59,2.1.9,3.38,8.85,8.47,7.85Z"/>
        <path class="cls-18" d="M442.22,241.51c1.71,1.59-6.72,8.09-1.68,7.89,4.84-.19,7.25-11.22,10.68-7.89,1.7,1.64-2.7,5.06-3.14,6.42-.55,1.72.3,6.65-1.95,7.09-1.25.24-4.2-3.7-8.79-2.08-2.09.74-2.67,4.87-5.24,5.45.87-4.73-4.1-3.35-3.39-6.74,5.15,1.67,9.68-13.7,13.5-10.14Z"/>
        <g>
          <path class="cls-11" d="M605.25,350.95c6.64,12.6-3.93,15.99-7.07,23.41-6.72,15.88.52,37.25-13.14,54.42-15.17,19.05-66.72,23.29-86.43,10.25-16.3-10.78-19.64-29.48-27.09-46.1-5.68-6.82-20.8-6.2-25.53,1.51-4.26,6.94-3.68,22.56-7.71,30.57-8.44,34.81-74.96,46.68-93.34,17.94-8.69-13.59-7.38-28.87-13.29-40.75-2.48-4.98-8.91-5.94-9.81-11.58-.3-1.88-.59-9.92.6-10.75,2.87-2.03,20.68-7.12,25.22-8.33,23.37-6.25,60.71-10.7,83.32-1.1,3.06,1.3,10.57,7.19,11.79,7.26,1.99.1,9.08-2.83,12.58-3.19,4.88-.5,12.52.82,16.52-.37,1.63-.48,12.72-11.61,19.18-14.6,33.37-15.44,78.61-13.44,114.23-8.58ZM536.58,355.56c-13.05,1.03-49.39,7.21-53.29,22.15-4.74,18.15,6.93,50.62,25.39,58,16.86,6.74,52.1,4.02,65.84-8.43,12.78-11.58,16.96-52.13,6.22-64.75-7.99-9.39-32.7-7.87-44.15-6.97ZM386.83,371.32c-13.08.79-44.44,4.09-46.99,20.57-2.06,13.38,5.08,44.8,16.26,53.41,14.3,11,47.32,7.81,61.26-2.91,14.18-10.91,19.56-35.56,16.72-52.56-3.25-19.42-32-19.44-47.25-18.51Z"/>
          <path class="cls-11" d="M604.37,374.34c1.28-4.49,6.16-6.42,6.18-12.36,11.3,12.38,33.02,23.45,35.21,41.4.38,3.11-.24,8.2-4.31,5.39-1.37-.94-1.57-6.01-3.85-8.53-6.78-7.49-21.89-16.72-30.45-24.78-.72-.68-1.8-1.03-2.78-1.11Z"/>
          <path class="cls-15" d="M536.58,355.56c11.46-.9,36.16-2.42,44.15,6.97,10.75,12.62,6.56,53.18-6.22,64.75-13.75,12.45-48.98,15.17-65.84,8.43-18.45-7.38-30.13-39.86-25.39-58,3.9-14.94,40.24-21.12,53.29-22.15ZM551.44,357.48c-4.31.06-16.44-.35-19.02,2.92l-31.14,62.36c-3.66,5.6,11.42,13.81,13.55,11.33l36.62-76.61ZM577.31,362.03c-3.66-.65-8.51-4.17-11.8-1.19l-36.57,76.57,14.09-2.22,33.44-69.02.84-4.13Z"/>
          <path class="cls-15" d="M386.83,371.32c15.26-.92,44.01-.9,47.25,18.51,2.84,16.99-2.53,41.65-16.72,52.56-13.94,10.72-46.97,13.91-61.26,2.91-11.18-8.6-18.32-40.03-16.26-53.41,2.54-16.48,33.9-19.78,46.99-20.57ZM405.07,374.36h-16.33c-3.69,0-27.9,59.01-33.04,66.08-.32,3.35,9.67,7.24,12.66,8.15l36.71-74.23ZM395.77,448.38l24.1-51.9c4-8.6,13.82-18.21-3.44-18.63l-33.84,70.31c-.35,2.27.09,1.43,1.63,1.64,2.38.33,9.83-.02,11.55-1.42Z"/>
          <path class="cls-17" d="M551.44,357.48l-36.62,76.61c-2.13,2.48-17.21-5.73-13.55-11.33l31.14-62.36c2.59-3.27,14.72-2.86,19.02-2.92Z"/>
          <path class="cls-17" d="M577.31,362.03l-.84,4.13-33.44,69.02-14.09,2.22,36.57-76.57c3.29-2.98,8.14.54,11.8,1.19Z"/>
          <path class="cls-17" d="M405.07,374.36l-36.71,74.23c-3-.91-12.99-4.8-12.66-8.15,5.14-7.07,29.35-66.08,33.04-66.08h16.33Z"/>
          <path class="cls-17" d="M395.77,448.38c-1.72,1.4-9.17,1.75-11.55,1.42-1.53-.21-1.98.63-1.63-1.64l33.84-70.31c17.25.42,7.43,10.02,3.44,18.63l-24.1,51.9Z"/>
        </g>
      </g>
      <g>
        <path class="cls-12" d="M899.57,734.47c0,39.87-26.75,64.63-69.79,64.63-25.14,0-43.74-3.67-56.86-11.21-5.73-3.3-10.45-7.31-14.1-11.98-10.45,18.76-26.44,23.19-39.17,23.19-7.65,0-18.24-2.47-26.51-9.01-7.94,5.91-17.64,9.01-28.71,9.01-24.75,0-43.48-8.79-55.69-26.14-.64-.92-1.27-1.85-1.87-2.81-10.84,24.88-30,28.95-41.34,28.95-9.92,0-25.79-3.1-37-20.38-8.24,12.9-22.02,20.38-39.45,20.38-18.98,0-34.48-8.7-44.5-20.25-12.22,17.42-28.48,20.25-37.72,20.25-20.62,0-35.67-9.25-44.86-27.52-10.95,23.61-29.58,27.52-40.7,27.52s-30.12-3.97-41.22-28.07c-9.23,18.64-24.41,28.07-45.24,28.07-19.09,0-29.96-7.78-36.35-16.65-10.22,10.9-24.18,16.65-40.41,16.65-24.29,0-40.85-12.83-49.22-38.13-6-18.15-8.44-43.58-8.44-87.78,0-31.56,2.92-54.19,9.21-71.2,11.52-31.18,32.7-37.73,48.45-37.73,17.29,0,30.18,6.06,38.96,18.43.66-.78,1.34-1.54,2.03-2.28,9.86-10.57,22.23-16.15,35.77-16.15,12.71,0,28.95,4.22,40.84,22.03,6.78-12.22,20.96-22.03,45.62-22.03s38.82,9.96,45.5,22.32c12.49-18.06,29.67-22.32,43.09-22.32,15.8,0,29.46,6.62,37.73,17.09,10.74-11.19,23.88-17.09,38.12-17.09,18.15,0,28.97,7.06,34.85,12.98,1.1,1.1,2.13,2.27,3.09,3.48,7.74-9.5,21.07-16.46,41.85-16.46,37.17,0,50.37,22.56,50.37,41.88,0,13.19-5.83,24.54-16.42,31.97-.17.12-.34.24-.51.34,3.91,4.08,7.16,9.04,9.67,14.84,12.87-19.31,32.26-28.35,51.55-28.35,2.92,0,6.05.27,9.19.78.91-21.68,6.01-37.45,15.37-47.81,8.07-8.93,19.09-13.65,31.87-13.65s35.19,4.94,46.79,37.99c3.61,10.29,6.06,22.63,7.42,37.75,12.98-10,31.46-15.06,55.01-15.06,61.06,0,67.66,32.25,67.66,46.12,0,11.14-2.82,18.78-6.23,23.95,8.17,10.37,12.3,23.59,12.3,39.46Z"/>
        <path class="cls-6" d="M281.13,643.75c-.52-7.59-1.34-14.95-2.53-21.93-1.68-9.87-4.09-18.97-7.43-26.89-7.86-18.6-20.88-30.67-41.74-30.67-16.08,0-29.13,9.71-37.93,24.27-7.28-15.17-19.72-24.27-38.83-24.27-42.48,0-52.19,50.36-52.19,103.46,0,76.45,8.2,120.44,52.19,120.44,16.68,0,30.94-7.28,40.65-22.75,5.16,11.53,14.57,22.75,36.11,22.75,24.8,0,38.32-13.99,45.4-39.89,5.47-20.04,7.08-47.21,7.08-80.55,0-8.12-.23-16.17-.78-23.97ZM229.43,776.63c-20.63,0-25.49-11.52-28.83-25.18,5.77-15.47,7.89-29.73,5.16-55.82-.3-2.73-2.73-5.16-5.76-5.16-3.34,0-6.07,3.03-5.77,6.07,5.46,57.34-13.35,80.09-41.56,80.09-33.98,0-40.66-34.28-40.66-108.91,0-51.58,8.2-91.93,40.66-91.93,17.9,0,26.7,8.49,31.85,26.09-6.67,16.69-9.4,33.07-7.58,51.88.3,3.03,2.73,5.46,5.76,5.46,3.34,0,6.07-3.03,5.77-6.37-2.73-39.44,12.74-77.06,40.96-77.06,32.76,0,40.95,40.35,40.95,91.93,0,74.63-6.97,108.91-40.95,108.91Z"/>
        <path class="cls-6" d="M339.56,631.61c5.08-2.29,9.48-5.36,12.94-9.14,5.22-5.71,8.29-13.04,8.29-21.8,0-1.96-.16-3.89-.48-5.76-2.95-17.52-19.47-30.65-44.42-30.65s-41.77,13.13-44.72,30.66h0c-.32,1.88-.48,3.79-.48,5.75,0,8.43,2.95,15.54,7.91,21.15,3.59,4.08,8.26,7.36,13.63,9.79-4.56,3.22-8.2,7.37-11.1,12.14-8.85,14.57-10.75,34.88-10.75,51.57,0,14.88.19,35.14,4.45,52.95,5.2,21.79,16.52,39.89,41.06,39.89s35.38-17.69,40.52-39.24c4.26-17.85,4.38-38.34,4.38-53.6,0-16.9-1.77-37.7-10.71-52.27-2.76-4.51-6.22-8.43-10.52-11.44ZM282.2,600.67c0-14.57,11.23-24.88,33.68-24.88s33.37,10.31,33.37,24.88c0,15.77-13.35,24.27-33.37,24.27s-33.68-8.5-33.68-24.27ZM315.88,776.63c-33.07,0-33.98-48.54-33.98-81.31,0-28.21,4.86-58.85,33.98-58.85s33.37,30.64,33.37,58.85c0,33.38-.6,81.31-33.37,81.31Z"/>
        <path class="cls-6" d="M514.61,695.12c-3.44-6.25-7.89-12.86-13.65-19.82,11.44-16.65,19-35.95,21.36-54.06.52-4,.79-7.93.79-11.77,0-9.23-1.75-17.05-4.87-23.46-7.04-14.47-21.09-21.75-37.91-21.75s-29.43,8.8-38.84,21.84c-6.37-13.65-22.45-21.84-37.01-21.84-22.29,0-35.99,12.08-44.17,30.65-3.57,8.1-6.09,17.45-7.81,27.56-1.12,6.57-1.9,13.48-2.42,20.58-.58,8.03-.82,16.32-.82,24.67,0,33.7,1.59,61.11,7.15,81.2,7.04,25.49,20.44,39.24,45.04,39.24,16.68,0,29.12-9.4,37.01-26.09,7.89,13.05,23.97,26.09,45.21,26.09,17.88,0,32.82-10.4,39.19-27.66,2.05-5.58,3.21-11.87,3.28-18.76,0-11.88-1.03-27.55-11.53-46.62ZM483.67,776.63c-21.85,0-36.41-16.08-39.44-28.82,3.64-12.74,5.46-28.21,5.46-42.78,0-3.33-2.43-5.76-5.77-5.76-3.03,0-5.76,2.43-5.76,5.76,0,45.21-13.05,71.6-36.71,71.6-33.98,0-40.66-34.28-40.66-108.91,0-51.58,8.19-91.93,43.69-91.93,14.56,0,28.52,8.49,29.13,23.36-8.8,18.51-12.44,41.26-10.93,57.04.31,3.03,2.73,5.46,5.77,5.46,3.34,0,6.07-2.73,5.76-6.07-3.33-34.89,14.26-79.79,46.12-79.79,19.11,0,31.25,10.01,31.25,33.68,0,26.09-13.05,56.43-34.89,76.45-2.13,1.82-2.43,4.85-.91,7.28,2.12,3.04,6.37,3.34,9.1.61,3.03-2.73,6.07-5.77,8.8-9.1,19.42,23.96,20.93,42.17,20.93,57.03-.3,22.76-12.44,34.89-30.94,34.89Z"/>
        <path class="cls-6" d="M601.85,662.49c-2.9-12.57-8.3-24.04-18.07-30.88,12.75-5.76,21.24-16.38,21.24-30.94,0-20.33-17.29-36.41-44.9-36.41-20.72,0-35.6,8.86-41.88,21.75-2.18,4.47-3.33,9.42-3.33,14.66,0,8.14,2.75,15.05,7.41,20.57,3.67,4.35,8.52,7.83,14.14,10.37-18.45,13.01-21.83,41.4-21.85,63.51v.2c0,18.42.28,45.13,8.25,65.18h0c6.33,15.94,17.51,27.66,37.26,27.66,23.98,0,35.15-17.34,40.36-38.59,4.41-18,4.54-38.8,4.54-54.25,0-10.26-.65-21.95-3.17-32.82h0ZM526.44,600.67c0-14.57,11.23-24.88,33.68-24.88s33.37,10.31,33.37,24.88c0,15.77-13.35,24.27-33.37,24.27s-33.68-8.5-33.68-24.27ZM560.12,776.63c-33.07,0-33.98-48.54-33.98-81.31,0-28.21,4.85-58.85,33.98-58.85s33.37,30.64,33.37,58.85c0,33.38-.6,81.31-33.37,81.31Z"/>
        <path class="cls-6" d="M676.62,680.16c-.91-1.52-3.03-2.73-5.16-2.73-4.55,0-6.98,4.85-4.85,8.49,4.55,8.49,4.85,25.48,0,36.71-1.82,3.64.91,8.19,5.16,8.19,2.42,0,4.55-1.52,5.15-3.64,6.38-13.95,6.07-35.5-.3-47.02ZM676.62,680.16c-.91-1.52-3.03-2.73-5.16-2.73-4.55,0-6.98,4.85-4.85,8.49,4.55,8.49,4.85,25.48,0,36.71-1.82,3.64.91,8.19,5.16,8.19,2.42,0,4.55-1.52,5.15-3.64,6.38-13.95,6.07-35.5-.3-47.02ZM760.75,647.35c-2.44-44.92-14.15-83.09-49.54-83.09-28.52,0-40.96,24.88-41.57,63.1-5.46-1.82-10.92-2.42-14.86-2.42-20.37,0-41.58,12.09-52.93,37.55h0c-5.23,11.72-8.36,26.26-8.36,43.76,0,16.19,2.19,30.93,6.99,43.32,9.13,23.59,27.71,38.59,58.54,38.59,10.32,0,20.33-3.34,28.83-11.22,6.97,7.58,18.81,11.22,26.39,11.22,20.05,0,31.74-10.61,38.44-30.37,3.85-11.31,6.06-25.6,7.27-42.62.02-.3.04-.6.06-.9.95-13.8,1.26-29.36,1.26-46.55,0-6.87-.16-13.7-.52-20.37ZM714.24,776.63c-6.07,0-14.56-2.73-18.81-8.19,2.43-3.64,4.25-7.58,6.07-13.04.91-2.43-.3-5.46-3.03-6.68-3.04-1.52-6.68.31-8.2,3.34-6.37,18.51-17.9,24.57-31.25,24.57-39.44,0-54-27-54-70.38,0-49.15,24.88-69.78,49.76-69.78,4.24,0,10.01.91,14.86,2.73.31,4.55.61,8.8,1.22,13.35.3,2.73,2.73,4.85,6.37,4.55,3.03-.61,5.16-3.34,4.85-6.68-4.85-47.93,3.95-74.63,29.13-74.63,30.64,0,38.53,40.35,38.53,91.93,0,74.63-5.16,108.91-35.5,108.91ZM671.45,677.43c-4.55,0-6.98,4.85-4.85,8.49,4.55,8.49,4.85,25.48,0,36.71-1.82,3.64.91,8.19,5.16,8.19,2.42,0,4.55-1.52,5.15-3.64,6.38-13.95,6.07-35.5-.3-47.02-.91-1.52-3.03-2.73-5.16-2.73Z"/>
        <path class="cls-6" d="M874.43,690.17c4.25-4.86,8.19-12.74,8.19-24.58,0-27.91-27.61-40.65-62.19-40.65-29.73,0-48.91,8.98-59.68,22.41-7.59,9.46-11.01,21.13-11.01,33.41,0,13.12,3.52,24.49,10.27,33.51.11.16.23.31.35.47-.14.14-.28.29-.41.43-5.87,6.05-10.21,14.74-10.21,27.18,0,5.59.98,10.76,2.94,15.44h0c7.97,19.2,32.19,30.37,71.69,30.37,42.78,0,64.32-26.39,64.32-59.16,0-15.77-4.85-28.82-14.26-38.83ZM824.37,776.63c-44.9,0-63.1-12.43-63.1-34.28,0-9.4,2.73-15.17,6.97-19.42,11.84,10.32,29.74,15.78,52.19,15.78,3.33,0,5.76-2.73,5.76-5.76,0-3.34-2.43-5.77-5.76-5.77-39.44,0-59.16-16.69-59.16-46.42,0-25.18,15.16-44.29,59.16-44.29,30.94,0,50.66,9.1,50.66,29.12,0,9.41-2.73,14.57-5.46,16.99-12.74-8.49-30.94-13.35-54.91-13.35-3.04,0-5.77,2.43-5.77,5.77,0,3.03,2.73,5.76,5.77,5.76,47.02,0,66.44,17.3,66.44,48.24,0,27.91-16.38,47.63-52.79,47.63Z"/>
        <g>
          <path class="cls-16" d="M270.38,667.72c0,74.63-6.97,108.91-40.95,108.91-20.63,0-25.49-11.52-28.83-25.18,5.77-15.47,7.89-29.73,5.16-55.82-.3-2.73-2.73-5.16-5.76-5.16-3.34,0-6.07,3.03-5.77,6.07,5.46,57.34-13.35,80.09-41.56,80.09-33.98,0-40.66-34.28-40.66-108.91,0-51.58,8.2-91.93,40.66-91.93,17.9,0,26.7,8.49,31.85,26.09-6.67,16.69-9.4,33.07-7.58,51.88.3,3.03,2.73,5.46,5.76,5.46,3.34,0,6.07-3.03,5.77-6.37-2.73-39.44,12.74-77.06,40.96-77.06,32.76,0,40.95,40.35,40.95,91.93Z"/>
          <path class="cls-16" d="M349.25,600.67c0,15.77-13.35,24.27-33.37,24.27s-33.68-8.5-33.68-24.27c0-14.57,11.23-24.88,33.68-24.88s33.37,10.31,33.37,24.88Z"/>
          <path class="cls-16" d="M349.25,695.32c0,33.38-.6,81.31-33.37,81.31s-33.98-48.54-33.98-81.31c0-28.21,4.86-58.85,33.98-58.85s33.37,30.64,33.37,58.85Z"/>
          <path class="cls-16" d="M514.61,741.74c-.3,22.76-12.44,34.89-30.94,34.89-21.85,0-36.41-16.08-39.44-28.82,3.64-12.74,5.46-28.21,5.46-42.78,0-3.33-2.43-5.76-5.77-5.76-3.03,0-5.76,2.43-5.76,5.76,0,45.21-13.05,71.6-36.71,71.6-33.98,0-40.66-34.28-40.66-108.91,0-51.58,8.19-91.93,43.69-91.93,14.56,0,28.52,8.49,29.13,23.36-8.8,18.51-12.44,41.26-10.93,57.04.31,3.03,2.73,5.46,5.77,5.46,3.34,0,6.07-2.73,5.76-6.07-3.33-34.89,14.26-79.79,46.12-79.79,19.11,0,31.25,10.01,31.25,33.68,0,26.09-13.05,56.43-34.89,76.45-2.13,1.82-2.43,4.85-.91,7.28,2.12,3.04,6.37,3.34,9.1.61,3.03-2.73,6.07-5.77,8.8-9.1,19.42,23.96,20.93,42.17,20.93,57.03Z"/>
          <path class="cls-16" d="M593.49,600.67c0,15.77-13.35,24.27-33.37,24.27s-33.68-8.5-33.68-24.27c0-14.57,11.23-24.88,33.68-24.88s33.37,10.31,33.37,24.88Z"/>
          <path class="cls-16" d="M593.49,695.32c0,33.38-.6,81.31-33.37,81.31s-33.98-48.54-33.98-81.31c0-28.21,4.85-58.85,33.98-58.85s33.37,30.64,33.37,58.85Z"/>
          <path class="cls-16" d="M711.2,575.79c-25.18,0-33.98,26.7-29.13,74.63.31,3.34-1.82,6.07-4.85,6.68-3.64.3-6.07-1.82-6.37-4.55-.61-4.55-.91-8.8-1.22-13.35-4.85-1.82-10.62-2.73-14.86-2.73-24.88,0-49.76,20.63-49.76,69.78,0,43.38,14.56,70.38,54,70.38,13.35,0,24.88-6.06,31.25-24.57,1.52-3.03,5.16-4.86,8.2-3.34,2.73,1.22,3.94,4.25,3.03,6.68-1.82,5.46-3.64,9.4-6.07,13.04,4.25,5.46,12.74,8.19,18.81,8.19,30.34,0,35.5-34.28,35.5-108.91,0-51.58-7.89-91.93-38.53-91.93ZM676.92,727.18c-.6,2.12-2.73,3.64-5.15,3.64-4.25,0-6.98-4.55-5.16-8.19,4.85-11.23,4.55-28.22,0-36.71-2.13-3.64.3-8.49,4.85-8.49,2.13,0,4.25,1.21,5.16,2.73,6.37,11.52,6.68,33.07.3,47.02Z"/>
          <path class="cls-16" d="M877.15,729c0,27.91-16.38,47.63-52.79,47.63-44.9,0-63.1-12.43-63.1-34.28,0-9.4,2.73-15.17,6.97-19.42,11.84,10.32,29.74,15.78,52.19,15.78,3.33,0,5.76-2.73,5.76-5.76,0-3.34-2.43-5.77-5.76-5.77-39.44,0-59.16-16.69-59.16-46.42,0-25.18,15.16-44.29,59.16-44.29,30.94,0,50.66,9.1,50.66,29.12,0,9.41-2.73,14.57-5.46,16.99-12.74-8.49-30.94-13.35-54.91-13.35-3.04,0-5.77,2.43-5.77,5.77,0,3.03,2.73,5.76,5.77,5.76,47.02,0,66.44,17.3,66.44,48.24Z"/>
        </g>
        <g>
          <path class="cls-5" d="M203.91,612.85s6.53-28.75,28.82-27.04c22.29,1.71,30.03,70.88,20.25,50.77-13.6-27.98-30.39-30.94-49.07-23.73Z"/>
          <path class="cls-5" d="M122.83,626.81s7.81-39.17,24.41-40.91c15.35-1.62,24.71,8.98,27.85,15.27,3.14,6.29-27.75-29.62-52.26,25.64Z"/>
          <path class="cls-5" d="M452.08,606.27s6.51-21.78,28.82-20.47c34.17,2.01,9.95,72.88,7.77,50.62-4.29-43.85-17.92-37.37-36.6-30.16Z"/>
          <path class="cls-5" d="M371.01,626.81s7.81-39.17,24.41-40.91c15.35-1.62,24.71,8.98,27.85,15.27s-27.75-29.62-52.26,25.64Z"/>
          <path class="cls-5" d="M803.1,650.49c-3.54-.11-5.83-4.13-.58-6.22,4.69-1.87,22.99-5.84,45.9,1.62,18.81,6.13,18,20.26,18,20.26,0,0-3.72-13.82-63.32-15.66Z"/>
          <path class="cls-5" d="M321.1,587.99c3.54.02,4-5.33.58-6.22-4.88-1.26-11.11-1.52-18.4,1.04-18.67,6.55-11.08,23.46-11.08,23.46,0,0,.71-18.46,28.9-18.28Z"/>
          <path class="cls-5" d="M565.88,587.99c3.54.02,4-5.33.58-6.22-4.88-1.26-11.11-1.52-18.4,1.04-18.67,6.55-11.08,23.46-11.08,23.46,0,0,.71-18.46,28.9-18.28Z"/>
          <path class="cls-5" d="M321.92,654.53c3.54.02,4.79-5.94.56-8.25-4.43-2.42-9.14-2.86-14.62-1.08-18.81,6.13-14.84,27.61-14.84,27.61,0,0,.71-18.46,28.9-18.28Z"/>
          <path class="cls-5" d="M692.2,612.59s-3.53-23.59,14.16-27.65c26.01-5.97,39.43,38.4,25.69,26.53-19.78-17.09-35.1-15.97-39.85,1.12Z"/>
          <path class="cls-5" d="M565.13,654.53c3.54.02,4.79-5.94.56-8.25-4.43-2.42-9.14-2.86-14.62-1.08-18.81,6.13-14.84,27.61-14.84,27.61,0,0,.71-18.46,28.9-18.28Z"/>
          <path class="cls-5" d="M822.91,703.38c-3.49.61-4.79-8.65-.56-12.01,4.43-3.52,8.83-3.36,14.62-1.57,37.27,11.52,29.11,44.36,29.11,44.36,0,0-5.65-37.3-43.17-30.78Z"/>
          <path class="cls-5" d="M655.87,658.53c3.54.09,3.47-9.26-1.21-11.97-4.9-2.83-9.47-2.49-14.7.59-32.42,19.1-25.48,47.48-25.48,47.48,0,0,3.31-37.07,41.38-36.11Z"/>
        </g>
      </g>
      <g>
        <path class="cls-2" d="M726.67,580.09l2.86-13.11,2.86,13.11c.3,1.39,1.39,2.48,2.79,2.79l13.11,2.86-13.11,2.86c-1.39.3-2.48,1.39-2.79,2.79l-2.86,13.11-2.86-13.11c-.3-1.39-1.39-2.48-2.79-2.79l-13.11-2.86,13.11-2.86c1.39-.3,2.48-1.39,2.79-2.79Z"/>
        <path class="cls-2" d="M465.26,713.38l2.86-13.11,2.86,13.11c.3,1.39,1.39,2.48,2.79,2.79l13.11,2.86-13.11,2.86c-1.39.3-2.48,1.39-2.79,2.79l-2.86,13.11-2.86-13.11c-.3-1.39-1.39-2.48-2.79-2.79l-13.11-2.86,13.11-2.86c1.39-.3,2.48-1.39,2.79-2.79Z"/>
        <path class="cls-2" d="M580.1,362.5l2.86-13.11,2.86,13.11c.3,1.39,1.39,2.48,2.79,2.79l13.11,2.86-13.11,2.86c-1.39.3-2.48,1.39-2.79,2.79l-2.86,13.11-2.86-13.11c-.3-1.39-1.39-2.48-2.79-2.79l-13.11-2.86,13.11-2.86c1.39-.3,2.48-1.39,2.79-2.79Z"/>
        <path class="cls-2" d="M255.55,622.71l4.53-20.76,4.53,20.76c.48,2.21,2.21,3.94,4.43,4.43l20.76,4.53-20.76,4.53c-2.21.48-3.94,2.21-4.43,4.43l-4.53,20.76-4.53-20.76c-.48-2.21-2.21-3.94-4.43-4.43l-20.76-4.53,20.76-4.53c2.21-.48,3.94-2.21,4.43-4.43Z"/>
      </g>
    </g>
  </g>
</svg>