<?xml version="1.0" encoding="UTF-8"?>
<svg xmlns="http://www.w3.org/2000/svg" viewBox="0 0 1000 1000">
  <defs>
    <style>
      .cls-1 {
        fill: #fdfefe;
      }

      .cls-2, .cls-3 {
        fill: #ed1846;
      }

      .cls-4 {
        fill: #231f20;
      }

      .cls-5 {
        fill: #fee984;
      }

      .cls-3 {
        stroke: #4bb8e9;
        stroke-miterlimit: 10;
        stroke-width: 10px;
      }

      .cls-6 {
        fill: #4bb8e9;
      }

      .cls-7 {
        fill: #f0b952;
      }

      .cls-8 {
        fill: #fdfdfd;
      }

      .cls-9 {
        fill: #e67d79;
      }

      .cls-10 {
        fill: #3f444c;
      }

      .cls-11 {
        fill: #fbf7c3;
      }

      .cls-12 {
        fill: #00abe6;
      }

      .cls-13 {
        fill: #80aada;
      }

      .cls-14 {
        fill: #a1b6c5;
      }

      .cls-15 {
        fill: #fed800;
      }
    </style>
  </defs>
  <g id="BG">
    <rect class="cls-11" x="0" y="0" width="1000" height="1000"/>
  </g>
  <g id="LOGO_VARIATION" data-name="LOGO VARIATION">
    <g>
      <g>
        <path class="cls-12" d="M284.35,507.19l-1.17-3.35c-8.58-24.48-12.93-50.17-12.93-76.36,0-61.67,24.02-119.65,67.62-163.25,43.61-43.6,101.58-67.62,163.25-67.62s119.65,24.01,163.25,67.62,63.43,84.44,65.15,145.63c.74,26.18-21.37,10.62-21.37,10.62l-4.14,86.42-419.66.29Z"/>
        <path class="cls-6" d="M722.5,422.57c0,26.18-4.45,51.32-12.65,74.71h-426.44c-8.2-23.39-12.65-48.53-12.65-74.71,0-124.75,101.13-225.87,225.87-225.87s225.87,101.12,225.87,225.87Z"/>
        <path class="cls-15" d="M698.5,446.57c0,17.51-2.23,34.51-6.43,50.71h-390.88c-4.2-16.2-6.43-33.2-6.43-50.71,0-111.49,90.38-201.87,201.87-201.87s201.87,90.38,201.87,201.87Z"/>
      </g>
      <path class="cls-2" d="M333.45,306.26c6.08-31.2,43.63-27.31,45.15,4.61,1.45,30.45-25.51,54.77-25.51,54.77,0,0-57.72-7.04-58.72-42.87-.67-23.96,22.56-33.43,39.08-16.51Z"/>
      <g>
        <path class="cls-13" d="M714.91,477.09c-2.44,27.83-51.52,76.5-71.77,95.95-4.58,4.4-18.24,14.71-20.36,19.75-.58,1.38-.14,1.86,1.15,2.32-.42-1.85,5.7-5.28,6.24-4.67.84,4.38-.8,9.69-.78,13.63.01,1.85,1.71,4.6,1.54,5.39-.35,1.54-3.2.48-3.08,1.98,1.24.29,5.44.55,6.11,1.64.91,1.47,3.02,54.6,2.15,55.43-4.15-.15-9.87.9-13.7,2.47-3.02,1.23-12.23,7.88-12.98,8.02-.79.16-6.18-2.83-8.05-3.37-21.32-6.16-43.54,8.57-61.48,18.3l1.96,1.23c9.32-4.59,18.21-9.98,27.98-13.7,3.66-1.4,12.95-5.03,16.35-4.69,1.1.11,2.28.55,1.18,1.58-.25.23-5.23.94-6.65,1.53-14.57,6.14-27.23,18.83-40.59,27.13-20.2,12.55-49.23,20.21-73.07,17.32-1.8-.21-4.97-3.02-4.79-4.98.12-1.36,1.41-2.88,1.4-3.98,0-.83-1.96.12-1.61-1.2,18.89,2.24,40.18-.63,57.8-7.98,1.98-.83,4.85-1.79,6.02-3.7-5.61.03-10.83,3.06-16.18,4.44-15.95,4.1-31.82,5.65-48.32,4.79-8.07-29.17-4.88-103.47,1.21-132.82.75-3.6,2.87-7.63,3.29-10.71.63-4.61-.14-10.65,1.01-15.34.62-2.52,4.23-6.19,5.43-9.36.97-2.56.98-5.9,2.16-7.96,7.21-12.62,54.19-24.66,68.65-30.19,37.38-14.31,41.34-28.69,65.28-56.15,11.44-13.12,23.43-17.77,35.7-28.12,1.5-1.26,7.95-6.65,6.29-8.87l-4.66,3.11v-10.89c8.76,1.07,18.16,4.37,20.24,14-12.82,1.77-21.65,15.15-29.56,24.55-5.47,6.49-7.93,9.56-14.04,15.53-17.54,17.18-22.38,41.51-42.08,55.98-14.54,10.69-34.49,15.89-51.94,19.68-6.69,1.45-39.01,5.96-41.39,10.75-1.3,2.62,5.96-.93,6.66-1.13,19.81-5.6,40.03-5.73,60.27-12.11,15.23-4.8,29.66-12.19,40.09-24.51,11.45-13.52,16.17-32.6,29.95-44.37.73,2.44-4.5,9.01-.78,8.56,2.41-4.96,4.86-10.47,7.93-15.04,3.95-5.9,25.58-31.56,31.03-33.56,1.22-.46,3.35-.9,4.47-.25.75.43,7.56,12.31,9.18,14.54,9.36,12.81,21.79,25.53,35.11,34.16,3.78,2.45,4.53.19,4.03,5.89Z"/>
        <path class="cls-13" d="M364.77,544.51c-2.22-.35-1.3.46-1.66,1.8-1.17,4.34-.53,8.58-2.69,12.91-.97,1.94-10.48,14.86-11.94,16.08-.63.52-1.05,1.13-1.99,1.12-1.72-.01-19.3-14.72-21.83-17.11-14.95-14.09-33.76-36.31-44.09-53.98-5.96-10.2-11.69-20.61-7.68-32.85,5.06-15.44,30.05-44.34,45.22-49.73,9.76-3.47,14.8,6.54,21.73,11.65.49,1.44-1.56,1.3-2.74,2.65-20.14,23.14-10.68,62.6,11.31,81.39,25.46,21.75,57.64,14.39,86.8,26.06,1.41-1.52-1.66-2.62-2.97-3.26-17.56-8.53-40.72-6.7-59.68-13.49-35.04-12.54-53.4-50.97-35.17-84.96.5-.93,4.45-8.6,5.58-7.26,1.59,4.77-.83,10.88-.52,15.08.09,1.28,2.83,21.74,6.76,30.44-.59,1.09-1.47-1.06-1.7-1.42-1.15-1.79-2.93-7.06-5.31-6.37,7.08,20.97,27.19,32.04,47.07,38.55,15.33,5.02,44.1,10.87,56.7,19.57,4.81,3.32,1.64,2.97,1.25,6.44-.39,3.49,1.09,8.31.7,10.74-1.04,6.39-14.85,22.01-.65,23.94-10.29,29.11-14.5,103.28-7.79,133.84-8.85-3.62-17.8-7.59-26.07-12.45-12.35-7.25-24.01-18.79-38.52-21.01l15.5,8.23c16.15,11.11,31.67,22.83,50.7,28.74l2.28,9.72c-13.36-2.78-26.6-10.24-37.93-17.71-17.98-11.86-39.2-35.18-62.68-24.34l-3.07-1.4c-19.16-55.9,4.85-49,11.07-51.08-5.25-1.96-9.28,1.54-14.05,2.4-3.37-8.63-1.89-17.52,2.97-25.14,1.59-2.5,6.89-7.78,7.58-9.58.49-1.26-.55-2.57-.27-4.04,1.7-8.81,17.77-27.8,17.77-31.34v-12.84ZM387.27,575.72c-.5-.77-6.16-1.95-7.7-1.24-1.91.88-10.03,11.11-12.88,13.59-2.56,2.23-6.46,5.12-9.3,7.05-2.55,1.73-11.45,5.93-12.66,7.18-1.73,1.78-1.2,13.02,3.89,12.13s21.9-13.42,26.28-17.37c3.19-2.88,13.72-13.16,13.23-17.13-.3-2.43-4.41,4.34-5.06,5.06-10.13,11.29-22.37,20.88-36.2,27.23.21-2.4-1.72-5.65-.4-7.79.47-.77,9.71-5.15,11.55-6.35,4.48-2.92,10.03-7.32,13.78-11.13,2.3-2.35,7.31-10.64,10.4-10.52,1.22.05,7.74,3.44,5.08-.71ZM427.03,586.54c.3-1.67-.74-1.86-1.95-2.32-4.27-1.65-14.52-4.81-19.01-5.89-1.57-.38-3.12-.45-4.71-.33l11.07,4.87,14.61,3.68Z"/>
        <path class="cls-8" d="M463.61,570.81l1.17-31.64-10-.76-12.63,26s.22,5.3,2.01,5.76c1.79.46,16.8,2.42,17.12,2.07s2.33-1.43,2.33-1.43Z"/>
        <path class="cls-1" d="M463.01,573.31s-14.97,104.6-2.61,137.33v5.13l-18.01-3.17s-6.83-38.85-3.79-88.23c.86-14.03,5.53-42.33,10.01-53.55l14.4,2.49Z"/>
        <path class="cls-13" d="M467.5,549.46l-2.2-9.62c-.63-3.14-9.97-2.51-11.09-1.64-.42.33-2.63,7.32-4.22,8.36-1.93-5.04-1.15-10.08,2.78-12.99,3-2.23,14.73-2.57,17.08-.07,2.68,2.86-1.16,12.49-2.35,15.96Z"/>
        <path class="cls-13" d="M320.15,420.74c.32.01-3.71-6.34-9.27-4.98s-23.88,12.17-24.79,13.91c-.91,1.75-20.9,29.45-20.39,33.07.52,3.62,2.43,9,2.43,9h3.43l7.01-14.3s32.13-37.02,41.58-36.7Z"/>
        <path class="cls-13" d="M718.74,454.4l-40.79-42.28-9.81,6.26s1.15,8.1,6.06,12.62c4.9,4.51,35.5,43.35,41.76,41.05,6.26-2.3,3.81-16.59,2.79-17.65Z"/>
        <path class="cls-4" d="M638.48,668.81c.61-5.16-1.35-55.01-3.82-59.47s-.49-16.54-2.33-21.71c22.56-19.06,44.96-39.76,62.49-63.66,7.39-10.06,21.05-30.43,22.85-42.52.4-2.77-.2-5.69.36-8.2.49-2.19,3.02-4.19,3.54-7.35.59-3.52-.83-5.77-.57-8.3.28-2.95,4.15-11.19,5.22-15.08,4.15-15.3,11.33-52.82-.55-64.94-8.05-8.2-19.91,2.1-26.1,7.95-8.16,7.69-15.58,17.52-23.29,25.74-3.38,1.19-6.27,2.63-8.91,5.46-1.8-13.54-22.26-14.31-23.09-15.56-6.96-63.34-55.1-125.71-120.99-133.15-.2-1.88,1.86-2.55,2.53-4.09,3-6.9-5.1-7.61-10.16-6.29-3.16.83-8.11,5.73-9.09,5.73-2.12,0-7.41-9.03-15.58-8.66-1.8.08-4.55.95-4.92,2.91-.45,2.45,5.5,7.22,4.55,8.05-65.83,1.78-129.61,41.56-145.5,107.86-4.65,19.45-3.95,38.87-3.16,58.72l-11.47-9.73c-1.74-1.47-3.85-2.48-6.11-2.77-4.16-.53-5.27-2.7-8.6-4.53-1.36-.75-3.06-.63-4.13-1.3-1.48-.93-12.49-16.74-15.22-19.83-7.61-8.66-20.22-24.06-30.74-9.71-8.88,12.08-7.24,40.78-4.47,55.04.93,4.69,4.21,11.72,4.43,15.89.26,5.02-4.49,7.95-1.44,15.38.71,1.74,2.91,3.3,3.04,4.76.24,2.43-1.15,7.16-.77,10.87,2,20.88,40.07,64.31,56.01,78.62,6.78,6.09,14.23,11.29,21.75,16.41-2.33,3.64-2.12,9.11-3.66,12.55-1.15,2.59-6.07,6.03-7.83,9.29-2.73,5.06-3.86,12.77-3.16,18.46.28,2.25,3.34,50.82,2.69,51.8-.16.26-4.25,3.84-4.59,3.84-2-.3,4.7,13.87.69,14.74-.75.08,42.09,18.26,43.16,16.46,7.37,10.26,89.38,28.66,106.92,30.21M702.23,444.04c0,.92-5.42,9.85-5.91,10.18-.81.57-1.36-.32-1.88-.81-1.17-1.19-8.29-8.32-8.9-9.85-.92-2.31,3.36-5.52,5.49-8.03.75-.89,2.08-1.02,2.98-.26,2.91,2.45,8.23,7.34,8.22,8.77ZM682.73,423.23c.67.18,7.05,5.72,8.07,8.19.65,1.57-3.44,5.01-5.78,7.57-.83.91-2.28.87-3.05-.09-2.53-3.12-6.92-7.79-7.34-9.36-.4-1.48,2.16-2.88,3.17-4.04,1.09-1.27,3.06-2.75,4.93-2.27ZM675.99,415.41c.2.11,1.44,2.42,2.66,3.86.68.81.72,1.97.04,2.78-1.96,2.32-5.43,5.81-6.48,4.93-.26-.22-3.12-5.63-3.02-6.43.3-2.1,5.12-6.11,6.8-5.14ZM482.13,437.67c4.19,1.27,9.17.75,12.85,1.92,3.36,1.07-1.54,4.8-3.1,5.93-19.37,14.04-37.23-.95-51.89,5.69-2.79,1.27-4.69,3.97-7.87,3.86-1.64-.06-8.36-2.93-7.89-4.76.75-2.99,12.79-12.51,15.78-15.02,2.27-1.92,2.79-3.78,6.46-5.59,14.41-7.12,23.35,4.25,35.66,7.99ZM460.7,495.3c13.03-2.08,25.72-24.34,29.59-35.78,1.86-5.46,1.01-11.6,6.78-14.63-2.25,16.82-11.72,42.84-26.51,52.49-21.47,14.04-30.17-26.47-38.08-38.47.89.16,1.82-.85,2.61-.67,1.3.26,8.72,20.46,10.48,23.76,2.75,5.2,8.46,14.37,15.12,13.3ZM458.19,472.54c6.66-8.54,17.08-13.42,27.99-12.08-1.86,9.31-15.97,31.24-26.08,31.2-11.86-.06-6.46-13.3-1.92-19.12ZM351.12,445.64c.89-4.07,3.14-7.75,3.52-12.04,1.07-11.94-2.71-27-1.54-40.45,2.27-26.08,21.41-64.49,52.96-57.65,32.72,7.08,38.21,63.52,37.3,90.31-.81,4.21-17.54,16.09-21,21.03-4.88,6.94,3.22,8.32,6.64,12.02,7.02,7.55,9.92,25.7,17.48,35.45,17.55,22.6,36.95-1.38,45.03-18.78,3.06-6.58,8.9-22.7,9.37-29.58.87-12.3-9.19-8.94-16.9-10.93-1.38-.36-9.9-4.8-10.7-5.65-1.72-1.86-1.44-5.57-1.94-8.05-.42-2.02-.4-1.58-.65-4.84-2.25-26.85-1.05-55.37,15.3-78.01,22.1-30.58,64.11-29.67,90.13-4.55,15.38,14.85,25.05,38,26.79,59.21.67,8.26-.95,17.99,0,25.7.34,2.77,2.08,4.71,2.77,7.35,1.05,3.95,2.17,17.63.4,20.7-13.15,14.93-22.16,30.44-39.02,41.91-24.75,16.82-56.28,18.48-81.59,33.61-2.41,1.42-12.01,9.02-12.82,9.04-1.25.02-8.21-6.71-21.76-.53-.69.31-7.05-5.03-9.17-6.13-19.83-10.42-68.22-16.76-80.86-31.45-10.04-11.64-12.99-33-9.75-47.68ZM443.52,567.38c-.67-3.58,9.21-22.08,9.21-22.08l2.21,5.66c.56,1.44,2.48,1.71,3.41.48l5.26-6.91-1.44,22.67c-.12,1.89-1.6,3.41-3.49,3.54-5.41.37-14.65-.69-15.16-3.36ZM458.57,548.16c-.57.94-1.99.71-2.24-.36l-1.53-6.7c-.18-1.08.72-2.02,1.81-1.9l5.59.51c.66.07,1.02.81.67,1.37l-4.3,7.09ZM452.38,539.17l-2.39,6.12s-1.27-8.86,2.66-11.19c3-1.8,14.73-2.08,17.08-.06,2.67,2.29-2.23,13.58-2.23,13.58l-1.04-7.55c-.21-1.5-1.42-2.66-2.93-2.8l-6.8-.61c-1.86-.28-3.67.76-4.36,2.51ZM307.84,418.53c1.92-1.14,7.77-3.92,10.23,2.22-1.76-.52-5.89,2.55-7.72,3.06-.38.11-.78-.09-.95-.44l-1.86-3.79c-.19-.38-.06-.83.31-1.04ZM307.58,424.29c.22.5.07,1.09-.37,1.41-2.04,1.51-7.07,5.39-8.72,6.06-.38.15-.81.05-1.07-.26-1.2-1.41-4.06-2.72-2.34-4.53.55-.58,4.8-3.81,6.02-4.52.67-.39,3.02-2.06,3.46-2.27s.93,0,1.12.43l1.9,3.67ZM281.87,440.26c.51-1.36,8.03-9.11,9.26-9.95s5.74,1.71,4.58,4.24c-.59,1.25-8.71,9.26-9.92,10.36-.75.68-4.96-1.88-3.91-4.65ZM273.84,450.92c.19-.42,4.67-7.26,5.24-7.87.51-.53.84-.58,1.35-.16.01.01,1.87,2.21,2.74,3.64.38.63.39,1.42.02,2.05-1.3,2.2-4.58,6.77-5.38,7.78s-5.04-3.07-3.97-5.44ZM271.92,454.58c.3-.55,1.09-.57,1.41-.03,1.03,1.71,2.64,4.89,2.57,5.38-.38,2.08-5.32,7.57-5.32,10.64-4.94-3.97-1.31-11.16,1.34-15.98ZM405.45,701.9c-17.99-11.86-39.2-35.19-62.69-24.36l-6.39-35.75c-10.42-7.55,8.18-14.65,14.39-16.72-5.26-1.96-9.27,1.54-14.06,2.41-3.36-8.64-1.88-17.52,2.99-25.15,1.58-2.51,6.88-7.79,7.57-9.59.49-1.27-.55-2.57-.26-4.03,1.7-8.82,17.75-27.82,17.75-31.35l.23-12.79c0-1.17-1.69-1.34-1.91-.19-.65,3.41-1.39,12.32-2.67,14.85-.97,1.94-10.48,14.85-11.94,16.07-.61.53-1.05,1.13-1.98,1.13-1.72-.02-19.29-14.73-21.83-17.1-14.95-14.1-33.77-36.32-44.09-53.99-5.97-10.2-11.7-20.6-7.69-32.86,5.06-15.44,30.05-44.34,45.23-49.72,9.75-3.48,21.83,11.22,19.54,13.4-22.21,21.15-11.23,63.5,10.75,82.28,25.46,21.75,57.65,14.39,86.81,26.06,1.4-1.52-1.66-2.61-2.99-3.26-17.56-8.52-40.71-6.7-59.66-13.48-35.03-12.53-53.4-50.97-35.17-84.95.49-.93,4.45-8.6,5.57-7.26,1.58,4.76-9.61,27.3,3.44,47.75,5.29,8.11,16.3,21.87,36.19,28.38,15.32,5.02,51.13,10.48,62.84,20.36,3.82,3.22,2.12,2.83,1.73,6.31-.38,3.48,1.15,7.81.73,10.24-1.03,6.39-14.85,22-.63,23.94-10.3,29.12-14.51,103.28-7.79,133.85-8.86-3.64-17.81-7.61-26.08-12.45-12.36-7.26-24.02-18.8-38.53-21.01l15.5,8.22c16.15,11.13,31.67,22.83,50.71,28.74l2.29,9.73c-13.36-2.79-26.61-10.24-37.94-17.71ZM461.28,573.31s-12.55,90.24-3.52,138.25l.61,2.7c-2.15-.12-8.38-1.65-8.38-1.65-1.05-.28-6.23-1.38-6.52-1.68-.4-.42-.31-2.66-.45-3.23-5.63-24.32-7.92-86.21,5.81-134.39l3.76.36c.84.12,1.68.14,2.52.07l6.17-.43ZM444.16,713.38c2.45,1.21,13.64,2.29,14.61,3.28,1.07,1.09.99,5.28,2.51,6.82-7.91-1.32-16.09-.1-17.12-10.1ZM714.92,477.09c-2.45,27.84-51.52,76.49-71.78,95.94-4.57,4.41-19.08,15.49-21.19,20.53-.28.67-.86,4,1.99,1.55,1.78-1.53,4.56-4.26,5.49-4.58.38-.13.78.11.84.5.61,4.25-.89,9.28-.87,13.04,0,1.86,1.7,4.61,1.54,5.4-.22.95-3.62,1.09-4.46,1.27-.57.12-.52.96.06,1.03,1.37.17,5.34.23,6,1,2.04,2.39,3.18,54.65,2.31,55.46-4.15-.14-8.6,1.19-12.43,2.75-3.02,1.23-12.24,7.89-12.99,8.03-.79.16-6.17-2.83-8.05-3.38-21.31-6.15-43.53,8.58-61.48,18.31l1.96,1.23c9.33-4.59,18.21-9.98,27.99-13.7,3.66-1.38,12.95-5.02,16.35-4.69,1.09.12,2.27.55,1.17,1.58-.24.24-5.22.93-6.64,1.52-14.57,6.15-27.24,18.84-40.59,27.12-20.2,12.55-49.25,20.22-73.07,17.34-1.8-.22-4.96-3.02-4.8-4.98.12-1.36,1.42-2.89,1.4-3.99,0-.83-1.96.14-1.6-1.19,18.88,2.23,40.17-.63,57.79-7.99,2-.83,4.86-1.78,6.03-3.7-5.61.04-10.83,3.06-16.19,4.43-15.93,4.11-31.81,5.65-48.3,4.8-8.09-29.18-4.88-103.46,1.21-132.82.73-3.6,2.87-7.63,3.28-10.71.63-4.61,1.43-9.94,2.58-14.63.61-2.51,2.66-6.9,3.87-10.06.97-2.57.97-5.91,2.15-7.97,7.22-12.61,54.19-24.65,68.66-30.19,37.36-14.31,41.32-28.69,65.26-56.14,11.45-13.13,23.6-17.62,35.86-27.98,1.15-.97,5.78-5.27,6.92-7.85.36-.82-.59-1.6-1.33-1.09l-4.11,3.03v-10.89c8.76,1.07,18.17,4.37,20.24,14-12.83,1.78-21.65,15.16-29.56,24.55-5.48,6.5-7.95,9.55-14.06,15.54-17.54,17.18-22.38,41.5-42.07,55.97-14.55,10.7-34.5,15.89-51.93,19.69-6.7,1.44-39.02,5.95-41.4,10.75-1.3,2.61,5.95-.93,6.66-1.13,19.81-5.61,40.03-5.73,60.26-12.12,15.24-4.8,29.67-12.2,40.09-24.51,11.47-13.52,16.17-32.6,29.95-44.36-1.19,2.98-4.49,15.08-.77,8.56,2.41-4.96,4.86-10.48,7.93-15.04,3.95-5.91,25.58-31.55,31.02-33.57,1.23-.45,3.36-.89,4.49-.26.73.43,7.55,12.32,9.17,14.55,9.35,12.81,21.79,25.52,35.11,34.16,3.78,2.45,4.53.18,4.03,5.89ZM698.5,456.84c-.37-.4-.22-1.41,0-1.9.86-1.89,3.41-5.32,4.78-7.62.37-.62,1.22-.76,1.76-.28,1.43,1.26,3.55,3.39,4.98,5.03,1,1.14,1.17,2.78.42,4.1l-3.5,6.13c-.5.88-1.69,1.07-2.44.38-1.67-1.53-4.38-4.07-6.01-5.83ZM708.15,465.74,714.17,456.46c5.99,3.15,5.76,8.65,1.22,14.13-2.34-1.38-4.47-2.78-6.46-4.26-.46-.34-.61-.96-.38-1.48l3.47-7.62c.37-.82,1.35-1.19,2.15-.77Z"/>
        <path class="cls-13" d="M602.93,566.3l-9.94-13.01-2.51-1.76c-.7.7,8.88,15.54,12.45,14.78ZM600.47,554.01l-2.2.23c.65,1.41,8.49,12.87,10.11,11.29l-7.91-11.51ZM528.21,581.88l-37.35,8.55c7.63.46,15-.47,22.43-2.07,2.02-.44,13.6-3.47,14.47-4.07.73-.51.6-2.23.45-2.4ZM595.65,611.02c-10.08-6.06-17.2-8.48-25.39-17.89-1.54-1.77-7.21-10.51-7.81-10.87-3.49-2.11-12.15,2.36-10.29,7.95,3.98,12,23.63,27.71,35.54,31.4,6.41,1.98,10.05,2.03,10.57-5.9.33-5.08-1.17-3.09-2.16-3.78-.23-.16-.25-.78-.47-.91Z"/>
        <path class="cls-8" d="M605.69,426.18c-.69-2.65-2.43-4.59-2.77-7.35-.95-7.71.67-17.44,0-25.7-1.74-21.21-11.41-44.36-26.79-59.21-26.02-25.13-68.03-26.04-90.13,4.55-16.35,22.64-17.56,51.16-15.3,78.01.26,3.26.24,2.83.65,4.84.49,2.47.22,6.19,1.94,8.05.79.85,9.31,5.3,10.7,5.65,7.71,2,17.77-1.36,16.9,10.93-.47,6.88-6.31,22.99-9.37,29.58-8.09,17.4-27.48,41.38-45.03,18.78-7.55-9.75-10.46-27.89-17.48-35.45-3.42-3.7-11.53-5.08-6.64-12.02,3.46-4.94,20.18-16.82,21-21.03.91-26.79-4.59-83.23-37.3-90.31-31.55-6.84-50.69,31.57-52.96,57.65-1.17,13.44,2.61,28.51,1.54,40.45-.38,4.29-2.63,7.97-3.52,12.04-3.24,14.69-.3,36.04,9.75,47.68,12.63,14.69,61.03,21.03,80.86,31.45,2.12,1.11,8.48,6.21,9.21,6.39,1.15.28,7.16-1.88,9.83-1.92,1.4,0,4.74.38,6.17.67,1.84.38,4.41,2.15,5.65,2.14.81-.02,10.48-8.22,12.89-9.65,25.3-15.12,56.84-16.78,81.59-33.61,16.86-11.47,25.88-26.99,39.02-41.91,1.78-3.06.65-16.74-.4-20.7ZM418.24,429.76s-.02.04-.02.06c-3.54,8.34-10.89,13.98-22.62,12.65-4.63-.51-8.48-2.37-11.53-5.08-6.92-4.67-11.49-12.83-11.49-22.12,0-14.51,11.15-26.25,24.89-26.25,2.21,0,4.37.3,6.41.89-15.32-12.81-32.76,2.57-35.11,19.67-1.29,9.37,1.42,15.54,3,24.42-1.15,1.3-4.45-4.23-4.82-4.92-9.17-17.44-.73-46.1,20.86-48.69,14.1-1.68,24.12,7.1,29.16,18.56,4.37,9.96,5,21.92,1.27,30.82ZM569.26,403.8c-.16,1.4-2.93,14.53-6.01,11.51-.44-.43,1.62-10.06,1.62-12.06-.08-22.77-22.85-42.66-44.68-29.83-1.7,1.01-3.95,2.77-5.36,4.49-.1.12-.2.24-.28.36.81-.55,1.66-1.07,2.53-1.54,3.85-2.08,8.24-3.24,12.87-3.24,15.76,0,28.53,13.46,28.53,30.09s-12.77,30.09-28.53,30.09c-1.46,0-2.91-.12-4.31-.36-13.94-.91-24.97-13.7-24.97-29.36,0-1.84.16-3.62.43-5.36.87-14.39,9.03-28.88,24.97-33.29,24.26-6.7,46,14.06,43.18,38.51Z"/>
        <path class="cls-7" d="M440,435.28c2.29-1.92,2.8-3.79,6.47-5.6,14.42-7.12,23.34,4.26,35.66,7.98,4.19,1.27,9.17.75,12.87,1.92,3.35,1.06-1.54,4.81-3.11,5.94-19.39,14.03-37.24-.96-51.91,5.69-2.78,1.26-4.68,3.97-7.86,3.86-1.65-.06-8.36-2.93-7.89-4.78.75-2.97,12.79-12.51,15.77-15.02Z"/>
        <path class="cls-9" d="M486.19,460.46c-1.86,9.31-15.98,31.24-26.08,31.19-11.85-.05-6.46-13.3-1.92-19.12,6.66-8.53,17.08-13.43,28-12.08Z"/>
        <path class="cls-7" d="M432.49,458.91c.9.15,1.83-.85,2.62-.69,1.3.27,8.7,20.46,10.47,23.78,2.76,5.19,8.47,14.38,15.12,13.31,13.04-2.09,25.73-24.35,29.6-35.8,1.85-5.46,1.01-11.59,6.78-14.62-2.24,16.83-11.72,42.84-26.5,52.49-21.49,14.03-30.17-26.48-38.09-38.47Z"/>
        <path class="cls-8" d="M458.77,716.67c1.06,1.09.99,5.27,2.51,6.82-7.9-1.33-16.09-.11-17.12-10.11,2.45,1.2,13.63,2.29,14.61,3.29Z"/>
        <path class="cls-8" d="M444.94,708.71c.18.09.5,1.02,1.31,1.38,1.34.59,5.4.55,3.73,2.52-1.05-.28-6.23-1.39-6.51-1.68-.41-.41.04-1.64-.09-2.22.46.1,1.27-.15,1.56,0Z"/>
        <path class="cls-14" d="M443.38,595.88c.25-1.15.76-1.47.78-1.56l-.78,1.56Z"/>
        <path class="cls-14" d="M449.61,595.11l.78-.78c-.27.12-.52.69-.78.78Z"/>
        <path class="cls-10" d="M595.65,611.02c.22.13.24.75.47.91.99.69,2.49-1.3,2.16,3.78-.52,7.93-4.17,7.88-10.57,5.9-11.91-3.69-31.56-19.4-35.54-31.4-1.85-5.58,6.81-10.06,10.29-7.95.6.36,6.26,9.1,7.81,10.87,8.19,9.41,15.3,11.83,25.39,17.89ZM596.71,613.01c-14.93-3.21-29.62-15.68-35.82-29.58l-7.76,4.33c-.17.75,6.25,9.87,7.38,11.25,2.68,3.27,8.6,9.22,11.85,11.47,6.45,4.47,14.82,7.2,21.63,11.08l2.72-8.54Z"/>
        <path class="cls-10" d="M528.21,581.88c.15.17.28,1.89-.45,2.4-.86.61-12.45,3.64-14.47,4.07-7.43,1.61-14.81,2.54-22.43,2.07l37.35-8.55Z"/>
        <path class="cls-4" d="M418.24,429.76s-.02.04-.02.06c-3.54,8.34-10.89,13.98-22.62,12.65-.32-.04-.63-.08-.93-.14-4.19-.65-7.59-2.63-10.6-4.94-6.58-5.12-11.49-12.83-11.49-22.12,0-14.51,11.15-26.25,24.89-26.25,2.21,0,4.37.3,6.41.89-5.54-4.63-11.37-5.57-16.65-4.09-6.33,1.8-11.9,7.1-15.28,13.72-1.6,3.12-2.71,6.54-3.18,10.04-1.29,9.37,1.42,15.54,3,24.42-1.15,1.3-4.45-4.23-4.82-4.92-9.17-17.44-.73-46.1,20.86-48.69,14.1-1.68,24.12,7.1,29.16,18.56,4.37,9.96,5,21.92,1.27,30.82Z"/>
        <path class="cls-10" d="M387.27,575.72c2.67,4.15-3.85.76-5.08.71-3.09-.12-8.1,8.17-10.4,10.52-3.75,3.82-9.29,8.21-13.78,11.13-1.84,1.2-11.08,5.58-11.55,6.35-1.31,2.14.61,5.39.4,7.79,13.83-6.35,26.07-15.94,36.2-27.23.65-.73,4.76-7.49,5.06-5.06.49,3.97-10.04,14.25-13.23,17.13-4.37,3.95-21.22,16.49-26.28,17.37s-5.61-10.35-3.89-12.13c1.21-1.25,10.12-5.45,12.66-7.18,2.84-1.93,6.73-4.82,9.3-7.05,2.86-2.49,10.98-12.71,12.88-13.59,1.54-.71,7.2.47,7.7,1.24Z"/>
        <path class="cls-10" d="M427.03,586.54l-14.61-3.68-11.07-4.87c1.6-.12,3.15-.04,4.71.33,4.5,1.08,14.74,4.24,19.01,5.89,1.21.47,2.25.65,1.95,2.32Z"/>
        <path class="cls-4" d="M449.39,560.26c1.59-.35,9.34.24,10.38.95,1.45.98,1.13,6.11-.82,7.05s-10.29.23-12.14-1.12c-2.02-1.48-.47-6.2,2.58-6.88ZM458.12,563.25c-.36-.4-10.55-2.51-9.28,1.88.37,1.27,9.01,1.52,9.34,1.17.11-.11.07-2.91-.06-3.06Z"/>
        <path class="cls-13" d="M596.71,613.01l-2.72,8.54c-6.81-3.88-15.18-6.61-21.63-11.08-3.24-2.25-9.17-8.2-11.85-11.47-1.13-1.38-7.54-10.49-7.38-11.25l7.76-4.33c6.2,13.9,20.89,26.38,35.82,29.58Z"/>
        <g>
          <path class="cls-13" d="M558.48,403.57c0,16.61-12.77,30.09-28.53,30.09-1.46,0-2.91-.12-4.31-.36.51.04,1.05.06,1.58.06,14.67,0,26.55-13.17,26.55-29.42s-11.88-29.44-26.55-29.44c-3.6,0-7.02.79-10.14,2.21,3.85-2.08,8.24-3.24,12.87-3.24,15.76,0,28.53,13.46,28.53,30.09Z"/>
          <path class="cls-4" d="M569.26,403.8c-.16,1.4-2.93,14.53-6.01,11.51-.44-.43,1.62-10.06,1.62-12.06-.08-22.77-22.85-42.66-44.68-29.83-1.7,1.01-3.95,2.77-5.36,4.49-7.06,4.13-12.24,11.68-13.72,20.68.87-14.39,9.03-28.88,24.97-33.29,24.26-6.7,46,14.06,43.18,38.51Z"/>
          <path class="cls-4" d="M553.78,403.94c0,16.25-11.88,29.42-26.55,29.42-.53,0-1.07-.02-1.58-.06-13.94-.91-24.97-13.7-24.97-29.36,0-1.84.16-3.62.43-5.36,1.48-9,6.66-16.55,13.72-20.68-.1.12-.2.24-.28.36.81-.55,1.66-1.07,2.53-1.54,3.12-1.42,6.54-2.21,10.14-2.21,14.67,0,26.55,13.17,26.55,29.44Z"/>
          <path class="cls-4" d="M517.09,376.72c-.87.47-1.72.99-2.53,1.54.08-.12.18-.24.28-.36.73-.43,1.48-.83,2.25-1.19Z"/>
        </g>
        <path class="cls-13" d="M394.67,442.34c-4.19-.65-7.59-2.63-10.6-4.94-6.58-5.12-11.49-12.83-11.49-22.12,0-14.51,11.15-26.25,24.89-26.25,2.21,0,4.37.3,6.41.89,0,0-22.85-.85-26.31,19.45-3.54,20.78,10.14,29.62,17.1,32.98Z"/>
      </g>
      <path class="cls-2" d="M327.86,531.41c2.93-33.02,42.29-33.05,47.33-.11,4.81,31.43-20.53,59.56-20.53,59.56,0,0-60.62-1.05-65.55-38.11-3.29-24.78,19.78-37.12,38.74-21.35Z"/>
      <path class="cls-2" d="M221.17,505.54c9.58-16.29,29.86-6.68,24.41,11.52-5.21,17.36-25.13,25.66-25.13,25.66,0,0-30.97-15.36-24.44-35.65,4.36-13.57,19.26-14.28,25.17-1.53Z"/>
      <path class="cls-2" d="M778.78,547.21c14.59-12.02,30.34,3.96,18.98,19.18-10.84,14.53-32.41,15.49-32.41,15.49,0,0-23.83-25.04-10.75-41.87,8.75-11.25,22.99-6.82,24.17,7.19Z"/>
      <path class="cls-2" d="M657.77,539.91c11.97-24.99,42.79-13.48,37.08,13.78-5.44,26.01-33.52,40.61-33.52,40.61,0,0-47.15-18.58-40.14-49.03,4.68-20.36,26.36-23.26,36.58-5.36Z"/>
      <path class="cls-2" d="M559.81,525.71c7.5-15.66,26.8-8.44,23.23,8.63-3.41,16.29-21,25.44-21,25.44,0,0-29.54-11.64-25.15-30.72,2.93-12.75,16.51-14.57,22.92-3.36Z"/>
      <g>
        <path class="cls-12" d="M899.57,731.17c0,39.87-26.75,64.63-69.79,64.63-25.14,0-43.74-3.67-56.86-11.21-5.73-3.3-10.45-7.31-14.1-11.98-10.45,18.76-26.44,23.19-39.17,23.19-7.65,0-18.24-2.47-26.51-9.01-7.94,5.91-17.64,9.01-28.71,9.01-24.75,0-43.48-8.79-55.69-26.14-.64-.92-1.27-1.85-1.87-2.81-10.84,24.88-30,28.95-41.34,28.95-9.92,0-25.79-3.1-37-20.38-8.24,12.9-22.02,20.38-39.45,20.38-18.98,0-34.48-8.7-44.5-20.25-12.22,17.42-28.48,20.25-37.72,20.25-20.62,0-35.67-9.25-44.86-27.52-10.95,23.61-29.58,27.52-40.7,27.52s-30.12-3.97-41.22-28.07c-9.23,18.64-24.41,28.07-45.24,28.07-19.09,0-29.96-7.78-36.35-16.65-10.22,10.9-24.18,16.65-40.41,16.65-24.29,0-40.85-12.83-49.22-38.13-6-18.15-8.44-43.58-8.44-87.78,0-31.56,2.92-54.19,9.21-71.2,11.52-31.18,32.7-37.73,48.45-37.73,17.29,0,30.18,6.06,38.96,18.43.66-.78,1.34-1.54,2.03-2.28,9.86-10.57,22.23-16.15,35.77-16.15,12.71,0,28.95,4.22,40.84,22.03,6.78-12.22,20.96-22.03,45.62-22.03s38.82,9.96,45.5,22.32c12.49-18.06,29.67-22.32,43.09-22.32,15.8,0,29.46,6.62,37.73,17.09,10.74-11.19,23.88-17.09,38.12-17.09,18.15,0,28.97,7.06,34.85,12.98,1.1,1.1,2.13,2.27,3.09,3.48,7.74-9.5,21.07-16.46,41.85-16.46,37.17,0,50.37,22.56,50.37,41.88,0,13.19-5.83,24.54-16.42,31.97-.17.12-.34.24-.51.34,3.91,4.08,7.16,9.04,9.67,14.84,12.87-19.31,32.26-28.35,51.55-28.35,2.92,0,6.05.27,9.19.78.91-21.68,6.01-37.45,15.37-47.81,8.07-8.93,19.09-13.65,31.87-13.65s35.19,4.94,46.79,37.99c3.61,10.29,6.06,22.63,7.42,37.75,12.98-10,31.46-15.06,55.01-15.06,61.06,0,67.66,32.25,67.66,46.12,0,11.14-2.82,18.78-6.23,23.95,8.17,10.37,12.3,23.59,12.3,39.46Z"/>
        <path class="cls-6" d="M281.13,640.45c-.52-7.59-1.34-14.95-2.53-21.93-1.68-9.87-4.09-18.97-7.43-26.89-7.86-18.6-20.88-30.67-41.74-30.67-16.08,0-29.13,9.71-37.93,24.27-7.28-15.17-19.72-24.27-38.83-24.27-42.48,0-52.19,50.36-52.19,103.46,0,76.45,8.2,120.44,52.19,120.44,16.68,0,30.94-7.28,40.65-22.75,5.16,11.53,14.57,22.75,36.11,22.75,24.8,0,38.32-13.99,45.4-39.89,5.47-20.04,7.08-47.21,7.08-80.55,0-8.12-.23-16.17-.78-23.97ZM229.43,773.33c-20.63,0-25.49-11.52-28.83-25.18,5.77-15.47,7.89-29.73,5.16-55.82-.3-2.73-2.73-5.16-5.76-5.16-3.34,0-6.07,3.03-5.77,6.07,5.46,57.34-13.35,80.09-41.56,80.09-33.98,0-40.66-34.28-40.66-108.91,0-51.58,8.2-91.93,40.66-91.93,17.9,0,26.7,8.49,31.85,26.09-6.67,16.69-9.4,33.07-7.58,51.88.3,3.03,2.73,5.46,5.76,5.46,3.34,0,6.07-3.03,5.77-6.37-2.73-39.44,12.74-77.06,40.96-77.06,32.76,0,40.95,40.35,40.95,91.93,0,74.63-6.97,108.91-40.95,108.91Z"/>
        <path class="cls-6" d="M339.56,628.31c5.08-2.29,9.48-5.36,12.94-9.14,5.22-5.71,8.29-13.04,8.29-21.8,0-1.96-.16-3.89-.48-5.76-2.95-17.52-19.47-30.65-44.42-30.65s-41.77,13.13-44.72,30.66h0c-.32,1.88-.48,3.79-.48,5.75,0,8.43,2.95,15.54,7.91,21.15,3.59,4.08,8.26,7.36,13.63,9.79-4.56,3.22-8.2,7.37-11.1,12.14-8.85,14.57-10.75,34.88-10.75,51.57,0,14.88.19,35.14,4.45,52.95,5.2,21.79,16.52,39.89,41.06,39.89s35.38-17.69,40.52-39.24c4.26-17.85,4.38-38.34,4.38-53.6,0-16.9-1.77-37.7-10.71-52.27-2.76-4.51-6.22-8.43-10.52-11.44ZM282.2,597.37c0-14.57,11.23-24.88,33.68-24.88s33.37,10.31,33.37,24.88c0,15.77-13.35,24.27-33.37,24.27s-33.68-8.5-33.68-24.27ZM315.88,773.33c-33.07,0-33.98-48.54-33.98-81.31,0-28.21,4.86-58.85,33.98-58.85s33.37,30.64,33.37,58.85c0,33.38-.6,81.31-33.37,81.31Z"/>
        <path class="cls-6" d="M514.61,691.82c-3.44-6.25-7.89-12.86-13.65-19.82,11.44-16.65,19-35.95,21.36-54.06.52-4,.79-7.93.79-11.77,0-9.23-1.75-17.05-4.87-23.46-7.04-14.47-21.09-21.75-37.91-21.75s-29.43,8.8-38.84,21.84c-6.37-13.65-22.45-21.84-37.01-21.84-22.29,0-35.99,12.08-44.17,30.65-3.57,8.1-6.09,17.45-7.81,27.56-1.12,6.57-1.9,13.48-2.42,20.58-.58,8.03-.82,16.32-.82,24.67,0,33.7,1.59,61.11,7.15,81.2,7.04,25.49,20.44,39.24,45.04,39.24,16.68,0,29.12-9.4,37.01-26.09,7.89,13.05,23.97,26.09,45.21,26.09,17.88,0,32.82-10.4,39.19-27.66,2.05-5.58,3.21-11.87,3.28-18.76,0-11.88-1.03-27.55-11.53-46.62ZM483.67,773.33c-21.85,0-36.41-16.08-39.44-28.82,3.64-12.74,5.46-28.21,5.46-42.78,0-3.33-2.43-5.76-5.77-5.76-3.03,0-5.76,2.43-5.76,5.76,0,45.21-13.05,71.6-36.71,71.6-33.98,0-40.66-34.28-40.66-108.91,0-51.58,8.19-91.93,43.69-91.93,14.56,0,28.52,8.49,29.13,23.36-8.8,18.51-12.44,41.26-10.93,57.04.31,3.03,2.73,5.46,5.77,5.46,3.34,0,6.07-2.73,5.76-6.07-3.33-34.89,14.26-79.79,46.12-79.79,19.11,0,31.25,10.01,31.25,33.68,0,26.09-13.05,56.43-34.89,76.45-2.13,1.82-2.43,4.85-.91,7.28,2.12,3.04,6.37,3.34,9.1.61,3.03-2.73,6.07-5.77,8.8-9.1,19.42,23.96,20.93,42.17,20.93,57.03-.3,22.76-12.44,34.89-30.94,34.89Z"/>
        <path class="cls-6" d="M601.85,659.19c-2.9-12.57-8.3-24.04-18.07-30.88,12.75-5.76,21.24-16.38,21.24-30.94,0-20.33-17.29-36.41-44.9-36.41-20.72,0-35.6,8.86-41.88,21.75-2.18,4.47-3.33,9.42-3.33,14.66,0,8.14,2.75,15.05,7.41,20.57,3.67,4.35,8.52,7.83,14.14,10.37-18.45,13.01-21.83,41.4-21.85,63.51v.2c0,18.42.28,45.13,8.25,65.18h0c6.33,15.94,17.51,27.66,37.26,27.66,23.98,0,35.15-17.34,40.36-38.59,4.41-18,4.54-38.8,4.54-54.25,0-10.26-.65-21.95-3.17-32.82h0ZM526.44,597.37c0-14.57,11.23-24.88,33.68-24.88s33.37,10.31,33.37,24.88c0,15.77-13.35,24.27-33.37,24.27s-33.68-8.5-33.68-24.27ZM560.12,773.33c-33.07,0-33.98-48.54-33.98-81.31,0-28.21,4.85-58.85,33.98-58.85s33.37,30.64,33.37,58.85c0,33.38-.6,81.31-33.37,81.31Z"/>
        <path class="cls-6" d="M676.62,676.86c-.91-1.52-3.03-2.73-5.16-2.73-4.55,0-6.98,4.85-4.85,8.49,4.55,8.49,4.85,25.48,0,36.71-1.82,3.64.91,8.19,5.16,8.19,2.42,0,4.55-1.52,5.15-3.64,6.38-13.95,6.07-35.5-.3-47.02ZM676.62,676.86c-.91-1.52-3.03-2.73-5.16-2.73-4.55,0-6.98,4.85-4.85,8.49,4.55,8.49,4.85,25.48,0,36.71-1.82,3.64.91,8.19,5.16,8.19,2.42,0,4.55-1.52,5.15-3.64,6.38-13.95,6.07-35.5-.3-47.02ZM760.75,644.05c-2.44-44.92-14.15-83.09-49.54-83.09-28.52,0-40.96,24.88-41.57,63.1-5.46-1.82-10.92-2.42-14.86-2.42-20.37,0-41.58,12.09-52.93,37.55h0c-5.23,11.72-8.36,26.26-8.36,43.76,0,16.19,2.19,30.93,6.99,43.32,9.13,23.59,27.71,38.59,58.54,38.59,10.32,0,20.33-3.34,28.83-11.22,6.97,7.58,18.81,11.22,26.39,11.22,20.05,0,31.74-10.61,38.44-30.37,3.85-11.31,6.06-25.6,7.27-42.62.02-.3.04-.6.06-.9.95-13.8,1.26-29.36,1.26-46.55,0-6.87-.16-13.7-.52-20.37ZM714.24,773.33c-6.07,0-14.56-2.73-18.81-8.19,2.43-3.64,4.25-7.58,6.07-13.04.91-2.43-.3-5.46-3.03-6.68-3.04-1.52-6.68.31-8.2,3.34-6.37,18.51-17.9,24.57-31.25,24.57-39.44,0-54-27-54-70.38,0-49.15,24.88-69.78,49.76-69.78,4.24,0,10.01.91,14.86,2.73.31,4.55.61,8.8,1.22,13.35.3,2.73,2.73,4.85,6.37,4.55,3.03-.61,5.16-3.34,4.85-6.68-4.85-47.93,3.95-74.63,29.13-74.63,30.64,0,38.53,40.35,38.53,91.93,0,74.63-5.16,108.91-35.5,108.91ZM671.45,674.13c-4.55,0-6.98,4.85-4.85,8.49,4.55,8.49,4.85,25.48,0,36.71-1.82,3.64.91,8.19,5.16,8.19,2.42,0,4.55-1.52,5.15-3.64,6.38-13.95,6.07-35.5-.3-47.02-.91-1.52-3.03-2.73-5.16-2.73Z"/>
        <path class="cls-6" d="M874.43,686.87c4.25-4.86,8.19-12.74,8.19-24.58,0-27.91-27.61-40.65-62.19-40.65-29.73,0-48.91,8.98-59.68,22.41-7.59,9.46-11.01,21.13-11.01,33.41,0,13.12,3.52,24.49,10.27,33.51.11.16.23.31.35.47-.14.14-.28.29-.41.43-5.87,6.05-10.21,14.74-10.21,27.18,0,5.59.98,10.76,2.94,15.44h0c7.97,19.2,32.19,30.37,71.69,30.37,42.78,0,64.32-26.39,64.32-59.16,0-15.77-4.85-28.82-14.26-38.83ZM824.37,773.33c-44.9,0-63.1-12.43-63.1-34.28,0-9.4,2.73-15.17,6.97-19.42,11.84,10.32,29.74,15.78,52.19,15.78,3.33,0,5.76-2.73,5.76-5.76,0-3.34-2.43-5.77-5.76-5.77-39.44,0-59.16-16.69-59.16-46.42,0-25.18,15.16-44.29,59.16-44.29,30.94,0,50.66,9.1,50.66,29.12,0,9.41-2.73,14.57-5.46,16.99-12.74-8.49-30.94-13.35-54.91-13.35-3.04,0-5.77,2.43-5.77,5.77,0,3.03,2.73,5.76,5.77,5.76,47.02,0,66.44,17.3,66.44,48.24,0,27.91-16.38,47.63-52.79,47.63Z"/>
        <g>
          <path class="cls-15" d="M270.38,664.42c0,74.63-6.97,108.91-40.95,108.91-20.63,0-25.49-11.52-28.83-25.18,5.77-15.47,7.89-29.73,5.16-55.82-.3-2.73-2.73-5.16-5.76-5.16-3.34,0-6.07,3.03-5.77,6.07,5.46,57.34-13.35,80.09-41.56,80.09-33.98,0-40.66-34.28-40.66-108.91,0-51.58,8.2-91.93,40.66-91.93,17.9,0,26.7,8.49,31.85,26.09-6.67,16.69-9.4,33.07-7.58,51.88.3,3.03,2.73,5.46,5.76,5.46,3.34,0,6.07-3.03,5.77-6.37-2.73-39.44,12.74-77.06,40.96-77.06,32.76,0,40.95,40.35,40.95,91.93Z"/>
          <path class="cls-15" d="M349.25,597.37c0,15.77-13.35,24.27-33.37,24.27s-33.68-8.5-33.68-24.27c0-14.57,11.23-24.88,33.68-24.88s33.37,10.31,33.37,24.88Z"/>
          <path class="cls-15" d="M349.25,692.02c0,33.38-.6,81.31-33.37,81.31s-33.98-48.54-33.98-81.31c0-28.21,4.86-58.85,33.98-58.85s33.37,30.64,33.37,58.85Z"/>
          <path class="cls-15" d="M514.61,738.44c-.3,22.76-12.44,34.89-30.94,34.89-21.85,0-36.41-16.08-39.44-28.82,3.64-12.74,5.46-28.21,5.46-42.78,0-3.33-2.43-5.76-5.77-5.76-3.03,0-5.76,2.43-5.76,5.76,0,45.21-13.05,71.6-36.71,71.6-33.98,0-40.66-34.28-40.66-108.91,0-51.58,8.19-91.93,43.69-91.93,14.56,0,28.52,8.49,29.13,23.36-8.8,18.51-12.44,41.26-10.93,57.04.31,3.03,2.73,5.46,5.77,5.46,3.34,0,6.07-2.73,5.76-6.07-3.33-34.89,14.26-79.79,46.12-79.79,19.11,0,31.25,10.01,31.25,33.68,0,26.09-13.05,56.43-34.89,76.45-2.13,1.82-2.43,4.85-.91,7.28,2.12,3.04,6.37,3.34,9.1.61,3.03-2.73,6.07-5.77,8.8-9.1,19.42,23.96,20.93,42.17,20.93,57.03Z"/>
          <path class="cls-15" d="M593.49,597.37c0,15.77-13.35,24.27-33.37,24.27s-33.68-8.5-33.68-24.27c0-14.57,11.23-24.88,33.68-24.88s33.37,10.31,33.37,24.88Z"/>
          <path class="cls-15" d="M593.49,692.02c0,33.38-.6,81.31-33.37,81.31s-33.98-48.54-33.98-81.31c0-28.21,4.85-58.85,33.98-58.85s33.37,30.64,33.37,58.85Z"/>
          <path class="cls-15" d="M711.2,572.49c-25.18,0-33.98,26.7-29.13,74.63.31,3.34-1.82,6.07-4.85,6.68-3.64.3-6.07-1.82-6.37-4.55-.61-4.55-.91-8.8-1.22-13.35-4.85-1.82-10.62-2.73-14.86-2.73-24.88,0-49.76,20.63-49.76,69.78,0,43.38,14.56,70.38,54,70.38,13.35,0,24.88-6.06,31.25-24.57,1.52-3.03,5.16-4.86,8.2-3.34,2.73,1.22,3.94,4.25,3.03,6.68-1.82,5.46-3.64,9.4-6.07,13.04,4.25,5.46,12.74,8.19,18.81,8.19,30.34,0,35.5-34.28,35.5-108.91,0-51.58-7.89-91.93-38.53-91.93ZM676.92,723.88c-.6,2.12-2.73,3.64-5.15,3.64-4.25,0-6.98-4.55-5.16-8.19,4.85-11.23,4.55-28.22,0-36.71-2.13-3.64.3-8.49,4.85-8.49,2.13,0,4.25,1.21,5.16,2.73,6.37,11.52,6.68,33.07.3,47.02Z"/>
          <path class="cls-15" d="M877.15,725.7c0,27.91-16.38,47.63-52.79,47.63-44.9,0-63.1-12.43-63.1-34.28,0-9.4,2.73-15.17,6.97-19.42,11.84,10.32,29.74,15.78,52.19,15.78,3.33,0,5.76-2.73,5.76-5.76,0-3.34-2.43-5.77-5.76-5.77-39.44,0-59.16-16.69-59.16-46.42,0-25.18,15.16-44.29,59.16-44.29,30.94,0,50.66,9.1,50.66,29.12,0,9.41-2.73,14.57-5.46,16.99-12.74-8.49-30.94-13.35-54.91-13.35-3.04,0-5.77,2.43-5.77,5.77,0,3.03,2.73,5.76,5.77,5.76,47.02,0,66.44,17.3,66.44,48.24Z"/>
        </g>
        <g>
          <path class="cls-5" d="M203.91,609.54s6.53-28.75,28.82-27.04c22.29,1.71,30.03,70.88,20.25,50.77-13.6-27.98-30.39-30.94-49.07-23.73Z"/>
          <path class="cls-5" d="M122.83,623.51s7.81-39.17,24.41-40.91c15.35-1.62,24.71,8.98,27.85,15.27,3.14,6.29-27.75-29.62-52.26,25.64Z"/>
          <path class="cls-5" d="M452.08,602.97s6.51-21.78,28.82-20.47c34.17,2.01,9.95,72.88,7.77,50.62-4.29-43.85-17.92-37.37-36.6-30.16Z"/>
          <path class="cls-5" d="M371.01,623.51s7.81-39.17,24.41-40.91c15.35-1.62,24.71,8.98,27.85,15.27,3.14,6.29-27.75-29.62-52.26,25.64Z"/>
          <path class="cls-5" d="M803.1,647.18c-3.54-.11-5.83-4.13-.58-6.22,4.69-1.87,22.99-5.84,45.9,1.62,18.81,6.13,18,20.26,18,20.26,0,0-3.72-13.82-63.32-15.66Z"/>
          <path class="cls-5" d="M321.1,584.69c3.54.02,4-5.33.58-6.22-4.88-1.26-11.11-1.52-18.4,1.04-18.67,6.55-11.08,23.46-11.08,23.46,0,0,.71-18.46,28.9-18.28Z"/>
          <path class="cls-5" d="M565.88,584.69c3.54.02,4-5.33.58-6.22-4.88-1.26-11.11-1.52-18.4,1.04-18.67,6.55-11.08,23.46-11.08,23.46,0,0,.71-18.46,28.9-18.28Z"/>
          <path class="cls-5" d="M321.92,651.22c3.54.02,4.79-5.94.56-8.25-4.43-2.42-9.14-2.86-14.62-1.08-18.81,6.13-14.84,27.61-14.84,27.61,0,0,.71-18.46,28.9-18.28Z"/>
          <path class="cls-5" d="M692.2,609.28s-3.53-23.59,14.16-27.65c26.01-5.97,39.43,38.4,25.69,26.53-19.78-17.09-35.1-15.97-39.85,1.12Z"/>
          <path class="cls-5" d="M565.13,651.22c3.54.02,4.79-5.94.56-8.25s-9.14-2.86-14.62-1.08c-18.81,6.13-14.84,27.61-14.84,27.61,0,0,.71-18.46,28.9-18.28Z"/>
          <path class="cls-5" d="M822.91,700.07c-3.49.61-4.79-8.65-.56-12.01s8.83-3.36,14.62-1.57c37.27,11.52,29.11,44.36,29.11,44.36,0,0-5.65-37.3-43.17-30.78Z"/>
          <path class="cls-5" d="M655.87,655.22c3.54.09,3.47-9.26-1.21-11.97-4.9-2.83-9.47-2.49-14.7.59-32.42,19.1-25.48,47.48-25.48,47.48,0,0,3.31-37.07,41.38-36.11Z"/>
        </g>
      </g>
      <g>
        <path class="cls-2" d="M724.04,278.34c35.4-59.27,109.24-23.66,88.85,42.67-19.45,63.28-92.44,93.1-92.44,93.1,0,0-112.73-56.87-88.39-130.82,16.27-49.44,70.71-51.69,91.98-4.95Z"/>
        <g>
          <path class="cls-15" d="M663.07,277.95c-3.35,2.86-5.6,13.65-11.26,11.2-7.12-3.09-.5-16.24,3.31-20.15,9.53-9.79,28.33-12.21,27.72.14-.35,7.03-14.28,4.11-19.78,8.81Z"/>
          <path class="cls-15" d="M651.44,295.75c7.61-2.5,8.89,10.28,4.69,11.74-6.45,2.25-10.23-8.16-4.69-11.74Z"/>
        </g>
      </g>
      <path class="cls-3" d="M679.92,676.3c17-28.46,52.46-11.36,42.67,20.49-9.34,30.39-44.39,44.71-44.39,44.71,0,0-54.13-27.31-42.45-62.82,7.81-23.74,33.96-24.82,44.17-2.38Z"/>
    </g>
  </g>
</svg>