<?xml version="1.0" encoding="UTF-8"?>
<svg xmlns="http://www.w3.org/2000/svg" viewBox="0 0 1000 1000">
  <defs>
    <style>
      .cls-1 {
        fill: #4bb8e9;
      }

      .cls-2 {
        fill: #00abe6;
      }

      .cls-3 {
        fill: #fff;
        font-family: Fredoka-Bold, Fredoka;
        font-size: 487.21px;
        font-variation-settings: 'wght' 700, 'wdth' 100;
        font-weight: 700;
      }

      .cls-4 {
        fill: #fd0;
        stroke: #4bb8e9;
        stroke-miterlimit: 10;
        stroke-width: 3px;
      }

      .cls-5 {
        fill: #fff78f;
      }
    </style>
  </defs>
  <g id="TEXT">
    <text class="cls-3" transform="translate(-4604.29 -616.75)"><tspan x="0" y="0">MAIN LOGO GUIDLINES</tspan></text>
  </g>
  <g id="LOGOS">
    <g>
      <path class="cls-2" d="M533.47,730.53c-11.97,0-23.47-3.4-33.47-9.86-10,6.46-21.5,9.86-33.47,9.86h0c-20.26,0-39.47-10.13-50.97-26.66-3.67.67-7.39,1-11.1,1.01-28.97,0-54.37-20.76-60.5-48.84-15.62-3.4-29.46-12.78-38.38-26.13s-12.29-29.73-9.45-45.46c-13.13-9.11-22.33-23.08-25.46-38.83-3.13-15.75.02-32.17,8.67-45.62-8.64-13.44-11.8-29.87-8.67-45.62,3.13-15.75,12.33-29.71,25.46-38.83-2.84-15.73.53-32.11,9.45-45.46,8.92-13.35,22.77-22.73,38.39-26.13,6.13-28.08,31.52-48.84,60.5-48.84,3.71,0,7.42.34,11.1,1.01,11.5-16.53,30.71-26.66,50.97-26.66,11.97,0,23.47,3.4,33.47,9.86,10-6.46,21.5-9.86,33.47-9.86,20.26,0,39.48,10.13,50.97,26.66,3.67-.67,7.39-1.01,11.1-1.01,28.97,0,54.37,20.76,60.5,48.84,15.62,3.4,29.46,12.78,38.39,26.13,8.92,13.35,12.29,29.73,9.45,45.46,13.13,9.11,22.33,23.08,25.46,38.83s-.02,32.17-8.67,45.62c8.64,13.44,11.8,29.87,8.67,45.62-3.13,15.75-12.33,29.71-25.46,38.83,2.84,15.73-.53,32.11-9.45,45.46-8.92,13.35-22.77,22.73-38.38,26.13-6.12,28.08-31.52,48.84-60.49,48.84-3.71,0-7.42-.34-11.1-1.01-11.5,16.53-30.71,26.66-50.97,26.66Z"/>
      <path class="cls-1" d="M533.47,725.53c-12.11,0-23.66-3.77-33.47-10.92-9.8,7.15-21.36,10.92-33.47,10.92-19.8,0-38.36-10.42-48.66-27.26-4.41,1.06-8.92,1.6-13.41,1.6-27.87,0-51.89-20.63-56.21-48.13-15.68-2.47-29.68-11.41-38.51-24.62s-11.73-29.57-8.01-45c-13.54-8.28-23.05-21.89-26.16-37.49s.48-31.81,9.82-44.64c-9.34-12.83-12.92-29.05-9.82-44.64,3.1-15.59,12.61-29.21,26.16-37.49-3.72-15.43-.82-31.78,8.01-45,8.83-13.22,22.83-22.16,38.51-24.62,4.33-27.5,28.34-48.13,56.21-48.13,4.49,0,9,.54,13.41,1.6,10.3-16.83,28.86-27.26,48.66-27.26,12.11,0,23.66,3.77,33.47,10.92,9.81-7.15,21.36-10.92,33.47-10.92,19.8,0,38.36,10.42,48.66,27.26,4.41-1.06,8.92-1.6,13.41-1.6,27.87,0,51.89,20.63,56.21,48.13,15.68,2.47,29.68,11.41,38.51,24.62,8.83,13.22,11.73,29.57,8.01,45,13.54,8.28,23.05,21.9,26.16,37.49,3.1,15.59-.48,31.81-9.82,44.64,9.34,12.83,12.92,29.05,9.82,44.64s-12.61,29.21-26.16,37.49c3.72,15.43.82,31.79-8.01,45s-22.83,22.16-38.51,24.62c-4.33,27.5-28.34,48.12-56.21,48.13-4.49,0-9-.54-13.41-1.6-10.3,16.83-28.86,27.26-48.66,27.26Z"/>
      <path class="cls-4" d="M505.32,293.89h0c22.38-16.81,54.39-10.44,68.63,13.65h0c2.01,3.4,6.02,5.06,9.84,4.07h0c27.1-6.97,54.25,11.17,58.18,38.88h0c.55,3.91,3.62,6.97,7.53,7.53h0c27.71,3.94,45.84,31.08,38.88,58.18h0c-.98,3.82.68,7.83,4.07,9.84h0c24.09,14.24,30.46,46.26,13.65,68.63h0c-2.37,3.15-2.37,7.49,0,10.65h0c16.81,22.38,10.44,54.39-13.65,68.63h0c-3.4,2.01-5.06,6.02-4.07,9.84h0c6.97,27.1-11.17,54.25-38.88,58.18h0c-3.9.55-6.97,3.62-7.53,7.53h0c-3.94,27.71-31.08,45.84-58.18,38.88h0c-3.82-.98-7.83.68-9.84,4.07h0c-14.24,24.09-46.26,30.46-68.63,13.65h0c-3.15-2.37-7.49-2.37-10.65,0h0c-22.38,16.81-54.39,10.44-68.63-13.65h0c-2.01-3.4-6.02-5.06-9.84-4.07h0c-27.1,6.97-54.25-11.17-58.18-38.88h0c-.55-3.91-3.62-6.97-7.53-7.53h0c-27.71-3.94-45.84-31.08-38.88-58.18h0c.98-3.82-.68-7.83-4.07-9.84h0c-24.09-14.24-30.46-46.26-13.65-68.63h0c2.37-3.15,2.37-7.49,0-10.65h0c-16.81-22.38-10.44-54.39,13.65-68.63h0c3.4-2.01,5.06-6.02,4.07-9.84h0c-6.97-27.1,11.17-54.25,38.88-58.18h0c3.9-.55,6.97-3.62,7.53-7.53h0c3.94-27.71,31.08-45.84,58.18-38.88h0c3.82.98,7.83-.68,9.84-4.07h0c14.24-24.09,46.26-30.46,68.63-13.65h0c3.15,2.37,7.49,2.37,10.65,0Z"/>
      <g>
        <path class="cls-2" d="M631.19,618.72c-19.87,0-35.27-10.28-44.66-21.7-8.98,14.23-21.84,21.7-37.56,21.7-20.84,0-35.38-9.12-44.36-27.87-1.31-.24-2.6-.56-3.85-.93-9.02,19.37-23.76,28.81-44.92,28.81-16.62,0-28.71-6.03-36.73-18.39-10.07,12.06-23.76,18.39-40.03,18.39-23.21,0-38.68-11.39-47.28-34.83-6.94-18.9-9.91-46-9.91-90.61,0-31.86,3.44-55.91,10.53-73.51,9.33-23.19,25.03-34.95,46.66-34.95,17.22,0,30.37,6.67,39.22,19.86,10-12.87,23.09-19.86,37.54-19.86,21.3,0,36.89,11.35,46.35,33.72.17.41.34.82.51,1.23.19-.45.38-.89.57-1.33,9.83-22.31,26.23-33.63,48.74-33.63,14.86,0,29.31,7.2,37.57,18.15,10.59-11.9,23.7-18.15,38.28-18.15,19.35,0,34.81,8.95,42.41,24.56,3.57,7.33,5.37,15.96,5.37,25.65,0,3.99-.28,8.17-.83,12.41-2.33,17.92-9.44,36.65-20.12,53.13,4.62,5.86,8.59,11.8,11.83,17.69,10.71,19.45,12.15,35.7,12.15,49.03-.07,7.33-1.28,14.21-3.59,20.48-7.04,19.08-23.86,30.94-43.88,30.94Z"/>
        <g>
          <path class="cls-1" d="M501.99,464.31c-.52-7.59-1.34-14.95-2.53-21.93-1.68-9.87-4.09-18.97-7.43-26.89-7.86-18.6-20.88-30.67-41.74-30.67-16.08,0-29.13,9.71-37.93,24.27-7.28-15.17-19.72-24.27-38.83-24.27-42.48,0-52.19,50.36-52.19,103.46,0,76.45,8.2,120.44,52.19,120.44,16.68,0,30.94-7.28,40.65-22.75,5.16,11.53,14.57,22.75,36.11,22.75,24.8,0,38.32-13.99,45.4-39.89,5.47-20.04,7.08-47.21,7.08-80.55,0-8.12-.23-16.17-.78-23.97ZM450.29,597.19c-20.63,0-25.49-11.52-28.83-25.18,5.77-15.47,7.89-29.73,5.16-55.82-.3-2.73-2.73-5.16-5.76-5.16-3.34,0-6.07,3.03-5.77,6.07,5.46,57.34-13.35,80.09-41.56,80.09-33.98,0-40.66-34.28-40.66-108.91,0-51.58,8.2-91.93,40.66-91.93,17.9,0,26.7,8.49,31.85,26.09-6.67,16.69-9.4,33.07-7.58,51.88.3,3.03,2.73,5.46,5.76,5.46,3.34,0,6.07-3.03,5.77-6.37-2.73-39.44,12.74-77.06,40.96-77.06,32.76,0,40.95,40.35,40.95,91.93,0,74.63-6.97,108.91-40.95,108.91Z"/>
          <path class="cls-4" d="M491.24,488.28c0,74.63-6.97,108.91-40.95,108.91-20.63,0-25.49-11.52-28.83-25.18,5.77-15.47,7.89-29.73,5.16-55.82-.3-2.73-2.73-5.16-5.76-5.16-3.34,0-6.07,3.03-5.77,6.07,5.46,57.34-13.35,80.09-41.56,80.09-33.98,0-40.66-34.28-40.66-108.91,0-51.58,8.2-91.93,40.66-91.93,17.9,0,26.7,8.49,31.85,26.09-6.67,16.69-9.4,33.07-7.58,51.88.3,3.03,2.73,5.46,5.76,5.46,3.34,0,6.07-3.03,5.77-6.37-2.73-39.44,12.74-77.06,40.96-77.06,32.76,0,40.95,40.35,40.95,91.93Z"/>
          <path class="cls-5" d="M424.77,433.4s6.53-28.75,28.82-27.04,30.03,70.88,20.25,50.77c-13.6-27.98-30.39-30.94-49.07-23.73Z"/>
          <path class="cls-5" d="M343.69,447.37s7.81-39.17,24.41-40.91c15.35-1.62,24.71,8.98,27.85,15.27,3.14,6.29-27.75-29.62-52.26,25.64Z"/>
        </g>
        <g>
          <path class="cls-1" d="M656.59,515.68c-3.44-6.25-7.89-12.86-13.65-19.82,11.44-16.65,19-35.95,21.36-54.06.52-4,.79-7.93.79-11.77,0-9.23-1.75-17.05-4.87-23.46-7.04-14.47-21.09-21.75-37.91-21.75s-29.43,8.8-38.84,21.84c-6.37-13.65-22.45-21.84-37.01-21.84-22.29,0-35.99,12.08-44.17,30.65-3.57,8.1-6.09,17.45-7.81,27.56-1.12,6.57-1.9,13.48-2.42,20.58-.58,8.03-.82,16.32-.82,24.67,0,33.7,1.59,61.11,7.15,81.2,7.04,25.49,20.44,39.24,45.04,39.24,16.68,0,29.12-9.4,37.01-26.09,7.89,13.05,23.97,26.09,45.21,26.09,17.88,0,32.82-10.4,39.19-27.66,2.05-5.58,3.21-11.87,3.28-18.76,0-11.88-1.03-27.55-11.53-46.62ZM625.65,597.19c-21.85,0-36.41-16.08-39.44-28.82,3.64-12.74,5.46-28.21,5.46-42.78,0-3.33-2.43-5.76-5.77-5.76-3.03,0-5.76,2.43-5.76,5.76,0,45.21-13.05,71.6-36.71,71.6-33.98,0-40.66-34.28-40.66-108.91,0-51.58,8.19-91.93,43.69-91.93,14.56,0,28.52,8.49,29.13,23.36-8.8,18.51-12.44,41.26-10.93,57.04.31,3.03,2.73,5.46,5.77,5.46,3.34,0,6.07-2.73,5.76-6.07-3.33-34.89,14.26-79.79,46.12-79.79,19.11,0,31.25,10.01,31.25,33.68,0,26.09-13.05,56.43-34.89,76.45-2.13,1.82-2.43,4.85-.91,7.28,2.12,3.04,6.37,3.34,9.1.61,3.03-2.73,6.07-5.77,8.8-9.1,19.42,23.96,20.93,42.17,20.93,57.03-.3,22.76-12.44,34.89-30.94,34.89Z"/>
          <path class="cls-4" d="M656.59,562.3c-.3,22.76-12.44,34.89-30.94,34.89-21.85,0-36.41-16.08-39.44-28.82,3.64-12.74,5.46-28.21,5.46-42.78,0-3.33-2.43-5.76-5.77-5.76-3.03,0-5.76,2.43-5.76,5.76,0,45.21-13.05,71.6-36.71,71.6-33.98,0-40.66-34.28-40.66-108.91,0-51.58,8.19-91.93,43.69-91.93,14.56,0,28.52,8.49,29.13,23.36-8.8,18.51-12.44,41.26-10.93,57.04.31,3.03,2.73,5.46,5.77,5.46,3.34,0,6.07-2.73,5.76-6.07-3.33-34.89,14.26-79.79,46.12-79.79,19.11,0,31.25,10.01,31.25,33.68,0,26.09-13.05,56.43-34.89,76.45-2.13,1.82-2.43,4.85-.91,7.28,2.12,3.04,6.37,3.34,9.1.61,3.03-2.73,6.07-5.77,8.8-9.1,19.42,23.96,20.93,42.17,20.93,57.03Z"/>
          <path class="cls-5" d="M594.06,426.83s6.51-21.78,28.82-20.47c34.17,2.01,9.95,72.88,7.77,50.62-4.29-43.85-17.92-37.37-36.6-30.16Z"/>
          <path class="cls-5" d="M512.99,447.37s7.81-39.17,24.41-40.91c15.35-1.62,24.71,8.98,27.85,15.27,3.14,6.29-27.75-29.62-52.26,25.64Z"/>
        </g>
        <g>
          <path class="cls-1" d="M541.3,538.15c0-13.14-3.06-23.72-9.1-31.43-6.2-7.9-15.35-12.25-25.78-12.25-20.82,0-34.27,17.15-34.27,43.68s13.45,43.37,34.27,43.37c16.86,0,34.88-11.39,34.88-43.37ZM482.15,538.15c0-20.02,8.5-33.68,24.27-33.68,14.57,0,24.88,11.23,24.88,33.68s-10.31,33.37-24.88,33.37c-15.77,0-24.27-13.35-24.27-33.37Z"/>
          <path class="cls-4" d="M506.42,571.52c-15.77,0-24.27-13.35-24.27-33.37s8.5-33.68,24.27-33.68c14.57,0,24.88,11.23,24.88,33.68s-10.31,33.37-24.88,33.37Z"/>
          <path class="cls-5" d="M494.71,540.53c.02,3.54-5.33,4-6.22.58-1.26-4.88-1.52-11.11,1.04-18.4,6.55-18.67,23.46-11.08,23.46-11.08,0,0-18.46.71-18.28,28.9Z"/>
        </g>
      </g>
    </g>
  </g>
</svg>