<?xml version="1.0" encoding="UTF-8"?>
<svg id="Elements" xmlns="http://www.w3.org/2000/svg" viewBox="0 0 1000 1000">
  <defs>
    <style>
      .cls-1 {
        fill: #231f20;
      }
    </style>
  </defs>
  <path class="cls-1" d="M690.86,487.14c-7.8,0-15.5-2.05-22.28-5.97-9.3,5.37-20.3,7.23-30.94,5.12-10.64-2.12-20.1-8.05-26.63-16.57-10.64,1.41-21.53-1.09-30.55-7.11-9.02-6.03-15.49-15.13-18.26-25.5-10.37-2.78-19.47-9.25-25.5-18.26-6.02-9.02-8.52-19.91-7.12-30.55-8.52-6.53-14.45-16-16.57-26.63-2.12-10.64-.25-21.65,5.12-30.94-5.37-9.3-7.23-20.31-5.12-30.94,2.12-10.64,8.05-20.1,16.57-26.63-1.4-10.64,1.09-21.53,7.12-30.55,6.03-9.02,15.13-15.48,25.5-18.26,2.78-10.37,9.25-19.48,18.26-25.5,9.02-6.02,19.91-8.52,30.55-7.11,6.53-8.52,16-14.45,26.63-16.57,10.64-2.11,21.65-.25,30.94,5.12,9.3-5.37,20.31-7.23,30.94-5.12,10.64,2.12,20.1,8.05,26.63,16.57,10.64-1.41,21.53,1.09,30.55,7.11,9.02,6.03,15.49,15.13,18.26,25.5,10.37,2.78,19.47,9.25,25.5,18.26,6.02,9.02,8.52,19.9,7.11,30.55,8.52,6.53,14.45,16,16.57,26.63,2.12,10.64.25,21.65-5.12,30.94,5.37,9.3,7.23,20.31,5.12,30.94-2.12,10.64-8.05,20.1-16.57,26.63,1.4,10.64-1.09,21.53-7.11,30.55-6.03,9.02-15.13,15.49-25.5,18.26-2.78,10.37-9.25,19.47-18.26,25.5-9.02,6.02-19.91,8.51-30.55,7.11-6.53,8.52-16,14.45-26.63,16.57-2.87.57-5.77.85-8.66.85ZM668.58,453.11c4.07,0,8.14,1.28,11.53,3.83,4.12,3.09,9.17,4.24,14.22,3.24,5.05-1,9.28-4,11.9-8.43,4.32-7.31,13.08-10.94,21.3-8.83,4.99,1.28,10.1.41,14.38-2.45,4.28-2.86,7.04-7.25,7.76-12.34,1.19-8.41,7.9-15.11,16.31-16.31,5.1-.72,9.48-3.48,12.34-7.76,2.86-4.28,3.73-9.39,2.45-14.38-2.11-8.23,1.52-16.99,8.82-21.31,4.43-2.62,7.43-6.85,8.44-11.9,1-5.05-.15-10.1-3.24-14.22-5.1-6.79-5.1-16.27,0-23.06,3.09-4.12,4.24-9.17,3.24-14.22-1-5.05-4-9.28-8.43-11.9-7.31-4.32-10.94-13.08-8.83-21.3,1.28-4.99.41-10.1-2.45-14.38-2.86-4.28-7.25-7.04-12.34-7.76-8.41-1.19-15.11-7.9-16.31-16.31-.72-5.1-3.48-9.48-7.76-12.34-4.28-2.86-9.38-3.73-14.38-2.45-8.22,2.12-16.99-1.52-21.31-8.82-2.62-4.43-6.85-7.43-11.9-8.44-5.05-1-10.1.14-14.22,3.24h0c-6.79,5.11-16.28,5.1-23.07,0-4.11-3.09-9.17-4.24-14.22-3.24-5.05,1-9.28,4-11.9,8.43-4.32,7.31-13.08,10.94-21.3,8.83-4.99-1.28-10.1-.41-14.38,2.45-4.28,2.86-7.04,7.25-7.76,12.34-1.19,8.41-7.9,15.11-16.31,16.31-5.1.72-9.48,3.48-12.34,7.76-2.86,4.28-3.73,9.39-2.45,14.38,2.11,8.23-1.52,16.99-8.83,21.31-4.43,2.62-7.43,6.85-8.44,11.9-1,5.05.15,10.1,3.24,14.22,5.1,6.79,5.1,16.27,0,23.06-3.09,4.12-4.24,9.17-3.24,14.22,1,5.05,4,9.28,8.43,11.9,7.31,4.32,10.94,13.08,8.83,21.3-1.28,4.99-.41,10.1,2.45,14.38,2.86,4.28,7.24,7.04,12.34,7.76,8.41,1.19,15.11,7.9,16.31,16.31.72,5.1,3.48,9.48,7.76,12.34,4.28,2.86,9.39,3.73,14.38,2.45,8.22-2.11,16.99,1.52,21.31,8.82,2.62,4.43,6.85,7.43,11.9,8.44,5.05,1,10.1-.15,14.22-3.24,3.39-2.55,7.46-3.83,11.53-3.83Z"/>
  <path class="cls-1" d="M358.17,255.49h0c8.31,22.46,26.02,40.17,48.48,48.48h0c24.83,9.19,24.83,44.31,0,53.49h0c-22.46,8.31-40.17,26.02-48.48,48.48h0c-9.19,24.83-44.31,24.83-53.49,0h0c-8.31-22.46-26.02-40.17-48.48-48.48h0c-24.83-9.19-24.83-44.31,0-53.49h0c22.46-8.31,40.17-26.02,48.48-48.48h0c9.19-24.83,44.31-24.83,53.49,0Z"/>
  <path class="cls-1" d="M642.09,599.82l-61.61,106.71c-12.39,21.47,3.1,48.3,27.88,48.3h123.21c24.79,0,40.28-26.83,27.88-48.3l-61.61-106.71c-12.39-21.47-43.38-21.47-55.77,0Z"/>
  <path class="cls-1" d="M413.26,825.7c-8.68,0-17.46-1.53-26.02-4.66-36-13.18-75.65-13.18-111.64,0-27.66,10.13-57.77,3.48-78.6-17.35-20.82-20.82-27.47-50.94-17.34-78.59,13.18-36,13.18-75.65,0-111.64-10.13-27.65-3.48-57.77,17.34-78.59,20.82-20.83,50.94-27.47,78.6-17.35h0c36,13.18,75.65,13.18,111.64,0,27.66-10.13,57.77-3.48,78.6,17.35,20.82,20.82,27.47,50.94,17.34,78.59-13.18,36-13.18,75.65,0,111.64,10.13,27.65,3.48,57.77-17.34,78.6-14.38,14.38-33.2,22-52.58,22ZM249.43,539.44c-12.37,0-24.24,4.9-33.59,14.25-13.61,13.61-17.79,32.53-11.17,50.61,15.34,41.9,15.34,88.05,0,129.96-6.62,18.08-2.44,37,11.17,50.61,13.61,13.61,32.53,17.79,50.61,11.17,41.9-15.34,88.05-15.34,129.95,0,18.08,6.62,37,2.44,50.61-11.17,13.61-13.61,17.79-32.53,11.17-50.61-15.34-41.9-15.34-88.05,0-129.96,6.62-18.08,2.44-37-11.17-50.61-13.61-13.61-32.54-17.79-50.61-11.17-41.9,15.34-88.05,15.34-129.96,0h0c-5.65-2.07-11.39-3.09-17.02-3.09Z"/>
</svg>