<?xml version="1.0" encoding="UTF-8"?>
<svg xmlns="http://www.w3.org/2000/svg" viewBox="0 0 1000 1000">
  <defs>
    <style>
      .cls-1 {
        fill: #55b6dd;
      }

      .cls-2 {
        fill: #f8e982;
      }

      .cls-3 {
        fill: #cbb5b8;
      }

      .cls-4 {
        fill: #993431;
      }

      .cls-5 {
        fill: #f8f7f6;
      }

      .cls-6 {
        fill: #fee984;
      }

      .cls-7 {
        fill: #4bb8e9;
      }

      .cls-8 {
        fill: #fdfdfc;
      }

      .cls-9 {
        fill: #d83430;
      }

      .cls-10 {
        fill: #41482b;
      }

      .cls-11 {
        fill: #f4f0ee;
      }

      .cls-12 {
        fill: #fbf7c3;
      }

      .cls-13 {
        fill: #00abe6;
      }

      .cls-14 {
        fill: #96ca87;
      }

      .cls-15 {
        fill: #4ba44b;
      }

      .cls-16 {
        fill: #221f1e;
      }

      .cls-17 {
        fill: #fed800;
      }

      .cls-18 {
        fill: #f6d816;
      }

      .cls-19 {
        fill: #85aad4;
      }

      .cls-20 {
        fill: #e98e88;
      }
    </style>
  </defs>
  <g id="BG">
    <rect class="cls-12" y="0" width="1000" height="1000"/>
  </g>
  <g id="LOGO_VARIATION" data-name="LOGO VARIATION">
    <g>
      <g>
        <path class="cls-16" d="M683.21,268.22c-.66.57-5.08,3.5-5.99,4-1.21.66-2.83,1.93-3,2-.24.09-4.47.94-5,1-2.96.33-10.17.44-12.99,0-2.15-.34-8.85-4.32-10.41-3.93-1.94.49-1.25,3.45-1.57,3.93-.67,1.01-2.79,3.35-4,5-8.49,11.64-17.48,19.76-30.89,25.55l7.14,25.67c6.17,4.96,11.05,7.43,13.31,15.67s-.34,13.42.54,20.44c.57,4.48,4.98,10.71,4.79,15.12-.09,1.99-1.93,3.34-1.86,5.85.08,2.88,3.59,10.63,4.48,14.58,1.56,6.89,2.86,13.91,3.52,20.95,7.78.73,14.84.89,19.93,7.54,1.65,2.15,2.03,5.15,3.99,6.48.56-8.42.52-26.62,13.74-21.21,3.1,1.27,4.53,6.29,6.58,6.13,1.44-.12,8.3-6.52,11-8.06,7.77-4.42,19.83-7.69,27.64-1.83,9.62,7.22,10.06,25.24,7.99,35.96-1.11,5.75-4.59,14.92-7.28,20.19-1.27,2.47-7.28,10.47-7.42,11.42-.33,2.23,1.94,5.63-.19,8.76-.71,1.04-1.87.43-2.08.59,1.95-10.43-.06-9.54-7.99-15.98h-1c-.54-1.85-7-7.69-8.99-7.99-.26-.04-.76-.07-1,0-.52-3.19-8.27-8.61-10.99-8.99-.28-.37-.72-.64-1-1-4.6-5.97-11.76-9.26-17.62-13.89h-1.27s-6.09,7.89-6.09,7.89l5.99-8.98c-4.37-1.02-10.3,3.92-8.92,8.37.53,1.71,2.64,1.34,2.92,1.61,1.27,1.23,4.53,6.36,6.39,5.96l8.59-7.95c-1.26,2.19-7.23,7.24-6.8,9.33.34,1.63,7,6.07,8.8,7.65.61.53,1.05,1.24,2,2,2.56,2.05,8.24,7.28,10.99,7.99.27.07.69.01,1,0,.85,3.62,6.04,5.73,8.99,7.99.49.38.99,1.26,2,2,1.25.92,9.06,6.81,9.65,6.83,1.35.04,3.1-1.92,4.34-2.83-1.8,9.62-3.42,18.78-7.79,27.67-6.87,13.96-17.8,26.7-26.19,39.75,4.14,4.04,20.81,2.15,23.09,4.96.85,1.04.51,3.33,1.53,3.62,2.32.65,11.53-1.94,7.93,2.98-1.97,2.69-8.33-1.85-9.43,1.56-2.09,6.52,7.37,1.9,8.87,3.39.38.38.1,2.86-.98,3.55-1.22.77-6.82-1.45-9-.55-2.19,7.39,6.99,1.43,8,6.99-4.08.11-9.1.67-12.99,2-.31-4.98,5.29-16.06,3.9-20.33-.95-2.9-8.13-1.29-10.89-1.65-3.44-.44-10.44-3.22-12.46-3.02-3.25.33-3.18,3.61-4.52,5.01-3.12,3.28-24.6,22.85-24.9,24.61-.53,3.04,7.91,7.12,9.92,8.35,1.23.75,1.91,2.07,4.31,3.19,3.56,1.65,7.91,2.63,11.68,3.81-.58,1.1-1.77,2.46-2,3-10.33-.88-19.15-8.18-26.62-14.83-2.75-.53-12.14,9.85-15.42,11.27-2.05,2.13.04,4.7.08,7.07.12,7.74.82,11.01,1.89,18.08.83,5.43,2,10.86,2.11,16.38-1.77.6-4.44.76-5,1-.74-5.93,3.02-17.84-5.99-16.99,4.98-3.14,1.87-4.51,1.94-9.45.06-4.07.91-7.55,1.06-11.52-4-.48-5.6,6.28-8,4.48-.8-6.82,13.66-15.82,18.52-20.44,19.56-18.62,68.09-67.43,71.29-93.54.25-2.04.37-4.22-.05-6.23-20.61-11.17-39.43-27.98-55.28-45.1-8.37,7.96-16.7,16.03-23.29,25.64-7.05,10.29-11.28,22.15-18.75,32.2-15.91,21.4-40,38.9-65.33,47.1l3.98,30.91c-.76.13-2.82.73-4,1-.31-3.67-1.53-7.38-2-10.99-.78-5.94-1.28-12.02-2-17.98s-1.03-10.91-2-16.98c-1.19-7.5-1.49-10.59-4-17.98-1.53-4.53-1.61-8.92-6.04-12.45-7.63-6.08-30.81-1.16-37.9,5.95,5.12,2.8,5.89,7.25,6.97,12.49s2.07,12.54,2,17.98c-.07,5.18-1.43,11.64-2,16.98-.62,5.83-1.71,12.24-2,17.98-.07,1.33.05,2.67,0,4-1.15-.23-3.64-.96-4-1l2-16.97c-3.72-.55-8.12,4.6-9.56-.04-3.52,2.35-11.9-.22-14.46,1.49-1.87,1.25-3.88,13.68-4.95,16.53-.25.16,1.15,2.33-4,3l.99-17.98c-3.55-.41-2.51,6.05-6.5,6.04-3,0-2.87-4.23-3.98-6.04-3.01,4.26-4.82,9.1-6.5,13.98-.14.41-1.44,1.12-1.8,2.65-2.11,9.12,2.18,4.84,6.79,9.34-.96,1-2,1.96-3,3-.57.18-1.63,1.05-2,1,2.89-3.91-1.81-3-4.02-5.47-5.94-6.65,7.75-18.62,5.02-26.5-21.04-.76-43.34-2.96-63.95-7.48-9.83-2.16-32.92-8.11-38.4-16.54-5.1-7.83-.47-13.58-1.7-18.2-.3-1.12-3.62-4.53-4.65-6.42-8.36-15.41-12.25-33.64-5.95-50.51,1.36-3.65,9.73-15.12,9.59-16.04-.53-3.5-11.73-12.9-15.82-11.17,2.07,1.39,5.68,7.25,4.55,9.49-.52,1.04-16.87,10.14-19.85,12.18-7.37,5.06-15.66,11.71-21.69,18.27-2.25,2.44-10.47,12.19-11.43,14.55-3.37,8.33,3.23,20.37,7.28,27.61,11.41,20.35,27.74,37.62,44.18,53.73,2.07,2.03,5.43,5.99,6.94,8.54-.62-.1-1.36.08-2,0-3.18-.41-5.66-.86-8.99-1-6.69-10.1-16.24-18.14-23.95-27.5-8.06-9.78-27.62-35.75-29.76-47.16-.82-4.37,1.01-11.89.61-13.69-.1-.46-4.49-3.39-5.42-7.49-.78-3.46.64-5.79.34-7.44-.17-.97-9.28-13.29-10.75-16.6-1.47-3.3-1.59-8-4-10.99.1-3.03-1.01-5.46-1-7.99.04-6.94-.6-16.53,2-22.98,1.23-3.04,6.18-6.94,6.99-8.99,2.32-1.03,4.38-2.63,6.99-3,6.31-.88,11.84.37,17.5,2.98,3.88,1.8,12.62,9.82,13.97,10.04,2.06.32,3.53-6.89,6.75-7.27,13.73-5.11,11.06,15.33,13.99,18.96,1.53,1.89,10.6,3.08,13.78,4.7,1.81.92,12.17,10.44,12.92,9.55-2.23-24.33-1.44-49.9,7.52-72.91,1.3-3.35,6.35-10.96,6.49-13.6.12-2.34-3.18-5.78-3.77-9.14-2.45-14.07,7.2-16.79,10.96-26.52,5.37-13.85,1.1-21.44,17.1-30.86,5.52-3.25,14.54-4.5,17.94-6.78,3.17-2.13,11.51-13.54,15.69-17.54,20.87-19.97,46.41-34.43,72.94-45.44,5.49-.56,13.04-3.52,17.98-5.99,3.04-.16,5.53-.79,7.99-1,6.88-.58,12.83-1.77,19.98-2,7.63-.24,15.44-.18,22.98,1,8.71,1.36,17.35,4.7,24.98,8.99,8.97,5.05,16.52,12.01,23.98,18.98,1.37,3,12.19,12.87,15.43,14.03,12.52,4.48,4.54-6.77,3.55-13.03-.34-2.11.26-4.8,0-6.99,1.83-1.82,1.4-4.8,2-6.99.42-1.52,1.32-4.82,2-5.99,8.14-14.15,29.08-20.07,43.64-13.17,20.63,9.78,24.41,38.25,7.31,53.13ZM681.21,225.26c-4.87-4.9-6.75-7.89-14.57-8.9-21.61-2.81-41.24,17.87-32.18,39.16,4.35,10.22,8.83-.93,15.77-1.28.28.29-.71,6.88-.99,7.99-.22.87-3.33,3.33-1.91,5.9,24.28,12.82,50.06-9.55,40.04-35.54-.61-1.58-2.07-4.73-3.14-5.89s-2.81-1.21-3.03-1.43ZM508.38,227.26c-7.83.22-19.09,5.35-25.97,8.99-6.72.84-19.49,8.76-24.98,12.99-5.28.89-16.12,10.75-20.98,13.99-3.99,1.53-10.91,8.72-13.99,11.99-5.12,2.17-10.97,9.38-13.99,13.98,15.87-1.38,32.69-5.92,48.47-6.97,32.4-2.16,69.62,5.35,99.39,17.97,18.69,7.92,36.75,19.08,54.46,28.96,2.42.33,1.26-.65,1.08-2.07-.41-3.24-1.74-5.97-2.59-8.91-1.17-4.06-3.26-13.43-5.99-15.98-1.49-6.12-4.62-14.64-8.99-18.98.49-5.98-3.35-11-5-15.98-.75-2.26-2.7-8.92-3-10.99-.09-.64.06-1.35,0-2,5.87,11.33,10.65,23.3,15.98,34.97.87,1.9,4.12,10.98,4.94,11.56,2.17,1.55,3.61-1.03,5.05-1.57,5.6-2.08,7.29-3.11,11.99-6.99,4.54-3.75,5.62-5.7,8.99-9.99,3.1-3.95,3.5-4.78,5.99-8.99.23-.39,1.51-.97,2.19-2.25,1.77-3.33,3.15-6.85,4.78-10.25-3.51-.52-7.68,3.76-9.97,4.51-.34.11-6.57,1.01-6.99,1-2.54-.04-6.66-1.77-8.99-3-5.13-2.7-7.98-7.09-11.99-10.99-5.48-5.33-10.12-12.66-17.98-14.99-8.28-9.73-26.56-14.19-38.96-14.99-13.96-.9-29.93-.2-42.96,5ZM360.52,355.13c.24,1.31,2.43,5.06,3.98,3.99.22-.15.87-2.74,3.07-4.43,14.53-11.16,63.55-18.73,82.32-19.58,62.86-2.83,125.02,21.48,177.91,52.99,9.44-3.17-4.79-22.72-2.54-25.98l1.98,1.01c.9-11.71-.39-18.86-9.98-25.98-22.74-16.88-73.07-39.22-100.7-45.66-33.79-7.88-90.03-6.89-122.6,5.69-22.75,8.78-16.17,16.59-23.96,33.98-3.79,8.45-11.56,12.71-9.49,23.98ZM488.24,516.81c.29-.18,1.48-4.03,3.64-5.84,5.95-4.99,22.39-8.59,30.03-8.02,5.03.38,9.74,4.12,12.84,4,5.61-.21,26.66-10.26,32.59-13.43,6.13-3.28,33.2-20.57,35.42-25.52,2.42-5.41,1.37-16.34.28-22.2-.54-2.91-2.4-5.09-2.77-8.22-1.11-9.21.82-20.32-.1-29.88-.68-7.16-8.35-34.16-13.92-38.03-4.02-2.79-17.62-7.94-22.93-10.04-14.02-5.53-43.09-15.6-57.46-16.51-6.84-.43-11.74,5.09-15.97,9.99-14.74,17.09-19.79,44.42-19.51,66.49.07,5.63.89,19.68,2.26,24.71,2.9,10.67,20.75,7.88,26.06,11.65,5.94,4.22-1.12,22.67-3.29,28.55-4.93,13.4-11.63,24.58-23,33.44,2.87-.12,13.97-.01,15.83-1.15ZM450.79,514.62c-9.76-9.99-10.83-27.03-18.48-36.96-3.21-4.16-11.91-5.33-7.9-12.19,3.77-6.44,19.88-15.04,20.97-21.98.6-3.81.25-10.82.05-14.92-1.1-22.71-8.71-65.23-33.98-72.91-36.11-10.97-56.6,39.11-54.96,67.95,1.05,18.54,2.88,20.26-1.47,39.41-2.31,10.17-1.97,33.49,5.48,41.49,4.21,4.52,26.83,8.98,33.78,10.18,20.42,3.53,41.45,4.56,62.14,4.28-.92-1.97-4.05-2.73-5.63-4.34ZM714.2,476.99c1.89,1.18,7.26-8.49,8.14-10.3,5.37-11.02,8.96-26.9,5.54-38.85-4.86-16.97-19.3-15.5-32.01-7.6-2.39,1.49-9.93,8.87-11.18,8.87-3.01.01-4.23-8.28-8.44-9.66-7.84-2.56-7.57,16.94-6.82,21.39,16.09,9.53,29.68,22.39,44.01,34.19.94.77.67,1.9.76,1.96ZM315.39,439.88c1.29-2.09-1.44-17.9-3.8-19.34-7.11-4.35-8.54,10.13-12.38,9.44-.77-.14-9.02-8.44-11.93-10.11-39.74-22.76-37.72,39.76-18.17,57.12,8.21-12.27,17.79-22.85,30.8-30.12,2.64-1.47,15.04-6.26,15.48-6.99ZM662.23,439.04c-1.56-9.31-11.71-12.58-19.98-12.98v9.99c10.74-5.74.81,4.13-2.53,6.96-4.31,3.67-11.27,6.74-14.83,9.94-2.25,2.01,2.14,2.7,3.83,5.12,1.49,2.13,1.64,4.83,3.03,6.95,8.63-10.43,18.44-20.12,30.48-25.98ZM316.57,443.05c-7.02,1.76-17.29,6.53-21.98,11.99-.21-.06-.78-.06-1,0-2.36.6-8.69,6.13-8.99,8.99-.23-.06-.77-.06-1,0-1.73.45-4.11,3.74-5.25,5.25-1.35,1.8-1.56,4.5-1.75,4.74-.09.12-1.8.12-2.41,1.04-3.22,4.9-7.46,12.84-2.1,17.95,2.82,2.69,2.83,1.82,4.51-.01.64-.7.72-1.64,1-2,2.92-3.65,4.52-8.74,5-8.99,5.32-2.89,4.73-3.96,8.99-7.99.34-.32.65-.68,1-1,2.06-1.88,5.97-5.43,7.99-6.99.35-.27,1.27-.45,2-1,3-2.26,7.04-3.77,8.99-6.99.33-.01.67.02,1,0,2.65-.15,5.48-2.76,7.99-4,1.32-.65,2.68-1.39,4-2,3.29-1.53,6.74-1,2.47-6.97-2.08-2.9-6.14-3.53-9.47-3.02-.31.05-.72.93-1,1ZM496.39,457.04c-.52-.54-11.06-.58-14.79-1.7-8.53-2.57-15.76-10.55-25.37-10.06-11.09.56-20.42,14.72-28.83,21.2l-.89,2.92c7.9,8.64,13.95-.46,21.4-1.4,12.51-1.57,23.57,5.21,37.03.06,2.44-.94,14.52-7.84,11.45-11.02ZM347.53,455.04c-.21-.2-2.32-.34-3.07.61-.45.57-3.52,6.49-4.1,7.7-5.87,12.36-7.71,27.12-4.1,40.42,1.38,5.08,4.45,9.09,5.29,14.2,2.44-1.29-.14-5.86.02-8.36.43-6.7,6.89-9.66,7.03-10.29.36-1.7-3.74-11.63-4.1-15.77-.29-3.39-.23-8.59.05-12.01.21-2.63,3.58-15.91,2.98-16.49ZM616.27,490c5.97-8.75,19.17-26.47,4.93-33.54-2.41,1.17-4.11,3.22-5.97,5.05s-4.55,6.22-5.95,7.51c-3.7,3.41-11.66,9.73-15.98,12.99-4.67,3.51-14.11,10.13-18.98,12.99-3.79,2.22-15.47,8.49-18.98,9.99-.67.28-2.66-.09-4,.44-4.92,1.95-9.77,3.96-14.97,5.04,6.98,11.91,7.92,26.09,9.99,39.47,4.63-2.29,9.6-4.01,14.26-6.24,1.06-.51,1.51-1.64,1.71-1.75,9.11-4.65,12.6-6.3,20.98-12.99,3.63-2.9,17.67-13.88,17.98-17.98,2.17-.05,2.66-1.34,3.82-2.66,3-3.43,10.68-14.15,11.16-18.32ZM497.38,463.03c-2.02-.32-2.92,1.23-3.76,2.73-2.43,4.36-3.45,13.09-6.06,18.92-4.18,9.35-17.11,30.07-29.17,26.83-5.36-1.44-10.55-11.23-12.82-16.15-1.25-2.7-6.47-18.55-7.26-19.21-.37-.31-3.72-.25-3.87-.12-.79.69,7.27,17.56,8.13,19.33,9.14,18.8,18.95,32.98,37.33,11.64,9.94-11.54,15.78-28.99,17.46-43.96ZM477.15,478.25c-6.99,1.21-15.56,7.77-19.14,13.83-2.42,4.1-6.67,13.77-.56,16.37,12.27,5.22,25.78-20.14,29.93-28.95-.13-2.23-8.45-1.56-10.23-1.25ZM360.52,508.98c-3.9-2.02-10.23-9.32-13.75-5.74-6.59,6.71,3.34,17.99,8.75,22.23-3.97,2.51-4.2-2.97-7.98-2.5-2.22,14.94-3.44,18.31,9.98,24.98,8.86,4.4,13.88,4.02,21.98,5.99,8.44,2.06,15.85,4.64,24.98,5.99,8.45,1.25,16.99,1.31,24.98,2,10.32.89,18.16,1.82,28.97,2,10.23.16,16.92-.19,26.97-1,3.28-.27,6.7.19,10,0-1.36-5.64,1.51-10.58,2-15.48.89-8.92-.77-19.16-4.11-27.41-2.62.46-5.24.65-7.89.93-9.18.97-17.73,1.72-26.97,2-6.23.19-24.63,1.59-28.97,1-7.41-1.01-16.18-1.94-23.98-3-4.82-.65-21.68-3-24.98-4-4.07-1.23-15.83-5.85-19.98-7.99ZM460.42,567.93h-4.99s1.01,4.99,1.01,4.99c.5.37,5.07-4.03,3.98-4.99Z"/>
        <path class="cls-16" d="M277.6,476.01c-.05-.12-2-.77-1-2,.85-1.04.91,1.91,1,2Z"/>
        <path class="cls-16" d="M282.6,482.01l-1-1,1,1Z"/>
        <path class="cls-16" d="M281.6,481.01c-.39-.28-.68-.65-1-1,.2.34.75.62,1,1Z"/>
        <path class="cls-16" d="M277.6,476.01c.14.14,1.39-.19,1.71.28.51.75.19,1.58.29,1.72-.28-.36-.57,1.08-2-2Z"/>
        <path class="cls-16" d="M280.6,480.01c-.68-.72-.73-1.66-1-2,.54.76.66,1.42,1,2Z"/>
        <path class="cls-4" d="M654.24,282.2c3.92,3.4,9.27,9.88,12.99,13.99,4.7,5.19,8.76,10.88,13.14,16.33,1.12,1.39,1.7,2.69,3.84,2.65.08,3.49,11.25,17.25,13.99,20.98.46,3.79,10.55,19.07,12.99,23.98,3.89,7.84,6.41,16.47,10.99,23.98-.46,5.62,6.29,20.36,7.99,26.97,1.76,6.82,2.39,14.15,4,20.98,1.04,4.43,2.36,10.38,5,13.99-.37.26-.58,1.57-1,2-.54.55-2.67.74-2.87,1.1-1.61,2.79,1.56,3.65,3.87,3.9-1.19,3.56,1.63,7.5,2,9.99.67,4.48,1.69,12.57,2,16.98.57,8.08.72,17.02,1,24.98.27,7.61-.04,15.35,0,22.98.02,4.98-.03,10,0,14.99,2.06-2.51,11.35-7.53,11.98-9.99,3.19.26,5.4-3.11,6.99-4,1.21-.67,4.87.15,5.83-2.66,1.03-3.03.24-18.75.16-23.31-.12-7.4-1.82-16.29-.75-23.23.14-.88.43-3.01,1.73-2.73l4.01,3.99c-.29.41-.08,8.44,0,9.99l1,4c.17,2.23,1,6.35,1,7.49v22.48c29.09-7.71,62.36,10.02,67.85,40.54,2.73,15.15-3.07,54.36-20.87,58.89-7.44,1.89-16.19.25-21-6.03-12.09-15.75,12.79-32.76,2.84-49.8-6.13-10.51-23.05-10.44-30.62-1.95-2.14,20.6-5.29,41.16-10.19,61.24-3.43-2.18-4.06-7.26-4-10.99.03-1.85.65-4.99,1-6.99,1.41-8.16,3.85-16.54,5-24.98.5-3.68.97-7.53,1.26-11.24.1-1.18,1.97-1.98-.75-1.74-6.01,5.78-10.92,12.64-15.36,19.66-.74,1.17-.77,2.7-1.14,3.31-.81,1.3-2.37,2.17-3,3-2.99.11-3.29-3.41-4-4,3.03-3.67,5.35-9.23,7.99-12.99,2.1-2.98,5.52-7.31,7.99-9.99,3.66-3.96,11.24-10.67,15.98-12.99,1.87-.91,9.38-3.79,10.99-4,2.62-.34,14.88,1.84,16.98,3,4.08,2.24,10.48,13.16,10.99,17.98.68,6.44-1.9,13.09-4,18.98-1.63,4.59-3.22,5.45-4,10.99-.48,3.43-1.75,9.18,2.27,11.75.98.63,2.28.04,2.72.23,3,1.34,2.44,2.15,6.99,2,9.7-.32,16.44-14.16,15.98-22.98,2.75-1.96,4.69-11.41,5-14.99.71-8.21-.97-15.44-4-22.98-2.23-5.55-3.56-6.73-6.99-10.99-7.6-9.45-12.23-11.71-23.98-14.99-8.71-2.42-10.76-2.96-19.98-2-11.37,1.18-14.67,3.02-23.98,8.99-7.08,4.54-8.25,6.13-13.99,11.99-6.37,6.5-10.81,11.28-15.98,18.98-3.22,4.79-6.02,10.03-8.99,14.99-1,0-2,0-3,0-.54-.19-2.84-.97-3-1,2.28-4.75,4.75-9.45,7.58-13.9s14.84-18.8,15.35-21.61c.75-4.06-.11-10.49,0-14.98.57-22.79-.47-45.84-3.08-68.77-.57-5.04-1.17-10.85-2.87-15.61,2.06-10.73,1.63-28.74-7.99-35.96-10.72-39.79-29.91-78.1-57.43-108.91-7.38-8.26-17.2-18.27-26.49-23.96,1.2-1.65,3.33-3.99,4-5,2.34,2.98,7.68,4.99,9.99,6.99Z"/>
        <path class="cls-4" d="M268.61,330.16c.74.46,1.36,1.38,2,2-3.8.23-7,3.87-8.99,6.99-2.57,4.03-10.31,19.36-11.79,23.68-.58,1.68-2.68,2.54.8,2.3-4.14,3.43-8.17,20.16-9.99,25.97-3.14,10-4.75,16.8-6.99,26.97-1.5,6.78-2.84,13.1-4,19.98-1.41,8.35-3,16.53-4,24.98-.78,6.61-1.52,13.34-2,19.98-.23,3.22-1.84,22.12-1,22.98.33.34,3.13-.32,4,0,3.14,1.13,8.82,4.27,11.99,5.99,1.24.67,7.8,6.31,8.99,4.99.04-3.32-.04-6.67,0-9.99.07-5.13-.13-10.28.08-15.42.07-1.73,2.47-2.9-1.07-2.56,2.53-3.13,3.59-13.98,4-18.5.15-1.62.6-4.46-1-5.47,1.76-1.71,2.91-8.37,3-10.99,2.41,2.99,2.53,7.69,4,10.99l-3.04,33.43.25,23.81c18.78,18.23,32.39,41.34,41.75,65.64-2.21.76-7.62,1.81-7.99,2,2.68-6.08-4.01-10.78-4.55-16.93l-2.44-1.05c0,1.32-.03,2.66,0,3.99-2.53.77-1.82-1.85-2-2,3.23-4.96-1.39-10.91-4-14.99-1.76-2.76-2.72-6.98-5.99-5.99.12-.46.77-.97.78-1.65.04-2.5-9.43-13.71-11.77-16.33-4.44-4.99-7.59-8.01-12.99-11.99-8.83-6.5-13.08-8.91-23.98-10.99-11.08-2.11-12.42-1.46-22.98,1-12.53,2.92-14.44,3.37-22.98,12.99-3.77,4.24-5.34,5.76-7.99,10.99-4.35,8.59-5.28,13.27-5,22.98.2,6.92,1.33,9.68,3,15.98.77,2.92,1.47,6.01,2,8.99-2,0-4,0-5.99,0-.33,0-.67,0-1,0-13.85-40.6,6.23-78.01,50.46-81.02,1.84-.13,4.38.95,5.03.84,2.49-.42,1.27-12.26,1.46-15.23,3.45-52.15,15.04-105.84,38.95-152.36.68-1.33,1.29-2.68,2-4,.63,1.44,1.33,2.34,2.99,2l2.01-9.99h1c1.84,3.29,2.28,3.31,5,5Z"/>
        <path class="cls-4" d="M632.26,228.26c-.68,1.18-1.58,4.47-2,5.99-1.3-.71-2.72-1.25-4-2-8.59-4.99-16.32-8.11-24.98-11.99-8.77-3.93-14.7-6.64-23.98-9.99-9.46-3.42-17.93-6.89-27.97-8.99-7.99-1.67-17.82-3.06-25.97-4-8.91-1.03-17.47-.93-25.97-1-6.99-.06-13.82-.54-20.98,0-9.71.73-19.42,2.22-28.97,4-7.73,1.44-16.54,3.1-23.99,5.48-1.57.5-3.32.62-3.98,2.52-1.4-.26-1.58-1.25-3.98-.58-5.84,1.63-17.31,6.31-23.27,8.8-1.52.63-3.07,1.02-3.72,2.77-2.22.14-4.98,1.53-7.04,2.46-4.87,2.18-11.57,6.31-15.94,9.53-3.69.49-22.36,12.84-24.98,15.98-.29.35-.72.62-1,1-3.74.86-13.41,9.98-16.98,12.99-.89.75-1.39,1.46-2,2-8.33,7.36-13.59,12.5-20.98,20.98-2.76,3.17-4.36,2.68-5.99,7.99-4.84,2.87-7.58,1.88-5-4,2.96-6.73,20.74-23.9,26.96-29.49,72.45-65.09,176.9-87.06,269-53.18,16.62,6.11,32.05,14.62,47.71,22.72Z"/>
        <path class="cls-11" d="M759.13,427.06c.29,1.74,1.65,3.74,1.01,5.99l2.98-1-1.98,5.99,4.99-3.99c-1.83,3.57-4.92,6.52-3.99,10.97,2.9.68,1.5-1.58,2.99-2.99l-.99,6.99c5.59,1.07,3.25-1.86,4.19-2.79.56-.55,2.4.29,2.87-.82.29-.67-.29-1.97-.07-2.38.44-.81,1.75-.93,2.36-3.11.73-2.58.75-5.22.63-7.88.23-.08.6-2.09,3.53-2.1,2.19,0,1.33,2.02,1.47,2.1-3.1,1.75-3.41,4.79-3.99,7.99,2.14-.14,2.6-5.36,3.15-5.81,2.03-1.67,5.57.04,3.33,3.81-.67,1.12-3.66,1.9-4.47,3.5l6.97,3.49c-7.66-.72-13.4-.17-15.98,8,8.55-.33,2.8-4.24,4-5.96l12.98-2.02c.03.95.12,2.1,0,3-3.42.5-2.41,1.95-3,3-1.49.94-4.29,1.23-4.99,3.99,4.16.56,3.81-1.87,4.99-3.99.44-.28,2.38.19,3-2,4.33-.76,2.85,1.41,3,5-1.91-.37-4.68-.27-5.98,1.51.67,4.57,3.66-.93,3.97-.5-.48,3.16,3.42,1.21,5,3.5-.05,3.75-8.62.09-8.97.49l.99,7.99c-.29.06-.67-.01-1,0l-4.49-6c-1.22,2.06,2.01,3.87,2.49,6,.06.29-.02.66,0,1-2.84.9-3.04,3.13-6.99,2l5.99,2.99c-.39,1.39-1.8,5.85-2.51,6.99-.64,1.04-2.4.88-2.48,1l-4.01-3.99c-1.3-.27-1.6,1.85-1.73,2.73-1.08,6.94.63,15.83.75,23.23-2.64,2-4.22,6.82-5.99,8.99-1.42,1.74-4.98,3.35-5.99,5.99l-12.99,9.99c-.04-7.63.27-15.36,0-22.98,3.52-3.4,9.79-9.31,10.99-13.99,3.06-.45,5.23-3.63,6.99-5.99.73-.98,3.96-5.88,4.05-6.52.33-2.39-3.56-1.6-3.04-3.96,4.78-3.87,6.61-7.9,2.99-13.5-1.99-3.08-10.73,4.74-3,4-3.4,5.16-2.05,4.35-2,8.99-3.28,5.67-3.09-1.6-5.98-2.99.07,3.27-.87,4.13-3.01,5.99-.44.38-.69,1.64-1.51,1.99-1.52.39-1.3-.78-1.49-1l2.99-7.99c-3.45,1.48-5.55,4.64-6.98,7.99-.71.59-1.22,1.46-2,2-.31-4.41-1.33-12.5-2-16.98-.99-4.94,2.34-2.06,3.82-3.15.64-.47,2.04-5.62,3.17-6.83-2.92-.24-6.13.29-8.99-.01-2.32-.24-5.48-1.11-3.87-3.9.21-.36,2.33-.54,2.87-1.1.98.01,3.78,1.97,4.01.32.15-1.05-.71-2.6.97-2.31l4.01,3.98c-2.19-1.03-2.84-8.43-.02-5.98.53.46,1.14,4.99,3.01,4.98l.02-5.99,5.49,4.97c.27-.71-4.86-7.43-1.03-5.96,4.77,1.83,2.49,6.03,6.5,7.98,1.15-7.98-4.26-8.35-9.98-10.99,1.74-1.33,2.78-1.16,5-1.01.29-.23-5.49-5.97,1-4.99.65-1.55-.91-2.53-1-2.99-.52-2.64,1.03-1.96,3-3ZM751.14,457.03c.18-.17-.56-1.81.62-2.07,2.54-.56,6.14,2.62,7.37-.92-5.13-.23-10.19-.77-11.99,4.98.71.64,3.37-1.41,4-1.99v1.99s3,0,3,0c-.34-1.45-1.62-2.28-3-1.99ZM760.13,458.04c-.35-.31-3.85.19-4.98,0-.75,3.64,2.41.79,4.98,1.99-.04-.63.14-1.87,0-1.99ZM770.14,467.02c4.93,3.34,4.63-10.01-2.01-8.98-.56.6,1.63,8.72,2.01,8.98ZM749.14,464.03c2.72,4.47,7.45.8,8.97-2.52l-8.97,2.52ZM754.13,468.03l-9.98-2.01c-.14,2.31-.58,3.11,1.96,3.5l8.02-1.5Z"/>
        <path class="cls-11" d="M269.61,285.2c1.65-.84.52-5.94,3.5-6.97,4.27,1.56,1.19,7.64,1.49,7.97.24.26,5.84.95,7,1.02-.46,6.52-5.36,2.38-8.47,6.01-.93,1.08-3.99,9.58-1.04,7.96,2.36-1.3.44-9.23,7.51-7.97.51.4-5.53,10.07-5.98,11.5-.86,2.75,3.41.49,4.98.48,1.72-.01,3.36.6,5,1-.27.61-.93,1.73-1,2-2.98.47-8-3.26-9,1.49-.03,1.2,7.63.12,9,.51.57.16,1.08,3.81,4.93.43,3.48-3.06,2.76-5.83,10.06-4.43-.15.46.05,1.36,0,2l-6,3.5,6,.5c.07.23,3.52,2.25,2,3.99-.43.49-3.98-1.26-3,2l7.99,1c-1.53,1.96-7.26,11.04-8,11.48-2.18,1.31-11.37-1.1-7.99,2.5-.45.27-.12,1.32-2.27,1.78-2.55.54-3.51-1.71-3.72-1.78-.85-1.62-3.39-.94-5-1v-1c.45-.31.75-1.64,1.5-1.99l.51,1.99c4.63-2.44-.8-8.72-5-7.99,1.19-3.07-1.59-4.19-2-5-.18-.36-.77-.64-1-1s.22-1.57,0-2c-.52-1.02-1.05-2.31-2.48-1.99-1.73,1.16-1.67,3.09-1.51,4.99-4.17,3.19.31,5.89,1,8.99.19.85-.13,2.05,0,3-2.71-1.68-3.16-1.71-5-5-.39-.71.99-2.53-1.46-1.96-4.29.99-4.71,7.2-6.04,7.95l-2.49-1c-.17-.54-.92-2.86-1-3l2.01-2.99-3-.99c4.37.16,6.15-1.96,8.99-4.01.41-.3,1.73-.21,2.54-.92,2.8-2.45.59-5.01.45-8.08-2.59,1.33-6.13.45-8.32.99-1.14.28-.54,1.92-.66,2.02-.23.19-1.35-.43-2.31,1.23-1.59,2.76-1.62,4.73-1.69,7.76-1.8.45-2.59-1.8-3-2l2.99-7.99-5.99,4.99c-.21-3.44-2.71-1.29-6.99-3-1.08-6.89,7.38-1.48,6.99-5.99l-7.99.99c.77-2.82-1.71-3.44,4-3,1.13.09,1.96.71,2.99,1-1.67-8.79,8.07-1.13,6,.99-1.14,1.17-4.31-3.94-4.98-1.01,5.18,2.54,11.33,1.82,16.98,1.01,1.05-3.95-5.9-1.07-6.99-2,2.82-4.59-1.77-5.17-2.02-3.3-.23,1.71.55,5.41-2.87,3.2-.18-.11-1.6-3.51-1.68-3.85-.75-3.21,3.98-1.18,5.79-1.31,1.06-.08,5.67-.39,5.76-1.72-4.28-2.26-9.22,2.24-12.97-1.52l8.99-.5c-2.54-4.85-9.15-5.5-7.99-11.97,4.53.2,4.52,5.7,7.49,7.98,1.86-2.01.48-7.14,4.49-6.98.33,5.21-1.98,11.97,4.49,13.99.88-2.43-1.97-3.64-2.43-6.56-.38-2.38.1-5.02-.05-7.43l5.49,6.01c1.29,0-1.66,10.35,1.48,6.98,1.72-1.85-.34-7.72-.04-9.36s1.95,1.83,1.05-4.63ZM284.31,314.47c-2.72-2.17-8.33-.78-11.69-2.29-.64.63,4.67,8.53,5.42,8.65,1.77.29,6.95-1.57,9.55-.67.6-.52-2.77-5.28-3.28-5.69ZM287.71,326.04c1.04.9,10.5-6.2,2.37-9.85l1.5,6.97c-.53.54-7.08-1.91-7.99-.99-1.48,1.51.92,3.43,2.53,3.97-.08-5.74,1.36-.29,1.58-.1Z"/>
        <path class="cls-11" d="M254.63,313.17c.71-.48,6.39.34,7.99,0,.23.21-1.75,5.79-1.99,5.99-.34.28-7.62,1.32-7.99.99.3-1.09,1.69-6.78,1.99-6.99Z"/>
        <path class="cls-11" d="M268.61,280.2c.07.8.77,3.31,1,5-2.29,1.16-3.99-3.8-2-5h1Z"/>
        <path class="cls-4" d="M767.13,431.06c.94,3.97,2.4,7.91,3,11.99l-.91.93c-.31-2.45-2.39-3.54-4.08-1.93-1.49,1.42-.09,3.67-2.99,2.99-.93-4.45,2.16-7.4,3.99-10.97l-4.99,3.99,1.98-5.99-2.98,1c.65-2.26-.72-4.25-1.01-5.99-1.65-9.95-3.26-17.2-5.99-26.97-2.27-8.09-5.27-15.31-7.99-22.98-4.28-12.03-6.27-17.37-11.99-28.97-4.54-9.21-7.64-15.22-12.99-23.98-6.23-10.2-10.6-16.56-17.98-25.97-3.75-4.79-7.08-9.71-11.17-14.3-1.15-1.29-1.55-2.77-3.81-2.68-.71-5.31-4.99-7.7-9.99-8.99.91-.5,5.34-3.42,5.99-4,48.36,43.35,69.31,101.24,83.92,162.84Z"/>
        <path class="cls-3" d="M267.61,280.2c-1.99,1.2-.29,6.15,2,5,.9,6.46-.76,3.04-1.05,4.63s1.76,7.51.04,9.36c-3.14,3.37-.19-6.98-1.48-6.98l-5.49-6.01c.15,2.42-.33,5.05.05,7.43.46,2.91,3.31,4.13,2.43,6.56-6.47-2.02-4.16-8.78-4.49-13.99-4-.16-2.62,4.98-4.49,6.98-2.97-2.28-2.97-7.78-7.49-7.98-1.16,6.47,5.45,7.13,7.99,11.97l-8.99.5c3.75,3.75,8.69-.74,12.97,1.52-.09,1.32-4.71,1.64-5.76,1.72-1.81.13-6.54-1.9-5.79,1.31.08.34,1.5,3.73,1.68,3.85,3.42,2.2,2.64-1.49,2.87-3.2.25-1.87,4.84-1.29,2.02,3.3,1.1.93,8.05-1.96,6.99,2-5.65.81-11.8,1.54-16.98-1.01.67-2.93,3.84,2.17,4.98,1.01,2.07-2.12-7.67-9.78-6-.99-1.03-.29-1.86-.91-2.99-1-1.18-4.83,4.65-4.63,5-5.01,1.16-1.25-2.56-4.76-2-6.45l4.99-1.53c.38-2.31-2.13-2.8-2.79-4.71-2.41-6.98,6.53-6.51,8.28-.29,2.25-7.07,4.21-2.62,7.32-3.24,1.19-.24,2.46-7.41,6.17-4.75Z"/>
        <path class="cls-3" d="M268.61,280.2c-.61-6.92,12.4-4.26,9,4.99,6.1-2.58,5.07,2.14,4.99,6.99,3.13.58,1.44-1.06,1.97-2.22.63-1.39,2.88-.93,4.02-1.77-2.58,5.87.15,6.87,5,4-.23.75.16,2.09,0,3-5.1,1.25-19.2,1.52-14.99,9.99-1.57.01-5.84,2.27-4.98-.48.45-1.43,6.49-11.1,5.98-11.5-7.06-1.26-5.15,6.67-7.51,7.97-2.96,1.63.11-6.88,1.04-7.96,3.1-3.63,8.01.51,8.47-6.01-1.16-.07-6.76-.76-7-1.02-.3-.33,2.78-6.41-1.49-7.97-2.98,1.03-1.85,6.14-3.5,6.97-.23-1.68-.93-4.2-1-5Z"/>
        <path class="cls-3" d="M788.1,454.03c4.95.95,7.93,7.58,1.04,8.57-1.35.19-3.86-.74-4.03-.57-.76.76,3.38,3.81-2,4.99l-.99-7.99c.35-.4,8.93,3.26,8.97-.49-1.58-2.29-5.49-.34-5-3.5-.31-.43-3.3,5.08-3.97.5,1.31-1.78,4.08-1.88,5.98-1.51Z"/>
        <path class="cls-3" d="M254.63,313.17c-.3.2-1.7,5.9-1.99,6.99.37.33,7.65-.71,7.99-.99-2.83,2.05-4.62,4.17-8.99,4.01l3,.99-2.01,2.99c-.43-.71-2.15,1.77-2-5,.07-3.03.09-5.01,1.69-7.76.96-1.65,2.08-1.03,2.31-1.23Z"/>
        <path class="cls-3" d="M254.63,313.17c.12-.1-.48-1.74.66-2.02,2.2-.54,5.73.34,8.32-.99.14,3.08,2.35,5.63-.45,8.08-.81.71-2.13.62-2.54.92.24-.2,2.23-5.78,1.99-5.99-1.6.34-7.28-.49-7.99,0Z"/>
        <path class="cls-3" d="M774.12,432.06c.12,2.65.1,5.29-.63,7.88-.62,2.18-1.93,2.3-2.36,3.11h-1c-.59-4.08-2.06-8.02-3-11.99,1.63.94,5.42,1.54,6.99,1Z"/>
        <path class="cls-3" d="M253.63,330.16l2.49,1c1.33-.75,1.75-6.96,6.04-7.95,2.45-.57,1.06,1.26,1.46,1.96h-1c-2.38,2.4-3.51,5.22-5,7.99-.7,1.32-1.32,2.67-2,4,1.08-2.74-1.62-2.81-1.97-3.75-.39-1.04.2-2.52-.03-3.25Z"/>
        <path class="cls-3" d="M779.11,432.06c1.32.8,6.63-1.36,5.02,5.3-.27,1.12-3.89,1.74-4.02,3.68,1.11.23,4.68-.3,5,0,.16.15-.03,3.07,0,4l-12.98,2.02c-1.2,1.72,4.55,5.63-4,5.96,2.58-8.16,8.32-8.72,15.98-8l-6.97-3.49c.81-1.6,3.8-2.38,4.47-3.5,2.24-3.77-1.3-5.49-3.33-3.81-.55.45-1,5.67-3.15,5.81.58-3.2.89-6.24,3.99-7.99Z"/>
        <path class="cls-3" d="M236.64,309.18l7.99-.99c.39,4.5-8.07-.91-6.99,5.99-.55-.22-1.82.61-2.07-.6-.35-1.64.71-3.05,1.07-4.39Z"/>
        <path class="cls-3" d="M780.11,468.02c.11,2.32-.47,3.1-1,5l-5.99-2.99c3.95,1.13,4.15-1.1,6.99-2Z"/>
        <path class="cls-3" d="M244.64,317.17l5.99-4.99-2.99,7.99c-2.12-1.03-2.68,2.26-3-3Z"/>
        <path class="cls-3" d="M782.11,467.02c-.66.02-1.33-.01-2,0-.48-2.13-3.71-3.94-2.49-6l4.49,6Z"/>
        <path class="cls-11" d="M775.12,494.99l-1-4c.01.21.85,2,1,4Z"/>
        <path class="cls-3" d="M785.11,449.04c-.61,2.18-2.56,1.72-3,2-1.19,2.12-.83,4.55-4.99,3.99.71-2.75,3.5-3.05,4.99-3.99.59-1.05-.43-2.5,3-3-.05.34.08.72,0,1Z"/>
        <path class="cls-19" d="M550.34,584.91l-3.98-30.91c25.33-8.2,49.42-25.7,65.33-47.1,7.47-10.05,11.7-21.91,18.75-32.2,6.59-9.61,14.92-17.68,23.29-25.64,15.85,17.12,34.67,33.93,55.28,45.1.43,2.02.3,4.2.05,6.23-3.2,26.11-51.73,74.91-71.29,93.54-4.86,4.62-19.31,13.63-18.52,20.44,2.4,1.8,4-4.96,8-4.48-.15,3.97-1,7.45-1.06,11.52-.07,4.94,3.04,6.31-1.94,9.45,9.02-.85,5.26,11.06,5.99,16.99-1.82.8-8.75,5.57-10.49,6.99-5.03,4.1-8.56,9.81-13.48,13.99-.37-2.51-23.03,6.01-25.06,3.98,16.83-12.16-8-10.01-17.62-28.3-9.46-17.99,18.98-60.87-.27-60.6-3.58.05-9.56.43-12.99,1Z"/>
        <path class="cls-19" d="M336.55,585.91c-1.51-2.55-4.88-6.51-6.94-8.54-16.44-16.1-32.77-33.38-44.18-53.73-4.06-7.24-10.65-19.27-7.28-27.61.96-2.36,9.18-12.11,11.43-14.55,6.03-6.56,14.32-13.21,21.69-18.27,2.98-2.04,19.33-11.14,19.85-12.18,1.13-2.24-2.48-8.1-4.55-9.49,4.09-1.73,15.29,7.67,15.82,11.17.14.92-8.23,12.4-9.59,16.04-6.3,16.88-2.41,35.11,5.95,50.51,1.03,1.9,4.35,5.3,4.65,6.42,1.22,4.62-3.4,10.37,1.7,18.2,5.49,8.43,28.58,14.39,38.4,16.54,20.61,4.52,42.91,6.72,63.95,7.48,2.73,7.88-10.97,19.85-5.02,26.5,2.21,2.48,6.91,1.57,4.02,5.47-3.46-.46-5.71-4.83-8.51-6.97-7.86-6.02-12.05-6.64-21.46-8.01-.07-.01-.25-.92-1-1-1.86-.19-4.06,0-5.99,0-11.3.02-23.79,2.67-32.88,9.58-3.8,2.89-6.47,7.93-11.08,9.4-.22-.59-6.79-6.99-7.99-7.99,3.35-11.22,14.88-20.42,8.49-32.96-.96,11.47-6.58,20.47-12.48,29.97-5.84-3.63-10.19-4.87-16.98-5.99Z"/>
        <path class="cls-17" d="M715.18,583.91c-1.12-.18-2.77-.03-4,0-1-5.56-10.19.4-8-6.99,2.18-.9,7.79,1.32,9,.55,1.09-.69,1.37-3.17.98-3.55-1.5-1.49-10.96,3.13-8.87-3.39,1.1-3.41,7.46,1.12,9.43-1.56,3.6-4.93-5.6-2.33-7.93-2.98-1.02-.28-.68-2.57-1.53-3.62-2.28-2.8-18.94-.91-23.09-4.96,8.39-13.04,19.33-25.78,26.19-39.75,4.37-8.89,5.99-18.05,7.79-27.67.22-.16,1.37.45,2.08-.59,2.14-3.12-.14-6.52.19-8.76.14-.95,6.16-8.95,7.42-11.42,2.7-5.27,6.18-14.44,7.28-20.19,1.7,4.76,2.3,10.57,2.87,15.61,2.61,22.92,3.65,45.98,3.08,68.77-.11,4.49.74,10.92,0,14.98-.52,2.81-12.64,17.33-15.35,21.61s-5.3,9.15-7.58,13.9ZM732.16,523.96c-1.45-2.94-5.23-1.54-7.47-4.01-1.47-1.62-2.42-7.97-3.02-7.98-2.22,7.35-3.18,8.8-10.5,11.5,7.28,2.1,7.98,2.27,10.5,9.5,1.98-5.96,3.28-9.14,10.49-9.01Z"/>
        <path class="cls-17" d="M256.62,465.02c1.48,3.31,10.58,15.63,10.75,16.6.29,1.65-1.12,3.97-.34,7.44.92,4.1,5.31,7.03,5.42,7.49.4,1.8-1.43,9.32-.61,13.69,2.14,11.41,21.71,37.38,29.76,47.16,7.71,9.37,17.26,17.41,23.95,27.5-11.35-.49-19.24-.67-29.97,3-9.37-24.3-22.97-47.41-41.75-65.64l-.25-23.81,3.04-33.43Z"/>
        <path class="cls-17" d="M673.22,608.88c-1.97,4.59-3.07,9.09-4,13.99-4.37-2.03-3.8-7.26-5.49-10.98-2.94,7.75-3.75,12.25-13.5,11.99-2.51,2.07,6.26,2.83,7.23,3.26,5.33,2.36,3.75,8.64,4.77,9.72,1.63,1.71,1.69-.38,2.01-1.46.82-2.81.51-6.14,3.97-7.53-.46,2.87-.61,14.57-1.95,15.57-7.46-.58-16.05-.92-23.44.5-3.1.6-4.98,2.02-7.58,2.91-.1-5.51-1.28-10.95-2.11-16.38-1.08-7.06-1.77-10.34-1.89-18.08-.04-2.37-2.13-4.94-.08-7.07,3.28-1.42,12.67-11.8,15.42-11.27,7.47,6.65,16.29,13.95,26.62,14.83Z"/>
        <path class="cls-5" d="M196.68,597.89c.28-1.14,2.1-2.89,2.57-4.92,2.23-9.74-4.09-15.87-5.31-24.81-2.33-17.19,3.73-29.28,22.83-25.63l4.88,42.38c-2.07.38-8.87,3.37-10.93,4.56-5.55,3.2-8.3,8.93-14.05,11.43.05-.95-.19-2.22,0-3Z"/>
        <path class="cls-4" d="M215.66,535.95c2.31.25,10.24,2.79,11.99,4,4.66,3.19,9.12,12.67,15.98,13.99-1.63,5.49-5.21,3.68,0,8.99.93.95,2.9,1.12,3.49,1.99,1.03,1.52.56,5.09,1.51,7v1c-.38-.19-1.4.13-2,0-.4-.46-4.33,1.17,0-3.99l-6.99.99c-.05-.66.03-1.33,0-1.99-.06-1.32.05-2.67,0-3.99-8.59,1.72-1.95-1.2-1.93-1.56.14-4.32-2.91-4.17-3.06-4.43-.23-.41.08-1.9-.57-2.88-2.61-3.86-5.69-7.63-10.41-9.11-.21,5.78.33,11.63,1.12,17.34.32,2.29,1.67,4.51,1.87,5.63.16.92-.17,2.09,0,3,.82,4.29,2.28,8.52,2,12.99-1.94.09-4.16-.24-5.99,0-.33.04-.68-.06-1,0l-4.88-42.38c-19.1-3.65-25.16,8.44-22.83,25.63,1.21,8.94,7.54,15.07,5.31,24.81-.47,2.03-2.29,3.79-2.57,4.92-2.32-.07-3.43-1.89-5-3,1.88-.61,2.94-4.82,2.97-6.66.04-2.98-1.89-3.1-1.97-3.33-1.1-3.5-3.31-8.48-4-10.99-1.13-4.15-2.59-13.94-2-17.98.29-1.98,2.78-7.5,3.96-9.52,1.4-2.39,5.67-7.31,8.03-8.46,3.91-1.91,12.63-2.48,16.98-2Z"/>
        <path class="cls-15" d="M691.2,563.93c-.99,9.95-3.28,19.72-6.99,28.97-4.18,3.39-6.56,8.39-8.99,12.99-3.77-1.17-8.12-2.16-11.68-3.81-2.39-1.11-3.08-2.43-4.31-3.19,6.2-10.27,13.47-20.73,14.99-32.97,1.34-1.41,1.27-4.68,4.52-5.01,2.02-.21,9.02,2.58,12.46,3.02Z"/>
        <path class="cls-9" d="M544.34,574.92c.47,3.61,1.68,7.32,2,10.99-8.54,1.99-17.07,6.43-22.98,12.99-8.91-6.39-14.75-11.72-25.97-13.99.05-1.33-.07-2.67,0-4,15.78,2.07,32.17-.27,46.95-5.99Z"/>
        <path class="cls-19" d="M466.42,584.91c1.07-2.85,3.09-15.28,4.95-16.53,2.56-1.71,10.94.86,14.46-1.49,1.43,4.64,5.84-.51,9.56.04l-2,16.97c-2.16-.23-4.73.03-6.99,0-2.5-.04-19.14.46-19.98,1Z"/>
        <path class="cls-9" d="M698.19,585.91c-4.08,1.39-10.73,4.35-13.99,6.99,3.71-9.26,6-19.02,6.99-28.97,2.76.35,9.94-1.25,10.89,1.65,1.39,4.27-4.21,15.35-3.9,20.33Z"/>
        <path class="cls-3" d="M227.65,571.92c-.65-3.68,2.89-1.09,4.78-2.29.41-.26-.07-1.57.72-1.73,2.58-.51,1.25,3.58,4.49,3.02l2-3c.03.66-.05,1.33,0,1.99l6.99-.99c-4.33,5.16-.4,3.52,0,3.99.19.21.52,4.02,1.93,5.35,1.18,1.11,2.9.48,3.08.65.13.12-1.31,1.96-.6,3.03.58.86,2.44.78,2.59.96.27.33.35,4.01,1,5-2.97-1.19-4.96-1.45-7.99-2-.84-.15-1.8-.88-3-1-2.23-.23-4.71.09-6.99,0-1.32-5.66,10.25-4.63,6.84-9.83-1.89-2.88-3.14.7-3.53.81-2.12.58-5.84.24-8.29,1.03l1.99-3.98-5.99-1.01Z"/>
        <path class="cls-11" d="M446.44,583.91c1.68-4.88,3.49-9.72,6.5-13.98,1.11,1.81.98,6.04,3.98,6.04,3.99,0,2.95-6.45,6.5-6.04l-.99,17.98c-.65.08-1.34-.06-2,0-.07-.91-.62-3.79-1.67-4.04-1.67-.4-10.37-.12-11.32,1.04l-1-1Z"/>
        <path class="cls-9" d="M669.22,622.87c-.31,1.61-.77,3.53-1,5-3.47,1.39-3.15,4.72-3.97,7.53-.32,1.09-.38,3.17-2.01,1.46-1.03-1.08.56-7.36-4.77-9.72-.97-.43-9.73-1.19-7.23-3.26,9.74.26,10.55-4.24,13.5-11.99,1.69,3.72,1.12,8.95,5.49,10.98Z"/>
        <path class="cls-9" d="M287.59,589.9c-.21.11-.94,1.45-3,3-3.33-.21-5.58-7.88-5.99-10.99-.55-4.12.48-1.6,2.6-4.02.6-.69-.6-.92-.6-.97,0-.33,0-.67,0-1-.03-1.33,0-2.67,0-3.99l2.44,1.05c.54,6.16,7.23,10.85,4.55,16.93Z"/>
        <path class="cls-20" d="M284.6,592.9c-1.35,1.02-6.19,4.99-6.99,5.99-1.55-1.31-2.41-10.12-3.98-8.98.09.85-.62,1.36-1.01,1.99.99-4.47.69-9.54,5.99-9.99.42,3.11,2.66,10.78,5.99,10.99Z"/>
        <path class="cls-16" d="M447.44,584.91c.95-1.17,9.65-1.44,11.32-1.04,1.04.25,1.59,3.12,1.67,4.04.25,3.23-1.4,1.56-2,2,.14-5.7-6.35-5.22-9.5-2-1.37,3.3,7.39.87,8.5,3-1.06.39-.89.85-3,1-2.74.19-5.36-.05-7.91-1.09-.45-.67.43-5.3.92-5.91Z"/>
        <path class="cls-9" d="M171.71,578.91l3,6.98h-3c-1.26-.16-2.7.12-4,0-.33-.03-.67.01-1,0v-1c-.53-2.98-1.23-6.07-2-8.99,3.07-.65,5.09,2.16,6.99,3Z"/>
        <path class="cls-9" d="M277.6,598.89c-.72.9-1.4,2.82-2,4-3.73.38-5.08-5.16-5.99-5.99,1.68-1.24,1.98-3.36,3-5,.39-.63,1.1-1.14,1.01-1.99,1.58-1.14,2.43,7.67,3.98,8.98Z"/>
        <path class="cls-3" d="M447.44,584.91c-.49.6-1.37,5.24-.92,5.91,2.55,1.03,5.17,1.28,7.91,1.09.2,2.52-1.93,2.89-3,4-4.61-4.5-8.91-.22-6.79-9.34.35-1.53,1.65-2.24,1.8-2.65l1,1Z"/>
        <path class="cls-3" d="M457.43,590.9c-1.11-2.12-9.87.3-8.5-3,3.15-3.22,9.64-3.7,9.5,2-.36.26-.69.89-1,1Z"/>
        <path class="cls-5" d="M488.24,516.81c-1.86,1.14-12.96,1.03-15.83,1.15,11.36-8.86,18.06-20.04,23-33.44,2.17-5.89,9.23-24.33,3.29-28.55-5.31-3.77-23.16-.98-26.06-11.65-1.37-5.03-2.19-19.08-2.26-24.71-.28-22.07,4.77-49.4,19.51-66.49,4.23-4.9,9.13-10.42,15.97-9.99,14.37.91,43.44,10.98,57.46,16.51,5.31,2.1,18.91,7.25,22.93,10.04,5.58,3.86,13.24,30.86,13.92,38.03.91,9.56-1.01,20.66.1,29.88.38,3.13,2.23,5.3,2.77,8.22,1.09,5.86,2.15,16.79-.28,22.2-2.22,4.96-29.29,22.25-35.42,25.52-5.93,3.17-26.98,13.22-32.59,13.43-3.11.12-7.82-3.62-12.84-4-7.64-.57-24.08,3.03-30.03,8.02-2.16,1.82-3.35,5.66-3.64,5.84ZM535.35,451.04c4.8-.88,6.19-1.09,10.32-4.17,25.01-18.63,8.65-60.01-22.31-52.78-1.18-.05-4.19.77-3.99-.99,24.04-12.9,45.68,7.48,43.94,32.45-.1,1.4-3.11,9.63-.49,9.48,2.5-.14,4.92-8.41,5.24-10.73,3.43-24.83-17.55-46.46-42.48-39.48-34.37,9.61-34.01,74.22,9.77,66.22Z"/>
        <path class="cls-17" d="M491.39,227.26c-26.53,11.01-52.08,25.47-72.94,45.44-4.17,4-12.51,15.41-15.69,17.54-3.4,2.28-12.42,3.53-17.94,6.78-15.99,9.41-11.73,17.01-17.1,30.86-3.77,9.72-13.41,12.45-10.96,26.52.58,3.36,3.89,6.8,3.77,9.14-.14,2.64-5.19,10.25-6.49,13.6-8.95,23.01-9.75,48.58-7.52,72.91-.75.89-11.11-8.63-12.92-9.55-3.19-1.62-12.25-2.81-13.78-4.7-2.93-3.62-.26-24.07-13.99-18.96-3.22.38-4.69,7.59-6.75,7.27-1.35-.21-10.09-8.24-13.97-10.04-5.65-2.62-11.19-3.87-17.5-2.98,22.13-88.29,93.75-163.77,184.8-180.35,13.87-2.52,25.64-2.12,38.99-3.47ZM378.5,268.21c-1.51-1.89-1.72.59-2.09,1.41-.94,2.1-.85,5.49-2.94,7.05-2.12,1.59-6.04.77-7.95,3.04,1.95,1.41,7.21,1.22,8.76,2.72,1.4,1.35,1.95,7.47,2.23,7.77,2.13,2.24,3.22-6.81,4.21-7.77,1.34-1.29,7.06-1.54,7.76-2.24,2.13-2.12-5.85-2.48-7.46-4.02-2.33-2.22-2.27-7.63-2.54-7.96ZM326.55,342.14c-1.65-1.75-1.69.42-2,1.47-1.36,4.49-2.21,13.61-5.44,16.55-4.27,3.88-13.78,2.95-18.5,6.46,0,1.69,15.49,3.7,18.49,6.46,4.44,4.08,2.61,15,7.45,19.01,1.47-4.74,2.01-14.87,4.96-18.52,2.71-3.35,19.03-5.33,19.03-6.95-5.94-4.04-17.66-1.94-20.51-9.47-.85-2.23-2.96-14.45-3.48-15.01Z"/>
        <path class="cls-8" d="M617.27,337.15c2.57,21.41,4.25,34.19-21.24,24.74-12.26-4.54-24.49-11.87-37.46-16.49-50.92-18.13-120.34-23.37-171.85-5.52-6.27,2.17-17.9,6.11-22.27,10.7-1.88,1.98-1.21,4.91-3.93,4.56-2.07-11.27,5.7-15.53,9.49-23.98,7.79-17.39,1.22-25.19,23.96-33.98,32.57-12.58,88.82-13.56,122.6-5.69,27.63,6.44,77.95,28.79,100.7,45.66Z"/>
        <path class="cls-5" d="M450.79,514.62c1.58,1.62,4.71,2.38,5.63,4.34-20.7.29-41.72-.75-62.14-4.28-6.95-1.2-29.57-5.66-33.78-10.18-7.45-8-7.79-31.31-5.48-41.49,4.35-19.15,2.52-20.87,1.47-39.41-1.64-28.83,18.85-78.92,54.96-67.95,25.27,7.68,32.88,50.2,33.98,72.91.2,4.1.55,11.11-.05,14.92-1.1,6.93-17.2,15.54-20.97,21.98-4.01,6.85,4.69,8.02,7.9,12.19,7.65,9.93,8.72,26.98,18.48,36.96ZM397.49,461.03c38.01,4,30.11-57.59,1.24-61.68-25.79-3.65-37.9,25.97-28.99,46.97.41.96,4.16,8.42,5.77,6.71-1.03-6.32-4.16-14.12-4.07-20.47.21-15.2,14.47-34.21,31.05-26.48-7.06,2.32-12.8,2.57-18.51,7.97-15.62,14.76-7.99,44.71,13.51,46.98Z"/>
        <path class="cls-17" d="M724.17,413.07c-7.81-5.86-19.87-2.59-27.64,1.83-2.69,1.53-9.55,7.94-11,8.06-2.05.16-3.47-4.86-6.58-6.13-13.22-5.41-13.18,12.79-13.74,21.21-1.96-1.33-2.35-4.33-3.99-6.48-5.1-6.65-12.15-6.81-19.93-7.54-.66-7.04-1.97-14.06-3.52-20.95-.89-3.95-4.4-11.69-4.48-14.58-.07-2.51,1.77-3.86,1.86-5.85.19-4.41-4.23-10.64-4.79-15.12-.89-7.02,1.75-12.07-.54-20.44s-7.14-10.71-13.31-15.67l-7.14-25.67c13.41-5.8,22.4-13.92,30.89-25.55,9.29,5.69,19.11,15.7,26.49,23.96,27.52,30.81,46.71,69.12,57.43,108.91ZM691.2,363.14c-1.78-1.8-15.29-2.04-18.57-5.92-3.15-3.71-3.12-13.67-5.9-18.07-3.72,4.1-3.1,14.87-6.53,18.45-2.88,3.01-12.56,3.41-16.69,5.29-1.04.47-2.6.92-1.26,2.22,1.25,1.23,15,2.44,17.96,5.53,2.53,2.65,4.62,18.41,6.52,18.43,3.51-4.69,2.58-14.26,6.46-18.49,2.67-2.91,12.29-3.79,16.62-5.36,1.05-.38,2.93-.54,1.39-2.09Z"/>
        <path class="cls-3" d="M617.27,337.15c9.59,7.12,10.89,14.27,9.98,25.98l-1.98-1.01c-2.25,3.26,11.98,22.81,2.54,25.98-52.89-31.51-115.06-55.82-177.91-52.99-18.77.85-67.79,8.41-82.32,19.58-2.2,1.69-2.85,4.28-3.07,4.43-1.54,1.07-3.74-2.68-3.98-3.99,2.73.35,2.06-2.58,3.93-4.56,4.37-4.59,16-8.53,22.27-10.7,51.51-17.85,120.93-12.62,171.85,5.52,12.97,4.62,25.2,11.95,37.46,16.49,25.5,9.45,23.81-3.33,21.24-24.74Z"/>
        <path class="cls-9" d="M714.2,476.99c-.09-.06.18-1.19-.76-1.96-14.33-11.8-27.92-24.66-44.01-34.19-.75-4.45-1.02-23.95,6.82-21.39,4.22,1.38,5.43,9.67,8.44,9.66,1.25,0,8.79-7.38,11.18-8.87,12.71-7.9,27.15-9.37,32.01,7.6,3.43,11.96-.16,27.83-5.54,38.85-.88,1.81-6.25,11.47-8.14,10.3Z"/>
        <path class="cls-9" d="M315.39,439.88c-.45.72-12.85,5.51-15.48,6.99-13.01,7.27-22.58,17.85-30.8,30.12-19.55-17.36-21.57-79.88,18.17-57.12,2.92,1.67,11.16,9.97,11.93,10.11,3.84.69,5.26-13.79,12.38-9.44,2.36,1.44,5.09,17.25,3.8,19.34Z"/>
        <path class="cls-15" d="M594.29,283.2c4.37,4.34,7.5,12.86,8.99,18.98-3.94-3.68-13.98-8.99-18.98-11.99-37.25-22.33-79.55-33.9-123.42-31.01-5.32.35-19.87,2.29-24.44,4.04,4.86-3.24,15.7-13.1,20.98-13.99,39.35-6.59,107.55,4.82,136.87,33.97Z"/>
        <path class="cls-4" d="M499.39,221.26c3.31-.11,6.69.18,9.99,0-4.94,2.47-12.49,5.44-17.98,5.99-13.34,1.35-25.12.95-38.99,3.47-91.05,16.58-162.66,92.06-184.8,180.35-2.61.37-4.67,1.96-6.99,3,.63-1.58,2.51-9.82,1-10.99,3.51-2.14,7.71-17.64,9.75-22.76.43-1.09.01-2.64.24-3.21,2.7-6.68,7.68-17.45,10.99-23.98.12-.23,1.34-.71,1.82-1.64,3.09-6.01,6.46-12.2,10.16-17.86,1.06-2.64-4.19-1.57-5.98-.48-3.38-3.6,5.8-1.19,7.99-2.5.74-.44,6.46-9.53,8-11.48,4.79-6.1,9.97-13.23,14.99-18.98.31-.35.69-.65,1-1,4.94-5.58,10.5-12,15.98-16.98,4.87-4.43,12.63-9.09,17.92-13.57,1.34-1.13,2.62-1.54,1.06-3.42,4.99.03,15.78-8.93,20.98-11.99,8.32-4.88,16.1-9.1,24.98-12.99,6.33-2.77,15.66-6.98,21.98-8.99,6.78-2.16,20.09-5.69,26.97-6.99,7.32-1.39,16.76-2.53,23.98-3,8.11-.53,16.77.27,24.98,0Z"/>
        <path class="cls-5" d="M681.21,225.26c-2.11.99-.36,3.07.14,4.35,3.45,8.81,4.76,16.86-1.15,25.12-7.64,10.69-19.19,12.25-30.96,7.5.29-1.11,1.28-7.7.99-7.99-6.94.35-11.42,11.5-15.77,1.28-9.06-21.29,10.56-41.97,32.18-39.16,7.82,1.01,9.69,4.01,14.57,8.9Z"/>
        <path class="cls-9" d="M576.31,297.19c-.41.11-1.35,1.62-3.52,1.95-5.16.8-11.67-1.33-16.46,1.04-29.77-12.62-66.99-20.13-99.39-17.97-15.78,1.05-32.6,5.59-48.47,6.97,3.02-4.6,8.86-11.8,13.99-13.98,5.81-2.46,21.79-4.63,28.43-5.04,43.35-2.69,87.38,6.38,125.42,27.02Z"/>
        <path class="cls-11" d="M584.3,290.19c0,1.29-1.69,7.74-2.01,8-.12.1-2.09-.96-2.98-1.01-.83-.05-2.36-.17-3,0-38.04-20.64-82.07-29.7-125.42-27.02-6.64.41-22.62,2.58-28.43,5.04,3.08-3.27,10-10.46,13.99-11.99,4.56-1.75,19.12-3.69,24.44-4.04,43.87-2.89,86.17,8.68,123.42,31.01Z"/>
        <path class="cls-9" d="M482.4,236.25c14.52-1.81,34.73.86,48.97,4.48,20.73,5.28,40.15,14.82,57.93,26.49,1.65,4.98,5.49,10.01,5,15.98-29.32-29.14-97.52-40.56-136.87-33.97,5.48-4.23,18.26-12.15,24.98-12.99Z"/>
        <path class="cls-15" d="M458.43,522.97v40.96c-10.81-.17-18.65-1.1-28.97-2-1.51-12.55-1.51-25.42,0-37.96,4.35.59,22.74-.81,28.97-1Z"/>
        <path class="cls-9" d="M485.4,520.97c3.01,13.25,3.13,28.69,0,41.96-10.05.81-16.74,1.16-26.97,1v-40.96c9.24-.28,17.79-1.03,26.97-2Z"/>
        <path class="cls-18" d="M496.39,457.04c3.07,3.18-9.01,10.09-11.45,11.02-13.45,5.15-24.52-1.63-37.03-.06-7.44.93-13.5,10.04-21.4,1.4l.89-2.92c8.41-6.48,17.74-20.64,28.83-21.2,9.61-.49,16.83,7.49,25.37,10.06,3.73,1.12,14.27,1.16,14.79,1.7Z"/>
        <path class="cls-9" d="M429.46,523.97c-1.51,12.55-1.51,25.41,0,37.96-7.99-.69-16.53-.74-24.98-2,.04-3.15-2-8.86-2-11.49v-16.98c0-1.99,2.47-8.01,3-10.49,7.8,1.05,16.57,1.98,23.98,3Z"/>
        <path class="cls-11" d="M508.38,227.26c6.85-.19,16.36,1.81,23.17,3.31,19.91,4.39,38.86,12.95,54.76,25.66.3,2.07,2.25,8.73,3,10.99-17.78-11.66-37.2-21.21-57.93-26.49-14.24-3.62-34.44-6.29-48.97-4.48,6.88-3.64,18.14-8.77,25.97-8.99Z"/>
        <path class="cls-15" d="M405.48,520.97c-.53,2.48-3,8.5-3,10.49v16.98c0,2.63,2.04,8.33,2,11.49-9.13-1.36-16.54-3.93-24.98-5.99-1.44-12.27-1.92-24.88,1-36.96,3.3,1,20.16,3.34,24.98,4Z"/>
        <path class="cls-9" d="M380.5,516.97c-2.92,12.08-2.44,24.7-1,36.96-8.1-1.98-13.12-1.59-21.98-5.99.15-4.48-.21-9.01-.01-13.49.25-5.47.43-5.38.09-11.07-.32-5.41-.04-9.7,2.91-14.41,4.15,2.14,15.91,6.76,19.98,7.99Z"/>
        <path class="cls-15" d="M542.34,556.93c.72,5.96,1.22,12.04,2,17.98-14.78,5.73-31.17,8.07-46.95,5.99.29-5.74,1.38-12.15,2-17.98,14.92.82,29-.7,42.96-5.99Z"/>
        <path class="cls-15" d="M536.35,521.97c2.5,7.39,2.8,10.49,4,17.98-12.6,3.85-25.69,6.71-38.96,5.99.08-5.44-.89-12.64-2-17.98l36.96-5.99Z"/>
        <path class="cls-15" d="M555.33,504.98c3.71,9.95,6.53,20.25,6.99,30.97.09,1.99-.06,4,0,5.99-.2.1-.65,1.24-1.71,1.75-4.66,2.23-9.63,3.95-14.26,6.24-2.07-13.37-3.02-27.56-9.99-39.47,5.2-1.08,10.05-3.09,14.97-5.04,1.34-.53,3.34-.16,4-.44Z"/>
        <path class="cls-15" d="M601.29,510.98c-.31,4.1-14.35,15.09-17.98,17.98-.84-1.23-.92-2.56-1-4-.11-1.98.04-4,0-5.99-.04-1.6.6-4.15-1-5-.46-6.91-2.82-13.37-6.99-18.98,4.87-2.86,14.32-9.47,18.98-12.99,3.93,5.97,8.51,22.18,7.99,28.97Z"/>
        <path class="cls-9" d="M540.35,539.95c.97,6.07,1.29,11.12,2,16.98-13.96,5.29-28.03,6.82-42.96,5.99.57-5.34,1.93-11.8,2-16.98,13.28.71,26.36-2.14,38.96-5.99Z"/>
        <path class="cls-9" d="M551.34,222.26c4.11,3.3,9.57,4.44,14.29,7.19,11.75,6.83,14.75,13.34,20.68,24.78.06.65-.09,1.36,0,2-15.9-12.71-34.85-21.27-54.76-25.66-6.81-1.5-16.32-3.5-23.17-3.31,13.03-5.2,29-5.89,42.96-5Z"/>
        <path class="cls-9" d="M574.31,494.99c4.17,5.61,6.53,12.07,6.99,18.98.11,1.59-.65,4.14,1,5,.04,1.99-.11,4.01,0,5.99l-19.98,10.99c-.47-10.72-3.29-21.02-6.99-30.97,3.52-1.5,15.19-7.77,18.98-9.99Z"/>
        <path class="cls-15" d="M590.3,237.25c6.87,8.07,10.71,22.58,11.99,32.97.76,6.15,2.29,12.82,0,18.98-5.34-11.66-10.11-23.63-15.98-34.97-5.93-11.44-8.93-17.95-20.68-24.78-4.72-2.75-10.18-3.89-14.29-7.19,12.4.8,30.68,5.26,38.96,14.99Z"/>
        <path class="cls-9" d="M536.35,521.97l-36.96,5.99c-1.09-5.24-1.86-9.68-6.97-12.49,7.09-7.11,30.27-12.03,37.9-5.95,4.42,3.52,4.5,7.91,6.04,12.45Z"/>
        <path class="cls-20" d="M477.15,478.25c1.78-.31,10.1-.98,10.23,1.25-4.15,8.81-17.66,34.17-29.93,28.95-6.11-2.6-1.86-12.27.56-16.37,3.58-6.06,12.15-12.62,19.14-13.83Z"/>
        <path class="cls-9" d="M609.28,469.02c4.65,4.29,7.69,14.94,6.99,20.98-.48,4.16-8.16,14.88-11.16,18.32-1.16,1.33-1.65,2.61-3.82,2.66.52-6.79-4.06-23.01-7.99-28.97,4.33-3.26,12.28-9.58,15.98-12.99Z"/>
        <path class="cls-4" d="M579.31,297.19l29.97,20.98c.85,2.94,2.18,5.67,2.59,8.91.18,1.42,1.34,2.41-1.08,2.07-17.71-9.88-35.77-21.04-54.46-28.96,4.8-2.38,11.3-.24,16.46-1.04,2.17-.34,3.1-1.84,3.52-1.95.64-.17,2.17-.05,3,0Z"/>
        <path class="cls-19" d="M662.23,439.04c-12.04,5.86-21.84,15.56-30.48,25.98-1.39-2.12-1.54-4.81-3.03-6.95-1.69-2.42-6.08-3.11-3.83-5.12,3.56-3.19,10.51-6.27,14.83-9.94,3.34-2.84,13.27-12.7,2.54-6.96v-9.99c8.26.4,18.41,3.67,19.97,12.98Z"/>
        <path class="cls-11" d="M251.63,446.04c-.01,2.53,1.1,4.96,1,7.99-.08,2.61-1.24,9.28-3,10.99s-9.03,5.86-11.99,7.99c-2.39,1.72-4.6,3.14-6.99,5-2.25,1.75-4.55,3.51-6.99,5,.48-6.64,1.22-13.37,2-19.98,2.84-.95,5.7-3.57,8.07-5.46.91-.73.81-2.45.92-2.53.64-.46,5.06-2.74,6.99-4,2.8-1.81,6.79-3.93,9.99-5Z"/>
        <path class="cls-11" d="M497.39,196.29c.92,2.38,3.53,3.46,5,5,2.36,2.46,4.82,5.36,6.99,7.99,2.86,3.46,5.45,7.28,7.99,10.99-2.46.21-4.95.83-7.99,1-3.3.18-6.68-.11-9.99,0-2.13-5.61-6.82-9.07-10.99-12.99-2.27-2.14-3.26-5.39-6.99-5.99l-5-5.99c7.16-.54,13.99-.06,20.98,0Z"/>
        <path class="cls-2" d="M497.38,463.03c-1.68,14.97-7.52,32.43-17.46,43.96-18.39,21.34-28.19,7.16-37.33-11.64-.86-1.77-8.92-18.64-8.13-19.33.15-.13,3.5-.18,3.87.12.79.66,6.01,16.5,7.26,19.21,2.27,4.93,7.46,14.71,12.82,16.15,12.06,3.24,24.99-17.48,29.17-26.83,2.6-5.83,3.63-14.56,6.06-18.92.84-1.5,1.74-3.05,3.76-2.73Z"/>
        <path class="cls-11" d="M261.62,403.08c1.51,1.17-.37,9.41-1,10.99-.81,2.05-5.77,5.95-6.99,8.99-3.1.56-6.07,3.94-7.99,5-3.7,2.02-4.63,1.84-8.99,5-2.21,1.6-4.92,2.88-6.99,5,1.16-6.88,2.5-13.2,4-19.98,2.92-1.24,5.31-3.38,7.99-5,2.93-1.76,6.01-3.33,8.99-5,3.28-1.83,8.32-3.36,10.99-5Z"/>
        <path class="cls-19" d="M347.53,455.04c.6.58-2.76,13.86-2.98,16.49-.28,3.42-.35,8.62-.05,12.01.36,4.14,4.46,14.07,4.1,15.77-.13.63-6.6,3.59-7.03,10.29-.16,2.5,2.42,7.08-.02,8.36-.84-5.11-3.9-9.12-5.29-14.2-3.61-13.29-1.77-28.06,4.1-40.42.57-1.21,3.65-7.12,4.1-7.7.74-.95,2.86-.81,3.07-.61Z"/>
        <path class="cls-15" d="M360.52,508.98c-2.96,4.7-3.23,8.99-2.91,14.41.33,5.68.15,5.6-.09,11.07-.2,4.48.16,9.01.01,13.49-13.43-6.66-12.2-10.04-9.98-24.98,3.78-.47,4.01,5.01,7.98,2.5-5.41-4.25-15.34-15.52-8.75-22.23,3.51-3.58,9.84,3.73,13.75,5.74Z"/>
        <path class="cls-3" d="M681.21,225.26c.21.21,1.92.22,3.03,1.43s2.53,4.31,3.14,5.89c10.02,25.99-15.76,48.36-40.04,35.54-1.42-2.57,1.68-5.04,1.91-5.9,11.77,4.76,23.32,3.19,30.96-7.5,5.91-8.26,4.59-16.3,1.15-25.12-.5-1.28-2.25-3.36-.14-4.35Z"/>
        <path class="cls-11" d="M601.29,220.26c.29,2.63,2.06,4.65,3,6.99,1.17,2.92,2.13,5.97,3,8.99.74,2.58.73,8.19,2,10.99-7.45-6.97-15-13.93-23.98-18.98-1.15-4.13-2.78-7.95-4.8-11.73-.68-1.28-1.98-1.89-2.2-2.25-.52-.9-.53-2.88-1-4,9.27,3.35,15.2,6.06,23.98,9.99Z"/>
        <path class="cls-11" d="M549.34,201.28c.23,2.59,3.12,3.8,4,5,.27.38.77.66,1,1,.3.46.55,1.28,1,2,1.59,2.56,3.06,7.26,5,9.99-7.54-1.18-15.34-1.24-22.98-1,.24-3.23-3.06-5.39-4-6.99-2.53-4.36-2.37-4.87-5.99-8.99-1.38-1.57-2.74-3.31-4-5,8.15.94,17.98,2.33,25.97,4Z"/>
        <path class="cls-15" d="M485.4,520.97c2.65-.28,5.27-.46,7.89-.93,3.34,8.24,4.99,18.49,4.11,27.41-.49,4.9-3.36,9.84-2,15.48-3.3.19-6.71-.27-10,0,3.13-13.27,3.01-28.71,0-41.96Z"/>
        <path class="cls-15" d="M609.28,469.02c1.4-1.29,4.15-5.74,5.95-7.51s3.56-3.88,5.97-5.05c14.24,7.06,1.04,24.79-4.93,33.54.7-6.04-2.35-16.69-6.99-20.98Z"/>
        <path class="cls-9" d="M628.26,248.24c1,6.26,8.97,17.51-3.55,13.03-3.24-1.16-14.07-11.03-15.43-14.03-1.27-2.79-1.26-8.41-2-10.99,7.75,2.38,13.85,8.32,20.98,11.99Z"/>
        <path class="cls-11" d="M608.28,252.23c2.56,7.64,4.07,15.04,5,22.98l-10.99-5c-1.28-10.39-5.12-24.9-11.99-32.97,7.86,2.33,12.5,9.65,17.98,14.99Z"/>
        <path class="cls-9" d="M659.23,598.89c-2.01-1.23-10.45-5.32-9.92-8.35.31-1.77,21.78-21.33,24.9-24.61-1.52,12.24-8.78,22.7-14.99,32.97Z"/>
        <path class="cls-11" d="M316.57,443.05c.14,4.04,5.88,7.19,4,10.99-2.51,1.23-5.35,3.84-7.99,4-1.57-3.46-3.57-7.65-7.48-9l6.48,9c-1.95,3.23-5.99,4.73-8.99,6.99-1.46-1.93-6.22-9.46-7.99-9.99,4.69-5.46,14.96-10.23,21.98-11.99Z"/>
        <path class="cls-11" d="M696.19,466.02c-1.59.47-6.22,7.86-6.99,9.99-2.75-.71-8.43-5.94-10.99-7.99-.23-4.44,5.18-6.71,5.99-10.99.29-.04.71-.04,1,0,2.72.38,10.47,5.8,10.99,8.99Z"/>
        <path class="cls-11" d="M684.21,456.03v1c-4.12.58-6.47,5.68-7.99,8.99-1.8-1.57-8.46-6.02-8.8-7.65-.43-2.09,5.53-7.13,6.8-9.33l-8.59,7.95c-1.87.4-5.12-4.72-6.39-5.96v-1l6.09-7.89h1.27c5.86,4.62,13.02,7.91,17.62,13.88Z"/>
        <path class="cls-3" d="M613.28,275.21c.19,1.6.99,3.79,1,4,.26,6.74-1.07,13.37-2,19.98-1.44.54-2.89,3.12-5.05,1.57-.82-.59-4.07-9.66-4.94-11.56,2.29-6.17.76-12.83,0-18.98l10.99,5Z"/>
        <path class="cls-3" d="M603.29,302.18c2.73,2.55,4.82,11.92,5.99,15.98l-29.97-20.98c.89.05,2.86,1.11,2.98,1.01.32-.26,2.01-6.71,2.01-8,5,3,15.04,8.31,18.98,11.99Z"/>
        <path class="cls-14" d="M578.31,214.27c.21.36,1.51.98,2.2,2.25,2.01,3.78,3.65,7.6,4.8,11.73-7.63-4.29-16.26-7.63-24.98-8.99-1.93-2.73-3.4-7.43-5-9.99,6.27.68,12.44,3.21,18.46,5.02,1.32.4,3.63,1.9,4.52-.03Z"/>
        <path class="cls-9" d="M533.35,211.27c.93,1.61,4.24,3.76,4,6.99-7.15.23-13.1,1.42-19.98,2-2.54-3.71-5.13-7.53-7.99-10.99,7.32-2.52,16.47,1.06,23.98,2Z"/>
        <path class="cls-15" d="M629.26,266.22c1.86,5.18,3.85,10.37,4,15.98-3.37,4.29-4.45,6.24-8.99,9.99,1.05-6.47-.76-11.96-2-17.98-.74-3.6-1.16-7.39-2-10.99,2.33,1.23,6.45,2.95,8.99,3Z"/>
        <path class="cls-11" d="M669.22,275.21c-.14,1.64.2,3.37,0,5-.65,5.3-1.49,10.66-2,15.98-3.71-4.1-9.07-10.59-12.99-13.99l2-6.99c2.82.44,10.03.33,12.99,0Z"/>
        <path class="cls-4" d="M624.26,292.19c-4.7,3.88-6.39,4.91-11.99,6.99.93-6.61,2.26-13.24,2-19.98-1.23-4.58,7.14-.13,7.99-1v-3.99c1.24,6.02,3.06,11.51,2,17.98Z"/>
        <path class="cls-15" d="M251.63,446.04c-3.2,1.07-7.19,3.18-9.99,5-.31-7.72,2.44-15.48,4-22.98,1.93-1.05,4.89-4.44,7.99-5-2.6,6.45-1.96,16.03-2,22.98Z"/>
        <path class="cls-9" d="M620.27,263.22c.84,3.6,1.26,7.39,2,10.99v3.99c-.85.87-9.22-3.58-7.99,1,0-.21-.81-2.4-1-4-.92-7.94-2.44-15.34-5-22.98,4,3.9,6.86,8.29,11.99,10.99Z"/>
        <path class="cls-11" d="M706.18,474.02c.07.25,0,.66,0,1-3.37,2.53-4.23,5.84-6.99,8.99-2.95-2.26-8.14-4.37-8.99-7.99,2.79-.12,6.1-6.96,6.99-9.99,1.99.3,8.45,6.14,8.99,7.99Z"/>
        <path class="cls-11" d="M707.18,474.02c7.93,6.44,9.95,5.56,7.99,15.98-1.24.92-2.99,2.87-4.34,2.83-.59-.02-8.4-5.91-9.65-6.83,1.06-4.32,5.03-6.21,5-10.99.38-.28.68-.66,1-1Z"/>
        <path class="cls-20" d="M674.22,274.21c2.09,5.76,9.05,8.31,11,13.98l1.99-2.99c.02,4.64-.7,8.49-1,12.99-5.5-6.13-10.34-12.96-16.98-17.98.2-1.62-.14-3.36,0-5,.53-.06,4.76-.91,5-1Z"/>
        <path class="cls-20" d="M628.26,240.24c.04.33-.04.67,0,1,.26,2.2-.34,4.88,0,6.99-7.13-3.66-13.23-9.61-20.98-11.99-.87-3.02-1.82-6.07-3-8.99l23.98,12.99Z"/>
        <path class="cls-11" d="M300.58,466.02c-2.02,1.56-5.93,5.11-7.99,6.99-1.94-2.15-5.27-8.29-7.99-8.99.3-2.86,6.63-8.39,8.99-8.99l6.99,10.99Z"/>
        <path class="cls-11" d="M276.6,474.02c-1,1.23.94,1.88,1,2,1.43,3.08,1.72,1.64,2,2s.32,1.28,1,2c.32.34.61.72,1,1l1,1c-.47.26-2.07,5.34-5,8.99-.38-1.93-2-1.51-3-2-.96-1.9-1.3-4.11-3.99-4.99-.07,3.57,1.7,3.86,3.99,4.99.61,1.19.72,2.91,2,4-1.68,1.83-1.69,2.71-4.51.01-5.36-5.11-1.12-13.05,2.1-17.95.61-.93,2.32-.92,2.41-1.04Z"/>
        <path class="cls-11" d="M291.59,474.02c-4.27,4.03-3.67,5.11-8.99,7.99l-1-1c-.25-.38-.8-.66-1-1-.34-.57-.46-1.24-1-2-.09-.13.23-.96-.29-1.72-.32-.47-1.57-.14-1.71-.28-.09-.09-.15-3.04-1-2,.18-.24.39-2.94,1.75-4.74,1.14-1.51,3.52-4.8,5.25-5.25l7.99,9.99Z"/>
        <path class="cls-4" d="M582.31,524.97c.08,1.44.16,2.77,1,4-8.38,6.69-11.87,8.34-20.98,12.99-.06-1.99.09-4,0-5.99l19.98-10.99Z"/>
        <path class="cls-9" d="M677.21,272.21c5,1.29,9.28,3.68,9.99,8.99.16,1.2,0,2.71,0,4l-1.99,2.99c-1.95-5.67-8.91-8.22-11-13.98.17-.06,1.79-1.34,3-2Z"/>
        <path class="cls-11" d="M636.25,265.22l3,7.99c-2.5,4.21-2.89,5.04-5.99,8.99-.15-5.61-2.13-10.81-4-15.98.43,0,6.66-.89,6.99-1Z"/>
        <path class="cls-15" d="M656.23,275.21l-2,6.99c-2.31-2-7.65-4.01-9.99-6.99.32-.48-.37-3.44,1.57-3.93,1.57-.39,8.26,3.59,10.41,3.93Z"/>
        <path class="cls-11" d="M317.56,442.05c3.32-.51,7.39.11,9.47,3.02,4.27,5.98.82,5.44-2.47,6.97l-6.99-9.99Z"/>
        <path class="cls-4" d="M639.25,273.21l-3-7.99c2.29-.75,6.46-5.03,9.97-4.51-1.63,3.4-3.01,6.91-4.78,10.25-.68,1.29-1.96,1.86-2.19,2.25Z"/>
        <path class="cls-3" d="M659.23,451.04c-.28-.27-2.39.1-2.92-1.61-1.38-4.45,4.55-9.39,8.92-8.37l-5.99,8.98v1Z"/>
        <path class="cls-10" d="M302.58,465.02c-.73.55-1.65.73-2,1l-6.99-10.99c.22-.06.79-.06,1,0,1.77.53,6.53,8.06,7.99,9.99Z"/>
        <path class="cls-10" d="M685.21,457.03c-.29-.04-.71-.04-1,0v-1c.28.36.72.63,1,1Z"/>
        <path class="cls-10" d="M684.21,457.03c-.82,4.27-6.22,6.55-5.99,10.99-.95-.76-1.39-1.47-2-2,1.52-3.31,3.88-8.41,7.99-8.99Z"/>
        <path class="cls-10" d="M697.19,466.02c-.89,3.03-4.2,9.87-6.99,9.99-.3.01-.73.07-1,0,.77-2.13,5.4-9.52,6.99-9.99.24-.07.74-.04,1,0Z"/>
        <path class="cls-10" d="M292.59,473.02c-.35.32-.66.68-1,1l-7.99-9.99c.23-.06.77-.06,1,0,2.72.7,6.05,6.84,7.99,8.99Z"/>
        <path class="cls-10" d="M324.56,452.04c-1.31.61-2.67,1.35-4,2,1.88-3.8-3.86-6.95-4-10.99.28-.07.69-.95,1-1l6.99,9.99Z"/>
        <path class="cls-10" d="M706.18,475.01c0-.34.07-.75,0-1h1c-.32.34-.62.72-1,1Z"/>
        <path class="cls-10" d="M701.19,486c-1.01-.74-1.51-1.62-2-2,2.77-3.15,3.62-6.46,6.99-8.99.03,4.78-3.93,6.66-5,10.99Z"/>
        <path class="cls-3" d="M630.26,234.25c-.6,2.2-.17,5.17-2,6.99-.04-.33.04-.67,0-1-.33-2.94-1.31-5.2-2-7.99,1.28.74,2.7,1.29,4,2Z"/>
        <path class="cls-3" d="M460.42,567.93c1.09.96-3.48,5.35-3.98,4.99l-1.01-4.99h4.99Z"/>
        <path class="cls-10" d="M312.57,458.03c-.33.02-.67-.01-1,0l-6.48-9c3.91,1.35,5.91,5.54,7.48,9Z"/>
        <path class="cls-10" d="M274.61,489c1,.49,2.62.07,3,2-.28.35-.36,1.3-1,2-1.28-1.09-1.39-2.8-2-4-2.29-1.13-4.05-1.42-3.99-4.99,2.69.89,3.02,3.1,3.99,4.99Z"/>
        <path class="cls-11" d="M733.16,348.14c-1.58,3.26-1.21,8-2,10.99-.63,2.39-2.12,6.13-3,8.99-1.39,4.51-5.62,11.5-5.99,15.98-4.58-7.51-7.1-16.14-10.99-23.98,2.54-6.06,3.5-12.63,5-18.98.62-2.65,1.39-5.32,2-7.99.67-2.98,1.06-6.06,2-8.99,5.35,8.76,8.45,14.76,12.99,23.98Z"/>
        <path class="cls-11" d="M702.19,298.19c-.32,4.18.45,8.9,0,12.99-.16,1.47-1.72,4.73-2,6.99-.59,4.77-2.5,13.85-2,17.98-2.74-3.73-13.91-17.49-13.99-20.98,1.36-5.56,1.62-11.29,2-16.98.3-4.5,1.02-8.35,1-12.99,0-1.28.16-2.8,0-4,2.26-.09,2.67,1.39,3.81,2.68,4.09,4.6,7.42,9.52,11.17,14.3Z"/>
        <path class="cls-11" d="M753.14,400.09c-2.94,1.94-2.94,6.87-4,8.99-1,2.02-3.68,6.7-5,8.99-2.58,4.51-7.06,9.51-9.99,13.99-1.6-6.83-2.24-14.16-4-20.98,3.61-5.54,5.35-12.24,7.99-17.98.77-1.68,2.64-3.79,4-6.99,1.23-2.91,2.29-5.91,3-8.99,2.73,7.66,5.73,14.89,7.99,22.98Z"/>
        <path class="cls-11" d="M828.07,546.94c3.43,4.26,4.77,5.44,6.99,10.99-2.06.22-3.48,1.81-5,3-2.64,2.06-3.98,4.23-5.99,5.99-2.96,2.6-7.11,4.92-9.99,7.99-.51-4.82-6.91-15.74-10.99-17.98,3.56-1.95,6.42-5.08,9.99-6.99,1.47-.79,5.67-2.77,6.99-3,2.36-.4,5.49.28,7.99,0Z"/>
        <path class="cls-11" d="M804.09,531.96c-2.16.79-3.48,2.78-5,4-2.16,1.74-4.1,2.78-5.99,5-3.1,3.63-5.38,8.53-6.99,12.99-1.61.21-9.12,3.09-10.99,4,.34-3.57.17-9.76,1-12.99.11-.42,2.8-7.6,3-7.99.72-1.43,4.69-4.36,5-6.99,9.22-.96,11.27-.43,19.98,2Z"/>
        <path class="cls-15" d="M716.18,341.14c-1.5,6.35-2.45,12.92-5,18.98-2.44-4.9-12.52-20.19-12.99-23.98-.51-4.13,1.4-13.21,2-17.98,2.46-.15,2.54,1.53,3.52,2.98,4.4,6.49,8.51,13.24,12.47,20Z"/>
        <path class="cls-9" d="M738.15,393.09c-2.64,5.74-4.38,12.44-7.99,17.98-1.7-6.61-8.46-21.36-7.99-26.97.37-4.48,4.6-11.47,5.99-15.98l9.99,24.98Z"/>
        <path class="cls-11" d="M760.13,538.95c-1.66,2.07-.56,5.03-1,6.99-.77,3.41-1.79,4.07-2,8.99-.25,5.96.42,10.31,2,15.98-2.47,2.68-5.89,7.01-7.99,9.99-1.73-3.08-1.87-6.76-3-9.99.09-3.88-1.61-8.34-2-11.99-.27-2.57.19-5.39,0-7.99,5.74-5.86,6.91-7.44,13.99-11.99Z"/>
        <path class="cls-9" d="M686.2,298.19c-.37,5.7-.64,11.42-2,16.98-2.15.03-2.72-1.26-3.84-2.65-4.38-5.45-8.44-11.14-13.14-16.33.51-5.32,1.35-10.68,2-15.98,6.65,5.02,11.48,11.85,16.98,17.98Z"/>
        <path class="cls-11" d="M839.06,580.91c-.31,3.58-2.24,13.02-5,14.99-.83.59-5.67,3.85-5.99,4-1.57.7-7.81,2.4-9.99,3-3.86,1.06-7.95,1.98-11.99,2,.78-5.54,2.36-6.4,4-10.99,5.76-.11,10.24-3.64,14.99-5.99,4.3-2.13,4.53-1.81,8.99-5,1.57-1.12,2.87-2.24,5-2Z"/>
        <path class="cls-15" d="M776.12,544.95c-.83,3.23-.66,9.41-1,12.99-4.75,2.31-12.33,9.02-15.98,12.99-1.58-5.68-2.25-10.02-2-15.98,6.46-2.88,11.29-10.12,18.98-9.99Z"/>
        <path class="cls-9" d="M813.08,549.94c-3.57,1.91-6.43,5.04-9.99,6.99-2.11-1.16-14.36-3.34-16.98-3,1.62-4.46,3.9-9.36,6.99-12.99,7.19-.43,15.37,3.56,19.98,8.99Z"/>
        <path class="cls-15" d="M825.07,587.9c-4.75,2.35-9.23,5.88-14.99,5.99,2.09-5.89,4.68-12.54,4-18.98,2.88-3.07,7.03-5.39,9.99-7.99,3.02,6.27,2.53,14.34,1,20.98Z"/>
        <path class="cls-9" d="M749.14,478.01c.2.21-.03,1.39,1.49,1,.81-.35,1.07-1.62,1.51-1.99,3.45-.11,2.78-.64,3,2.45.21,2.9.65,8.98,0,11.54-1.2,4.67-7.47,10.58-10.99,13.99-.28-7.95-.43-16.89-1-24.98.77-.54,1.29-1.41,2-2,.55-.45,2.69-2.13,2.98-1.99.1.05.26,1.17,1.02,1.99Z"/>
        <path class="cls-15" d="M750.14,440.05c-.24.3.09,1.91-.93,2.53-2.1,1.26-5.52.29-10.06,3.47-2.63-3.61-3.96-9.56-5-13.99,2.94-4.47,7.41-9.48,9.99-13.99l5.99,21.98Z"/>
        <path class="cls-9" d="M748.14,570.92c1.12,3.23,1.27,6.91,3,9.99-2.65,3.75-4.96,9.32-7.99,12.99-1.06-.88-6.53-4.23-7.99-5-.11-.62.17-1.5,0-2,1.85-7.21,8-12.31,11-18.97,1.01-.27,1.71,2.19,1.99,2.99Z"/>
        <path class="cls-15" d="M756.14,532.96c-.63,2.46-9.92,7.48-11.98,9.99-.04-4.98.01-10,0-14.99l12.99-9.99c-.25,4.22,0,11.07-1,14.99Z"/>
        <path class="cls-15" d="M784.11,529.96c-.31,2.64-4.27,5.56-5,6.99-7.58.61-13.32,6.1-19.98,8.99.44-1.97-.67-4.92,1-6.99,9.31-5.97,12.61-7.81,23.98-8.99Z"/>
        <path class="cls-9" d="M828.07,546.94c-2.5.28-5.63-.4-7.99,0-5.16-5.99-13.17-10.07-20.98-10.99,1.51-1.22,2.84-3.21,5-4,11.75,3.27,16.37,5.53,23.98,14.99Z"/>
        <path class="cls-15" d="M766.13,584.91c-1.14,8.44-3.58,16.81-5,24.98l-5,2c-.11-.59.03-1.34,0-2-.24-4.74,1.71-14.24,3-18.98.71-2.62,4.04-5.03,6.99-5.99Z"/>
        <path class="cls-15" d="M835.06,557.93c3.03,7.54,4.7,14.77,4,22.98-2.12-.25-3.43.88-5,2l-4-21.98c1.52-1.18,2.93-2.78,5-3Z"/>
        <path class="cls-20" d="M828.07,599.89c-2.16,6.92-6.18,12.94-9.99,18.98-4.55.15-3.99-.66-6.99-2,1.88-4.37,5.44-7.64,7.77-11.71.98-1.71,2.44-2.55-.77-2.27,2.18-.6,8.42-2.3,9.99-3Z"/>
        <path class="cls-9" d="M746.15,558.93c-4.65,3.88-7.6,9.61-11.01,14.52-.86,1.24-.75,2.96-2.98,2.47-.38-1.81-1.12-4.32-2-5.99,5.18-7.7,9.62-12.48,15.98-18.98.19,2.61-.27,5.42,0,7.99Z"/>
        <path class="cls-11" d="M750.14,594.9c.37-.6.4-2.13,1.14-3.31,4.44-7.02,9.35-13.88,15.36-19.66,2.72-.23.85.56.75,1.74-.3,3.71-.77,7.55-1.26,11.24-2.96.96-6.28,3.37-6.99,5.99-3.51.51-6.03.59-6.99,4h-2Z"/>
        <path class="cls-9" d="M818.08,618.87c3.81-6.04,7.83-12.06,9.99-18.98.33-.15,5.16-3.4,5.99-4,.45,8.82-6.28,22.66-15.98,22.98Z"/>
        <path class="cls-15" d="M763.13,528.96v-16.98c1.77-2.17,3.35-6.99,5.99-8.99.07,4.57.87,20.28-.16,23.31-.96,2.81-4.62,1.99-5.83,2.66Z"/>
        <path class="cls-9" d="M818.08,602.89c3.22-.28,1.75.56.77,2.27-2.33,4.08-5.88,7.35-7.77,11.71-.45-.2-1.74.39-2.72-.23-4.02-2.57-2.76-8.32-2.27-11.75,4.04-.02,8.13-.94,11.99-2Z"/>
        <path class="cls-11" d="M732.16,575.92c.96,4.61,1.56,6.64,3,10.99.17.5-.11,1.38,0,2-4.14-2.15-5.8-2.11-9.99-3-.31-.07-1.1-.78-3-1-.32-.04-.67,0-1,0,2.97-4.96,5.77-10.2,8.99-14.99.88,1.68,1.62,4.19,2,5.99Z"/>
        <path class="cls-14" d="M763.13,528.96c-1.59.88-3.8,4.26-6.99,4,1.01-3.92.75-10.77,1-14.99,1.02-2.64,4.58-4.26,5.99-5.99v16.98Z"/>
        <path class="cls-3" d="M751.14,439.05c5.72,2.64,11.13,3,9.98,10.99-4.01-1.95-1.73-6.15-6.5-7.98-3.83-1.47,1.29,5.25,1.03,5.96l-5.49-4.97-.02,5.99c-1.87,0-2.48-4.52-3.01-4.98-2.82-2.45-2.17,4.95.02,5.98l-4.01-3.98c-1.68-.29-.82,1.26-.97,2.31-.24,1.66-3.03-.3-4.01-.32.42-.43.63-1.74,1-2,4.54-3.18,7.96-2.2,10.06-3.47,1.02-.62.69-2.22.93-2.53.22-.28.73-.79,1-1Z"/>
        <path class="cls-3" d="M739.15,453.04c2.86.3,6.07-.23,8.99.01-1.14,1.21-2.53,6.36-3.17,6.83-1.48,1.09-4.81-1.78-3.82,3.15-.37-2.49-3.19-6.43-2-9.99Z"/>
        <path class="cls-15" d="M752.14,594.9c-.54,1.91-.03,4.45-2,5.99-.77-.75-2.87-.91-4.01-1.01.28-.67.57-1.4,1.01-1.99.62-.82,2.19-1.69,3-3h2Z"/>
        <path class="cls-11" d="M761.13,609.88c-.35,2-.97,5.14-1,6.99-1.83.95-3.74-3.59-4-5l5-2Z"/>
        <path class="cls-11" d="M282.6,353.13c-3.31,6.53-8.29,17.3-10.99,23.98-5.18,1.62-10.04,3.78-14.99,5.99-3.17,1.42-5.01,2.4-7.99,4-2.59,1.38-5.43,2.53-7.99,4,1.82-5.82,5.85-22.55,9.99-25.97,1.31-1.08,4.57-2.21,6.37-3.17.9-.48,1.42-1.73,1.63-1.83,1.88-.91,8.69-3.27,10.99-4,3.92-1.24,8.96-1.55,12.99-3Z"/>
        <path class="cls-11" d="M179.7,526.96c1.99.52,6.85,1.49,7.99,2,2.71,1.19,8,7.27,10.99,8.99-2.35,1.15-6.63,6.07-8.03,8.46-1.18,2.02-3.67,7.54-3.96,9.52-2.29-3.67-5.96-6.07-8.99-8.99-2.35-2.27-4.26-3.44-5.99-5-.49-.44-2.43-4.53-5-5,2.65-5.23,4.22-6.75,7.99-10.99,1.57.66,3.46.59,5,1Z"/>
        <path class="cls-11" d="M220.66,511.98c.94,2.42,3,4.69,4,6.99.43,1,2.92,7.57,3,7.99.65,3.78-.46,8.98,0,12.99-1.75-1.2-9.68-3.74-11.99-4-1.06-5.27-3.64-9.89-6.99-13.99-2.78-3.39-3.19-2.94-5.99-5-1.47-1.08-3.18-2.97-5-4,10.56-2.46,11.89-3.11,22.98-1Z"/>
        <path class="cls-11" d="M166.71,562.93c3.06,2.27,4.72,3.2,7.99,5,4.48,2.46,8.71,5.28,13.99,5.99.68,2.51,2.9,7.49,4,10.99-3.5-1.22-7.47-.98-10.99-2-2.42-.7-7.43-2.87-9.99-4-1.9-.83-3.92-3.64-6.99-3-1.67-6.3-2.79-9.07-3-15.98,2.1.2,3.44,1.84,5,3Z"/>
        <path class="cls-9" d="M246.63,489c-2.09,2.59-7.21,4.72-9.99,6.99l1-22.98c2.95-2.13,10.29-6.34,11.99-7.99,1.6,1.01,1.15,3.85,1,5.47-.4,4.52-1.47,15.37-4,18.5Z"/>
        <path class="cls-3" d="M262.62,576.91c.01.33-.03.67,0,1-1.6.06-4.14-.62-5,1-1.28-.6-3.72,1.37-2.99-1.99,2.65-.1,5.34.12,7.99,0Z"/>
        <path class="cls-3" d="M268.61,552.94c3.28-.99,4.23,3.24,5.99,5.99-3.66-.45-2.63,5.7-1.93,7.2.45.97,3.41,2,2.92,4.23-.23,1.03-4.88,1.83-2.97,3.55.23.21,3.85-1.8,5.99,0,.18.15-.53,2.77,2,2,0,.33,0,.67,0,1-3.44,1.7-5.32-2.09-6.47-2.12-2.57-.07-6.96,1.91-11.52,2.12-.02-.66.05-1.34,0-2-.11-1.51,2.29-4.61-1.5-6.97l-3.5,6.97c-2.17-.23-3.32-1.46-3-4,.05-.37,1.55-2.37,2-3,1.58-2.21,5.31-3.09,2-7.99,2.64-.6,2.8-4.79,3.01-5,1.7-1.68,3.46,4.03,4.97,3.99.66-1.5.56-3.67,1.01-4.99.11-.31.91-.67,1-1ZM272.61,567.93c-3.11-1.63-7.54.43-7.99,3.98,2.98-.83,2.28,1.26,3.99,2-.54-3.61,2.52-3.62,4.01-5.98Z"/>
        <path class="cls-11" d="M246.63,489c3.54-.34,1.14.84,1.07,2.56-.21,5.14,0,10.29-.08,15.42-3.66-.25-5.8,3.57-8.99,5-3.17-1.73-8.85-4.86-11.99-5.99.97-1.13,1.99-3.06,3-4,1.91-1.78,4.92-4.3,6.99-5.99,2.78-2.27,7.9-4.41,9.99-6.99Z"/>
        <path class="cls-11" d="M257.62,534.96v1c-1.8,5.11-1.11,11.62-2,16.98-4.74-.21-6-6.05-10.99-5,.41-2.99.94-5.95,1-8.99s.21-6.17,0-8.99c-.16-2.12-1.57-4.55-1-6.99,5.4,3.98,8.54,7,12.99,11.99Z"/>
        <path class="cls-9" d="M248.63,387.1l-6.99,25.97c-2.69,1.61-5.07,3.76-7.99,5,2.25-10.18,3.86-16.98,6.99-26.97,2.56-1.47,5.4-2.61,7.99-4Z"/>
        <path class="cls-9" d="M270.61,336.15l-11.99,23.98c-.2.1-.72,1.35-1.63,1.83-1.79.96-5.06,2.09-6.37,3.17-3.49.25-1.38-.61-.8-2.3,1.49-4.32,9.22-19.65,11.79-23.68,2.99-.81,6.16-1.78,8.99-3Z"/>
        <path class="cls-15" d="M234.65,455.03c-.11.08-.02,1.8-.92,2.53-2.36,1.89-5.23,4.52-8.07,5.46,1-8.45,2.59-16.62,4-24.98,2.07-2.11,4.78-3.39,6.99-5,1.91.95.58,3.37.35,4.82-.92,5.7-1.71,11.42-2.34,17.15Z"/>
        <path class="cls-9" d="M229.65,501.99c-1,.94-2.03,2.86-3,4-.87-.31-3.67.34-4,0-.84-.86.77-19.76,1-22.98,2.45-1.49,4.74-3.25,6.99-5l.04,16.52-1.04,7.46Z"/>
        <path class="cls-9" d="M197.68,512.98c1.81,1.03,3.53,2.92,5,4-8.7.82-15.41,6.31-22.98,9.99-1.54-.4-3.42-.34-5-1,8.53-9.61,10.45-10.07,22.98-12.99Z"/>
        <path class="cls-15" d="M244.64,522.97c-.57,2.44.84,4.87,1,6.99-7.25-3.18-12.84-9.69-20.98-10.99-1-2.3-3.06-4.57-4-6.99,10.9,2.08,15.15,4.49,23.98,10.99Z"/>
        <path class="cls-15" d="M166.71,536.95c2.57.46,4.5,4.56,5,5-3.79,6.52-3.3,13.9-5,20.98-1.56-1.16-2.9-2.8-5-3-.28-9.71.65-14.38,5-22.98Z"/>
        <path class="cls-9" d="M268.61,552.94c-.09.33-.89.69-1,1-7.21-2.25-11.49-10.41-9.99-17.98v-1c2.33,2.62,11.81,13.83,11.77,16.33-.01.68-.66,1.19-.78,1.65Z"/>
        <path class="cls-3" d="M274.61,323.16c4.21-.73,9.63,5.55,5,7.99l-.51-1.99c-.75.36-1.05,1.68-1.5,1.99-.25.17-1.33-.27-1.73.18-.18.21.33,1.11-.26,1.82-.56-.46-4.63-1.02-5-1-.64-.62-1.26-1.54-2-2-.13-.94.19-2.15,0-3,2.67.23,4.17-3.68,5.99-4Z"/>
        <path class="cls-11" d="M274.61,558.93c2.6,4.08,7.23,10.03,4,14.99-2.13-1.8-5.76.21-5.99,0-1.91-1.73,2.75-2.52,2.97-3.55.49-2.24-2.46-3.26-2.92-4.23-.7-1.5-1.73-7.64,1.93-7.2Z"/>
        <path class="cls-15" d="M247.63,506.98c-.05,3.32.04,6.67,0,9.99-1.19,1.31-7.75-4.32-8.99-4.99,3.19-1.43,5.33-5.24,8.99-5Z"/>
        <path class="cls-11" d="M270.61,332.15c.36-.02,4.44.53,5,1-1.83,2.17-2.56,1.95-5,3-2.83,1.22-6,2.19-8.99,3,1.99-3.12,5.19-6.76,8.99-6.99Z"/>
        <path class="cls-11" d="M262.62,325.16l-2.01,9.99c-1.66.34-2.35-.56-2.99-2,1.48-2.77,2.62-5.59,5-7.99Z"/>
        <path class="cls-11" d="M447.44,200.28c2.19,2.83,7.58,3.43,9.99,5,1.01.66,4.49,3.79,5.99,5,3.94,3.16,7.67,7.16,10.99,10.99-7.22.47-16.66,1.61-23.98,3-3.74-4.32-9.21-6.46-13.99-8.99-3.72-1.97-5.73-3.44-9.99-5-2.41-.88-4.43-1.52-6.99-2,.65-1.89,2.41-2.01,3.98-2.52,7.45-2.38,16.26-4.04,23.99-5.48Z"/>
        <path class="cls-5" d="M388.5,219.26c2.06-.13,4.89.56,6.99,1,3.66.76,9.35,2.67,12.99,4,5.24,1.9,10.03,4.51,14.99,6.99-6.32,2.01-15.65,6.22-21.98,8.99-4.62-2.1-13.03-5.94-17.98-5-1.23-2.63-5.35-2.55-7.99-3-3.26-.55-6.64-1.45-9.99-1,4.37-3.22,11.07-7.35,15.94-9.53,2.06-.92,4.82-2.32,7.04-2.46Z"/>
        <path class="cls-11" d="M339.54,248.24c.56-.13,1.35.07,2,0,.98-.1,2.01.05,3,0,.33-.02.67,0,1,0,1.97-.05,4.03-.12,5.99,0,3.64.22,7.39.47,10.99,1,4.35.64,10.26,1.86,13.99,4-5.2,3.05-15.98,12.02-20.98,11.99-4.7-.03-9.92-2.92-14.99-2l-17.98-2c3.57-3.01,13.24-12.13,16.98-12.99Z"/>
        <path class="cls-5" d="M320.56,281.2c5.52-.08,10.54.63,15.98,1-5.49,4.98-11.05,11.4-15.98,16.98-4.11.52-9.61-1.22-12.99,1-1.33-.03-2.67.03-4,0-2.47-.06-8.69-1.07-10.99-1-.34-1.49.8-2.9,1-4,.16-.91-.23-2.25,0-3,1.63-5.31,3.23-4.83,5.99-7.99,3.6-1.05,7.27-1.52,10.99-2,3.36-.43,6.57-.95,9.99-1Z"/>
        <path class="cls-9" d="M320.56,263.22l9.99.49-19.98,18.49c-3.72.48-7.39.95-10.99,2,7.39-8.48,12.65-13.62,20.98-20.98Z"/>
        <path class="cls-15" d="M365.52,231.25c3.35-.45,6.73.45,9.99,1-5.65,4-12.01,6.97-17.9,10.56-1.83,1.12-6.11,2.96-6.07,5.42-1.96-.12-4.03-.05-5.99,0l-.5-.98-.5.98c-.99.05-2.02-.1-3,0l-1-1c2.61-3.14,21.29-15.49,24.98-15.98Z"/>
        <path class="cls-9" d="M419.46,208.27c2.56.48,4.58,1.11,6.99,2l-24.16,9.31-6.81.68c-2.1-.44-4.93-1.13-6.99-1,.65-1.76,2.2-2.14,3.72-2.77,5.96-2.49,17.43-7.16,23.27-8.8,2.4-.67,2.58.32,3.98.58Z"/>
        <path class="cls-9" d="M626.26,232.25c.69,2.79,1.67,5.05,2,7.99l-23.98-12.99c-.94-2.34-2.71-4.37-3-6.99,8.65,3.88,16.38,6.99,24.98,11.99Z"/>
        <path class="cls-20" d="M340.54,263.22c-7.04,5.52-14.45,10.84-19.98,17.98-3.42.05-6.63.57-9.99,1l19.98-18.49-9.99-.49c.6-.53,1.11-1.25,2-2l17.98,2Z"/>
        <path class="cls-15" d="M476.41,196.29l5,5.99c-6.55-1.06-17.47,1.09-23.98,3-2.41-1.56-7.8-2.16-9.99-5,9.55-1.77,19.26-3.27,28.97-4Z"/>
        <path class="cls-15" d="M577.31,210.27c.47,1.11.48,3.09,1,4-.89,1.93-3.2.43-4.52.03-6.02-1.81-12.19-4.34-18.46-5.02-.45-.72-.7-1.54-1-2l-1-1c-.87-1.2-3.77-2.4-4-5,10.04,2.1,18.52,5.58,27.97,8.99Z"/>
        <path class="cls-9" d="M523.36,197.29c1.25,1.68,2.62,3.42,4,5-7.55,2.13-17.07-.69-24.98-1-1.47-1.53-4.07-2.62-5-5,8.51.07,17.06-.03,25.97,1Z"/>
        <path class="cls-14" d="M341.54,248.24c-.65.07-1.44-.13-2,0,.27-.38.7-.65,1-1l1,1Z"/>
        <path class="cls-15" d="M759.13,427.06c-1.97,1.04-3.52.36-3,3-1.86.96-2.07,2.5-3.02-.45-2.13-6.54-2.55-13.83-3.97-20.53,1.06-2.13,1.06-7.05,4-8.99,2.74,9.77,4.34,17.02,5.99,26.97Z"/>
        <path class="cls-14" d="M749.14,409.08c1.42,6.71,1.85,13.99,3.97,20.53.96,2.94,1.16,1.4,3.02.45.09.46,1.65,1.45,1,2.99-6.49-.98-.71,4.76-1,4.99-2.21-.15-3.25-.32-5,1.01-.27.21-.78.72-1,1l-5.99-21.98c1.31-2.29,3.99-6.97,5-8.99Z"/>
        <path class="cls-20" d="M752.14,477.01c2.14-1.86,3.08-2.71,3.01-5.99,2.89,1.4,2.71,8.66,5.98,2.99.04,3.47-.86,8.34,1,10.99-1.76,2.37-3.94,5.55-6.99,5.99.66-2.56.22-8.64,0-11.54-.22-3.09.44-2.56-3-2.45Z"/>
        <path class="cls-4" d="M766.13,461.03c3.61,5.6,1.78,9.64-2.99,13.5-.51,2.36,3.37,1.57,3.04,3.96-.09.64-3.32,5.54-4.05,6.52-1.85-2.65-.96-7.52-1-10.99-.05-4.65-1.4-3.84,2-8.99.67-1.02,2.58-2.25,3-4Z"/>
        <path class="cls-4" d="M770.14,467.02c-.38-.26-2.57-8.38-2.01-8.98,6.64-1.03,6.94,12.32,2.01,8.98Z"/>
        <path class="cls-20" d="M765.13,442.05c1.7-1.61,3.77-.52,4.08,1.93l.91-.93h1c-.22.4.36,1.71.07,2.38-.47,1.11-2.31.27-2.87.82-.94.93,1.4,3.86-4.19,2.79l.99-6.99Z"/>
        <path class="cls-3" d="M754.13,468.03l-8.02,1.5c-2.54-.4-2.09-1.19-1.96-3.5l9.98,2.01Z"/>
        <path class="cls-3" d="M749.14,464.03l8.97-2.52c-1.52,3.32-6.25,6.99-8.97,2.52Z"/>
        <path class="cls-3" d="M749.14,478.01c-.76-.82-.92-1.95-1.02-1.99-.29-.13-2.43,1.54-2.98,1.99,1.43-3.35,3.54-6.51,6.98-7.99l-2.99,7.99Z"/>
        <path class="cls-3" d="M766.13,461.03c-.42,1.74-2.32,2.98-3,4-7.73.74,1.01-7.07,3-4Z"/>
        <path class="cls-3" d="M751.14,457.03c-.62.58-3.29,2.63-4,1.99,1.79-5.74,6.86-5.21,11.99-4.98-1.24,3.54-4.84.36-7.37.92-1.18.26-.44,1.9-.62,2.07,1.38-.29,2.66.53,3,1.99h-2.99s0-1.99,0-1.99Z"/>
        <path class="cls-3" d="M760.13,458.04c.13.12-.05,1.36,0,1.99-2.57-1.2-5.73,1.65-4.98-1.99,1.13.19,4.63-.31,4.98,0Z"/>
        <path class="cls-9" d="M288.59,333.15c1.79-1.09,7.04-2.16,5.98.48-3.7,5.66-7.07,11.85-10.16,17.86-.48.93-1.7,1.41-1.82,1.64-4.03,1.45-9.06,1.76-12.99,3-3.33.26-1.59-.56-.81-2.31,3.09-6.93,7.74-13.52,9.8-20.67,1.13.26,2.98-.3,4,0,.21.06,1.17,2.32,3.72,1.78,2.15-.46,1.83-1.5,2.27-1.78Z"/>
        <path class="cls-15" d="M307.57,300.18c3.98.1,8-.07,11.99,0-5.02,5.75-10.2,12.88-14.99,18.98l-7.99-1c-.99-3.25,2.56-1.5,3-2,1.52-1.75-1.93-3.76-2-3.99-.21-.75-.07-2.99,0-4,.05-.64-.15-1.53,0-2,.69-2.17,4.85-3.95,5.99-5.99,1.33.03,2.67-.03,4,0Z"/>
        <path class="cls-20" d="M277.6,331.15v1c.01.67.42.87,1,1-2.07,7.15-6.71,13.74-9.8,20.67-.78,1.75-2.52,2.57.81,2.31-2.3.73-9.11,3.09-10.99,4l11.99-23.98c2.44-1.05,3.17-.83,5-3,.59-.7.08-1.61.26-1.82.4-.46,1.49,0,1.73-.18Z"/>
        <path class="cls-14" d="M292.59,299.19c2.3-.07,8.52.94,10.99,1-1.14,2.04-5.3,3.82-5.99,5.99-7.29-1.4-6.57,1.36-10.06,4.43-3.85,3.38-4.36-.27-4.93-.43.1-.63-.15-1.46,0-2,.07-.26.73-1.39,1-2,.39-.87,1.66-1.74,1.82-2.72.22-1.37-1-3.11-.82-3.27.3-.27,6.85-.97,7.99-1.01Z"/>
        <path class="cls-4" d="M293.59,295.19c-.19,1.1-1.34,2.5-1,4-1.15.03-7.69.74-7.99,1.01-.18.15,1.05,1.89.82,3.27-.16.98-1.43,1.85-1.82,2.72-1.64-.4-3.28-1.01-5-1-4.22-8.47,9.88-8.74,14.99-9.99Z"/>
        <path class="cls-14" d="M284.31,314.47c.51.4,3.88,5.16,3.28,5.69-2.6-.89-7.79.96-9.55.67-.75-.12-6.06-8.03-5.42-8.65,3.36,1.52,8.98.13,11.69,2.29Z"/>
        <path class="cls-4" d="M271.61,315.17c.22.43-.23,1.64,0,2l-1,.99h2c.41.82,3.19,1.93,2,5.01-1.82.31-3.33,4.23-5.99,4-.69-3.1-5.17-5.8-1-8.99.24-.19,1.43.3,1.86-.09.17-.15-1.5-3.28,2.14-2.91Z"/>
        <path class="cls-20" d="M282.6,308.18c-.15.54.1,1.37,0,2-1.37-.39-9.03.69-9-.51,1-4.75,6.02-1.02,9-1.49Z"/>
        <path class="cls-3" d="M287.71,326.04c-.22-.19-1.67-5.64-1.58.1-1.61-.54-4.01-2.46-2.53-3.97.91-.92,7.46,1.53,7.99.99l-1.5-6.97c8.13,3.65-1.34,10.75-2.37,9.85Z"/>
        <path class="cls-20" d="M297.58,308.18c-.07,1-.21,3.24,0,4l-6-.5,6-3.5Z"/>
        <path class="cls-20" d="M271.61,315.17c-3.64-.37-1.97,2.75-2.14,2.91-.43.39-1.62-.09-1.86.09-.16-1.9-.22-3.83,1.51-4.99,1.43-.31,1.96.98,2.48,1.99Z"/>
        <path class="cls-3" d="M282.6,333.15c-1.02-.3-2.86.26-4,0-.57-.13-.99-.33-1-1,1.6.06,4.14-.62,5,1Z"/>
        <path class="cls-20" d="M272.61,318.17h-2s1-1,1-1c.23.36.82.64,1,1Z"/>
        <path class="cls-15" d="M720.17,324.16c-.94,2.93-1.32,6.01-2,8.99-5.87-6.81-8.89-16.29-15.98-21.98.45-4.09-.32-8.8,0-12.99,7.38,9.42,11.75,15.77,17.98,25.97Z"/>
        <path class="cls-9" d="M745.15,377.11c-.7,3.08-1.77,6.09-3,8.99l-10.99-26.97c.79-2.99.41-7.73,2-10.99,5.71,11.6,7.71,16.94,11.99,28.97Z"/>
        <path class="cls-14" d="M759.13,590.9c-1.29,4.74-3.23,14.24-3,18.98-2.42-1.5-4.61-7.63-5.99-8.99,1.97-1.55,1.46-4.09,2-5.99.96-3.41,3.49-3.48,6.99-4Z"/>
        <path class="cls-1" d="M725.17,585.91l-3-1c1.9.22,2.69.93,3,1Z"/>
        <path class="cls-16" d="M357.53,594.9c-.56-.47-3.52-2.7-4-3,5.91-9.5,11.52-18.5,12.48-29.97,6.4,12.54-5.14,21.74-8.49,32.96Z"/>
        <path class="cls-1" d="M416.47,584.91l-1-1c.75.08.93.99,1,1Z"/>
        <path class="cls-9" d="M732.16,523.96c-7.21-.13-8.51,3.05-10.49,9.01-2.52-7.23-3.22-7.4-10.5-9.5,7.32-2.7,8.28-4.15,10.5-11.5.6,0,1.56,6.36,3.02,7.98,2.24,2.47,6.01,1.07,7.47,4.01Z"/>
        <path class="cls-15" d="M245.63,538.95c-.06,3.04-.59,6-1,8.99-.35,2.61-.17,3.22-1,5.99-6.87-1.31-11.33-10.79-15.98-13.99-.46-4,.65-9.2,0-12.99l17.98,11.99Z"/>
        <path class="cls-9" d="M208.67,521.97c3.35,4.09,5.93,8.72,6.99,13.99-4.35-.48-13.07.09-16.98,2-2.99-1.72-8.28-7.8-10.99-8.99,6.58-3.28,13.42-6.62,20.98-6.99Z"/>
        <path class="cls-15" d="M186.69,555.94c-.6,4.05.87,13.83,2,17.98-5.28-.71-9.51-3.54-13.99-5.99.7-6.56-2.09-15.72,3-20.98,3.03,2.92,6.7,5.32,8.99,8.99Z"/>
        <path class="cls-11" d="M234.65,557.93l-7.99,10.99c-.2-1.12-1.55-3.34-1.87-5.63-.8-5.71-1.34-11.56-1.12-17.34,4.72,1.48,7.8,5.25,10.41,9.11.66.97.35,2.47.57,2.88Z"/>
        <path class="cls-14" d="M227.65,571.92l5.99,1.01-1.99,3.98c2.45-.79,6.17-.45,8.29-1.03.39-.11,1.64-3.69,3.53-.81,3.41,5.2-8.15,4.17-6.84,9.83-2.62-.1-5.38-.12-7.99,0,.28-4.46-1.18-8.69-2-12.99h1Z"/>
        <path class="cls-3" d="M255.62,552.94c-.4,2.42-1.69,5.39-2,7.99-.33.08-.87-.13-1,0l-4.99-4c1.2,5.32-1.85,2.93-4,6-5.21-5.31-1.63-3.5,0-8.99.83-2.77.65-3.38,1-5.99,4.99-1.06,6.25,4.79,10.99,5Z"/>
        <path class="cls-9" d="M181.7,582.91c3.52,1.02,7.49.78,10.99,2,.07.24,2.01.35,1.97,3.33-.03,1.83-1.08,6.05-2.97,6.66-3.12-2.2-7.5-5.89-10.99-6.99.09-2.71-2.71-5.66,1-5Z"/>
        <path class="cls-20" d="M234.65,557.93c.15.26,3.2.11,3.06,4.43-.01.37-6.66,3.29,1.93,1.56.06,1.32-.05,2.67,0,3.99l-2,3c-3.24.56-1.91-3.53-4.49-3.02-.79.16-.31,1.47-.72,1.73-1.89,1.2-5.43-1.39-4.78,2.29h-1c-.17-.91.16-2.08,0-3l7.99-10.99Z"/>
        <path class="cls-11" d="M254.63,570.92c-.32,2.54.83,3.76,3,4,1.63.18,3.35-.12,5,0,.05.66-.02,1.34,0,2-2.65.12-5.34-.09-7.99,0-.73,3.36,1.71,1.4,2.99,1.99.44.21.9,2.27,1,3-.58-.18-2.16-.03-3,0s-1.73.06-2,1c-.15-.19-2.01-.1-2.59-.96-.71-1.06.74-2.91.6-3.03-.18-.17-1.9.46-3.08-.65-1.41-1.32-1.74-5.14-1.93-5.35.59.13,1.62-.19,2,0,.93.47,2.85,3.05,4.99,3v-5h1.01Z"/>
        <path class="cls-11" d="M262.62,576.91c4.55-.21,8.95-2.19,11.52-2.12,1.14.03,3.02,3.82,6.47,2.12,0,.06,1.2.29.6.97-2.11,2.42-3.15-.1-2.6,4.02-5.3.45-5,5.52-5.99,9.99-1.02,1.63-1.32,3.76-3,5-1-.92-4.44-2.91-5.99-4-.34-4.15,4.22-1.81,6-2.51-.22-1.58-5.31-7.43-6-7.48.95-1.85-.93-4.23-1-5-.03-.33.01-.67,0-1Z"/>
        <path class="cls-11" d="M243.64,562.93c2.15-3.06,5.2-.68,4-6l4.99,4c-.18.18.25,1.05-.02,1.33-3.41,3.42-3.81,4.32-1.98,9.66-.62.11-1.35-.07-2,0-.95-1.91-.48-5.48-1.51-7-.59-.87-2.55-1.04-3.49-1.99Z"/>
        <path class="cls-3" d="M253.63,570.92v5c-2.15.05-4.06-2.52-5-3v-1c.64-.07,1.38.11,2,0,1.05-.19,2.05-.51,3-1Z"/>
        <path class="cls-4" d="M255.62,581.91l2,6.99c-.71-.35-2.01-.6-3-1-.65-.98-.73-4.66-1-5,.27-.94,1.16-.97,2-1Z"/>
        <path class="cls-3" d="M258.62,581.91c.12.04.53,1.54,1.69,1.86,1.71.47,2.97-.88,3.3-.86.69.05,5.78,5.9,6,7.48-1.79.7-6.34-1.64-6,2.51-1.29-.91-4.97-3.5-5.99-4l-2-6.99c.83-.03,2.41-.18,3,0Z"/>
        <path class="cls-20" d="M181.7,582.91c-3.71-.66-.91,2.28-1,5-1.83-.58-7.11-1.74-8.99-2h3s-3-6.99-3-6.99c2.56,1.12,7.57,3.29,9.99,4Z"/>
        <path class="cls-16" d="M535.35,451.04c-43.78,8-44.14-56.6-9.77-66.22,24.93-6.97,45.91,14.66,42.48,39.48-.32,2.32-2.74,10.59-5.24,10.73-2.62.15.39-8.08.49-9.48,1.74-24.97-19.9-45.34-43.94-32.45-.2,1.75,2.81.94,3.99.99,8.44.36,13.29.6,19.99,6.48,16.21,14.25,11.44,41.55-8,50.46Z"/>
        <path class="cls-19" d="M535.35,451.04c19.44-8.91,24.21-36.21,8-50.46-6.7-5.89-11.56-6.12-19.99-6.48,30.96-7.24,47.32,34.15,22.31,52.78-4.13,3.08-5.52,3.29-10.32,4.17Z"/>
        <path class="cls-9" d="M326.55,342.14c.53.56,2.64,12.78,3.48,15.01,2.86,7.53,14.57,5.43,20.51,9.47,0,1.62-16.32,3.6-19.03,6.95-2.96,3.65-3.49,13.78-4.96,18.52-4.84-4.02-3.01-14.93-7.45-19.01-3-2.76-18.49-4.78-18.49-6.46,4.71-3.51,14.23-2.58,18.5-6.46,3.23-2.94,4.08-12.06,5.44-16.55.32-1.05.36-3.22,2-1.47Z"/>
        <path class="cls-15" d="M378.5,268.21c.26.33.21,5.74,2.54,7.96,1.6,1.53,9.59,1.89,7.46,4.02-.71.7-6.43.95-7.76,2.24-.99.96-2.08,10.01-4.21,7.77-.28-.29-.84-6.41-2.23-7.77-1.55-1.5-6.81-1.31-8.76-2.72,1.91-2.27,5.82-1.45,7.95-3.04,2.08-1.56,2-4.95,2.94-7.05.37-.82.58-3.29,2.09-1.41Z"/>
        <path class="cls-16" d="M397.49,461.03c-25.21-13.6-22.9-51.48,8.99-51.96-.48-1.73-2.55-2.31-4-2.99-16.57-7.73-30.84,11.28-31.05,26.48-.09,6.34,3.04,14.15,4.07,20.47-1.61,1.71-5.36-5.75-5.77-6.71-8.91-20.99,3.2-50.61,28.99-46.97,28.87,4.08,36.76,65.68-1.24,61.68Z"/>
        <path class="cls-19" d="M402.48,406.08c1.45.67,3.51,1.26,4,2.99-31.89.47-34.2,38.36-8.99,51.96-21.5-2.26-29.13-32.22-13.51-46.98,5.71-5.39,11.45-5.65,18.51-7.97Z"/>
        <path class="cls-15" d="M691.2,363.14c1.54,1.55-.34,1.7-1.39,2.09-4.33,1.57-13.95,2.45-16.62,5.36-3.88,4.23-2.96,13.8-6.46,18.49-1.9-.02-3.99-15.79-6.52-18.43-2.95-3.09-16.7-4.31-17.96-5.53-1.33-1.3.23-1.75,1.26-2.22,4.14-1.87,13.81-2.28,16.69-5.29,3.43-3.58,2.81-14.35,6.53-18.45,2.77,4.4,2.75,14.35,5.9,18.07,3.28,3.87,16.79,4.12,18.57,5.92Z"/>
        <path class="cls-9" d="M436.45,215.27c4.78,2.53,10.25,4.67,13.99,8.99-6.88,1.3-20.19,4.84-26.97,6.99-4.95-2.48-9.74-5.09-14.99-6.99.64-1.91,2.44-1.95,3.97-2.53,7.49-2.79,16.03-5.85,24-6.47Z"/>
        <path class="cls-15" d="M401.48,240.24c-8.87,3.88-16.66,8.1-24.98,12.99-3.73-2.14-9.64-3.36-13.99-4-1.78-2.13-.15-2.13,1.26-3.23,2.9-2.27,16.74-10.19,19.72-10.76,4.95-.95,13.36,2.9,17.98,5Z"/>
        <path class="cls-9" d="M355.53,265.22c1.55,1.88.28,2.29-1.06,3.42-5.29,4.47-13.05,9.14-17.92,13.57-5.44-.37-10.46-1.08-15.98-1,5.53-7.14,12.94-12.46,19.98-17.98,5.06-.92,10.28,1.97,14.99,2Z"/>
        <path class="cls-15" d="M488.4,208.27c4.17,3.91,8.86,7.38,10.99,12.99-8.21.27-16.87-.53-24.98,0-3.32-3.83-7.05-7.83-10.99-10.99,8.05-2.54,16.65-1.96,24.98-2Z"/>
        <path class="cls-9" d="M271.61,377.11c-.23.58.19,2.13-.24,3.21-2.04,5.12-6.24,20.62-9.75,22.76-2.67,1.63-7.71,3.16-10.99,5-1.37-1.79.2-5.74.68-7.81,1.38-5.88,3.17-11.54,5.31-17.16,4.94-2.21,9.8-4.37,14.99-5.99Z"/>
        <path class="cls-14" d="M320.56,299.19c-.31.35-.69.65-1,1-3.98-.07-8,.1-11.99,0,3.38-2.21,8.87-.48,12.99-1Z"/>
        <path class="cls-4" d="M582.31,518.97c-1.65-.86-.89-3.4-1-5,1.6.84.96,3.39,1,5Z"/>
        <path class="cls-14" d="M245.63,428.06c-1.56,7.5-4.31,15.26-4,22.98-1.94,1.25-6.36,3.53-6.99,4,.63-5.73,1.42-11.45,2.34-17.15.24-1.46,1.57-3.87-.35-4.82,4.36-3.16,5.29-2.97,8.99-5Z"/>
        <path class="cls-20" d="M237.64,473.02l-1,22.98c-2.07,1.7-5.09,4.21-6.99,5.99l1.04-7.46-.04-16.52c2.39-1.85,4.6-3.27,6.99-5Z"/>
        <path class="cls-20" d="M527.36,202.28c3.63,4.12,3.46,4.63,5.99,8.99-7.5-.93-16.66-4.51-23.98-2-2.18-2.63-4.63-5.53-6.99-7.99,7.91.31,17.42,3.13,24.98,1Z"/>
        <path class="cls-14" d="M481.4,202.28c3.74.6,4.72,3.86,6.99,5.99-8.33.03-16.93-.54-24.98,2-1.51-1.21-4.98-4.34-5.99-5,6.5-1.91,17.42-4.05,23.98-3Z"/>
        <path class="cls-20" d="M256.62,383.1c-2.14,5.62-3.93,11.28-5.31,17.16-.49,2.07-2.05,6.02-.68,7.81-2.98,1.67-6.06,3.24-8.99,5l6.99-25.97c2.98-1.59,4.82-2.58,7.99-4Z"/>
        <path class="cls-14" d="M554.33,207.28c-.22-.34-.73-.62-1-1l1,1Z"/>
        <path class="cls-20" d="M742.15,386.1c-1.35,3.2-3.22,5.31-4,6.99l-9.99-24.98c.88-2.86,2.36-6.6,3-8.99l10.99,26.97Z"/>
        <path class="cls-14" d="M718.17,333.15c-.6,2.67-1.37,5.34-2,7.99-3.96-6.76-8.07-13.51-12.47-20-.98-1.44-1.06-3.13-3.52-2.98.28-2.26,1.84-5.52,2-6.99,7.1,5.69,10.12,15.17,15.98,21.98Z"/>
        <path class="cls-14" d="M834.06,582.91c-4.46,3.18-4.69,2.87-8.99,5,1.53-6.64,2.02-14.71-1-20.98,2.01-1.77,3.35-3.93,5.99-5.99l4,21.98Z"/>
        <path class="cls-20" d="M820.07,546.94c-1.33.23-5.52,2.21-6.99,3-4.61-5.43-12.79-9.42-19.98-8.99,1.89-2.22,3.84-3.26,5.99-5,7.81.92,15.82,5,20.98,10.99Z"/>
        <path class="cls-14" d="M779.11,536.95c-.2.39-2.89,7.57-3,7.99-7.69-.13-12.52,7.11-18.98,9.99.2-4.92,1.23-5.58,2-8.99,6.66-2.89,12.4-8.38,19.98-8.99Z"/>
        <path class="cls-20" d="M748.14,570.92c-.28-.8-.98-3.26-1.99-2.99-3.01,6.66-9.15,11.77-11,18.97-1.44-4.34-2.03-6.38-3-10.99,2.22.5,2.12-1.23,2.98-2.47,3.41-4.91,6.36-10.63,11.01-14.52.38,3.64,2.09,8.1,2,11.99Z"/>
        <path class="cls-14" d="M177.7,546.94c-5.08,5.26-2.29,14.42-3,20.98-3.27-1.8-4.94-2.73-7.99-5,1.69-7.08,1.21-14.46,5-20.98,1.74,1.55,3.64,2.73,5.99,5Z"/>
        <path class="cls-20" d="M202.68,516.97c2.81,2.06,3.21,1.6,5.99,5-7.56.37-14.4,3.72-20.98,6.99-1.15-.51-6-1.47-7.99-2,7.57-3.68,14.28-9.17,22.98-9.99Z"/>
        <path class="cls-14" d="M245.63,529.96c.21,2.82.06,6.11,0,8.99l-17.98-11.99c-.07-.42-2.56-6.99-3-7.99,8.14,1.29,13.73,7.81,20.98,10.99Z"/>
        <path class="cls-20" d="M257.62,535.95c-1.5,7.57,2.78,15.73,9.99,17.98-.45,1.32-.35,3.49-1.01,4.99-1.51.04-3.27-5.67-4.97-3.99-.21.21-.37,4.4-3.01,5-.17-.26-2.85-2.13-2.99-2,.48,1.29-.94,2.53-1.01,3h-1c.3-2.6,1.6-5.57,2-7.99.89-5.36.2-11.87,2-16.98ZM259.11,550.96c-.99.7.54,1.37,1.02,1.96.99-.66-.47-1.32-1.02-1.96Z"/>
        <path class="cls-14" d="M254.63,560.93c-.33,2.27-.54,6.23,2,6.99-.45.63-1.95,2.62-2,3h-1c-.94.49-1.95.81-3,1-1.83-5.35-1.43-6.24,1.98-9.66.28-.28-.15-1.14.02-1.33.12-.13.67.08,1,0h1Z"/>
        <path class="cls-4" d="M258.62,559.93c3.31,4.91-.41,5.79-2,7.99-2.54-.76-2.33-4.72-2-6.99.07-.47,1.49-1.7,1.01-3,.13-.13,2.81,1.74,2.99,2Z"/>
        <path class="cls-20" d="M262.62,574.92c-1.64-.12-3.36.18-5,0l3.5-6.97c3.79,2.36,1.39,5.47,1.5,6.97Z"/>
        <path class="cls-11" d="M272.61,567.93c-1.48,2.36-4.55,2.36-4.01,5.98-1.71-.73-1.01-2.83-3.99-2,.45-3.55,4.88-5.61,7.99-3.98Z"/>
        <path class="cls-20" d="M436.45,215.27c-7.98.61-16.51,3.67-24,6.47-1.53.57-3.33.61-3.97,2.53-3.64-1.32-9.32-3.23-12.99-4l6.81-.68,24.16-9.31c4.26,1.56,6.27,3.03,9.99,5Z"/>
        <path class="cls-14" d="M383.5,235.25c-2.98.57-16.82,8.49-19.72,10.76-1.41,1.1-3.05,1.1-1.26,3.23-3.6-.53-7.35-.78-10.99-1-.04-2.46,4.24-4.3,6.07-5.42,5.9-3.6,12.25-6.57,17.9-10.56,2.64.45,6.76.36,7.99,3Z"/>
        <path class="cls-14" d="M345.54,248.24c-.33,0-.67-.02-1,0l.5-.98.5.98Z"/>
        <path class="cls-4" d="M262.62,577.91c.07.77,1.95,3.15,1,5-.34-.02-1.6,1.32-3.3.86-1.16-.32-1.57-1.82-1.69-1.86-.1-.72-.56-2.79-1-3,.85-1.62,3.39-.94,5-1Z"/>
        <path class="cls-3" d="M259.11,550.96c.55.64,2.01,1.3,1.02,1.96-.48-.59-2.01-1.26-1.02-1.96Z"/>
      </g>
      <g>
        <path class="cls-13" d="M899.57,734.47c0,39.87-26.75,64.63-69.79,64.63-25.14,0-43.74-3.67-56.86-11.21-5.73-3.3-10.45-7.31-14.1-11.98-10.45,18.76-26.44,23.19-39.17,23.19-7.65,0-18.24-2.47-26.51-9.01-7.94,5.91-17.64,9.01-28.71,9.01-24.75,0-43.48-8.79-55.69-26.14-.64-.92-1.27-1.85-1.87-2.81-10.84,24.88-30,28.95-41.34,28.95-9.92,0-25.79-3.1-37-20.38-8.24,12.9-22.02,20.38-39.45,20.38-18.98,0-34.48-8.7-44.5-20.25-12.22,17.42-28.48,20.25-37.72,20.25-20.62,0-35.67-9.25-44.86-27.52-10.95,23.61-29.58,27.52-40.7,27.52s-30.12-3.97-41.22-28.07c-9.23,18.64-24.41,28.07-45.24,28.07-19.09,0-29.96-7.78-36.35-16.65-10.22,10.9-24.18,16.65-40.41,16.65-24.29,0-40.85-12.83-49.22-38.13-6-18.15-8.44-43.58-8.44-87.78,0-31.56,2.92-54.19,9.21-71.2,11.52-31.18,32.7-37.73,48.45-37.73,17.29,0,30.18,6.06,38.96,18.43.66-.78,1.34-1.54,2.03-2.28,9.86-10.57,22.23-16.15,35.77-16.15,12.71,0,28.95,4.22,40.84,22.03,6.78-12.22,20.96-22.03,45.62-22.03s38.82,9.96,45.5,22.32c12.49-18.06,29.67-22.32,43.09-22.32,15.8,0,29.46,6.62,37.73,17.09,10.74-11.19,23.88-17.09,38.12-17.09,18.15,0,28.97,7.06,34.85,12.98,1.1,1.1,2.13,2.27,3.09,3.48,7.74-9.5,21.07-16.46,41.85-16.46,37.17,0,50.37,22.56,50.37,41.88,0,13.19-5.83,24.54-16.42,31.97-.17.12-.34.24-.51.34,3.91,4.08,7.16,9.04,9.67,14.84,12.87-19.31,32.26-28.35,51.55-28.35,2.92,0,6.05.27,9.19.78.91-21.68,6.01-37.45,15.37-47.81,8.07-8.93,19.09-13.65,31.87-13.65s35.19,4.94,46.79,37.99c3.61,10.29,6.06,22.63,7.42,37.75,12.98-10,31.46-15.06,55.01-15.06,61.06,0,67.66,32.25,67.66,46.12,0,11.14-2.82,18.78-6.23,23.95,8.17,10.37,12.3,23.59,12.3,39.46Z"/>
        <path class="cls-7" d="M281.13,643.75c-.52-7.59-1.34-14.95-2.53-21.93-1.68-9.87-4.09-18.97-7.43-26.89-7.86-18.6-20.88-30.67-41.74-30.67-16.08,0-29.13,9.71-37.93,24.27-7.28-15.17-19.72-24.27-38.83-24.27-42.48,0-52.19,50.36-52.19,103.46,0,76.45,8.2,120.44,52.19,120.44,16.68,0,30.94-7.28,40.65-22.75,5.16,11.53,14.57,22.75,36.11,22.75,24.8,0,38.32-13.99,45.4-39.89,5.47-20.04,7.08-47.21,7.08-80.55,0-8.12-.23-16.17-.78-23.97ZM229.43,776.63c-20.63,0-25.49-11.52-28.83-25.18,5.77-15.47,7.89-29.73,5.16-55.82-.3-2.73-2.73-5.16-5.76-5.16-3.34,0-6.07,3.03-5.77,6.07,5.46,57.34-13.35,80.09-41.56,80.09-33.98,0-40.66-34.28-40.66-108.91,0-51.58,8.2-91.93,40.66-91.93,17.9,0,26.7,8.49,31.85,26.09-6.67,16.69-9.4,33.07-7.58,51.88.3,3.03,2.73,5.46,5.76,5.46,3.34,0,6.07-3.03,5.77-6.37-2.73-39.44,12.74-77.06,40.96-77.06,32.76,0,40.95,40.35,40.95,91.93,0,74.63-6.97,108.91-40.95,108.91Z"/>
        <path class="cls-7" d="M339.56,631.61c5.08-2.29,9.48-5.36,12.94-9.14,5.22-5.71,8.29-13.04,8.29-21.8,0-1.96-.16-3.89-.48-5.76-2.95-17.52-19.47-30.65-44.42-30.65s-41.77,13.13-44.72,30.66h0c-.32,1.88-.48,3.79-.48,5.75,0,8.43,2.95,15.54,7.91,21.15,3.59,4.08,8.26,7.36,13.63,9.79-4.56,3.22-8.2,7.37-11.1,12.14-8.85,14.57-10.75,34.88-10.75,51.57,0,14.88.19,35.14,4.45,52.95,5.2,21.79,16.52,39.89,41.06,39.89s35.38-17.69,40.52-39.24c4.26-17.85,4.38-38.34,4.38-53.6,0-16.9-1.77-37.7-10.71-52.27-2.76-4.51-6.22-8.43-10.52-11.44ZM282.2,600.67c0-14.57,11.23-24.88,33.68-24.88s33.37,10.31,33.37,24.88c0,15.77-13.35,24.27-33.37,24.27s-33.68-8.5-33.68-24.27ZM315.88,776.63c-33.07,0-33.98-48.54-33.98-81.31,0-28.21,4.86-58.85,33.98-58.85s33.37,30.64,33.37,58.85c0,33.38-.6,81.31-33.37,81.31Z"/>
        <path class="cls-7" d="M514.61,695.12c-3.44-6.25-7.89-12.86-13.65-19.82,11.44-16.65,19-35.95,21.36-54.06.52-4,.79-7.93.79-11.77,0-9.23-1.75-17.05-4.87-23.46-7.04-14.47-21.09-21.75-37.91-21.75s-29.43,8.8-38.84,21.84c-6.37-13.65-22.45-21.84-37.01-21.84-22.29,0-35.99,12.08-44.17,30.65-3.57,8.1-6.09,17.45-7.81,27.56-1.12,6.57-1.9,13.48-2.42,20.58-.58,8.03-.82,16.32-.82,24.67,0,33.7,1.59,61.11,7.15,81.2,7.04,25.49,20.44,39.24,45.04,39.24,16.68,0,29.12-9.4,37.01-26.09,7.89,13.05,23.97,26.09,45.21,26.09,17.88,0,32.82-10.4,39.19-27.66,2.05-5.58,3.21-11.87,3.28-18.76,0-11.88-1.03-27.55-11.53-46.62ZM483.67,776.63c-21.85,0-36.41-16.08-39.44-28.82,3.64-12.74,5.46-28.21,5.46-42.78,0-3.33-2.43-5.76-5.77-5.76-3.03,0-5.76,2.43-5.76,5.76,0,45.21-13.05,71.6-36.71,71.6-33.98,0-40.66-34.28-40.66-108.91,0-51.58,8.19-91.93,43.69-91.93,14.56,0,28.52,8.49,29.13,23.36-8.8,18.51-12.44,41.26-10.93,57.04.31,3.03,2.73,5.46,5.77,5.46,3.34,0,6.07-2.73,5.76-6.07-3.33-34.89,14.26-79.79,46.12-79.79,19.11,0,31.25,10.01,31.25,33.68,0,26.09-13.05,56.43-34.89,76.45-2.13,1.82-2.43,4.85-.91,7.28,2.12,3.04,6.37,3.34,9.1.61,3.03-2.73,6.07-5.77,8.8-9.1,19.42,23.96,20.93,42.17,20.93,57.03-.3,22.76-12.44,34.89-30.94,34.89Z"/>
        <path class="cls-7" d="M601.85,662.49c-2.9-12.57-8.3-24.04-18.07-30.88,12.75-5.76,21.24-16.38,21.24-30.94,0-20.33-17.29-36.41-44.9-36.41-20.72,0-35.6,8.86-41.88,21.75-2.18,4.47-3.33,9.42-3.33,14.66,0,8.14,2.75,15.05,7.41,20.57,3.67,4.35,8.52,7.83,14.14,10.37-18.45,13.01-21.83,41.4-21.85,63.51v.2c0,18.42.28,45.13,8.25,65.18h0c6.33,15.94,17.51,27.66,37.26,27.66,23.98,0,35.15-17.34,40.36-38.59,4.41-18,4.54-38.8,4.54-54.25,0-10.26-.65-21.95-3.17-32.82h0ZM526.44,600.67c0-14.57,11.23-24.88,33.68-24.88s33.37,10.31,33.37,24.88c0,15.77-13.35,24.27-33.37,24.27s-33.68-8.5-33.68-24.27ZM560.12,776.63c-33.07,0-33.98-48.54-33.98-81.31,0-28.21,4.85-58.85,33.98-58.85s33.37,30.64,33.37,58.85c0,33.38-.6,81.31-33.37,81.31Z"/>
        <path class="cls-7" d="M676.62,680.16c-.91-1.52-3.03-2.73-5.16-2.73-4.55,0-6.98,4.85-4.85,8.49,4.55,8.49,4.85,25.48,0,36.71-1.82,3.64.91,8.19,5.16,8.19,2.42,0,4.55-1.52,5.15-3.64,6.38-13.95,6.07-35.5-.3-47.02ZM676.62,680.16c-.91-1.52-3.03-2.73-5.16-2.73-4.55,0-6.98,4.85-4.85,8.49,4.55,8.49,4.85,25.48,0,36.71-1.82,3.64.91,8.19,5.16,8.19,2.42,0,4.55-1.52,5.15-3.64,6.38-13.95,6.07-35.5-.3-47.02ZM760.75,647.35c-2.44-44.92-14.15-83.09-49.54-83.09-28.52,0-40.96,24.88-41.57,63.1-5.46-1.82-10.92-2.42-14.86-2.42-20.37,0-41.58,12.09-52.93,37.55h0c-5.23,11.72-8.36,26.26-8.36,43.76,0,16.19,2.19,30.93,6.99,43.32,9.13,23.59,27.71,38.59,58.54,38.59,10.32,0,20.33-3.34,28.83-11.22,6.97,7.58,18.81,11.22,26.39,11.22,20.05,0,31.74-10.61,38.44-30.37,3.85-11.31,6.06-25.6,7.27-42.62.02-.3.04-.6.06-.9.95-13.8,1.26-29.36,1.26-46.55,0-6.87-.16-13.7-.52-20.37ZM714.24,776.63c-6.07,0-14.56-2.73-18.81-8.19,2.43-3.64,4.25-7.58,6.07-13.04.91-2.43-.3-5.46-3.03-6.68-3.04-1.52-6.68.31-8.2,3.34-6.37,18.51-17.9,24.57-31.25,24.57-39.44,0-54-27-54-70.38,0-49.15,24.88-69.78,49.76-69.78,4.24,0,10.01.91,14.86,2.73.31,4.55.61,8.8,1.22,13.35.3,2.73,2.73,4.85,6.37,4.55,3.03-.61,5.16-3.34,4.85-6.68-4.85-47.93,3.95-74.63,29.13-74.63,30.64,0,38.53,40.35,38.53,91.93,0,74.63-5.16,108.91-35.5,108.91ZM671.45,677.43c-4.55,0-6.98,4.85-4.85,8.49,4.55,8.49,4.85,25.48,0,36.71-1.82,3.64.91,8.19,5.16,8.19,2.42,0,4.55-1.52,5.15-3.64,6.38-13.95,6.07-35.5-.3-47.02-.91-1.52-3.03-2.73-5.16-2.73Z"/>
        <path class="cls-7" d="M874.43,690.17c4.25-4.86,8.19-12.74,8.19-24.58,0-27.91-27.61-40.65-62.19-40.65-29.73,0-48.91,8.98-59.68,22.41-7.59,9.46-11.01,21.13-11.01,33.41,0,13.12,3.52,24.49,10.27,33.51.11.16.23.31.35.47-.14.14-.28.29-.41.43-5.87,6.05-10.21,14.74-10.21,27.18,0,5.59.98,10.76,2.94,15.44h0c7.97,19.2,32.19,30.37,71.69,30.37,42.78,0,64.32-26.39,64.32-59.16,0-15.77-4.85-28.82-14.26-38.83ZM824.37,776.63c-44.9,0-63.1-12.43-63.1-34.28,0-9.4,2.73-15.17,6.97-19.42,11.84,10.32,29.74,15.78,52.19,15.78,3.33,0,5.76-2.73,5.76-5.76,0-3.34-2.43-5.77-5.76-5.77-39.44,0-59.16-16.69-59.16-46.42,0-25.18,15.16-44.29,59.16-44.29,30.94,0,50.66,9.1,50.66,29.12,0,9.41-2.73,14.57-5.46,16.99-12.74-8.49-30.94-13.35-54.91-13.35-3.04,0-5.77,2.43-5.77,5.77,0,3.03,2.73,5.76,5.77,5.76,47.02,0,66.44,17.3,66.44,48.24,0,27.91-16.38,47.63-52.79,47.63Z"/>
        <g>
          <path class="cls-17" d="M270.38,667.72c0,74.63-6.97,108.91-40.95,108.91-20.63,0-25.49-11.52-28.83-25.18,5.77-15.47,7.89-29.73,5.16-55.82-.3-2.73-2.73-5.16-5.76-5.16-3.34,0-6.07,3.03-5.77,6.07,5.46,57.34-13.35,80.09-41.56,80.09-33.98,0-40.66-34.28-40.66-108.91,0-51.58,8.2-91.93,40.66-91.93,17.9,0,26.7,8.49,31.85,26.09-6.67,16.69-9.4,33.07-7.58,51.88.3,3.03,2.73,5.46,5.76,5.46,3.34,0,6.07-3.03,5.77-6.37-2.73-39.44,12.74-77.06,40.96-77.06,32.76,0,40.95,40.35,40.95,91.93Z"/>
          <path class="cls-17" d="M349.25,600.67c0,15.77-13.35,24.27-33.37,24.27s-33.68-8.5-33.68-24.27c0-14.57,11.23-24.88,33.68-24.88s33.37,10.31,33.37,24.88Z"/>
          <path class="cls-17" d="M349.25,695.32c0,33.38-.6,81.31-33.37,81.31s-33.98-48.54-33.98-81.31c0-28.21,4.86-58.85,33.98-58.85s33.37,30.64,33.37,58.85Z"/>
          <path class="cls-17" d="M514.61,741.74c-.3,22.76-12.44,34.89-30.94,34.89-21.85,0-36.41-16.08-39.44-28.82,3.64-12.74,5.46-28.21,5.46-42.78,0-3.33-2.43-5.76-5.77-5.76-3.03,0-5.76,2.43-5.76,5.76,0,45.21-13.05,71.6-36.71,71.6-33.98,0-40.66-34.28-40.66-108.91,0-51.58,8.19-91.93,43.69-91.93,14.56,0,28.52,8.49,29.13,23.36-8.8,18.51-12.44,41.26-10.93,57.04.31,3.03,2.73,5.46,5.77,5.46,3.34,0,6.07-2.73,5.76-6.07-3.33-34.89,14.26-79.79,46.12-79.79,19.11,0,31.25,10.01,31.25,33.68,0,26.09-13.05,56.43-34.89,76.45-2.13,1.82-2.43,4.85-.91,7.28,2.12,3.04,6.37,3.34,9.1.61,3.03-2.73,6.07-5.77,8.8-9.1,19.42,23.96,20.93,42.17,20.93,57.03Z"/>
          <path class="cls-17" d="M593.49,600.67c0,15.77-13.35,24.27-33.37,24.27s-33.68-8.5-33.68-24.27c0-14.57,11.23-24.88,33.68-24.88s33.37,10.31,33.37,24.88Z"/>
          <path class="cls-17" d="M593.49,695.32c0,33.38-.6,81.31-33.37,81.31s-33.98-48.54-33.98-81.31c0-28.21,4.85-58.85,33.98-58.85s33.37,30.64,33.37,58.85Z"/>
          <path class="cls-17" d="M711.2,575.79c-25.18,0-33.98,26.7-29.13,74.63.31,3.34-1.82,6.07-4.85,6.68-3.64.3-6.07-1.82-6.37-4.55-.61-4.55-.91-8.8-1.22-13.35-4.85-1.82-10.62-2.73-14.86-2.73-24.88,0-49.76,20.63-49.76,69.78,0,43.38,14.56,70.38,54,70.38,13.35,0,24.88-6.06,31.25-24.57,1.52-3.03,5.16-4.86,8.2-3.34,2.73,1.22,3.94,4.25,3.03,6.68-1.82,5.46-3.64,9.4-6.07,13.04,4.25,5.46,12.74,8.19,18.81,8.19,30.34,0,35.5-34.28,35.5-108.91,0-51.58-7.89-91.93-38.53-91.93ZM676.92,727.18c-.6,2.12-2.73,3.64-5.15,3.64-4.25,0-6.98-4.55-5.16-8.19,4.85-11.23,4.55-28.22,0-36.71-2.13-3.64.3-8.49,4.85-8.49,2.13,0,4.25,1.21,5.16,2.73,6.37,11.52,6.68,33.07.3,47.02Z"/>
          <path class="cls-17" d="M877.15,729c0,27.91-16.38,47.63-52.79,47.63-44.9,0-63.1-12.43-63.1-34.28,0-9.4,2.73-15.17,6.97-19.42,11.84,10.32,29.74,15.78,52.19,15.78,3.33,0,5.76-2.73,5.76-5.76,0-3.34-2.43-5.77-5.76-5.77-39.44,0-59.16-16.69-59.16-46.42,0-25.18,15.16-44.29,59.16-44.29,30.94,0,50.66,9.1,50.66,29.12,0,9.41-2.73,14.57-5.46,16.99-12.74-8.49-30.94-13.35-54.91-13.35-3.04,0-5.77,2.43-5.77,5.77,0,3.03,2.73,5.76,5.77,5.76,47.02,0,66.44,17.3,66.44,48.24Z"/>
        </g>
        <g>
          <path class="cls-6" d="M203.91,612.85s6.53-28.75,28.82-27.04c22.29,1.71,30.03,70.88,20.25,50.77-13.6-27.98-30.39-30.94-49.07-23.73Z"/>
          <path class="cls-6" d="M122.83,626.81s7.81-39.17,24.41-40.91c15.35-1.62,24.71,8.98,27.85,15.27s-27.75-29.62-52.26,25.64Z"/>
          <path class="cls-6" d="M452.08,606.27s6.51-21.78,28.82-20.47c34.17,2.01,9.95,72.88,7.77,50.62-4.29-43.85-17.92-37.37-36.6-30.16Z"/>
          <path class="cls-6" d="M371.01,626.81s7.81-39.17,24.41-40.91c15.35-1.62,24.71,8.98,27.85,15.27,3.14,6.29-27.75-29.62-52.26,25.64Z"/>
          <path class="cls-6" d="M803.1,650.49c-3.54-.11-5.83-4.13-.58-6.22,4.69-1.87,22.99-5.84,45.9,1.62,18.81,6.13,18,20.26,18,20.26,0,0-3.72-13.82-63.32-15.66Z"/>
          <path class="cls-6" d="M321.1,587.99c3.54.02,4-5.33.58-6.22-4.88-1.26-11.11-1.52-18.4,1.04-18.67,6.55-11.08,23.46-11.08,23.46,0,0,.71-18.46,28.9-18.28Z"/>
          <path class="cls-6" d="M565.88,587.99c3.54.02,4-5.33.58-6.22-4.88-1.26-11.11-1.52-18.4,1.04-18.67,6.55-11.08,23.46-11.08,23.46,0,0,.71-18.46,28.9-18.28Z"/>
          <path class="cls-6" d="M321.92,654.53c3.54.02,4.79-5.94.56-8.25-4.43-2.42-9.14-2.86-14.62-1.08-18.81,6.13-14.84,27.61-14.84,27.61,0,0,.71-18.46,28.9-18.28Z"/>
          <path class="cls-6" d="M692.2,612.59s-3.53-23.59,14.16-27.65c26.01-5.97,39.43,38.4,25.69,26.53-19.78-17.09-35.1-15.97-39.85,1.12Z"/>
          <path class="cls-6" d="M565.13,654.53c3.54.02,4.79-5.94.56-8.25-4.43-2.42-9.14-2.86-14.62-1.08-18.81,6.13-14.84,27.61-14.84,27.61,0,0,.71-18.46,28.9-18.28Z"/>
          <path class="cls-6" d="M822.91,703.38c-3.49.61-4.79-8.65-.56-12.01s8.83-3.36,14.62-1.57c37.27,11.52,29.11,44.36,29.11,44.36,0,0-5.65-37.3-43.17-30.78Z"/>
          <path class="cls-6" d="M655.87,658.53c3.54.09,3.47-9.26-1.21-11.97-4.9-2.83-9.47-2.49-14.7.59-32.42,19.1-25.48,47.48-25.48,47.48,0,0,3.31-37.07,41.38-36.11Z"/>
        </g>
      </g>
      <g>
        <path class="cls-10" d="M668.6,684.46c6.26-6.5,4.89-18.91,5.63-19.64.48-.48,8.94-.32,13.13-3.01,3.71-2.38,4.88-8.02,6.04-8.29,3.11-.74,8.32.5,12.25-.09,3.17-.47,12.13-4.08,12.8-4.02,3.97.36-.43,7.69-.75,10.44-.62,5.25,1.92,12.9,1.55,15.29-.11.73-6.61,2.55-7.14,11.42-.11,1.87,1.51,4.26,1.28,5.52-.49,2.6-15.45,2.93-16.7,9.21,7.61-1.33,9.09,6.97,15.7,8.95,3.36,1.01,7.24-.24,8.26.2.72.31,6.44,10.75,8.33,13.32,1.81,2.46,3.99,4.46,5.61,7-6.09.21-9.65,4.36-14.03,7.04-7.89,4.81-7.86-.55-14.12.58-2.36.43-5.28,3.16-6.25,3.17-1.42,0-5.16-4.55-8.5-5.12-3.49-.6-10.04,1.74-10.42,1.38-1.42-1.37-.02-13.75-9.42-13.77-3.63,0-4.54,4.37-6.03,6.74-3.45,5.5-4.94,6.28-4.21,14.04.79,4.48-2.26,2.45-4.88,2.78-7.59.96-10.36.67-14.78,8.45-9.23-4.17-16.38,1.72-25.26,2.8,3.38-11.13,7.46-23.43,4.23-35.01,5.44.53,23.15-13.68,22.37-17.47-1.55-7.51-18.83-5.71-19.59-6.47-.53-.52.49-10.54-1.28-14.86-1.81-4.4-6.4-5.07-6.99-7.12-.47-1.63,1.44-6.5,1.38-9.6-.1-5.11-2.79-9.67-2.92-14.75,7.35,4.76,19.67.93,25.74,3.03,2.11.73,3.7,6.08,9.35,8.2,3.84,1.44,9.46,1.04,9.83,1.4.56.54-.78,11.71,1.4,15.45-.07-.13-1.9.47-2.78-1.01-1.49-2.51-.69-8.33-2.08-10.27-.85-1.18-7.44-2.34-10.17-3.86-3.07-1.71-5.7-5.88-7.48-6.67-2.61-1.16-14.72,2-19.57-1.36,3.25,5.17.02,12.54,1.66,17.98.78,2.61,5.02,4.46,6.11,7.93.94,2.99.29,10.85.68,11.26.42.43,8.32,1.38,11.7,3.03,4.2,2.05,9.3,8.92,12.52,8.09,1.69-.44,5.25-4.24,5.25-6.16,0-3.6-6.22-5.06-5.65-9.12l8.42,4.93c4.33-4.84,4.28-9.2,1.39-14.76.55.95,5.41,3.69,6.32,5.59,1.16-.54,1.45-2.11,2.1-2.78ZM682.64,692.88c-.24,1.56-.4,9.79.72,9.85,8.21.34,11.55-5.66,17.67-9,2.3-1.25,7.88-2.05,8.16-2.37.57-.68-.1-6.29.44-8.69.88-3.86,4.6-6.78,5.24-10.2.96-5.19-.54-12.04.05-17.48-5.69,2.77-13.62.1-18.68,1.66-2.19.68-5.21,6.5-9.46,8.79-2.54,1.37-8.43,2.49-9.13,3.5-1.47,2.11-1.25,14.46-4.83,18.31,5.24-.73,6,5.99,9.83,5.64,1.28-8.39,5.37-8.46,9.9-13.27,1.44-1.53,7.42-11.35,9.76-9.18-.29,4.12-5.31,5.74-6.56,7.47-3.17,4.38-5.89,14.31-13.1,14.98ZM666.77,690.33c-2.88.89-5.82,7.44-5.04,10.05.31,1.05,7.55,6.53,8.72,6.35.83-.13,6.83-4.48,7.3-5.42,3.47-6.88-3.86-13.19-10.98-10.99ZM720.31,714.16c-1-.66-8.21-.78-11.98-2.75-3.03-1.58-6.67-6.75-8.34-7.08-2.55-.49-7.98,4.97-11.74,4,.38,13.77,19.46,8.33,26.68,16.82-4.84.27-22.95-7.57-25.83-6.84-.48.12-6.93,6.46-7.21,6.88-1.07,1.64-.59,2.59-.08,4.23,1.98,6.41,7.62,3.32,12.48,4.44,2.62.61,4.53,3.38,6.14,3.67,1.72.3,5.03-2.42,8.19-2.66,3.15-.23,6.52,1.68,9.04.82,3.13-1.07,6.81-6.53,11.29-6.33-4.28-1.74-7.91-14.71-8.65-15.2ZM658.38,705.77c-6.34,1.85-7.25,11.64-.98,14.46,12.79,5.78,13.89-18.22.98-14.46ZM676.63,707.17c-7.56,2.2-7.63,16.24,2.44,15.22,8.86-.9,9.25-18.62-2.44-15.22ZM651.75,720.96c.19-4.41-1.83-11.17-7.51-9.89-1.18.27-12.35,15.66-19.09,14.23,1.79,9.34-1.26,18.74-2.88,27.94,4.99-1.53,12.98-.42,17.27-1.67,2.22-.65,3.89-4.16,7.18-5.45s9.44-.85,10.45-1.48,3.14-18.58,8.62-20.86c-5.72,1.9-9.89-2.18-14.04-2.82-.06,1.34-.36,2.53-1.32,3.52l-11.31,10.51c.62-2.29,7.9-13.18,8.77-13.72,1.04-.64,2.67-.5,3.86-.32Z"/>
        <path class="cls-15" d="M660.18,681.65c2.89,5.57,2.94,9.92-1.39,14.76l-8.42-4.93c-.56,4.06,5.66,5.51,5.65,9.12,0,1.92-3.56,5.72-5.25,6.16-3.22.83-8.32-6.04-12.52-8.09-3.39-1.65-11.28-2.6-11.7-3.03-.39-.41.26-8.26-.68-11.26-1.09-3.47-5.32-5.31-6.11-7.93-1.63-5.44,1.59-12.81-1.66-17.98,4.84,3.36,16.95.21,19.57,1.36,1.78.79,4.41,4.96,7.48,6.67,2.73,1.52,9.32,2.68,10.17,3.86,1.39,1.94.6,7.76,2.08,10.27.88,1.49,2.71.88,2.78,1.01ZM650.34,690.07c1.69-1.53-5.33-8.7-8.42-7,1.28,1.64,5.48,9.66,8.42,7Z"/>
        <path class="cls-15" d="M682.64,692.88c-3.83.36-4.59-6.36-9.83-5.64,3.58-3.85,3.36-16.2,4.83-18.31.7-1.01,6.59-2.14,9.13-3.5,4.25-2.29,7.27-8.11,9.46-8.79,5.06-1.56,13,1.12,18.68-1.66-.59,5.44.91,12.29-.05,17.48-.64,3.42-4.36,6.35-5.24,10.2-.55,2.4.12,8.01-.44,8.69-.27.33-5.86,1.12-8.16,2.37-6.11,3.34-9.45,9.34-17.67,9-1.13-.06-.96-8.29-.72-9.85,7.21-.67,9.93-10.59,13.1-14.98,1.25-1.73,6.27-3.35,6.56-7.47-2.34-2.17-8.31,7.65-9.76,9.18-4.52,4.8-8.62,4.88-9.9,13.27Z"/>
        <path class="cls-15" d="M651.75,720.96c-1.19-.19-2.82-.33-3.86.32-.86.53-8.15,11.43-8.77,13.72l11.31-10.51c.97-1,1.26-2.18,1.32-3.52,4.15.64,8.31,4.72,14.04,2.82-5.48,2.27-7.57,20.2-8.62,20.86s-7.12.18-10.45,1.48-4.95,4.8-7.18,5.45c-4.29,1.24-12.28.14-17.27,1.67,1.62-9.2,4.67-18.6,2.88-27.94,6.74,1.43,17.9-13.96,19.09-14.23,5.68-1.28,7.7,5.49,7.51,9.89ZM638.42,736.4v1.4c.91-.47.91-.94,0-1.4Z"/>
        <path class="cls-15" d="M720.31,714.16c.74.49,4.37,13.46,8.65,15.2-4.48-.19-8.16,5.27-11.29,6.33-2.52.86-5.89-1.05-9.04-.82-3.16.23-6.47,2.96-8.19,2.66-1.62-.29-3.53-3.06-6.14-3.67-4.86-1.13-10.5,1.97-12.48-4.44-.51-1.64-.99-2.59.08-4.23.27-.42,6.72-6.76,7.21-6.88,2.88-.72,20.99,7.12,25.83,6.84-7.22-8.49-26.3-3.05-26.68-16.82,3.76.97,9.19-4.5,11.74-4,1.68.32,5.32,5.5,8.34,7.08,3.77,1.97,10.98,2.09,11.98,2.75Z"/>
        <path class="cls-9" d="M666.77,690.33c7.12-2.2,14.44,4.11,10.98,10.99-.47.93-6.47,5.29-7.3,5.42-1.16.17-8.4-5.3-8.72-6.35-.78-2.61,2.16-9.16,5.04-10.05Z"/>
        <path class="cls-9" d="M658.38,705.77c12.91-3.76,11.81,20.24-.98,14.46-6.26-2.83-5.35-12.62.98-14.46Z"/>
        <path class="cls-9" d="M676.63,707.17c11.7-3.4,11.3,14.32,2.44,15.22-10.07,1.02-10-13.03-2.44-15.22Z"/>
        <path class="cls-10" d="M650.34,690.07c-2.94,2.66-7.14-5.36-8.42-7,3.09-1.7,10.11,5.47,8.42,7Z"/>
        <path class="cls-10" d="M638.42,736.4c.91.47.91.94,0,1.4v-1.4Z"/>
      </g>
    </g>
  </g>
</svg>