<?xml version="1.0" encoding="UTF-8"?>
<svg xmlns="http://www.w3.org/2000/svg" viewBox="0 0 1000 1000">
  <defs>
    <style>
      .cls-1 {
        fill: #fd0;
      }

      .cls-2 {
        fill: #231f20;
      }

      .cls-3 {
        fill: #fff;
      }

      .cls-4 {
        fill: #4bb8e9;
      }

      .cls-5 {
        fill: #fdfdfd;
      }

      .cls-6 {
        fill: #fbf7c3;
      }
    </style>
  </defs>
  <g id="BG">
    <g>
      <rect class="cls-5" x="499.74" width="500" height="500"/>
      <rect class="cls-4" width="500" height="500"/>
      <rect class="cls-6" x="499.74" y="500" width="500" height="500"/>
      <rect class="cls-1" y="500" width="500" height="500"/>
    </g>
  </g>
  <g id="LOGOS">
    <g>
      <path class="cls-2" d="M688.47,203.69c.54,0,1.08.03,1.59.09-1.29-.57-2.81-.94-4.57-.94-.19,0-.38,0-.57.01h-.03c-.22.01-.45.03-.67.05,0,0,0,0,0,0h-.05c-1.86.2-3.59,1.93-5.11,4.39,1.45-1.2,2.96-2.1,4.54-2.7,1.57-.6,3.21-.9,4.9-.9Z"/>
      <path class="cls-2" d="M720.11,210.7c4.73,0,8.86,1.87,12.45,5.67h0s0,0,0,0t0,0c1.34,1.42,2.6,3.1,3.8,5.05-1.21-7.47-5.03-18.2-9.94-18.57-.26-.02-.53-.03-.79-.03-5.56,0-8.71,4.91-10.26,8.44,1.65-.39,3.21-.58,4.72-.58h0Z"/>
      <path class="cls-2" d="M686.64,301.83c-6.49,0-11.42-1.92-15.14-5.61,4.13,5.84,9.96,8.6,17.9,8.6s13.76-2.84,18.44-8.46l1.44-1.72c-.96-1.32-1.73-2.74-2.36-4.17-4.84,7.72-11.96,11.35-20.28,11.35Z"/>
      <path class="cls-2" d="M706.01,202.24c.32-.53.65-1.04.99-1.54-.11-.16-.23-.33-.36-.5-1.77-2.37-3.9-4.23-6.36-5.56,2.36,1.97,4.26,4.53,5.73,7.6Z"/>
      <path class="cls-2" d="M686.64,296.08c14.07,0,23.46-11.35,20.73-39.96-.15-1.52,1.21-3.03,2.88-3.03,1.51,0,2.72,1.21,2.87,2.57,1.36,13.02.3,20.13-2.57,27.85,1.67,6.81,4.09,12.56,14.38,12.56.46,0,.9,0,1.34-.04.56-.03,1.1-.08,1.63-.15.24-.03.47-.07.7-.11.33-.05.66-.12.97-.2.15-.03.3-.07.45-.11.4-.11.8-.23,1.18-.37.19-.06.37-.13.56-.21.02,0,.04-.01.06-.02.17-.07.34-.14.51-.22.13-.06.26-.12.39-.19.11-.05.23-.11.34-.17.16-.08.31-.17.47-.26.15-.08.3-.17.44-.27.05-.02.09-.05.14-.09.11-.07.22-.14.33-.22.15-.1.29-.2.44-.31.1-.07.2-.15.3-.23.14-.11.28-.23.42-.35.11-.09.21-.18.31-.28.09-.07.18-.16.26-.24.13-.13.27-.26.41-.4.12-.12.24-.25.36-.39.02-.02.04-.05.06-.07.09-.1.18-.2.26-.3.1-.12.21-.25.31-.38,0,0,0,0,0,0,.13-.16.26-.33.38-.5.02-.03.05-.07.08-.11.1-.14.2-.28.3-.43.12-.17.23-.34.34-.52.09-.14.18-.28.26-.43.03-.05.06-.1.09-.15.08-.14.16-.28.24-.42.04-.08.09-.16.14-.25.08-.14.15-.29.23-.43.04-.08.09-.16.13-.25.08-.16.16-.32.23-.48.02-.03.04-.07.05-.11.1-.22.21-.44.3-.67.1-.22.2-.45.29-.68.02-.03.03-.06.05-.1.09-.24.19-.48.28-.72.1-.26.19-.52.29-.79-3.5-3.78-5.5-9.56-5.5-16.74,0-9.63,3.56-16.79,9.5-19.97,0-.66.02-1.33.02-2,0-.96,0-1.93,0-2.91,0-25.73-4.09-45.86-20.43-45.86-14.08,0-21.8,18.77-20.43,38.45.15,1.67-1.21,3.18-2.88,3.18-1.51,0-2.72-1.21-2.87-2.72-.91-9.38.45-17.56,3.78-25.88-2.57-8.78-6.96-13.02-15.89-13.02-16.19,0-20.29,20.13-20.29,45.86,0,37.23,3.33,54.33,20.29,54.33ZM725.64,200.84c.3,0,.62,0,.94.03,7.94.61,12.18,18.38,12.18,24.84,0,1.44-.21,2.32-.64,2.32-.15,0-.32-.1-.52-.33-.26-.29-.56-.78-.91-1.5-1.81-3.7-3.72-6.54-5.73-8.62-3.35-3.47-6.99-4.89-10.85-4.89-2.54,0-5.18.62-7.9,1.67,0,0,3.07-13.52,13.44-13.52ZM683.93,200.92c.53-.05,1.05-.08,1.56-.08,6.74,0,10.88,4.78,12.34,7.7.07.15.11.25.11.31,0,.05-.02.07-.07.07-.56,0-4.35-3.24-9.39-3.24s-11.17,3.15-16.71,15.64c.12-.59,4.02-19.54,12.17-20.39Z"/>
      <path class="cls-2" d="M769.11,205.28c4.21-1.34,7.93-.17,10.45,1.03-2.01-2.27-5.24-4.47-9.63-4.47-.46,0-.94.02-1.43.07-3.8.4-6.84,5.7-8.88,11.17,2.86-4.09,6.03-6.71,9.48-7.81Z"/>
      <path class="cls-2" d="M745.76,205.43c1,2.36,1.83,4.93,2.51,7.67.36-1.42.77-2.79,1.23-4.12l-.27-.66c-.08-.2-.16-.39-.24-.58-.1-.23-.19-.44-.28-.65-2.22-5.01-5.12-8.8-8.63-11.28-.59-.42-1.2-.8-1.84-1.14,3.19,2.64,5.65,6.33,7.52,10.76Z"/>
      <path class="cls-2" d="M809.55,208.5c3.42,2.11,5.39,7.51,6.37,17.53.04.41.09.71.14.92,1.51-2.06,4.14-11.25,2.52-18.09-1.04-4.41-3.6-6.76-7.59-6.99-7.3-.42-10.97,4.51-12.48,7.43,4.24-1.61,7.93-2.72,11.04-.8Z"/>
      <path class="cls-2" d="M752.94,244.83c5.2,0,9.77,2.17,12.86,6.11,3.01,3.85,4.54,9.12,4.54,15.68,0,13.38-6.33,19.54-13.33,21.17,3.08,5.58,7.66,8.28,14.39,8.28,11.8,0,18.31-13.17,18.31-35.72,0-1.66,1.36-2.87,2.87-2.87,1.67,0,2.88,1.21,2.88,2.87,0,7.27-.91,14.99-2.72,21.34,1.51,6.36,8.78,14.38,19.68,14.38,9.23,0,15.29-6.05,15.44-17.41,0-7.41-.75-16.5-10.44-28.45-1.36,1.66-2.88,3.18-4.39,4.54-1.36,1.36-3.48,1.21-4.54-.3-.76-1.21-.61-2.72.45-3.63,10.9-9.99,17.41-25.12,17.41-38.14,0-11.81-6.06-16.8-15.59-16.8-15.89,0-24.67,22.4-23.01,39.81.15,1.67-1.21,3.03-2.87,3.03-1.52,0-2.72-1.21-2.88-2.72-.75-7.87,1.06-19.22,5.45-28.46-.3-7.42-7.27-11.65-14.53-11.65-17.71,0-21.8,20.13-21.8,45.86,0,1.08,0,2.14,0,3.18.59-.06,1.19-.09,1.81-.09ZM795.71,210.8c.04-.11,3.54-11.62,15.4-10.92,6.49.38,10.03,5.35,9.98,14-.04,5.99-2.36,15.27-5.15,15.4h-.08c-1.63,0-1.85-2.29-1.93-3.05h0c-.89-9.09-2.66-14.33-5.42-16.03-2.63-1.62-6.4-.15-10.77,1.54l-2.59,1,.56-1.94ZM755.24,221.12c.42-2.07,4.38-20.28,13.05-21.19,8.11-.85,13.18,4.73,14.89,8.17.4.8.15,1.28-.12,1.54-.63.59-1.3.19-2.23-.36-1.85-1.1-6.18-3.67-11.12-2.1-4.74,1.51-8.97,6.4-12.58,14.54l-3.72,8.38,1.83-8.99Z"/>
      <path class="cls-2" d="M791.38,201.02c.31-.43.63-.85.96-1.26-.07-.08-.14-.17-.21-.25-1.51-1.77-3.38-3.27-5.47-4.46,1.99,1.64,3.64,3.64,4.72,5.97Z"/>
      <path class="cls-2" d="M745.99,286.78c-3.84,9.81-10.33,15.05-21.05,15.05-6.35,0-10.59-1.96-13.52-4.74,3.6,5.2,8.94,7.73,16.28,7.73,4.94,0,9-1.06,12.4-3.24,3.42-2.19,6.1-5.45,8.2-9.97l.73-1.56,1.65.48c.6.17,1.15.31,1.67.41-.49-.88-.94-1.81-1.37-2.79-1.8-.19-3.47-.66-4.99-1.38Z"/>
      <path class="cls-2" d="M825.34,249.12l-.88-1.12.77-1.2c5.16-7.97,8.62-17.09,9.73-25.68.26-2.04.4-4.03.4-5.94,0-4.54-.83-8.55-2.48-11.92-1.76-3.62-4.46-6.45-7.86-8.34,1.89,1.61,3.47,3.64,4.65,6.06,1.56,3.2,2.43,7.1,2.43,11.7,0,1.92-.13,3.88-.39,5.87-1.18,9.03-4.95,18.66-10.66,26.97,2.87,3.47,5.09,6.77,6.81,9.89,5.24,9.51,5.75,17.33,5.75,23.26-.04,3.44-.61,6.58-1.64,9.36-3.18,8.61-10.63,13.8-19.55,13.8-8.15,0-14.78-3.85-19.19-8.59l1.22,1.49c2.49,3.03,9.52,10.09,20.73,10.09,9.13,0,16.81-5.41,20.03-14.12,1.07-2.92,1.63-6.14,1.66-9.55,0-6.38-.69-14.17-5.81-23.48-1.58-2.85-3.5-5.73-5.73-8.55Z"/>
      <path class="cls-2" d="M857.26,230.89c0-7.97-4.05-15.8-11.51-20.2-1.37-.81-2.18-2.27-2.18-3.81,0-.36.04-.73.14-1.1,3.48-13.53-5.57-27.07-19.39-29.03h0c-.97-.14-1.84-.59-2.5-1.25-.66-.66-1.11-1.53-1.25-2.5-1.68-11.81-11.81-20.15-23.17-20.15-1.93,0-3.9.24-5.86.75-.36.09-.73.14-1.1.14-1.54,0-3-.8-3.81-2.18-7.1-12.02-23.08-15.2-34.24-6.81-.79.59-1.72.89-2.65.89s-1.87-.29-2.65-.89c-4.24-3.18-9.17-4.7-14.04-4.7-7.97,0-15.8,4.05-20.2,11.51-.81,1.37-2.27,2.18-3.81,2.18-.36,0-.73-.04-1.1-.14-1.97-.5-3.93-.75-5.86-.75-11.35,0-21.49,8.33-23.17,20.15-.14.97-.59,1.84-1.25,2.5-.66.66-1.53,1.11-2.5,1.25-11.81,1.68-20.15,11.81-20.15,23.17,0,1.93.24,3.9.75,5.86.09.36.14.73.14,1.1,0,1.54-.8,3-2.18,3.81-7.46,4.41-11.51,12.23-11.51,20.2,0,4.87,1.52,9.81,4.7,14.04.59.79.89,1.72.89,2.65s-.29,1.87-.89,2.65c-3.18,4.24-4.7,9.17-4.7,14.04,0,7.97,4.05,15.8,11.51,20.2,1.37.81,2.18,2.27,2.18,3.81,0,.36-.04.73-.14,1.1-.5,1.97-.75,3.93-.75,5.86,0,11.35,8.33,21.49,20.15,23.17,1.95.27,3.48,1.81,3.75,3.75h0c1.68,11.81,11.81,20.15,23.17,20.15,1.93,0,3.9-.24,5.86-.75.36-.09.73-.14,1.1-.14,1.54,0,3,.8,3.81,2.18,4.41,7.46,12.23,11.51,20.2,11.51,4.87,0,9.81-1.52,14.04-4.7.79-.59,1.72-.89,2.65-.89s1.87.29,2.65.89c4.24,3.18,9.17,4.7,14.04,4.7,7.97,0,15.79-4.05,20.2-11.51.81-1.37,2.27-2.18,3.81-2.18.36,0,.73.04,1.1.14,13.53,3.48,27.07-5.57,29.03-19.39h0c.27-1.95,1.81-3.48,3.75-3.76h0c11.81-1.68,20.14-11.81,20.14-23.17,0-1.93-.24-3.9-.75-5.86-.09-.36-.14-.73-.14-1.1,0-1.54.8-3,2.18-3.81,7.46-4.41,11.51-12.23,11.51-20.2,0-4.87-1.52-9.81-4.7-14.04-.59-.79-.89-1.72-.89-2.65s.29-1.87.89-2.65c3.18-4.24,4.7-9.17,4.7-14.04ZM837.08,291.39c-3.51,9.52-11.9,15.43-21.9,15.43s-17.59-5.13-22.28-10.82c-4.48,7.1-10.9,10.82-18.74,10.82-10.4,0-17.65-4.55-22.14-13.9-.65-.12-1.29-.28-1.92-.46-4.5,9.66-11.85,14.37-22.42,14.37-8.29,0-14.32-3.01-18.32-9.17-5.02,6.02-11.85,9.17-19.98,9.17-11.58,0-19.29-5.68-23.59-17.38-1.9-5.16-3.19-11.53-3.99-19.9,0-.03,0-.07,0-.11-.91-7.92-1.22-17.19-1.22-27.68,0-26.49,4.84-51.62,26.04-51.62.46,0,.92,0,1.36.03.46-.02.93-.03,1.4-.03,8.13,0,14.44,2.98,18.83,8.87,4.25-5.43,9.94-8.87,16.7-8.87.47,0,.93,0,1.39.04.45-.03.91-.04,1.38-.04,10.4,0,18.08,5.43,22.82,16.13.11-.28.23-.56.36-.84,4.08-9.26,10.92-15.29,22.04-15.29.4,0,.8,0,1.2.04.51-.03,1.03-.04,1.56-.04,6.97,0,13.76,3.17,17.97,8.09,4.45-4.93,10.18-8.09,17.11-8.09.46,0,.92,0,1.38.03.46-.02.92-.03,1.39-.03,9.66,0,17.37,4.47,21.16,12.26,1.78,3.65,2.68,7.96,2.68,12.79,0,1.99-.14,4.08-.41,6.2-1.16,8.94-4.71,18.28-10.04,26.51,2.3,2.92,4.29,5.89,5.91,8.83,5.34,9.7,6.06,17.81,6.06,24.46-.04,3.66-.64,7.09-1.79,10.22Z"/>
      <path class="cls-2" d="M869.04,223.86c-1.59-8.01-6-15.37-12.27-20.6.73-8.13-1.35-16.45-5.89-23.25-4.54-6.8-11.43-11.9-19.22-14.34-4.62-14.82-18.56-25.28-34.26-25.28-1.11,0-2.22.05-3.34.16-6.8-8.16-16.91-12.95-27.63-12.95-5.85,0-11.57,1.42-16.7,4.13-5.13-2.71-10.84-4.13-16.7-4.13-10.72,0-20.83,4.79-27.63,12.95-1.11-.1-2.23-.16-3.34-.16-15.69,0-29.63,10.46-34.26,25.28-7.79,2.43-14.68,7.54-19.22,14.34-4.54,6.8-6.63,15.12-5.89,23.25-6.26,5.23-10.67,12.59-12.27,20.6-1.59,8.02-.34,16.51,3.45,23.73-3.78,7.23-5.04,15.71-3.45,23.73,1.59,8.01,6,15.37,12.27,20.6-.73,8.13,1.35,16.45,5.89,23.25,4.54,6.8,11.43,11.9,19.22,14.34,4.62,14.82,18.56,25.28,34.26,25.28,1.11,0,2.23-.05,3.34-.16,3.01,3.6,6.75,6.62,10.95,8.83,5.15,2.7,10.92,4.13,16.68,4.13s11.57-1.42,16.7-4.13c5.13,2.71,10.84,4.13,16.7,4.13,10.72,0,20.83-4.79,27.63-12.95,1.11.1,2.23.16,3.34.16,15.69,0,29.63-10.46,34.26-25.28,7.79-2.43,14.68-7.54,19.22-14.34,4.54-6.8,6.63-15.12,5.89-23.25,6.26-5.23,10.67-12.59,12.27-20.6,1.59-8.02.34-16.51-3.45-23.73,3.78-7.23,5.04-15.71,3.45-23.73ZM864.15,270.35c-1.56,7.85-6.15,14.82-12.7,19.37,1.42,7.84-.26,16.02-4.71,22.68-4.45,6.66-11.36,11.34-19.15,13.03-3.05,14.01-15.73,24.37-30.18,24.37-1.85,0-3.71-.17-5.54-.5-5.73,8.25-15.32,13.3-25.43,13.3-5.97,0-11.71-1.7-16.7-4.92-4.99,3.22-10.73,4.92-16.7,4.92-5.05,0-9.98-1.26-14.36-3.56-4.38-2.29-8.21-5.62-11.07-9.74-1.83.33-3.69.5-5.54.5-14.45,0-27.13-10.36-30.18-24.37-7.79-1.69-14.7-6.37-19.15-13.03-4.45-6.66-6.13-14.84-4.71-22.68-6.55-4.55-11.14-11.52-12.7-19.37-1.56-7.86,0-16.05,4.32-22.76-4.31-6.71-5.88-14.9-4.32-22.76,1.56-7.85,6.15-14.82,12.7-19.37-1.42-7.84.26-16.02,4.71-22.68s11.36-11.34,19.15-13.03c3.05-14.01,15.73-24.37,30.18-24.37,1.85,0,3.71.17,5.54.5,5.74-8.25,15.32-13.3,25.43-13.3,5.97,0,11.71,1.7,16.7,4.92,4.99-3.22,10.73-4.92,16.7-4.92,10.11,0,19.7,5.05,25.43,13.3,1.83-.33,3.69-.5,5.54-.5,14.45,0,27.13,10.36,30.18,24.37,7.79,1.69,14.7,6.37,19.15,13.03s6.13,14.84,4.71,22.68c6.55,4.55,11.14,11.52,12.7,19.37,1.56,7.86,0,16.05-4.32,22.76,4.31,6.71,5.88,14.9,4.32,22.76Z"/>
      <path class="cls-2" d="M771.4,301.83c-6.5,0-11.43-1.92-15.15-5.62,4.13,5.86,9.92,8.62,17.92,8.62,7.17,0,12.91-3.33,17.05-9.89l1.45-2.3c-1.09-1.24-2.03-2.53-2.81-3.82-3.94,8.33-10.14,13.02-18.46,13.02Z"/>
      <path class="cls-2" d="M757.25,282.53c.11-.04.23-.09.34-.14.08-.02.15-.06.23-.09.07-.03.15-.06.23-.11.13-.05.26-.12.38-.19.03,0,.07-.02.09-.04.13-.07.26-.14.39-.22.06-.03.13-.07.19-.11.09-.05.19-.11.28-.18.14-.08.27-.18.4-.28.11-.08.21-.16.32-.24.3-.23.58-.48.85-.76.08-.07.15-.15.22-.23.08-.08.16-.16.23-.25.18-.2.36-.41.52-.63.1-.12.19-.24.28-.37.03-.03.05-.06.07-.1.11-.16.22-.32.32-.49.01-.01.02-.02.02-.04.1-.16.2-.32.3-.49.03-.05.06-.1.08-.15.09-.16.18-.32.26-.49.02-.03.04-.07.05-.11.09-.16.16-.33.24-.51.22-.48.42-1,.59-1.53.07-.22.15-.45.21-.69.05-.16.09-.32.13-.49.06-.2.1-.4.15-.6.04-.17.08-.35.12-.53.05-.23.09-.46.13-.7.03-.19.07-.38.09-.58.01-.08.03-.16.03-.24.03-.2.06-.41.08-.62.01-.09.02-.18.03-.27.02-.16.04-.33.05-.5.02-.16.03-.32.04-.49.02-.16.03-.32.03-.48.02-.28.03-.57.04-.86,0-.34.01-.68.01-1.03,0-11.2-5.14-16.8-12.41-16.8-.27,0-.53,0-.79.02-.18,0-.36.02-.53.04,0,0-.02,0-.02,0-.13,0-.27.03-.4.05h0s-.09,0-.13.02h0c-.13.02-.27.04-.4.07-.03,0-.07,0-.1.02-.13.02-.25.05-.37.08,0,0-.01,0-.02,0-.15.03-.3.07-.45.12-.08.02-.15.04-.22.06-.02,0-.05.01-.07.02-.15.04-.29.09-.44.15-.24.09-.48.18-.71.29-.37.17-.72.36-1.06.57-.18.11-.36.22-.53.35-.15.1-.3.21-.44.33-.15.11-.29.23-.43.36-.09.08-.18.16-.27.24t0,0c-.07.06-.14.13-.21.21-.02.01-.04.03-.05.04h0c-.06.06-.12.12-.17.19-.22.23-.43.47-.63.72-.07.09-.14.18-.2.27-.11.15-.22.3-.33.45-.11.16-.22.33-.33.51l-.03.04c-.1.17-.21.36-.31.54,0,0,0,.01-.01.02-.11.2-.21.4-.31.61-.08.15-.14.3-.21.46-.04.07-.07.15-.1.23-.09.21-.18.43-.26.64-.06.15-.12.31-.17.48-.01.04-.03.07-.04.11-.04.1-.07.2-.1.31-.03.08-.06.15-.08.23-.06.2-.12.4-.18.61-.03.09-.05.19-.07.28-.06.22-.12.45-.16.68-.01.04-.03.09-.03.14-.07.3-.13.6-.18.91,0,.05-.02.1-.02.15-.05.28-.1.56-.13.85,0,.01,0,.03,0,.04-.04.28-.08.57-.1.87-.01.08-.02.16-.02.24-.03.24-.05.49-.07.74,0,.11-.01.22-.02.33-.03.3-.04.61-.05.92-.01.36-.02.73-.02,1.1,0,.26,0,.52,0,.78,0,.19,0,.38.02.57,0,.33.03.66.05.98,0,.21.03.42.05.63s.04.41.06.62c.03.28.07.56.11.84.07.48.15.96.25,1.42.03.15.06.3.1.44.02.11.04.21.07.31.04.16.08.32.12.48,0,.01,0,.02,0,.03.05.19.1.38.16.57.19.62.4,1.22.65,1.78.07.16.14.33.21.48.02.04.03.08.05.11.08.16.16.32.24.48.13.26.28.52.42.76,0,0,0,.02.02.02.06.09.11.19.17.28.09.15.19.3.29.44.08.11.16.23.25.34.08.11.17.23.26.33.09.11.18.22.27.32.08.09.16.18.24.27.01.02.03.04.05.05.09.09.18.19.27.28.51.51,1.07.96,1.67,1.33.08.06.17.11.27.17.11.07.23.14.35.2.1.06.21.11.31.16.27.14.56.27.85.38.1.04.2.07.3.11.3.11.61.2.93.28.11.03.22.05.33.08.17.04.34.07.51.1.19.03.38.06.57.08,0,0,.03,0,.04,0,.08,0,.16.02.24.02.14.01.29.02.44.03.05,0,.1,0,.15,0,.22.01.44.02.67.02.19,0,.38,0,.57-.01.11,0,.21,0,.32-.01.16,0,.32-.02.48-.04.18-.01.36-.04.54-.06.04,0,.09-.01.13-.02.04,0,.09-.01.13-.02.34-.05.67-.12,1-.21.13-.03.27-.07.4-.11.25-.06.49-.15.73-.24ZM751.32,255.58c-.15.13-.3.28-.45.43-.62.62-1.22,1.39-1.76,2.34-.11.19-.21.38-.31.59-.1.2-.2.41-.29.64-.1.22-.18.44-.27.68-.09.23-.17.48-.25.73-.08.25-.15.51-.22.78-.07.27-.13.54-.19.83-.11.53-.21,1.1-.28,1.7,0,.08-.02.16-.03.25,0,.08-.02.16-.02.25-.02.15-.04.31-.05.47-.01.18-.03.37-.04.56-.01.19-.02.38-.03.57-.02.45-.03.92-.02,1.4,0,.52-.23.91-.57,1.15-.65.47-1.69.4-2.24-.26-.13-.16-.24-.36-.3-.6-.63-2.43-.76-5.54.52-9.17.17-.5.36-.96.57-1.39h0c.17-.37.36-.71.55-1.02h0c1.5-2.48,3.5-3.47,5.35-3.77.08-.01.17-.03.26-.04.17-.02.35-.04.52-.05.1,0,.21-.01.31-.01.09,0,.18,0,.27,0,.15,0,.29,0,.44.01.05,0,.09,0,.14,0,.07,0,.14,0,.21.01.17,0,.34.03.51.05.13.01.26.03.39.06.25.04.49.09.71.14.11.02.21.05.31.08.05.01.1.02.14.04.04.01.09.02.13.04.15.04.29.09.41.13.29.1.46.17.46.17,0,0-2.51.09-4.9,2.19Z"/>
    </g>
    <g>
      <path class="cls-3" d="M188.74,203.69c.54,0,1.08.03,1.59.09-1.29-.57-2.81-.94-4.57-.94-.19,0-.38,0-.57.01h-.03c-.22.01-.45.03-.67.05,0,0,0,0,0,0h-.05c-1.86.2-3.59,1.93-5.11,4.39,1.45-1.2,2.96-2.1,4.54-2.7,1.57-.6,3.21-.9,4.9-.9Z"/>
      <path class="cls-3" d="M220.38,210.7c4.73,0,8.86,1.87,12.45,5.67h0s0,0,0,0t0,0c1.34,1.42,2.6,3.1,3.8,5.05-1.21-7.47-5.03-18.2-9.94-18.57-.26-.02-.53-.03-.79-.03-5.56,0-8.71,4.91-10.26,8.44,1.65-.39,3.21-.58,4.72-.58h0Z"/>
      <path class="cls-3" d="M186.9,301.83c-6.49,0-11.42-1.92-15.14-5.61,4.13,5.84,9.96,8.6,17.9,8.6s13.76-2.84,18.44-8.46l1.44-1.72c-.96-1.32-1.73-2.74-2.36-4.17-4.84,7.72-11.96,11.35-20.28,11.35Z"/>
      <path class="cls-3" d="M206.28,202.24c.32-.53.65-1.04.99-1.54-.11-.16-.23-.33-.36-.5-1.77-2.37-3.9-4.23-6.36-5.56,2.36,1.97,4.26,4.53,5.73,7.6Z"/>
      <path class="cls-3" d="M186.9,296.08c14.07,0,23.46-11.35,20.73-39.96-.15-1.52,1.21-3.03,2.88-3.03,1.51,0,2.72,1.21,2.87,2.57,1.36,13.02.3,20.13-2.57,27.85,1.67,6.81,4.09,12.56,14.38,12.56.46,0,.9,0,1.34-.04.56-.03,1.1-.08,1.63-.15.24-.03.47-.07.7-.11.33-.05.66-.12.97-.2.15-.03.3-.07.45-.11.4-.11.8-.23,1.18-.37.19-.06.37-.13.56-.21.02,0,.04-.01.06-.02.17-.07.34-.14.51-.22.13-.06.26-.12.39-.19.11-.05.23-.11.34-.17.16-.08.31-.17.47-.26.15-.08.3-.17.44-.27.05-.02.09-.05.14-.09.11-.07.22-.14.33-.22.15-.1.29-.2.44-.31.1-.07.2-.15.3-.23.14-.11.28-.23.42-.35.11-.09.21-.18.31-.28.09-.07.18-.16.26-.24.13-.13.27-.26.41-.4.12-.12.24-.25.36-.39.02-.02.04-.05.06-.07.09-.1.18-.2.26-.3.1-.12.21-.25.31-.38,0,0,0,0,0,0,.13-.16.26-.33.38-.5.02-.03.05-.07.08-.11.1-.14.2-.28.3-.43.12-.17.23-.34.34-.52.09-.14.18-.28.26-.43.03-.05.06-.1.09-.15.08-.14.16-.28.24-.42.04-.08.09-.16.14-.25.08-.14.15-.29.23-.43.04-.08.09-.16.13-.25.08-.16.16-.32.23-.48.02-.03.04-.07.05-.11.1-.22.21-.44.3-.67.1-.22.2-.45.29-.68.02-.03.03-.06.05-.1.09-.24.19-.48.28-.72.1-.26.19-.52.29-.79-3.5-3.78-5.5-9.56-5.5-16.74,0-9.63,3.56-16.79,9.5-19.97,0-.66.02-1.33.02-2,0-.96,0-1.93,0-2.91,0-25.73-4.09-45.86-20.43-45.86-14.08,0-21.8,18.77-20.43,38.45.15,1.67-1.21,3.18-2.88,3.18-1.51,0-2.72-1.21-2.87-2.72-.91-9.38.45-17.56,3.78-25.88-2.57-8.78-6.96-13.02-15.89-13.02-16.19,0-20.29,20.13-20.29,45.86,0,37.23,3.33,54.33,20.29,54.33ZM225.9,200.84c.3,0,.62,0,.94.03,7.94.61,12.18,18.38,12.18,24.84,0,1.44-.21,2.32-.64,2.32-.15,0-.32-.1-.52-.33-.26-.29-.56-.78-.91-1.5-1.81-3.7-3.72-6.54-5.73-8.62-3.35-3.47-6.99-4.89-10.85-4.89-2.54,0-5.18.62-7.9,1.67,0,0,3.07-13.52,13.44-13.52ZM184.2,200.92c.53-.05,1.05-.08,1.56-.08,6.74,0,10.88,4.78,12.34,7.7.07.15.11.25.11.31,0,.05-.02.07-.07.07-.56,0-4.35-3.24-9.39-3.24s-11.17,3.15-16.71,15.64c.12-.59,4.02-19.54,12.17-20.39Z"/>
      <path class="cls-3" d="M269.37,205.28c4.21-1.34,7.93-.17,10.45,1.03-2.01-2.27-5.24-4.47-9.63-4.47-.46,0-.94.02-1.43.07-3.8.4-6.84,5.7-8.88,11.17,2.86-4.09,6.03-6.71,9.48-7.81Z"/>
      <path class="cls-3" d="M246.02,205.43c1,2.36,1.83,4.93,2.51,7.67.36-1.42.77-2.79,1.23-4.12l-.27-.66c-.08-.2-.16-.39-.24-.58-.1-.23-.19-.44-.28-.65-2.22-5.01-5.12-8.8-8.63-11.28-.59-.42-1.2-.8-1.84-1.14,3.19,2.64,5.65,6.33,7.52,10.76Z"/>
      <path class="cls-3" d="M309.81,208.5c3.42,2.11,5.39,7.51,6.37,17.53.04.41.09.71.14.92,1.51-2.06,4.14-11.25,2.52-18.09-1.04-4.41-3.6-6.76-7.59-6.99-7.3-.42-10.97,4.51-12.48,7.43,4.24-1.61,7.93-2.72,11.04-.8Z"/>
      <path class="cls-3" d="M253.2,244.83c5.2,0,9.77,2.17,12.86,6.11,3.01,3.85,4.54,9.12,4.54,15.68,0,13.38-6.33,19.54-13.33,21.17,3.08,5.58,7.66,8.28,14.39,8.28,11.8,0,18.31-13.17,18.31-35.72,0-1.66,1.36-2.87,2.87-2.87,1.67,0,2.88,1.21,2.88,2.87,0,7.27-.91,14.99-2.72,21.34,1.51,6.36,8.78,14.38,19.68,14.38,9.23,0,15.29-6.05,15.44-17.41,0-7.41-.75-16.5-10.44-28.45-1.36,1.66-2.88,3.18-4.39,4.54-1.36,1.36-3.48,1.21-4.54-.3-.76-1.21-.61-2.72.45-3.63,10.9-9.99,17.41-25.12,17.41-38.14,0-11.81-6.06-16.8-15.59-16.8-15.89,0-24.67,22.4-23.01,39.81.15,1.67-1.21,3.03-2.87,3.03-1.52,0-2.72-1.21-2.88-2.72-.75-7.87,1.06-19.22,5.45-28.46-.3-7.42-7.27-11.65-14.53-11.65-17.71,0-21.8,20.13-21.8,45.86,0,1.08,0,2.14,0,3.18.59-.06,1.19-.09,1.81-.09ZM295.97,210.8c.04-.11,3.54-11.62,15.4-10.92,6.49.38,10.03,5.35,9.98,14-.04,5.99-2.36,15.27-5.15,15.4h-.08c-1.63,0-1.85-2.29-1.93-3.05h0c-.89-9.09-2.66-14.33-5.42-16.03-2.63-1.62-6.4-.15-10.77,1.54l-2.59,1,.56-1.94ZM255.51,221.12c.42-2.07,4.38-20.28,13.05-21.19,8.11-.85,13.18,4.73,14.89,8.17.4.8.15,1.28-.12,1.54-.63.59-1.3.19-2.23-.36-1.85-1.1-6.18-3.67-11.12-2.1-4.74,1.51-8.97,6.4-12.58,14.54l-3.72,8.38,1.83-8.99Z"/>
      <path class="cls-3" d="M291.64,201.02c.31-.43.63-.85.96-1.26-.07-.08-.14-.17-.21-.25-1.51-1.77-3.38-3.27-5.47-4.46,1.99,1.64,3.64,3.64,4.72,5.97Z"/>
      <path class="cls-3" d="M246.25,286.78c-3.84,9.81-10.33,15.05-21.05,15.05-6.35,0-10.59-1.96-13.52-4.74,3.6,5.2,8.94,7.73,16.28,7.73,4.94,0,9-1.06,12.4-3.24,3.42-2.19,6.1-5.45,8.2-9.97l.73-1.56,1.65.48c.6.17,1.15.31,1.67.41-.49-.88-.94-1.81-1.37-2.79-1.8-.19-3.47-.66-4.99-1.38Z"/>
      <path class="cls-3" d="M325.6,249.12l-.88-1.12.77-1.2c5.16-7.97,8.62-17.09,9.73-25.68.26-2.04.4-4.03.4-5.94,0-4.54-.83-8.55-2.48-11.92-1.76-3.62-4.46-6.45-7.86-8.34,1.89,1.61,3.47,3.64,4.65,6.06,1.56,3.2,2.43,7.1,2.43,11.7,0,1.92-.13,3.88-.39,5.87-1.18,9.03-4.95,18.66-10.66,26.97,2.87,3.47,5.09,6.77,6.81,9.89,5.24,9.51,5.75,17.33,5.75,23.26-.04,3.44-.61,6.58-1.64,9.36-3.18,8.61-10.63,13.8-19.55,13.8-8.15,0-14.78-3.85-19.19-8.59l1.22,1.49c2.49,3.03,9.52,10.09,20.73,10.09,9.13,0,16.81-5.41,20.03-14.12,1.07-2.92,1.63-6.14,1.66-9.55,0-6.38-.69-14.17-5.81-23.48-1.58-2.85-3.5-5.73-5.73-8.55Z"/>
      <path class="cls-3" d="M357.53,230.89c0-7.97-4.05-15.8-11.51-20.2-1.37-.81-2.18-2.27-2.18-3.81,0-.36.04-.73.14-1.1,3.48-13.53-5.57-27.07-19.39-29.03h0c-.97-.14-1.84-.59-2.5-1.25-.66-.66-1.11-1.53-1.25-2.5-1.68-11.81-11.81-20.15-23.17-20.15-1.93,0-3.9.24-5.86.75-.36.09-.73.14-1.1.14-1.54,0-3-.8-3.81-2.18-7.1-12.02-23.08-15.2-34.24-6.81-.79.59-1.72.89-2.65.89s-1.87-.29-2.65-.89c-4.24-3.18-9.17-4.7-14.04-4.7-7.97,0-15.8,4.05-20.2,11.51-.81,1.37-2.27,2.18-3.81,2.18-.36,0-.73-.04-1.1-.14-1.97-.5-3.93-.75-5.86-.75-11.35,0-21.49,8.33-23.17,20.15-.14.97-.59,1.84-1.25,2.5-.66.66-1.53,1.11-2.5,1.25-11.81,1.68-20.15,11.81-20.15,23.17,0,1.93.24,3.9.75,5.86.09.36.14.73.14,1.1,0,1.54-.8,3-2.18,3.81-7.46,4.41-11.51,12.23-11.51,20.2,0,4.87,1.52,9.81,4.7,14.04.59.79.89,1.72.89,2.65s-.29,1.87-.89,2.65c-3.18,4.24-4.7,9.17-4.7,14.04,0,7.97,4.05,15.8,11.51,20.2,1.37.81,2.18,2.27,2.18,3.81,0,.36-.04.73-.14,1.1-.5,1.97-.75,3.93-.75,5.86,0,11.35,8.33,21.49,20.15,23.17,1.95.27,3.48,1.81,3.75,3.75h0c1.68,11.81,11.81,20.15,23.17,20.15,1.93,0,3.9-.24,5.86-.75.36-.09.73-.14,1.1-.14,1.54,0,3,.8,3.81,2.18,4.41,7.46,12.23,11.51,20.2,11.51,4.87,0,9.81-1.52,14.04-4.7.79-.59,1.72-.89,2.65-.89s1.87.29,2.65.89c4.24,3.18,9.17,4.7,14.04,4.7,7.97,0,15.79-4.05,20.2-11.51.81-1.37,2.27-2.18,3.81-2.18.36,0,.73.04,1.1.14,13.53,3.48,27.07-5.57,29.03-19.39h0c.27-1.95,1.81-3.48,3.75-3.76h0c11.81-1.68,20.14-11.81,20.14-23.17,0-1.93-.24-3.9-.75-5.86-.09-.36-.14-.73-.14-1.1,0-1.54.8-3,2.18-3.81,7.46-4.41,11.51-12.23,11.51-20.2,0-4.87-1.52-9.81-4.7-14.04-.59-.79-.89-1.72-.89-2.65s.29-1.87.89-2.65c3.18-4.24,4.7-9.17,4.7-14.04ZM337.35,291.39c-3.51,9.52-11.9,15.43-21.9,15.43s-17.59-5.13-22.28-10.82c-4.48,7.1-10.9,10.82-18.74,10.82-10.4,0-17.65-4.55-22.14-13.9-.65-.12-1.29-.28-1.92-.46-4.5,9.66-11.85,14.37-22.42,14.37-8.29,0-14.32-3.01-18.32-9.17-5.02,6.02-11.85,9.17-19.98,9.17-11.58,0-19.29-5.68-23.59-17.38-1.9-5.16-3.19-11.53-3.99-19.9,0-.03,0-.07,0-.11-.91-7.92-1.22-17.19-1.22-27.68,0-26.49,4.84-51.62,26.04-51.62.46,0,.92,0,1.36.03.46-.02.93-.03,1.4-.03,8.13,0,14.44,2.98,18.83,8.87,4.25-5.43,9.94-8.87,16.7-8.87.47,0,.93,0,1.39.04.45-.03.91-.04,1.38-.04,10.4,0,18.08,5.43,22.82,16.13.11-.28.23-.56.36-.84,4.08-9.26,10.92-15.29,22.04-15.29.4,0,.8,0,1.2.04.51-.03,1.03-.04,1.56-.04,6.97,0,13.76,3.17,17.97,8.09,4.45-4.93,10.18-8.09,17.11-8.09.46,0,.92,0,1.38.03.46-.02.92-.03,1.39-.03,9.66,0,17.37,4.47,21.16,12.26,1.78,3.65,2.68,7.96,2.68,12.79,0,1.99-.14,4.08-.41,6.2-1.16,8.94-4.71,18.28-10.04,26.51,2.3,2.92,4.29,5.89,5.91,8.83,5.34,9.7,6.06,17.81,6.06,24.46-.04,3.66-.64,7.09-1.79,10.22Z"/>
      <path class="cls-3" d="M369.31,223.86c-1.59-8.01-6-15.37-12.27-20.6.73-8.13-1.35-16.45-5.89-23.25-4.54-6.8-11.43-11.9-19.22-14.34-4.62-14.82-18.56-25.28-34.26-25.28-1.11,0-2.22.05-3.34.16-6.8-8.16-16.91-12.95-27.63-12.95-5.85,0-11.57,1.42-16.7,4.13-5.13-2.71-10.84-4.13-16.7-4.13-10.72,0-20.83,4.79-27.63,12.95-1.11-.1-2.23-.16-3.34-.16-15.69,0-29.63,10.46-34.26,25.28-7.79,2.43-14.68,7.54-19.22,14.34-4.54,6.8-6.63,15.12-5.89,23.25-6.26,5.23-10.67,12.59-12.27,20.6-1.59,8.02-.34,16.51,3.45,23.73-3.78,7.23-5.04,15.71-3.45,23.73,1.59,8.01,6,15.37,12.27,20.6-.73,8.13,1.35,16.45,5.89,23.25,4.54,6.8,11.43,11.9,19.22,14.34,4.62,14.82,18.56,25.28,34.26,25.28,1.11,0,2.23-.05,3.34-.16,3.01,3.6,6.75,6.62,10.95,8.83,5.15,2.7,10.92,4.13,16.68,4.13s11.57-1.42,16.7-4.13c5.13,2.71,10.84,4.13,16.7,4.13,10.72,0,20.83-4.79,27.63-12.95,1.11.1,2.23.16,3.34.16,15.69,0,29.63-10.46,34.26-25.28,7.79-2.43,14.68-7.54,19.22-14.34,4.54-6.8,6.63-15.12,5.89-23.25,6.26-5.23,10.67-12.59,12.27-20.6,1.59-8.02.34-16.51-3.45-23.73,3.78-7.23,5.04-15.71,3.45-23.73ZM364.41,270.35c-1.56,7.85-6.15,14.82-12.7,19.37,1.42,7.84-.26,16.02-4.71,22.68-4.45,6.66-11.36,11.34-19.15,13.03-3.05,14.01-15.73,24.37-30.18,24.37-1.85,0-3.71-.17-5.54-.5-5.73,8.25-15.32,13.3-25.43,13.3-5.97,0-11.71-1.7-16.7-4.92-4.99,3.22-10.73,4.92-16.7,4.92-5.05,0-9.98-1.26-14.36-3.56-4.38-2.29-8.21-5.62-11.07-9.74-1.83.33-3.69.5-5.54.5-14.45,0-27.13-10.36-30.18-24.37-7.79-1.69-14.7-6.37-19.15-13.03-4.45-6.66-6.13-14.84-4.71-22.68-6.55-4.55-11.14-11.52-12.7-19.37-1.56-7.86,0-16.05,4.32-22.76-4.31-6.71-5.88-14.9-4.32-22.76,1.56-7.85,6.15-14.82,12.7-19.37-1.42-7.84.26-16.02,4.71-22.68s11.36-11.34,19.15-13.03c3.05-14.01,15.73-24.37,30.18-24.37,1.85,0,3.71.17,5.54.5,5.74-8.25,15.32-13.3,25.43-13.3,5.97,0,11.71,1.7,16.7,4.92,4.99-3.22,10.73-4.92,16.7-4.92,10.11,0,19.7,5.05,25.43,13.3,1.83-.33,3.69-.5,5.54-.5,14.45,0,27.13,10.36,30.18,24.37,7.79,1.69,14.7,6.37,19.15,13.03s6.13,14.84,4.71,22.68c6.55,4.55,11.14,11.52,12.7,19.37,1.56,7.86,0,16.05-4.32,22.76,4.31,6.71,5.88,14.9,4.32,22.76Z"/>
      <path class="cls-3" d="M271.67,301.83c-6.5,0-11.43-1.92-15.15-5.62,4.13,5.86,9.92,8.62,17.92,8.62,7.17,0,12.91-3.33,17.05-9.89l1.45-2.3c-1.09-1.24-2.03-2.53-2.81-3.82-3.94,8.33-10.14,13.02-18.46,13.02Z"/>
      <path class="cls-3" d="M257.52,282.53c.11-.04.23-.09.34-.14.08-.02.15-.06.23-.09.07-.03.15-.06.23-.11.13-.05.26-.12.38-.19.03,0,.07-.02.09-.04.13-.07.26-.14.39-.22.06-.03.13-.07.19-.11.09-.05.19-.11.28-.18.14-.08.27-.18.4-.28.11-.08.21-.16.32-.24.3-.23.58-.48.85-.76.08-.07.15-.15.22-.23.08-.08.16-.16.23-.25.18-.2.36-.41.52-.63.1-.12.19-.24.28-.37.03-.03.05-.06.07-.1.11-.16.22-.32.32-.49.01-.01.02-.02.02-.04.1-.16.2-.32.3-.49.03-.05.06-.1.08-.15.09-.16.18-.32.26-.49.02-.03.04-.07.05-.11.09-.16.16-.33.24-.51.22-.48.42-1,.59-1.53.07-.22.15-.45.21-.69.05-.16.09-.32.13-.49.06-.2.1-.4.15-.6.04-.17.08-.35.12-.53.05-.23.09-.46.13-.7.03-.19.07-.38.09-.58.01-.08.03-.16.03-.24.03-.2.06-.41.08-.62.01-.09.02-.18.03-.27.02-.16.04-.33.05-.5.02-.16.03-.32.04-.49.02-.16.03-.32.03-.48.02-.28.03-.57.04-.86,0-.34.01-.68.01-1.03,0-11.2-5.14-16.8-12.41-16.8-.27,0-.53,0-.79.02-.18,0-.36.02-.53.04,0,0-.02,0-.02,0-.13,0-.27.03-.4.05h0s-.09,0-.13.02h0c-.13.02-.27.04-.4.07-.03,0-.07,0-.1.02-.13.02-.25.05-.37.08,0,0-.01,0-.02,0-.15.03-.3.07-.45.12-.08.02-.15.04-.22.06-.02,0-.05.01-.07.02-.15.04-.29.09-.44.15-.24.09-.48.18-.71.29-.37.17-.72.36-1.06.57-.18.11-.36.22-.53.35-.15.1-.3.21-.44.33-.15.11-.29.23-.43.36-.09.08-.18.16-.27.24t0,0c-.07.06-.14.13-.21.21-.02.01-.04.03-.05.04h0c-.06.06-.12.12-.17.19-.22.23-.43.47-.63.72-.07.09-.14.18-.2.27-.11.15-.22.3-.33.45-.11.16-.22.33-.33.51l-.03.04c-.1.17-.21.36-.31.54,0,0,0,.01-.01.02-.11.2-.21.4-.31.61-.08.15-.14.3-.21.46-.04.07-.07.15-.1.23-.09.21-.18.43-.26.64-.06.15-.12.31-.17.48-.01.04-.03.07-.04.11-.04.1-.07.2-.1.31-.03.08-.06.15-.08.23-.06.2-.12.4-.18.61-.03.09-.05.19-.07.28-.06.22-.12.45-.16.68-.01.04-.03.09-.03.14-.07.3-.13.6-.18.91,0,.05-.02.1-.02.15-.05.28-.1.56-.13.85,0,.01,0,.03,0,.04-.04.28-.08.57-.1.87-.01.08-.02.16-.02.24-.03.24-.05.49-.07.74,0,.11-.01.22-.02.33-.03.3-.04.61-.05.92-.01.36-.02.73-.02,1.1,0,.26,0,.52,0,.78,0,.19,0,.38.02.57,0,.33.03.66.05.98,0,.21.03.42.05.63s.04.41.06.62c.03.28.07.56.11.84.07.48.15.96.25,1.42.03.15.06.3.1.44.02.11.04.21.07.31.04.16.08.32.12.48,0,.01,0,.02,0,.03.05.19.1.38.16.57.19.62.4,1.22.65,1.78.07.16.14.33.21.48.02.04.03.08.05.11.08.16.16.32.24.48.13.26.28.52.42.76,0,0,0,.02.02.02.06.09.11.19.17.28.09.15.19.3.29.44.08.11.16.23.25.34.08.11.17.23.26.33.09.11.18.22.27.32.08.09.16.18.24.27.01.02.03.04.05.05.09.09.18.19.27.28.51.51,1.07.96,1.67,1.33.08.06.17.11.27.17.11.07.23.14.35.2.1.06.21.11.31.16.27.14.56.27.85.38.1.04.2.07.3.11.3.11.61.2.93.28.11.03.22.05.33.08.17.04.34.07.51.1.19.03.38.06.57.08,0,0,.03,0,.04,0,.08,0,.16.02.24.02.14.01.29.02.44.03.05,0,.1,0,.15,0,.22.01.44.02.67.02.19,0,.38,0,.57-.01.11,0,.21,0,.32-.01.16,0,.32-.02.48-.04.18-.01.36-.04.54-.06.04,0,.09-.01.13-.02.04,0,.09-.01.13-.02.34-.05.67-.12,1-.21.13-.03.27-.07.4-.11.25-.06.49-.15.73-.24ZM251.58,255.58c-.15.13-.3.28-.45.43-.62.62-1.22,1.39-1.76,2.34-.11.19-.21.38-.31.59-.1.2-.2.41-.29.64-.1.22-.18.44-.27.68-.09.23-.17.48-.25.73-.08.25-.15.51-.22.78-.07.27-.13.54-.19.83-.11.53-.21,1.1-.28,1.7,0,.08-.02.16-.03.25,0,.08-.02.16-.02.25-.02.15-.04.31-.05.47-.01.18-.03.37-.04.56-.01.19-.02.38-.03.57-.02.45-.03.92-.02,1.4,0,.52-.23.91-.57,1.15-.65.47-1.69.4-2.24-.26-.13-.16-.24-.36-.3-.6-.63-2.43-.76-5.54.52-9.17.17-.5.36-.96.57-1.39h0c.17-.37.36-.71.55-1.02h0c1.5-2.48,3.5-3.47,5.35-3.77.08-.01.17-.03.26-.04.17-.02.35-.04.52-.05.1,0,.21-.01.31-.01.09,0,.18,0,.27,0,.15,0,.29,0,.44.01.05,0,.09,0,.14,0,.07,0,.14,0,.21.01.17,0,.34.03.51.05.13.01.26.03.39.06.25.04.49.09.71.14.11.02.21.05.31.08.05.01.1.02.14.04.04.01.09.02.13.04.15.04.29.09.41.13.29.1.46.17.46.17,0,0-2.51.09-4.9,2.19Z"/>
    </g>
    <g>
      <path class="cls-3" d="M688.47,709.78c.54,0,1.08.03,1.59.09-1.29-.57-2.81-.94-4.57-.94-.19,0-.38,0-.57.01h-.03c-.22.01-.45.03-.67.05,0,0,0,0,0,0h-.05c-1.86.2-3.59,1.93-5.11,4.39,1.45-1.2,2.96-2.1,4.54-2.7,1.57-.6,3.21-.9,4.9-.9Z"/>
      <path class="cls-3" d="M720.11,716.8c4.73,0,8.86,1.87,12.45,5.67h0s0,0,0,0t0,0c1.34,1.42,2.6,3.1,3.8,5.05-1.21-7.47-5.03-18.2-9.94-18.57-.26-.02-.53-.03-.79-.03-5.56,0-8.71,4.91-10.26,8.44,1.65-.39,3.21-.58,4.72-.58h0Z"/>
      <path class="cls-3" d="M686.64,807.93c-6.49,0-11.42-1.92-15.14-5.61,4.13,5.84,9.96,8.6,17.9,8.6s13.76-2.84,18.44-8.46l1.44-1.72c-.96-1.32-1.73-2.74-2.36-4.17-4.84,7.72-11.96,11.35-20.28,11.35Z"/>
      <path class="cls-3" d="M706.01,708.33c.32-.53.65-1.04.99-1.54-.11-.16-.23-.33-.36-.5-1.77-2.37-3.9-4.23-6.36-5.56,2.36,1.97,4.26,4.53,5.73,7.6Z"/>
      <path class="cls-3" d="M686.64,802.18c14.07,0,23.46-11.35,20.73-39.96-.15-1.52,1.21-3.03,2.88-3.03,1.51,0,2.72,1.21,2.87,2.57,1.36,13.02.3,20.13-2.57,27.85,1.67,6.81,4.09,12.56,14.38,12.56.46,0,.9,0,1.34-.04.56-.03,1.1-.08,1.63-.15.24-.03.47-.07.7-.11.33-.05.66-.12.97-.2.15-.03.3-.07.45-.11.4-.11.8-.23,1.18-.37.19-.06.37-.13.56-.21.02,0,.04-.01.06-.02.17-.07.34-.14.51-.22.13-.06.26-.12.39-.19.11-.05.23-.11.34-.17.16-.08.31-.17.47-.26.15-.08.3-.17.44-.27.05-.02.09-.05.14-.09.11-.07.22-.14.33-.22.15-.1.29-.2.44-.31.1-.07.2-.15.3-.23.14-.11.28-.23.42-.35.11-.09.21-.18.31-.28.09-.07.18-.16.26-.24.13-.13.27-.26.41-.4.12-.12.24-.25.36-.39.02-.02.04-.05.06-.07.09-.1.18-.2.26-.3.1-.12.21-.25.31-.38,0,0,0,0,0,0,.13-.16.26-.33.38-.5.02-.03.05-.07.08-.11.1-.14.2-.28.3-.43.12-.17.23-.34.34-.52.09-.14.18-.28.26-.43.03-.05.06-.1.09-.15.08-.14.16-.28.24-.42.04-.08.09-.16.14-.25.08-.14.15-.29.23-.43.04-.08.09-.16.13-.25.08-.16.16-.32.23-.48.02-.03.04-.07.05-.11.1-.22.21-.44.3-.67.1-.22.2-.45.29-.68.02-.03.03-.06.05-.1.09-.24.19-.48.28-.72.1-.26.19-.52.29-.79-3.5-3.78-5.5-9.56-5.5-16.74,0-9.63,3.56-16.79,9.5-19.97,0-.66.02-1.33.02-2,0-.96,0-1.93,0-2.91,0-25.73-4.09-45.86-20.43-45.86-14.08,0-21.8,18.77-20.43,38.45.15,1.67-1.21,3.18-2.88,3.18-1.51,0-2.72-1.21-2.87-2.72-.91-9.38.45-17.56,3.78-25.88-2.57-8.78-6.96-13.02-15.89-13.02-16.19,0-20.29,20.13-20.29,45.86,0,37.23,3.33,54.33,20.29,54.33ZM725.64,706.94c.3,0,.62,0,.94.03,7.94.61,12.18,18.38,12.18,24.84,0,1.44-.21,2.32-.64,2.32-.15,0-.32-.1-.52-.33-.26-.29-.56-.78-.91-1.5-1.81-3.7-3.72-6.54-5.73-8.62-3.35-3.47-6.99-4.89-10.85-4.89-2.54,0-5.18.62-7.9,1.67,0,0,3.07-13.52,13.44-13.52ZM683.93,707.02c.53-.05,1.05-.08,1.56-.08,6.74,0,10.88,4.78,12.34,7.7.07.15.11.25.11.31,0,.05-.02.07-.07.07-.56,0-4.35-3.24-9.39-3.24s-11.17,3.15-16.71,15.64c.12-.59,4.02-19.54,12.17-20.39Z"/>
      <path class="cls-3" d="M769.11,711.38c4.21-1.34,7.93-.17,10.45,1.03-2.01-2.27-5.24-4.47-9.63-4.47-.46,0-.94.02-1.43.07-3.8.4-6.84,5.7-8.88,11.17,2.86-4.09,6.03-6.71,9.48-7.81Z"/>
      <path class="cls-3" d="M745.76,711.53c1,2.36,1.83,4.93,2.51,7.67.36-1.42.77-2.79,1.23-4.12l-.27-.66c-.08-.2-.16-.39-.24-.58-.1-.23-.19-.44-.28-.65-2.22-5.01-5.12-8.8-8.63-11.28-.59-.42-1.2-.8-1.84-1.14,3.19,2.64,5.65,6.33,7.52,10.76Z"/>
      <path class="cls-3" d="M809.55,714.6c3.42,2.11,5.39,7.51,6.37,17.53.04.41.09.71.14.92,1.51-2.06,4.14-11.25,2.52-18.09-1.04-4.41-3.6-6.76-7.59-6.99-7.3-.42-10.97,4.51-12.48,7.43,4.24-1.61,7.93-2.72,11.04-.8Z"/>
      <path class="cls-3" d="M752.94,750.93c5.2,0,9.77,2.17,12.86,6.11,3.01,3.85,4.54,9.12,4.54,15.68,0,13.38-6.33,19.54-13.33,21.17,3.08,5.58,7.66,8.28,14.39,8.28,11.8,0,18.31-13.17,18.31-35.72,0-1.66,1.36-2.87,2.87-2.87,1.67,0,2.88,1.21,2.88,2.87,0,7.27-.91,14.99-2.72,21.34,1.51,6.36,8.78,14.38,19.68,14.38,9.23,0,15.29-6.05,15.44-17.41,0-7.41-.75-16.5-10.44-28.45-1.36,1.66-2.88,3.18-4.39,4.54-1.36,1.36-3.48,1.21-4.54-.3-.76-1.21-.61-2.72.45-3.63,10.9-9.99,17.41-25.12,17.41-38.14,0-11.81-6.06-16.8-15.59-16.8-15.89,0-24.67,22.4-23.01,39.81.15,1.67-1.21,3.03-2.87,3.03-1.52,0-2.72-1.21-2.88-2.72-.75-7.87,1.06-19.22,5.45-28.46-.3-7.42-7.27-11.65-14.53-11.65-17.71,0-21.8,20.13-21.8,45.86,0,1.08,0,2.14,0,3.18.59-.06,1.19-.09,1.81-.09ZM795.71,716.9c.04-.11,3.54-11.62,15.4-10.92,6.49.38,10.03,5.35,9.98,14-.04,5.99-2.36,15.27-5.15,15.4h-.08c-1.63,0-1.85-2.29-1.93-3.05h0c-.89-9.09-2.66-14.33-5.42-16.03-2.63-1.62-6.4-.15-10.77,1.54l-2.59,1,.56-1.94ZM755.24,727.22c.42-2.07,4.38-20.28,13.05-21.19,8.11-.85,13.18,4.73,14.89,8.17.4.8.15,1.28-.12,1.54-.63.59-1.3.19-2.23-.36-1.85-1.1-6.18-3.67-11.12-2.1-4.74,1.51-8.97,6.4-12.58,14.54l-3.72,8.38,1.83-8.99Z"/>
      <path class="cls-3" d="M791.38,707.12c.31-.43.63-.85.96-1.26-.07-.08-.14-.17-.21-.25-1.51-1.77-3.38-3.27-5.47-4.46,1.99,1.64,3.64,3.64,4.72,5.97Z"/>
      <path class="cls-3" d="M745.99,792.88c-3.84,9.81-10.33,15.05-21.05,15.05-6.35,0-10.59-1.96-13.52-4.74,3.6,5.2,8.94,7.73,16.28,7.73,4.94,0,9-1.06,12.4-3.24,3.42-2.19,6.1-5.45,8.2-9.97l.73-1.56,1.65.48c.6.17,1.15.31,1.67.41-.49-.88-.94-1.81-1.37-2.79-1.8-.19-3.47-.66-4.99-1.38Z"/>
      <path class="cls-3" d="M825.34,755.21l-.88-1.12.77-1.2c5.16-7.97,8.62-17.09,9.73-25.68.26-2.04.4-4.03.4-5.94,0-4.54-.83-8.55-2.48-11.92-1.76-3.62-4.46-6.45-7.86-8.34,1.89,1.61,3.47,3.64,4.65,6.06,1.56,3.2,2.43,7.1,2.43,11.7,0,1.92-.13,3.88-.39,5.87-1.18,9.03-4.95,18.66-10.66,26.97,2.87,3.47,5.09,6.77,6.81,9.89,5.24,9.51,5.75,17.33,5.75,23.26-.04,3.44-.61,6.58-1.64,9.36-3.18,8.61-10.63,13.8-19.55,13.8-8.15,0-14.78-3.85-19.19-8.59l1.22,1.49c2.49,3.03,9.52,10.09,20.73,10.09,9.13,0,16.81-5.41,20.03-14.12,1.07-2.92,1.63-6.14,1.66-9.55,0-6.38-.69-14.17-5.81-23.48-1.58-2.85-3.5-5.73-5.73-8.55Z"/>
      <path class="cls-3" d="M857.26,736.99c0-7.97-4.05-15.8-11.51-20.2-1.37-.81-2.18-2.27-2.18-3.81,0-.36.04-.73.14-1.1,3.48-13.53-5.57-27.07-19.39-29.03h0c-.97-.14-1.84-.59-2.5-1.25-.66-.66-1.11-1.53-1.25-2.5-1.68-11.81-11.81-20.15-23.17-20.15-1.93,0-3.9.24-5.86.75-.36.09-.73.14-1.1.14-1.54,0-3-.8-3.81-2.18-7.1-12.02-23.08-15.2-34.24-6.81-.79.59-1.72.89-2.65.89s-1.87-.29-2.65-.89c-4.24-3.18-9.17-4.7-14.04-4.7-7.97,0-15.8,4.05-20.2,11.51-.81,1.37-2.27,2.18-3.81,2.18-.36,0-.73-.04-1.1-.14-1.97-.5-3.93-.75-5.86-.75-11.35,0-21.49,8.33-23.17,20.15-.14.97-.59,1.84-1.25,2.5-.66.66-1.53,1.11-2.5,1.25-11.81,1.68-20.15,11.81-20.15,23.17,0,1.93.24,3.9.75,5.86.09.36.14.73.14,1.1,0,1.54-.8,3-2.18,3.81-7.46,4.41-11.51,12.23-11.51,20.2,0,4.87,1.52,9.81,4.7,14.04.59.79.89,1.72.89,2.65s-.29,1.87-.89,2.65c-3.18,4.24-4.7,9.17-4.7,14.04,0,7.97,4.05,15.8,11.51,20.2,1.37.81,2.18,2.27,2.18,3.81,0,.36-.04.73-.14,1.1-.5,1.97-.75,3.93-.75,5.86,0,11.35,8.33,21.49,20.15,23.17,1.95.27,3.48,1.81,3.75,3.75h0c1.68,11.81,11.81,20.15,23.17,20.15,1.93,0,3.9-.24,5.86-.75.36-.09.73-.14,1.1-.14,1.54,0,3,.8,3.81,2.18,4.41,7.46,12.23,11.51,20.2,11.51,4.87,0,9.81-1.52,14.04-4.7.79-.59,1.72-.89,2.65-.89s1.87.29,2.65.89c4.24,3.18,9.17,4.7,14.04,4.7,7.97,0,15.79-4.05,20.2-11.51.81-1.37,2.27-2.18,3.81-2.18.36,0,.73.04,1.1.14,13.53,3.48,27.07-5.57,29.03-19.39h0c.27-1.95,1.81-3.48,3.75-3.76h0c11.81-1.68,20.14-11.81,20.14-23.17,0-1.93-.24-3.9-.75-5.86-.09-.36-.14-.73-.14-1.1,0-1.54.8-3,2.18-3.81,7.46-4.41,11.51-12.23,11.51-20.2,0-4.87-1.52-9.81-4.7-14.04-.59-.79-.89-1.72-.89-2.65s.29-1.87.89-2.65c3.18-4.24,4.7-9.17,4.7-14.04ZM837.08,797.49c-3.51,9.52-11.9,15.43-21.9,15.43s-17.59-5.13-22.28-10.82c-4.48,7.1-10.9,10.82-18.74,10.82-10.4,0-17.65-4.55-22.14-13.9-.65-.12-1.29-.28-1.92-.46-4.5,9.66-11.85,14.37-22.42,14.37-8.29,0-14.32-3.01-18.32-9.17-5.02,6.02-11.85,9.17-19.98,9.17-11.58,0-19.29-5.68-23.59-17.38-1.9-5.16-3.19-11.53-3.99-19.9,0-.03,0-.07,0-.11-.91-7.92-1.22-17.19-1.22-27.68,0-26.49,4.84-51.62,26.04-51.62.46,0,.92,0,1.36.03.46-.02.93-.03,1.4-.03,8.13,0,14.44,2.98,18.83,8.87,4.25-5.43,9.94-8.87,16.7-8.87.47,0,.93,0,1.39.04.45-.03.91-.04,1.38-.04,10.4,0,18.08,5.43,22.82,16.13.11-.28.23-.56.36-.84,4.08-9.26,10.92-15.29,22.04-15.29.4,0,.8,0,1.2.04.51-.03,1.03-.04,1.56-.04,6.97,0,13.76,3.17,17.97,8.09,4.45-4.93,10.18-8.09,17.11-8.09.46,0,.92,0,1.38.03.46-.02.92-.03,1.39-.03,9.66,0,17.37,4.47,21.16,12.26,1.78,3.65,2.68,7.96,2.68,12.79,0,1.99-.14,4.08-.41,6.2-1.16,8.94-4.71,18.28-10.04,26.51,2.3,2.92,4.29,5.89,5.91,8.83,5.34,9.7,6.06,17.81,6.06,24.46-.04,3.66-.64,7.09-1.79,10.22Z"/>
      <path class="cls-3" d="M869.04,729.95c-1.59-8.01-6-15.37-12.27-20.6.73-8.13-1.35-16.45-5.89-23.25-4.54-6.8-11.43-11.9-19.22-14.34-4.62-14.82-18.56-25.28-34.26-25.28-1.11,0-2.22.05-3.34.16-6.8-8.16-16.91-12.95-27.63-12.95-5.85,0-11.57,1.42-16.7,4.13-5.13-2.71-10.84-4.13-16.7-4.13-10.72,0-20.83,4.79-27.63,12.95-1.11-.1-2.23-.16-3.34-.16-15.69,0-29.63,10.46-34.26,25.28-7.79,2.43-14.68,7.54-19.22,14.34-4.54,6.8-6.63,15.12-5.89,23.25-6.26,5.23-10.67,12.59-12.27,20.6-1.59,8.02-.34,16.51,3.45,23.73-3.78,7.23-5.04,15.71-3.45,23.73,1.59,8.01,6,15.37,12.27,20.6-.73,8.13,1.35,16.45,5.89,23.25,4.54,6.8,11.43,11.9,19.22,14.34,4.62,14.82,18.56,25.28,34.26,25.28,1.11,0,2.23-.05,3.34-.16,3.01,3.6,6.75,6.62,10.95,8.83,5.15,2.7,10.92,4.13,16.68,4.13s11.57-1.42,16.7-4.13c5.13,2.71,10.84,4.13,16.7,4.13,10.72,0,20.83-4.79,27.63-12.95,1.11.1,2.23.16,3.34.16,15.69,0,29.63-10.46,34.26-25.28,7.79-2.43,14.68-7.54,19.22-14.34,4.54-6.8,6.63-15.12,5.89-23.25,6.26-5.23,10.67-12.59,12.27-20.6,1.59-8.02.34-16.51-3.45-23.73,3.78-7.23,5.04-15.71,3.45-23.73ZM864.15,776.45c-1.56,7.85-6.15,14.82-12.7,19.37,1.42,7.84-.26,16.02-4.71,22.68-4.45,6.66-11.36,11.34-19.15,13.03-3.05,14.01-15.73,24.37-30.18,24.37-1.85,0-3.71-.17-5.54-.5-5.73,8.25-15.32,13.3-25.43,13.3-5.97,0-11.71-1.7-16.7-4.92-4.99,3.22-10.73,4.92-16.7,4.92-5.05,0-9.98-1.26-14.36-3.56-4.38-2.29-8.21-5.62-11.07-9.74-1.83.33-3.69.5-5.54.5-14.45,0-27.13-10.36-30.18-24.37-7.79-1.69-14.7-6.37-19.15-13.03-4.45-6.66-6.13-14.84-4.71-22.68-6.55-4.55-11.14-11.52-12.7-19.37-1.56-7.86,0-16.05,4.32-22.76-4.31-6.71-5.88-14.9-4.32-22.76,1.56-7.85,6.15-14.82,12.7-19.37-1.42-7.84.26-16.02,4.71-22.68s11.36-11.34,19.15-13.03c3.05-14.01,15.73-24.37,30.18-24.37,1.85,0,3.71.17,5.54.5,5.74-8.25,15.32-13.3,25.43-13.3,5.97,0,11.71,1.7,16.7,4.92,4.99-3.22,10.73-4.92,16.7-4.92,10.11,0,19.7,5.05,25.43,13.3,1.83-.33,3.69-.5,5.54-.5,14.45,0,27.13,10.36,30.18,24.37,7.79,1.69,14.7,6.37,19.15,13.03s6.13,14.84,4.71,22.68c6.55,4.55,11.14,11.52,12.7,19.37,1.56,7.86,0,16.05-4.32,22.76,4.31,6.71,5.88,14.9,4.32,22.76Z"/>
      <path class="cls-3" d="M771.4,807.93c-6.5,0-11.43-1.92-15.15-5.62,4.13,5.86,9.92,8.62,17.92,8.62,7.17,0,12.91-3.33,17.05-9.89l1.45-2.3c-1.09-1.24-2.03-2.53-2.81-3.82-3.94,8.33-10.14,13.02-18.46,13.02Z"/>
      <path class="cls-3" d="M757.25,788.63c.11-.04.23-.09.34-.14.08-.02.15-.06.23-.09.07-.03.15-.06.23-.11.13-.05.26-.12.38-.19.03,0,.07-.02.09-.04.13-.07.26-.14.39-.22.06-.03.13-.07.19-.11.09-.05.19-.11.28-.18.14-.08.27-.18.4-.28.11-.08.21-.16.32-.24.3-.23.58-.48.85-.76.08-.07.15-.15.22-.23.08-.08.16-.16.23-.25.18-.2.36-.41.52-.63.1-.12.19-.24.28-.37.03-.03.05-.06.07-.1.11-.16.22-.32.32-.49.01-.01.02-.02.02-.04.1-.16.2-.32.3-.49.03-.05.06-.1.08-.15.09-.16.18-.32.26-.49.02-.03.04-.07.05-.11.09-.16.16-.33.24-.51.22-.48.42-1,.59-1.53.07-.22.15-.45.21-.69.05-.16.09-.32.13-.49.06-.2.1-.4.15-.6.04-.17.08-.35.12-.53.05-.23.09-.46.13-.7.03-.19.07-.38.09-.58.01-.08.03-.16.03-.24.03-.2.06-.41.08-.62.01-.09.02-.18.03-.27.02-.16.04-.33.05-.5.02-.16.03-.32.04-.49.02-.16.03-.32.03-.48.02-.28.03-.57.04-.86,0-.34.01-.68.01-1.03,0-11.2-5.14-16.8-12.41-16.8-.27,0-.53,0-.79.02-.18,0-.36.02-.53.04,0,0-.02,0-.02,0-.13,0-.27.03-.4.05h0s-.09,0-.13.02h0c-.13.02-.27.04-.4.07-.03,0-.07,0-.1.02-.13.02-.25.05-.37.08,0,0-.01,0-.02,0-.15.03-.3.07-.45.12-.08.02-.15.04-.22.06-.02,0-.05.01-.07.02-.15.04-.29.09-.44.15-.24.09-.48.18-.71.29-.37.17-.72.36-1.06.57-.18.11-.36.22-.53.35-.15.1-.3.21-.44.33-.15.11-.29.23-.43.36-.09.08-.18.16-.27.24t0,0c-.07.06-.14.13-.21.21-.02.01-.04.03-.05.04h0c-.06.06-.12.12-.17.19-.22.23-.43.47-.63.72-.07.09-.14.18-.2.27-.11.15-.22.3-.33.45-.11.16-.22.33-.33.51l-.03.04c-.1.17-.21.36-.31.54,0,0,0,.01-.01.02-.11.2-.21.4-.31.61-.08.15-.14.3-.21.46-.04.07-.07.15-.1.23-.09.21-.18.43-.26.64-.06.15-.12.31-.17.48-.01.04-.03.07-.04.11-.04.1-.07.2-.1.31-.03.08-.06.15-.08.23-.06.2-.12.4-.18.61-.03.09-.05.19-.07.28-.06.22-.12.45-.16.68-.01.04-.03.09-.03.14-.07.3-.13.6-.18.91,0,.05-.02.1-.02.15-.05.28-.1.56-.13.85,0,.01,0,.03,0,.04-.04.28-.08.57-.1.87-.01.08-.02.16-.02.24-.03.24-.05.49-.07.74,0,.11-.01.22-.02.33-.03.3-.04.61-.05.92-.01.36-.02.73-.02,1.1,0,.26,0,.52,0,.78,0,.19,0,.38.02.57,0,.33.03.66.05.98,0,.21.03.42.05.63s.04.41.06.62c.03.28.07.56.11.84.07.48.15.96.25,1.42.03.15.06.3.1.44.02.11.04.21.07.31.04.16.08.32.12.48,0,.01,0,.02,0,.03.05.19.1.38.16.57.19.62.4,1.22.65,1.78.07.16.14.33.21.48.02.04.03.08.05.11.08.16.16.32.24.48.13.26.28.52.42.76,0,0,0,.02.02.02.06.09.11.19.17.28.09.15.19.3.29.44.08.11.16.23.25.34.08.11.17.23.26.33.09.11.18.22.27.32.08.09.16.18.24.27.01.02.03.04.05.05.09.09.18.19.27.28.51.51,1.07.96,1.67,1.33.08.06.17.11.27.17.11.07.23.14.35.2.1.06.21.11.31.16.27.14.56.27.85.38.1.04.2.07.3.11.3.11.61.2.93.28.11.03.22.05.33.08.17.04.34.07.51.1.19.03.38.06.57.08,0,0,.03,0,.04,0,.08,0,.16.02.24.02.14.01.29.02.44.03.05,0,.1,0,.15,0,.22.01.44.02.67.02.19,0,.38,0,.57-.01.11,0,.21,0,.32-.01.16,0,.32-.02.48-.04.18-.01.36-.04.54-.06.04,0,.09-.01.13-.02.04,0,.09-.01.13-.02.34-.05.67-.12,1-.21.13-.03.27-.07.4-.11.25-.06.49-.15.73-.24ZM751.32,761.68c-.15.13-.3.28-.45.43-.62.62-1.22,1.39-1.76,2.34-.11.19-.21.38-.31.59-.1.2-.2.41-.29.64-.1.22-.18.44-.27.68-.09.23-.17.48-.25.73-.08.25-.15.51-.22.78-.07.27-.13.54-.19.83-.11.53-.21,1.1-.28,1.7,0,.08-.02.16-.03.25,0,.08-.02.16-.02.25-.02.15-.04.31-.05.47-.01.18-.03.37-.04.56-.01.19-.02.38-.03.57-.02.45-.03.92-.02,1.4,0,.52-.23.91-.57,1.15-.65.47-1.69.4-2.24-.26-.13-.16-.24-.36-.3-.6-.63-2.43-.76-5.54.52-9.17.17-.5.36-.96.57-1.39h0c.17-.37.36-.71.55-1.02h0c1.5-2.48,3.5-3.47,5.35-3.77.08-.01.17-.03.26-.04.17-.02.35-.04.52-.05.1,0,.21-.01.31-.01.09,0,.18,0,.27,0,.15,0,.29,0,.44.01.05,0,.09,0,.14,0,.07,0,.14,0,.21.01.17,0,.34.03.51.05.13.01.26.03.39.06.25.04.49.09.71.14.11.02.21.05.31.08.05.01.1.02.14.04.04.01.09.02.13.04.15.04.29.09.41.13.29.1.46.17.46.17,0,0-2.51.09-4.9,2.19Z"/>
    </g>
    <g>
      <path class="cls-3" d="M188.74,709.78c.54,0,1.08.03,1.59.09-1.29-.57-2.81-.94-4.57-.94-.19,0-.38,0-.57.01h-.03c-.22.01-.45.03-.67.05,0,0,0,0,0,0h-.05c-1.86.2-3.59,1.93-5.11,4.39,1.45-1.2,2.96-2.1,4.54-2.7,1.57-.6,3.21-.9,4.9-.9Z"/>
      <path class="cls-3" d="M220.38,716.8c4.73,0,8.86,1.87,12.45,5.67h0s0,0,0,0t0,0c1.34,1.42,2.6,3.1,3.8,5.05-1.21-7.47-5.03-18.2-9.94-18.57-.26-.02-.53-.03-.79-.03-5.56,0-8.71,4.91-10.26,8.44,1.65-.39,3.21-.58,4.72-.58h0Z"/>
      <path class="cls-3" d="M186.9,807.93c-6.49,0-11.42-1.92-15.14-5.61,4.13,5.84,9.96,8.6,17.9,8.6s13.76-2.84,18.44-8.46l1.44-1.72c-.96-1.32-1.73-2.74-2.36-4.17-4.84,7.72-11.96,11.35-20.28,11.35Z"/>
      <path class="cls-3" d="M206.28,708.33c.32-.53.65-1.04.99-1.54-.11-.16-.23-.33-.36-.5-1.77-2.37-3.9-4.23-6.36-5.56,2.36,1.97,4.26,4.53,5.73,7.6Z"/>
      <path class="cls-3" d="M186.9,802.18c14.07,0,23.46-11.35,20.73-39.96-.15-1.52,1.21-3.03,2.88-3.03,1.51,0,2.72,1.21,2.87,2.57,1.36,13.02.3,20.13-2.57,27.85,1.67,6.81,4.09,12.56,14.38,12.56.46,0,.9,0,1.34-.04.56-.03,1.1-.08,1.63-.15.24-.03.47-.07.7-.11.33-.05.66-.12.97-.2.15-.03.3-.07.45-.11.4-.11.8-.23,1.18-.37.19-.06.37-.13.56-.21.02,0,.04-.01.06-.02.17-.07.34-.14.51-.22.13-.06.26-.12.39-.19.11-.05.23-.11.34-.17.16-.08.31-.17.47-.26.15-.08.3-.17.44-.27.05-.02.09-.05.14-.09.11-.07.22-.14.33-.22.15-.1.29-.2.44-.31.1-.07.2-.15.3-.23.14-.11.28-.23.42-.35.11-.09.21-.18.31-.28.09-.07.18-.16.26-.24.13-.13.27-.26.41-.4.12-.12.24-.25.36-.39.02-.02.04-.05.06-.07.09-.1.18-.2.26-.3.1-.12.21-.25.31-.38,0,0,0,0,0,0,.13-.16.26-.33.38-.5.02-.03.05-.07.08-.11.1-.14.2-.28.3-.43.12-.17.23-.34.34-.52.09-.14.18-.28.26-.43.03-.05.06-.1.09-.15.08-.14.16-.28.24-.42.04-.08.09-.16.14-.25.08-.14.15-.29.23-.43.04-.08.09-.16.13-.25.08-.16.16-.32.23-.48.02-.03.04-.07.05-.11.1-.22.21-.44.3-.67.1-.22.2-.45.29-.68.02-.03.03-.06.05-.1.09-.24.19-.48.28-.72.1-.26.19-.52.29-.79-3.5-3.78-5.5-9.56-5.5-16.74,0-9.63,3.56-16.79,9.5-19.97,0-.66.02-1.33.02-2,0-.96,0-1.93,0-2.91,0-25.73-4.09-45.86-20.43-45.86-14.08,0-21.8,18.77-20.43,38.45.15,1.67-1.21,3.18-2.88,3.18-1.51,0-2.72-1.21-2.87-2.72-.91-9.38.45-17.56,3.78-25.88-2.57-8.78-6.96-13.02-15.89-13.02-16.19,0-20.29,20.13-20.29,45.86,0,37.23,3.33,54.33,20.29,54.33ZM225.9,706.94c.3,0,.62,0,.94.03,7.94.61,12.18,18.38,12.18,24.84,0,1.44-.21,2.32-.64,2.32-.15,0-.32-.1-.52-.33-.26-.29-.56-.78-.91-1.5-1.81-3.7-3.72-6.54-5.73-8.62-3.35-3.47-6.99-4.89-10.85-4.89-2.54,0-5.18.62-7.9,1.67,0,0,3.07-13.52,13.44-13.52ZM184.2,707.02c.53-.05,1.05-.08,1.56-.08,6.74,0,10.88,4.78,12.34,7.7.07.15.11.25.11.31,0,.05-.02.07-.07.07-.56,0-4.35-3.24-9.39-3.24s-11.17,3.15-16.71,15.64c.12-.59,4.02-19.54,12.17-20.39Z"/>
      <path class="cls-3" d="M269.37,711.38c4.21-1.34,7.93-.17,10.45,1.03-2.01-2.27-5.24-4.47-9.63-4.47-.46,0-.94.02-1.43.07-3.8.4-6.84,5.7-8.88,11.17,2.86-4.09,6.03-6.71,9.48-7.81Z"/>
      <path class="cls-3" d="M246.02,711.53c1,2.36,1.83,4.93,2.51,7.67.36-1.42.77-2.79,1.23-4.12l-.27-.66c-.08-.2-.16-.39-.24-.58-.1-.23-.19-.44-.28-.65-2.22-5.01-5.12-8.8-8.63-11.28-.59-.42-1.2-.8-1.84-1.14,3.19,2.64,5.65,6.33,7.52,10.76Z"/>
      <path class="cls-3" d="M309.81,714.6c3.42,2.11,5.39,7.51,6.37,17.53.04.41.09.71.14.92,1.51-2.06,4.14-11.25,2.52-18.09-1.04-4.41-3.6-6.76-7.59-6.99-7.3-.42-10.97,4.51-12.48,7.43,4.24-1.61,7.93-2.72,11.04-.8Z"/>
      <path class="cls-3" d="M253.2,750.93c5.2,0,9.77,2.17,12.86,6.11,3.01,3.85,4.54,9.12,4.54,15.68,0,13.38-6.33,19.54-13.33,21.17,3.08,5.58,7.66,8.28,14.39,8.28,11.8,0,18.31-13.17,18.31-35.72,0-1.66,1.36-2.87,2.87-2.87,1.67,0,2.88,1.21,2.88,2.87,0,7.27-.91,14.99-2.72,21.34,1.51,6.36,8.78,14.38,19.68,14.38,9.23,0,15.29-6.05,15.44-17.41,0-7.41-.75-16.5-10.44-28.45-1.36,1.66-2.88,3.18-4.39,4.54-1.36,1.36-3.48,1.21-4.54-.3-.76-1.21-.61-2.72.45-3.63,10.9-9.99,17.41-25.12,17.41-38.14,0-11.81-6.06-16.8-15.59-16.8-15.89,0-24.67,22.4-23.01,39.81.15,1.67-1.21,3.03-2.87,3.03-1.52,0-2.72-1.21-2.88-2.72-.75-7.87,1.06-19.22,5.45-28.46-.3-7.42-7.27-11.65-14.53-11.65-17.71,0-21.8,20.13-21.8,45.86,0,1.08,0,2.14,0,3.18.59-.06,1.19-.09,1.81-.09ZM295.97,716.9c.04-.11,3.54-11.62,15.4-10.92,6.49.38,10.03,5.35,9.98,14-.04,5.99-2.36,15.27-5.15,15.4h-.08c-1.63,0-1.85-2.29-1.93-3.05h0c-.89-9.09-2.66-14.33-5.42-16.03-2.63-1.62-6.4-.15-10.77,1.54l-2.59,1,.56-1.94ZM255.51,727.22c.42-2.07,4.38-20.28,13.05-21.19,8.11-.85,13.18,4.73,14.89,8.17.4.8.15,1.28-.12,1.54-.63.59-1.3.19-2.23-.36-1.85-1.1-6.18-3.67-11.12-2.1-4.74,1.51-8.97,6.4-12.58,14.54l-3.72,8.38,1.83-8.99Z"/>
      <path class="cls-3" d="M291.64,707.12c.31-.43.63-.85.96-1.26-.07-.08-.14-.17-.21-.25-1.51-1.77-3.38-3.27-5.47-4.46,1.99,1.64,3.64,3.64,4.72,5.97Z"/>
      <path class="cls-3" d="M246.25,792.88c-3.84,9.81-10.33,15.05-21.05,15.05-6.35,0-10.59-1.96-13.52-4.74,3.6,5.2,8.94,7.73,16.28,7.73,4.94,0,9-1.06,12.4-3.24,3.42-2.19,6.1-5.45,8.2-9.97l.73-1.56,1.65.48c.6.17,1.15.31,1.67.41-.49-.88-.94-1.81-1.37-2.79-1.8-.19-3.47-.66-4.99-1.38Z"/>
      <path class="cls-3" d="M325.6,755.21l-.88-1.12.77-1.2c5.16-7.97,8.62-17.09,9.73-25.68.26-2.04.4-4.03.4-5.94,0-4.54-.83-8.55-2.48-11.92-1.76-3.62-4.46-6.45-7.86-8.34,1.89,1.61,3.47,3.64,4.65,6.06,1.56,3.2,2.43,7.1,2.43,11.7,0,1.92-.13,3.88-.39,5.87-1.18,9.03-4.95,18.66-10.66,26.97,2.87,3.47,5.09,6.77,6.81,9.89,5.24,9.51,5.75,17.33,5.75,23.26-.04,3.44-.61,6.58-1.64,9.36-3.18,8.61-10.63,13.8-19.55,13.8-8.15,0-14.78-3.85-19.19-8.59l1.22,1.49c2.49,3.03,9.52,10.09,20.73,10.09,9.13,0,16.81-5.41,20.03-14.12,1.07-2.92,1.63-6.14,1.66-9.55,0-6.38-.69-14.17-5.81-23.48-1.58-2.85-3.5-5.73-5.73-8.55Z"/>
      <path class="cls-3" d="M357.53,736.99c0-7.97-4.05-15.8-11.51-20.2-1.37-.81-2.18-2.27-2.18-3.81,0-.36.04-.73.14-1.1,3.48-13.53-5.57-27.07-19.39-29.03h0c-.97-.14-1.84-.59-2.5-1.25-.66-.66-1.11-1.53-1.25-2.5-1.68-11.81-11.81-20.15-23.17-20.15-1.93,0-3.9.24-5.86.75-.36.09-.73.14-1.1.14-1.54,0-3-.8-3.81-2.18-7.1-12.02-23.08-15.2-34.24-6.81-.79.59-1.72.89-2.65.89s-1.87-.29-2.65-.89c-4.24-3.18-9.17-4.7-14.04-4.7-7.97,0-15.8,4.05-20.2,11.51-.81,1.37-2.27,2.18-3.81,2.18-.36,0-.73-.04-1.1-.14-1.97-.5-3.93-.75-5.86-.75-11.35,0-21.49,8.33-23.17,20.15-.14.97-.59,1.84-1.25,2.5-.66.66-1.53,1.11-2.5,1.25-11.81,1.68-20.15,11.81-20.15,23.17,0,1.93.24,3.9.75,5.86.09.36.14.73.14,1.1,0,1.54-.8,3-2.18,3.81-7.46,4.41-11.51,12.23-11.51,20.2,0,4.87,1.52,9.81,4.7,14.04.59.79.89,1.72.89,2.65s-.29,1.87-.89,2.65c-3.18,4.24-4.7,9.17-4.7,14.04,0,7.97,4.05,15.8,11.51,20.2,1.37.81,2.18,2.27,2.18,3.81,0,.36-.04.73-.14,1.1-.5,1.97-.75,3.93-.75,5.86,0,11.35,8.33,21.49,20.15,23.17,1.95.27,3.48,1.81,3.75,3.75h0c1.68,11.81,11.81,20.15,23.17,20.15,1.93,0,3.9-.24,5.86-.75.36-.09.73-.14,1.1-.14,1.54,0,3,.8,3.81,2.18,4.41,7.46,12.23,11.51,20.2,11.51,4.87,0,9.81-1.52,14.04-4.7.79-.59,1.72-.89,2.65-.89s1.87.29,2.65.89c4.24,3.18,9.17,4.7,14.04,4.7,7.97,0,15.79-4.05,20.2-11.51.81-1.37,2.27-2.18,3.81-2.18.36,0,.73.04,1.1.14,13.53,3.48,27.07-5.57,29.03-19.39h0c.27-1.95,1.81-3.48,3.75-3.76h0c11.81-1.68,20.14-11.81,20.14-23.17,0-1.93-.24-3.9-.75-5.86-.09-.36-.14-.73-.14-1.1,0-1.54.8-3,2.18-3.81,7.46-4.41,11.51-12.23,11.51-20.2,0-4.87-1.52-9.81-4.7-14.04-.59-.79-.89-1.72-.89-2.65s.29-1.87.89-2.65c3.18-4.24,4.7-9.17,4.7-14.04ZM337.35,797.49c-3.51,9.52-11.9,15.43-21.9,15.43s-17.59-5.13-22.28-10.82c-4.48,7.1-10.9,10.82-18.74,10.82-10.4,0-17.65-4.55-22.14-13.9-.65-.12-1.29-.28-1.92-.46-4.5,9.66-11.85,14.37-22.42,14.37-8.29,0-14.32-3.01-18.32-9.17-5.02,6.02-11.85,9.17-19.98,9.17-11.58,0-19.29-5.68-23.59-17.38-1.9-5.16-3.19-11.53-3.99-19.9,0-.03,0-.07,0-.11-.91-7.92-1.22-17.19-1.22-27.68,0-26.49,4.84-51.62,26.04-51.62.46,0,.92,0,1.36.03.46-.02.93-.03,1.4-.03,8.13,0,14.44,2.98,18.83,8.87,4.25-5.43,9.94-8.87,16.7-8.87.47,0,.93,0,1.39.04.45-.03.91-.04,1.38-.04,10.4,0,18.08,5.43,22.82,16.13.11-.28.23-.56.36-.84,4.08-9.26,10.92-15.29,22.04-15.29.4,0,.8,0,1.2.04.51-.03,1.03-.04,1.56-.04,6.97,0,13.76,3.17,17.97,8.09,4.45-4.93,10.18-8.09,17.11-8.09.46,0,.92,0,1.38.03.46-.02.92-.03,1.39-.03,9.66,0,17.37,4.47,21.16,12.26,1.78,3.65,2.68,7.96,2.68,12.79,0,1.99-.14,4.08-.41,6.2-1.16,8.94-4.71,18.28-10.04,26.51,2.3,2.92,4.29,5.89,5.91,8.83,5.34,9.7,6.06,17.81,6.06,24.46-.04,3.66-.64,7.09-1.79,10.22Z"/>
      <path class="cls-3" d="M369.31,729.95c-1.59-8.01-6-15.37-12.27-20.6.73-8.13-1.35-16.45-5.89-23.25-4.54-6.8-11.43-11.9-19.22-14.34-4.62-14.82-18.56-25.28-34.26-25.28-1.11,0-2.22.05-3.34.16-6.8-8.16-16.91-12.95-27.63-12.95-5.85,0-11.57,1.42-16.7,4.13-5.13-2.71-10.84-4.13-16.7-4.13-10.72,0-20.83,4.79-27.63,12.95-1.11-.1-2.23-.16-3.34-.16-15.69,0-29.63,10.46-34.26,25.28-7.79,2.43-14.68,7.54-19.22,14.34-4.54,6.8-6.63,15.12-5.89,23.25-6.26,5.23-10.67,12.59-12.27,20.6-1.59,8.02-.34,16.51,3.45,23.73-3.78,7.23-5.04,15.71-3.45,23.73,1.59,8.01,6,15.37,12.27,20.6-.73,8.13,1.35,16.45,5.89,23.25,4.54,6.8,11.43,11.9,19.22,14.34,4.62,14.82,18.56,25.28,34.26,25.28,1.11,0,2.23-.05,3.34-.16,3.01,3.6,6.75,6.62,10.95,8.83,5.15,2.7,10.92,4.13,16.68,4.13s11.57-1.42,16.7-4.13c5.13,2.71,10.84,4.13,16.7,4.13,10.72,0,20.83-4.79,27.63-12.95,1.11.1,2.23.16,3.34.16,15.69,0,29.63-10.46,34.26-25.28,7.79-2.43,14.68-7.54,19.22-14.34,4.54-6.8,6.63-15.12,5.89-23.25,6.26-5.23,10.67-12.59,12.27-20.6,1.59-8.02.34-16.51-3.45-23.73,3.78-7.23,5.04-15.71,3.45-23.73ZM364.41,776.45c-1.56,7.85-6.15,14.82-12.7,19.37,1.42,7.84-.26,16.02-4.71,22.68-4.45,6.66-11.36,11.34-19.15,13.03-3.05,14.01-15.73,24.37-30.18,24.37-1.85,0-3.71-.17-5.54-.5-5.73,8.25-15.32,13.3-25.43,13.3-5.97,0-11.71-1.7-16.7-4.92-4.99,3.22-10.73,4.92-16.7,4.92-5.05,0-9.98-1.26-14.36-3.56-4.38-2.29-8.21-5.62-11.07-9.74-1.83.33-3.69.5-5.54.5-14.45,0-27.13-10.36-30.18-24.37-7.79-1.69-14.7-6.37-19.15-13.03-4.45-6.66-6.13-14.84-4.71-22.68-6.55-4.55-11.14-11.52-12.7-19.37-1.56-7.86,0-16.05,4.32-22.76-4.31-6.71-5.88-14.9-4.32-22.76,1.56-7.85,6.15-14.82,12.7-19.37-1.42-7.84.26-16.02,4.71-22.68s11.36-11.34,19.15-13.03c3.05-14.01,15.73-24.37,30.18-24.37,1.85,0,3.71.17,5.54.5,5.74-8.25,15.32-13.3,25.43-13.3,5.97,0,11.71,1.7,16.7,4.92,4.99-3.22,10.73-4.92,16.7-4.92,10.11,0,19.7,5.05,25.43,13.3,1.83-.33,3.69-.5,5.54-.5,14.45,0,27.13,10.36,30.18,24.37,7.79,1.69,14.7,6.37,19.15,13.03s6.13,14.84,4.71,22.68c6.55,4.55,11.14,11.52,12.7,19.37,1.56,7.86,0,16.05-4.32,22.76,4.31,6.71,5.88,14.9,4.32,22.76Z"/>
      <path class="cls-3" d="M271.67,807.93c-6.5,0-11.43-1.92-15.15-5.62,4.13,5.86,9.92,8.62,17.92,8.62,7.17,0,12.91-3.33,17.05-9.89l1.45-2.3c-1.09-1.24-2.03-2.53-2.81-3.82-3.94,8.33-10.14,13.02-18.46,13.02Z"/>
      <path class="cls-3" d="M257.52,788.63c.11-.04.23-.09.34-.14.08-.02.15-.06.23-.09.07-.03.15-.06.23-.11.13-.05.26-.12.38-.19.03,0,.07-.02.09-.04.13-.07.26-.14.39-.22.06-.03.13-.07.19-.11.09-.05.19-.11.28-.18.14-.08.27-.18.4-.28.11-.08.21-.16.32-.24.3-.23.58-.48.85-.76.08-.07.15-.15.22-.23.08-.08.16-.16.23-.25.18-.2.36-.41.52-.63.1-.12.19-.24.28-.37.03-.03.05-.06.07-.1.11-.16.22-.32.32-.49.01-.01.02-.02.02-.04.1-.16.2-.32.3-.49.03-.05.06-.1.08-.15.09-.16.18-.32.26-.49.02-.03.04-.07.05-.11.09-.16.16-.33.24-.51.22-.48.42-1,.59-1.53.07-.22.15-.45.21-.69.05-.16.09-.32.13-.49.06-.2.1-.4.15-.6.04-.17.08-.35.12-.53.05-.23.09-.46.13-.7.03-.19.07-.38.09-.58.01-.08.03-.16.03-.24.03-.2.06-.41.08-.62.01-.09.02-.18.03-.27.02-.16.04-.33.05-.5.02-.16.03-.32.04-.49.02-.16.03-.32.03-.48.02-.28.03-.57.04-.86,0-.34.01-.68.01-1.03,0-11.2-5.14-16.8-12.41-16.8-.27,0-.53,0-.79.02-.18,0-.36.02-.53.04,0,0-.02,0-.02,0-.13,0-.27.03-.4.05h0s-.09,0-.13.02h0c-.13.02-.27.04-.4.07-.03,0-.07,0-.1.02-.13.02-.25.05-.37.08,0,0-.01,0-.02,0-.15.03-.3.07-.45.12-.08.02-.15.04-.22.06-.02,0-.05.01-.07.02-.15.04-.29.09-.44.15-.24.09-.48.18-.71.29-.37.17-.72.36-1.06.57-.18.11-.36.22-.53.35-.15.1-.3.21-.44.33-.15.11-.29.23-.43.36-.09.08-.18.16-.27.24t0,0c-.07.06-.14.13-.21.21-.02.01-.04.03-.05.04h0c-.06.06-.12.12-.17.19-.22.23-.43.47-.63.72-.07.09-.14.18-.2.27-.11.15-.22.3-.33.45-.11.16-.22.33-.33.51l-.03.04c-.1.17-.21.36-.31.54,0,0,0,.01-.01.02-.11.2-.21.4-.31.61-.08.15-.14.3-.21.46-.04.07-.07.15-.1.23-.09.21-.18.43-.26.64-.06.15-.12.31-.17.48-.01.04-.03.07-.04.11-.04.1-.07.2-.1.31-.03.08-.06.15-.08.23-.06.2-.12.4-.18.61-.03.09-.05.19-.07.28-.06.22-.12.45-.16.68-.01.04-.03.09-.03.14-.07.3-.13.6-.18.91,0,.05-.02.1-.02.15-.05.28-.1.56-.13.85,0,.01,0,.03,0,.04-.04.28-.08.57-.1.87-.01.08-.02.16-.02.24-.03.24-.05.49-.07.74,0,.11-.01.22-.02.33-.03.3-.04.61-.05.92-.01.36-.02.73-.02,1.1,0,.26,0,.52,0,.78,0,.19,0,.38.02.57,0,.33.03.66.05.98,0,.21.03.42.05.63s.04.41.06.62c.03.28.07.56.11.84.07.48.15.96.25,1.42.03.15.06.3.1.44.02.11.04.21.07.31.04.16.08.32.12.48,0,.01,0,.02,0,.03.05.19.1.38.16.57.19.62.4,1.22.65,1.78.07.16.14.33.21.48.02.04.03.08.05.11.08.16.16.32.24.48.13.26.28.52.42.76,0,0,0,.02.02.02.06.09.11.19.17.28.09.15.19.3.29.44.08.11.16.23.25.34.08.11.17.23.26.33.09.11.18.22.27.32.08.09.16.18.24.27.01.02.03.04.05.05.09.09.18.19.27.28.51.51,1.07.96,1.67,1.33.08.06.17.11.27.17.11.07.23.14.35.2.1.06.21.11.31.16.27.14.56.27.85.38.1.04.2.07.3.11.3.11.61.2.93.28.11.03.22.05.33.08.17.04.34.07.51.1.19.03.38.06.57.08,0,0,.03,0,.04,0,.08,0,.16.02.24.02.14.01.29.02.44.03.05,0,.1,0,.15,0,.22.01.44.02.67.02.19,0,.38,0,.57-.01.11,0,.21,0,.32-.01.16,0,.32-.02.48-.04.18-.01.36-.04.54-.06.04,0,.09-.01.13-.02.04,0,.09-.01.13-.02.34-.05.67-.12,1-.21.13-.03.27-.07.4-.11.25-.06.49-.15.73-.24ZM251.58,761.68c-.15.13-.3.28-.45.43-.62.62-1.22,1.39-1.76,2.34-.11.19-.21.38-.31.59-.1.2-.2.41-.29.64-.1.22-.18.44-.27.68-.09.23-.17.48-.25.73-.08.25-.15.51-.22.78-.07.27-.13.54-.19.83-.11.53-.21,1.1-.28,1.7,0,.08-.02.16-.03.25,0,.08-.02.16-.02.25-.02.15-.04.31-.05.47-.01.18-.03.37-.04.56-.01.19-.02.38-.03.57-.02.45-.03.92-.02,1.4,0,.52-.23.91-.57,1.15-.65.47-1.69.4-2.24-.26-.13-.16-.24-.36-.3-.6-.63-2.43-.76-5.54.52-9.17.17-.5.36-.96.57-1.39h0c.17-.37.36-.71.55-1.02h0c1.5-2.48,3.5-3.47,5.35-3.77.08-.01.17-.03.26-.04.17-.02.35-.04.52-.05.1,0,.21-.01.31-.01.09,0,.18,0,.27,0,.15,0,.29,0,.44.01.05,0,.09,0,.14,0,.07,0,.14,0,.21.01.17,0,.34.03.51.05.13.01.26.03.39.06.25.04.49.09.71.14.11.02.21.05.31.08.05.01.1.02.14.04.04.01.09.02.13.04.15.04.29.09.41.13.29.1.46.17.46.17,0,0-2.51.09-4.9,2.19Z"/>
    </g>
  </g>
</svg>