<?xml version="1.0" encoding="UTF-8"?>
<svg id="LOGO_VARIATION" data-name="LOGO VARIATION" xmlns="http://www.w3.org/2000/svg" viewBox="0 0 1000 1000">
  <defs>
    <style>
      .cls-1 {
        fill: #040305;
      }

      .cls-2 {
        fill: #fdfefe;
      }

      .cls-3 {
        fill: #231f20;
      }

      .cls-4 {
        fill: #fff;
      }

      .cls-5 {
        stroke-width: 5px;
      }

      .cls-5, .cls-6 {
        fill: none;
        stroke: #000;
        stroke-linecap: round;
        stroke-linejoin: round;
      }

      .cls-7 {
        fill: #fee984;
      }

      .cls-8 {
        fill: #4bb8e9;
      }

      .cls-9 {
        fill: #f0b952;
      }

      .cls-10 {
        fill: #fdfdfd;
      }

      .cls-11 {
        fill: #e67d79;
      }

      .cls-12 {
        fill: #3f444c;
      }

      .cls-13 {
        fill: #00abe6;
      }

      .cls-6 {
        stroke-width: 2px;
      }

      .cls-14 {
        fill: #80aada;
      }

      .cls-15 {
        fill: #a1b6c5;
      }

      .cls-16 {
        fill: #fffefe;
      }

      .cls-17 {
        fill: #fed800;
      }
    </style>
  </defs>
  <g>
    <g>
      <path class="cls-13" d="M284.35,510.5l-1.17-3.35c-8.58-24.48-12.93-50.17-12.93-76.36,0-61.67,24.02-119.65,67.62-163.25,43.61-43.6,101.58-67.62,163.25-67.62s119.65,24.01,163.25,67.62c43.6,43.6,63.43,84.44,65.15,145.63.74,26.18-21.37,10.62-21.37,10.62l-4.14,86.42-419.66.29Z"/>
      <path class="cls-8" d="M722.5,425.87c0,26.18-4.45,51.32-12.65,74.71h-426.44c-8.2-23.39-12.65-48.53-12.65-74.71,0-124.75,101.13-225.87,225.87-225.87s225.87,101.12,225.87,225.87Z"/>
      <path class="cls-17" d="M698.5,449.87c0,17.51-2.23,34.51-6.43,50.71h-390.88c-4.2-16.2-6.43-33.2-6.43-50.71,0-111.49,90.38-201.87,201.87-201.87s201.87,90.38,201.87,201.87Z"/>
    </g>
    <g>
      <path class="cls-14" d="M714.91,480.4c3.7,36.31-44.02,84.48-68.18,100.03-5.34,3.44-19.31,12.38-23.95,15.67-1.22.87.02.14,1.31.6-.42-1.85,6.53-4.85,7.07-4.24,5.78-3.54,18.02-14.43,18.04-10.49.01,1.85,3.59,14.89,3.42,15.68-.35,1.54-.47,9.46-.35,10.96,1.24.29,1.22,15.26,1.89,16.35.91,1.47-17.17,46.04-18.04,46.87-4.15-.15-9.87.9-13.7,2.47-3.02,1.23-12.23,7.88-12.98,8.02-.79.16-6.18-2.83-8.05-3.37-21.32-6.16-43.54,8.57-61.48,18.3l1.96,1.23c9.32-4.59,18.21-9.98,27.98-13.7,3.66-1.4,12.95-5.03,16.35-4.69,1.1.11,2.28.55,1.18,1.58-.25.23-5.23.94-6.65,1.53-14.57,6.14-27.23,18.83-40.59,27.13-20.2,12.55-49.23,20.21-73.07,17.32-1.8-.21-4.97-3.02-4.79-4.98.12-1.36,1.41-2.88,1.4-3.98,0-.83-1.96.12-1.61-1.2,18.89,2.24,40.18-.63,57.8-7.98,1.98-.83,4.85-1.79,6.02-3.7-5.61.03-10.83,3.06-16.18,4.44-15.95,4.1-31.82,5.65-48.32,4.79-8.07-29.17-4.88-103.47,1.21-132.82.75-3.6,2.87-7.63,3.29-10.71.63-4.61-.14-10.65,1.01-15.34.62-2.52,4.23-6.19,5.43-9.36.97-2.56.98-5.9,2.16-7.96,7.21-12.62,54.19-24.66,68.65-30.19,37.38-14.31,41.34-28.69,65.28-56.15,11.44-13.12,23.43-17.77,35.7-28.12,1.5-1.26,7.95-6.65,6.29-8.87l-4.66,3.11v-10.89c10.5-4.6,20.21-7.81,28.25,8.35-12.82,1.77-29.66,20.8-37.57,30.2-5.47,6.49-3.88,16.55-9.99,22.52-17.54,17.18-23.82,37.55-43.52,52.02-14.54,10.69-37.1,12.86-54.55,16.65-6.69,1.45-32.77,4.61-35.35,9.29-.83,1.5,2.13-1.1,2.83-1.3,19.81-5.6,37.82-4.1,58.06-10.48,15.23-4.8,29.66-12.19,40.09-24.51,11.45-13.52,16.17-32.6,29.95-44.37.73,2.44-3.92,4.45-.2,4,2.41-4.96,4.28-5.91,7.35-10.48,3.95-5.9,25.58-31.56,31.03-33.56,1.22-.46,3.35-.9,4.47-.25.75.43,7.56,12.31,9.18,14.54,9.36,12.81,21.79,25.53,35.11,34.16,3.78,2.45,3.45.2,4.03,5.89Z"/>
      <path class="cls-14" d="M382.19,579.74c-3.09-.12-8.09,8.17-10.4,10.52-3,3.06-7.17,6.5-11.02,9.25-.94.67-1.87,1.3-2.75,1.88-.09.06-.2.13-.33.2-1.69,1-6.33,3.27-9.09,4.78-1.17.65-2,1.15-2.13,1.37-.73,1.19-.46,2.72-.11,4.25.27,1.24.6,2.48.51,3.55,2.7-1.24,5.34-2.61,7.92-4.09,0,0-.01,0,0,0,1.75-.99,3.48-2.05,5.17-3.16,3.45-2.25,6.77-4.7,9.95-7.33,3.73-8.92,8.84-15.84,15.73-20.14-1.35-.38-2.91-1.05-3.45-1.07ZM448.12,575.42c-1.56-.42-2.67-1.04-3.42-1.83-4.64-4.81,4.06-15.6,4.91-20.83.03-.16.05-.33.07-.52.07-.87.05-1.99.01-3.22-.09-2.43-.29-5.27-.05-7.44.03-.29.07-.57.1-.84.37-2.91.57-4.49-3.84-7.53-12.6-8.7-41.3-13.04-56.63-18.06-4.14-1.36-8.3-2.91-12.34-4.72-6.02-2.68-11.8-5.91-16.93-9.85-7.97-6.1-14.39-13.89-17.79-23.98,2.37-.69,4.15,4.58,5.3,6.37.23.35,1.1,2.47,1.69,1.43,0,0,.01-.01.01-.02-1.14-2.51-2.17-6.01-3.07-9.74-.38-1.56-.74-3.17-1.06-4.76-1.6-7.75-2.58-15.18-2.63-15.94-.21-2.84.15-7.57-.08-11.8-.12-2.02-.37-3.93-.89-5.47-.28-.34-1.25-.15-2.54.34-.91-.73-1.78-1.54-2.65-2.39-3.15-3.05-6.14-6.51-9.73-8.2-2.2-1.05-4.62-1.43-7.45-.66-.33.09-.66.19-.99.31-6.69,2.38-15.29,9.34-23.26,17.69-.19.2-.38.41-.58.61-7.93,8.43-15.16,18.18-19.12,26.08-.32.64-.62,1.27-.9,1.89-.07.15-.13.3-.2.45-.46,1.05-.85,2.05-1.16,3.01-4.01,12.24,1.71,22.65,7.68,32.85.33.57.67,1.14,1.01,1.72.74,1.23,1.51,2.5,2.31,3.8,2.41,3.88,5.1,8,7.97,12.2.65.94,1.3,1.89,1.96,2.83.39.56.78,1.12,1.18,1.67,8.65,12.24,18.59,24.67,27.53,33.41.09.09.18.17.27.26l.09.09c.38.36.75.72,1.12,1.07,2.52,2.38,20.75,14.03,22.47,14.04.94,0,1.36-.6,1.99-1.12.32-.27,1.02-1.09,1.92-2.23.89-1.11,1.97-2.52,3.1-4.02,3.03-4.04,6.37-8.73,6.92-9.83,2.16-4.34,1.52-8.58,2.69-12.92.36-1.34-.56-2.15,1.66-1.8v12.84c0,1.78-4.06,7.47-8.31,13.8-1.09,1.63-2.2,3.3-3.25,4.96-2.67,4.19-4.99,8.3-5.92,11.44-.12.4-.22.78-.29,1.15-.28,1.47.76,2.77.27,4.04-.69,1.8-5.99,7.08-7.58,9.58-3.14,4.92-4.87,10.37-4.79,15.93.03,3.06.63,6.15,1.82,9.21,3.3-.6,6.24-2.45,9.48-2.89,1.45-.19,2.95-.1,4.57.5-1.52.51-4.1.48-6.86.97-4.63.81-9.75,3.06-11.13,11.74-1.16,7.29.31,19.09,6.92,38.36l3.07,1.4c1.98-.92,3.95-1.59,5.9-2.04.21-.05.43-.1.64-.15,3.65-.76,7.24-.78,10.77-.22.26.03.51.08.77.12,16.36,2.95,31.36,17.9,44.6,26.63,9.67,6.38,20.73,12.75,32.06,16.21,1.95.59,3.91,1.1,5.87,1.51l-2.29-9.72c-1.03-.32-2.05-.66-3.06-1.02-17.65-6.16-32.36-17.21-47.64-27.72l-15.5-8.23c14.51,2.22,26.17,13.77,38.52,21.01,7.84,4.61,16.3,8.42,24.7,11.88.46.2.91.38,1.37.57-.42-1.92-.79-4.01-1.1-6.25-1.98-14.03-1.96-33.93-.54-54.33v-.04c1.06-15.29,2.89-30.86,5.24-44.44-.01-.01,0-.01,0-.01,1.6-9.19,3.42-17.47,5.4-24.13.28-.93.56-1.82.83-2.68.12-.34.23-.67.34-1h0c.12-.35.23-.68.35-1.01-.69-.09-1.31-.22-1.88-.37ZM412.43,586.17l-11.07-4.87c1.59-.12,3.14-.05,4.71.33,4.5,1.09,14.74,4.24,19.01,5.89,1.21.47,2.25.65,1.95,2.33l-14.6-3.68ZM433.13,545.46c-1.97-1.15-3.95-2.16-5.95-3.03,1.73.62,3.43,1.33,5.07,2.13,1.3.63,2.29-.62.88.9ZM372.57,531.07c3.24,1.16,6.6,2.06,10.03,2.81-11.62-1.73-22.92-4.88-33.35-13.79-3.3-2.82-6.34-6.07-9.05-9.63-1.93-2.53-3.69-5.23-5.26-8.04,2.02,2.81,4.24,5.49,6.63,8.04,8.6,9.16,19.4,16.46,31,20.61ZM358.7,612.45c-1.7,1.11-3.35,2.13-4.84,2.97-2.19,1.25-4.04,2.11-5.24,2.32-1.99.35-3.28-1.15-4.01-3.22-1.14-3.22-.92-7.82.13-8.91.49-.51,2.29-1.52,4.41-2.65,3.04-1.63,6.75-3.51,8.25-4.53.63-.42,1.31-.9,2.01-1.4.36-.26.73-.52,1.1-.79,2.18-1.6,4.48-3.37,6.18-4.86,2.86-2.48,10.98-12.71,12.89-13.59,1.53-.71,7.2.46,7.69,1.24.15.23.28.45.37.63.84,1.68-.44,1.6-2,1.15-1.35-.38-2.91-1.05-3.45-1.07-3.09-.12-8.09,8.17-10.4,10.52-3,3.06-7.17,6.5-11.02,9.25-.94.67-1.87,1.3-2.75,1.88-.09.06-.2.13-.33.2-1.69,1-6.33,3.27-9.09,4.78-1.17.65-2,1.15-2.13,1.37-.73,1.19-.46,2.72-.11,4.25.27,1.24.6,2.48.51,3.55,2.7-1.24,5.34-2.61,7.92-4.09,0,0-.01,0,0,0,1.75-.99,3.48-2.05,5.17-3.16,3.45-2.25,6.77-4.7,9.95-7.33,4.7-3.87,9.1-8.12,13.16-12.65.65-.72,4.76-7.49,5.06-5.06.49,3.97-10.04,14.25-13.23,17.13-1.33,1.21-3.84,3.22-6.82,5.46-2.89,2.17-6.23,4.55-9.38,6.62Z"/>
      <path class="cls-10" d="M463.61,574.12l1.17-31.64-10-.76-12.63,26s.22,5.3,2.01,5.76c1.79.46,16.8,2.42,17.12,2.07s2.33-1.43,2.33-1.43Z"/>
      <path class="cls-2" d="M463.01,576.61s-14.97,104.6-2.61,137.33v5.13l-18.01-3.17s-6.83-38.85-3.79-88.23c.86-14.03,5.53-42.33,10.01-53.55l14.4,2.49Z"/>
      <path class="cls-14" d="M467.5,552.76l-2.2-9.62c-.63-3.14-9.97-2.51-11.09-1.64-.42.33-2.63,7.32-4.22,8.36-1.93-5.04-1.15-10.08,2.78-12.99,3-2.23,14.73-2.57,17.08-.07,2.68,2.86-1.16,12.49-2.35,15.96Z"/>
      <path class="cls-14" d="M320.15,424.05c.32.01-3.71-6.34-9.27-4.98s-23.88,12.17-24.79,13.91-20.9,29.45-20.39,33.07,2.43,9,2.43,9h3.43l7.01-14.3s32.13-37.02,41.58-36.7Z"/>
      <path class="cls-14" d="M718.74,457.71l-40.79-42.28-9.81,6.26s1.15,8.1,6.06,12.62c4.9,4.51,35.5,43.35,41.76,41.05,6.26-2.3,3.81-16.59,2.79-17.65Z"/>
      <path class="cls-14" d="M602.93,569.61l-9.94-13.01-2.51-1.76c-.7.7,8.88,15.54,12.45,14.78ZM600.47,557.32l-2.2.23c.65,1.41,8.49,12.87,10.11,11.29l-7.91-11.51ZM528.21,585.18l-37.35,8.55c7.63.46,15-.47,22.43-2.07,2.02-.44,13.6-3.47,14.47-4.07.73-.51.6-2.23.45-2.4ZM595.65,614.33c-10.08-6.06-17.2-8.48-25.39-17.89-1.54-1.77-7.21-10.51-7.81-10.87-3.49-2.11-12.15,2.36-10.29,7.95,3.98,12,23.63,27.71,35.54,31.4,6.41,1.98,10.05,2.03,10.57-5.9.33-5.08-1.17-3.09-2.16-3.78-.23-.16-.25-.78-.47-.91Z"/>
      <path class="cls-10" d="M605.69,429.49c-.69-2.65-5.51-6.86-2.77-7.35,42.66-7.75,17.61-20.68,12.98-28.94-10.4-18.57-24.39-41.12-39.77-55.97-26.02-25.13-68.03-26.04-90.13,4.55-16.35,22.64-17.56,51.16-15.3,78.01.26,3.26.24,2.83.65,4.84.49,2.47.22,6.19,1.94,8.05.79.85,9.31,5.3,10.7,5.65,7.71,2,17.77-1.36,16.9,10.93-.47,6.88-6.31,22.99-9.37,29.58-8.09,17.4-27.48,41.38-45.03,18.78-7.55-9.75-5.68-30.55-12.7-38.1-3.42-3.7-15.27-3.66-10.39-10.6,3.46-4.94,24.39-19.35,25.2-23.56.91-26.79-3.18-80.8-35.9-87.88-31.55-6.84-64.23,34.89-66.5,60.96-1.17,13.44.98,28-.09,39.94-.38,4.29,5.89,6.5,5,10.57-3.24,14.69-.3,36.04,9.75,47.68,12.63,14.69,61.03,21.03,80.86,31.45,2.12,1.11,8.48,6.21,9.21,6.39,1.15.28,7.16-1.88,9.83-1.92,1.4,0,4.74.38,6.17.67,1.84.38,4.41,2.15,5.65,2.14.81-.02,10.48-8.22,12.89-9.65,25.3-15.12,56.84-16.78,81.59-33.61,16.86-11.47,25.88-26.99,39.02-41.91,1.78-3.06.65-16.74-.4-20.7ZM418.24,433.07s-.02.04-.02.06c-3.54,8.34-10.89,13.98-22.62,12.65-4.63-.51-8.48-2.37-11.53-5.08-6.92-4.67-11.49-12.83-11.49-22.12,0-14.51,11.15-26.25,24.89-26.25,2.21,0,4.37.3,6.41.89-15.32-12.81-32.76,2.57-35.11,19.67-1.29,9.37,1.42,15.54,3,24.42-1.15,1.3-4.45-4.23-4.82-4.92-9.17-17.44-.73-46.1,20.86-48.69,14.1-1.68,24.12,7.1,29.16,18.56,4.37,9.96,5,21.92,1.27,30.82ZM569.26,407.11c-.16,1.4-2.93,14.53-6.01,11.51-.44-.43,1.62-10.06,1.62-12.06-.08-22.77-22.85-42.66-44.68-29.83-1.7,1.01-3.95,2.77-5.36,4.49-.1.12-.2.24-.28.36.81-.55,1.66-1.07,2.53-1.54,3.85-2.08,8.24-3.24,12.87-3.24,15.76,0,28.53,13.46,28.53,30.09s-12.77,30.09-28.53,30.09c-1.46,0-2.91-.12-4.31-.36-13.94-.91-24.97-13.7-24.97-29.36,0-1.84.16-3.62.43-5.36.87-14.39,9.03-28.88,24.97-33.29,24.26-6.7,46,14.06,43.18,38.51Z"/>
      <path class="cls-9" d="M440.62,434.32c2.39-2.19,2.93-4.3,6.77-6.36,15.1-8.09,24.44,4.84,37.34,9.08,4.39,1.44,9.6.85,13.47,2.18,3.51,1.21-1.62,5.47-3.25,6.75-20.3,15.95-38.99-1.09-54.35,6.47-2.91,1.43-4.9,4.51-8.23,4.38-1.72-.07-8.78-4.72-8.29-6.82.79-3.38,13.41-12.83,16.54-15.68Z"/>
      <path class="cls-11" d="M488.25,457.86c-1.86,9.31-15.98,31.24-26.08,31.19-11.85-.05-6.46-13.3-1.92-19.12,6.66-8.53,17.08-13.43,28-12.08Z"/>
      <path class="cls-9" d="M435.54,458.73c.97.17,1.99-.92,2.85-.74,1.41.29,2.39,23.53,4.31,27.13,2.99,5.63,9.19,15.61,16.42,14.45,14.16-2.27,27.04-26.52,31.25-38.96,2.01-5.93,3.37-14.16,9.63-17.45-2.44,18.27-6.1,46.36-22.15,56.84-23.33,15.24-33.71-28.25-42.31-41.27Z"/>
      <path class="cls-10" d="M458.77,719.98c1.06,1.09.99,5.27,2.51,6.82-7.9-1.33-16.09-.11-17.12-10.11,2.45,1.2,13.63,2.29,14.61,3.29Z"/>
      <path class="cls-10" d="M444.94,712.02c.18.09.5,1.02,1.31,1.38,1.34.59,5.4.55,3.73,2.52-1.05-.28-6.23-1.39-6.51-1.68-.41-.41.04-1.64-.09-2.22.46.1,1.27-.15,1.56,0Z"/>
      <path class="cls-15" d="M443.38,599.19c.25-1.15.76-1.47.78-1.56l-.78,1.56Z"/>
      <path class="cls-15" d="M449.61,598.41l.78-.78c-.27.12-.52.69-.78.78Z"/>
      <path class="cls-12" d="M595.65,614.33c.22.13.24.75.47.91.99.69,2.49-1.3,2.16,3.78-.52,7.93-4.17,7.88-10.57,5.9-11.91-3.69-31.56-19.4-35.54-31.4-1.85-5.58,6.81-10.06,10.29-7.95.6.36,6.26,9.1,7.81,10.87,8.19,9.41,15.3,11.83,25.39,17.89ZM596.71,616.32c-14.93-3.21-29.62-15.68-35.82-29.58l-7.76,4.33c-.17.75,6.25,9.87,7.38,11.25,2.68,3.27,8.6,9.22,11.85,11.47,6.45,4.47,14.82,7.2,21.63,11.08l2.72-8.54Z"/>
      <path class="cls-12" d="M528.21,585.18c.15.17.28,1.89-.45,2.4-.86.61-12.45,3.64-14.47,4.07-7.43,1.61-14.81,2.54-22.43,2.07l37.35-8.55Z"/>
      <path class="cls-3" d="M418.24,433.07s-.02.04-.02.06c-3.54,8.34-10.89,13.98-22.62,12.65-.32-.04-.63-.08-.93-.14-4.19-.65-7.59-2.63-10.6-4.94-6.58-5.12-11.49-12.83-11.49-22.12,0-14.51,11.15-26.25,24.89-26.25,2.21,0,4.37.3,6.41.89-5.54-4.63-11.37-5.57-16.65-4.09-6.33,1.8-11.9,7.1-15.28,13.72-1.6,3.12-2.71,6.54-3.18,10.04-1.29,9.37,1.42,15.54,3,24.42-1.15,1.3-4.45-4.23-4.82-4.92-9.17-17.44-.73-46.1,20.86-48.69,14.1-1.68,24.12,7.1,29.16,18.56,4.37,9.96,5,21.92,1.27,30.82Z"/>
      <path class="cls-12" d="M387.27,579.03c2.67,4.15-3.85.76-5.08.71-3.09-.12-8.1,8.17-10.4,10.52-3.75,3.82-9.29,8.21-13.78,11.13-1.84,1.2-11.08,5.58-11.55,6.35-1.31,2.14.61,5.39.4,7.79,13.83-6.35,26.07-15.94,36.2-27.23.65-.73,4.76-7.49,5.06-5.06.49,3.97-10.04,14.25-13.23,17.13-4.37,3.95-21.22,16.49-26.28,17.37-5.09.89-5.61-10.35-3.89-12.13,1.21-1.25,10.12-5.45,12.66-7.18,2.84-1.93,6.73-4.82,9.3-7.05,2.86-2.49,10.98-12.71,12.88-13.59,1.54-.71,7.2.47,7.7,1.24Z"/>
      <path class="cls-12" d="M427.03,589.85l-14.61-3.68-11.07-4.87c1.6-.12,3.15-.04,4.71.33,4.5,1.08,14.74,4.24,19.01,5.89,1.21.47,2.25.65,1.95,2.32Z"/>
      <path class="cls-3" d="M449.39,563.56c1.59-.35,9.34.24,10.38.95,1.45.98,1.13,6.11-.82,7.05s-10.29.23-12.14-1.12c-2.02-1.48-.47-6.2,2.58-6.88ZM458.12,566.55c-.36-.4-10.55-2.51-9.28,1.88.37,1.27,9.01,1.52,9.34,1.17.11-.11.07-2.91-.06-3.06Z"/>
      <path class="cls-14" d="M596.71,616.32l-2.72,8.54c-6.81-3.88-15.18-6.61-21.63-11.08-3.24-2.25-9.17-8.2-11.85-11.47-1.13-1.38-7.54-10.49-7.38-11.25l7.76-4.33c6.2,13.9,20.89,26.38,35.82,29.58Z"/>
      <g>
        <path class="cls-14" d="M558.48,406.87c0,16.61-12.77,30.09-28.53,30.09-1.46,0-2.91-.12-4.31-.36.51.04,1.05.06,1.58.06,14.67,0,26.55-13.17,26.55-29.42s-11.88-29.44-26.55-29.44c-3.6,0-7.02.79-10.14,2.21,3.85-2.08,8.24-3.24,12.87-3.24,15.76,0,28.53,13.46,28.53,30.09Z"/>
        <path class="cls-3" d="M569.26,407.11c-.16,1.4-2.93,14.53-6.01,11.51-.44-.43,1.62-10.06,1.62-12.06-.08-22.77-22.85-42.66-44.68-29.83-1.7,1.01-3.95,2.77-5.36,4.49-7.06,4.13-12.24,11.68-13.72,20.68.87-14.39,9.03-28.88,24.97-33.29,24.26-6.7,46,14.06,43.18,38.51Z"/>
        <path class="cls-3" d="M553.78,407.25c0,16.25-11.88,29.42-26.55,29.42-.53,0-1.07-.02-1.58-.06-13.94-.91-24.97-13.7-24.97-29.36,0-1.84.16-3.62.43-5.36,1.48-9,6.66-16.55,13.72-20.68-.1.12-.2.24-.28.36.81-.55,1.66-1.07,2.53-1.54,3.12-1.42,6.54-2.21,10.14-2.21,14.67,0,26.55,13.17,26.55,29.44Z"/>
        <path class="cls-3" d="M517.09,380.03c-.87.47-1.72.99-2.53,1.54.08-.12.18-.24.28-.36.73-.43,1.48-.83,2.25-1.19Z"/>
      </g>
      <path class="cls-14" d="M394.67,445.64c-4.19-.65-7.59-2.63-10.6-4.94-6.58-5.12-11.49-12.83-11.49-22.12,0-14.51,11.15-26.25,24.89-26.25,2.21,0,4.37.3,6.41.89,0,0-22.85-.85-26.31,19.45-3.54,20.78,10.14,29.62,17.1,32.98Z"/>
      <g>
        <path d="M528.14,253.79c2.14,3.13,1.11,5.85-.75,8.74,14.54,1.95,28.99,5.95,42.31,12.14,24.55,11.41,39.32,22.77,54.82,45.09,9.97,14.36,21.29,31.5,23.49,49.43.51,4.19-.97,10.46-.55,12.5.3,1.46,2.92,3.83,3.75,6.27,1.29,3.74,1.3,8.44,2.12,12.36,5.04.16,10.63,1.97,14.84,4.64,2.82,1.79,2.96,4.96,7.3,4.27,5.3-.84,5.31-4.68,7.75-7.33,8.57-9.3,20.04-22.23,31.29-27.66,10.33-4.99,18.45-3.3,22.39,7.95,7.4,21.11,1.01,44.82-1.17,66.21,7.9,7.77,19.55,13.32,30.37,15.49,5.82,1.17,12.55.53,17.53,1.45,6.08,1.12-.19,8.04-1.19,10.79-2.47,6.79.02,11.35-.3,18.18-13.69,1.26-25.85-3.36-37.97-8.99,2.74,6.34,19.54,25.74,19.03,31.44-.07.83-.33,1.53-1.02,2.04-2.83,1.78-6.55,1.96-9.37,3.62-3.85,2.26-8.57,11.18-13.35,9.2-3.2-1.32-14.89-27.79-17.76-32.32-1.41.7-4.61,8.03-6.03,9.95-16.03,21.77-31.89,42.54-51.89,61-4.16,3.84-9.51,6.39-13.07,10.99,1.42,6.43,4.14,12.77,4.53,19.46.29,4.94-1.05,8.63-1.07,12.98-.02,4.07,1.86,8.21,1.09,12.49l-3.84-.15-1.15-7.84-2.33.16c-6.98,5.05-14.34,9.98-21.97,14-2.92,1.54-17.3,8.59-19.36,8.65-1.18.03-2.11-.65-2.29-1.82,7.92-4.3,16.46-7.71,24.28-12.2,3.73-2.14,17.78-10.61,19.7-13.27,4.66-6.46.89-21.17-1.04-28.49l-26.45,14c-.89,0-.66-2.01-.47-2.47.51-1.19,18.11-11.9,21.41-14.56,8.14-6.56,15.86-15.22,23.49-22.45-23.92-22.61-37.16-56.05-40.95-88.41-12.67,15.07-17.78,32.87-33.49,45.93-25.84,21.48-56.78,20.51-87.57,27.32-4.95,1.09-9.97,3.84-14.79,3.19,12.81-8.68,30.88-8.63,45.96-11.98,17.57-3.91,41-11.15,54.41-23.52,12.15-11.21,18.05-28.05,27.67-41.26,8.44-11.59,29.87-41.13,39.77-49.14,4.82-3.9,11.87-3.19,12.57-10.5-4.25-3.46-9.92-6.24-15.54-5.97l.11,6.94,2.91,1.57c-8.43,13.3-24.4,18.81-35.99,28.95-18.27,15.98-25.62,37.26-47.21,51.69-27.11,18.11-67.18,20.74-91.37,38.51-8.6,6.32-10.11,20.94-13.16,30.8l-3.62,3.38c-2.12.56-1.48-1.12-1.52-2.51-.14-5.01,2.08-11.04,1.03-16.46l-5.51,6.99c-3.23.8-4.23-8.12-6.46-5.99.17,4.8-11.39,19.88-6.34,23.06l7.32.93-4.53,4.96-6.54-5.4c-3.61-5.34,4.87-14.73,5.82-20.29.87-5.09-.5-10.98-.23-16.25-20.55-14.95-48.33-15.13-71.44-24.49-30.63-12.4-47.58-37.85-38.99-71.41-3.49,2.97-5.36,9.57-6.49,13.98-8.74,33.96,9.62,64.54,42.22,75.68,15.9,5.43,32.56,5.11,48.41,9.53,1.2.33,16.78,4.7,13.76,7.71-30.53-11.69-68.02-5.32-92.89-29.97-2.43,15.86-4.56,31.86-4.01,47.96h-2.99c.34-7.76-.49-15.73,0-23.47.41-6.47,4.67-22.38,3.98-26.9-.36-2.38-7.16-10.63-8.86-14.19-2.47-5.15-3.76-11-5.61-16.36-4.17,9.14-7.01,20.06-9.01,29.95-1.8,8.91-4.63,23.71-4.57,32.47.05,7.8,9.3,11.23,13.07,17.48-9.22,2.19-14.73-5.84-20.49-11.96-7.22-7.67-15.1-16.89-21.98-24.98-4.19-4.93-8.82-10.11-11.49-15.99-1.43-.32-1.62.14-2.44,1.03-2.35,2.55-7.65,16.13-10.16,16.88-3.29.99-6.39-5.94-9-7.79-3.38-2.4-8.4-2.93-12.27-4.21-1.61-2.33,9.76-18.26,11.72-21.6.8-1.35,5.74-9.73,5.18-10.29-9.67,4.34-18.7,11.46-29.97,10.99-.22-3.98.57-8.08-.47-12.02-.96-3.65-10.1-11.31-6.33-13.79.44-.29,6.13-.88,8.02-1.46,11.96-3.65,22.22-9.07,31.63-17.37-3.64-16.66-9.23-61.32,6.18-72.69,9.16-6.76,20.96.02,27.42,7.42,2.18,2.49,4.53,7.83,6.53,9.45,2.25,1.82,6.97,2.97,10.42,5.57,4.21,3.18,12.96,14.38,14.57,15.4,1.5.96,4.34,1.07,6.62,2.37,4.26,2.43,6.99,6.02,11.29,8.18-.98-11.55,1.35-25.22.04-36.5-.81-6.99-3.38-9.57-1.35-18.27.77-3.29,8.96-25.37,10.47-27.49,1.85-2.6,4.11-3.27,5.69-5.3,1.98-2.55,3.36-7.59,5.33-10.65,24.32-37.94,55.81-56.1,99.52-65.32,10.57-2.23,21.32-3.83,32.15-3.32,1.3-1.14-7.98-7.75-1.29-9.78,7.89-2.39,12.78,4.5,18.77,7.82,5.88-4.18,11.78-8.54,19.24-4.8ZM580.32,286.54c-43.03-23.76-97.75-25.94-143.84-9.99l64.42,23.5,37.27-8.23,42.16-5.27ZM519.39,309.51l-90.45-31.04c-14.15,3.27-26.72,13.1-37.41,22.55-.45,2.29,1,1.24,2.35,1.61,14.68,3.97,29.12,8.02,43.21,13.83,26.03-5.32,52.41-4.94,78.82-5.96,1.21-.05,3.72.75,3.48-.99ZM623.28,329.48c2.66-3.3-28.22-37.31-34.67-38.75-2.56-.57-6.07-.28-8.77-.2-6.85.21-15.87,1.32-22.86,2.11-16.68,1.87-33.17,5.52-49.57,8.88l28.91,10.53c29.59,2.05,58.9,7.95,86.96,17.43ZM429.48,316.5l-41.24-11.85c-10.27,9.24-20.51,19.83-25.69,32.82l66.93-20.96ZM642.27,377.43c.3-11.83-6.1-38.41-17.42-44.01-6.38-3.15-20.32-6.44-27.7-8.27-66.56-16.49-146.02-14.5-211.16,7.28-8.19,2.74-29.81,9.99-33.63,17.32-2.02,3.87-9.71,27.27-9.78,31.18-.02,1.08.51,6.13,2.46,5.48,65.82-32.91,139.34-38.2,211.69-28.82,29.08,3.77,57.82,10.54,85.55,19.83ZM603.15,370.6c-41.56-8.83-83.96-13.77-126.61-12.04-2.09,8.2-4.57,16.84-5.14,25.33s-.79,37.38,2.8,44.23c3.49,6.66,17.58,6.94,23.49,8.48,11.15,2.91-.54,26.53.73,27.74,40.17-5.88,77.01-25.99,108.38-50.96,1.19-14.39,1.33-29.11-3.65-42.79ZM435.44,362.45c-28.86,5.41-57.1,13.86-83.72,26.13-2.14,17.71,3.98,35.31-.04,52.66,26.09,11.65,53.05,22.21,81.79,25.1.52-7.47-12.13-10.42-12.08-15.48.07-6.93,20.44-17.65,23.05-25,.93-21.53-1.83-43.14-9-63.42ZM733.17,395.42c.79-13.71-6.27-25.82-19.95-14.49,5.53,6.28,12.22,11.29,19.95,14.49ZM257.66,410.4c3.76-2.7,7.67-5.45,11.67-7.8,4.59-2.7,12.49-5.87,16.23-8.74,1.21-.93,2.55-1.56,1.61-3.44-.69-1.39-9.17-7.39-10.99-8.04-15.67-5.6-17.99,17.54-18.52,28.02ZM735.05,399.55c-10.28-2.35-17.26-10.15-25.34-16.16-3.13.02-10.55,9.76-12.28,12.7,7.32,14.33,19.85,27.01,34.24,34.29,3.16-.67,4.01-26.78,3.38-30.84ZM342.57,441.37c-1.91,7.07-3.55,18.32-.74,25.21,1.27,3.13,10.26,7.37,13.7,9.28,16.31,9.01,61.12,29.73,78.45,30.24,50.76,1.48,135.35-26.48,175.24-58.32,3.44-2.75,6.23-6.78,9.6-9.38,6.33-4.87,24.18-15.14,28.02-19.93.73-.92,1.15-1.33,1.39-2.6.8-4.24-.45-23.93-2.19-27.73-2.37-5.19-5.16,1.45-6.73,2.82-77.7,68.06-153.87,104.3-258.31,66.41-13.1-4.75-25.53-11.34-38.44-16.01ZM258.66,432.38c.62.44,12.81-6.41,13.51-6.96,2.58-2.03,7.98-10.76,10.94-14.03,3.33-3.68,7.06-7.02,11.07-9.97l-5.06-6.97c-5.44,6.56-27.87,14.37-31.53,20.38-2.12,3.47.62,13.21,1.07,17.55ZM724.18,468.34c4.16-10.58,7.82-20.61,7.86-32.25-6.25-5.19-13.34-9.14-19.36-14.67-7.54-6.93-12.89-14.85-18.96-22.99l-8.51,10.5c5.7,20.14,19.04,46.19,36.47,58.43.85.6,1,1.38,2.5.98ZM315.59,416.38c.65-.82-13.17-13.68-15.45-13.95-7.6-.21-26.27,26.09-30.02,32.93-7.68,13.99-12.19,25.47-4.46,40.98,2.29.58,1.64-.45,2.27-1.26,14.24-18.21,25-44.71,44.32-57.54.98-.65,2.17-1.09,3.35-1.15ZM710.21,462.34c-9.28-11.86-17.46-24.08-23.46-37.97-1.38-3.19-2.47-9.69-4.03-11.97-1.14-1.68-1.15-.49-2.13-.18-4.13,1.32-11.03,4.19-10.19,9.41.93,5.75,17.83,24.79,22.8,29.24,1.78,1.6,15.79,12.55,17,11.46ZM323.58,422.41c-4.53-.74-5.39-4.42-9.92-1.46-3.84,2.5-12.4,11.63-15.56,15.42-1.04,1.25-7.3,9.11-6.47,10l31.96-23.96ZM722.17,472.38c-23.42-7.86-44.49-27.83-54.94-50l-6.96,3.5c15.23,22.04,35.21,41.49,61.41,49.46l.49-2.97ZM279.61,516.3c3.07-10.54,8.6-20.71,14.59-29.88,11.53-17.66,25.97-29.1,37.55-46.37,1.75-2.61,5.85-4.4,4.36-7.64-.79-1.72-5.2-4.55-6.49-6.5-4.28-1.62-29.69,17.99-34.02,21.95-7.44,6.82-26.34,28.21-28.53,37.4-2.38,10.03,5.85,23.97,12.54,31.04ZM453.22,427.65c-2.2.31-4.81,1.09-6.71,2.27-4.25,5.82-18.67,13.8-21.58,19.45-1.34,2.61,3.55,5.12,5.5,5.57,6.01,1.38,6.76-1.95,11.35-3.78,10.18-4.07,20.82,1.2,31.22,1.24,8.86.03,19.57-3.81,25.42-10.54.25-1.15-.66-1.97-1.68-2.29-3.84-1.22-9.41-.89-13.85-2.14-11.29-3.16-16.03-11.72-29.66-9.78ZM659.14,428.5c-2.47-1.43-10.26,9.38-10.44,11.33-.33,3.71,6.72,27.89,8.91,31.65,3.3,5.67,16.71,17.5,22.29,21.67,4.54,3.39,25.82,16.58,30.28,14.7,7.35-7.63,10.45-18.51,13.02-28.5-19.96-4.91-39.15-18.51-52.47-33.96-2.53-2.94-10.7-16.37-11.59-16.88ZM261.63,445.36l6-13.98-8.53,5,2.54,8.98ZM646.26,442.37c-4.55,3.75-19.66,21.67-19.82,26.42-.09,2.63,1.57,8.68,2.17,11.73,4.42,22.54,16.02,51.35,31.14,68.76,1.86,2.15,7.38,8.28,9.95,8.03,2.42-.24,20.44-19.77,20.43-21.54-7.85-6.01-14.08-15.24-19.05-23.8-12.28-21.14-20.24-45.62-24.81-69.6ZM494.15,465.09c1.96-1.74,4.7-16.37,4.25-19.72-4.41,3.76-6.42,13.57-7.96,19.5-.63,2.45,3.25.64,3.72.22ZM780.14,470.35c-12.39,0-24.75-4.11-35.64-9.83-2.69-1.41-7.15-5.41-8.84-6.15-1.52-.67-1.36.46-1.7,1.24-.49,1.09-3.55,8.91-3.59,9.41-.1,1.14,4.21,7.12,5.3,8.33,8.49,9.37,27.76,15.39,40.05,16.92,1.61.2,1.57.21,1.44-1.44-.22-2.86-1.14-4.23-.79-7.71.35-3.43,2.25-7.65,3.77-10.76ZM297.61,488.32c1.29,1.06,22.67-14.77,25.03-17.42l1.93-14.54c-10.74,8.97-19.12,20.45-26.96,31.96ZM256.64,457.36l-20.29,12.16-14.66,3.82c.93,3.84,4.27,6.13,5.31,10.17.78,3.04.85,5.71.69,8.81,12.21-2.79,22.67-9.56,32.51-16.95l-3.55-18.01ZM446.47,509.29c5.45,1.08,11.07,2.25,16.6,2.88,34.03,3.89,53,1.44,84.56-11.1,15.15-6.02,28.91-15.01,39.72-27.21l11.95-15.51c-40.3,24.91-85.21,42.56-132.49,48.82l-20.34,2.11ZM480.63,464.13c-.46-.28-.56-1.85-1.18-2.27-2.38-1.6-9.67,2.09-11.99,3.99-.09,2.23,16.92,2.13,17.96-1.49-1.45-.18-3.59.51-4.8-.23ZM758.16,515.28l-28.14-43.28-2.82-1.66c-2.01,3.68.08,6.73-.22,10.18-.43,4.8-2.73,9.39-3.64,14.07l17.36,30.67c1.29,1.59.87.77,1.97.03,4.54-3.02,8.49-9.35,15.49-10.02ZM499.41,517.31c-38.84,1.34-77.24-7.84-112.85-22.52l-42.99-21.44c13.88,37.7,59.44,36.43,91.17,49.18,4.42,1.78,13.3,7.84,16.43,8.55,4.2.95,22.78.61,26.74-.82l21.5-12.95ZM323.58,475.34l-16.45,12.01-14.59,7.64-10.45,23.2,5.53,8.65c3.26,1.67,20.75-8.18,24.46-10.56l11.5-40.94ZM241.67,514.29c6.16.91,11.27,3.6,14.49,9,1.37.35,1.72-.83,2.33-1.65,1.26-1.7,8.03-13.58,8.13-14.88.25-3.47-3.35-8.13-3.89-12.02-.73-5.27,1.04-10.34-.1-15.39l-20.96,34.95ZM706.21,510.32c-10.12-2.65-20.55-8.3-28.89-14.58-4.46-3.35-8.41-7.97-12.57-11.41-1.13-.93-1.61-2.42-3.49-1.99,6.84,17.66,15.7,34.86,28.47,48.93l16.48-20.95ZM308.59,546.27l2-24.98-16.97,8,14.97,16.97ZM469.43,548.26c4.45-12.5,2.66-14.49-10.36-12.86-7.58.95-8.03,3.42-7.6,10.87l2.95-6.53c1.58-1.04,11.74-.74,12.82.76s0,6.85,2.19,7.77ZM463.44,542.28h-6.99c-.09,3.06.16,6.7,2.5,8.97,1.29-1.21,5.75-7.74,4.49-8.97Z"/>
        <path d="M461.44,569.24c-3.2.86-1.43-2.55-2.91-3.54-2.39-1.61-9.59-.86-8.07,3.55.32.32,11.72-.85,7.98,2l-9.34-.14c-7.75-8.21,10.38-10.75,12.63-5.57l-.3,3.71Z"/>
        <path class="cls-4" d="M642.27,377.43c-27.73-9.3-56.48-16.07-85.55-19.83-72.35-9.38-145.87-4.08-211.69,28.82-1.95.65-2.48-4.4-2.46-5.48.07-3.91,7.76-27.31,9.78-31.18,3.82-7.32,25.45-14.58,33.63-17.32,65.14-21.78,144.6-23.77,211.16-7.28,7.38,1.83,21.32,5.11,27.7,8.27,11.32,5.6,17.72,32.18,17.42,44.01Z"/>
        <path class="cls-4" d="M342.57,441.37c12.91,4.67,25.33,11.25,38.44,16.01,104.44,37.89,180.61,1.65,258.31-66.41,1.57-1.37,4.36-8.01,6.73-2.82,1.74,3.8,2.99,23.49,2.19,27.73-.24,1.27-.66,1.69-1.39,2.6-3.85,4.79-21.7,15.06-28.02,19.93-3.37,2.59-6.16,6.63-9.6,9.38-39.89,31.84-124.48,59.8-175.24,58.32-17.33-.51-62.14-21.23-78.45-30.24-3.44-1.9-12.43-6.15-13.7-9.28-2.81-6.89-1.16-18.15.74-25.21Z"/>
        <path class="cls-4" d="M646.26,442.37c4.57,23.98,12.54,48.46,24.81,69.6,4.97,8.56,11.2,17.79,19.05,23.8,0,1.76-18.01,21.3-20.43,21.54-2.57.25-8.09-5.89-9.95-8.03-15.13-17.4-26.72-46.22-31.14-68.76-.6-3.04-2.26-9.1-2.17-11.73.16-4.75,15.28-22.67,19.82-26.42Z"/>
        <path class="cls-4" d="M580.32,286.54l-42.16,5.27-37.27,8.23-64.42-23.5c46.1-15.95,100.82-13.77,143.84,9.99Z"/>
        <path class="cls-4" d="M659.14,428.5c.89.51,9.06,13.94,11.59,16.88,13.32,15.45,32.51,29.05,52.47,33.96-2.57,9.99-5.67,20.87-13.02,28.5-4.46,1.88-25.74-11.31-30.28-14.7-5.58-4.16-18.99-16-22.29-21.67-2.19-3.76-9.24-27.95-8.91-31.65.17-1.95,7.96-12.75,10.44-11.33Z"/>
        <path class="cls-4" d="M519.39,309.51c.24,1.74-2.27.94-3.48.99-26.41,1.02-52.78.63-78.82,5.96-14.09-5.81-28.54-9.86-43.21-13.83-1.35-.37-2.8.68-2.35-1.61,10.7-9.46,23.26-19.28,37.41-22.55l90.45,31.04Z"/>
        <path class="cls-4" d="M279.61,516.3c-6.69-7.07-14.93-21.02-12.54-31.04,2.18-9.19,21.09-30.59,28.53-37.4,4.32-3.96,29.74-23.57,34.02-21.95,1.29,1.95,5.7,4.79,6.49,6.5,1.5,3.25-2.61,5.04-4.36,7.64-11.57,17.27-26.02,28.71-37.55,46.37-5.98,9.17-11.52,19.34-14.59,29.88Z"/>
        <path class="cls-4" d="M623.28,329.48c-28.05-9.48-57.36-15.38-86.96-17.43l-28.91-10.53c16.4-3.36,32.89-7.01,49.57-8.88,6.99-.79,16.01-1.89,22.86-2.11,2.7-.08,6.21-.38,8.77.2,6.45,1.45,37.32,35.45,34.67,38.75Z"/>
        <path class="cls-4" d="M499.41,517.31l-21.5,12.95c-3.96,1.43-22.54,1.76-26.74.82-3.13-.7-12.01-6.77-16.43-8.55-31.73-12.75-77.29-11.48-91.17-49.18l42.99,21.44c35.62,14.68,74.01,23.86,112.85,22.52Z"/>
        <path class="cls-4" d="M446.47,509.29l20.34-2.11c47.28-6.27,92.19-23.91,132.49-48.82l-11.95,15.51c-10.82,12.2-24.57,21.19-39.72,27.21-31.55,12.54-50.53,14.98-84.56,11.1-5.53-.63-11.15-1.8-16.6-2.88Z"/>
        <path class="cls-4" d="M724.18,468.34c-1.5.4-1.65-.38-2.5-.98-17.42-12.24-30.76-38.29-36.47-58.43l8.51-10.5c6.07,8.14,11.42,16.06,18.96,22.99,6.01,5.53,13.11,9.48,19.36,14.67-.04,11.64-3.7,21.68-7.86,32.25Z"/>
        <path class="cls-4" d="M315.59,416.38c-1.18.06-2.37.51-3.35,1.15-19.32,12.83-30.07,39.33-44.32,57.54-.63.81.02,1.84-2.27,1.26-7.73-15.51-3.22-26.98,4.46-40.98,3.75-6.83,22.43-33.14,30.02-32.93,2.28.27,16.1,13.13,15.45,13.95Z"/>
        <path class="cls-4" d="M323.58,475.34l-11.5,40.94c-3.71,2.38-21.21,12.23-24.46,10.56l-5.53-8.65,10.45-23.2,14.59-7.64,16.45-12.01Z"/>
        <path class="cls-4" d="M735.05,399.55c.63,4.06-.22,30.17-3.38,30.84-14.39-7.28-26.92-19.96-34.24-34.29,1.73-2.94,9.15-12.68,12.28-12.7,8.08,6,15.06,13.8,25.34,16.16Z"/>
        <path class="cls-4" d="M429.48,316.5l-66.93,20.96c5.18-12.99,15.42-23.58,25.69-32.82l41.24,11.85Z"/>
        <path class="cls-4" d="M780.14,470.35c-1.52,3.11-3.42,7.33-3.77,10.76-.35,3.48.57,4.85.79,7.71.13,1.65.17,1.64-1.44,1.44-12.29-1.53-31.55-7.55-40.05-16.92-1.1-1.21-5.4-7.19-5.3-8.33.04-.5,3.11-8.33,3.59-9.41.35-.77.19-1.91,1.7-1.24,1.69.75,6.15,4.74,8.84,6.15,10.89,5.71,23.24,9.82,35.64,9.83Z"/>
        <path class="cls-4" d="M758.16,515.28c-7,.66-10.94,7-15.49,10.02-1.1.73-.69,1.56-1.97-.03l-17.36-30.67c.91-4.68,3.21-9.27,3.64-14.07.31-3.45-1.79-6.5.22-10.18l2.82,1.66,28.14,43.28Z"/>
        <path class="cls-4" d="M706.21,510.32l-16.48,20.95c-12.76-14.07-21.62-31.27-28.47-48.93,1.88-.43,2.37,1.06,3.49,1.99,4.16,3.44,8.11,8.06,12.57,11.41,8.34,6.27,18.77,11.93,28.89,14.58Z"/>
        <path class="cls-4" d="M256.64,457.36l3.55,18.01c-9.84,7.39-20.3,14.16-32.51,16.95.16-3.1.1-5.77-.69-8.81-1.04-4.04-4.38-6.32-5.31-10.17l14.66-3.82,20.29-12.16Z"/>
        <path class="cls-4" d="M258.66,432.38c-.45-4.34-3.19-14.08-1.07-17.55,3.67-6.01,26.1-13.82,31.53-20.38l5.06,6.97c-4.01,2.94-7.74,6.28-11.07,9.97-2.96,3.28-8.36,12-10.94,14.03-.7.55-12.89,7.4-13.51,6.96Z"/>
        <path class="cls-4" d="M710.21,462.34c-1.21,1.08-15.22-9.87-17-11.46-4.97-4.45-21.87-23.49-22.8-29.24-.85-5.22,6.05-8.09,10.19-9.41.98-.31.98-1.5,2.13.18,1.56,2.28,2.65,8.78,4.03,11.97,6,13.89,14.18,26.11,23.46,37.97Z"/>
        <path class="cls-4" d="M241.67,514.29l20.96-34.95c1.14,5.06-.64,10.12.1,15.39.54,3.89,4.13,8.55,3.89,12.02-.09,1.31-6.87,13.19-8.13,14.88-.61.83-.96,2-2.33,1.65-3.22-5.41-8.33-8.09-14.49-9Z"/>
        <path class="cls-4" d="M257.66,410.4c.53-10.48,2.85-33.61,18.52-28.02,1.82.65,10.3,6.65,10.99,8.04.94,1.88-.4,2.52-1.61,3.44-3.75,2.86-11.64,6.04-16.23,8.74-4,2.35-7.91,5.1-11.67,7.8Z"/>
        <path class="cls-4" d="M722.17,472.38l-.49,2.97c-26.2-7.97-46.18-27.42-61.41-49.46l6.96-3.5c10.45,22.16,31.52,42.13,54.94,50Z"/>
        <path class="cls-4" d="M297.61,488.32c7.84-11.51,16.23-22.98,26.96-31.96l-1.93,14.54c-2.36,2.65-23.74,18.48-25.03,17.42Z"/>
        <path class="cls-4" d="M733.17,395.42c-7.73-3.2-14.42-8.2-19.95-14.49,13.68-11.33,20.74.78,19.95,14.49Z"/>
        <polygon class="cls-4" points="308.59 546.27 293.62 529.3 310.59 521.29 308.59 546.27"/>
        <path class="cls-4" d="M323.58,422.41l-31.96,23.96c-.82-.89,5.43-8.75,6.47-10,3.16-3.8,11.72-12.92,15.56-15.42,4.53-2.95,5.4.72,9.92,1.46Z"/>
        <path class="cls-4" d="M469.43,548.26c-2.19-.91-1.12-6.28-2.19-7.77s-11.24-1.8-12.82-.76l-2.95,6.53c-.43-7.45.02-9.92,7.6-10.87,13.02-1.63,14.81.36,10.36,12.86Z"/>
        <polygon class="cls-4" points="261.63 445.36 259.1 436.38 267.63 431.38 261.63 445.36"/>
        <path class="cls-4" d="M463.44,542.28c1.26,1.23-3.2,7.76-4.49,8.97-2.34-2.26-2.59-5.91-2.5-8.97h6.99Z"/>
      </g>
      <path d="M364.77,547.82v12.84c0,1.78-4.06,7.47-8.31,13.8-.94-.73-1.92-1.43-2.96-2.09,3.03-4.04,6.37-8.73,6.92-9.83,2.16-4.34,1.52-8.58,2.69-12.92.36-1.34-.56-2.15,1.66-1.8Z"/>
    </g>
    <g>
      <path class="cls-13" d="M899.57,734.47c0,39.87-26.75,64.63-69.78,64.63-25.15,0-43.74-3.67-56.86-11.21-5.74-3.3-10.45-7.31-14.11-11.98-10.44,18.76-26.44,23.19-39.17,23.19-7.65,0-18.23-2.47-26.51-9.01-7.94,5.91-17.64,9.01-28.7,9.01-24.75,0-43.49-8.79-55.69-26.14-.64-.92-1.27-1.85-1.87-2.81-10.84,24.88-30,28.95-41.34,28.95-9.92,0-25.79-3.1-37-20.38-8.24,12.9-22.03,20.38-39.46,20.38-18.97,0-34.47-8.7-44.5-20.25-12.21,17.42-28.47,20.25-37.71,20.25-20.62,0-35.68-9.25-44.87-27.52-10.94,23.61-29.57,27.52-40.69,27.52s-30.12-3.97-41.23-28.07c-9.22,18.64-24.4,28.07-45.23,28.07-19.1,0-29.97-7.78-36.35-16.65-10.23,10.9-24.19,16.65-40.42,16.65-24.28,0-40.84-12.83-49.21-38.13-6-18.15-8.44-43.58-8.44-87.78,0-2.52.02-4.98.06-7.38.43-27.75,3.36-48.17,9.14-63.82,10.86-29.39,30.29-36.89,45.68-37.66.94-.05,1.86-.07,2.77-.07,16.8,0,29.43,5.72,38.2,17.38.26.34.52.69.77,1.05.65-.78,1.33-1.54,2.02-2.28,9.21-9.86,20.59-15.38,33.08-16.07.89-.06,1.79-.08,2.7-.08,12.34,0,28.02,3.98,39.8,20.53.35.49.7.99,1.04,1.5,6.5-11.74,19.84-21.25,42.75-21.98.13-.01.26-.01.4-.01,0,0,0-.01.01,0,.81-.03,1.63-.04,2.46-.04.41,0,.82,0,1.23.02.57,0,1.13.01,1.68.03,12.46.41,22.08,3.45,29.28,8.06,1.04.66,2.02,1.36,2.96,2.09,3.92,3,6.99,6.53,9.31,10.33.37.59.71,1.19,1.04,1.79,11.56-16.71,27.13-21.61,40.02-22.24,1.04-.06,2.06-.08,3.06-.08,15.09,0,28.24,6.04,36.6,15.71.05.05.09.1.13.16.35.4.68.81,1.01,1.22.28-.29.56-.58.85-.87,1.94-1.95,3.96-3.73,6.05-5.34.06-.05.12-.1.19-.15,2.9-2.22,5.93-4.1,9.07-5.63.77-.39,1.55-.75,2.34-1.07,5.37-2.32,11.04-3.65,16.92-3.96h.04c.88-.05,1.77-.07,2.66-.07,18.14,0,28.96,7.06,34.85,12.98.67.68,1.32,1.38,1.95,2.11.39.45.77.91,1.14,1.37,7.38-9.06,19.83-15.8,38.98-16.41h.01c.94-.03,1.89-.05,2.86-.05,37.16,0,50.36,22.56,50.36,41.88,0,13.19-5.83,24.54-16.41,31.97-.18.12-.35.24-.51.34,3.5,3.66,6.48,8.04,8.86,13.09.28.58.54,1.16.8,1.75,7.17-10.75,16.36-18.32,26.43-22.92,5.24-2.39,10.72-3.98,16.27-4.78,1.35-.21,2.7-.36,4.06-.46.63-.05,1.25-.09,1.88-.11.97-.06,1.94-.08,2.91-.08,2.93,0,6.06.27,9.19.78.19-4.54.57-8.82,1.13-12.84,2.11-15.2,6.84-26.78,14.24-34.97,7.48-8.28,17.5-12.94,29.1-13.57.92-.05,1.84-.08,2.78-.08,12.49,0,35.18,4.94,46.79,37.99,3.44,9.84,5.84,21.55,7.23,35.78.06.65.12,1.31.18,1.97,12.44-9.58,29.94-14.63,52.11-15.03.96-.02,1.93-.03,2.91-.03,61.05,0,67.65,32.25,67.65,46.12,0,11.14-2.81,18.78-6.23,23.95,8.17,10.37,12.3,23.59,12.3,39.46Z"/>
      <path class="cls-8" d="M281.13,643.75c-.52-7.59-1.34-14.95-2.53-21.93-1.68-9.87-4.09-18.97-7.43-26.89-7.86-18.6-20.88-30.67-41.74-30.67-16.08,0-29.13,9.71-37.93,24.27-7.28-15.17-19.72-24.27-38.83-24.27-42.48,0-52.19,50.36-52.19,103.46,0,76.45,8.2,120.44,52.19,120.44,16.68,0,30.94-7.28,40.65-22.75,5.16,11.53,14.57,22.75,36.11,22.75,24.8,0,38.32-13.99,45.4-39.89,5.47-20.04,7.08-47.21,7.08-80.55,0-8.12-.23-16.17-.78-23.97ZM229.43,776.63c-20.63,0-25.49-11.52-28.83-25.18,5.77-15.47,7.89-29.73,5.16-55.82-.3-2.73-2.73-5.16-5.76-5.16-3.34,0-6.07,3.03-5.77,6.07,5.46,57.34-13.35,80.09-41.56,80.09-33.98,0-40.66-34.28-40.66-108.91,0-51.58,8.2-91.93,40.66-91.93,17.9,0,26.7,8.49,31.85,26.09-6.67,16.69-9.4,33.07-7.58,51.88.3,3.03,2.73,5.46,5.76,5.46,3.34,0,6.07-3.03,5.77-6.37-2.73-39.44,12.74-77.06,40.96-77.06,32.76,0,40.95,40.35,40.95,91.93,0,74.63-6.97,108.91-40.95,108.91Z"/>
      <path class="cls-8" d="M339.56,631.61c5.08-2.29,9.48-5.36,12.94-9.14,5.22-5.71,8.29-13.04,8.29-21.8,0-1.96-.16-3.89-.48-5.76-2.95-17.52-19.47-30.65-44.42-30.65s-41.77,13.13-44.72,30.66h0c-.32,1.88-.48,3.79-.48,5.75,0,8.43,2.95,15.54,7.91,21.15,3.59,4.08,8.26,7.36,13.63,9.79-4.56,3.22-8.2,7.37-11.1,12.14-8.85,14.57-10.75,34.88-10.75,51.57,0,14.88.19,35.14,4.45,52.95,5.2,21.79,16.52,39.89,41.06,39.89s35.38-17.69,40.52-39.24c4.26-17.85,4.38-38.34,4.38-53.6,0-16.9-1.77-37.7-10.71-52.27-2.76-4.51-6.22-8.43-10.52-11.44ZM282.2,600.67c0-14.57,11.23-24.88,33.68-24.88s33.37,10.31,33.37,24.88c0,15.77-13.35,24.27-33.37,24.27s-33.68-8.5-33.68-24.27ZM315.88,776.63c-33.07,0-33.98-48.54-33.98-81.31,0-28.21,4.86-58.85,33.98-58.85s33.37,30.64,33.37,58.85c0,33.38-.6,81.31-33.37,81.31Z"/>
      <path class="cls-8" d="M514.61,695.12c-3.44-6.25-7.89-12.86-13.65-19.82,11.44-16.65,19-35.95,21.36-54.06.52-4,.79-7.93.79-11.77,0-9.23-1.75-17.05-4.87-23.46-7.04-14.47-21.09-21.75-37.91-21.75s-29.43,8.8-38.84,21.84c-6.37-13.65-22.45-21.84-37.01-21.84-22.29,0-35.99,12.08-44.17,30.65-3.57,8.1-6.09,17.45-7.81,27.56-1.12,6.57-1.9,13.48-2.42,20.58-.58,8.03-.82,16.32-.82,24.67,0,33.7,1.59,61.11,7.15,81.2,7.04,25.49,20.44,39.24,45.04,39.24,16.68,0,29.12-9.4,37.01-26.09,7.89,13.05,23.97,26.09,45.21,26.09,17.88,0,32.82-10.4,39.19-27.66,2.05-5.58,3.21-11.87,3.28-18.76,0-11.88-1.03-27.55-11.53-46.62ZM483.67,776.63c-21.85,0-36.41-16.08-39.44-28.82,3.64-12.74,5.46-28.21,5.46-42.78,0-3.33-2.43-5.76-5.77-5.76-3.03,0-5.76,2.43-5.76,5.76,0,45.21-13.05,71.6-36.71,71.6-33.98,0-40.66-34.28-40.66-108.91,0-51.58,8.19-91.93,43.69-91.93,14.56,0,28.52,8.49,29.13,23.36-8.8,18.51-12.44,41.26-10.93,57.04.31,3.03,2.73,5.46,5.77,5.46,3.34,0,6.07-2.73,5.76-6.07-3.33-34.89,14.26-79.79,46.12-79.79,19.11,0,31.25,10.01,31.25,33.68,0,26.09-13.05,56.43-34.89,76.45-2.13,1.82-2.43,4.85-.91,7.28,2.12,3.04,6.37,3.34,9.1.61,3.03-2.73,6.07-5.77,8.8-9.1,19.42,23.96,20.93,42.17,20.93,57.03-.3,22.76-12.44,34.89-30.94,34.89Z"/>
      <path class="cls-8" d="M601.85,662.49c-2.9-12.57-8.3-24.04-18.07-30.88,12.75-5.76,21.24-16.38,21.24-30.94,0-20.33-17.29-36.41-44.9-36.41-20.72,0-35.6,8.86-41.88,21.75-2.18,4.47-3.33,9.42-3.33,14.66,0,8.14,2.75,15.05,7.41,20.57,3.67,4.35,8.52,7.83,14.14,10.37-18.45,13.01-21.83,41.4-21.85,63.51v.2c0,18.42.28,45.13,8.25,65.18h0c6.33,15.94,17.51,27.66,37.26,27.66,23.98,0,35.15-17.34,40.36-38.59,4.41-18,4.54-38.8,4.54-54.25,0-10.26-.65-21.95-3.17-32.82h0ZM526.44,600.67c0-14.57,11.23-24.88,33.68-24.88s33.37,10.31,33.37,24.88c0,15.77-13.35,24.27-33.37,24.27s-33.68-8.5-33.68-24.27ZM560.12,776.63c-33.07,0-33.98-48.54-33.98-81.31,0-28.21,4.85-58.85,33.98-58.85s33.37,30.64,33.37,58.85c0,33.38-.6,81.31-33.37,81.31Z"/>
      <path class="cls-8" d="M676.62,680.16c-.91-1.52-3.03-2.73-5.16-2.73-4.55,0-6.98,4.85-4.85,8.49,4.55,8.49,4.85,25.48,0,36.71-1.82,3.64.91,8.19,5.16,8.19,2.42,0,4.55-1.52,5.15-3.64,6.38-13.95,6.07-35.5-.3-47.02ZM676.62,680.16c-.91-1.52-3.03-2.73-5.16-2.73-4.55,0-6.98,4.85-4.85,8.49,4.55,8.49,4.85,25.48,0,36.71-1.82,3.64.91,8.19,5.16,8.19,2.42,0,4.55-1.52,5.15-3.64,6.38-13.95,6.07-35.5-.3-47.02ZM760.75,647.35c-2.44-44.92-14.15-83.09-49.54-83.09-28.52,0-40.96,24.88-41.57,63.1-5.46-1.82-10.92-2.42-14.86-2.42-20.37,0-41.58,12.09-52.93,37.55h0c-5.23,11.72-8.36,26.26-8.36,43.76,0,16.19,2.19,30.93,6.99,43.32,9.13,23.59,27.71,38.59,58.54,38.59,10.32,0,20.33-3.34,28.83-11.22,6.97,7.58,18.81,11.22,26.39,11.22,20.05,0,31.74-10.61,38.44-30.37,3.85-11.31,6.06-25.6,7.27-42.62.02-.3.04-.6.06-.9.95-13.8,1.26-29.36,1.26-46.55,0-6.87-.16-13.7-.52-20.37ZM714.24,776.63c-6.07,0-14.56-2.73-18.81-8.19,2.43-3.64,4.25-7.58,6.07-13.04.91-2.43-.3-5.46-3.03-6.68-3.04-1.52-6.68.31-8.2,3.34-6.37,18.51-17.9,24.57-31.25,24.57-39.44,0-54-27-54-70.38,0-49.15,24.88-69.78,49.76-69.78,4.24,0,10.01.91,14.86,2.73.31,4.55.61,8.8,1.22,13.35.3,2.73,2.73,4.85,6.37,4.55,3.03-.61,5.16-3.34,4.85-6.68-4.85-47.93,3.95-74.63,29.13-74.63,30.64,0,38.53,40.35,38.53,91.93,0,74.63-5.16,108.91-35.5,108.91ZM671.45,677.43c-4.55,0-6.98,4.85-4.85,8.49,4.55,8.49,4.85,25.48,0,36.71-1.82,3.64.91,8.19,5.16,8.19,2.42,0,4.55-1.52,5.15-3.64,6.38-13.95,6.07-35.5-.3-47.02-.91-1.52-3.03-2.73-5.16-2.73Z"/>
      <path class="cls-8" d="M874.43,690.17c4.25-4.86,8.19-12.74,8.19-24.58,0-27.91-27.61-40.65-62.19-40.65-29.73,0-48.91,8.98-59.68,22.41-7.59,9.46-11.01,21.13-11.01,33.41,0,13.12,3.52,24.49,10.27,33.51.11.16.23.31.35.47-.14.14-.28.29-.41.43-5.87,6.05-10.21,14.74-10.21,27.18,0,5.59.98,10.76,2.94,15.44h0c7.97,19.2,32.19,30.37,71.69,30.37,42.78,0,64.32-26.39,64.32-59.16,0-15.77-4.85-28.82-14.26-38.83ZM824.37,776.63c-44.9,0-63.1-12.43-63.1-34.28,0-9.4,2.73-15.17,6.97-19.42,11.84,10.32,29.74,15.78,52.19,15.78,3.33,0,5.76-2.73,5.76-5.76,0-3.34-2.43-5.77-5.76-5.77-39.44,0-59.16-16.69-59.16-46.42,0-25.18,15.16-44.29,59.16-44.29,30.94,0,50.66,9.1,50.66,29.12,0,9.41-2.73,14.57-5.46,16.99-12.74-8.49-30.94-13.35-54.91-13.35-3.04,0-5.77,2.43-5.77,5.77,0,3.03,2.73,5.76,5.77,5.76,47.02,0,66.44,17.3,66.44,48.24,0,27.91-16.38,47.63-52.79,47.63Z"/>
      <g>
        <path class="cls-17" d="M270.38,667.72c0,74.63-6.97,108.91-40.95,108.91-20.63,0-25.49-11.52-28.83-25.18,5.77-15.47,7.89-29.73,5.16-55.82-.3-2.73-2.73-5.16-5.76-5.16-3.34,0-6.07,3.03-5.77,6.07,5.46,57.34-13.35,80.09-41.56,80.09-33.98,0-40.66-34.28-40.66-108.91,0-51.58,8.2-91.93,40.66-91.93,17.9,0,26.7,8.49,31.85,26.09-6.67,16.69-9.4,33.07-7.58,51.88.3,3.03,2.73,5.46,5.76,5.46,3.34,0,6.07-3.03,5.77-6.37-2.73-39.44,12.74-77.06,40.96-77.06,32.76,0,40.95,40.35,40.95,91.93Z"/>
        <path class="cls-17" d="M349.25,600.67c0,15.77-13.35,24.27-33.37,24.27s-33.68-8.5-33.68-24.27c0-14.57,11.23-24.88,33.68-24.88s33.37,10.31,33.37,24.88Z"/>
        <path class="cls-17" d="M349.25,695.32c0,33.38-.6,81.31-33.37,81.31s-33.98-48.54-33.98-81.31c0-28.21,4.86-58.85,33.98-58.85s33.37,30.64,33.37,58.85Z"/>
        <path class="cls-17" d="M514.61,741.74c-.3,22.76-12.44,34.89-30.94,34.89-21.85,0-36.41-16.08-39.44-28.82,3.64-12.74,5.46-28.21,5.46-42.78,0-3.33-2.43-5.76-5.77-5.76-3.03,0-5.76,2.43-5.76,5.76,0,45.21-13.05,71.6-36.71,71.6-33.98,0-40.66-34.28-40.66-108.91,0-51.58,8.19-91.93,43.69-91.93,14.56,0,28.52,8.49,29.13,23.36-8.8,18.51-12.44,41.26-10.93,57.04.31,3.03,2.73,5.46,5.77,5.46,3.34,0,6.07-2.73,5.76-6.07-3.33-34.89,14.26-79.79,46.12-79.79,19.11,0,31.25,10.01,31.25,33.68,0,26.09-13.05,56.43-34.89,76.45-2.13,1.82-2.43,4.85-.91,7.28,2.12,3.04,6.37,3.34,9.1.61,3.03-2.73,6.07-5.77,8.8-9.1,19.42,23.96,20.93,42.17,20.93,57.03Z"/>
        <path class="cls-17" d="M593.49,600.67c0,15.77-13.35,24.27-33.37,24.27s-33.68-8.5-33.68-24.27c0-14.57,11.23-24.88,33.68-24.88s33.37,10.31,33.37,24.88Z"/>
        <path class="cls-17" d="M593.49,695.32c0,33.38-.6,81.31-33.37,81.31s-33.98-48.54-33.98-81.31c0-28.21,4.85-58.85,33.98-58.85s33.37,30.64,33.37,58.85Z"/>
        <path class="cls-17" d="M711.2,575.79c-25.18,0-33.98,26.7-29.13,74.63.31,3.34-1.82,6.07-4.85,6.68-3.64.3-6.07-1.82-6.37-4.55-.61-4.55-.91-8.8-1.22-13.35-4.85-1.82-10.62-2.73-14.86-2.73-24.88,0-49.76,20.63-49.76,69.78,0,43.38,14.56,70.38,54,70.38,13.35,0,24.88-6.06,31.25-24.57,1.52-3.03,5.16-4.86,8.2-3.34,2.73,1.22,3.94,4.25,3.03,6.68-1.82,5.46-3.64,9.4-6.07,13.04,4.25,5.46,12.74,8.19,18.81,8.19,30.34,0,35.5-34.28,35.5-108.91,0-51.58-7.89-91.93-38.53-91.93ZM676.92,727.18c-.6,2.12-2.73,3.64-5.15,3.64-4.25,0-6.98-4.55-5.16-8.19,4.85-11.23,4.55-28.22,0-36.71-2.13-3.64.3-8.49,4.85-8.49,2.13,0,4.25,1.21,5.16,2.73,6.37,11.52,6.68,33.07.3,47.02Z"/>
        <path class="cls-17" d="M877.15,729c0,27.91-16.38,47.63-52.79,47.63-44.9,0-63.1-12.43-63.1-34.28,0-9.4,2.73-15.17,6.97-19.42,11.84,10.32,29.74,15.78,52.19,15.78,3.33,0,5.76-2.73,5.76-5.76,0-3.34-2.43-5.77-5.76-5.77-39.44,0-59.16-16.69-59.16-46.42,0-25.18,15.16-44.29,59.16-44.29,30.94,0,50.66,9.1,50.66,29.12,0,9.41-2.73,14.57-5.46,16.99-12.74-8.49-30.94-13.35-54.91-13.35-3.04,0-5.77,2.43-5.77,5.77,0,3.03,2.73,5.76,5.77,5.76,47.02,0,66.44,17.3,66.44,48.24Z"/>
      </g>
      <g>
        <path class="cls-7" d="M203.91,612.85s6.53-28.75,28.82-27.04c22.29,1.71,30.03,70.88,20.25,50.77-13.6-27.98-30.39-30.94-49.07-23.73Z"/>
        <path class="cls-7" d="M122.83,626.81s7.81-39.17,24.41-40.91c15.35-1.62,24.71,8.98,27.85,15.27,3.14,6.29-27.75-29.62-52.26,25.64Z"/>
        <path class="cls-7" d="M452.08,606.27s6.51-21.78,28.82-20.47c34.17,2.01,9.95,72.88,7.77,50.62-4.29-43.85-17.92-37.37-36.6-30.16Z"/>
        <path class="cls-7" d="M371.01,626.81s7.81-39.17,24.41-40.91c15.35-1.62,24.71,8.98,27.85,15.27,3.14,6.29-27.75-29.62-52.26,25.64Z"/>
        <path class="cls-7" d="M803.1,650.49c-3.54-.11-5.83-4.13-.58-6.22,4.69-1.87,22.99-5.84,45.9,1.62,18.81,6.13,18,20.26,18,20.26,0,0-3.72-13.82-63.32-15.66Z"/>
        <path class="cls-7" d="M321.1,587.99c3.54.02,4-5.33.58-6.22-4.88-1.26-11.11-1.52-18.4,1.04-18.67,6.55-11.08,23.46-11.08,23.46,0,0,.71-18.46,28.9-18.28Z"/>
        <path class="cls-7" d="M565.88,587.99c3.54.02,4-5.33.58-6.22-4.88-1.26-11.11-1.52-18.4,1.04-18.67,6.55-11.08,23.46-11.08,23.46,0,0,.71-18.46,28.9-18.28Z"/>
        <path class="cls-7" d="M321.92,654.53c3.54.02,4.79-5.94.56-8.25-4.43-2.42-9.14-2.86-14.62-1.08-18.81,6.13-14.84,27.61-14.84,27.61,0,0,.71-18.46,28.9-18.28Z"/>
        <path class="cls-7" d="M692.2,612.59s-3.53-23.59,14.16-27.65c26.01-5.97,39.43,38.4,25.69,26.53-19.78-17.09-35.1-15.97-39.85,1.12Z"/>
        <path class="cls-7" d="M565.13,654.53c3.54.02,4.79-5.94.56-8.25-4.43-2.42-9.14-2.86-14.62-1.08-18.81,6.13-14.84,27.61-14.84,27.61,0,0,.71-18.46,28.9-18.28Z"/>
        <path class="cls-7" d="M822.91,703.38c-3.49.61-4.79-8.65-.56-12.01,4.43-3.52,8.83-3.36,14.62-1.57,37.27,11.52,29.11,44.36,29.11,44.36,0,0-5.65-37.3-43.17-30.78Z"/>
        <path class="cls-7" d="M655.87,658.53c3.54.09,3.47-9.26-1.21-11.97s-9.47-2.49-14.7.59c-32.42,19.1-25.48,47.48-25.48,47.48,0,0,3.31-37.07,41.38-36.11Z"/>
      </g>
    </g>
  </g>
  <g>
    <g>
      <g>
        <ellipse cx="154.4" cy="682.38" rx="23.82" ry="21.75"/>
        <polyline class="cls-5" points="137.98 685.17 122.35 677.99 112 689.83"/>
        <polyline class="cls-5" points="134.87 676.46 123.16 666.07 113.72 673.5"/>
        <polyline class="cls-5" points="175.59 677.23 187.13 672.1 195.38 680.03"/>
        <polyline class="cls-5" points="169.87 693.57 182.93 696.05 186.46 710.26"/>
        <polyline class="cls-5" points="139.94 689.29 124.31 689.86 117.76 704.12"/>
      </g>
      <line class="cls-6" x1="153.53" y1="564.22" x2="153.53" y2="663.97"/>
      <g>
        <g>
          <circle class="cls-16" cx="164.52" cy="685.91" r="8.5"/>
          <circle class="cls-1" cx="161.47" cy="687.12" r="4.5"/>
        </g>
        <g>
          <circle class="cls-16" cx="144.53" cy="684.96" r="8.5"/>
          <circle class="cls-1" cx="147.45" cy="686.44" r="4.5"/>
        </g>
      </g>
    </g>
    <g>
      <line class="cls-6" x1="725.15" y1="565.12" x2="725.15" y2="603.1"/>
      <g>
        <g>
          <ellipse cx="729.19" cy="620.56" rx="23.82" ry="21.75" transform="translate(-131.49 200.98) rotate(-14.41)"/>
          <polyline class="cls-5" points="713.98 627.35 697.06 624.28 689.99 638.33"/>
          <polyline class="cls-5" points="708.8 619.69 694.88 612.54 687.58 622.09"/>
          <polyline class="cls-5" points="748.44 610.31 758.34 602.47 768.3 608.1"/>
          <polyline class="cls-5" points="746.96 627.55 760.23 626.71 767.18 639.59"/>
          <polyline class="cls-5" points="716.91 630.86 701.91 635.29 699.12 650.74"/>
        </g>
        <g>
          <g>
            <circle class="cls-16" cx="739.87" cy="621.47" r="8.5"/>
            <circle class="cls-1" cx="737.22" cy="623.39" r="4.5"/>
          </g>
          <g>
            <circle class="cls-16" cx="720.28" cy="625.52" r="8.5"/>
            <circle class="cls-1" cx="723.48" cy="626.23" r="4.5"/>
          </g>
        </g>
      </g>
    </g>
    <g>
      <g>
        <ellipse cx="605.94" cy="245.9" rx="21.75" ry="23.82" transform="translate(309.36 828.71) rotate(-85.12)"/>
        <polyline class="cls-5" points="589.34 247.28 574.38 238.8 563.06 249.72"/>
        <polyline class="cls-5" points="586.98 238.34 576.2 226.99 566.16 233.59"/>
        <polyline class="cls-5" points="627.49 242.58 639.43 238.45 646.97 247.05"/>
        <polyline class="cls-5" points="620.4 258.36 633.2 261.95 635.51 276.41"/>
        <polyline class="cls-5" points="590.94 251.56 575.33 250.79 567.58 264.45"/>
      </g>
      <g>
        <g>
          <circle class="cls-16" cx="615.72" cy="250.28" r="8.5"/>
          <circle class="cls-1" cx="612.58" cy="251.22" r="4.5"/>
        </g>
        <g>
          <circle class="cls-16" cx="595.89" cy="247.63" r="8.5"/>
          <circle class="cls-1" cx="598.67" cy="249.36" r="4.5"/>
        </g>
      </g>
    </g>
    <g>
      <path class="cls-6" d="M622.24,522.39s3.9,30.74-16.98,46.57"/>
      <line class="cls-6" x1="617.63" y1="528.93" x2="628.73" y2="530.24"/>
      <line class="cls-6" x1="616.91" y1="537.25" x2="627.75" y2="539.96"/>
      <line class="cls-6" x1="613.75" y1="546.67" x2="623.99" y2="551.13"/>
      <line class="cls-6" x1="609.99" y1="555.88" x2="619.58" y2="561.62"/>
    </g>
    <g>
      <path class="cls-6" d="M419.24,553.4s-30.26,6.7-47.93-12.64"/>
      <line class="cls-6" x1="412.31" y1="549.41" x2="412.02" y2="560.59"/>
      <line class="cls-6" x1="403.96" y1="549.46" x2="402.25" y2="560.5"/>
      <line class="cls-6" x1="394.29" y1="547.17" x2="390.78" y2="557.79"/>
      <line class="cls-6" x1="384.77" y1="544.27" x2="379.93" y2="554.35"/>
    </g>
    <g>
      <path class="cls-6" d="M374.24,361.05s22.18-21.64,47.4-14.52"/>
      <line class="cls-6" x1="382.23" y1="360.79" x2="376.59" y2="351.14"/>
      <line class="cls-6" x1="389.31" y1="356.35" x2="384.94" y2="346.06"/>
      <line class="cls-6" x1="398.73" y1="353.2" x2="396.12" y2="342.33"/>
      <line class="cls-6" x1="408.34" y1="350.65" x2="407.15" y2="339.53"/>
    </g>
  </g>
</svg>