<?xml version="1.0" encoding="UTF-8"?>
<svg id="Layer_1" data-name="Layer 1" xmlns="http://www.w3.org/2000/svg" viewBox="0 0 1000 1000">
  <path d="M658.97,48.62c3.08-2.75,7.13-2.72,10.61-.72,10.04,5.76,5.63,24.33,8.02,25.95,8.99.57,34.06,4.11,32.86,16.68-.39,4.05-5.62,8.84-4.34,11.7.73,1.63,11.04,9.81,13.57,12.49,68.98,73.25,78.85,166.47,50.11,260.82,2.36,6.67,7.35,11.42,9.33,18.46,4.28,15.16-.83,29.45-8.66,42.24-1.29,2.11-6.39,6.92-5.75,9.05.22.73,11.2,8.45,12.52,8.63,3.4.46,18.91-5.33,25.05-5.87,18.34-1.62,36.05,6.03,27.15,27.12-1.52,3.6-6.01,7.77-6.59,10.44-1.43,6.52,3.13,12.8-1.01,21.92-5.88,12.95-30.92,19.68-32.68,23.3-1.29,2.67-.15,8-.62,11.37-4.61,33.38-24.68,38.01-53.11,46.84-2.88.89-18.06,4.08-18.77,4.74-1.75,1.64.41,1.69,1.47,2.01,35.19,10.56,60.84,33.36,55.4,73.27-4.65,34.11-31.2,94.81-48.69,125.18-27.74,48.18-88.26,58.39-124.59,12.23-3.03-3.85-11.47-21.74-12.57-22.41-2.09-1.27-11.53-.21-15.25-.75-16.06-2.32-31.49-26.75-37.23-40.73-1.4-3.42-5.72-18.67-6.45-19.53-1.39-1.65-5.77-2.49-7.78-1.69-5.98,2.37-17.36,22.42-15.36,29.67,14.92,2.71,29.74,10.57,36.25,24.86,3.44,7.56,9.36,27.99,7.34,35.69-1.98,7.53-14.77,11.77-15.32,14.57l9.27,36.38c9.37,11.31,15.24,35.82,4.52,47.42-15.09,16.32-54.47,41.87-75.98,46.97-27.97,6.63-68.6,4.24-97.52,2.5-21.95-1.32-45.14.27-47.47-27.5-1.12-13.37,5-34.92,13.47-45.45,2.05-2.55,11.61-10.13,12.02-10.97,1.25-2.55.03-6.95,1.26-10.73,1.62-5,8.33-8.16,9.71-11.28.92-2.09.55-4.94,1.47-7.52,3.18-8.9,7.97-12.55,8.13-23.91.19-13.39-10.79-29.25,5.6-38.3,3.01-1.66,12.79-3.72,13.24-4.25,2.13-2.53-11.36-26.81-14.35-28.96-2.45-1.77-14.57-2.6-19.55-4.44-6.18-2.28-9.49-6.42-14.1-8.89-11.85-6.35-17.68-6.15-27.42-17.56-20.9-24.47-25.27-59.23-16.77-89.7,1.33-4.77,6.97-14.68,7.28-17.8.29-2.94-2.66-8.81-2.98-12.9-.82-10.6,4.78-12.86-4.12-20.86-20.36-18.31-47.33-28.48-65.31-50.64-1.96-2.41-3.08-5.9-5.04-7.96-3.03-3.17-10.14-6.28-14.05-9.94-12.18-11.41-39.83-50.32-41.49-66.44-1.75-16.97,5.77-28.01,13.84-41.8-11.77-10-28.33-38.86-13.36-51.61,2.96-2.52,12.17-4.82,13.01-5.99,1.04-1.44,1.66-7.64,2.72-10.27,7.62-18.89,28.86-9.04,40.26.32,2.55,2.09,12.74,14.64,15.53,11.96,0-15.27,3.1-37.53,16.28-47.18,6.24-4.57,13.74-6.56,20.74-9.49,7.91-55.32,26.97-110.6,59.17-156.43,64.02-91.1,157.03-110.37,262.03-82.32,7.5,2,23.56,8.99,29.52,9.49,2.99.25,5.65-1.45,9.56-.57,2.32.53,4.63,3.47,6.38,3.65,3.97.4,6.95-12.14,9.64-14.54ZM357.66,123.23c7.9-2.09,5.05-2.52,9.97-7.52,11.82-12,23.19-21.64,38.04-27.91,17.03-7.18,34.73-12.53,51.9-1.95,2.13,1.31,13.52,10.07,14.51,11.48.65.92,4.71,14.4,5.28,16.7,4.79,19.18,2.41,51.45.28,71.64-3.71,35.24-13.3,69.52-22.99,103.4,12.2-5.47,22.52-5.2,34.67-.18,2.94,1.22,13.68,8.01,14.76,8.06.89.04,5.26-.81,5.59-1.56,1.84-4.13,3.02-19.52,4.28-25.5,10.88-51.7,40.35-134.94,99.65-146.2,47.52-9.03,96.92,35.82,108.32,79.68,10.42,40.11-2.05,70.85-4.32,109.13-.89,15.03,3.95,27.05,5.03,41.02,1.69,21.96-2.74,45.01-16.17,62.74l-12.81,16.66c1.67,1.53,36.55-17.29,40.67-19.8,18.2-11.12,21.61-22.24,28.62-41.33,40.72-110.74,4.92-238.92-103.28-294.04-74.52-37.97-187.25-50.76-258.93,2.11-12.7,9.36-23.23,20.53-33.39,32.09-3.4,3.86-7.86,4.77-9.69,11.29-2.87.76-2.35.98-3,4-.52.1-1.05-.23-1.76.22-.92.59-11.14,15.52-12.66,17.85-17.88,27.4-31.65,60.4-40.58,91.82,1.95,2.12,9.54-12.08,10.17-13.3,9.81-18.94,15.88-41.06,25.64-60.3,5.96-11.75,16.5-23.93,19.18-36.29.64-.12,2.83.21,3,0,.34-.41-.28-3.03,0-4ZM671.61,75.23c1.91-5.23.62-25.95-8.32-22.82-1.48.52-3.66,7.73-5.2,9.81-1.75,2.36-3.84,3.05-5.42,5.05,3.77.02,16.28,10.21,18.95,7.96ZM676.67,80.26c3,3,9.47,4.68,10.88,6.54.48.63,12.04,9.12,12.81,9.33,3.7,1.01,5.04-5.2,4.13-8.17-1.67-5.47-19.6-7.93-24.62-8.4-1.1-.1-3.4-1.19-3.19.7ZM432.46,85.57c-65.82,4.18-92.07,85.67-114.94,133.93-9.94,20.98-22.88,34.08-27.59,58.36-7.84,40.5-1.79,79.79,36.06,101.3,34.96,19.87,76.33,37.76,112.69,56.25,2.36,1.2,6,4.3,8.04,4.96,3.68,1.2,9.42-.65,14.32-.31,12.88.89,25.52,7.24,30.19,19.82,13.33-8.17,27.8-7.47,42.98-7.01,39.28,1.19,73.18,4.89,112.47-3.45,19.81-4.2,30.71-9.42,45.03-23.95,12.93-13.11,22.48-31.74,24.84-50.12,2.16-16.85-1.72-27.12-3.75-42.95-4.62-35.96,11.42-73.19,6.75-111.64-7.79-64.12-82.62-124.35-140.4-73.58-42.08,36.98-56.24,104.89-66.4,157.44.19,3.26,19.79,17.79,18.53,26.44-2.95,20.25-47.57,33.68-65.09,31.93s-37.89-23.25-42.04-39.92c-3.65-14.65-1.42-17.84,10.86-25.18,4.11-2.45,12.34-4.66,14.18-8.81,13.15-46.44,24.26-93.74,25.53-142.33.75-28.52-6.28-63.46-42.24-61.18ZM524.66,330.01c2.18-2.95-16.46-21.34-19.53-23.93-23.34-19.74-39.95-18.59-66.14-4.19-10.84,5.96-13.63,7.68-4.33,17.65,16.59,17.76,34.36,19.79,57.48,17.48,10.99-1.1,22.21-3.04,32.51-7ZM282.65,295.07c-34.61,6.32-36.03,45.41-27.28,72.71,13.55,42.28,63.81,70.25,104.07,81.85,19.34,5.57,37.26,7.68,56.71,11.31,1.63.3,1.73-.66,1.5,1.96-48.38-.61-99.82-15.5-136.01-48.43-13.1-11.92-26.46-28.23-31.51-45.44-.77-2.64-3.11-17.83-4.07-18.08-12.03.05-20.32,8.99-27.91,17.04-10.85,11.5-37.53,49.68-39.38,64.56-2.4,19.43,15.82,44.38,27.49,59.23,1.47,1.87,19.87,23.97,22.39,21.08.26-8.41,2.64-20.18,9-25.97-2.83,17.45-10.82,25.5,2.61,40.86,17.06,19.5,46.82,32.01,65.9,50.03,4.42-11.72,7.49-23.84,12.64-35.3,5.17-11.49,15.2-22.46,19.25-31.71,2.03-4.62,1.27-11.16,3.71-15.27,1.21-2.03,1.53-1.79,2.9-.09-1.74,5.71-.13,11.05-2.22,16.75s-8.77,13.32-11.96,19.02c-6.58,11.79-12.19,25.92-16.09,38.87-3.54,11.76-7.66,24.45-4.73,36.73,8.7-9.31,18.82-14.9,30.31-20.16s23.39-9.95,34.88-14.11c11.63-4.21,24.66-8.76,36.79-10.69.5,2.66-.57,1.74-2,2.44-23.58,11.54-79.49,25.1-94.51,43.5-23.38,28.65-18.64,96.92,14.17,117.73,4.59,2.91,10.25,4.34,15.03,6.96,8.63,4.75,15.9,12.44,27.3,12.17,1.25-1.14-9.75-11-10.5-12.96-3.42,7.86-8.45,7.83-4.99-1,7.79-19.91,56.19-36.48,73.22-48.74,12.91-9.29,5.34-14.13,1.25-25.69-12.68-35.83-17.25-63.67-12.97-101.91,2.56-22.83,12.25-43.49,18.73-65.21,1.19-3.99,4.35-9.67,4.85-13.21.42-3.01-2.06-4.7-2.53-7.58-1.53-9.44,1.98-16.33,5.94-24.4l-120.02-59.44c-18.69-9.71-42.21-34.22-46.74-55.2-.27-1.23-.98-10.02,1.75-7.26.81.82,1.49,8.2,4,8.98-1.05-12.02-2.95-23.92-1-35.96ZM508.16,300.06v1c.65-.33.65-.67,0-1ZM429.66,322.04c2.48,12.63,21,33.14,33.58,34.87,19.4,2.67,43.71-5.53,57.39-19.4-23.3,4.25-50.55,10.79-72.29-1.68l-18.69-13.79ZM235.66,348c1.02-1.12-5.78-7.46-6.99-8.5-12.88-11.07-33.48-20.26-36.02,4.5,3.8-.41,8.6,3.36,11.64,3.72,1.23.14,3.79-1.18,4.32-.68.2.19-.08,2.05.6,2.87,1.98,2.42,7.16,3.62,6.44,8.09-.99,1.01-13.47-5.76-16.02-6.46-20.69-5.72-31.38,6.21-23.17,26.14,1.67,4.06,9.14,14.88,12.67,17.31.84.58,1.05,1.36,2.5.97,5.48-12.47,14.1-23.26,23.5-32.98,5.7-5.89,12.12-13.7,20.51-14.98ZM601.66,527.34c-1.18-5.44.87-14.57,0-20.48,2.42-.39,1.89.25,2.46,1.99,1.85,5.57.72,13.37,3.11,17.92,1.44,2.74,7.51,7.18,9.94,10.05,14.65,17.33,29.39,36.97,28.49,60.96,7.34-.79,14.1-4.33,21.51-4.98,8.53-.75,16.62,1.35,25.03,1.02,14.95-.59,67.99-15.61,78.93-25.04,7.71-6.64,13.53-23.48,12.58-33.51-.61-6.41-7.99-12.27-8.6-21.37-1.08-16.09,2.22-39.95-3.48-55.46-1.03-2.81-9.51-9.43-11.49-9.28-.74.06-9.36,7.45-11.82,8.93-56.09,33.75-129.31,47.78-194.16,41.78-8.1-.75-19.8-4.03-27.01-4.07-13.03-.06-29.4,5.97-42.69,7.46-1.64.18-2.5,1.06-3.79-.89l33.01-8.98.99-1.5c-3.65-.39-8.2-1.46-10-5,33.98,6.51,68.71,11.1,103.49,8.97,40.9-2.5,101.73-20.89,136.82-42.14,23.58-14.28,42.21-46.8,22.2-71.72-1.62-.04-10.86,20.12-13.53,23.43-12.66,15.71-70.04,39.54-90.46,45.5-49.4,14.43-87.62,7.79-136.98,6.93-24.01-.42-27.18,2.29-44.06,17-1.17,1.02-5.11,2.96-5.27,3.22-.72,1.23-.37,18.69-1.87,23.62-1.99,6.56-7.19,3.79-9.85,6.14-4.7,4.16-10.83,29.95-12.01,36.95-5.31,31.56-3.88,70.62,12.18,98.85,35.3-11.68,68.46-31.41,105.97-35.76,15.07-1.75,41.3-2.17,55.35,3.39,4.15,1.64,6.53,4.82,10.5,6.48,4.21-9.54,3.98-21.08,2.24-31.19-2.2-12.8-8.44-22.8-15.9-33.06-3.06-4.21-21.46-24.49-21.82-26.16ZM476.66,472.89c5.57-5.02,12.37-8.28,7.01-16.49-5.29-8.09-24.42-15.03-32.93-9.91-5.41,3.25-9.93,16.69-6.58,22.4,1.95-1.7,5.65-13.23,6.64-13.93.41-.29,3.12,1.56,3.86-.55.12-.33-3.35-.76-2-3.49,3.51,1.07,5.03-2.52,7.54-3.01,3.12-.6,10.34,1.21,11.95,4.06.6,1.05.21,2.73.79,3.67.43.69,3.73,1.77,3.73,2.77v14.49ZM468.66,452.92c-2.48-.02-6.74-3.01-8.5-1.06s-5.04,14.98-4.53,17.53,6.52,3.86,7,3.5c.84-.63,4.82-17.36,6.03-19.97ZM779.67,477.88c9.54-2.88,18.2-4.08,28.02-1.52,2.88.75,9.72,4.79,11.26,4.39,2.61-.66,5.74-7.25,6.27-9.8,4.09-19.89-14.95-19.36-28.8-16.78-3.23.6-14.5,3.65-17.05,4.94-3.39,1.71-.28,8.33.17,11.41.35,2.44.05,4.93.13,7.37ZM472.65,458.91c-2.98-.52-1.58.79-2.1,2.34-2.68,7.96-2.84,18.27-13.86,14.1-8.11-3.07-4.43-6.39-4.04-13.45-.23-.31-1.18.51-1.5.99-2.66,4.07-7.7,18.19-9.51,23.47-.63,1.84-3.6,10.55-2.95,11.44,5.09,2.18,28.1,7.43,31.49,4.09,1.35-1.33,2.3-13.47,2.46-16.52.47-8.77-.32-17.68,0-26.46ZM813.31,510.51c5.64-6.1,8.22-19.06,1.27-25.05-5.16-4.45-22.83-5.49-29.47-4.62-8.09,1.06-3.39,12.26-3.45,17.53-.06,4.97-1.72,10.35-1.02,16.01.49,4.01,3.26,6.63,4.09,10.44,2.14,1.6,25.69-11.18,28.59-14.31ZM448.66,509.85c1.43-6.07-6.88-5.66-10.99-7.99-3.57,11.36-8.96,22.1-11.72,33.76-10.85,45.88-2.99,92.33,15.2,135.07.55,1.3,1.69,3.53,3.13,3.81,2.68.51,23.73-9.54,24.03-12.28-4.22-11.07-11.19-21.46-14.94-32.7-9.71-29.08-10.08-69.82-1.73-99.21,2.31-8.12,5.74-15.73,9.01-23.46l-8.99-1c-1.04,4.04,6.22,1.92,4.98,4.48s-6.69.24-8.99,2.53l5.98,4.48c-1.24,2.54-7.46.55-7.97,3.01-.7,3.34,6.05,2.81,4.98,4.97-1.15,2.34-5.53.64-6.98,3.03-.57,2.71,5.95,3.45,4,5.47-.25.26-5.81,1.22-7,2.02,1.02,3.11,3.22,2.51,5.48,3.02,4.9,1.11-2.13,3.55-4.48,2.96-1.58,3.55,7.49,2.42,4.99,4.98-.75.77-10,.85-4.59,3.13.49.21,5.54.88,3.59,2.87-.7.72-5.91.51-6.99,2.53l6,1.49v2.99c-7.62-1.03-9.91,3.42-1,3.01.55,4.37-8.73.74-5.41,6l5.42.49c0,3.69-5.61,2.09-6.01,2.5-.14.14-.14,3.83,0,3.98.25.26,8.89-.86,6,1.99-1.23,1.21-6.8-.33-7,4l6.99,1.52c.24,3.28-6.31-.12-6.91,3.09-.19,1,1.15,2.23.93,3.4,3.38-1.3,7.01-2.57,6,1.99h-5.01s0,4,0,4c1.25.29,4.71-.64,5.01.51.83,3.19-6.63.77-5,4.97,1.26,3.24,5.45-1.98,5.99,3.49l-5.98,2.51c1.13,4.38,4.57,1.06,6.96,4-2.43,2.26-6.56,3.37-5.98,7.49.31.3,9.74-1.7,6.99,1.99-.24.32-8.04,1.74-5.99,4,1.46,1.61,6.88-1.14,7.99,1.52.23.55-6.84,2.52-6.95,3.98-.02.27,1.9,3.39,2.44,3.42.66.04,4.87-4.09,6.5-.4.98,2.23-6.38,3.06-5.99,3.98,1.59,3.68,7.08-2.27,7.99,3.01.22.67-5.58.96-5.98,3.06-.06.3,1.93,4.2,2.14,4.32.74.43,5.12-1.67,6.84-.89.6,2.86-3.76,3.25-4.55,4.96-.19.42.44,2.92.56,3.02.9.77,4.16-2.89,5.99-1.99,1.19,2.44-4.9,2.95-2.98,4.99.3.32,7.09-5.18,7.98-.51-1.54,2.26-16.25,9.2-16.99,8.5-1.11-3.67,6.97-4.39,5.98-6.47-1.84-2.95-9.6.24-6.75-4.32.27-.44,2.35-.57,2.63-1.75,1.55-6.67-7.07-3.74-7.87-4.44-.87-2.7,3.35-3.48,3.77-4.18,2.34-4-2.73-2.48-5.19-2.79-2.6-3.86,2.62-3,4.4-5.51-1.6-5.82-6.69-1.1-7.97-4.01-1.15-2.61,5.23-1.12,3.99-4.48l-6-1.51c11.56-5.33.41-5.04-.01-5.49-2.5-2.67,4.11-4.32,4.59-4.93.16-.2-.46-4.82-.63-5-.48-.49-4.63.21-5.95-.06-1.07-4.11,2.67-3.28,6.01-4,.44-6.33-5.69-3.02-7-3.99-2.99-2.22,5.76-2.73,6-3-.23-4.47-1.98-4.38-6.01-3.99-1.94-4.49,4.95-2.33,4.99-4.49.03-1.56-4.79-1.74-5.99-1.5-1.46-4.92,3.73-1.7,5-4.5,1.69-3.74-3.59-1.61-4.98-4-.09-3.51,6.9.74,5-3.98-.34-.84-12.49-2.47.99-4.5-.84-4.75-11.43-4.76,0-7,.69-3.51-4.74-1.18-4-4.97,1.86-.29,4.35-1.01,5-3-2.72,1.15-5.82-1.27-4.01-3,.28-.26,5.38.53,6-3.51-2.46-.06-9.28-.83-5.41-3.58,1.17-.83,9.14-.8,4.14-3.16-.36-.17-5.96-.92-3.73-2.74.77-.63,9.88.21,4.36-3.88-1.03-.76-4.25-.77-3.35-2.6,1.16-2.34,5.53-.64,6.99-3.03l-3.99-5.96,5.99-2.03c.45-2.12-3.9-2.94-3.95-3.97-.17-3.85,6.43-1.66,6.95-4.03.28-2.48-4.48-2.64-3.99-4.97.42-2,5.33-1.55,7-1.52ZM681.16,597.77c-3.17-.8-12.88,0-17,0-1.54,0-18.07,4.82-18.59,5.65-.38.6-2.83,13.04-2.69,13.73.25,1.26,5.06,4.61,6.3,4.61,2.01,0,26.51-22.73,33.48-22,.25-.34-1.14-1.9-1.5-1.99ZM757.65,627.74c.34-3.36-1.83-5.37-3.97-7.51-40.07-40.26-88.92-16.21-115.44,24.57-2.99,4.59-16.84,30.97-19.28,31.71-4.47,1.36-10.4-1.85-10.31-6.82-4.05,1.48-3.88,3.55-9.38,2.92-7.07-.81-5.46-5.22-7.55-6.45-1.17-.69-7.94,2.85-11.49-2.52-2.73-4.12-.43-7.54-.57-11.93-24.46,7.75-42.04,38.7-45.54,62.89-2.28,15.75,11.9,41.97,22.58,53.47,6.95,7.49,14.25,11.88,24.97,10.51.45-1.73-.72-2-1.49-3-6.02-7.83-12.38-11.23-15.98-22-2.09-6.25-4.62-17.84.46-22.95.61,12.87,3.2,23.88,11.5,33.98,3.71,4.52,9.38,8.4,12.93,13.06,9.47,12.45,12.17,24.63,25.09,36.87,1.27,1.2,10.55,8.87,11.49,7.99-10.73-16.74-5.43-38.41-1.13-56.57,10.71-45.26,36.47-119.77,83.15-138.72,15.48-6.28,35.36-9.05,49.97.48ZM609.65,611.76c-16.99-.02-33.29-.87-50.03,2.45-32.65,6.49-61.5,25.28-93.96,32,4.62,8.22,4.43,11.92,15.26,10.25,36.84-13.9,72.08-33.82,111.96-37.99l16.77-6.71ZM630.66,619.73c-8.44-10.63-29.41-1.13-38.69,4.81-9.6,6.14-15.38,11.84-11.29,24.17,1.36.97,7.88-6.49,9.66-7.82,11.57-8.66,26.93-15.9,40.33-21.16ZM583.91,662.46c4.54,4.71,10.18-7.67,13.2-10.79,12.57-12.96,32.22-19.76,48.53-26.43-3.5-5.25-8.98-3.72-14.2-2.22-8.46,2.43-38.61,19.27-44.22,25.76-2.55,2.94-6.7,10.17-3.31,13.68ZM580.66,625.75c-.72-.55-28.58,8.92-31.38,8.98-6.68.16-47.12,19.46-56.65,23.44-5.44,2.27-15.83,4.54-19.93,7.08-6.93,4.3-12.47,9.39-21.35,12.62-4.22,1.53-9.23.65-10.65,1.27s-7,6.94-10.12,8.96c-13.89,8.97-31.81,15.44-46.24,24.73-2.97,1.91-18.72,13.12-18.72,15.31.22,2.79,3.56,3.19,5.06,4.97,4.27,5.06,11.48,17.78,15.53,21.44,1.41,1.28,4.19,1.43,5.02,3.06.79,1.54-.5,3.26-.13,5.02,1.18,5.7,9.28,16.71,10.51,23.51,13.17-.52,26.35-1.09,39.54-1.56s27.21-3.93,39.01,3.97l23.44-8.01c-5.96-21.81-6.79-43.27,10.04-60.39-8.14-3.93-17.89-2.88-26.75-4.77-1.24-.26-3.38.28-1.22-1.7.97-.89,10.67-2.79,12.5-2.8,3.83-.03,9,1.67,12.96,1.83,5.95.24,12.4-.87,18.53-.05,3.48-22.46,15.24-45.85,34.07-59.37,2.66-1.91,9.21-3.74,10.48-6.6.77-1.73-.89-6.22-.1-10.01.9-4.27,4.14-7.5,6.55-10.92ZM726.44,627.01c-55.51,6.33-84.11,89.29-95.7,135.17-5.79,22.91-16.24,66.09,19.38,69.4,28.25,2.62,58.55-18.31,71.73-42.32,17.33-31.58,36.52-76.17,44.74-111.15,7.6-32.34-3.77-55.25-40.15-51.1ZM641.17,631.76c-7.97,3.06-16.11,6.2-23.53,10.45-5.21,2.98-27.93,17.86-20.04,25.03,5.88,5.35,10.77-7.59,14.57-11.52,2.66-2.75,8.47-6.89,11.77-9.22,6.32-4.47,14.95-6.5,17.23-14.74ZM631.65,646.72c-6.39,4.36-19.13,12.16-19.99,20.58-.5,4.87,3.71,7.03,7.51,4.4l12.47-24.98ZM483.16,832.54c-5.71,1.23-15.3-.91-21.5,0,5.74,4.14,22.43,12.76,12.68,21.66-7.94,7.25-19.6-5.23-27.45-7.41-4.28-1.19-9.78-1.3-14.23-1.25l18.67,6.81c6.76,3.19,15.71,7.73,11.2,16.53-2.25,4.38-6.49,5.49-11.16,4.4-2.93-.68-4.06-3.3-6.44-4.55-15.73-8.26-54.96-8.47-72.28-4.73-4.13.89-17.36,3.25-15.5,8.5,5.77-3.15,12.78-6.92,19.5-5.49-6.71,5.81-16.43,8.04-23.49,13.49-9.67,7.46-17.47,19.48-18.07,31.98.86,1.41,10.31,4,12.54,4.52,33.32,7.64,110.69,7.24,142-6.06,10.01-4.25,47.74-28.35,49.85-38.16s-9.52-34.06-9.82-45.23c-.59,1.95-22.34,7.53-17.99,2.01.67-.85,16.57-6.57,20.02-8.49,10.26-5.72,15.4-9.09,12.49-21.51-4.68-19.94-10.68-36.77-32.71-42.24-6.67-1.66-6.42-1.13-5.78,5.78.46,4.96,2.73,9.52,2.99,14.49l8.48-4c1.19.6.46,3.03-.01,3.98-3.31,6.7-27.04,12.96-34.48,15.02,1.26,5.48,4.31,12.3-.5,16.95-1.53.07-2-9.08-2.76-11.21-2.4-6.65-8.87-8.8-15.36-9.63-19.25,1.75-39.79.85-58.86,2.89-14.12,1.51-16.16,6.26-14.52,19.96,10.75,1.58,20.63,2.2,31.54,2.04,2.36-.03,4.56-1.06,6.92-1.08,11.39-.11,46.01-1.8,54.56,1.52,9.29,3.61,6.95,16.89-.52,18.5ZM396.66,788.56c.13-.17-1.25-3.58-1.54-3.99-1.34-1.86-11.61,1.98-13.85,3.13-11.13,5.66-7.43,14.8-5.62,24.86l11-1.01c-1.22-6.96-2.22-14.62,3.66-19.82,1.74-1.54,6.13-2.9,6.35-3.18ZM376.8,824.41c.8,1.29,25.66,3.57,30.06,4.43,12.25,2.41,27.07,7.38,38.47,12.52,5.53,2.49,19.69,12.22,24.35,10.75,11.75-3.71-8.84-14.93-12.34-16.76-16.59-8.66-52.8-20.98-71.18-20.58-4.96.11-12.88,3.97-9.36,9.64ZM475.16,816.55c-16.2-1.66-35.02,1.23-51.5,0l29.74,11.75c8.2-.2,17.8,1.08,25.82.29,3.31-.32,5.58-1.13,6.29-4.8,1.12-5.75-6.1-6.82-10.35-7.25ZM384.65,829.55l-8.99-1v4.99c2.46-.7,5.07-1.25,7.52-1.98,1.44-.43,1.77.61,1.47-2.01ZM393.16,840.53c11.67-1.03,24.68.76,36.5,0,.23-1.46-1.68-1.31-2.75-1.74-15.81-6.29-29.66-8.2-46.03-2.54-5.36,1.85-11.8,4.81-11.71,11.28,6.86-3.62,16.27-6.32,23.99-7ZM359.66,863.5c23.23-8.15,59.58-8.88,82.78-.27,4.99,1.85,9.49,7.91,14.19,5.76,11.63-5.32-9.9-14.43-14-15.94-18.79-6.95-49.42-12.41-68.18-4.23-1.08.47-3.75,1.38-3.79,2.69,12.26-1.98,23.81-4.41,36.24-1.72.97.21,3,.35,2.75,1.72-16.01.67-38.58-1.12-49.99,11.99ZM331.66,916.96c-.88,3.55,0,14.41,0,18.98,0,1.82,3.15,9.02,4.76,10.51,6.7,6.16,26.61,8.52,35.69,9.02,29.9,1.64,82.71,3.81,109.9-7.18,15.81-6.39,49.69-28.36,61.18-40.78,8.01-8.66,5.54-18.46,3.17-29.21-.37-1.68-1.19-5.94-2.69-6.78-4.07,14.66-21.59,26.35-34.1,34.37-27.04,17.34-47.28,18.07-78.45,19.53-26.26,1.23-61.89,2.73-87.24-4.67-4.21-1.23-7.25-3.72-10.24-4.79-.99-.35-1.84.45-1.98,1.01Z"/>
  <path d="M508.16,300.06c.65.33.65.67,0,1v-1Z"/>
  <path d="M636.12,413.27c-6.79,0-13.92-2.55-20.4-8.84-8.5-8.25-11.61-18.49-8.75-28.84,3.15-11.38,13.05-20.85,24.64-23.57,10.2-2.39,19.85.8,27.18,8.98,13.87,15.49,8.96,33.34-1.48,43.37-5.48,5.27-13.1,8.9-21.2,8.9ZM638.08,355.26c-1.82,0-3.67.22-5.55.66-10.05,2.35-18.97,10.88-21.7,20.74-2.46,8.88.27,17.72,7.68,24.9,12.3,11.93,27.31,8.32,36.04-.07,9.09-8.74,13.37-24.3,1.27-37.82h0c-4.95-5.53-11.11-8.41-17.74-8.41Z"/>
  <path d="M596.45,272.39c20.8-1.27,43.08,6.73,55.02,24.36,4.12,6.08,10.66,17.12,5.2,23.8-7.71,9.45-14.62-5.96-18.5-10.51-16.13-18.91-40.32-21.76-62.78-12.74-5.12,2.06-14.93,9.72-17.72,10.31-8.34,1.76-9.41-7.86-5.01-14.04,8.76-12.3,29.14-20.29,43.79-21.18Z"/>
  <path d="M325.12,337.94c-2.98,0-6.31-.44-10.01-1.49-13.25-3.75-21.23-15.15-20.31-29.03.78-11.83,8.61-24.78,24.33-27.07h0c16.74-2.43,24.72,6.61,27.98,12.21,6.27,10.76,5.36,26.16-2.12,35.82-3.06,3.95-9.28,9.55-19.87,9.55ZM319.71,284.32c-13.51,1.96-20.24,13.15-20.92,23.37-.6,9.05,3.6,21.01,17.41,24.92,10.82,3.06,19.92.7,25.63-6.67,6.54-8.44,7.33-21.92,1.83-31.35-4.76-8.17-13.27-11.82-23.95-10.27h0Z"/>
  <path d="M372.49,225.37c21.3-.49,51.38,17.8,55.94,39.44,1.57,7.46-2.75,14.87-10.16,10.16-2.35-1.49-8.92-12.88-12.58-16.4-14.27-13.72-31.81-19.51-50.7-11.64-4.8,2-18.33,12.96-21.11,3.46-4.69-15.99,27.23-24.76,38.62-25.02Z"/>
  <path d="M420.66,511.86c1.48,1.4-.1,1.81-1.48,1.99-9.92,1.26-20.2-1.4-30.03-1.99s-20.68-.98-31.01-1.01l-1.48-2c8.16-1.94,60.27-.54,64,3Z"/>
  <path d="M468.4,491.11c1.74,1.5,1.45,6.27-.23,7.77-2.56,2.3-33.7.74-24.57-9.58,2.12-2.4,23.07.32,24.8,1.8ZM465.66,493.87c-5.84.43-13-2.81-18.43-3-.46-.02-1.67,2.85-1.57,2.98.42.59,12.41,1.99,14.45,2.06s6.47,1,5.55-2.04Z"/>
</svg>