<?xml version="1.0" encoding="UTF-8"?>
<svg id="LOGOS" xmlns="http://www.w3.org/2000/svg" viewBox="0 0 1000 1000">
  <defs>
    <style>
      .cls-1 {
        fill: none;
        stroke: #231f20;
        stroke-miterlimit: 10;
        stroke-width: 4px;
      }

      .cls-2 {
        fill: #231f20;
      }
    </style>
  </defs>
  <path class="cls-2" d="M729.33,454.38c-3.13-15.74-12.33-29.71-25.46-38.83,2.84-15.72-.53-32.11-9.45-45.46-8.92-13.35-22.77-22.73-38.39-26.12-6.12-28.09-31.52-48.85-60.49-48.85-3.71,0-7.43.34-11.1,1.01-11.49-16.53-30.71-26.66-50.97-26.66-11.97,0-23.47,3.4-33.47,9.86-10-6.46-21.5-9.86-33.47-9.86-20.26,0-39.47,10.13-50.97,26.66-3.67-.67-7.39-1.01-11.1-1.01-28.97,0-54.37,20.76-60.49,48.85-15.62,3.39-29.47,12.77-38.39,26.12-8.92,13.35-12.29,29.74-9.45,45.46-13.13,9.12-22.33,23.09-25.46,38.83-3.13,15.75.02,32.18,8.66,45.62-8.64,13.44-11.79,29.87-8.66,45.62,3.13,15.74,12.33,29.71,25.46,38.83-2.84,15.72.53,32.11,9.45,45.46,8.92,13.35,22.77,22.73,38.39,26.12,6.12,28.09,31.52,48.85,60.49,48.85,3.71,0,7.43-.34,11.1-1.01,5.74,8.27,13.42,14.93,22.19,19.53,8.77,4.6,18.65,7.13,28.78,7.13,11.97,0,23.47-3.4,33.47-9.86,10,6.46,21.5,9.86,33.47,9.86,20.26,0,39.48-10.13,50.97-26.66,3.67.67,7.39,1.01,11.1,1.01,28.97,0,54.37-20.76,60.49-48.85,15.62-3.39,29.47-12.77,38.39-26.12,8.92-13.35,12.29-29.74,9.45-45.46,13.13-9.12,22.33-23.09,25.46-38.83,3.13-15.75-.02-32.18-8.66-45.62,8.64-13.44,11.79-29.87,8.66-45.62ZM692.46,573.96c-2.75,1.62-4.36,4.55-4.36,7.63,0,.73.09,1.47.28,2.2,1.01,3.94,1.5,7.88,1.5,11.75,0,22.76-16.7,43.07-40.37,46.44h0c-3.9.55-6.97,3.62-7.52,7.52h0c-3.94,27.71-31.08,45.85-58.19,38.88-.73-.19-1.47-.28-2.2-.28-3.08,0-6.01,1.61-7.63,4.36-8.83,14.95-24.51,23.07-40.49,23.07-9.77,0-19.66-3.04-28.15-9.42-1.58-1.19-3.45-1.78-5.32-1.78s-3.74.59-5.32,1.78c-8.49,6.38-18.38,9.42-28.15,9.42-15.98,0-31.66-8.12-40.49-23.07-1.62-2.75-4.55-4.36-7.63-4.36-.73,0-1.47.09-2.2.28-3.94,1.01-7.88,1.5-11.75,1.5-22.76,0-43.07-16.7-46.44-40.37h0c-.55-3.91-3.62-6.98-7.52-7.53-23.68-3.37-40.38-23.68-40.38-46.44,0-3.87.49-7.81,1.5-11.75.19-.73.28-1.47.28-2.2,0-3.08-1.61-6.01-4.36-7.63-14.95-8.83-23.07-24.51-23.07-40.49,0-9.77,3.04-19.66,9.42-28.15,1.19-1.58,1.78-3.45,1.78-5.32s-.59-3.74-1.78-5.32c-6.38-8.49-9.42-18.38-9.42-28.15,0-15.98,8.12-31.66,23.07-40.49,2.75-1.62,4.36-4.55,4.36-7.63,0-.73-.09-1.47-.28-2.2-1.01-3.94-1.5-7.88-1.5-11.75,0-22.76,16.7-43.07,40.38-46.44,1.95-.28,3.69-1.18,5.02-2.5,1.32-1.33,2.22-3.07,2.5-5.02,3.37-23.68,23.68-40.38,46.44-40.38,3.87,0,7.81.49,11.75,1.5.73.19,1.47.28,2.2.28,3.08,0,6.01-1.61,7.63-4.36,8.83-14.95,24.51-23.07,40.49-23.07,9.77,0,19.66,3.04,28.15,9.42,1.58,1.19,3.45,1.78,5.32,1.78s3.74-.59,5.32-1.78c22.38-16.81,54.4-10.44,68.64,13.65,1.62,2.75,4.55,4.36,7.63,4.36.73,0,1.47-.09,2.2-.28,3.94-1.01,7.88-1.5,11.75-1.5,22.76,0,43.07,16.7,46.44,40.38.28,1.95,1.18,3.69,2.5,5.02,1.33,1.32,3.07,2.22,5.02,2.5h0c27.7,3.94,45.84,31.08,38.87,58.19-.19.73-.28,1.47-.28,2.2,0,3.08,1.61,6.01,4.36,7.63,14.95,8.83,23.07,24.51,23.07,40.49,0,9.77-3.04,19.66-9.42,28.15-1.19,1.58-1.78,3.45-1.78,5.32s.59,3.74,1.78,5.32c6.38,8.49,9.42,18.38,9.42,28.15,0,15.98-8.12,31.66-23.07,40.49Z"/>
  <g>
    <path class="cls-2" d="M627.85,388.82c17.77,0,31.92,8.14,38.81,22.32,3.29,6.75,4.97,14.79,4.97,23.89,0,3.82-.27,7.82-.8,11.9-2.24,17.22-9.17,35.5-19.51,51.47l-1.56,2.4,1.77,2.25c4.46,5.66,8.32,11.43,11.48,17.14,10.26,18.65,11.65,34.28,11.65,47.06-.07,6.84-1.19,13.29-3.33,19.14-6.44,17.47-21.82,28.31-40.14,28.31-22.48,0-36.56-14.15-41.56-20.23l-3.52-4.27-2.95,4.68c-8.3,13.15-19.8,19.82-34.18,19.82-19.44,0-32.39-8.13-40.76-25.6l-.88-1.84-2-.37c-1.08-.2-2.21-.47-3.44-.83l-3.3-.97-1.45,3.12c-4.22,9.06-9.6,15.6-16.44,19.98-6.83,4.38-14.96,6.5-24.86,6.5-15.23,0-26.14-5.42-33.36-16.57l-2.95-4.55-3.48,4.17c-9.38,11.25-21.82,16.95-36.97,16.95-21.62,0-35.45-10.23-43.53-32.21-3.7-10.06-6.23-22.78-7.76-38.89v-.03c0-.07-.01-.15-.02-.23-1.27-13.48-1.88-29.86-1.88-50.09,0-31.32,3.35-54.88,10.24-72.02,4.18-10.38,9.72-18.37,16.48-23.75,6.64-5.28,14.66-8.18,23.87-8.63.8-.04,1.65-.06,2.6-.06,14.92,0,26.54,5.44,34.55,16.18.48.64.92,1.26,1.35,1.91l3.08,4.62,3.41-4.39c8.67-11.18,19.69-17.48,31.87-18.24.82-.05,1.66-.08,2.5-.08,9.53,0,17.88,2.49,24.81,7.39,7.02,4.96,12.83,12.56,17.29,22.61.19.41.37.84.57,1.3.16.38.32.77.48,1.17l3.63,8.97,3.76-8.92c.18-.44.37-.87.54-1.27,8.71-19.75,22.88-30.24,42.18-31.17.86-.05,1.78-.07,2.9-.07,12.52,0,25.15,5.68,32.97,14.81.46.54.94,1.13,1.41,1.75l2.94,3.88,3.24-3.63c9.28-10.42,20.29-16.05,32.69-16.74,1.05-.05,1.86-.07,2.61-.07M570.43,478.21c-.91,0-1.68-.8-1.79-1.84-1.56-16.3,2.68-38.37,10.56-54.94l.42-.89-.04-.99c-.73-17.85-17.22-27.2-33.13-27.2-42.27,0-47.69,51.27-47.69,95.93,0,2.09,0,4.14.02,6.16v.22s.02,4.41.02,4.41l4.38-.45c1.04-.11,2.13-.16,3.23-.16,9.17,0,17.21,3.81,22.63,10.72,5.47,6.99,8.25,16.73,8.25,28.96,0,28.73-14.8,36.48-23.63,38.54l-5.14,1.2,2.55,4.62c6.93,12.56,17.51,18.67,32.35,18.67,13.16,0,23.81-7.27,30.79-21.04,6.58-12.96,9.92-31.32,9.92-54.56,0-1.09.91-1.76,1.76-1.76,1.12,0,1.77.64,1.77,1.76,0,14.9-1.88,29.71-5.31,41.68l-.29,1.01.24,1.02c3.73,15.68,20.96,31.89,43.33,31.89s34.62-14.52,34.94-38.84v-.03s0-.03,0-.03c0-15.78-1.69-34.71-21.82-59.55l-3.09-3.81-3.11,3.79c-2.34,2.86-5.09,5.69-8.38,8.66l-.08.07-.07.07c-.45.45-1,.7-1.56.7-.39,0-.94-.12-1.38-.69-.34-.6-.49-1.47.17-2.03l.05-.05.05-.05c21.98-20.15,36.19-51.32,36.19-79.4,0-24.3-12.52-37.68-35.25-37.68-11.04,0-21.33,4.91-29.77,14.19-14.62,16.08-22.79,44.21-20.33,69.97.04.42-.09.79-.38,1.11-.34.38-.85.59-1.4.59M403.56,475.78c-.9,0-1.68-.81-1.78-1.85-1.69-17.42.64-33.31,7.31-50.01l.51-1.28-.39-1.33c-5.86-20.03-16.87-28.97-35.69-28.97-16.89,0-29.09,9.84-36.25,29.24-5.66,15.31-8.41,37.13-8.41,66.69,0,42.71,2.26,66.96,7.79,83.7,6.59,19.93,18.31,29.21,36.87,29.21,12.96,0,23.52-4.38,31.37-13.02,12.6-13.85,17.36-37.89,14.17-71.47-.03-.3.14-.7.44-1.03.18-.2.66-.65,1.35-.65.95,0,1.7.84,1.78,1.58,2.79,26.64.3,39.98-4.93,54.01l-.43,1.15.29,1.2c3.34,13.66,8.9,28.23,32.72,28.23,1.12,0,2.05-.03,2.93-.09,1.25-.07,2.45-.18,3.55-.34.56-.07,1.09-.16,1.52-.24.72-.12,1.45-.27,2.17-.45.4-.08.75-.18,1.08-.26.98-.27,1.85-.54,2.65-.83.42-.14.84-.3,1.29-.48l.15-.06h.01s.03-.02.04-.02c.35-.15.7-.3,1.06-.46.28-.13.62-.28.97-.46.22-.11.48-.23.76-.39.4-.2.75-.41,1.03-.57.36-.2.69-.4,1-.61.15-.09.29-.18.43-.27.23-.15.47-.31.72-.49.31-.21.63-.44.97-.7.25-.18.49-.37.72-.55.33-.26.65-.52.98-.81.24-.21.46-.4.69-.62.21-.18.43-.39.66-.61.28-.27.56-.55.85-.84l.03-.03.03-.03c.26-.27.52-.55.78-.84.09-.09.16-.17.21-.24h2.15v-2.65l.03-.04.02-.03c.05-.07.1-.14.15-.22.21-.28.41-.57.61-.86.28-.4.56-.82.81-1.23.18-.28.35-.56.52-.85.09-.14.18-.29.27-.44.18-.3.35-.61.52-.9l.05-.09c.09-.16.19-.33.28-.5.15-.27.29-.54.45-.84.11-.21.23-.42.33-.64.16-.31.31-.62.46-.94.07-.13.13-.27.19-.4.21-.43.42-.88.63-1.38.18-.4.38-.87.58-1.37.03-.06.06-.13.09-.2l.02-.06.02-.06c.2-.5.4-1,.58-1.52.21-.55.41-1.1.61-1.67l.8-2.28-1.64-1.77c-6.51-7.02-9.95-17.68-9.95-30.83,0-17.45,6.17-30.75,16.92-36.49l2.08-1.11.04-2.36c.02-1.34.03-2.7.03-4.03.02-1.93.02-3.9.02-5.88,0-29.59-2.76-51.41-8.44-66.7-7.21-19.4-19.49-29.23-36.51-29.23-9.84,0-18.93,4.16-26.26,12.02-13.49,14.45-20.65,41.01-18.69,69.32v.04s0,.04,0,.04c.04.49-.14,1-.51,1.41-.35.39-.82.61-1.28.61M503.4,500.63c-.08,0-.16.02-.24.03-.24.02-.46.05-.67.08-.22.02-.41.05-.55.08-.23.04-.46.08-.69.12-.19.02-.38.06-.58.11-.2.04-.4.08-.59.12-.12.02-.23.05-.34.08-.31.07-.62.16-.93.25-.16.04-.32.09-.48.14-.12.03-.23.07-.33.11-.33.1-.65.21-.96.33-.65.24-1.21.46-1.72.7-.89.41-1.75.87-2.54,1.36-.52.32-.93.59-1.31.86-.37.26-.71.51-1.02.76-.15.12-.3.24-.46.37h-2.49v2.34l-.53.54v.08c-.24.28-.49.57-.74.89l-.04.05-.02.02c-.15.19-.3.38-.44.57-.29.38-.54.72-.78,1.08l-.07.1c-.22.32-.44.65-.64.99h0s-.05.1-.05.1l-.05.08c-.22.36-.44.74-.65,1.12-.04.06-.07.13-.11.2-.27.49-.49.92-.69,1.35-.15.3-.29.6-.44.93-.11.22-.21.45-.31.69-.23.52-.42.98-.56,1.38-.13.34-.26.69-.38,1.05-.03.08-.08.21-.13.36-.06.17-.11.34-.17.51-.09.24-.16.45-.22.67-.13.41-.25.83-.37,1.25-.07.23-.13.46-.18.69-.13.46-.24.9-.33,1.35-.04.14-.08.31-.12.52-.13.58-.25,1.18-.37,1.84-.02.12-.05.28-.08.46-.1.56-.18,1.09-.26,1.61-.02.12-.04.24-.05.36-.08.56-.15,1.09-.2,1.65-.04.26-.05.48-.06.64-.05.5-.1,1-.13,1.52-.02.24-.03.48-.04.72-.05.69-.08,1.37-.09,1.93-.03.73-.04,1.48-.04,2.37,0,.52,0,1.04.02,1.56v.11s0,.07,0,.07c.01.38.02.76.04,1.13.02.64.06,1.31.11,2.05.03.5.07.98.11,1.4.04.44.08.88.14,1.31.07.63.15,1.22.24,1.81.15,1.06.34,2.1.55,3.09.06.31.13.61.2.91.05.27.11.53.19.79.07.3.15.61.23.91.03.11.06.22.09.32.1.36.2.72.31,1.09.43,1.41.92,2.76,1.45,3.97.14.34.29.67.44.99.06.14.14.33.26.54.15.3.3.6.44.87.24.47.5.95.82,1.5.1.21.23.42.37.61.07.11.14.22.2.33.26.43.52.81.73,1.09.18.26.38.53.57.79.2.27.41.53.61.79.21.25.42.51.64.75.12.14.25.28.37.42l.06.07c.1.12.24.28.42.45.15.16.31.33.48.49,1.23,1.22,2.56,2.28,3.96,3.17.2.14.41.27.66.42.28.18.57.34.91.52.24.13.48.26.72.38.65.34,1.33.64,2.07.92.24.09.48.18.73.26.72.26,1.47.49,2.21.66.25.07.51.13.77.18.44.1.85.17,1.19.23.36.07.71.12,1.04.16h.01s.3.04.3.04l.25.03h.02c.16.02.32.03.47.05.3.03.61.05.92.07.19.02.35.02.48.02.45.03.93.04,1.48.04.43,0,.85-.01,1.25-.03.28,0,.55-.02.83-.04.31-.02.68-.04,1.08-.09.44-.04.84-.09,1.2-.14.09-.01.19-.03.29-.04.19-.02.35-.06.47-.08.77-.13,1.53-.29,2.25-.48.28-.07.59-.15.94-.26.53-.14,1.08-.32,1.71-.56.28-.1.54-.21.76-.3.24-.09.45-.18.61-.25.18-.07.4-.17.64-.3.22-.1.45-.21.68-.33.18-.08.35-.17.52-.27.29-.16.55-.31.8-.47.13-.07.3-.17.48-.28.23-.13.44-.27.64-.41.35-.22.7-.47,1.03-.73.23-.17.46-.35.69-.53.66-.51,1.32-1.1,2.02-1.79.19-.18.38-.38.58-.6.19-.19.37-.38.52-.56.45-.5.85-.98,1.22-1.47.23-.28.42-.55.59-.79.13-.16.23-.31.31-.45.18-.26.4-.57.61-.92.09-.12.16-.24.23-.36.2-.31.39-.64.58-.96.08-.14.16-.28.23-.42.16-.29.36-.64.54-1.03.06-.11.11-.22.16-.33.19-.36.36-.75.53-1.14.5-1.1.94-2.25,1.33-3.42.15-.44.32-.96.47-1.51.11-.36.22-.74.31-1.13.12-.43.22-.85.32-1.27.1-.4.19-.79.27-1.18.12-.55.21-1.07.29-1.56.07-.38.14-.78.2-1.21.03-.15.06-.36.09-.6.06-.38.11-.8.16-1.25.03-.22.06-.45.07-.68.04-.33.08-.66.1-1.02.04-.37.06-.72.08-1.04.03-.36.05-.71.07-1.07.04-.63.06-1.25.08-1.81.02-.72.03-1.45.03-2.19,0-27.78-14.92-37.68-28.88-37.68-.56,0-1.16.02-1.81.06-.41.02-.82.06-1.21.1M371.22,410.29c3.53,0,6.58.75,9.17,1.89-1.03-.12-2.09-.18-3.19-.18,0,0,0,0,0,0h0c-6.79,0-13.12,2.42-18.93,7.22,3.05-4.92,6.53-8.39,10.25-8.78h.11s.01-.01.02-.01c.45-.05.91-.08,1.36-.1h.02s0,0,0,0c0,0,0,0,.01,0,0,0,0,0,0,0,0,0,0,0,0,0,0,0,0,0,.01,0,0,0,0,0,0,0,.38-.02.77-.03,1.14-.03M451.7,410.3c.52,0,1.05.02,1.59.06,9.83.75,17.49,22.26,19.91,37.23-2.39-3.92-4.92-7.29-7.6-10.13,0,0,0,0,0,0,0,0,0,0,0,0,0,0,0,0,0,0,0,0,0,0,0,0-7.2-7.62-15.46-11.37-24.95-11.37h0c-3.04,0-6.17.38-9.47,1.16,3.1-7.08,9.42-16.92,20.56-16.92h0M627.85,384.82c-.93,0-1.86.03-2.78.07-13.46.75-25.58,6.94-35.5,18.08-.5-.66-1.02-1.31-1.56-1.94-8.43-9.85-22.04-16.21-36.01-16.21-1.06,0-2.1.02-3.13.08-20.9,1.01-36.24,12.29-45.61,33.55-.19.44-.38.88-.57,1.33-.17-.42-.34-.83-.51-1.23-.2-.47-.4-.94-.61-1.4-9.51-21.45-24.89-32.33-45.74-32.33-.93,0-1.85.03-2.76.09-13.35.83-25.42,7.73-34.77,19.78-.48-.72-.97-1.41-1.48-2.09-8.81-11.81-21.46-17.78-37.75-17.78-.95,0-1.88.02-2.81.07-20.18.98-34.93,12.71-43.85,34.88-7.08,17.61-10.53,41.65-10.53,73.51,0,20.1.6,36.65,1.9,50.49,0,.08,0,.16.02.23,1.59,16.77,4.19,29.55,7.99,39.89,8.61,23.44,24.07,34.83,47.28,34.83,16.28,0,29.97-6.32,40.04-18.39,8.01,12.36,20.1,18.39,36.72,18.39,21.17,0,35.91-9.43,44.93-28.8,1.26.37,2.54.69,3.85.93,8.99,18.75,23.53,27.87,44.37,27.87,15.72,0,28.58-7.46,37.56-21.69,9.39,11.41,24.78,21.69,44.65,21.69s36.85-11.85,43.89-30.93c2.3-6.28,3.51-13.15,3.58-20.49,0-13.33-1.44-29.58-12.14-49.03-3.25-5.89-7.22-11.83-11.84-17.69,10.68-16.49,17.79-35.22,20.12-53.13.55-4.25.83-8.43.83-12.42,0-9.69-1.8-18.32-5.37-25.64-7.59-15.61-23.05-24.57-42.41-24.57h0ZM570.43,482.21c3.34,0,6.07-2.73,5.76-6.07-3.33-34.89,14.26-79.79,46.12-79.79,19.11,0,31.25,10.01,31.25,33.68,0,26.09-13.05,56.43-34.89,76.45-2.13,1.82-2.43,4.85-.91,7.28,1.14,1.64,2.91,2.48,4.72,2.48,1.55,0,3.13-.61,4.38-1.87,3.03-2.73,6.07-5.77,8.8-9.1,19.42,23.96,20.93,42.17,20.93,57.03-.3,22.76-12.44,34.89-30.94,34.89-21.85,0-36.41-16.08-39.44-28.82,3.64-12.74,5.46-28.21,5.46-42.78,0-3.33-2.43-5.76-5.77-5.76-3.03,0-5.76,2.43-5.76,5.76,0,45.21-13.05,71.6-36.71,71.6-13.49,0-22.68-5.41-28.85-16.6,14.04-3.28,26.72-15.62,26.72-42.44,0-13.14-3.06-23.72-9.1-31.43-6.2-7.9-15.35-12.25-25.78-12.25-1.24,0-2.45.06-3.63.18,0-2.09-.02-4.21-.02-6.37,0-51.58,8.19-91.93,43.69-91.93,14.56,0,28.52,8.49,29.13,23.36-8.8,18.51-12.44,41.26-10.93,57.04.31,3.03,2.73,5.46,5.77,5.46h0ZM403.56,479.78c3.34,0,6.07-3.03,5.77-6.37-2.73-39.44,12.74-77.06,40.96-77.06,32.76,0,40.95,40.35,40.95,91.93,0,1.97,0,3.92-.02,5.84,0,1.35-.01,2.69-.03,4.01-11.91,6.36-19.04,20.71-19.04,40.02,0,14.38,4,25.98,11.02,33.55-.19.54-.38,1.07-.58,1.59-.18.49-.37.97-.56,1.45-.03.07-.06.14-.09.2-.18.46-.38.92-.58,1.37-.19.46-.4.9-.61,1.34-.03.08-.07.16-.11.23-.15.33-.31.65-.47.97-.08.17-.17.34-.26.5-.15.29-.3.58-.46.87-.09.18-.19.35-.28.51-.16.29-.32.57-.49.85-.06.11-.12.21-.19.31-.17.29-.35.58-.53.86-.22.36-.45.71-.69,1.05-.2.29-.4.58-.61.86-.05.08-.11.16-.16.23-.25.34-.51.67-.77,1,0,0,0,.02-.02.02-.2.26-.41.51-.62.76-.17.21-.35.41-.53.61-.04.05-.08.1-.13.15-.24.27-.48.53-.72.78-.28.28-.55.55-.82.81-.17.17-.35.34-.53.49-.21.2-.41.38-.63.57-.28.24-.56.47-.85.7-.2.16-.4.32-.61.47-.29.22-.58.43-.88.63-.22.16-.44.31-.67.45-.09.07-.19.13-.28.18-.29.19-.59.37-.89.54-.31.18-.62.36-.94.52-.23.13-.46.24-.69.35-.26.14-.52.26-.79.38-.34.15-.68.3-1.02.44-.04.02-.08.03-.12.05-.37.15-.74.29-1.12.42-.77.28-1.56.52-2.37.74-.3.08-.6.16-.91.22-.63.16-1.29.3-1.95.41-.46.08-.92.16-1.4.22-1.05.15-2.14.25-3.26.31-.88.06-1.77.08-2.69.08-20.63,0-25.49-11.52-28.83-25.18,5.77-15.47,7.89-29.73,5.16-55.82-.3-2.73-2.73-5.16-5.76-5.16-3.34,0-6.07,3.03-5.77,6.07,5.46,57.34-13.35,80.09-41.56,80.09-33.98,0-40.66-34.28-40.66-108.91,0-51.58,8.2-91.93,40.66-91.93,17.9,0,26.7,8.49,31.85,26.09-6.67,16.69-9.4,33.07-7.58,51.88.3,3.03,2.73,5.46,5.76,5.46h0ZM506.42,571.52c-.45,0-.9,0-1.34-.04-.1,0-.2,0-.3-.01-.3-.02-.6-.04-.89-.07-.16,0-.33-.03-.49-.05-.03-.01-.06-.01-.08-.01-.38-.05-.76-.1-1.14-.17-.35-.06-.69-.12-1.03-.2-.23-.05-.45-.1-.67-.16-.64-.15-1.27-.34-1.87-.56-.21-.07-.41-.14-.61-.22-.59-.22-1.16-.47-1.71-.76-.21-.1-.42-.21-.63-.33-.24-.12-.48-.25-.71-.4-.19-.11-.37-.22-.54-.34-1.2-.75-2.32-1.65-3.35-2.67-.18-.18-.36-.37-.54-.56-.05-.03-.08-.07-.11-.11-.16-.18-.33-.36-.49-.55-.19-.21-.37-.43-.55-.65-.17-.21-.35-.44-.52-.67-.17-.22-.34-.46-.5-.69-.21-.29-.41-.58-.59-.89-.12-.18-.23-.37-.35-.56-.02-.01-.03-.03-.03-.05-.29-.49-.58-1-.85-1.53-.16-.31-.32-.63-.48-.96-.05-.07-.08-.15-.11-.23-.15-.31-.29-.64-.43-.97-.49-1.13-.92-2.32-1.3-3.57-.11-.37-.22-.76-.32-1.14-.01,0-.02-.03-.02-.06-.09-.32-.17-.64-.24-.96-.06-.2-.11-.41-.15-.63-.07-.29-.14-.59-.2-.89-.2-.92-.37-1.87-.51-2.84-.08-.56-.16-1.12-.22-1.69-.05-.41-.09-.82-.13-1.24-.04-.42-.08-.84-.1-1.27-.05-.64-.09-1.3-.11-1.96-.02-.38-.03-.77-.04-1.15,0-.52-.02-1.04-.02-1.56,0-.75.01-1.48.04-2.21.02-.63.04-1.24.09-1.85,0-.23.02-.45.04-.67.03-.5.08-1,.13-1.49,0-.16.02-.32.05-.48.05-.59.13-1.17.21-1.74,0-.03,0-.06.01-.09.08-.58.17-1.14.27-1.7,0-.1.03-.21.05-.31.11-.62.23-1.22.37-1.82,0-.1.04-.19.07-.28.09-.46.2-.91.33-1.36.04-.19.09-.38.15-.57.11-.42.23-.83.36-1.23.04-.16.09-.31.15-.47.07-.21.14-.42.21-.62.02-.08.05-.15.08-.23.11-.33.23-.65.35-.96.16-.43.34-.86.53-1.29.06-.16.13-.32.21-.47.14-.31.28-.62.43-.92.2-.42.41-.82.63-1.22,0-.02.02-.04.03-.05.2-.37.42-.74.63-1.09.02-.03.04-.06.06-.09.21-.35.44-.69.66-1.02.21-.31.43-.61.66-.91.13-.18.27-.36.41-.54.4-.5.82-.99,1.27-1.45.11-.13.23-.25.35-.37h0s.07-.07.1-.1c.14-.15.28-.29.43-.42t.01,0c.18-.17.36-.33.54-.49.28-.25.56-.49.86-.72.29-.23.59-.45.89-.66.34-.25.7-.48,1.06-.7.68-.42,1.39-.8,2.13-1.14.46-.21.94-.4,1.43-.58.29-.11.58-.21.88-.3.05-.02.1-.04.15-.05.15-.05.3-.09.45-.13.3-.09.6-.17.9-.24.02-.01.03-.01.05-.01.24-.06.49-.11.75-.16.06-.02.13-.04.2-.04.27-.05.54-.1.81-.14h0c.09-.02.18-.04.27-.04h.01c.26-.04.53-.08.8-.1.01-.01.03-.01.05-.01.35-.04.71-.07,1.07-.09.52-.03,1.05-.05,1.59-.05,14.57,0,24.88,11.23,24.88,33.68,0,.7,0,1.39-.03,2.07-.02.59-.04,1.16-.08,1.73,0,.33-.03.65-.06.97-.02.33-.04.66-.08.98-.02.34-.06.68-.1,1.01-.01.18-.03.37-.06.55-.04.42-.09.84-.16,1.25,0,.16-.04.32-.07.49-.05.39-.12.78-.19,1.16-.07.48-.16.95-.26,1.41-.07.36-.15.71-.24,1.06-.09.41-.19.81-.3,1.21-.08.34-.17.67-.27.99-.13.47-.28.93-.43,1.38-.35,1.07-.75,2.1-1.19,3.07-.15.35-.31.69-.48,1.02-.03.07-.07.15-.11.22-.16.33-.34.66-.52.98-.05.1-.11.21-.17.31-.19.34-.39.67-.6.99,0,.03-.02.05-.05.08-.2.34-.42.66-.65.98-.04.07-.08.14-.14.2-.18.26-.36.51-.56.75-.33.44-.68.86-1.05,1.27-.15.17-.31.34-.47.5-.14.16-.29.32-.45.47-.55.55-1.11,1.06-1.71,1.52-.21.17-.42.33-.64.49-.26.21-.53.4-.81.57-.18.13-.37.25-.56.36-.13.09-.26.16-.39.23-.26.17-.51.31-.78.45-.05.04-.12.07-.19.09-.25.14-.51.27-.77.38-.15.09-.31.16-.46.22-.15.07-.3.14-.46.19-.23.1-.46.2-.69.28-.47.18-.96.35-1.46.48-.27.09-.54.16-.81.23-.65.17-1.32.31-2,.42-.09.02-.18.04-.27.05-.08.01-.17.03-.26.04-.36.05-.72.1-1.09.13-.32.04-.64.06-.97.08-.22.02-.43.03-.65.03-.37.02-.76.03-1.14.03h0ZM371.22,406.29c-1.01,0-2.05.05-3.12.17-16.34,1.72-24.16,39.7-24.4,40.88.24-1.18,8.06-39.16,24.4-40.88,1.07-.11,2.11-.17,3.12-.17,13.51,0,21.81,9.58,24.73,15.44.15.3.22.5.22.63,0-.12-.07-.33-.22-.63-2.92-5.85-11.22-15.44-24.73-15.44h0ZM371.22,406.29c-1.01,0-2.05.05-3.12.17-16.34,1.72-24.16,39.7-24.4,40.88,11.11-25.03,23.54-31.34,33.5-31.34,10.12,0,17.71,6.5,18.83,6.5.09,0,.14-.05.14-.15,0-.12-.07-.33-.22-.63-2.92-5.85-11.22-15.44-24.73-15.44h0ZM451.7,406.3c-20.77,0-26.93,27.1-26.93,27.1,0,0,6.16-27.1,26.93-27.1.62,0,1.25.02,1.89.07,15.92,1.22,24.41,36.84,24.41,49.78,0-12.95-8.5-48.56-24.41-49.78-.64-.05-1.28-.07-1.89-.07h0ZM451.7,406.3c-20.77,0-26.93,27.1-26.93,27.1,5.45-2.1,10.74-3.34,15.84-3.34,12.37,0,23.6,7.27,33.23,27.08,1.24,2.55,2.2,3.66,2.88,3.66.86,0,1.28-1.76,1.28-4.65,0-12.95-8.5-48.56-24.41-49.78-.64-.05-1.28-.07-1.89-.07h0ZM377.2,416c-9.97,0-22.39,6.31-33.5,31.34,11.11-25.03,23.54-31.34,33.5-31.34,10.12,0,17.71,6.5,18.83,6.5.09,0,.14-.05.14-.15,0,.1-.05.15-.14.15-1.12,0-8.71-6.5-18.83-6.5h0ZM440.61,430.06c-5.1,0-10.39,1.24-15.84,3.34,5.45-2.1,10.74-3.34,15.84-3.34,12.37,0,23.6,7.27,33.23,27.08,1.24,2.55,2.2,3.66,2.88,3.66.86,0,1.28-1.76,1.28-4.65,0,2.89-.42,4.65-1.28,4.65-.68,0-1.64-1.11-2.88-3.66-9.63-19.81-20.86-27.08-33.23-27.08h0ZM505.24,510.1c-.72,0-1.47.04-2.23.14-.17.02-.35.05-.52.08-3.71.6-7.71,2.59-10.72,7.55,3.01-4.96,7.01-6.95,10.72-7.55.17-.03.35-.06.52-.08.76-.1,1.51-.14,2.23-.14,4.35,0,7.75,1.53,7.75,1.53,0,0-3.41-1.53-7.75-1.53h0ZM505.24,510.1c-.72,0-1.47.04-2.23.14-.17.02-.35.05-.52.08-3.71.6-7.71,2.59-10.72,7.55,3.01-4.96,7.01-6.95,10.72-7.55.17-.03.35-.06.52-.08.76-.1,1.51-.14,2.23-.14,4.35,0,7.75,1.53,7.75,1.53,0,0-3.41-1.53-7.75-1.53h0ZM505.24,510.1c-.72,0-1.47.04-2.23.14-.17.02-.35.05-.52.08-3.71.6-7.71,2.59-10.72,7.55h0c-.38.64-.75,1.32-1.1,2.05h0c-.41.86-.79,1.79-1.14,2.79-1.42,4.02-1.97,7.73-1.97,11.06,0,2.7.36,5.15.93,7.33.12.47.33.87.6,1.2.62.77,1.58,1.14,2.52,1.14.7,0,1.4-.21,1.96-.61.67-.46,1.14-1.23,1.14-2.26v-.04c0-.13,0-.27,0-.4,0-12.27,3.56-19.27,7.55-23.25.3-.3.61-.59.91-.86,4.79-4.2,9.82-4.39,9.82-4.39,0,0-3.41-1.53-7.75-1.53h0ZM512.99,511.63s-5.03.19-9.82,4.39c-.3.27-.61.56-.91.86-3.99,3.98-7.55,10.98-7.55,23.25,0-12.27,3.56-19.27,7.55-23.25.3-.3.61-.59.91-.86,4.79-4.2,9.82-4.39,9.82-4.39h0ZM512.99,511.63s-5.03.19-9.82,4.39c-.3.27-.61.56-.91.86-3.99,3.98-7.55,10.98-7.55,23.25,0-12.27,3.56-19.27,7.55-23.25.3-.3.61-.59.91-.86,4.79-4.2,9.82-4.39,9.82-4.39h0ZM491.77,517.87h0ZM491.77,517.87h0ZM491.77,517.88c-.38.63-.75,1.31-1.1,2.04.35-.73.72-1.41,1.1-2.04h0ZM491.77,517.88c-.38.63-.75,1.31-1.1,2.04.35-.73.72-1.41,1.1-2.04h0ZM490.67,519.92h0ZM490.67,519.92h0ZM490.67,519.93c-.41.85-.79,1.78-1.14,2.78-1.42,4.02-1.97,7.73-1.97,11.06,0-3.33.55-7.03,1.97-11.06.35-1,.73-1.93,1.14-2.78h0ZM490.67,519.93c-.41.85-.79,1.78-1.14,2.78-1.42,4.02-1.97,7.73-1.97,11.06,0-3.33.55-7.03,1.97-11.06.35-1,.73-1.93,1.14-2.78h0ZM487.56,533.77c0,2.7.36,5.15.93,7.33.12.47.33.87.6,1.2.62.77,1.58,1.14,2.52,1.14.7,0,1.4-.21,1.96-.61.67-.46,1.14-1.23,1.14-2.26,0,1.03-.47,1.8-1.14,2.26-.56.4-1.25.61-1.96.61-.94,0-1.9-.37-2.52-1.14-.27-.33-.48-.73-.6-1.2-.56-2.18-.93-4.64-.93-7.33h0ZM487.56,533.77c0,2.7.36,5.15.93,7.33.12.47.33.87.6,1.2.62.77,1.58,1.14,2.52,1.14.7,0,1.4-.21,1.96-.61.67-.46,1.14-1.23,1.14-2.26,0,1.03-.47,1.8-1.14,2.26-.56.4-1.25.61-1.96.61-.94,0-1.9-.37-2.52-1.14-.27-.33-.48-.73-.6-1.2-.56-2.18-.93-4.64-.93-7.33h0ZM494.71,540.13c0,.13,0,.27,0,.4v.04-.04c0-.13,0-.27,0-.4h0ZM494.71,540.13c0,.13,0,.27,0,.4v.04-.04c0-.13,0-.27,0-.4h0Z"/>
    <g>
      <path class="cls-2" d="M501.99,464.31c-.52-7.59-1.34-14.95-2.53-21.93-.68-3.98-1.47-7.83-2.4-11.52-1.37-5.49-3.03-10.64-5.03-15.37-7.5-17.76-19.71-29.57-38.96-30.58-.91-.07-1.84-.09-2.78-.09-13.55,0-24.95,6.9-33.47,17.78-1.59,2.03-3.08,4.2-4.46,6.49-6.93-14.43-18.53-23.37-36.1-24.2-.89-.05-1.8-.07-2.73-.07-42.48,0-52.19,50.36-52.19,103.46,0,21.03.62,39.61,2.44,55.49,0,.08,0,.16.02.23,4.81,41.69,17.9,64.72,49.73,64.72,16.68,0,30.94-7.28,40.65-22.75,5.16,11.53,14.57,22.75,36.11,22.75s34.51-10.51,42.2-30.17c1.18-2.99,2.23-6.2,3.17-9.61-.24-.12-.48-.25-.71-.4-.19-.11-.37-.22-.54-.34-1.2-.75-2.32-1.65-3.35-2.67-.18-.18-.36-.37-.54-.56-.05-.03-.08-.07-.11-.11-.16-.18-.33-.36-.49-.55-.19-.21-.37-.43-.55-.65-.17-.21-.35-.44-.52-.67-.17-.22-.34-.46-.5-.69-.21-.29-.41-.58-.59-.89-.12-.18-.23-.37-.35-.56-.02-.01-.03-.03-.03-.05-.29-.49-.58-1-.85-1.53-.31,1.48-.63,2.92-.97,4.31-.15.63-.31,1.25-.48,1.86-.16.61-.32,1.21-.5,1.81-.17.6-.34,1.19-.52,1.76-.29.92-.58,1.82-.89,2.69-.19.54-.38,1.07-.58,1.59-.18.49-.37.97-.56,1.45-.03.07-.06.14-.09.2-.18.46-.38.92-.58,1.37-.19.46-.4.9-.61,1.34-.03.08-.07.16-.11.23-.15.33-.31.65-.47.97-.08.17-.17.34-.26.5-.15.29-.3.58-.46.87-.09.18-.19.35-.28.51-.16.29-.32.57-.49.85-.06.11-.12.21-.19.31-.17.29-.35.58-.53.86-.22.36-.45.71-.69,1.05-.2.29-.4.58-.61.86-.05.08-.11.16-.16.23-.25.34-.51.67-.77,1,0,0,0,.02-.02.02-.2.26-.41.51-.62.76-.17.21-.35.41-.53.61-.04.05-.08.1-.13.15-.24.27-.48.53-.72.78-.28.28-.55.55-.82.81-.17.17-.35.34-.53.49-.21.2-.41.38-.63.57-.28.24-.56.47-.85.7-.2.16-.4.32-.61.47-.29.22-.58.43-.88.63-.22.16-.44.31-.67.45-.09.07-.19.13-.28.18-.29.19-.59.37-.89.54-.31.18-.62.36-.94.52-.23.13-.46.24-.69.35-.26.14-.52.26-.79.38-.34.15-.68.3-1.02.44-.04.02-.08.03-.12.05-.37.15-.74.29-1.12.42-.77.28-1.56.52-2.37.74-.3.08-.6.16-.91.22-.63.16-1.29.3-1.95.41-.46.08-.92.16-1.4.22-1.05.15-2.14.25-3.26.31-.88.06-1.77.08-2.69.08-20.63,0-25.49-11.52-28.83-25.18,5.77-15.47,7.89-29.73,5.16-55.82-.3-2.73-2.73-5.16-5.76-5.16-3.34,0-6.07,3.03-5.77,6.07,5.46,57.34-13.35,80.09-41.56,80.09-33.98,0-40.66-34.28-40.66-108.91,0-51.58,8.2-91.93,40.66-91.93,17.9,0,26.7,8.49,31.85,26.09-6.67,16.69-9.4,33.07-7.58,51.88.3,3.03,2.73,5.46,5.76,5.46,3.34,0,6.07-3.03,5.77-6.37-2.73-39.44,12.74-77.06,40.96-77.06,32.76,0,40.95,40.35,40.95,91.93,0,1.97,0,3.92-.02,5.84,0,1.35-.01,2.69-.03,4.01-.04,4.32-.1,8.49-.21,12.51.03-.03.07-.06.1-.09.14-.15.28-.29.43-.42t.01-.01c.18-.17.36-.33.54-.49.28-.25.56-.49.86-.72.29-.23.59-.45.89-.66.34-.25.7-.48,1.06-.7.68-.42,1.39-.8,2.13-1.14.46-.21.94-.4,1.43-.58.29-.11.58-.21.88-.3.05-.02.1-.04.15-.05.15-.05.3-.09.45-.13.3-.09.6-.17.9-.24.02-.01.03-.01.05-.01.24-.06.49-.11.75-.16.06-.02.13-.04.2-.04.27-.05.54-.1.81-.14.06-3.29.11-6.66.13-10.1,0-2.1.02-4.23.02-6.38,0-8.12-.23-16.17-.78-23.97ZM491.77,517.87h0c-.38.64-.75,1.32-1.1,2.05h0c-.17,4.04-.38,7.9-.64,11.61-.06.89-.13,1.78-.2,2.65-.06.88-.13,1.75-.21,2.6-.06.68-.12,1.36-.18,2.03-.11,1.18-.23,2.35-.35,3.49,1.09,1.34,3.18,1.47,4.48.53.68-.47,1.15-1.25,1.14-2.3-.08-12.52,3.52-19.63,7.55-23.65.09-2.15.16-4.34.23-6.56-3.71.6-7.71,2.59-10.72,7.55Z"/>
      <path class="cls-2" d="M490.67,519.93c-.17,4.03-.38,7.89-.64,11.6-.06.89-.13,1.78-.2,2.65-.06.88-.13,1.75-.21,2.6-.06.68-.12,1.36-.18,2.03-.11,1.18-.23,2.35-.35,3.49-.27-.33-.48-.73-.6-1.2-1.26-4.88-1.52-11.11,1.04-18.39.35-1,.73-1.93,1.14-2.78Z"/>
      <path class="cls-2" d="M491.19,498.13c-.04,4.32-.1,8.49-.21,12.51h0c-.12.13-.24.25-.35.38-.45.46-.87.95-1.27,1.45-.14.18-.28.36-.41.54-.23.3-.45.6-.66.91-.22.33-.45.67-.66,1.02-.02.03-.04.06-.06.09-.21.35-.43.72-.63,1.09,0,.01-.02.03-.03.05-.22.4-.43.8-.63,1.22-.15.3-.29.61-.43.92-.08.15-.15.31-.21.47-.19.43-.37.86-.53,1.29-.12.31-.24.63-.35.96-.03.08-.06.15-.08.23-.07.2-.14.41-.21.62-.06.16-.11.31-.15.47-.13.4-.25.81-.36,1.23-.06.19-.11.38-.15.57-.13.45-.24.9-.33,1.36-.03.09-.06.18-.07.28-.14.6-.26,1.2-.37,1.82-.02.1-.04.21-.05.31-.1.56-.19,1.12-.27,1.7-.01.03-.01.06-.01.09-.08.57-.16,1.15-.21,1.74-.03.16-.04.32-.05.48-.05.49-.1.99-.13,1.49-.02.22-.03.44-.04.67-.05.61-.07,1.22-.09,1.85-.03.73-.04,1.46-.04,2.21,0,.52.01,1.04.02,1.56.01.38.02.77.04,1.15.02.66.06,1.32.11,1.96.02.43.06.85.1,1.27.04.42.08.83.13,1.24.06.57.14,1.13.22,1.69.14.97.31,1.92.51,2.84.06.3.13.6.2.89.04.22.09.43.15.63.07.32.15.64.24.96,0,.03,0,.05.02.06.1.38.21.77.32,1.14.38,1.25.81,2.44,1.3,3.57.14.33.28.66.43.97.03.08.06.16.11.23.16.33.32.65.48.96-.31,1.48-.63,2.92-.97,4.31-.15.63-.31,1.25-.48,1.86-.16.61-.33,1.22-.5,1.81-.17.6-.34,1.19-.52,1.76-.29.92-.58,1.82-.89,2.69-7.02-7.57-11.02-19.17-11.02-33.55,0-19.31,7.13-33.66,19.04-40.02Z"/>
    </g>
    <g>
      <path class="cls-2" d="M656.59,515.68c-3.44-6.25-7.89-12.86-13.65-19.82,11.44-16.65,19-35.95,21.36-54.06.52-4,.79-7.93.79-11.77,0-9.23-1.75-17.05-4.87-23.46-6.65-13.67-19.56-20.92-35.15-21.68-.91-.05-1.83-.07-2.76-.07-13.89,0-25.39,6.33-34.3,16.21-1.6,1.77-3.11,3.65-4.54,5.63-6.02-12.9-20.72-20.93-34.6-21.76-.81-.06-1.61-.08-2.41-.08-22.29,0-35.99,12.08-44.17,30.65-.25.55-.49,1.12-.72,1.68-1.77,4.27-3.26,8.86-4.51,13.71-1.01,3.9-1.87,7.97-2.58,12.17-1.12,6.57-1.9,13.48-2.42,20.58-.58,8.03-.82,16.32-.82,24.67,0,3.33.02,6.6.05,9.8.04,4.12.11,8.14.22,12.05t.01-.01c.18-.17.36-.33.54-.49.28-.25.56-.49.86-.72.29-.23.59-.45.89-.66.34-.25.7-.48,1.06-.7.68-.42,1.39-.8,2.13-1.14.46-.21.94-.4,1.43-.58.29-.11.58-.21.88-.3.05-.02.1-.04.15-.05.15-.05.3-.09.45-.13.3-.09.6-.17.9-.24.02-.01.03-.01.05-.01.24-.06.49-.11.75-.16.06-.02.13-.04.2-.04.27-.05.54-.1.81-.14h0c.09-.02.18-.04.27-.04-.06-3.26-.09-6.62-.11-10.07,0-2.09-.02-4.21-.02-6.37,0-51.58,8.19-91.93,43.69-91.93,14.56,0,28.52,8.49,29.13,23.36-8.8,18.51-12.44,41.26-10.93,57.04.31,3.03,2.73,5.46,5.77,5.46,3.34,0,6.07-2.73,5.76-6.07-3.33-34.89,14.26-79.79,46.12-79.79,19.11,0,31.25,10.01,31.25,33.68,0,26.09-13.05,56.43-34.89,76.45-2.13,1.82-2.43,4.85-.91,7.28,2.12,3.04,6.37,3.34,9.1.61,3.03-2.73,6.07-5.77,8.8-9.1,19.42,23.96,20.93,42.17,20.93,57.03-.3,22.76-12.44,34.89-30.94,34.89-21.85,0-36.41-16.08-39.44-28.82,3.64-12.74,5.46-28.21,5.46-42.78,0-3.33-2.43-5.76-5.77-5.76-3.03,0-5.76,2.43-5.76,5.76,0,45.21-13.05,71.6-36.71,71.6-13.49,0-22.68-5.41-28.85-16.6-1.53-2.77-2.88-5.89-4.05-9.38-.08.01-.17.03-.26.04-.36.05-.72.1-1.09.13-.32.04-.64.06-.97.08-.22.02-.43.03-.65.03-.37.02-.76.03-1.14.03-.45,0-.9,0-1.34-.04-.1,0-.2,0-.3-.01-.3-.02-.6-.04-.89-.07-.16,0-.33-.03-.49-.05-.03-.01-.06-.01-.08-.01-.38-.05-.76-.1-1.14-.17-.35-.06-.69-.12-1.03-.2-.23-.05-.45-.1-.67-.16-.64-.15-1.27-.34-1.87-.56,1.13,3.98,2.42,7.67,3.89,11.06,7.74,17.89,20.46,27.41,40.93,27.41,16.68,0,29.12-9.4,37.01-26.09,7.89,13.05,23.97,26.09,45.21,26.09,17.88,0,32.82-10.4,39.19-27.66,2.05-5.58,3.21-11.87,3.28-18.76,0-11.88-1.03-27.55-11.53-46.62ZM503.01,510.24c-.17.02-.35.05-.52.08-3.71.6-7.71,2.59-10.72,7.55h0c.37,8.94.95,17.26,1.8,24.96.68-.47,1.15-1.25,1.14-2.3-.08-12.52,3.52-19.63,7.55-23.65.3-.3.61-.59.91-.86-.06-1.89-.11-3.82-.16-5.78Z"/>
      <path class="cls-2" d="M512.99,511.63s-5.03.19-9.82,4.39c-.06-1.89-.11-3.82-.16-5.78,5.35-.69,9.98,1.39,9.98,1.39Z"/>
      <path class="cls-2" d="M541.3,538.15c0,26.82-12.68,39.16-26.72,42.44-1.53-2.77-2.88-5.89-4.05-9.38.09,0,.18-.03.27-.05.68-.11,1.35-.25,2-.42.27-.07.54-.14.81-.23.5-.13.99-.3,1.46-.48.23-.08.46-.18.69-.28.16-.05.31-.12.46-.19.15-.06.31-.13.46-.22.26-.11.52-.24.77-.38.07-.02.14-.05.19-.09.27-.14.52-.28.78-.45.13-.07.26-.14.39-.23.19-.11.38-.23.56-.36.28-.17.55-.36.81-.57.22-.16.43-.32.64-.49.6-.46,1.16-.97,1.71-1.52.16-.15.31-.31.45-.47.16-.16.32-.33.47-.5.37-.41.72-.83,1.05-1.27.2-.24.38-.49.56-.75.06-.06.1-.13.14-.2.23-.32.45-.64.65-.98.03-.03.05-.05.05-.08.21-.32.41-.65.6-.99.06-.1.12-.21.17-.31.18-.32.36-.65.52-.98.04-.07.08-.15.11-.22.17-.33.33-.67.48-1.02.44-.97.84-2,1.19-3.07.15-.45.3-.91.43-1.38.1-.32.19-.65.27-.99.11-.4.21-.8.3-1.21.09-.35.17-.7.24-1.06.1-.46.19-.93.26-1.41.07-.38.14-.77.19-1.16.03-.17.06-.33.07-.49.07-.41.12-.83.16-1.25.03-.18.05-.37.06-.55.04-.33.08-.67.1-1.01.04-.32.06-.65.08-.98.03-.32.05-.64.06-.97.04-.57.06-1.14.08-1.73.02-.68.03-1.37.03-2.07,0-22.45-10.31-33.68-24.88-33.68-.54,0-1.07.02-1.59.05-.36.02-.72.05-1.07.09-.02,0-.04,0-.05.01-.27.02-.54.06-.8.1h-.01c-.06-3.26-.09-6.62-.11-10.07,1.18-.12,2.39-.18,3.63-.18,10.43,0,19.58,4.35,25.78,12.25,6.04,7.71,9.1,18.29,9.1,31.43Z"/>
      <path class="cls-1" d="M630.66,456.99c-4.29-43.84-17.92-37.37-36.59-30.17.19-.65,6.84-21.74,28.82-20.45,34.16,2,9.95,72.88,7.77,50.62Z"/>
      <path class="cls-1" d="M513,447.34c.24-1.18,8.06-39.16,24.4-40.88,15.35-1.62,24.71,8.98,27.85,15.27,3.15,6.29-27.74-29.61-52.25,25.61Z"/>
    </g>
    <g>
      <path class="cls-2" d="M532.2,506.72c-6.2-7.9-15.35-12.25-25.78-12.25-1.24,0-2.45.06-3.63.18,0,0-.02,0-.04.01-4.18.42-8.02,1.58-11.46,3.42-.03,0-.07.02-.1.05-11.91,6.36-19.04,20.71-19.04,40.02,0,14.38,4,25.98,11.02,33.55,2.69,2.89,5.81,5.2,9.32,6.85,3.06,1.43,6.41,2.37,10.01,2.76,1.28.14,2.58.21,3.92.21,2.72,0,5.47-.3,8.16-.93,14.04-3.28,26.72-15.62,26.72-42.44,0-13.14-3.06-23.72-9.1-31.43ZM531.27,540.22c-.02.59-.04,1.16-.08,1.73,0,.33-.03.65-.06.97-.02.33-.04.66-.08.98-.02.34-.06.68-.1,1.01-.01.18-.03.37-.06.55-.04.42-.09.84-.16,1.25,0,.16-.04.32-.07.49-.05.39-.12.78-.19,1.16-.07.48-.16.95-.26,1.41-.07.36-.15.71-.24,1.06-.09.41-.19.81-.3,1.21-.08.34-.17.67-.27.99-.13.47-.28.93-.43,1.38-.35,1.07-.75,2.1-1.19,3.07-.15.35-.31.69-.48,1.02-.03.07-.07.15-.11.22-.16.33-.34.66-.52.98-.05.1-.11.21-.17.31-.19.34-.39.67-.6.99,0,.03-.02.05-.05.08-.2.34-.42.66-.65.98-.04.07-.08.14-.14.2-.18.26-.36.51-.56.75-.33.44-.68.86-1.05,1.27-.15.17-.31.34-.47.5-.14.16-.29.32-.45.47-.55.55-1.11,1.06-1.71,1.52-.21.17-.42.33-.64.49-.26.21-.53.4-.81.57-.18.13-.37.25-.56.36-.13.09-.26.16-.39.23-.26.16-.52.31-.78.45-.05.04-.12.07-.19.09-.25.14-.51.27-.77.38-.15.09-.31.16-.46.22-.15.07-.3.14-.46.19-.23.1-.46.2-.69.28-.47.18-.96.35-1.46.48-.27.09-.54.16-.81.23-.65.17-1.32.31-2,.42-.09.02-.18.04-.27.05-.08.01-.17.03-.26.04-.36.05-.72.1-1.09.13-.32.04-.64.06-.97.08-.22.02-.43.03-.65.03-.37.02-.76.03-1.14.03-.45,0-.9,0-1.34-.04-.1,0-.2,0-.3-.01-.3-.02-.6-.04-.89-.07-.16,0-.33-.03-.49-.05-.03-.01-.06-.01-.08-.01-.38-.05-.76-.1-1.14-.17-.35-.06-.69-.12-1.03-.2-.23-.05-.45-.1-.67-.16-.64-.15-1.27-.34-1.87-.56-.21-.07-.41-.14-.61-.22-.59-.22-1.16-.47-1.71-.76-.21-.1-.42-.21-.63-.33-.24-.12-.48-.25-.71-.4-.19-.11-.37-.22-.54-.34-1.2-.75-2.32-1.65-3.35-2.67-.18-.18-.36-.37-.54-.56-.05-.03-.08-.07-.11-.11-.16-.18-.33-.36-.49-.55-.19-.21-.37-.43-.55-.65-.17-.21-.35-.44-.52-.67-.17-.22-.34-.46-.5-.69-.21-.29-.41-.58-.59-.89-.12-.18-.23-.37-.35-.56-.02-.01-.03-.03-.03-.05-.29-.49-.58-1-.85-1.53-.16-.31-.32-.63-.48-.96-.05-.07-.08-.15-.11-.23-.15-.31-.29-.64-.43-.97-.49-1.13-.92-2.32-1.3-3.57-.11-.37-.22-.76-.32-1.14-.01,0-.02-.03-.02-.06-.09-.32-.17-.64-.24-.96-.06-.2-.11-.41-.15-.63-.07-.29-.14-.59-.2-.89-.2-.92-.37-1.87-.51-2.84-.08-.56-.16-1.12-.22-1.69-.05-.41-.09-.82-.13-1.24-.04-.42-.08-.84-.1-1.27-.05-.64-.09-1.3-.11-1.96-.02-.38-.03-.77-.04-1.15,0-.52-.02-1.04-.02-1.56,0-.75.01-1.48.04-2.21.02-.63.04-1.24.09-1.85,0-.23.02-.45.04-.67.03-.5.08-1,.13-1.49,0-.16.02-.32.05-.48.05-.59.13-1.17.21-1.74,0-.03,0-.06.01-.09.08-.58.17-1.14.27-1.7,0-.1.03-.21.05-.31.11-.62.23-1.22.37-1.82,0-.1.04-.19.07-.28.09-.46.2-.91.33-1.36.04-.19.09-.38.15-.57.11-.42.23-.83.36-1.23.04-.16.09-.31.15-.47.07-.21.14-.42.21-.62.02-.08.05-.15.08-.23.11-.33.23-.65.35-.96.16-.43.34-.86.53-1.29.06-.16.13-.32.21-.47.14-.31.28-.62.43-.92.2-.42.41-.82.63-1.22,0-.02.02-.04.03-.05.2-.37.42-.74.63-1.09.02-.03.04-.06.06-.09.21-.35.44-.69.66-1.02.21-.31.43-.61.66-.91.13-.18.27-.36.41-.54.4-.5.82-.99,1.27-1.45.11-.13.23-.25.35-.37h0s.07-.07.1-.1c.14-.15.28-.29.43-.42t.01-.01c.18-.17.36-.33.54-.49.28-.25.56-.49.86-.72.29-.23.59-.45.89-.66.34-.25.7-.48,1.06-.7.68-.42,1.39-.8,2.13-1.14.46-.21.94-.4,1.43-.58.29-.11.58-.21.88-.3.05-.02.1-.04.15-.05.15-.05.3-.09.45-.13.3-.09.6-.17.9-.24.02-.01.03-.01.05-.01.24-.06.49-.11.75-.16.06-.02.13-.04.2-.04.27-.05.54-.1.81-.14h0c.09-.02.18-.04.27-.04h.01c.26-.04.53-.08.8-.1.01-.01.03-.01.05-.01.35-.04.71-.07,1.07-.09.52-.03,1.05-.05,1.59-.05,14.57,0,24.88,11.23,24.88,33.68,0,.7,0,1.39-.03,2.07Z"/>
      <path class="cls-2" d="M512.99,511.63s-5.03.19-9.82,4.39c-.3.27-.61.56-.91.86-4.03,4.02-7.63,11.13-7.55,23.65.01,1.05-.46,1.83-1.14,2.3-1.3.94-3.39.81-4.48-.53-.27-.33-.48-.73-.6-1.2-1.26-4.88-1.52-11.11,1.04-18.39.35-1,.73-1.93,1.14-2.78h0c.35-.74.72-1.42,1.1-2.05h0c3.01-4.97,7.01-6.96,10.72-7.56.17-.03.35-.06.52-.08,5.35-.69,9.98,1.39,9.98,1.39Z"/>
      <path class="cls-2" d="M512.99,511.63s-5.03.19-9.82,4.39c-.3.27-.61.56-.91.86-4.03,4.02-7.63,11.13-7.55,23.65.01,1.05-.46,1.83-1.14,2.3-1.3.94-3.39.81-4.48-.53-.27-.33-.48-.73-.6-1.2-1.26-4.88-1.52-11.11,1.04-18.39.35-1,.73-1.93,1.14-2.78h0c.35-.74.72-1.42,1.1-2.05h0c3.01-4.97,7.01-6.96,10.72-7.56.17-.03.35-.06.52-.08,5.35-.69,9.98,1.39,9.98,1.39Z"/>
    </g>
  </g>
</svg>