<?xml version="1.0" encoding="UTF-8"?>
<svg id="Elements" xmlns="http://www.w3.org/2000/svg" viewBox="0 0 1000 1000">
  <defs>
    <style>
      .cls-1 {
        fill: #231f20;
      }
    </style>
  </defs>
  <path class="cls-1" d="M730.98,584.98c15.39,42.06,5.27,87.87-26.43,119.57-21.89,21.89-50.53,33.48-80.02,33.48-13.18,0-26.55-2.27-39.55-7.05-54.82-20.05-115.16-20.05-169.91,0-42.13,15.39-87.93,5.27-119.64-26.43-31.7-31.7-41.82-77.51-26.37-119.57,20.05-54.82,20.05-115.16,0-169.91-15.45-42.13-5.34-87.93,26.37-119.64,31.7-31.7,77.51-41.82,119.64-26.37,27.41,9.99,56.17,15.02,84.93,15.02s57.58-5.03,84.99-15.02c42.06-15.45,87.87-5.34,119.57,26.37,31.7,31.7,41.82,77.51,26.43,119.64-20.05,54.76-20.05,115.1,0,169.91Z"/>
</svg>