<?xml version="1.0" encoding="UTF-8"?>
<svg id="Elements" xmlns="http://www.w3.org/2000/svg" viewBox="0 0 1000 1000">
  <defs>
    <style>
      .cls-1 {
        fill: #231f20;
      }
    </style>
  </defs>
  <path class="cls-1" d="M555.93,892.63c-19.58,0-38.9-5.15-55.93-14.98-23.33,13.47-50.96,18.15-77.67,12.84-26.7-5.31-50.45-20.21-66.85-41.59-26.71,3.53-54.04-2.73-76.67-17.86-22.64-15.13-38.87-37.98-45.84-64.01-26.03-6.97-48.88-23.21-64-45.84-15.12-22.64-21.38-49.97-17.86-76.68-21.38-16.4-36.28-40.15-41.59-66.85-5.31-26.7-.63-54.34,12.84-77.68-13.47-23.33-18.15-50.97-12.84-77.67,5.31-26.7,20.21-50.45,41.59-66.85-3.52-26.71,2.73-54.04,17.86-76.68,15.13-22.63,37.98-38.87,64-45.84,6.97-26.03,23.21-48.89,45.84-64.01,22.64-15.12,49.97-21.38,76.67-17.86,16.4-21.38,40.15-36.28,66.85-41.59,26.7-5.3,54.34-.63,77.68,12.84,23.34-13.48,50.98-18.15,77.68-12.84,26.7,5.31,50.45,20.21,66.84,41.59,26.7-3.53,54.04,2.73,76.67,17.86,22.64,15.13,38.87,37.98,45.84,64.01,26.03,6.97,48.88,23.21,64.01,45.84,15.12,22.63,21.38,49.96,17.86,76.67,21.38,16.4,36.28,40.15,41.59,66.85,5.31,26.7.63,54.34-12.84,77.67,13.47,23.33,18.15,50.97,12.84,77.67-5.31,26.7-20.21,50.45-41.59,66.85,3.52,26.71-2.73,54.04-17.86,76.67-15.13,22.64-37.98,38.87-64.01,45.84-6.97,26.03-23.21,48.88-45.84,64.01-22.63,15.12-49.97,21.37-76.67,17.86-16.4,21.38-40.15,36.28-66.85,41.59-7.21,1.43-14.49,2.14-21.74,2.14ZM500,807.21c10.21,0,20.43,3.2,28.95,9.61,10.33,7.76,23.01,10.64,35.69,8.13,12.68-2.52,23.29-10.04,29.87-21.17,10.84-18.35,32.83-27.46,53.47-22.16,12.53,3.21,25.34,1.04,36.09-6.14,10.75-7.18,17.67-18.19,19.49-30.99,3-21.1,19.83-37.94,40.94-40.93,12.8-1.82,23.8-8.74,30.98-19.49,7.18-10.75,9.37-23.56,6.15-36.08-5.3-20.65,3.81-42.64,22.15-53.48,11.13-6.58,18.65-17.18,21.17-29.87,2.52-12.68-.37-25.35-8.13-35.69-12.81-17.04-12.81-40.84,0-57.89,7.76-10.33,10.65-23.01,8.13-35.69-2.52-12.68-10.04-23.29-21.17-29.87-18.35-10.84-27.45-32.83-22.16-53.47,3.22-12.53,1.04-25.34-6.14-36.09-7.18-10.75-18.19-17.67-30.99-19.49-21.1-3-37.94-19.83-40.93-40.94-1.82-12.79-8.74-23.8-19.49-30.98-10.75-7.18-23.55-9.37-36.08-6.15-20.64,5.31-42.64-3.81-53.48-22.15-6.58-11.13-17.18-18.65-29.86-21.17-12.68-2.52-25.35.36-35.69,8.13h0c-17.04,12.82-40.86,12.81-57.9,0-10.33-7.76-23.01-10.65-35.69-8.13-12.68,2.52-23.29,10.04-29.87,21.17-10.84,18.35-32.82,27.46-53.47,22.16-12.53-3.22-25.34-1.04-36.09,6.14-10.75,7.18-17.67,18.19-19.49,30.99-2.99,21.1-19.83,37.94-40.94,40.93-12.79,1.82-23.79,8.74-30.98,19.49-7.18,10.75-9.37,23.56-6.15,36.09,5.3,20.65-3.81,42.64-22.15,53.48-11.13,6.58-18.65,17.18-21.17,29.87-2.52,12.68.37,25.35,8.13,35.69,12.81,17.04,12.81,40.84,0,57.89-7.76,10.33-10.65,23.01-8.13,35.69,2.52,12.68,10.04,23.29,21.17,29.87,18.35,10.84,27.45,32.83,22.16,53.47-3.22,12.53-1.03,25.34,6.15,36.09,7.18,10.75,18.18,17.67,30.98,19.49,21.1,2.99,37.94,19.83,40.93,40.94,1.82,12.8,8.74,23.8,19.49,30.98,10.75,7.18,23.56,9.37,36.08,6.15,20.64-5.3,42.64,3.81,53.48,22.15,6.58,11.13,17.18,18.65,29.87,21.17,12.68,2.52,25.36-.37,35.69-8.13,8.52-6.4,18.73-9.6,28.94-9.6Z"/>
</svg>