<?xml version="1.0" encoding="UTF-8"?>
<svg id="Elements" xmlns="http://www.w3.org/2000/svg" viewBox="0 0 1500 1000">
  <defs>
    <style>
      .cls-1 {
        fill: #231f20;
      }
    </style>
  </defs>
  <path class="cls-1" d="M1200.2,640.51l-33.22,10.78-20.52,28.27c-44.2,60.89-131.1,65.95-182.4,15.17h-357.66c-30.6,29.93-76.61,43.37-121.93,28.63l-33.22-10.81-33.21,10.81c-78.04,25.39-158.12-32.8-158.09-114.86l.02-34.93-20.55-28.25c-48.26-66.37-17.67-160.52,60.39-185.84l33.22-10.78,20.52-28.27c44.81-61.73,133.51-66.08,184.5-13.04h353.43c30.58-31.42,77.68-45.85,124.06-30.75l33.21,10.81,33.22-10.81c78.04-25.4,158.12,32.79,158.09,114.85l-.02,34.93,20.54,28.25c48.27,66.37,17.68,160.52-60.38,185.84Z"/>
</svg>