<?xml version="1.0" encoding="UTF-8"?>
<svg id="Elements" xmlns="http://www.w3.org/2000/svg" viewBox="0 0 1000 1000">
  <defs>
    <style>
      .cls-1 {
        fill: #231f20;
      }
    </style>
  </defs>
  <path class="cls-1" d="M738.06,523.97c0,31-19.8,61.99-55.25,68.88-3.49.66-7.19,1.12-10.99,1.32,5.62,10.94,8.15,21.93,8.15,32.41,0,34.08-26.64,62.8-58.85,68.42-17.27,3.04-36.11-.61-53.28-13.62-8.2,36.11-38.03,54.14-67.86,54.14s-59.61-18.03-67.81-54.14c-13.42,10.18-27.9,14.64-41.83,14.64-3.85,0-7.7-.36-11.45-1.01-42.08-7.34-74.65-54.19-50.64-100.83-42.29-2.08-66.29-36.11-66.29-70.2,0-25.57,13.47-51.15,42.69-63.46-15.85-14.69-22.69-32.61-22.69-50.19,0-42.64,40.41-82.85,90.55-67.31-.41-3.34-.61-6.58-.61-9.72,0-66.75,89.85-96.12,128.13-36.67,40.11-62.29,136.79-27.1,127.48,46.39,7.54-2.33,14.84-3.39,21.83-3.39,58.65,0,94.6,75.97,46.04,120.89,26.23,11.04,39.81,32.82,42.24,55.66.3,2.58.46,5.22.46,7.8Z"/>
</svg>