<?xml version="1.0" encoding="UTF-8"?>
<svg id="Layer_1" data-name="Layer 1" xmlns="http://www.w3.org/2000/svg" viewBox="0 0 1000 1000">
  <path d="M816.61,628.02c-1.61-4.51-11.74-24.7-11.82-26.13-.06-1.07,5.4-9.51,5.85-14.77,2.38-28.32-33.47-61.64-48.01-83.98,10.83-12.54,20.31-24.19,18.98-41.93-.36-4.82-5.15-16.21-4.99-17.93.14-1.43,8.89-14.54,10.48-18.56,4.4-11.11,5.89-21.33,1.99-32.92-1.51-4.49-8.42-13.21-8.51-16.47-.22-7.21,7.94-30.85,9.75-40.3,11.59-60.7,4.7-126.98-28.27-179.94-12.32-19.79-28.1-37.02-44.88-53.06-1.94-4.15,7.02-10.97,2.4-18.35-3.91-6.24-23.74-9.97-30.93-10.03-2.67-1.85,2.56-19.53-8.22-25.74-13.84-7.97-12.36,14.36-20.18,14.28-2.7-.03-5.73-3.43-9.47-3.69-2.62-.19-3.59,1.42-5.34,1.36-5.73-.22-28.4-9.25-36.64-11.26-79.12-19.32-158.23-13.34-219.8,43.95-53.62,49.88-83.64,124.53-93.38,196.34-14.36,5.12-26.62,10.38-32.26,25.68-1.29,3.51-3.83,12.3-4.22,15.76-.8,7.03.58,15.3,0,22.48-1.75.43-2-.72-3.01-1.49-4.33-3.33-8.72-9.14-12.96-13.01-13.73-12.5-43.79-39.85-59.37-16.38-13.52,20.38-1.39,69.06,8.21,90.51,1.03,2.29,4.13,5.79,4.13,7.8,0,2.28-7.44,13.17-7.92,21-1.57,25.65,34.32,63.31,51.91,80.93,23.38,23.41,50.03,40.44,76.73,59.62.68,6.49-1.53,12.63-.78,19.28.4,3.54,3.15,7.42,2.99,9.91-.18,2.92-6.78,16.57-8.11,21.93-7.78,31.25-2.14,77.1,27.19,95.94,8.12,5.22,30.74,16.87,39.67,19.27,2.83.77,9.75.96,11.19,1.8,3.11,1.83,17.1,26.79,14.91,29.4-.43.5-9.44,2.46-12.43,4.04-17.19,9.11-5.83,25.26-6.43,39.54-.46,10.69-3.6,12.66-7.06,20.91-1.28,3.04-1.65,9.34-2.2,10.3-.23.42-5.8,4.23-7.29,6.18-5.31,6.9-1.85,10.68-3.97,15.02-.34.7-9.1,7.68-11.01,9.97-10.52,12.62-17.08,38.14-13.22,54.2,3.15,13.13,14.57,16.51,26.51,18.45,28.15,4.55,100.18,5.77,126.07-4.23,17.38-6.7,55.76-31.32,66.93-45.96,8.25-10.82,3.2-34.59-5.48-44.42l-9.41-36.54c.16-2.76,5.76-4.96,7.93-6.92,10.2-9.16,8.6-13.28,5.7-25.7-4.71-20.19-9.73-31.04-29.33-39.6-9.09-3.97-14.47-.19-11.28-12.57,1.4-5.44,10.54-21.45,16.27-21.5.88,0,5.35.98,5.75,1.56,1.47,2.16,4.8,16.54,6.71,21.06,6.06,14.41,21.8,38.67,38.65,40.26,2.61.25,11.93-.86,12.46-.54,1.33.81,9.01,17.75,11.59,21.45,27.54,39.3,72.55,41.85,108.32,11.59,19.3-16.33,39.87-62.65,48.96-86.91,7.13-19.03,13.61-39.62,18-59.43,39.11,7.9,43.56-8.87,31.95-41.51ZM759.15,498.65l-26.46-26.46c8.54-5.77,18.75-8.89,27.27-14.67,2.46-1.67,10.52-9.6,11.24-9.76,2.82-.64,5.09,8.64,5.32,10.56,2.01,16.62-5.76,29.34-17.37,40.33ZM784.92,393.97c9.09,29.1-17.1,54.21-40.21,66.28-53.84,28.11-116.89,39.43-177.37,34.41-17.37-1.44-34.35-5.51-51.45-7.97,1.8,3.53,6.34,4.6,9.99,4.99.26.26-.55,1.29-.99,1.51-3.87,1.89-15.69,3.41-20.99,4.98-3.02.89-6.03,1.98-9.01,3.03-1.34.47-3.53-.18-2.99,1.95.57,2.24,40.36-7.57,45.46-7.56,7.09.01,17.34,3.32,24.99,4.06,53.34,5.18,98.64-1.53,148.86-18.95,3.58-1.24,14.09-6.59,16.75-5.87,17.6,16.48,33.94,35.2,48.63,54.35,11.85,15.43,31.36,38.67,29.02,58.9-1.24,10.65-21.51,29.08-30.34,35.39-23.09-25.35-53.92-38.26-86.91-22.76-3.54,1.66-10.64,7.7-13.63,6.38-2.34-1.02-1.68-8.33-2.14-10.89-3.82-21.13-11.78-33.63-22.64-51.27-2.54-4.12-4.86-10.14-7.35-13.63-.98-1.37-1.8-3.01-3.83-2.66,2.02,14.45,12.4,25.27,18.47,37.97,7.07,14.8,10.36,29.22,12.1,45.49-.17,1.08-9.4,9.41-10.09,9.42-.32,0-2.92-3.25-4.92-4.04-3.46-1.36-6.12.02-7.61-.49-1.49-.51-5.74-4.61-8.96-5.93-41.31-16.84-114.56,11.15-153.2,29.61-.99.48-8.68,4.2-4.12,4.85.8.12,12.04-3.32,14-3.96,41.99-13.52,71.94-34.94,119.84-30.99,1.2.1,5.34.37,5.5,1.97-5.71-.01-10.84,4.38-15.74,5.75-5.38,1.5-12.17,1.52-18.04,2.94-32.67,7.88-62.06,22.39-93.04,34.83-3.56.73-8.82,1.31-11.49-1.59-1.69-1.84-7.39-14.15-8.72-17.27-13.7-32.35-14.33-76.91-4.08-110.32.89-2.89,6.4-18.07,7.74-19.24,1.66-1.44,4.22-.85,6.26-1.73,7.68-3.33,4.08-19.4,5.27-25.7.6-3.18,7.74-7.22,10.46-9.52,1.29-1.09,1.77-3.04,2.98-4.02,18.85-15.26,54.97-6.64,77.9-5.93,53.2,1.67,93.19-5.35,141.08-27.83,19.89-9.34,38.43-17.58,49.8-37.12,2.03-3.49,4.45-10.87,6.41-13.4.65-.84,1.59-.98,2.04-.6.61.51,5.82,10.62,6.31,12.18ZM636.04,645.3c-3.58,2.57-8.74,6.19-11.79,9.18-2.98,2.93-8.21,12.06-9.89,13.08-4.02,2.46-8.04.44-7.56-4.45,1.2-12.1,33.98-28.17,44.95-31.57-1.79,8.06-10.06,9.71-15.71,13.76ZM641.28,647.54c-1.8,4.07-10.21,23.97-13.21,24.82-2.15.62-4.45-.41-5.1-2.57-2.59-8.62,11.94-18.43,18.31-22.25ZM608.25,651.47c-2.81,2.89-9.71,17.03-13.95,10.05-5.73-9.44,18.55-23.51,24.81-27.16,6.49-3.78,29.38-17.48,35.64-11.31,1.22,1.2,1.15,1.87,1,3.49-15.48,3.33-36.4,13.48-47.5,24.93ZM591.82,648.51c-9.02-19.71,28.16-36.11,42.22-33.72.95.17,7.44,2.48,7.72,2.78,1.66,1.76-.63,1.67-1.41,2.07-11.17,5.7-23.05,10.18-33.47,17.48l-15.06,11.39ZM484.07,455.55c-.68-1.13.58-3.64-1.12-5.37-.77-.79-8.13-3.29-9.37-3.2l-9.64,5.24c5.59,2.39.09,2.01-1.49,3.47-1.68,1.57-4.42,9.41-5.52,12-5.07-3.57.86-18.16,4.76-21,13.45-9.78,53.48,12.05,26.22,26v-15.98c0-.2-3.38-.39-3.84-1.16ZM473.48,472.46c-.33.06-6.28-1.57-6.48-1.84-.76-1.07,3.22-16.49,4.41-17.92,1.85-2.22,6.17-.58,8.48.07.7,1-5.04,19.45-6.41,19.69ZM462.43,463.69c.27-.4,1.25-1.32,1.5-.99.8,2.48-1,5.62-.91,7.57.23,4.7,11.57,8.23,14.82,3.82,1.58-2.15,4.16-15.33,5.58-15.37,1.89-.05,1.07,3.05,1.02,3.99-.5,9.18.09,18.4-.48,27.51-.11,1.71-1.15,11.03-1.47,11.51-1.89,2.77-29.97-1.96-31.42-4.19-.78-1.21.23-4.19.59-5.67,1.09-4.47,8.58-24.87,10.77-28.18ZM459.89,504.7c.42.43-.15,3.79.06,4.96-14.1.3-3.37,3.83-3.01,5.5.64,2.95-5.58,2.13-5.98,4l3.99,5.47c-14.61.25-2.08,4.81-2.02,5.5.31,4.16-6.67,3.2-6.98,3.5-2.73,2.63,4.96,4.3,4.98,5.5l-6.97,2.5,5.97,3.49-6.97,4,5.98.98c-1.03,3.84-2.16,3.96-5.98,4.52l3.97,3.49c.04,2.01-13.01,2.38-.98,5.99l-4.98,3.01,3.99,1.49c1.95,5.24-4.06,3.4-4.01,6.48.01.73,9.33,1.23-.97,6.01,1.65,2.56,6.28-.02,4.99,3.99-.51,1.56-6.2.61-5,2.98,1.38,2.73,10.83.08.01,6.01,2.5,2.96,5.84-.36,6.96,4-1.41,2.55-6.71.97-5.98,4.49,2.45-.15,7.13-.71,6.98,2.51-.07,1.39-6.68,1.52-4.98,5.48,9.21-.85,6.28,5.64.02,8.5l5.98,1.5c.98,5.33-1.58,3.49-5,5.49l5.99,1.5c1.56,3.03-6.31,2.38-3.99,4.99,1.17,1.3,8.04-1.81,6.86,3.38-.37,1.64-4.3,1.91-3.86,4.1l5.98,1.52c1.03,3.08-4.91,3.48-3.98,5.48.99,2.11,7.39.42,8.03,3.16.92,3.95-2.35,3.82-2.79,4.54-2.83,4.59,4.86,1.34,6.73,4.31.98,2.09-7.09,2.81-5.98,6.48,2,1.82,14.74-7.98,17.98-7.99-.15-.54.1-1.37,0-2-1.07.05-2.17-.85-3-1-.9,1.42-3.79,2.86-4.99,1.51.26-.74,1.93-1.35,1.99-1.51,2.52-6-5.03-.02-5.99-1-2.41-2.47,4.67-4.91,3.98-6.47-1.24-2.86-9.24,1.53-8.78-4.03.1-1.28,14.18-7.79-1.19-4.48-.83-3.57,5.87-2.48,4.99-6l-1-.99c-2.06-.2-5.11,2.11-6.52.03-2.99-4.4,5.47-3.42,5.5-5.53.02-1.72-4-1.35-4.97-1.5-5.96-.91-.25-1.82,0-2,2.56-1.87,3.58-2.16,1.99-3.99h-.99c-1.76.19-2.6.27-4-1-.11-.1-.84.17-1-.52-.29-1.25.84-1.23,1-1.48,1.26-1.92,3.27-3.04,4.97-4.49-1.16-2.26-3.7-1.06-4.97-1.5-1.85-.65-1.73-5.12,1-4,.16-.36,2.39-.76,2-2.48-.4-1.72-3.21-1.19-4-1.51-1.65-.68-1.52-2.13,0-3,.85-.49,4-.57,4.01-1.51.03-3.09-4.16-2.57-6.01-2.49-.57-3.12,1.07-1.53,2-2,.32-.15.61-.79,1-1,1.09-.56,2.64,1.26,2-2.99h-5c.15-.93-.24-2.3,0-3,.61-1.75,2.53-.79,4-1,5.41-.78-.93-4.08-4.01-3-1.11-5.35,3.1-1.36,6.01-3.99-.15-.23.35-1.46-.14-1.82-1.26-.95-6.71,1.22-5.86-3.67.17-1.1,6.84.64,5.99-3.5h-5.4c-2.59-3.84,2.81-3.94,5.41-4,1.08-3.7-4.29-1.26-5-2v-2.99s6.99-1.01,6.99-1.01c-.35-2.9-5.62-1.62-6-1.99-1.8-4.72,5-2.93,6-4,2.62-2.81-7.34-2.57-4.99-4.98.75-.76,5.77-.82,6-1.02,2.67-2.24-4.78-2.78-5-3-2.27-2.22,5.72-2.94,5.99-4.49-1.2-1.59-6.62-.47-4.99-3.98.92-1.97,5.16-1.15,5.99-3.01-2.79-1.23-5.11-1.76-4.99-5.49,1.57.75,8.95-.4,6.99-2.99-.2-.26-5.16-.62-4.97-3.51.15-2.34,6.72-.46,7.96-3.01,1.08-2.24-6.09-1.18-5.99-4.47,1.27-.81,8.67-1.69,8.99-2.02,2.71-2.82-6.39-1.74-4.99-4.98,1.6-.21,8.36.15,8.97,1.03.72,1.07-5.38,13.56-6.26,16.17-6.15,18.24-8.64,36.49-8.71,55.73-.01,3.9-.26,8.15,0,11.99.01.15.82.95,1,2.99.17,1.94-.23,4.11,0,6,.01.07.89.2,1,1,.46,3.31.35,7.68,1,10.99.02.11.67.5,1,1.99,3.29,15.02,8.82,28.16,14.99,41.96.39.88,3,.62,2.99,5,0,.76.14,1.58-.16,2.31-1.24,2.97-17.09,9.89-20.82,10.67-.27.06-.97,1.42-2.33.96-1.76-.43-1.28-2.25-1.66-2.95-5.6-10.33-11.69-29.18-14.7-40.75-11.09-42.57-8.35-88.76,10.66-128.67,1.61.94,9.62,2.25,9.98,2.62ZM714.7,85.56c2.01,2.29.69,9.33-1.14,10.37-1.09.62-2.51-.15-3.44-.79l-22.4-16.05c5.47-.52,23.65,2.66,26.98,6.47ZM668.18,63.04c2.44-2.95,5.09-11.99,8.05-11.97,6.68.05,9.5,21.41,5.51,24.52-1.43,1.12-1.58-.03-2.56-.46-4.91-2.13-9.71-7.03-15.44-8.05-.44-.6,3.61-3.04,4.44-4.04ZM393.99,95.55c61.01-56.39,141.58-60.52,219.02-40.17,129.26,33.98,196.04,143.77,172.3,275.63-3.94,21.85-11.54,50.34-24.25,68.67-7.92,11.41-37.57,26.59-50.99,31.92-.96.38-3.66,1.82-4.36,1.13-1.02-1.02.85-3.12,1.46-4.02,6.52-9.59,13.81-15.62,18.69-27.27,14.56-34.71.53-60.2,2.78-94.13,1.21-18.2,7.04-37.35,8.07-55.86,2.74-49.14-13.43-89.89-56.07-115.85-98.85-60.17-153.8,91.4-159.97,164.55l-2.27,1.7c-14.48-11.98-34.09-18.91-52.46-11.99,8.25-28.06,16.73-56.48,20.83-85.55,3.71-26.26,10.22-78.41-2.04-101.57-18.04-34.05-57.39-24.74-83.65-6.1-39.79,28.26-58.54,78.06-76.15,121.66l-14.83,25.61c14.37-54.82,41.93-109.58,83.89-148.36ZM475.56,383.72c15.33.76,40.43-17.39,49.83-28.9,2.12-2.6,6.82-12.15,7.43-12.55,1.58-1.04,8.4-.39,11.02-1.96-9.94,19.07-30.57,35.43-49.26,45.64-11.29,6.16-22.99,10.72-33.67.36-8.84-8.57-24.08-50.54-25.66-63.25-.15-1.16-.93-3.53.21-4.21.82,2.58,7.86,4.49,8.31,5.18.57.88,2.73,17.1,3.69,20.78,3.35,12.88,12.26,38.12,28.1,38.91ZM460.49,357.85c10.72-16.7,45.56-18.89,59.17-4.56-.24.79-.53,1.59-1.09,2.22-2.37,2.67-9.2,7.89-12.36,10.1-7.19,5.04-21.22,12.73-29.94,13.11-7.78.34-20.37-13.72-15.78-20.87ZM502.65,331.57c-9.32-3.31-16.94-9.09-25.34-12.62-11.5-4.83-19.3,2.58-30.62.65-4.23-.72-13.47-6.24-9.24-10.77,3.75-4.03,31.26-14.89,37.24-15.7,28.96-3.95,51.63,21,68.15,41.2-11.54,5.7-28.42,1.43-40.19-2.76ZM305.81,265.11c5.5-16.79,16.7-30.07,24.12-45.81,22.93-48.66,40.21-111.56,98.27-130.51,53.14-17.33,59.43,28.67,57.71,68.7-1.97,45.76-13.26,89.81-25.19,133.66-.99,2.1-17.49,8.01-21.45,10.51-7,4.42-7.9,6.07-8.28,14.69-.8,17.86,10.73,46.85,19.08,62.81,16.02,30.59,40.08,16.8,61.54,1.84,11.91-8.3,37.4-29.02,37.07-44.71-.2-9.26-19.13-22.4-24.43-29.9,9.63-53.37,21.47-111.89,59.54-152.91,51.66-55.67,127.9-10.36,143.82,52.05,9.59,37.61-2.53,68.01-4.92,103.83-2.46,37,14.7,55.8-5,94.4-22.48,44.05-62.41,50.06-108.35,51.99-23.1.97-45.97-2.53-68.94-3.08-13.8-.33-26.86-.42-38.49,8.03-1.46-8.78-7.81-13.72-15-17.98-5.91-.72-10.43-3.12-16.98-3-3.96.08-6.36,1.25-10.02,1.59l-31.94-17.57c-20.45-7.21-52.38-25.51-72.93-35.97-.52-.26-.8-.89-1-1-.66-.33-1.33-.65-1.99-.99-26.79-13.76-38.75-17.82-47.96-48.96-.09-.3.09-.69,0-1-.02-.07-.84-.38-1-.99-5.32-20.99-4.04-49.1,2.72-69.72ZM193.18,401.28c-6.83-18.1-14.04-51.62-8.02-70,11.61-35.51,56.11,13.49,69.16,26.2,0,1.58-10.99,10.58-13.29,12.35-10.77,8.28-21.41,21.16-29.65,32-1.47,1.94-8.25,10.83-8.78,11.29-1.84,1.59-8.99-10.71-9.42-11.84ZM384.01,744.42c-5.16-.1-12.08-2.39-16.65-4.82-3.15-1.67-5.53-4.68-7.99-6-8.21-4.4-18.27-6.67-24.31-14.14,6.11,0,15.11.49,18.98-5-7.08-1.6-19.18,3.95-24.52-.96-5.99-5.5-14.88-27.37-16.31-35.63-3.45-19.9,1.35-55.22,14.44-71.23,15.54-18.99,70.01-28.95,92.58-42.29,1.09-.65,2.47-1.36,2.75-2.74-22.93,5.28-47.06,14.21-68.61,23.8-12.01,5.33-22.87,10.65-32.28,20.15-3.07-11.03.68-22.12,3.72-32.73,3.07-10.78,7.57-23.46,12.39-33.56,6.05-12.68,16.9-23.12,17.83-37.12.19-2.82-.07-5.67,0-8.48-5.53,3.21-3.64,11.7-5.74,16.73-1.44,3.47-8.7,11.88-11.4,16.57-9.14,15.85-14.84,33.24-20.3,50.61-17.73-15.26-39.49-26.54-56.98-41.92-16.74-14.72-62.03-61.57-67.11-81.75-3.92-15.54.51-22.38,8.88-34.48,16.01-23.18,34.75-45.16,57.75-61.63,3.17,31.53,31.83,60,57.64,75.74,31.55,19.24,72.44,28.95,109.2,29.15-.43-1.72-4.43-2.22-5.94-2.54-16.01-3.34-31.33-5.11-47.43-9.52-49.89-13.66-106.5-46.79-110.51-104.28-1.65-23.71,5.13-46.47,31-51.48-2.07,12.84-.08,25.27,2,37.95-3.75-2.91-2.46-9.93-6.97-11.98,2.3,27.89,24.44,51.38,47.92,64.46,36.25,20.18,79.77,35.57,114.94,56.89,1.42.86,2.96,1.5,3.86,3.02-4.51,5.69-7.99,15.41-6.45,22.55.48,2.22,2.33,4.43,2.55,6.52.58,5.79-11.23,33.63-13.74,41.1-14.26,42.34-15.39,81.79-2.26,124.67,1.53,4.96,11.97,30.01,11.83,31.69-.12,1.36-1.04,3.1-1.81,4.26-4.57,6.89-43.44,25.19-53.87,32.05-9.66,6.34-26.19,16.56-25.05,29.38,3.1.86,4.04-5.95,5.49-5.97.98,1.61,11.58,11.99,10.48,12.96ZM393.63,787.51c1.66-.86,10.64-4.15,11.94-4.11,2.46.06,2.48,3.12,3.43,4.96-11.11,2.15-11.78,13.78-10,23-3.41-.08-6.81-.5-9.5,1.98-4.04-8.68-6.12-20.57,4.13-25.83ZM442.48,824.33c7.83,2.67,35.05,13.83,39.45,19.48,3.99,5.13.5,9.09-5.26,8.32-22.29-13.59-45.47-21.73-71.3-25.66-3.52-.54-14.28.11-15.91-3.14-1.39-2.77,1.07-7.05,4.26-7.76,11.55-2.55,37.09,4.78,48.76,8.76ZM434.97,816.36h53.44c5.33,0,9.26,3.67,7.33,9.32-.85,2.49-9.77,3.74-12.32,3.74-16.17.01-30.51-4.49-45.23-10.79-1.24-.53-2.96-.54-3.22-2.27ZM440.96,845.32c-.67-.35.59-1.7,1.99-.98.68.35-.58,1.69-1.99.98ZM398,829.35c-2.92,2.56-13,6.91-9.53-.06,1.06-1.73,7.04.98,9.53.06ZM391.74,836.56c15.79-6.23,31.07-4.1,46.47,2.04,1.07.42,2.97.28,2.75,1.73-11.45.77-24.17-1.04-35.47,0-4.42.41-11.87,2.34-16.26,3.72-1.08.33-8.68,4.27-8.21,2.78,2.55-5.29,5.23-8.1,10.72-10.27ZM383.8,855.6c11.9-3.83,24.79-4.49,37.18-4.29-.41-1.99-2.05-1.69-3.51-1.98-11.65-2.26-22.95.13-34.45,1.98.73-1.46,4.51-2.96,6.01-3.46,18.88-6.34,61.93-1.12,77.85,11.02,6.29,4.8,3.65,11.66-3.4,10.44-2.63-.45-3.95-3.52-6.18-4.86-5.78-3.46-26.51-6.71-33.78-7.18-16.27-1.03-34.86-.19-50.01,6.02.6-5.09,6.24-6.39,10.29-7.69ZM555.35,872.31c2.72,8.53,6.51,24.59,1.02,31.98-9.96,13.41-49.27,38.67-65.2,44.7-26.56,10.05-77.62,7.8-106.7,6.27-9.07-.48-27.77-2.34-34.76-8.19-2.46-2.06-5.66-8.44-5.66-11.33,0-5.3-.71-13.12,0-17.98.04-.27,1.21-2.62,1.5-2.5,14.62,9.69,34.95,9.11,51.94,10,29.11,1.52,69.36,2.06,97.2-6.72,22.28-7.03,49.06-25.78,60.66-46.23ZM518.39,756.39c6.3.32,20.77,8.22,24.89,13.09,5.05,5.95,13.5,31.05,12.62,38.42-1.4,11.68-31.55,19.96-32.02,21.95-1.48,6.3,16.09-2.28,16.97-1.51,2.71,14.71,8.35,29.09,9.58,43.96-2.1,8.79-30.99,28.76-39.52,33.49-33.31,18.47-107.84,19.04-145.06,12.15-6.46-1.2-12.93-2.58-18.71-5.82,2.52-23.22,21.56-36.46,41.87-43.83-1.66-3.67-7.08-1.36-9.96-.46-.75.24-10.88,5.75-9.01,1.99,2.22-4.5,26.1-8.21,31.42-8.55,12.89-.81,41.83,1.03,53.19,6.83,5.05,2.58,10.61,9.8,17.3,2.72,6.87-7.27.05-14.73-7.33-17.69l-20.66-7.79c4.71-.29,9.46.21,14,1.47,7.78,2.15,23.75,17.55,29.19,4.26,4.27-10.42-8.43-13.45-14.22-18.73,6.21-.9,15.74,1.22,21.48,0,6.64-1.42,8.55-14.17,1.78-17.77-2.17-1.16-7.15-2.03-9.74-2.25-27.7-2.36-55.97,3.55-83.45-.96-1.61-14.21.35-18.05,14.49-19.97,17.89.9,40.5-4.61,57.81-2.88,6.24.62,12.26,2.93,15.15,8.82l2.94,12.02c4.44-5.09,1.98-11.25.51-16.96,5.96-1.26,36.37-10.49,34.98-17.47-.76-3.8-7.04,2.19-8.99,2.47-.6-5.86-3.89-13.71-3.02-19.5.23-1.49-.58-1.6,1.52-1.5ZM539.48,714.84c-6.27-.19-16.81-2.97-23.06-3.42-2.69-.2-15.8-.7-16.51,1.55-1.59,5.05,7.79,3.16,10.47,3.49,1.9.24,13.03,1.5,13.5,2,2.17,2.29-3.75,6.87-4.83,8.65-10.64,17.53-9.6,32.99-4.57,52.31-.72,1.02-22.01,8.73-23.25,8.75-1.58.03-4.16-2.59-6.32-3.28-16.21-5.19-49.24,1.42-67.43,1.58-1.45.01-2.95.19-4.01-1.07-.94-1.12-4.29-11.61-5.62-14.36-5.21-10.73-11.45-20.75-18.87-30.08-1.41-1.78-11.31-12.91-9.96-14.99.73-1.12,17.76-11.6,20.6-13.38,54.03-33.83,125-63.79,184.89-85.18,9.05,2.63-.44,18.58-3.42,20.62-3.39,2.33-10.17,7.52-13.22,10.28-15.82,14.32-26.41,35.25-28.39,56.53ZM627.76,816.87c-15.17-13.21-16.31-22.59-26.55-37.39-6.23-8.99-16.5-15.12-20.89-25.06-3.17-7.21-4.19-16.14-4.5-23.98-3.68,1.89-3.16,7-3.03,10.54.28,8.1,3.73,17.91,8.62,24.34,1.24,1.63,12.71,11.9,11.4,13.07-3.07-.08-6.19.29-9.25-.23-16.99-2.92-36.23-39.98-38.28-55.68-1.39-10.57,7.26-32.82,12.76-42.3,6.77-11.65,18.92-25.63,32.77-27.66-.71,4.64-2.24,7.36.99,11.5,5.33,6.84,10.5,1.09,10.99,1.48.21.18.6,3.35,2.49,5.03,2.59,2.3,7.25,2.75,10.29,1.25,2.05-1.02,1.5-3.08,3.2-3.27-.01,6.28,6.11,9.79,11.78,7.32,1.44-.63,13.42-23.45,15.79-27.23,23.63-37.52,60.42-64.91,104.62-38.85,3.15,1.86,20.73,13.78,17.67,17.79-15.08-9.93-36.31-6.33-52.2.24-43.52,17.99-70.25,91.78-80.38,134.41-4.62,19.44-9.54,41.39-.29,60.15-.66.72-7.07-4.66-8-5.47ZM777.95,677.31c-7.85,35.62-27.44,79.78-45.11,111.74-11.7,21.17-36.92,40.23-61.57,42.33-52.42,4.46-34.83-52.93-26.23-83.17,12.2-42.87,40.09-115.22,91.41-121.39,36.54-4.39,48.8,17.36,41.5,50.49ZM794.2,666.41c-1.16-.16-8.31-2.57-8.58-2.94-.13-.18,1.17-2.59,1.05-4.4-.62-9.53-4.05-21.92-9-30.04,7.57-4.16,14.93-15.22,21.39-19.52.98-.66,1.59-1.28,2.92-.89,1.83.53,10.23,22.23,11.33,25.7,6.2,19.56,8.12,35.88-19.11,32.09Z"/>
  <path d="M632.6,230.17c-17.81.41-38.29,9.75-49.19,23.82-17.43,22.49-28.99,60.32,3.05,75.7,25.73,12.34,84.83,15.61,98.44-15.17,17.43-39.44-7.68-85.38-52.3-84.35ZM631.67,333.59c-15.74,0-32.23-3.22-43.04-8.41-8.95-4.29-14.5-10.78-16.51-19.29-3.9-16.5,5.77-36.62,15.24-48.83,5.81-7.5,14.88-11.09,18.28-11.46,2.76-.29,14.79,1.58,16.19,1.96,7.24,1.93,12.17,3.56,18.5,7.71,11.38,7.47,18.14,19.98,18.54,34.32.45,15.77-6.86,31.17-19.08,40.21,0,0-5.56,3.79-8.12,3.79ZM680.58,312.21c-7.55,17.52-21.02,17.98-37.82,21.61,26.84-19.85,29.37-63.67.32-82.73-8.64-5.66-13.68-5.74-23.32-7.66-1.07-.21-3.23-.06-2.97-1.5,42.06-13.75,81.04,30.23,63.79,70.28Z"/>
  <path d="M395.76,178.24c-32.05,3.99-55.88,53.54-42.08,81.53,9.94,20.18,51.74,38.26,71.23,24.54,34.87-24.54,20.95-112.31-29.15-106.07ZM365.54,268.89c-20.27-19.48-11.72-51.65,7.47-68.44,11.23-9.83,25.06-17.48,39.68-9.69,1.33.71,12,8.66,10.28,10.19-33.07-12.66-61.32,19.84-59.97,51.5.24,5.59,2.98,10.95,2.54,16.44ZM422.03,280.22c-3.66,2.58-8.55,3.89-14.54,3.89-12.19,0-26.66-5.53-37.1-13.17l.13-1.65c.31-3.86-.58-7.49-1.37-10.7-.55-2.25-1.07-4.37-1.15-6.35-.58-13.43,4.68-27.28,14.05-37.07,7.43-7.75,16.76-12.02,26.27-12.02,4.25,0,12.36,1.66,15.82,3.07,1.71.7,10.15,4.07,11.47,8.24,7.16,22.59,4.03,53.36-13.58,65.76Z"/>
  <path d="M670.68,362.34c-5.45-6.99-13.41-10.67-22.79-10.67-1.84,0-3.73.14-5.66.42-18.37,2.7-25.92,19.32-23.88,34.35,1.8,13.26,11.47,26.49,28.62,26.49,1.43,0,2.92-.09,4.45-.28,11.02-1.38,19.35-7.59,23.44-17.48,4.44-10.74,2.76-23.93-4.18-32.83ZM671.17,393.64c-3.52,8.5-10.71,13.85-20.24,15.04-17.33,2.16-26.86-9.88-28.62-22.78-1.77-13.08,4.7-27.53,20.5-29.85,10.35-1.52,19.13,1.59,24.72,8.75,6.08,7.8,7.54,19.39,3.64,28.84Z"/>
  <path d="M357.3,289.59c-5.12-6.48-12.53-9.9-21.21-9.9-1.81,0-3.68.15-5.59.45-17.31,2.72-24.51,19.27-22.5,33.46,1.79,12.59,10.6,24.4,26.41,24.4,1.38,0,2.83-.09,4.32-.28,10.74-1.36,18.8-7.37,22.71-16.94,4.18-10.24,2.52-22.78-4.14-31.19ZM357.73,319.27c-3.33,8.17-10.26,13.31-19.5,14.48-15.84,2.01-24.6-8.96-26.27-20.71-1.78-12.61,4.22-26.6,19.16-28.95,9.6-1.5,17.78,1.33,23.05,7.98,5.79,7.32,7.22,18.25,3.56,27.2Z"/>
  <path d="M437.96,667.51c1.1,1.05-5.07,6.72-5.98,7.5-13.87,11.94-35.8,22.51-52.96,28.45l58.94-35.95Z"/>
  <path d="M431.96,513.65l-62.45-2.99-1.49-2c11.64-1.12,23.71-1.6,35.46-.99,5.58.29,21.34,1.46,25.93,3.04,1.63.56,2.91.73,2.55,2.94Z"/>
  <path d="M479.26,490.83c-2.04-1.25-21.44-4.02-23.15-2.98-.72.44-2.51,5.89-2.09,7.18.87,2.65,21.98,5.57,24.91,4.14,2.64-1.3,3.06-6.67.33-8.34ZM476.41,496.68c-4.73-1.69-9.85-1.48-14.69-2.3-5.68-.96-5.17-3.54.02-3.09,5.1.44,10.01,2.48,15.19,2.38l-.52,3.01Z"/>
</svg>